<svg width="965" height="705" viewBox="0 0 965 705" fill="none" xmlns="http://www.w3.org/2000/svg">
<path d="M180.815 258.215C204.237 355.87 103.37 428.691 148.643 516.831C197.526 611.997 251 618.678 394.662 601.582C465.779 584.429 523.184 586.641 593.96 597.822C875.426 617.624 873.658 585.304 915.408 443.787C992.969 180.883 825.738 231.265 713.505 164.511C534.404 57.985 126.755 32.8275 180.815 258.215Z" fill="#BBDEED"/>
<g style="mix-blend-mode:multiply">
<g style="mix-blend-mode:multiply" opacity="0.75">
<path fill-rule="evenodd" clip-rule="evenodd" d="M563.628 534.753C712.308 534.753 833.425 530.968 833.425 526.237C833.425 521.506 712.15 517.721 563.628 517.721C415.105 517.721 293.83 521.506 293.83 526.237C293.673 530.81 414.948 534.753 563.628 534.753Z" fill="#68667B"/>
</g>
</g>
<path d="M180.815 258.215C204.237 355.87 103.37 428.691 148.643 516.831C197.526 611.997 251 618.678 394.662 601.582C465.779 584.429 523.184 586.641 593.96 597.822C875.426 617.624 873.658 585.304 915.408 443.787C992.969 180.883 825.738 231.265 713.505 164.511C534.404 57.985 126.755 32.8275 180.815 258.215Z" fill="url(#paint0_linear)"/>
<circle cx="707.752" cy="160.603" r="56.5" transform="rotate(4.56374 707.752 160.603)" fill="#F7FCFF"/>
<g filter="url(#filter0_f)">
<path fill-rule="evenodd" clip-rule="evenodd" d="M703 217.5C678 217.5 652.363 195.5 650.5 165.5C648.857 139.046 664.412 123.458 678 122C698.814 119.766 753.5 173 727 214C727 214 741.925 213.577 703 217.5Z" fill="#D5DEE6"/>
</g>
<mask id="mask0" mask-type="alpha" maskUnits="userSpaceOnUse" x="116" y="46" width="849" height="659">
<path d="M180.815 258.215C204.237 355.87 103.37 428.691 148.643 516.831C197.526 611.997 251 618.678 394.662 601.582C465.779 584.429 523.184 586.641 593.96 597.822C875.426 617.624 873.658 585.304 915.408 443.787C992.969 180.883 825.738 231.265 713.505 164.511C534.404 57.985 126.755 32.8275 180.815 258.215Z" fill="url(#paint1_linear)"/>
</mask>
<g mask="url(#mask0)">
<g style="mix-blend-mode:darken" opacity="0.54">
<path fill-rule="evenodd" clip-rule="evenodd" d="M145.006 251.341L419.452 251.752C438.076 251.752 565.434 245.593 520 255.653C494.213 261.401 339.022 271.255 308.323 272.282C269.438 273.514 886.276 274.335 586.248 292.607C493.947 298.15 674.66 303.077 688.167 302.872C892.62 300.203 1005.8 303.693 1065.96 302.872V267.56C1060.03 267.355 1053.69 267.355 1046.93 267.355C1040.38 267.355 967.115 267.355 976.12 264.481C980.009 263.249 1042.02 258.322 1020.74 255.653C987.581 251.547 923.406 262.017 888 262.017C808.506 262.017 802.775 246.004 748.746 246.004C744.448 246.004 632.658 245.798 634.5 244.361C640.844 239.639 794.589 240.255 808.506 241.282C892.415 247.441 980.827 242.308 1065.76 239.845L965 222.5L119.076 244.361L145.006 251.341ZM237.156 141.539L382.599 136.095C427.269 134.438 208.182 154.951 402.145 154.951C554.928 156.369 752.481 168.034 725.21 169.016C694.512 170.043 603.287 166.752 577.5 172.5C532.066 182.56 621.876 182.5 640.5 182.5L1065.96 204.533L145.006 216.646C157.394 205.134 267.392 208.247 267.392 208.247C267.392 208.247 2897.8 191.394 429.451 191.394C394.045 191.394 142.268 202.639 109.113 198.327C87.829 195.659 378.711 189.341 382.599 188.109C445.562 179.507 203.334 179.507 196.58 179.507C176.524 179.713 159.128 178.892 145.006 179.097L237.156 141.539Z" fill="url(#paint2_linear)"/>
</g>
<path fill-rule="evenodd" clip-rule="evenodd" d="M915.668 402.896C915.668 402.423 915.285 402.039 914.812 402.039V402.039C914.585 402.039 914.371 401.943 914.187 401.81C914.066 401.723 913.938 401.647 913.807 401.583C913.268 401.318 912.762 400.826 912.762 400.225V400.225C912.762 399.623 913.249 399.136 913.85 399.136H914.094C914.83 399.136 915.426 398.539 915.426 397.804V392.484C915.426 391.748 914.83 391.152 914.094 391.152V391.152C913.358 391.152 912.762 390.555 912.762 389.819V389.7C912.762 388.898 913.412 388.248 914.214 388.248V388.248C915.017 388.248 915.668 387.597 915.668 386.795V385.588C915.668 384.786 915.017 384.135 914.214 384.135V384.135C913.412 384.135 912.762 383.485 912.762 382.683V382.564C912.762 381.828 913.358 381.232 914.094 381.232V381.232C914.83 381.232 915.426 380.635 915.426 379.899V374.579C915.426 373.844 914.83 373.247 914.094 373.247V373.247C913.358 373.247 912.762 372.651 912.762 371.915V371.795C912.762 370.994 913.412 370.344 914.214 370.344V370.344C915.017 370.344 915.668 369.693 915.668 368.89V367.684C915.668 366.881 915.017 366.231 914.214 366.231V366.231C913.412 366.231 912.762 365.581 912.762 364.779V364.659C912.762 363.924 913.358 363.327 914.094 363.327V363.327C914.83 363.327 915.426 362.731 915.426 361.995V356.675C915.426 355.939 914.83 355.343 914.094 355.343V355.343C913.358 355.343 912.762 354.746 912.762 354.011V353.891C912.762 353.089 913.412 352.439 914.214 352.439V352.439C915.017 352.439 915.668 351.789 915.668 350.986V349.78C915.668 348.977 915.017 348.326 914.214 348.326V348.326C913.412 348.326 912.762 347.676 912.762 346.875V346.755C912.762 346.019 913.358 345.423 914.094 345.423V345.423C914.83 345.423 915.426 344.826 915.426 344.091V338.771C915.426 338.035 914.83 337.439 914.094 337.439V337.439C913.358 337.439 912.762 336.842 912.762 336.106V335.987C912.762 335.185 913.412 334.535 914.214 334.535V334.535C915.017 334.535 915.668 333.884 915.668 333.082V332.117C915.668 331.315 915.017 330.664 914.214 330.664V330.664C913.412 330.664 912.762 330.014 912.762 329.212V329.093C912.762 328.357 913.358 327.761 914.094 327.761V327.761C914.83 327.761 915.426 327.164 915.426 326.428V321.108C915.426 320.373 914.83 319.776 914.094 319.776V319.776C913.358 319.776 912.762 319.18 912.762 318.444V318.324C912.762 317.523 913.412 316.873 914.214 316.873V316.873C915.017 316.873 915.668 316.222 915.668 315.419V314.213C915.668 313.41 915.018 312.76 914.215 312.76V312.76C913.412 312.76 912.762 312.109 912.762 311.306V307.316C912.762 304.309 910.324 301.872 907.318 301.872H906.827C903.55 301.872 900.893 299.215 900.893 295.937V291.836C900.893 289.495 898.995 287.597 896.654 287.597V287.597C894.313 287.597 892.415 285.699 892.415 283.358V275.934C892.415 272.621 889.729 269.934 886.415 269.934H881.999H880.788H876.373C873.059 269.934 870.373 272.621 870.373 275.934V283.358C870.373 285.699 868.475 287.597 866.134 287.597V287.597C863.793 287.597 861.895 289.495 861.895 291.836V295.937C861.895 299.215 859.238 301.872 855.96 301.872V301.872C852.683 301.872 850.026 304.529 850.026 307.806V314.119C850.026 317.393 847.397 320.054 844.126 320.179C832.957 320.608 825.319 321.644 825.319 322.68V327.277V327.035V327.035V330.422V330.664V330.664V336.471C825.319 336.471 825.319 336.471 825.319 336.471C825.319 336.471 825.319 336.471 825.319 336.229V339.374V339.616V339.616V345.423C825.319 345.423 825.319 345.423 825.319 345.423C825.319 345.423 825.319 345.423 825.319 345.181V348.326V348.568V348.568V354.375C825.319 354.375 825.319 354.375 825.319 354.375C825.319 354.375 825.319 354.375 825.319 354.133V357.278V357.52V357.52V363.327C825.319 363.327 825.319 363.327 825.319 363.327C825.319 363.327 825.319 363.327 825.319 363.085V366.231V371.554V374.699V374.941V374.941V380.748V380.506V380.506V383.651V383.893V383.893V389.7V392.845V393.087V393.087V393.203C825.319 395.678 823.313 397.684 820.838 397.684V397.684C818.363 397.684 816.357 395.678 816.357 393.203V306.178C816.357 302.864 813.615 300.178 810.302 300.178V300.178C806.988 300.178 804.246 297.492 804.246 294.178V256.996C804.246 253.986 801.806 251.546 798.796 251.546V251.546C795.786 251.546 793.346 249.106 793.346 246.096V239.642C793.346 236.328 790.66 233.642 787.346 233.642H781.664C778.35 233.642 775.664 236.328 775.664 239.642V246.096C775.664 249.106 773.224 251.546 770.214 251.546V251.546C767.204 251.546 764.764 253.986 764.764 256.996V294.244C764.764 297.521 762.107 300.178 758.829 300.178H754.105C753.437 300.178 752.895 300.72 752.895 301.388V301.388C752.895 302.056 752.353 302.598 751.685 302.598H751.198C750.396 302.598 749.746 303.248 749.746 304.049V304.049C749.746 304.851 750.396 305.501 751.198 305.501H751.32C752.19 305.501 752.895 306.206 752.895 307.076V308.282C752.895 309.151 752.19 309.856 751.32 309.856H751.198C750.396 309.856 749.746 310.506 749.746 311.308V311.308C749.746 312.11 750.396 312.76 751.198 312.76H751.32C752.19 312.76 752.895 313.464 752.895 314.334V315.54C752.895 316.41 752.19 317.115 751.32 317.115H751.198C750.396 317.115 749.746 317.765 749.746 318.566V318.566C749.746 319.368 750.396 320.018 751.198 320.018H751.32C752.19 320.018 752.895 320.723 752.895 321.593V322.799C752.895 323.668 752.19 324.373 751.32 324.373V324.373C750.451 324.373 749.746 325.078 749.746 325.948V326.428C749.746 327.298 750.451 328.002 751.32 328.002V328.002C752.19 328.002 752.895 328.707 752.895 329.577V330.783C752.895 331.653 752.19 332.358 751.32 332.358H751.198C750.396 332.358 749.746 333.008 749.746 333.809V333.809C749.746 334.611 750.396 335.261 751.198 335.261H751.32C752.19 335.261 752.895 335.966 752.895 336.835V338.042C752.895 338.911 752.19 339.616 751.32 339.616H751.198C750.396 339.616 749.746 340.266 749.746 341.068V341.068C749.746 341.87 750.396 342.519 751.198 342.519H751.32C752.19 342.519 752.895 343.224 752.895 344.094V345.784C752.895 346.654 752.19 347.358 751.32 347.358H751.198C750.396 347.358 749.746 348.008 749.746 348.81V348.81C749.746 349.612 750.396 350.262 751.198 350.262H751.32C752.19 350.262 752.895 350.967 752.895 351.836V353.043C752.895 353.912 752.19 354.617 751.32 354.617H751.198C750.396 354.617 749.746 355.267 749.746 356.069V356.069C749.746 356.87 750.396 357.52 751.198 357.52H751.32C752.19 357.52 752.895 358.225 752.895 359.095V360.301C752.895 361.171 752.19 361.876 751.32 361.876H751.198C750.396 361.876 749.746 362.525 749.746 363.327V363.327C749.746 364.129 750.396 364.779 751.198 364.779H751.32C752.19 364.779 752.895 365.484 752.895 366.353V367.56C752.895 368.429 752.19 369.134 751.32 369.134H751.198C750.396 369.134 749.746 369.784 749.746 370.586V370.586C749.746 371.387 750.396 372.037 751.198 372.037H751.32C752.19 372.037 752.895 372.742 752.895 373.612V374.818C752.895 375.688 752.19 376.393 751.32 376.393H751.198C750.396 376.393 749.746 377.042 749.746 377.844V377.844C749.746 378.646 750.396 379.296 751.198 379.296H751.32C752.19 379.296 752.895 380.001 752.895 380.87V382.077C752.895 382.946 752.19 383.651 751.32 383.651H751.198C750.396 383.651 749.746 384.301 749.746 385.103V385.103C749.746 385.904 750.396 386.554 751.198 386.554H752.048C752.516 386.554 752.895 386.934 752.895 387.401V387.401C752.895 387.869 752.516 388.248 752.048 388.248H747.566C744.623 388.248 742.237 390.634 742.237 393.577V441.284C742.237 444.598 744.923 447.284 748.237 447.284H909.668C912.982 447.284 915.668 444.598 915.668 441.284V402.896Z" fill="#323845"/>
<path fill-rule="evenodd" clip-rule="evenodd" d="M915.668 305.747C915.668 303.874 914.15 302.356 912.277 302.356V302.356C910.404 302.356 908.886 300.837 908.886 298.965V292.32C908.886 289.978 906.988 288.081 904.647 288.081V288.081C902.306 288.081 900.408 286.183 900.408 283.842V276.418C900.408 273.105 897.722 270.418 894.408 270.418H889.75H888.539H883.882C880.568 270.418 877.882 273.105 877.882 276.418V283.963C877.882 286.237 876.038 288.081 873.764 288.081V288.081C871.49 288.081 869.646 289.924 869.646 292.198V296.421C869.646 299.699 866.989 302.356 863.712 302.356V302.356C860.434 302.356 857.777 305.013 857.777 308.29V314.603C857.777 317.877 855.149 320.538 851.877 320.663C840.708 321.092 833.07 322.128 833.07 323.163V327.761V327.519V327.519V330.664C833.07 330.664 833.07 330.664 833.07 330.664C833.07 330.664 833.07 330.664 833.07 330.906V336.713C833.07 336.713 833.07 336.713 833.07 336.713C833.07 336.713 833.07 336.713 833.07 336.471V339.616C833.07 339.616 833.07 339.616 833.07 339.616C833.07 339.616 833.07 339.616 833.07 339.858V345.665V345.423V345.423V348.568V348.81V348.81V354.617C833.07 354.617 833.07 354.617 833.07 354.617C833.07 354.617 833.07 354.617 833.07 354.375V357.52C833.07 357.52 833.07 357.52 833.07 357.52C833.07 357.52 833.07 357.52 833.07 357.762V363.569C833.07 363.569 833.07 363.569 833.07 363.569C833.07 363.569 833.07 363.569 833.07 363.327V366.473V371.554V374.699V374.941V374.941V380.748V380.506V380.506V383.651V383.893V383.893V389.7V392.845V393.087V393.087V393.087C833.07 395.626 831.01 397.684 828.471 397.684V397.684C825.929 397.684 823.866 395.624 823.866 393.082V306.178C823.866 302.864 821.124 300.178 817.81 300.178V300.178C814.497 300.178 811.755 297.492 811.755 294.178V257.117C811.755 254.04 809.261 251.546 806.184 251.546V251.546C803.107 251.546 800.613 249.052 800.613 245.975V239.642C800.613 236.328 797.926 233.642 794.613 233.642H788.688C785.375 233.642 782.688 236.328 782.688 239.642V245.975C782.688 249.052 780.194 251.546 777.117 251.546V251.546C774.04 251.546 771.546 254.04 771.546 257.117V294.178C771.546 297.492 768.86 300.178 765.546 300.178H760.645C759.976 300.178 759.435 300.72 759.435 301.388V301.388C759.435 302.056 758.893 302.598 758.225 302.598H757.738C756.936 302.598 756.286 303.248 756.286 304.049V304.049C756.286 304.851 756.936 305.501 757.738 305.501H757.86C758.73 305.501 759.435 306.206 759.435 307.076V308.282C759.435 309.151 758.73 309.856 757.86 309.856H757.738C756.936 309.856 756.286 310.506 756.286 311.308V311.308C756.286 312.11 756.936 312.76 757.738 312.76H757.86C758.73 312.76 759.435 313.464 759.435 314.334V315.54C759.435 316.41 758.73 317.115 757.86 317.115H757.738C756.936 317.115 756.286 317.765 756.286 318.566V318.566C756.286 319.368 756.936 320.018 757.738 320.018H757.86C758.73 320.018 759.435 320.723 759.435 321.593V322.799C759.435 323.668 758.73 324.373 757.86 324.373V324.373C756.991 324.373 756.286 325.078 756.286 325.948V326.428C756.286 327.298 756.991 328.002 757.86 328.002V328.002C758.73 328.002 759.435 328.707 759.435 329.577V330.783C759.435 331.653 758.73 332.358 757.86 332.358H757.738C756.936 332.358 756.286 333.008 756.286 333.809V333.809C756.286 334.611 756.936 335.261 757.738 335.261H757.86C758.73 335.261 759.435 335.966 759.435 336.835V338.042C759.435 338.911 758.73 339.616 757.86 339.616H757.738C756.936 339.616 756.286 340.266 756.286 341.068V341.068C756.286 341.87 756.936 342.519 757.738 342.519H757.86C758.73 342.519 759.435 343.224 759.435 344.094V345.784C759.435 346.654 758.73 347.358 757.86 347.358H757.738C756.936 347.358 756.286 348.008 756.286 348.81V348.81C756.286 349.612 756.936 350.262 757.738 350.262H757.86C758.73 350.262 759.435 350.967 759.435 351.836V353.043C759.435 353.912 758.73 354.617 757.86 354.617H757.738C756.936 354.617 756.286 355.267 756.286 356.069V356.069C756.286 356.87 756.936 357.52 757.738 357.52H757.86C758.73 357.52 759.435 358.225 759.435 359.095V360.301C759.435 361.171 758.73 361.876 757.86 361.876H757.738C756.936 361.876 756.286 362.525 756.286 363.327V363.327C756.286 364.129 756.936 364.779 757.738 364.779H757.86C758.73 364.779 759.435 365.484 759.435 366.353V367.56C759.435 368.429 758.73 369.134 757.86 369.134H757.738C756.936 369.134 756.286 369.784 756.286 370.586V370.586C756.286 371.387 756.936 372.037 757.738 372.037H757.86C758.73 372.037 759.435 372.742 759.435 373.612V374.818C759.435 375.688 758.73 376.393 757.86 376.393H757.738C756.936 376.393 756.286 377.042 756.286 377.844V377.844C756.286 378.646 756.936 379.296 757.738 379.296H757.86C758.73 379.296 759.435 380.001 759.435 380.87V382.077C759.435 382.946 758.73 383.651 757.86 383.651H757.738C756.936 383.651 756.286 384.301 756.286 385.103V385.103C756.286 385.904 756.936 386.554 757.738 386.554H758.588C759.056 386.554 759.435 386.934 759.435 387.401V387.401C759.435 387.869 759.056 388.248 758.588 388.248H754.106C751.163 388.248 748.777 390.634 748.777 393.577V441.284C748.777 444.598 751.463 447.284 754.777 447.284H909.668C912.982 447.284 915.668 444.598 915.668 441.284V305.747Z" fill="#2C2A3F"/>
<path fill-rule="evenodd" clip-rule="evenodd" d="M792.862 410.507C790.924 410.507 789.47 409.056 789.47 407.12V404.459V404.459C789.47 404.145 789.58 403.843 789.764 403.59C790.583 402.463 791.166 401.162 791.166 399.862C791.166 396.474 788.502 387.764 785.111 387.764C781.719 387.764 779.055 396.474 779.055 399.862V399.862C779.055 400.544 778.493 401.313 777.81 401.313H774.805C773.273 401.313 772.031 400.071 772.031 398.538V317.844C772.031 316.238 770.729 314.937 769.124 314.937V314.937C767.519 314.937 766.217 313.636 766.217 312.03V309.86C766.217 308.12 764.807 306.711 763.068 306.711H762.339C761.003 306.711 759.919 305.627 759.919 304.291V304.291V301.269C759.919 300.265 759.106 299.452 758.103 299.452V299.452C757.099 299.452 756.286 298.639 756.286 297.635V295.46C756.286 293.255 754.499 291.468 752.294 291.468H748.652C746.447 291.468 744.659 293.255 744.659 295.46V297.635C744.659 298.639 743.846 299.452 742.843 299.452V299.452C741.839 299.452 741.026 300.265 741.026 301.269V303.804C741.026 305.543 739.616 306.953 737.877 306.953V306.953C736.138 306.953 734.728 308.362 734.728 310.101V313.001V313.001C734.728 314.204 733.753 315.179 732.551 315.179H731.458C729.652 315.179 728.188 316.643 728.188 318.449V330.543C728.188 339.028 721.31 345.907 712.824 345.907H689.657C681.105 345.907 674.173 338.974 674.173 330.422V318.328C674.173 316.455 672.654 314.937 670.782 314.937V314.937C668.909 314.937 667.39 313.419 667.39 311.546V308.043C667.39 307.307 666.794 306.711 666.058 306.711V306.711C665.322 306.711 664.726 306.114 664.726 305.378V305.017V305.017C664.726 303.681 663.643 302.597 662.307 302.597H656.488C655.152 302.597 654.068 303.681 654.068 305.017V305.017V305.017C654.068 305.952 653.31 306.711 652.375 306.711H650.191C649.255 306.711 648.497 305.952 648.497 305.017V305.017V305.017C648.497 303.681 647.414 302.597 646.078 302.597H640.38C639.245 302.597 638.324 303.518 638.324 304.654V305.378C638.324 306.114 637.727 306.711 636.992 306.711V306.711C636.256 306.711 635.659 307.307 635.659 308.043V313.001V313.001C635.659 314.07 634.793 314.937 633.724 314.937H633.479C632.275 314.937 631.299 315.913 631.299 317.117V414.347C631.299 423.184 638.463 430.347 647.299 430.347H791.166C793.831 430.347 796.253 428.17 796.253 425.266V420.427V420.185V413.653C796.253 411.959 794.799 410.507 792.862 410.507Z" fill="#4D5B71"/>
<path fill-rule="evenodd" clip-rule="evenodd" d="M800.562 410.507C798.624 410.507 797.171 409.056 797.171 407.12V404.459V404.459C797.171 404.145 797.281 403.843 797.465 403.59C798.283 402.463 798.867 401.162 798.867 399.862C798.867 396.474 796.202 387.764 792.811 387.764C789.42 387.764 786.756 396.474 786.756 399.862V399.862C786.756 400.544 786.194 401.313 785.511 401.313H782.506C780.973 401.313 779.731 400.071 779.731 398.538V317.844C779.731 316.238 778.43 314.937 776.824 314.937V314.937C775.219 314.937 773.918 313.636 773.918 312.03V309.86C773.918 308.12 772.508 306.711 770.769 306.711H770.04C768.703 306.711 767.62 305.627 767.62 304.291V304.291V301.269C767.62 300.265 766.807 299.452 765.803 299.452V299.452C764.8 299.452 763.987 298.639 763.987 297.635V295.46C763.987 293.255 762.199 291.468 759.995 291.468H756.352C754.147 291.468 752.36 293.255 752.36 295.46V297.635C752.36 298.639 751.547 299.452 750.543 299.452V299.452C749.54 299.452 748.727 300.265 748.727 301.269V303.804C748.727 305.543 747.317 306.953 745.578 306.953V306.953C743.839 306.953 742.429 308.362 742.429 310.101V313.001V313.001C742.429 314.204 741.454 315.179 740.251 315.179H739.159C737.353 315.179 735.889 316.643 735.889 318.449V330.543C735.889 339.028 729.01 345.907 720.525 345.907H697.358C688.806 345.907 681.873 338.974 681.873 330.422V318.328C681.873 316.455 680.355 314.937 678.482 314.937V314.937C676.609 314.937 675.091 313.419 675.091 311.546V308.043C675.091 307.307 674.495 306.711 673.759 306.711V306.711C673.023 306.711 672.427 306.114 672.427 305.378V305.017V305.017C672.427 303.681 671.343 302.597 670.007 302.597H664.188C662.852 302.597 661.769 303.681 661.769 305.017V305.017V305.017C661.769 305.952 661.011 306.711 660.075 306.711H657.891C656.956 306.711 656.198 305.952 656.198 305.017V305.017V305.017C656.198 303.681 655.115 302.597 653.778 302.597H648.081C646.945 302.597 646.024 303.518 646.024 304.654V305.378C646.024 306.114 645.428 306.711 644.692 306.711V306.711C643.956 306.711 643.36 307.307 643.36 308.043V313.001V313.001C643.36 314.07 642.493 314.937 641.424 314.937H641.18C639.976 314.937 639 315.913 639 317.117V414.347C639 423.184 646.163 430.347 655 430.347H798.867C801.531 430.347 803.953 428.17 803.953 425.266V420.427V420.185V413.653C803.953 411.959 802.5 410.507 800.562 410.507Z" fill="#3B354A"/>
<path fill-rule="evenodd" clip-rule="evenodd" d="M198.596 385.376C193.873 384.431 188.205 385.14 182.774 387.737C181.357 384.904 179.468 383.014 176.634 382.07C170.73 380.181 163.882 384.431 160.103 391.988C158.214 391.044 156.089 390.571 153.727 390.099C144.281 388.682 135.78 392.224 133.654 398.6C132.71 398.6 131.529 398.364 130.584 398.364C130.584 398.128 130.348 397.892 130.348 397.656C128.459 392.697 122.319 390.099 115.471 390.571C116.652 387.974 116.888 385.14 115.943 382.542C113.345 376.166 103.427 373.805 93.745 377.583C92.5643 378.055 91.6197 378.528 90.6751 379C86.8967 371.443 80.2845 366.012 72.4915 365.067V447.72C76.5061 448.9 80.9929 449.609 85.7159 449.609C94.2173 449.609 101.774 447.483 107.914 444.177C113.582 447.011 120.666 448.664 128.223 448.664C136.724 448.664 144.281 446.539 150.421 443.233C156.089 446.067 163.173 447.72 170.73 447.72C175.217 447.72 179.468 447.011 183.482 446.067C185.371 447.011 187.733 447.483 189.858 447.956V456.693C191.511 456.221 193.164 455.749 194.817 455.04C199.304 456.221 204.027 456.929 209.222 456.929C217.724 456.929 225.753 455.04 232.129 451.734C238.977 455.513 247.715 457.874 257.161 457.874C265.662 457.874 273.691 455.985 280.068 452.679C286.916 456.457 295.653 458.819 305.099 458.819C311.712 458.819 317.852 457.638 323.283 455.749C329.895 459.055 337.688 460.944 346.426 460.944C350.676 460.944 354.691 460.472 358.469 459.527C363.901 459.055 369.096 457.638 373.819 455.749C378.306 457.638 383.501 459.055 389.169 459.527C392.947 460.472 396.962 460.944 401.213 460.944C409.714 460.944 417.743 459.055 424.355 455.749C429.787 457.638 435.927 458.819 442.539 458.819C451.985 458.819 460.722 456.457 467.571 452.679C474.183 455.985 481.976 457.874 490.477 457.874C499.923 457.874 508.661 455.513 515.509 451.734C522.121 455.04 529.914 456.929 538.416 456.929C543.375 456.929 548.334 456.221 552.821 455.04C554.474 455.749 556.127 456.221 557.78 456.693V447.956C560.142 447.483 562.267 446.775 564.156 446.067C568.171 447.247 572.421 447.72 576.908 447.72C584.465 447.72 591.549 446.067 597.217 443.233C603.357 446.775 610.914 448.664 619.415 448.664C626.972 448.664 631.931 452.679 637.835 449.845C643.975 453.387 653.657 449.609 662.158 449.609C663.339 449.609 664.284 449.609 665.465 449.609C666.645 449.609 667.59 449.609 668.771 449.609C677.272 449.609 686.954 453.151 693.094 449.845C698.762 452.679 703.957 448.664 711.514 448.664C720.015 448.664 727.572 446.539 733.712 443.233C739.38 446.067 746.464 447.72 754.021 447.72C758.508 447.72 762.758 447.011 766.773 446.067C768.662 447.011 771.024 447.72 773.149 447.956V456.693C774.802 456.221 776.455 455.749 778.108 455.04C782.595 456.221 787.318 456.929 792.513 456.929C801.015 456.929 809.044 455.04 815.42 451.734C822.268 455.513 831.006 457.874 840.452 457.874C848.953 457.874 856.982 455.985 863.358 452.679C870.207 456.457 878.944 458.819 888.39 458.819C895.002 458.819 901.142 457.638 906.574 455.749C913.186 459.055 920.979 460.944 929.717 460.944C933.967 460.944 937.982 460.472 941.76 459.527C947.192 459.055 952.387 457.638 957.11 455.749C961.597 457.638 966.792 459.055 972.46 459.527C976.238 460.472 980.253 460.944 984.503 460.944C993.005 460.944 1001.03 459.055 1007.65 455.749C1013.08 457.638 1019.22 458.819 1025.83 458.819C1035.28 458.819 1044.01 456.457 1050.86 452.679C1057.47 455.985 1065.27 457.874 1073.77 457.874C1083.21 457.874 1091.95 455.513 1098.8 451.734C1105.41 455.04 1113.21 456.929 1121.71 456.929C1126.43 456.929 1131.15 456.221 1135.4 455.276V384.904C1134.46 384.904 1133.28 385.14 1132.33 385.376C1131.15 384.195 1129.74 383.251 1128.08 382.778C1121.47 380.653 1113.68 385.612 1109.43 394.114C1107.3 393.169 1104.94 392.46 1102.34 391.988C1091.72 390.335 1082.03 394.586 1079.67 401.434C1078.49 401.198 1077.31 401.198 1076.13 401.198C1076.13 400.962 1075.89 400.726 1075.89 400.253C1073.77 394.586 1066.92 391.752 1059.13 392.46C1060.31 389.391 1060.54 386.321 1059.6 383.487C1056.77 375.93 1045.43 373.332 1034.57 377.583C1033.39 378.055 1032.21 378.528 1031.02 379.236C1026.77 370.262 1019.22 364.122 1010.01 363.414C1007.41 363.178 1004.81 363.414 1002.21 364.122C1005.05 353.968 1002.21 344.05 995.13 341.452C988.754 339.091 981.197 343.105 976.474 350.898C973.64 349.245 970.571 348.3 967.264 348.064C963.722 347.828 960.416 348.3 957.11 349.481C941.76 343.577 903.268 333.895 912.005 363.886C909.408 363.178 906.81 362.942 904.212 363.178C895.002 363.886 887.209 370.262 883.195 379C882.014 378.291 880.833 377.819 879.653 377.347C868.79 373.096 857.691 375.694 854.621 383.251C853.44 386.084 853.676 389.154 855.093 392.224C847.3 391.516 840.452 394.586 838.326 400.017C838.326 400.253 838.09 400.49 838.09 400.962C836.91 400.962 835.729 401.198 834.548 401.198C832.187 394.114 822.504 390.099 811.878 391.752C809.28 392.224 806.919 392.933 804.793 393.877C800.542 385.376 792.749 380.417 786.137 382.542C784.484 383.014 783.067 383.959 781.887 385.14C777.164 384.195 771.496 384.904 766.065 387.501C764.648 384.668 762.758 382.778 759.925 381.834C754.021 379.945 745.047 373.568 741.269 381.125C733.24 377.583 720.724 374.513 720.724 388.918C716.945 385.376 713.639 388.918 713.639 391.044C711.75 384.668 709.152 384.668 703.249 385.14C709.625 370.026 691.677 358.927 678.217 371.679C672.077 358.455 663.575 365.303 657.435 378.528C656.491 378.055 655.31 377.583 654.365 377.111C644.683 373.332 634.765 375.694 632.167 382.306C631.223 384.904 631.459 387.501 632.64 390.335C625.791 389.863 619.651 392.46 617.762 397.42C617.762 397.656 617.526 397.892 617.526 398.128C616.581 398.128 615.401 398.128 614.456 398.364C612.331 392.224 603.829 388.446 594.383 389.863C592.022 390.335 589.896 390.807 588.007 391.752C584.229 384.195 577.381 379.708 571.477 381.834C568.879 382.778 566.754 384.668 565.337 387.501C559.905 384.904 554.238 384.195 549.515 385.14C548.334 383.959 546.917 383.014 545.264 382.542C538.652 380.417 530.859 385.376 526.608 393.877C524.483 392.933 522.121 392.224 519.524 391.752C508.897 390.099 499.215 394.35 496.853 401.198C495.673 400.962 494.492 400.962 493.311 400.962C493.311 400.726 493.075 400.49 493.075 400.017C490.95 394.35 484.101 391.516 476.308 392.224C477.489 389.154 477.725 386.084 476.781 383.251C473.947 375.694 462.612 373.096 451.749 377.347C450.568 377.819 449.387 378.291 448.206 379C443.956 370.026 436.399 363.886 427.189 363.178C424.591 362.942 421.994 363.178 419.396 363.886C428.134 333.659 389.641 343.577 374.291 349.481C370.985 348.3 367.679 347.828 364.137 348.064C360.831 348.3 357.761 349.245 354.927 350.898C350.204 343.105 342.647 339.091 336.271 341.452C329.187 344.05 326.353 353.968 329.187 364.122C326.589 363.414 323.991 363.178 321.394 363.414C312.184 364.122 304.627 370.499 300.376 379.236C299.196 378.528 298.015 378.055 296.834 377.583C285.971 373.332 274.872 375.93 271.802 383.487C270.621 386.321 270.858 389.391 272.275 392.46C264.482 391.752 257.633 394.822 255.508 400.253C255.508 400.49 255.272 400.726 255.272 401.198C254.091 401.198 252.91 401.434 251.729 401.434C249.368 394.35 239.686 390.335 229.059 391.988C226.461 392.46 224.1 393.169 221.975 394.114C217.724 385.612 209.931 380.653 203.319 382.778C201.429 383.251 200.013 384.195 198.596 385.376Z" fill="url(#paint3_linear)"/>
<path d="M964 637L998 444C998 444 900 429 858 429C622.904 429 512.853 418.316 278 429C208.438 432.164 100 439.5 100 439.5V637H964Z" fill="#7CC076"/>
<path d="M1226 480H69.0001V645.208H1226V480Z" fill="#C4CDDF"/>
<path d="M1226 488H69.0001V502.937H1226V488Z" fill="#767D86"/>
<path d="M1226 479.928H69.0001V487.833H1226V479.928Z" fill="#E7EEF6"/>
<path d="M1226 485H69.0001V487.833H1226V485Z" fill="#CCCCCC"/>
<path d="M151.79 566.819L183.157 573H69.0001V566.819H151.79ZM1226 573V566.819H1177.15L1208.52 573H1226ZM1113.13 566.819L1144.5 573H1016.2L984.83 566.819H1113.13ZM920.809 566.819L952.177 573H823.878L792.511 566.819H920.809ZM728.49 566.819L759.858 573H631.559L600.192 566.819H728.49ZM536.428 566.819L567.796 573H439.497L408.13 566.819H536.428ZM344.109 566.819L375.477 573H247.178L215.811 566.819H344.109Z" fill="white"/>
</g>
<g style="mix-blend-mode:multiply">
<g style="mix-blend-mode:multiply" opacity="0.75">
<path fill-rule="evenodd" clip-rule="evenodd" d="M563.628 534.753C712.308 534.753 833.425 530.968 833.425 526.237C833.425 521.506 712.15 517.721 563.628 517.721C415.105 517.721 293.83 521.506 293.83 526.237C293.673 530.81 414.948 534.753 563.628 534.753Z" fill="#68667B"/>
</g>
</g>
<path fill-rule="evenodd" clip-rule="evenodd" d="M624.107 433.979C650.567 433.191 662.222 451.012 662.38 481.133C662.38 511.097 640.802 530.18 618.437 528.287C596.072 526.395 578.59 507.155 580.165 481.133C581.74 455.112 597.647 434.768 624.107 433.979Z" fill="#231F20"/>
<path fill-rule="evenodd" clip-rule="evenodd" d="M635.605 439.657C649.307 439.657 660.175 454.481 662.222 474.352C662.38 476.56 662.38 478.768 662.38 481.133C662.38 506.997 646.315 527.026 627.73 527.814C613.712 524.975 603.79 506.366 604.735 483.972C605.837 459.528 619.697 439.657 635.605 439.657Z" fill="#383431"/>
<path fill-rule="evenodd" clip-rule="evenodd" d="M635.762 445.177C648.677 445.177 660.962 461.262 658.127 484.918C655.292 508.574 643.322 518.509 631.982 519.771C620.642 521.19 609.145 503.685 610.09 483.814C610.877 464.101 622.847 445.177 635.762 445.177Z" fill="#A7A9AC"/>
<path fill-rule="evenodd" clip-rule="evenodd" d="M635.605 450.539C646.787 450.539 657.182 464.417 654.82 484.761C652.457 505.105 642.062 513.621 632.297 514.725C622.532 515.828 612.767 500.846 613.555 483.814C614.185 466.782 624.422 450.539 635.605 450.539Z" fill="#6D6E71"/>
<path fill-rule="evenodd" clip-rule="evenodd" d="M388.015 433.979C414.475 433.191 426.13 451.012 426.288 481.133C426.288 511.097 404.71 530.18 382.345 528.287C359.98 526.395 342.498 507.155 344.073 481.133C345.648 455.112 361.555 434.768 388.015 433.979Z" fill="#231F20"/>
<path fill-rule="evenodd" clip-rule="evenodd" d="M399.513 439.657C413.215 439.657 424.083 454.481 426.13 474.352C426.288 476.56 426.288 478.768 426.288 481.133C426.288 506.997 410.223 527.026 391.638 527.814C377.62 524.975 367.698 506.366 368.643 483.972C369.745 459.528 383.605 439.657 399.513 439.657Z" fill="#383431"/>
<path fill-rule="evenodd" clip-rule="evenodd" d="M399.67 445.177C412.585 445.177 424.87 461.262 422.035 484.918C419.2 508.574 407.23 518.509 395.89 519.771C384.55 521.19 373.053 503.685 373.998 483.814C374.785 464.101 386.598 445.177 399.67 445.177Z" fill="#A7A9AC"/>
<path fill-rule="evenodd" clip-rule="evenodd" d="M399.513 450.539C410.695 450.539 421.09 464.417 418.728 484.761C416.365 505.105 405.97 513.621 396.205 514.725C386.44 515.828 376.675 500.846 377.463 483.814C378.093 466.782 388.33 450.539 399.513 450.539Z" fill="#6D6E71"/>
<path fill-rule="evenodd" clip-rule="evenodd" d="M427.548 506.524H743.965C757.667 504.631 797.358 502.739 811.06 500.846C827.598 440.603 783.498 424.202 752.313 408.747H412.9L328.795 500.846C353.05 505.577 394.63 506.524 427.548 506.524Z" fill="#58595B"/>
<path fill-rule="evenodd" clip-rule="evenodd" d="M511.81 433.979C538.27 433.191 549.925 451.012 550.082 481.133C550.082 511.097 528.505 530.18 506.14 528.287C483.775 526.395 466.292 507.155 467.867 481.133C469.6 455.112 485.35 434.768 511.81 433.979Z" fill="#231F20"/>
<path fill-rule="evenodd" clip-rule="evenodd" d="M523.307 439.657C537.01 439.657 547.877 454.481 549.925 474.352C550.082 476.56 550.082 478.768 550.082 481.133C550.082 506.997 534.017 527.026 515.432 527.814C501.415 524.975 491.492 506.366 492.437 483.972C493.54 459.528 507.4 439.657 523.307 439.657Z" fill="#414042"/>
<path fill-rule="evenodd" clip-rule="evenodd" d="M523.465 445.177C536.38 445.177 548.665 461.262 545.83 484.918C542.995 508.574 531.025 518.509 519.685 519.771C508.345 521.19 496.847 503.685 497.792 483.814C498.737 464.101 510.55 445.177 523.465 445.177Z" fill="#E2E3E4"/>
<path fill-rule="evenodd" clip-rule="evenodd" d="M523.465 445.177C530.867 445.177 538.112 450.381 542.365 459.212C543.625 464.417 543.94 470.252 543.152 476.718C540.317 499.9 528.347 509.52 517.007 510.939C510.235 511.728 503.305 505.893 499.052 496.904C497.95 492.646 497.477 488.072 497.635 483.341C498.737 463.786 510.55 445.177 523.465 445.177Z" fill="#BCBEC0"/>
<path fill-rule="evenodd" clip-rule="evenodd" d="M517.952 499.112C517.48 503.528 517.48 509.047 516.85 513.305C520 513.305 522.992 512.044 525.67 509.836C525.512 506.051 522.677 501.793 519.37 498.639C519.055 498.323 518.74 498.323 518.425 498.481C518.267 498.481 517.952 498.796 517.952 499.112Z" fill="#A7A9AC"/>
<path fill-rule="evenodd" clip-rule="evenodd" d="M525.04 490.122C525.197 491.542 529.135 498.008 531.182 499.9C531.34 500.058 531.655 500.216 531.97 500.058C532.285 500.058 532.442 499.742 532.6 499.585C533.702 496.904 534.647 493.907 535.277 490.596C535.435 490.123 535.12 489.807 534.805 489.649C531.182 488.23 528.032 488.23 525.67 489.334C525.197 489.492 525.04 489.807 525.04 490.122Z" fill="#A7A9AC"/>
<path fill-rule="evenodd" clip-rule="evenodd" d="M526.615 479.714C529.922 480.187 533.387 480.502 536.537 481.291C536.695 477.033 536.38 473.248 535.592 469.779C530.71 473.563 526.93 477.191 526.615 479.714Z" fill="#A7A9AC"/>
<path fill-rule="evenodd" clip-rule="evenodd" d="M523.307 454.008L521.732 466.151C521.732 466.467 521.89 466.782 522.047 466.94C522.362 467.098 522.677 467.255 522.835 467.098C525.827 465.994 528.505 463.628 530.867 460.632C531.182 460.316 531.182 459.843 530.867 459.528C528.977 456.689 526.772 454.639 524.252 453.377C523.937 453.22 523.622 453.22 523.465 453.377C523.622 453.535 523.465 453.693 523.307 454.008Z" fill="#A7A9AC"/>
<path fill-rule="evenodd" clip-rule="evenodd" d="M505.825 462.051L512.912 468.359C515.747 467.886 518.425 453.693 515.275 453.062C510.077 452.116 507.557 457.004 505.51 460.947C505.51 461.42 505.51 461.893 505.825 462.051Z" fill="#A7A9AC"/>
<path fill-rule="evenodd" clip-rule="evenodd" d="M502.99 470.725C505.195 473.406 507.085 476.402 506.927 479.714C506.77 483.341 503.147 484.918 500.47 486.653C500.155 486.811 499.84 486.811 499.682 486.653C499.367 486.495 499.21 486.337 499.21 486.022C498.58 481.764 500.47 474.667 501.572 471.04C501.73 470.725 501.887 470.567 502.202 470.409C502.517 470.252 502.832 470.409 502.99 470.725Z" fill="#A7A9AC"/>
<path fill-rule="evenodd" clip-rule="evenodd" d="M506.455 507.785C510.235 502.581 511.18 499.112 509.605 492.488C508.345 490.911 504.25 494.854 501.257 496.746C500.942 496.904 500.785 497.377 500.785 497.692C501.73 501.477 503.147 504.789 505.037 507.785C505.195 508.101 505.51 508.259 505.825 508.259C505.982 508.259 506.14 508.101 506.455 507.785Z" fill="#A7A9AC"/>
<path fill-rule="evenodd" clip-rule="evenodd" d="M517.795 500.689C517.48 504.789 517.322 509.52 516.85 513.147C517.48 513.147 517.952 513.147 518.425 512.99C519.842 512.359 521.26 511.57 522.677 510.466C522.677 507.312 520.472 503.685 517.795 500.689Z" fill="#58595B"/>
<path fill-rule="evenodd" clip-rule="evenodd" d="M525.04 490.122C525.197 491.384 528.032 496.273 530.237 498.796C531.025 496.588 531.812 494.065 532.285 491.226C532.442 490.753 532.127 490.438 531.812 490.28C529.607 489.334 527.402 489.018 525.512 489.176C525.197 489.492 525.04 489.807 525.04 490.122Z" fill="#58595B"/>
<path fill-rule="evenodd" clip-rule="evenodd" d="M526.615 479.714C528.977 480.029 531.34 480.345 533.545 480.66C533.545 477.506 533.387 474.667 532.915 471.986C529.45 474.983 526.93 477.664 526.615 479.714Z" fill="#58595B"/>
<path fill-rule="evenodd" clip-rule="evenodd" d="M523.307 455.112L521.89 466.151C521.89 466.467 521.89 466.782 522.205 466.94C524.41 465.678 526.3 463.786 528.347 461.42C528.662 461.105 528.662 460.631 528.347 460.316C526.772 458.108 525.04 456.373 523.307 455.112Z" fill="#58595B"/>
<path fill-rule="evenodd" clip-rule="evenodd" d="M505.825 462.051L511.81 467.255C513.857 463.313 514.96 454.323 512.44 453.85C511.967 453.693 511.495 453.693 511.18 453.693C508.66 455.112 507.085 458.266 505.667 460.947C505.51 461.42 505.51 461.893 505.825 462.051Z" fill="#58595B"/>
<path fill-rule="evenodd" clip-rule="evenodd" d="M499.21 486.337C499.21 486.18 499.052 486.18 499.052 486.022C498.58 482.237 499.84 476.56 500.942 472.775C502.675 475.14 504.092 477.821 503.935 480.502C503.777 483.341 501.415 484.918 499.21 486.337Z" fill="#58595B"/>
<path fill-rule="evenodd" clip-rule="evenodd" d="M506.455 493.119C504.88 494.223 502.832 495.8 501.257 496.746C500.942 496.904 500.785 497.377 500.785 497.692C501.73 501.162 502.99 504.316 504.565 507.155C507.4 502.739 508.03 499.427 506.612 493.434C506.455 493.277 506.455 493.119 506.455 493.119Z" fill="#58595B"/>
<path fill-rule="evenodd" clip-rule="evenodd" d="M515.59 476.402C514.33 477.191 513.542 479.398 513.542 481.922C513.542 485.076 514.96 487.599 516.85 487.757C516.535 487.915 516.062 488.072 515.747 488.072C513.857 488.072 512.44 485.549 512.44 482.237C512.282 478.925 513.857 476.402 515.59 476.402Z" fill="#A7A9AC"/>
<path fill-rule="evenodd" clip-rule="evenodd" d="M517.322 485.864C518.582 485.864 519.527 484.13 519.527 481.922C519.527 479.714 518.582 477.979 517.322 477.979C516.062 477.979 515.117 479.714 515.117 481.922C514.96 484.13 516.062 485.864 517.322 485.864Z" fill="#A7A9AC"/>
<path fill-rule="evenodd" clip-rule="evenodd" d="M305.17 442.969C308.793 430.037 316.353 422.782 322.968 418.367C360.295 405.435 415.105 396.603 452.905 389.507C502.203 386.826 554.65 387.614 589.615 394.553C565.36 420.417 523.78 390.611 485.823 425.936C507.715 442.338 428.965 486.968 419.673 500.846H309.108C308.478 498.323 307.69 495.484 307.06 492.488H308.478C307.848 489.492 307.533 486.495 306.903 483.814H305.17C302.65 469.936 301.548 453.85 305.17 442.969Z" fill="#E2304D"/>
<path fill-rule="evenodd" clip-rule="evenodd" d="M767.433 433.979C793.893 433.191 805.548 451.012 805.705 481.133C805.705 511.097 784.128 530.18 761.763 528.287C739.398 526.395 721.915 507.155 723.49 481.133C725.065 455.112 740.973 434.768 767.433 433.979Z" fill="#231F20"/>
<path fill-rule="evenodd" clip-rule="evenodd" d="M778.93 439.657C792.633 439.657 803.5 454.481 805.548 474.352C805.705 476.56 805.705 478.768 805.705 481.133C805.705 506.997 789.64 527.026 771.055 527.814C757.038 524.975 747.115 506.366 748.06 483.972C749.163 459.528 763.023 439.657 778.93 439.657Z" fill="#414042"/>
<path fill-rule="evenodd" clip-rule="evenodd" d="M779.088 445.177C792.003 445.177 804.288 461.262 801.453 484.918C798.618 508.574 786.648 518.509 775.308 519.771C763.968 521.19 752.47 503.685 753.415 483.814C754.36 464.101 766.173 445.177 779.088 445.177Z" fill="#E2E3E4"/>
<g style="mix-blend-mode:multiply">
<path fill-rule="evenodd" clip-rule="evenodd" d="M779.088 445.177C786.49 445.177 793.735 450.381 797.988 459.212C799.248 464.417 799.563 470.252 798.775 476.718C795.94 499.9 783.97 509.52 772.63 510.939C765.858 511.728 758.928 505.893 754.675 496.904C753.573 492.646 753.1 488.072 753.258 483.341C754.36 463.786 766.173 445.177 779.088 445.177Z" fill="#9A9D9F"/>
</g>
<path fill-rule="evenodd" clip-rule="evenodd" d="M773.575 499.112C773.103 503.528 773.103 509.047 772.473 513.305C775.623 513.305 778.615 512.044 781.293 509.836C781.135 506.051 778.3 501.793 774.993 498.639C774.678 498.323 774.363 498.323 774.048 498.481C773.89 498.481 773.575 498.796 773.575 499.112Z" fill="#A7A9AC"/>
<path fill-rule="evenodd" clip-rule="evenodd" d="M780.663 490.122C780.82 491.542 784.758 498.008 786.805 499.9C786.963 500.058 787.278 500.216 787.593 500.058C787.908 500.058 788.065 499.742 788.223 499.585C789.325 496.904 790.27 493.907 790.9 490.596C791.058 490.123 790.743 489.807 790.428 489.649C786.805 488.23 783.655 488.23 781.293 489.334C780.82 489.492 780.663 489.807 780.663 490.122Z" fill="#A7A9AC"/>
<path fill-rule="evenodd" clip-rule="evenodd" d="M782.238 479.714C785.545 480.187 789.01 480.502 792.16 481.291C792.318 477.033 792.003 473.248 791.215 469.779C786.333 473.563 782.553 477.191 782.238 479.714Z" fill="#A7A9AC"/>
<path fill-rule="evenodd" clip-rule="evenodd" d="M778.93 454.008L777.355 466.151C777.355 466.467 777.513 466.782 777.67 466.94C777.985 467.098 778.3 467.255 778.458 467.098C781.45 465.994 784.128 463.628 786.49 460.632C786.805 460.316 786.805 459.843 786.49 459.528C784.6 456.689 782.395 454.639 779.875 453.377C779.56 453.22 779.245 453.22 779.088 453.377C779.245 453.535 779.088 453.693 778.93 454.008Z" fill="#A7A9AC"/>
<path fill-rule="evenodd" clip-rule="evenodd" d="M761.448 462.051L768.535 468.359C771.37 467.886 774.048 453.693 770.898 453.062C765.7 452.116 763.18 457.004 761.133 460.947C760.975 461.42 761.133 461.893 761.448 462.051Z" fill="#A7A9AC"/>
<path fill-rule="evenodd" clip-rule="evenodd" d="M758.613 470.725C760.818 473.406 762.708 476.402 762.55 479.714C762.393 483.341 758.77 484.918 756.093 486.653C755.778 486.811 755.463 486.811 755.305 486.653C754.99 486.495 754.833 486.337 754.833 486.022C754.203 481.764 756.093 474.667 757.195 471.04C757.353 470.725 757.51 470.567 757.825 470.409C758.14 470.252 758.455 470.409 758.613 470.725Z" fill="#A7A9AC"/>
<path fill-rule="evenodd" clip-rule="evenodd" d="M762.078 507.785C765.858 502.581 766.803 499.112 765.228 492.488C763.968 490.911 759.873 494.854 756.88 496.746C756.565 496.904 756.408 497.377 756.408 497.692C757.353 501.477 758.928 504.789 760.66 507.785C760.818 508.101 761.133 508.259 761.448 508.259C761.605 508.259 761.763 508.101 762.078 507.785Z" fill="#A7A9AC"/>
<path fill-rule="evenodd" clip-rule="evenodd" d="M773.418 500.689C773.103 504.789 772.945 509.52 772.473 513.147C773.103 513.147 773.575 513.147 774.048 512.99C775.465 512.359 776.883 511.57 778.3 510.466C778.3 507.312 776.095 503.685 773.418 500.689Z" fill="#58595B"/>
<path fill-rule="evenodd" clip-rule="evenodd" d="M780.663 490.122C780.82 491.384 783.655 496.273 785.86 498.796C786.648 496.588 787.435 494.065 787.908 491.226C788.065 490.753 787.75 490.438 787.435 490.28C785.23 489.334 783.025 489.018 781.135 489.176C780.82 489.492 780.663 489.807 780.663 490.122Z" fill="#58595B"/>
<path fill-rule="evenodd" clip-rule="evenodd" d="M782.238 479.714C784.6 480.029 786.963 480.345 789.168 480.66C789.168 477.506 789.01 474.667 788.538 471.986C785.073 474.983 782.553 477.664 782.238 479.714Z" fill="#58595B"/>
<path fill-rule="evenodd" clip-rule="evenodd" d="M778.93 455.112L777.513 466.151C777.513 466.467 777.513 466.782 777.828 466.94C780.033 465.678 781.923 463.786 783.97 461.42C784.285 461.105 784.285 460.631 783.97 460.316C782.395 458.108 780.663 456.373 778.93 455.112Z" fill="#58595B"/>
<path fill-rule="evenodd" clip-rule="evenodd" d="M761.448 462.051L767.433 467.255C769.48 463.313 770.583 454.323 768.063 453.85C767.59 453.693 767.118 453.693 766.803 453.693C764.283 455.112 762.708 458.266 761.29 460.947C760.975 461.42 761.133 461.893 761.448 462.051Z" fill="#58595B"/>
<path fill-rule="evenodd" clip-rule="evenodd" d="M754.833 486.337C754.833 486.18 754.675 486.18 754.675 486.022C754.203 482.237 755.463 476.56 756.565 472.775C758.298 475.14 759.715 477.821 759.558 480.502C759.4 483.341 757.038 484.918 754.833 486.337Z" fill="#58595B"/>
<path fill-rule="evenodd" clip-rule="evenodd" d="M761.92 493.119C760.345 494.223 758.298 495.8 756.723 496.746C756.408 496.904 756.25 497.377 756.25 497.692C757.195 501.162 758.455 504.316 760.03 507.155C762.865 502.739 763.495 499.427 762.078 493.434C762.078 493.277 762.078 493.119 761.92 493.119Z" fill="#58595B"/>
<path fill-rule="evenodd" clip-rule="evenodd" d="M771.213 476.402C769.953 477.191 769.165 479.398 769.165 481.922C769.165 485.076 770.583 487.599 772.473 487.757C772.158 487.915 771.685 488.072 771.37 488.072C769.48 488.072 768.063 485.549 768.063 482.237C767.905 478.925 769.48 476.402 771.213 476.402Z" fill="#A7A9AC"/>
<path fill-rule="evenodd" clip-rule="evenodd" d="M772.945 485.864C774.205 485.864 775.15 484.13 775.15 481.922C775.15 479.714 774.205 477.979 772.945 477.979C771.685 477.979 770.74 479.714 770.74 481.922C770.583 484.13 771.685 485.864 772.945 485.864Z" fill="#A7A9AC"/>
<path fill-rule="evenodd" clip-rule="evenodd" d="M395.733 446.911C428.178 397.549 555.28 398.496 572.29 400.388C563.628 388.087 499.683 388.087 449.44 390.137C467.553 377.836 493.54 361.593 526.93 351.973C548.35 345.822 588.355 346.295 615.13 347.241C656.395 348.819 705.85 351.815 731.365 359.542C745.855 363.958 761.29 384.46 767.59 393.922C773.26 402.438 804.603 398.496 815.313 405.435C830.59 415.37 829.645 435.399 827.598 459.685C838.623 460.947 836.418 475.771 826.338 496.588C822.558 496.588 811.848 500.688 808.068 500.688C818.935 393.607 726.483 418.997 731.68 500.688C687.738 500.688 598.278 500.688 554.178 500.688C572.29 399.442 479.365 390.295 473.695 500.688H434.95C423.768 480.344 460.308 452.588 428.965 452.904C394.945 453.377 394 449.592 395.733 446.911Z" fill="url(#paint4_linear)"/>
<path fill-rule="evenodd" clip-rule="evenodd" d="M586.937 401.808C587.252 395.184 601.585 375.471 620.642 361.435C623.792 359.07 630.407 356.862 640.172 356.389C667.105 354.969 688.84 356.231 715.772 364.589C724.435 367.27 747.902 402.123 736.562 402.438C697.345 402.911 626.155 401.808 586.937 401.808Z" fill="#E11E3E"/>
<path fill-rule="evenodd" clip-rule="evenodd" d="M451.645 474.667C437.155 485.707 423.295 495.642 419.83 500.846H309.108C308.478 498.323 307.69 495.484 307.06 492.488H308.478C307.848 489.491 307.533 486.495 306.903 483.814H305.17C304.698 480.818 304.225 477.821 303.753 474.825H451.645V474.667Z" fill="#EC5F6B"/>
<path fill-rule="evenodd" clip-rule="evenodd" d="M321.393 452.746C343.286 452.746 360.502 452.904 390.378 452.904C393.055 445.492 400.458 435.241 411.01 427.671C379.53 427.671 349.9 427.671 319.345 427.671C322.18 433.191 324.07 443.126 321.393 452.746Z" fill="#58595B"/>
<path fill-rule="evenodd" clip-rule="evenodd" d="M317.14 422.782C351.16 422.625 402.353 422.461 424.371 422.782C450.265 422.782 459.311 423.629 463.495 427.813L416.995 424.517C395.762 424.517 349.428 424.517 315.565 424.517C316.038 423.886 316.668 423.413 317.14 422.782Z" fill="#EC5F6B"/>
<path fill-rule="evenodd" clip-rule="evenodd" d="M436.053 481.606C433.218 486.022 433.69 491.384 432.745 495.957H307.69C307.375 494.853 307.06 493.749 306.745 492.646H308.32C307.69 489.649 307.375 486.653 306.745 483.972H305.17C305.013 483.341 304.855 482.868 304.855 482.237L436.053 481.606Z" fill="#58595B"/>
<path fill-rule="evenodd" clip-rule="evenodd" d="M308.95 495.642H445.818C448.653 495.642 451.015 496.903 451.015 498.323C451.015 499.742 448.653 501.004 445.818 501.004H308.95C306.115 501.004 303.753 499.742 303.753 498.323C303.753 496.746 306.115 495.642 308.95 495.642Z" fill="#EC5F6B"/>
<path fill-rule="evenodd" clip-rule="evenodd" d="M303.91 454.796H396.363C398.568 454.796 400.458 456.689 400.458 458.897V472.775C400.458 474.983 398.568 476.875 396.363 476.875H303.91C301.705 476.875 299.815 474.983 299.815 472.775V458.897C299.815 456.689 301.705 454.796 303.91 454.796Z" fill="#E2304D"/>
<path fill-rule="evenodd" clip-rule="evenodd" d="M400.143 474.667C399.513 475.929 398.095 476.875 396.52 476.875H303.91C302.335 476.875 300.918 475.929 300.288 474.667H400.143Z" fill="#E11E3E"/>
<path fill-rule="evenodd" clip-rule="evenodd" d="M461.095 388.56C471.49 378.152 503.62 362.066 534.332 356.389C566.935 352.13 588.985 354.496 614.342 357.492C599.065 368.374 587.882 381.779 572.447 392.661C535.75 384.933 490.862 385.564 461.095 388.56Z" fill="#EDFEFF"/>
<path fill-rule="evenodd" clip-rule="evenodd" d="M590.56 400.704C590.875 394.553 604.577 376.259 622.69 363.17C625.682 360.962 631.982 358.912 641.275 358.439C666.947 357.177 687.737 358.281 713.41 366.009C721.6 368.532 744.122 400.861 733.097 401.177C695.77 401.808 627.887 400.704 590.56 400.704Z" fill="#82ADB1"/>
<path fill-rule="evenodd" clip-rule="evenodd" d="M590.56 400.704C590.717 395.657 599.852 382.725 613.082 370.897C625.367 380.202 640.802 398.969 632.297 400.861C616.547 400.861 602.057 400.704 590.56 400.704Z" fill="#C0D8DA"/>
<path fill-rule="evenodd" clip-rule="evenodd" d="M643.952 358.281C668.365 357.177 688.682 358.439 713.41 366.009C719.08 367.743 731.522 383.672 735.145 393.449H673.877C667.892 393.449 660.175 388.56 657.025 382.41L643.952 358.281Z" fill="#C0D8DA"/>
<g style="mix-blend-mode:overlay">
<path fill-rule="evenodd" clip-rule="evenodd" d="M645.685 358.281C657.655 357.808 668.522 357.966 679.705 359.07L659.072 401.177C647.417 401.019 635.762 401.019 624.895 400.861L645.685 358.281Z" fill="#ABE1E1"/>
</g>
<g style="mix-blend-mode:overlay">
<path fill-rule="evenodd" clip-rule="evenodd" d="M687.737 360.173C695.297 361.277 702.857 363.012 710.89 365.378L693.25 401.334C684.902 401.334 676.24 401.334 667.577 401.177L687.737 360.173Z" fill="#ABE1E1"/>
</g>
<path fill-rule="evenodd" clip-rule="evenodd" d="M299.815 458.108C325.645 458.108 346.75 458.108 372.58 458.108C406.73 458.108 441.248 458.108 475.585 458.108C475.585 458.581 475.585 459.212 475.585 459.685H372.582H299.815V458.108Z" fill="#EC5F6B"/>
<path fill-rule="evenodd" clip-rule="evenodd" d="M380.613 474.825H470.388L468.025 481.133C432.745 476.087 410.853 477.664 380.613 476.402V474.825Z" fill="#E11E3E"/>
<path fill-rule="evenodd" clip-rule="evenodd" d="M600.01 384.618L604.892 400.704C600.01 400.704 595.285 400.704 590.402 400.704C590.717 397.234 593.237 391.241 600.01 384.618Z" fill="#576578"/>
<path fill-rule="evenodd" clip-rule="evenodd" d="M603.16 382.094C610.405 382.094 617.492 382.094 624.737 382.094C629.305 382.094 631.51 394.08 628.99 397.076C628.36 397.707 627.572 397.865 626.627 398.023C620.327 399.127 608.2 400.861 602.53 399.442C594.497 397.392 596.545 389.822 600.64 383.356C601.27 382.568 602.215 382.094 603.16 382.094Z" fill="#EC5F6B"/>
<path fill-rule="evenodd" clip-rule="evenodd" d="M603.16 382.094C610.405 382.094 617.492 382.094 624.737 382.094C628.517 382.094 630.565 389.822 629.935 394.395C621.43 395.342 610.877 395.972 605.207 394.869C600.01 393.922 597.962 391.557 597.962 388.876C598.592 386.983 599.537 385.249 600.797 383.356C601.27 382.568 602.215 382.094 603.16 382.094Z" fill="#E2304D"/>
<path fill-rule="evenodd" clip-rule="evenodd" d="M383.763 461.893L471.963 459.685V461.262L381.873 466.94L383.763 461.893Z" fill="#E2304D"/>
<path fill-rule="evenodd" clip-rule="evenodd" d="M417.467 423.098C436.997 423.098 458.52 421.028 464.245 427.987C494.17 416.159 536.222 413.32 574.337 411.112H818.62C812.635 408.747 811.69 404.173 800.665 403.858C728.215 403.385 628.675 402.912 556.225 402.438C496.217 404.331 446.92 412.216 417.467 423.098Z" fill="url(#paint5_linear)"/>
<path fill-rule="evenodd" clip-rule="evenodd" d="M322.18 437.133C350.134 437.133 382.799 437.133 401.403 437.133C401.403 437.922 401.403 438.868 401.403 439.657C377.894 439.657 349.508 439.657 322.18 439.657C322.18 438.868 322.18 438.08 322.18 437.133Z" fill="#E2304D"/>
<path fill-rule="evenodd" clip-rule="evenodd" d="M399.828 483.814H420.775C422.193 483.814 423.295 484.918 423.295 486.337V490.122C423.295 491.542 422.193 492.646 420.775 492.646H399.828C398.41 492.646 397.308 491.542 397.308 490.122V486.337C397.465 484.918 398.568 483.814 399.828 483.814Z" fill="#414042"/>
<path fill-rule="evenodd" clip-rule="evenodd" d="M403.293 483.814H420.775C422.035 483.814 423.138 484.76 423.138 485.864V489.176C423.138 490.28 422.035 491.226 420.618 491.226H403.293C401.875 491.226 400.773 490.28 400.773 489.176V485.864C400.93 484.76 401.875 483.814 403.293 483.814Z" fill="#EEE6D4"/>
<path fill-rule="evenodd" clip-rule="evenodd" d="M403.293 483.814H420.775C422.035 483.814 423.138 484.76 423.138 485.864V486.495H400.773V485.864C400.93 484.76 401.875 483.814 403.293 483.814Z" fill="#D2C8AD"/>
<path fill-rule="evenodd" clip-rule="evenodd" d="M305.328 483.814H320.763C322.18 483.814 323.283 484.918 323.283 486.337V490.122C323.283 491.542 322.18 492.646 320.763 492.646H306.903L308.163 491.069C309.423 489.649 307.218 485.549 306.903 483.972L305.328 483.814Z" fill="#414042"/>
<path fill-rule="evenodd" clip-rule="evenodd" d="M306.903 483.814H320.92C322.18 483.814 323.125 484.76 323.125 485.864V489.176C323.125 490.28 322.18 491.226 320.92 491.226H308.005C307.69 488.861 307.375 486.337 306.903 483.814Z" fill="#EEE6D4"/>
<path fill-rule="evenodd" clip-rule="evenodd" d="M306.903 483.814H320.92C322.18 483.814 323.125 484.76 323.125 485.864V486.495H307.375C307.218 485.549 307.06 484.76 306.903 483.814Z" fill="#D2C8AD"/>
<path fill-rule="evenodd" clip-rule="evenodd" d="M321.865 441.707C350.03 441.077 379.46 441.707 397.623 441.707C397.623 442.495 397.623 443.442 397.623 444.23C373.407 444.23 348.777 444.23 321.865 444.23C321.865 443.442 321.865 442.495 321.865 441.707Z" fill="#E2304D"/>
<path fill-rule="evenodd" clip-rule="evenodd" d="M666.16 356.862L671.83 401.334L679.39 401.177L671.515 356.073L666.16 356.862Z" fill="#E11E3E"/>
<path fill-rule="evenodd" clip-rule="evenodd" d="M668.05 355.758L674.035 403.227L681.438 403.069L673.405 354.969L668.05 355.758Z" fill="#EC5F6B"/>
<path fill-rule="evenodd" clip-rule="evenodd" d="M464.088 431.298C464.875 444.388 447.55 449.592 437.47 450.381C426.288 451.169 416.208 451.327 404.395 450.381C402.348 450.223 399.04 447.857 399.985 445.807C412.9 421.363 463.458 420.259 464.088 431.298Z" fill="#E11E3E"/>
<path fill-rule="evenodd" clip-rule="evenodd" d="M315.723 424.517C319.345 430.668 322.18 437.134 322.023 445.65C322.023 446.911 321.393 448.015 320.29 448.804C319.188 449.592 317.77 450.065 316.195 449.908C311.785 449.592 307.69 449.908 303.438 450.854C303.753 448.015 304.383 445.334 305.17 442.969C307.375 435.399 310.84 429.406 315.723 424.517Z" fill="#E11E3E"/>
<path fill-rule="evenodd" clip-rule="evenodd" d="M305.17 442.968C307.218 435.556 310.053 430.51 314.778 425.463C318.085 431.614 319.975 437.133 320.763 445.649C321.235 450.065 317.928 451.8 316.983 451.642C312.415 451.327 307.848 450.065 303.438 451.484C303.753 448.488 304.225 445.492 305.17 442.968Z" fill="#EC5F6B"/>
<path fill-rule="evenodd" clip-rule="evenodd" d="M303.438 450.696C307.848 448.804 311.628 448.015 316.038 448.488C317.14 448.646 318.085 448.33 318.873 447.542C319.66 446.753 319.975 445.965 320.133 444.861C320.133 437.291 318.085 431.771 315.25 426.252C309.738 432.56 305.643 442.338 303.438 450.696Z" fill="#FFFCD5"/>
<path fill-rule="evenodd" clip-rule="evenodd" d="M303.91 447.857C308.32 446.123 312.573 446.438 317.298 447.069C318.4 447.226 318.873 447.069 319.66 446.28C320.448 445.492 319.975 444.23 319.975 443.126C320.133 435.399 317.77 430.983 315.093 426.252C309.895 431.771 306.273 437.133 303.91 447.857Z" fill="#EEE6D4"/>
<path fill-rule="evenodd" clip-rule="evenodd" d="M319.975 440.603C319.03 435.083 316.983 429.721 314.778 425.621C311.47 428.933 308.95 432.718 306.745 438.395C310.998 439.341 314.935 440.13 319.975 440.603Z" fill="#D2C8AD"/>
<path fill-rule="evenodd" clip-rule="evenodd" d="M319.345 435.714C319.975 438.868 320.133 442.338 319.818 445.807C319.188 446.438 318.4 446.911 317.613 447.069C316.825 446.911 316.195 446.911 315.408 446.753C313.045 445.649 311.313 442.338 311.313 438.237C311.313 433.506 313.518 429.721 316.51 429.406C317.613 431.456 318.558 433.506 319.345 435.714Z" fill="white"/>
<path fill-rule="evenodd" clip-rule="evenodd" d="M316.983 432.087C317.298 432.087 317.613 432.087 317.928 432.244C318.4 433.348 318.873 434.61 319.345 435.714C319.66 437.764 319.975 439.972 319.975 442.337C319.188 443.757 318.085 444.545 316.983 444.545C314.778 444.545 313.045 441.707 313.045 438.237C313.045 434.925 314.778 432.087 316.983 432.087Z" fill="#DAD9D4"/>
<path fill-rule="evenodd" clip-rule="evenodd" d="M323.478 458.088L376.38 458.093C378.372 458.082 380.076 459.668 380.139 461.812L380.059 472.833C380.072 474.827 378.34 476.582 376.347 476.593L323.446 476.588C321.453 476.599 319.749 475.013 319.686 472.869L319.766 461.848C319.851 459.654 321.435 457.949 323.478 458.088Z" fill="#EAEEF0"/>
<path fill-rule="evenodd" clip-rule="evenodd" d="M324.782 459.477L374.695 459.499C376.189 459.49 377.49 460.381 377.896 461.575C377.246 461.13 376.497 460.885 375.65 460.84L325.737 460.818C323.893 460.778 322.209 462.184 322.269 463.829L322.278 473.154C322.23 473.503 322.383 473.951 322.484 474.249C321.783 473.655 321.329 472.81 321.374 471.962L321.365 462.637C321.403 460.792 322.938 459.437 324.782 459.477Z" fill="#B2C7CF"/>
<path fill-rule="evenodd" clip-rule="evenodd" d="M612.137 359.07C597.962 369.636 587.252 382.252 572.605 392.503C535.75 384.933 490.862 385.564 461.095 388.403C495.745 368.059 570.242 353.865 612.137 359.07Z" fill="#ADE3E3"/>
<path fill-rule="evenodd" clip-rule="evenodd" d="M572.605 392.503C571.975 392.345 571.502 392.345 570.872 392.188L569.14 391.872C568.037 391.714 566.777 391.399 565.675 391.241H565.517L563.785 390.926H563.627L561.895 390.611C560.792 390.453 559.847 390.295 558.745 390.137H558.43H558.272H557.957C556.855 389.98 555.752 389.822 554.65 389.664L553.075 389.507L551.5 389.349H551.342L550.082 389.191L549.295 389.033L547.72 388.876H547.562C546.46 388.718 545.2 388.56 544.097 388.56H543.94L542.837 388.403H542.05L540.947 388.245H540.317L539.057 388.087H538.585L536.852 387.93C535.12 387.772 533.387 387.614 531.655 387.614H531.182H529.922H529.45H528.977H528.662H527.245H526.457H525.355H524.725H523.622H522.047H521.89H520.63H519.842H518.582H518.11H517.007H516.22H514.645H513.857H513.542H512.125H511.81H510.392H509.92H508.66H507.872H506.612H506.297H504.88H504.092H503.147H502.36H501.572C500.47 387.614 499.367 387.614 498.265 387.614H496.532C494.8 387.614 493.225 387.614 491.65 387.772H491.335C490.232 387.772 489.287 387.772 488.185 387.93H488.027C486.925 387.93 485.822 387.93 484.877 388.087C476.53 388.403 468.812 389.034 461.882 389.664C479.68 381.464 508.345 373.263 535.907 368.847C561.422 366.009 583.472 365.535 603.947 366.482C593.71 374.367 584.417 384.145 572.605 392.503Z" fill="#9AC7C7"/>
<path fill-rule="evenodd" clip-rule="evenodd" d="M725.222 497.219L558.272 496.746L557.8 491.699L725.695 491.069L725.222 497.219Z" fill="#E2304D"/>
<path fill-rule="evenodd" clip-rule="evenodd" d="M590.56 400.704C596.86 430.352 597.49 472.617 589.93 500.846C617.335 500.846 639.857 500.846 667.262 500.846C678.602 482.079 688.052 460.789 689.785 431.298C690.887 418.209 682.067 407.485 673.405 401.019L590.56 400.704Z" fill="#E11E3E"/>
<path fill-rule="evenodd" clip-rule="evenodd" d="M591.977 401.019C598.592 428.46 600.01 470.725 591.505 500.846C618.122 500.846 638.44 500.846 665.057 500.846C673.562 470.409 689.785 412.216 671.987 401.334L591.977 401.019Z" fill="#EC5F6B"/>
<path fill-rule="evenodd" clip-rule="evenodd" d="M594.025 411.112H681.28C679.075 408.116 676.712 405.592 674.035 403.384L592.292 402.596C592.765 404.962 593.395 407.958 594.025 411.112Z" fill="#6EB8C0"/>
<path fill-rule="evenodd" clip-rule="evenodd" d="M673.563 400.861C689.628 419.786 674.98 467.886 665.058 500.846H726.325C722.86 467.413 736.563 442.653 753.258 430.983C754.36 418.209 745.855 407.643 737.508 401.177L673.563 400.861Z" fill="#E11E3E"/>
<path fill-rule="evenodd" clip-rule="evenodd" d="M674.193 401.334C690.888 415.055 677.658 467.728 667.263 500.846H724.435C720.97 467.413 734.358 442.653 751.21 430.983C752.313 418.209 743.808 407.643 735.46 401.177H674.193V401.334Z" fill="#EC5F6B"/>
<path fill-rule="evenodd" clip-rule="evenodd" d="M555 430C583.769 430 607.276 430 636.045 430C674.081 430 712.526 430 750.77 430C750.77 430.473 746.5 434.527 746.5 435L636.047 431.577H555V430Z" fill="#E2304D"/>
<path fill-rule="evenodd" clip-rule="evenodd" d="M673.562 420.101L673.877 421.363C674.507 423.729 672.932 425.621 670.727 425.621H663.167C660.805 425.621 658.443 423.729 657.97 421.363L657.655 420.101H673.562Z" fill="#E11E3E"/>
<path fill-rule="evenodd" clip-rule="evenodd" d="M654.505 416.632H673.405C673.877 416.632 674.507 417.105 674.507 417.578L674.98 419.313C675.137 419.786 674.822 420.259 674.35 420.259H655.45C654.977 420.259 654.347 419.786 654.347 419.313L653.875 417.578C653.717 416.947 654.032 416.632 654.505 416.632Z" fill="#E2304D"/>
<path fill-rule="evenodd" clip-rule="evenodd" d="M741.76 420.101L742.075 421.363C742.705 423.729 741.13 425.621 738.925 425.621H731.365C729.003 425.621 726.64 423.729 726.168 421.363L725.853 420.101H741.76Z" fill="#E11E3E"/>
<path fill-rule="evenodd" clip-rule="evenodd" d="M722.703 416.632H741.603C742.075 416.632 742.705 417.105 742.705 417.578L743.178 419.313C743.335 419.786 743.02 420.259 742.548 420.259H723.648C723.175 420.259 722.545 419.786 722.545 419.313L722.073 417.578C721.915 416.947 722.23 416.632 722.703 416.632Z" fill="#E2304D"/>
<path fill-rule="evenodd" clip-rule="evenodd" d="M680.178 411.112H745.068C743.02 408.273 740.5 405.592 737.98 403.384C717.82 403.227 696.873 403.227 676.083 403.069C677.815 405.119 679.233 407.8 680.178 411.112Z" fill="#E2304D"/>
<path fill-rule="evenodd" clip-rule="evenodd" d="M594.025 411.112H678.76C678.13 407.327 676.397 405.119 674.035 403.069C646 402.911 618.122 402.754 592.292 402.596C592.922 405.277 593.552 408.116 594.025 411.112Z" fill="#E2304D"/>
<path fill-rule="evenodd" clip-rule="evenodd" d="M724.12 497.219L668.365 497.061C668.995 495.169 669.468 493.276 670.098 491.226L723.805 491.069C723.963 493.119 723.963 495.169 724.12 497.219Z" fill="#E2304D"/>
<path fill-rule="evenodd" clip-rule="evenodd" d="M666.002 497.061L592.45 496.904C592.922 495.169 593.237 493.434 593.71 491.542L667.735 491.226C667.105 493.276 666.475 495.169 666.002 497.061Z" fill="#E2304D"/>
<path fill-rule="evenodd" clip-rule="evenodd" d="M808.54 461.42H823.502C830.117 462.682 832.48 464.89 833.11 466.782L810.43 468.832L808.54 461.42Z" fill="#881F2E"/>
<path fill-rule="evenodd" clip-rule="evenodd" d="M464.088 430.983C464.718 443.442 448.18 448.488 438.572 449.119C427.862 449.908 418.255 450.065 406.915 449.119C404.868 448.961 401.717 446.596 402.82 444.703C415.105 421.363 463.458 420.417 464.088 430.983Z" fill="#58595B"/>
<path fill-rule="evenodd" clip-rule="evenodd" d="M464.744 430.707C465.488 443.104 448.817 448.113 439.18 448.953C428.486 449.815 418.767 450.092 407.333 449.207C405.288 449.109 402 446.852 403.089 444.924C415.23 421.534 464.035 420.073 464.744 430.707Z" fill="#FFFCD5"/>
<path fill-rule="evenodd" clip-rule="evenodd" d="M464.744 430.707C464.854 432.68 464.537 434.45 463.869 436.227C459.141 442.886 447.928 445.946 440.539 446.456C429.845 447.318 420.126 447.595 408.692 446.71C406.856 446.537 403.786 444.557 404.313 442.712C418.257 421.399 464.042 420.426 464.744 430.707Z" fill="#EEE6D4"/>
<path fill-rule="evenodd" clip-rule="evenodd" d="M464.744 430.707C464.758 431.412 464.772 432.117 464.719 432.965C455.782 437.104 442.869 439.706 428.354 439.803C421.168 439.885 414.32 439.255 408.169 438.258C425.234 421.392 464.131 421.341 464.744 430.707Z" fill="#D2C8AD"/>
<path fill-rule="evenodd" clip-rule="evenodd" d="M464.744 430.707C465.295 440.569 454.829 445.728 445.64 447.828C446.807 442.796 448.956 437.531 451.741 432.394C453.168 429.755 454.879 427.25 456.597 425.097C461.339 426.125 464.619 428.03 464.744 430.707Z" fill="#FBD55B"/>
<path fill-rule="evenodd" clip-rule="evenodd" d="M464.744 430.707C464.854 432.68 464.537 434.45 463.869 436.227C460.237 441.311 452.898 444.288 446.302 445.698C447.483 441.371 449.368 437.029 451.816 432.604C453.242 429.964 454.953 427.46 456.671 425.307C461.339 426.125 464.619 428.03 464.744 430.707Z" fill="#F58220"/>
<path fill-rule="evenodd" clip-rule="evenodd" d="M464.744 430.707C464.758 431.412 464.772 432.117 464.719 432.965C460.318 434.892 455.139 436.624 449.24 437.666C450.051 435.956 450.862 434.247 451.883 432.462C453.31 429.822 455.021 427.317 456.739 425.165C461.339 426.125 464.619 428.03 464.744 430.707Z" fill="#D7662C"/>
<path fill-rule="evenodd" clip-rule="evenodd" d="M434.256 428.464C437.568 428.464 440.261 432.709 440.368 437.996C440.333 443.216 437.743 447.573 434.431 447.573C431.119 447.573 428.426 443.328 428.319 438.041C428.354 432.821 430.944 428.464 434.256 428.464Z" fill="white"/>
<path fill-rule="evenodd" clip-rule="evenodd" d="M434.313 431.284C436.568 431.306 438.671 434.224 438.607 438.034C438.611 441.701 436.771 444.843 434.374 444.753C432.118 444.73 430.016 441.813 430.08 438.003C430.143 434.194 432.057 431.261 434.313 431.284Z" fill="#DAD9D4"/>
<path fill-rule="evenodd" clip-rule="evenodd" d="M210.798 368.032L209.083 359.633C217.003 354.767 220.842 350.976 224.401 342.149C231.012 334.585 230.699 323.908 229.998 313.788C229.315 303.941 227.116 289.989 222.458 280.735L229.845 284.105C243.05 322.353 241.282 318.249 237.758 333.953C234.168 349.8 239.401 342.397 210.798 368.032Z" fill="#8D533B"/>
<g style="mix-blend-mode:multiply">
<g style="mix-blend-mode:multiply" opacity="0.75">
<path fill-rule="evenodd" clip-rule="evenodd" d="M207 474.032C243.371 474.032 273 472.025 273 469.516C273 467.007 243.333 465 207 465C170.667 465 141 467.007 141 469.516C140.962 471.941 170.629 474.032 207 474.032Z" fill="#68667B" fill-opacity="0.5"/>
</g>
</g>
<path fill-rule="evenodd" clip-rule="evenodd" d="M218.022 470.08H188.444C185.77 470.08 183.848 467.506 184.609 464.942L189.72 447.719L191.478 418.19L195.657 392.503L202.587 403.406L206.682 397.535L214.084 402.567L218.022 470.08Z" fill="#AA7244"/>
<path fill-rule="evenodd" clip-rule="evenodd" d="M200.553 354.969C163.78 323.488 178.95 333.169 175.259 316.943C168.224 296.267 173.724 282.312 181.109 268.024L186.925 272.754C180.663 284.959 178.692 300.679 181.811 314.739C184.931 328.8 175.734 324.438 203.457 347.465L200.553 354.969Z" fill="#AA7244"/>
<path fill-rule="evenodd" clip-rule="evenodd" d="M225.097 467.08C225.097 468.737 223.754 470.08 222.097 470.08H209.517L213.297 438.227L206.682 397.535L213.297 402.567H219.912V422.76L225.097 454.398V467.08Z" fill="#8D533B"/>
<path fill-rule="evenodd" clip-rule="evenodd" d="M212.954 361.497C159.235 363.715 178.919 360.523 165.1 348.452C151.281 336.382 147.882 359.322 139.597 297.003L148.086 296.208C151.074 353.702 158.182 329.92 169.845 340.458C181.612 350.768 170.863 355.916 210.818 351.736L212.954 361.497Z" fill="#AA7244"/>
<path fill-rule="evenodd" clip-rule="evenodd" d="M219.423 402.715L208.089 407.496L203.803 410.27L198.768 401.666L194.977 398.965L201.552 238.409L215.384 238.465L219.423 402.715Z" fill="#AA7244"/>
<path fill-rule="evenodd" clip-rule="evenodd" d="M219.942 403.088L208.272 407.464L215.021 385.465L209.673 367.154L206.875 327.686L213.165 298.196L210.891 237.955L217.167 237.898L219.942 403.088Z" fill="#8D533B"/>
<path fill-rule="evenodd" clip-rule="evenodd" d="M231.526 347.754L236.76 329.89C265.873 327.689 303.561 306.496 308.071 292.183C312.58 277.871 312.003 261.426 306.545 248.165L309.595 246.094C317.614 250.698 322.248 280.049 313.545 297.334C303.418 317.446 295.297 325.702 231.526 347.754Z" fill="#8D533B"/>
<path fill-rule="evenodd" clip-rule="evenodd" d="M318.252 191.554C329.958 191.623 336.806 205.91 333.387 223.521C329.969 241.133 317.751 255.319 306.037 255.472C294.331 255.402 287.483 241.116 290.901 223.504C294.213 205.777 306.545 191.484 318.252 191.554Z" fill="#7CC076"/>
<path fill-rule="evenodd" clip-rule="evenodd" d="M330.586 233.237C325.33 246.102 315.516 255.465 306.037 255.472C294.554 255.41 287.805 241.462 290.762 224.28C296.018 211.415 305.832 202.053 315.311 202.045C326.795 202.107 333.543 216.056 330.586 233.237Z" fill="#A1E79B"/>
<path fill-rule="evenodd" clip-rule="evenodd" d="M344.534 217.439C352.763 221.18 353.108 233.346 345.119 244.667C337.238 256.103 324.195 262.232 315.85 258.599C307.62 254.858 307.276 242.691 315.264 231.37C323.253 220.049 336.296 213.921 344.534 217.439Z" fill="#BAFCB4"/>
<path fill-rule="evenodd" clip-rule="evenodd" d="M285.194 181.802C289.086 177.788 291.366 172.053 291.36 165.055C291.565 148.998 279.933 131.7 264.171 123.259C266.249 120.063 267.549 115.969 267.56 111.198C267.706 98.479 259.36 84.7814 247.84 77.5855C251.329 59.3718 234.722 39.6504 208.253 39.6504C192.949 34.5638 189.354 71.5078 183.342 84.2832C167.402 70.5887 145.073 79.0912 148.551 120.709C121.698 127.987 125.192 168.397 129.367 200.017C87.3297 187.561 78.5845 280.863 137.152 307.966C149.948 318.859 175.622 315.578 191.044 320.747C206.348 325.834 258.801 327.516 267.56 296.042C267.56 296.042 306.601 292.052 291.36 246.207C302.032 229.802 313.607 206.764 285.194 181.802Z" fill="#7CC076"/>
<path fill-rule="evenodd" clip-rule="evenodd" d="M143.873 303.393L143.991 303.476L144.109 303.559L144.227 303.642L144.345 303.726L144.463 303.809L144.581 303.892L144.698 303.975L144.934 304.142L145.052 304.225L145.288 304.391L145.406 304.474L145.877 304.807L146.231 305.056C146.467 305.223 146.82 305.472 147.001 305.716L147.355 305.966L148.062 306.465L148.18 306.548L148.769 306.964L148.887 307.047C161.968 311.031 179.114 304.872 190.398 303.393C208.459 308.326 225.426 303.048 233.604 287.954C234.42 286.548 235.117 285.058 235.642 283.564C252.632 268.743 260.272 249.656 255.638 240.209C258.793 238.239 261.398 235.298 263.35 231.78C271.042 217.625 265.312 196.216 250.722 181.609C250.635 180.731 250.548 179.854 250.343 178.893C249.433 172.424 247.433 166 244.576 159.789C248.468 155.774 250.748 150.04 250.742 143.042C250.947 126.985 239.315 109.687 223.552 101.246C225.686 97.9725 226.931 93.9555 226.942 89.1847C227.087 76.4659 218.742 62.7682 207.221 55.5723C205.889 50.2032 206.8 44.0658 204.101 39.1314C180.747 47.4352 180.747 65.0807 184.844 71.0212C161.026 65.5999 136.633 89.1847 148.887 120.482C122.034 127.76 103.937 152.79 120.577 183.379C80.5829 197.422 85.3604 276.212 143.873 303.393Z" fill="#A1E79B"/>
<path fill-rule="evenodd" clip-rule="evenodd" d="M163.451 230.053C156.014 227.313 156.135 213.481 163.8 199.179C171.456 184.744 183.841 175.249 191.279 177.989C198.717 180.729 198.595 194.561 190.93 208.863C183.265 223.164 171.001 232.753 163.451 230.053Z" fill="#BAFCB4"/>
<path fill-rule="evenodd" clip-rule="evenodd" d="M194.504 159.067C191.681 155.961 192.707 148.659 196.875 142.751C201.044 136.843 206.757 134.523 209.675 137.635C212.498 140.741 211.472 148.042 207.304 153.951C203.136 159.859 197.422 162.179 194.504 159.067Z" fill="#BAFCB4"/>
<path fill-rule="evenodd" clip-rule="evenodd" d="M149.937 191.42C141.74 190.744 133.604 178.966 131.737 164.974C129.87 150.982 134.904 140.168 143.102 140.844C151.21 141.407 159.435 153.298 161.302 167.29C163.169 181.282 158.135 192.095 149.937 191.42Z" fill="#BAFCB4"/>
<path fill-rule="evenodd" clip-rule="evenodd" d="M176.825 141.8C170.49 138.266 165.828 124.594 166.475 111.291C167.068 97.8552 172.789 89.8311 179.124 93.3649C185.459 96.8986 190.121 110.571 189.474 123.873C188.827 137.176 183.227 145.307 176.825 141.8Z" fill="#BAFCB4"/>
<path fill-rule="evenodd" clip-rule="evenodd" d="M224.576 238.355C218.279 235.926 216.937 226.047 221.528 216.23C226.118 206.413 234.877 200.416 241.174 202.845C247.47 205.274 248.812 215.152 244.222 224.969C239.68 234.699 230.873 240.784 224.576 238.355Z" fill="#BAFCB4"/>
<path fill-rule="evenodd" clip-rule="evenodd" d="M178.9 290.862C166.323 300.393 142.844 291.895 126.443 271.988C110.042 252.081 107.577 245.485 120.154 235.954C132.731 226.423 161.676 228.045 155.744 251.772C184.414 251.772 191.453 281.423 178.9 290.862Z" fill="#BAFCB4"/>
<g style="mix-blend-mode:soft-light" opacity="0.65">
<path fill-rule="evenodd" clip-rule="evenodd" d="M723 486L563 485.627V484.133L723 474V486Z" fill="white"/>
</g>
<g style="mix-blend-mode:multiply" opacity="0.5">
<path fill-rule="evenodd" clip-rule="evenodd" d="M732.5 559C764.738 559 791 555.667 791 551.5C791 547.333 764.704 544 732.5 544C700.296 544 674 547.333 674 551.5C673.966 555.528 700.262 559 732.5 559Z" fill="#68667B"/>
</g>
<path d="M712.622 539.451C712.965 539.292 713.332 539.207 713.701 539.199L728.898 538.87C730.44 538.836 731.696 540.144 731.738 541.827L731.972 551.269C732.015 553.019 730.734 554.507 729.13 554.568L694.194 555.916C692.068 556.312 691.091 550.726 692.773 548.781C692.934 548.596 693.144 548.476 693.359 548.376L712.622 539.451Z" fill="#231F20"/>
<path d="M742.194 539.452C742.537 539.293 742.903 539.207 743.272 539.199L758.469 538.87C760.012 538.836 761.268 540.144 761.309 541.827L761.544 551.269C761.587 553.019 760.306 554.507 758.702 554.569L723.766 555.916C721.639 556.312 720.663 550.726 722.344 548.782C722.505 548.596 722.716 548.476 722.93 548.376L742.194 539.452Z" fill="#231F20"/>
<path d="M681.414 319.763C687.596 327.193 698.75 332.801 703.554 334.677C707.776 330.021 708.694 327.098 710.5 319.763C712.757 310.595 714.743 293.396 708.102 285.136C701.462 276.875 690.313 274.329 681.854 276.979C673.395 279.629 672.414 293.326 670.769 301.077C669.123 308.829 673.686 310.476 681.414 319.763Z" fill="#2D2A2A"/>
<path fill-rule="evenodd" clip-rule="evenodd" d="M719.472 513.894L720.736 522.728C720.736 522.728 729.222 523.268 729.403 522.187C729.583 521.285 727.778 512.632 727.778 512.632L719.472 513.894Z" fill="#929496"/>
<path fill-rule="evenodd" clip-rule="evenodd" d="M704.5 393C704.5 393 705.579 410.058 707 467.5C707.609 493.419 715.036 541 715.036 541L729.197 539.832C729.197 539.832 727.333 524.816 727.406 508.689C727.47 494.527 729.197 485.532 729.197 471.583C729.985 464.658 731.203 458.486 734.715 442.662C736.338 441.494 739.83 416.31 739.83 416.31C739.83 416.31 740.439 444.563 743.077 473.051C745.918 505.507 750.992 538.898 750.992 539.599C751.195 541.233 758.791 539.599 758.791 539.599C758.791 539.599 760.328 485.225 756.785 471.583C754.092 461.215 766.315 400.099 760.328 386.888C760.53 374.513 704.5 393 704.5 393Z" fill="#231F20"/>
<path fill-rule="evenodd" clip-rule="evenodd" d="M705.854 422.358C705.854 422.358 701.045 457.625 702 465.986C704 483.486 707 505 707 505L714.63 540.27H724.084C724.084 516.731 719.058 505.028 728.655 442.553C728.855 439.522 729.255 437.89 729.455 437.657C730.162 434.853 732.3 433.52 732.3 433.52C732.3 433.52 729.701 447.351 732.3 475.792C740.966 526.456 744.775 537.742 744.775 538.441C744.975 539.14 749.523 540.503 754.321 540.27C748.728 491.59 747.004 493.669 746.752 465.986C746.507 439.104 748.848 439.142 748.848 412.552L729.455 418C714.75 420.724 705.854 422.358 705.854 422.358Z" fill="#3C3839"/>
<path fill-rule="evenodd" clip-rule="evenodd" d="M667.64 380.368C656.25 388.248 650.406 386.209 648.022 387.74C647.757 387.626 644.826 394.515 647.011 401.211C648.998 400.788 652.375 401.604 658.418 395.416C661.58 392.143 662.358 392.958 668.219 389.409L667.64 380.368Z" fill="#E8A476"/>
<path fill-rule="evenodd" clip-rule="evenodd" d="M650.703 393.051C649.992 392.904 648.386 392.692 647.343 391.763C646.647 391.144 645.671 390.883 646.283 388.749C646.283 388.749 647.442 386.371 649.065 386.111C657.988 384.681 652.193 391.455 650.703 393.051Z" fill="#F1B287"/>
<path fill-rule="evenodd" clip-rule="evenodd" d="M641.929 395.345C641.929 395.345 644.147 395.981 647.227 392.512C647.79 391.796 645.505 390.492 648.336 386.437C647.426 386.844 647.326 387.12 644.876 390.54C642.889 393.521 640.042 395.491 641.929 395.345Z" fill="#F1B287"/>
<path fill-rule="evenodd" clip-rule="evenodd" d="M700 372C694.575 384.449 661.1 394.636 661.1 394.636L654.846 384.92C654.846 384.92 672.287 378.228 674.188 368.955C676.206 359.463 675.557 341.914 675.544 334.642C676.253 328.111 688.9 332.955 688.9 332.955C689.063 332.911 711.39 344.532 700 372Z" fill="#58595B"/>
<path fill-rule="evenodd" clip-rule="evenodd" d="M654.846 384.92C657.763 382.092 674.188 371.046 674.188 368.955C674.188 351.5 675.301 341.609 675.125 334.381C675.574 330.157 677.555 330.377 681.445 331.207C679.987 340.176 690.281 344.713 686.5 364C680.441 379.976 657.868 389.712 657.868 389.712L654.846 384.92Z" fill="#7B7D82"/>
<path fill-rule="evenodd" clip-rule="evenodd" d="M658.158 382.92L664.083 394.028L660.54 395.158L654.753 384.572L658.158 382.92Z" fill="#434242"/>
<path fill-rule="evenodd" clip-rule="evenodd" d="M713.683 370.322C689.555 379.644 667.795 388.823 643.834 398.122C637.889 394.572 633.354 397.561 631.939 403.397C631.388 403.109 630.837 402.821 630.118 402.556C632.932 393.252 639.149 392.579 643.657 395.599L712.862 368.069L713.683 370.322Z" fill="#414042"/>
<path fill-rule="evenodd" clip-rule="evenodd" d="M656.911 397.485C657.209 399.212 653.882 399.536 653.667 398.005L653.667 393C653.6 392.332 653.534 391.664 654.61 391.648C655.422 391.518 655.753 392.3 655.819 392.968L656.911 397.485Z" fill="#F1B287"/>
<path fill-rule="evenodd" clip-rule="evenodd" d="M653.998 398.787C654.064 399.455 653.319 400.253 652.508 400.383C651.514 400.594 650.637 400.056 650.753 399.307L650.819 392.302C650.753 391.634 650.687 390.966 651.68 390.755C652.674 390.544 652.823 391.407 652.972 392.27L653.998 398.787Z" fill="#F1B287"/>
<path fill-rule="evenodd" clip-rule="evenodd" d="M651.547 399.649C651.614 400.317 650.869 401.115 650.057 401.245C649.064 401.457 648.187 400.919 648.121 400.251L648.005 393.327C647.939 392.659 647.873 391.992 648.866 391.78C649.859 391.569 650.008 392.432 650.157 393.296L651.547 399.649Z" fill="#F1B287"/>
<path fill-rule="evenodd" clip-rule="evenodd" d="M648.84 400.306C648.906 400.974 648.343 401.69 647.532 401.82C646.721 401.95 646.026 401.331 645.959 400.663L645 394C644.934 393.332 645.712 392.404 646.523 392.274C647.334 392.144 647.483 393.007 647.549 393.675L648.84 400.306Z" fill="#F1B287"/>
<path fill-rule="evenodd" clip-rule="evenodd" d="M731.255 310.185C738.356 311.809 746.909 335.791 750.023 343.209C752.172 348.647 756.278 367.476 758.646 380.022C764.733 390.849 762 398.5 762 398.5C762 409 711 421 707 417.5C700.5 398.5 689.012 358.89 688.646 358.5C688.463 358.11 676.979 334.005 676.979 334.005C676.247 332.639 672.16 329.822 688.646 318.305C705.131 306.789 724.153 308.561 731.255 310.185Z" fill="#939598"/>
<path opacity="0.5" d="M737.376 402.85C732.925 400.768 732.161 393.082 732.835 391C732.835 391 721.141 397.45 713 398.5C709.502 398.951 704.5 401 704.5 401C707.333 402.249 707.5 409 705.5 412L708.047 418.592C717.5 421.22 739.063 413.436 748 409.618L745.976 402.85C744.965 403.718 741.828 404.933 737.376 402.85Z" fill="#333130" stroke="#1E1E1E" stroke-linejoin="round"/>
<path fill-rule="evenodd" clip-rule="evenodd" d="M708 390C700.325 394.133 705 409 707 418C698 388 686.25 357.414 686.069 357.053C675.597 336.945 703.068 386.744 718 375.622C723.148 371.787 724.603 369.291 725.5 342.5C721 331 724.708 324.296 727.778 327C727.778 327 734.111 342.149 737 349C738.444 352.245 756.597 338.081 751 363.5C744 379 740.5 372.5 708 390Z" fill="#58595B"/>
<path fill-rule="evenodd" clip-rule="evenodd" d="M680 320C685.417 321.442 693.833 332.418 700.333 333.32C701.056 323.945 701.778 318.177 709.722 318.357C708.278 313.309 709.542 304.115 707.195 301.771C691.847 301.231 682.167 314.952 680 320Z" fill="#58595B"/>
<path fill-rule="evenodd" clip-rule="evenodd" d="M692.57 321.241C695.097 331.337 699.25 333.5 705.389 334.762C704.486 324.847 706.833 319.619 708.639 311.506C708.639 311.506 701.597 312.949 697.264 316.013C694.917 317.816 697.445 316.194 692.57 321.241Z" fill="#3B3839"/>
<path fill-rule="evenodd" clip-rule="evenodd" d="M709.726 320.035C710.809 322.379 709.365 325.444 706.295 326.886C703.226 328.328 696.906 330.852 695.823 328.508C693.656 325.444 687.156 326.525 689.504 319.134C688.42 316.79 696.004 313.185 699.073 311.743C702.142 310.3 705.392 311.021 706.656 313.365L709.726 320.035Z" fill="#231F20"/>
<path fill-rule="evenodd" clip-rule="evenodd" d="M712.506 291.966C713.493 293.912 712.345 299.408 710.507 300.554C708.669 301.7 706.743 303.961 705.755 302.015C704.768 300.068 705.638 291.655 707.476 290.509C709.282 289.498 711.518 290.019 712.506 291.966Z" fill="#FDA470"/>
<path fill-rule="evenodd" clip-rule="evenodd" d="M708.824 294.707C711.443 316.106 710.465 309.731 698.565 322.393C693.811 326.137 690.772 327.181 686.812 321.584C683.932 317.514 679.35 313.397 677.841 308.733C674.611 298.757 671.857 288.786 680.761 284.513C689.697 280.094 702.783 270.977 708.824 294.707Z" fill="#A96C49"/>
<path fill-rule="evenodd" clip-rule="evenodd" d="M675.082 301.909C676.143 309.785 684.264 318.155 686.509 321.211C686.757 321.274 691.668 314 696.5 317.5C711.398 304.877 704.368 301.6 702.5 295C701.968 287.102 699.826 281.1 694.832 278.13C685.347 279.616 671.871 277.807 675.082 301.909Z" fill="#FFBE88"/>
<path fill-rule="evenodd" clip-rule="evenodd" d="M696.761 296.599C696.885 296.628 697.041 296.522 697.197 296.415C697.508 296.201 697.51 295.629 697.325 295.3C695.717 293.209 692.857 293.115 690.893 294.804C690.581 295.018 690.579 295.59 690.764 295.919C690.95 296.248 691.478 296.228 691.79 296.015C693.131 294.753 695.182 294.944 696.171 296.319C696.264 296.484 696.481 296.677 696.761 296.599ZM677.18 304.776C677.46 304.698 677.771 304.485 677.866 304.077C678.152 302.284 679.681 300.78 681.452 301.049C681.824 301.135 682.168 300.786 682.262 300.379C682.357 299.972 682.048 299.614 681.675 299.527C679.252 299.249 676.82 301.258 676.592 303.924C676.497 304.331 676.807 304.689 677.18 304.776C677.055 304.747 677.055 304.747 677.18 304.776Z" fill="#321613"/>
<path fill-rule="evenodd" clip-rule="evenodd" d="M709.372 298.679C710.738 298.433 711.816 296.617 711.858 294.748C711.9 292.879 710.907 291.521 709.582 291.588C709.168 291.68 708.795 292.157 708.794 292.72C708.794 293.284 709.084 293.727 709.498 293.635C710.161 293.602 710.533 294.252 710.491 294.994C710.45 295.736 710.525 297.102 709.945 297.343C709.531 297.434 708.751 297.407 708.751 297.971C708.626 298.506 708.958 298.77 709.372 298.679Z" fill="#FB8761"/>
<path fill-rule="evenodd" clip-rule="evenodd" d="M683.022 304.991C683.391 306.222 683.23 307.472 682.515 307.735C681.799 307.997 680.9 307.359 680.407 306.1C680.039 304.869 680.199 303.619 680.915 303.356C681.631 303.094 682.654 303.761 683.022 304.991Z" fill="#3A1610"/>
<path fill-rule="evenodd" clip-rule="evenodd" d="M681.439 304.48C681.624 304.809 681.529 305.216 681.249 305.294C680.969 305.372 680.752 305.178 680.567 304.849C680.382 304.52 680.477 304.113 680.757 304.035C681.037 303.957 681.254 304.15 681.439 304.48Z" fill="white"/>
<path fill-rule="evenodd" clip-rule="evenodd" d="M696.129 299.314C696.497 300.544 696.337 301.795 695.621 302.057C694.906 302.32 694.007 301.682 693.514 300.422C693.146 299.192 693.306 297.941 694.022 297.679C694.769 297.281 695.636 298.055 696.129 299.314Z" fill="#3A1610"/>
<path fill-rule="evenodd" clip-rule="evenodd" d="M694.514 298.938C694.699 299.268 694.605 299.675 694.325 299.753C694.045 299.831 693.828 299.637 693.642 299.308C693.457 298.979 693.552 298.571 693.832 298.493C694.144 298.28 694.485 298.502 694.514 298.938Z" fill="white"/>
<path fill-rule="evenodd" clip-rule="evenodd" d="M688.576 309.31C688.701 309.339 689.972 308.326 690.096 308.355C690.812 308.092 691.435 307.665 691.749 306.879C691.968 306.501 694.274 306.673 693.933 306.45C693.592 306.228 690.697 305.776 690.478 306.154C690.259 306.532 689.434 307.313 689.03 307.362C688.47 307.518 688.032 306.73 687.941 305.993C687.912 305.557 686.371 296.481 686.612 299.612C686.207 299.661 686.357 307.484 686.351 308.793C687.128 309.487 687.364 309.457 688.576 309.31Z" fill="#DC9265"/>
<path fill-rule="evenodd" clip-rule="evenodd" d="M703.04 277.48C699.893 272.408 670.851 267.563 673.016 300.23C673.016 300.23 671.447 291.569 677.64 290.458C680.474 289.969 684.664 290.561 688.502 287.881C690.45 286.419 692.834 284.677 694.438 284.157C696.569 283.504 698.741 284.265 700.101 285.858C700.397 286.182 700.664 286.627 700.931 287.072C702.066 289.634 702.366 293.66 702.909 295.573C703.209 296.409 704.762 296.643 704.762 296.643C705.612 296.713 705.002 294.018 705.547 292.741C706.265 291.249 706.823 291.507 706.823 291.507C706.823 291.507 707.195 287.254 705.127 281.795C704.616 280.272 703.725 278.788 703.04 277.48Z" fill="#FFD18E"/>
<path fill-rule="evenodd" clip-rule="evenodd" d="M689.681 311.263C691.863 309.768 692.469 308.988 694.92 310.273C695.261 310.496 696.079 310.515 695.86 310.894C695.641 311.272 694.756 311.155 694.988 311.263C693.5 310 691.706 309.555 688.106 315.361C687.887 315.74 687.55 315.918 687.334 315.724C687.775 314.771 687.782 314.175 688.001 313.797C688.473 312.333 688.435 312.118 689.681 311.263Z" fill="#DC9265"/>
<path fill-rule="evenodd" clip-rule="evenodd" d="M700.062 274.09C692.001 268.78 661.695 270.712 672.293 298.202C673.986 294.304 677.68 287.437 687.973 285.97C712.222 284.746 707.465 293.368 707.937 291.904C708.596 290.197 709.31 290.506 709.31 290.506C709.31 290.506 708.124 279.4 700.062 274.09Z" fill="#58595B"/>
<path fill-rule="evenodd" clip-rule="evenodd" d="M670.856 289.75C684.592 276.004 691.262 276.016 701.779 273.911C693.962 269.803 672.859 269.327 670.856 289.75Z" fill="#939598" fill-opacity="0.49"/>
<path fill-rule="evenodd" clip-rule="evenodd" d="M671.819 300.238C684.2 297.682 697.273 292.712 709.228 287.482C709.287 288.355 710.371 289.322 710.306 290.166C708.377 290.575 705.882 292.856 703.606 294.759C703.313 298.268 701.306 302.951 698.007 304.187C691.596 306.414 690.128 299.777 687.297 300.692C685.181 301.344 687.458 307.312 682.043 309.199C674.48 311.874 673.259 305.867 671.819 300.238Z" fill="#231F20"/>
<path fill-rule="evenodd" clip-rule="evenodd" d="M701.46 294.975C701.707 295.604 701.549 296.283 701.113 296.468C700.677 296.652 700.243 296.265 699.997 295.636C699.751 295.006 699.909 294.327 700.344 294.143C700.78 293.958 701.338 294.374 701.46 294.975Z" fill="white"/>
<path fill-rule="evenodd" clip-rule="evenodd" d="M684.469 300.464C684.715 301.093 684.557 301.772 684.121 301.957C683.686 302.141 683.252 301.754 683.006 301.125C682.759 300.495 682.917 299.816 683.353 299.632C683.789 299.447 684.223 299.834 684.469 300.464Z" fill="white"/>
<g filter="url(#filter1_d)">
<path fill-rule="evenodd" clip-rule="evenodd" d="M703.043 284.956C699.348 287.486 699.732 292.163 696.07 294.554C693.402 296.734 686.164 295.344 682.89 296.646C679.039 298.108 675.856 300.758 673.666 303.787C672.29 303.319 671.106 297.324 672.586 295.604C675.256 284.135 693.153 281.032 703.043 284.956Z" fill="#939598"/>
</g>
<path fill-rule="evenodd" clip-rule="evenodd" d="M687.632 326.759C684.705 324.847 679.888 321.701 676 316C670.931 308.567 668.893 302.054 668.141 297.45C667.577 294 666.21 284.67 672.65 277.362C679.09 270.055 698.143 266.561 705.825 277.362C713.012 287.469 714.153 294.15 713.092 302C712.783 304.289 712.379 306.787 711.958 309.394C711.224 313.939 710.436 318.816 710 323.5C708.222 328.446 708.391 331.468 708.5 333.432C708.593 335.104 708.644 336.01 707.414 336.683C704.741 338.148 692.672 330.922 688 327C687.881 326.922 687.758 326.842 687.632 326.759ZM686.013 323.118C683.72 321.348 678.316 316.563 675.039 311.581C671.96 306.901 671.742 303.921 671.545 301.212C671.479 300.317 671.416 299.452 671.253 298.565C671.231 298.446 671.152 298.217 671.041 297.898C670.305 295.77 668.182 289.639 672.5 285.5C677.464 280.741 691.661 274.221 700 281.5C708.339 288.779 706.722 303.189 706 309C705.704 311.379 705.825 313.027 705.955 314.806C706.079 316.503 706.212 318.318 706 321C704.933 323.836 704.966 326.526 704.993 328.677C705.028 331.481 705.052 333.369 702.609 333.469C698.292 333.645 689.746 326.642 686.013 323.118Z" fill="#78777A"/>
<path fill-rule="evenodd" clip-rule="evenodd" d="M711.646 373.575L710.836 377.217C710.836 377.217 704.553 382.074 702.121 382.479C701.716 383.086 690.163 379.848 690.163 379.848C690.163 379.848 691.582 375.801 695.028 371.551C697.46 368.516 702.729 368.314 706.174 368.111C709.214 366.088 711.849 368.921 712.254 369.326C712.66 369.73 711.241 373.575 711.646 373.575Z" fill="#F1B287"/>
<path fill-rule="evenodd" clip-rule="evenodd" d="M695.028 372.159C695.636 371.349 696.649 371.147 697.46 371.754C698.27 372.361 698.473 373.373 697.865 373.98L693.001 380.86C691.785 382.681 688.745 381.669 690.569 379.443L695.028 372.159Z" fill="#F1B287"/>
<path fill-rule="evenodd" clip-rule="evenodd" d="M697.662 373.171C698.27 372.361 699.284 372.159 700.094 372.766C700.905 373.373 701.108 374.385 700.5 374.992L695.838 381.669C694.622 383.491 691.582 382.479 693.406 380.253L697.662 373.171Z" fill="#F1B287"/>
<path fill-rule="evenodd" clip-rule="evenodd" d="M700.905 373.575C701.513 372.766 702.526 372.563 703.337 373.17C704.148 373.777 704.35 374.789 703.742 375.396L698.878 382.276C697.662 384.098 694.622 383.086 696.446 380.86L700.905 373.575Z" fill="#F1B287"/>
<path fill-rule="evenodd" clip-rule="evenodd" d="M703.945 373.98C704.553 373.17 705.566 372.968 706.377 373.575C707.188 374.182 707.39 375.194 706.782 375.801L701.918 382.681C700.702 384.502 697.662 383.491 699.486 381.265L703.945 373.98Z" fill="#F1B287"/>
<path fill-rule="evenodd" clip-rule="evenodd" d="M751.5 349C751.5 365.683 751.5 365.683 714.078 380.86L710.228 365.683C710.228 365.683 729.5 352.5 731.5 349C733.5 345.5 727.5 345 724.5 330.5C718.5 316.5 731.5 312 731.5 312C735.959 313.619 752.919 327.348 751.5 349Z" fill="#9DA1A8"/>
<path fill-rule="evenodd" clip-rule="evenodd" d="M710.228 365.683L714.078 380.86L709.417 382.074L705.769 367.707L710.228 365.683Z" fill="#434242"/>
<g style="mix-blend-mode:multiply" opacity="0.67">
<path fill-rule="evenodd" clip-rule="evenodd" d="M159.691 383.273C175.473 344.286 191.791 303.977 180.815 258.215C131.907 54.3065 460.901 55.4656 656.672 136.42C666.43 115.82 688.178 102.361 712.247 104.283C743.352 106.765 766.555 133.994 764.073 165.099C763.496 172.321 761.586 179.116 758.603 185.263C774.318 190.939 790.312 195.574 805.936 200.101C895.579 226.076 973.017 248.515 915.408 443.787C913.841 449.099 912.335 454.257 910.873 459.264C873.392 587.657 864.86 616.881 593.96 597.823C523.184 586.641 465.779 584.429 394.662 601.582C251 618.678 197.526 611.997 148.643 516.831C124.585 469.994 141.794 427.483 159.691 383.273Z" fill="url(#paint6_linear)"/>
</g>
<defs>
<filter id="filter0_f" x="645.38" y="116.932" width="93.7222" height="105.568" filterUnits="userSpaceOnUse" color-interpolation-filters="sRGB">
<feFlood flood-opacity="0" result="BackgroundImageFix"/>
<feBlend mode="normal" in="SourceGraphic" in2="BackgroundImageFix" result="shape"/>
<feGaussianBlur stdDeviation="2.5" result="effect1_foregroundBlur"/>
</filter>
<filter id="filter1_d" x="670.591" y="278.508" width="33.501" height="32.7966" filterUnits="userSpaceOnUse" color-interpolation-filters="sRGB">
<feFlood flood-opacity="0" result="BackgroundImageFix"/>
<feColorMatrix in="SourceAlpha" type="matrix" values="0 0 0 0 0 0 0 0 0 0 0 0 0 0 0 0 0 0 127 0"/>
<feOffset dx="1" dy="2"/>
<feColorMatrix type="matrix" values="0 0 0 0 0 0 0 0 0 0 0 0 0 0 0 0 0 0 0.25 0"/>
<feBlend mode="multiply" in2="BackgroundImageFix" result="effect1_dropShadow"/>
<feBlend mode="normal" in="SourceGraphic" in2="effect1_dropShadow" result="shape"/>
</filter>
<linearGradient id="paint0_linear" x1="257" y1="205" x2="829.5" y2="561" gradientUnits="userSpaceOnUse">
<stop offset="0.171875" stop-color="#1E5471" stop-opacity="0.12"/>
<stop offset="0.760417" stop-color="#455C74"/>
<stop offset="1" stop-color="#20363F"/>
</linearGradient>
<linearGradient id="paint1_linear" x1="582.984" y1="106.795" x2="498.09" y2="644.162" gradientUnits="userSpaceOnUse">
<stop offset="0.171875" stop-color="#1E5471"/>
<stop offset="0.760417" stop-color="#455C74"/>
<stop offset="1" stop-color="#20363F"/>
</linearGradient>
<linearGradient id="paint2_linear" x1="54.2335" y1="302.962" x2="1383.54" y2="302.962" gradientUnits="userSpaceOnUse">
<stop stop-color="#203050" stop-opacity="0"/>
<stop offset="1" stop-color="#12203A"/>
</linearGradient>
<linearGradient id="paint3_linear" x1="201.5" y1="427.5" x2="881.5" y2="448" gradientUnits="userSpaceOnUse">
<stop stop-color="#AFDDAB"/>
<stop offset="1" stop-color="#3E533C"/>
</linearGradient>
<linearGradient id="paint4_linear" x1="690.5" y1="444" x2="835" y2="454" gradientUnits="userSpaceOnUse">
<stop stop-color="#EC5F6B"/>
<stop offset="1" stop-color="#A73841"/>
</linearGradient>
<linearGradient id="paint5_linear" x1="798.5" y1="408" x2="507" y2="415" gradientUnits="userSpaceOnUse">
<stop stop-color="#B02A40"/>
<stop offset="1" stop-color="#E2304D"/>
</linearGradient>
<linearGradient id="paint6_linear" x1="700.5" y1="488.5" x2="350" y2="550" gradientUnits="userSpaceOnUse">
<stop stop-color="#A69C96"/>
<stop offset="0.969347" stop-color="#474264" stop-opacity="0"/>
</linearGradient>
</defs>
</svg>
