<svg width="964" height="705" fill="none" xmlns="http://www.w3.org/2000/svg"><path d="M180.212 258.202c23.423 97.655-77.445 170.476-32.172 258.616 48.883 95.166 102.357 101.847 246.019 84.751 71.117-17.153 128.522-14.941 199.298-3.759 281.466 19.801 279.698-12.518 321.448-154.036 77.561-262.903-89.67-212.521-201.903-279.275-179.101-106.527-586.75-131.684-532.69 93.703z" fill="#BBDEED"/><circle cx="707.149" cy="160.591" r="56.5" transform="rotate(4.564 707.149 160.591)" fill="#FFE2B8"/><g filter="url(#filter0_f)"><path fill-rule="evenodd" clip-rule="evenodd" d="M740.032 207.356c-19.993 17.966-62.498 10.059-78.352-11.27-18.564-18.917-13.097-50.599-3.783-60.599 14.268-15.318 67.264 8.402 85.5 27.5 18.236 19.098 23.484 15.915-3.365 44.369z" fill="#FFE2B8"/></g><mask id="a" maskUnits="userSpaceOnUse" x="136" y="85" width="799" height="524"><path d="M180.212 258.202c23.423 97.655-77.445 170.476-32.172 258.616 48.883 95.166 102.357 101.847 246.019 84.751 71.117-17.153 128.522-14.941 199.298-3.759 281.466 19.801 279.698-12.518 321.448-154.036 77.561-262.903-89.67-212.521-201.903-279.275-179.101-106.527-586.75-131.684-532.69 93.703z" fill="#E6F8FF"/></mask><g mask="url(#a)"><path d="M341.514 339.043l332.771-153.876L294.96 430.983l46.554-91.94z" fill="url(#paint0_linear)"/><path d="M186.397 248.987l461-64-530.084 122.81 69.084-58.81z" fill="url(#paint1_linear)"/><path d="M838.168 396.461L719.777 195.205l186.05 206.397-67.659-5.141z" fill="url(#paint2_linear)"/><path d="M500.064 369.335l169.733-164.608L505.06 437.109l-4.996-67.774z" fill="url(#paint3_linear)"/><path fill-rule="evenodd" clip-rule="evenodd" d="M144.403 251.329l274.446.41c18.624 0 145.982-6.159 100.548 3.901-25.787 5.748-180.978 15.603-211.677 16.629-38.885 1.232 577.953 2.053 277.925 20.325-92.301 5.543 88.412 10.47 101.919 10.265 204.453-2.669 317.626.821 377.796 0v-35.312c-5.93-.205-12.28-.205-19.03-.205-6.55 0-79.818 0-70.813-2.874 3.889-1.232 65.903-6.159 44.613-8.828-33.152-4.106-97.327 6.364-132.733 6.364-79.494 0-85.225-16.013-139.254-16.013-4.298 0-116.088-.205-114.246-1.642 6.344-4.722 160.089-4.106 174.006-3.08 83.909 6.159 172.321 1.027 257.257-1.437l-100.763-17.345-845.924 21.862 25.93 6.98zm12.494-101.842l225.099-13.404c44.67-1.658-174.417 18.855 19.546 18.855 152.783 1.418 350.337 13.083 323.065 14.066-30.698 1.026-121.923-2.265-147.71 3.483-45.434 10.06 44.376 10 63 10l425.463 22.033-920.957 12.113c12.388-11.511 122.386-8.399 122.386-8.399s2630.411-16.853 162.059-16.853c-35.406 0-287.183 11.245-320.337 6.934-21.285-2.669 269.597-8.987 273.485-10.218 62.963-8.602-179.265-8.602-186.019-8.602-20.056.205 91.312-9.508 70.812-17.508s-109.892-12.5-109.892-12.5z" fill="#E6F8FF"/><path fill-rule="evenodd" clip-rule="evenodd" d="M915.065 402.883a.856.856 0 00-.856-.856c-.227 0-.441-.096-.625-.229a2.683 2.683 0 00-.379-.228c-.54-.265-1.046-.757-1.046-1.358 0-.601.487-1.089 1.088-1.089h.244c.736 0 1.332-.596 1.332-1.332v-5.32c0-.736-.596-1.332-1.332-1.332a1.332 1.332 0 01-1.332-1.332v-.12c0-.802.65-1.452 1.452-1.452.803 0 1.454-.65 1.454-1.453v-1.206c0-.803-.651-1.454-1.454-1.454-.802 0-1.452-.65-1.452-1.451v-.12c0-.736.596-1.332 1.332-1.332.736 0 1.332-.597 1.332-1.332v-5.32c0-.736-.596-1.333-1.332-1.333a1.332 1.332 0 01-1.332-1.332v-.119c0-.802.65-1.452 1.452-1.452.803 0 1.454-.651 1.454-1.453v-1.207c0-.802-.651-1.453-1.454-1.453-.802 0-1.452-.65-1.452-1.452v-.119c0-.736.596-1.332 1.332-1.332.736 0 1.332-.597 1.332-1.333v-5.32c0-.735-.596-1.332-1.332-1.332a1.332 1.332 0 01-1.332-1.332v-.12c0-.801.65-1.451 1.452-1.451.803 0 1.454-.651 1.454-1.454v-1.206c0-.803-.651-1.453-1.454-1.453-.802 0-1.452-.65-1.452-1.452v-.12c0-.735.596-1.332 1.332-1.332.736 0 1.332-.596 1.332-1.332v-5.32c0-.736-.596-1.332-1.332-1.332a1.332 1.332 0 01-1.332-1.332v-.12c0-.802.65-1.452 1.452-1.452.803 0 1.454-.65 1.454-1.453v-.964c0-.803-.651-1.454-1.454-1.454-.802 0-1.452-.65-1.452-1.451v-.12c0-.736.596-1.332 1.332-1.332.736 0 1.332-.597 1.332-1.332v-5.32c0-.736-.596-1.333-1.332-1.333a1.332 1.332 0 01-1.332-1.332v-.119c0-.802.65-1.452 1.452-1.452.803 0 1.454-.651 1.454-1.453V314.2c0-.802-.65-1.453-1.453-1.453a1.453 1.453 0 01-1.453-1.453v-3.991a5.444 5.444 0 00-5.444-5.444h-.491a5.934 5.934 0 01-5.934-5.934v-4.102a4.24 4.24 0 00-4.239-4.239 4.24 4.24 0 01-4.239-4.239v-7.423a6 6 0 00-6-6H875.77a6 6 0 00-6 6v7.423a4.24 4.24 0 01-4.239 4.239 4.24 4.24 0 00-4.239 4.239v4.102a5.934 5.934 0 01-5.934 5.934 5.935 5.935 0 00-5.935 5.935v6.312c0 3.274-2.628 5.935-5.9 6.061-11.169.428-18.807 1.464-18.807 2.5v4.597-.242 53.713-.242 12.697a4.48 4.48 0 11-8.962 0v-87.025c0-3.313-2.742-6-6.055-6-3.314 0-6.056-2.686-6.056-6v-37.182a5.45 5.45 0 00-5.45-5.45 5.45 5.45 0 01-5.45-5.45v-6.454a6 6 0 00-6-6h-5.682a6 6 0 00-6 6v6.454a5.45 5.45 0 01-5.45 5.45 5.45 5.45 0 00-5.45 5.45v37.248a5.934 5.934 0 01-5.935 5.934h-4.724a1.21 1.21 0 00-1.21 1.21 1.21 1.21 0 01-1.21 1.21h-.487a1.452 1.452 0 100 2.903h.123c.869 0 1.574.705 1.574 1.575v1.206c0 .87-.705 1.574-1.574 1.574h-.123a1.452 1.452 0 100 2.904h.123c.869 0 1.574.705 1.574 1.574v1.207c0 .869-.705 1.574-1.574 1.574h-.123a1.452 1.452 0 100 2.903h.123c.869 0 1.574.705 1.574 1.575v1.206c0 .87-.705 1.575-1.574 1.575-.87 0-1.575.704-1.575 1.574v.48c0 .87.705 1.575 1.575 1.575.869 0 1.574.705 1.574 1.574v1.206c0 .87-.705 1.575-1.574 1.575h-.123a1.452 1.452 0 100 2.903h.123c.869 0 1.574.705 1.574 1.575v1.206c0 .869-.705 1.574-1.574 1.574h-.123a1.452 1.452 0 100 2.904h.123c.869 0 1.574.705 1.574 1.574v1.69c0 .87-.705 1.575-1.574 1.575h-.123a1.452 1.452 0 100 2.903h.123c.869 0 1.574.705 1.574 1.575v1.206c0 .869-.705 1.574-1.574 1.574h-.123a1.452 1.452 0 100 2.904h.123c.869 0 1.574.705 1.574 1.574v1.206c0 .87-.705 1.575-1.574 1.575h-.123a1.452 1.452 0 100 2.903h.123c.869 0 1.574.705 1.574 1.575v1.206c0 .869-.705 1.574-1.574 1.574h-.123a1.452 1.452 0 100 2.904h.123c.869 0 1.574.705 1.574 1.574v1.206c0 .87-.705 1.575-1.574 1.575h-.123a1.452 1.452 0 100 2.903h.123c.869 0 1.574.705 1.574 1.575v1.206c0 .869-.705 1.574-1.574 1.574h-.123a1.452 1.452 0 100 2.904h.85a.847.847 0 110 1.693h-4.482a5.33 5.33 0 00-5.329 5.329v47.707a6 6 0 006 6h161.431a6 6 0 006-6v-38.388z" fill="#E7EEF6"/><path fill-rule="evenodd" clip-rule="evenodd" d="M915.065 305.734a3.39 3.39 0 00-3.391-3.391 3.39 3.39 0 01-3.391-3.391v-6.645a4.24 4.24 0 00-4.239-4.239 4.24 4.24 0 01-4.239-4.239v-7.423a6 6 0 00-6-6h-10.526a6 6 0 00-6 6v7.544a4.118 4.118 0 01-4.118 4.118 4.118 4.118 0 00-4.118 4.118v4.223a5.934 5.934 0 01-5.934 5.934 5.935 5.935 0 00-5.935 5.934v6.313c0 3.274-2.628 5.935-5.9 6.061-11.169.428-18.806 1.464-18.806 2.5v4.597-.242 18.146-.242 35.325-.242 12.581a4.6 4.6 0 01-4.6 4.597 4.604 4.604 0 01-4.605-4.602v-86.904c0-3.313-2.742-6-6.055-6-3.314 0-6.056-2.686-6.056-6v-37.06a5.572 5.572 0 00-5.571-5.572 5.57 5.57 0 01-5.571-5.571v-6.333a6 6 0 00-6-6h-5.925a6 6 0 00-6 6v6.333a5.57 5.57 0 01-5.571 5.571 5.572 5.572 0 00-5.571 5.572v37.06a6 6 0 01-6 6h-4.901a1.21 1.21 0 00-1.21 1.21 1.21 1.21 0 01-1.21 1.21h-.487a1.452 1.452 0 100 2.903h.123c.869 0 1.574.705 1.574 1.575v1.206c0 .87-.705 1.574-1.574 1.574h-.123a1.452 1.452 0 100 2.904h.123c.869 0 1.574.705 1.574 1.574v1.207c0 .869-.705 1.574-1.574 1.574h-.123a1.452 1.452 0 100 2.903h.123c.869 0 1.574.705 1.574 1.575v1.206c0 .87-.705 1.575-1.574 1.575-.87 0-1.575.704-1.575 1.574v.48c0 .87.705 1.575 1.575 1.575.869 0 1.574.705 1.574 1.574v1.206c0 .87-.705 1.575-1.574 1.575h-.123a1.452 1.452 0 100 2.903h.123c.869 0 1.574.705 1.574 1.575v1.206c0 .869-.705 1.574-1.574 1.574h-.123a1.452 1.452 0 100 2.904h.123c.869 0 1.574.705 1.574 1.574v1.69c0 .87-.705 1.575-1.574 1.575h-.123a1.452 1.452 0 100 2.903h.123c.869 0 1.574.705 1.574 1.575v1.206c0 .869-.705 1.574-1.574 1.574h-.123a1.452 1.452 0 100 2.904h.123c.869 0 1.574.705 1.574 1.574v1.206c0 .87-.705 1.575-1.574 1.575h-.123a1.452 1.452 0 100 2.903h.123c.869 0 1.574.705 1.574 1.575v1.206c0 .869-.705 1.574-1.574 1.574h-.123a1.452 1.452 0 100 2.904h.123c.869 0 1.574.705 1.574 1.574v1.206c0 .87-.705 1.575-1.574 1.575h-.123a1.452 1.452 0 100 2.903h.123c.869 0 1.574.705 1.574 1.575v1.206c0 .869-.705 1.574-1.574 1.574h-.123a1.452 1.452 0 100 2.904h.85a.847.847 0 110 1.693h-4.482a5.33 5.33 0 00-5.329 5.329v47.707a6 6 0 006 6h154.891a6 6 0 006-6V305.734z" fill="#D8DEEB"/><path fill-rule="evenodd" clip-rule="evenodd" d="M792.259 410.495c-1.938 0-3.391-1.452-3.391-3.388v-2.661c0-.313.109-.615.293-.869.819-1.126 1.402-2.427 1.402-3.728 0-3.387-2.664-12.098-6.055-12.098-3.391 0-6.056 8.711-6.056 12.098 0 .683-.562 1.452-1.245 1.452h-3.005a2.775 2.775 0 01-2.774-2.775v-80.695a2.908 2.908 0 00-2.907-2.907 2.907 2.907 0 01-2.907-2.906v-2.171a3.15 3.15 0 00-3.149-3.149h-.729a2.42 2.42 0 01-2.419-2.42v-3.022a1.818 1.818 0 00-1.817-1.817 1.817 1.817 0 01-1.817-1.816v-2.176a3.992 3.992 0 00-3.992-3.992h-3.642a3.992 3.992 0 00-3.993 3.992v2.176a1.816 1.816 0 01-1.816 1.816 1.817 1.817 0 00-1.817 1.817v2.535a3.15 3.15 0 01-3.149 3.149 3.15 3.15 0 00-3.149 3.149v2.9a2.177 2.177 0 01-2.177 2.177h-1.093a3.27 3.27 0 00-3.27 3.27v12.094c0 8.485-6.878 15.364-15.363 15.364h-23.167c-8.552 0-15.485-6.933-15.485-15.485v-12.094a3.39 3.39 0 00-3.391-3.391 3.39 3.39 0 01-3.391-3.391v-3.503c0-.736-.597-1.332-1.333-1.332a1.333 1.333 0 01-1.332-1.332v-.362a2.419 2.419 0 00-2.419-2.419h-5.819a2.42 2.42 0 00-2.42 2.419c0 .936-.758 1.694-1.693 1.694h-2.184a1.694 1.694 0 01-1.694-1.694 2.419 2.419 0 00-2.419-2.419h-5.698a2.057 2.057 0 00-2.056 2.056v.725c0 .735-.597 1.332-1.332 1.332-.736 0-1.333.596-1.333 1.332v4.959a1.935 1.935 0 01-1.935 1.935h-.245a2.18 2.18 0 00-2.18 2.18v97.231c0 8.836 7.164 16 16 16h143.867c2.665 0 5.087-2.178 5.087-5.081V413.64c0-1.694-1.454-3.145-3.391-3.145z" fill="#E7EEF6"/><path fill-rule="evenodd" clip-rule="evenodd" d="M799.959 410.495c-1.937 0-3.391-1.452-3.391-3.388v-2.661c0-.313.11-.615.294-.869.818-1.126 1.402-2.427 1.402-3.728 0-3.387-2.665-12.098-6.056-12.098s-6.055 8.711-6.055 12.098c0 .683-.562 1.452-1.245 1.452h-3.005a2.776 2.776 0 01-2.775-2.775v-80.695a2.907 2.907 0 00-2.906-2.907 2.906 2.906 0 01-2.907-2.906v-2.171a3.15 3.15 0 00-3.149-3.149h-.729a2.42 2.42 0 01-2.42-2.42v-3.022a1.817 1.817 0 00-1.817-1.817 1.816 1.816 0 01-1.816-1.816v-2.176a3.992 3.992 0 00-3.992-3.992h-3.643a3.992 3.992 0 00-3.992 3.992v2.176a1.816 1.816 0 01-1.817 1.816 1.817 1.817 0 00-1.816 1.817v2.535a3.15 3.15 0 01-3.149 3.149 3.15 3.15 0 00-3.149 3.149v2.9a2.178 2.178 0 01-2.178 2.177h-1.092a3.27 3.27 0 00-3.27 3.27v12.094c0 8.485-6.879 15.364-15.364 15.364h-23.167c-8.552 0-15.485-6.933-15.485-15.485v-12.094a3.39 3.39 0 00-3.391-3.391 3.39 3.39 0 01-3.391-3.391v-3.503c0-.736-.596-1.332-1.332-1.332a1.332 1.332 0 01-1.332-1.332v-.362a2.42 2.42 0 00-2.42-2.419h-5.819a2.419 2.419 0 00-2.419 2.419c0 .936-.758 1.694-1.694 1.694h-2.183a1.693 1.693 0 01-1.694-1.694 2.42 2.42 0 00-2.42-2.419h-5.697a2.056 2.056 0 00-2.056 2.056v.725c0 .735-.597 1.332-1.333 1.332-.735 0-1.332.596-1.332 1.332v4.959a1.935 1.935 0 01-1.936 1.935h-.244a2.18 2.18 0 00-2.18 2.18v97.231c0 8.836 7.164 16 16 16h143.867c2.664 0 5.086-2.178 5.086-5.081V413.64c0-1.694-1.453-3.145-3.391-3.145z" fill="#D8DEEB"/><path fill-rule="evenodd" clip-rule="evenodd" d="M197.993 385.363c-4.723-.944-10.391-.236-15.822 2.362-1.417-2.834-3.306-4.723-6.14-5.668-5.904-1.889-12.752 2.362-16.531 9.918-1.889-.944-4.014-1.416-6.376-1.889-9.446-1.417-17.947 2.126-20.072 8.502-.945 0-2.126-.236-3.07-.236 0-.237-.237-.473-.237-.709-1.889-4.959-8.029-7.557-14.877-7.084 1.181-2.598 1.417-5.432.472-8.03-2.597-6.376-12.516-8.737-22.198-4.959-1.18.473-2.125.945-3.07 1.417-3.778-7.557-10.39-12.988-18.183-13.933v82.653a47.06 47.06 0 0013.224 1.889c8.501 0 16.058-2.125 22.198-5.431 5.668 2.833 12.752 4.487 20.309 4.487 8.501 0 16.058-2.126 22.198-5.432 5.668 2.834 12.752 4.487 20.309 4.487 4.487 0 8.738-.709 12.752-1.653 1.889.944 4.251 1.417 6.376 1.889v8.738c1.653-.473 3.306-.945 4.959-1.653 4.487 1.18 9.21 1.889 14.406 1.889 8.501 0 16.53-1.889 22.906-5.196 6.848 3.779 15.586 6.14 25.032 6.14 8.501 0 16.531-1.889 22.907-5.195 6.848 3.778 15.586 6.14 25.032 6.14a55.365 55.365 0 0018.183-3.07c6.612 3.306 14.405 5.195 23.143 5.195 4.251 0 8.265-.472 12.043-1.417 5.432-.472 10.627-1.889 15.35-3.778a50.473 50.473 0 0015.35 3.778c3.778.945 7.793 1.417 12.044 1.417 8.501 0 16.53-1.889 23.142-5.195a55.376 55.376 0 0018.184 3.07c9.446 0 18.183-2.362 25.032-6.14 6.612 3.306 14.405 5.195 22.906 5.195 9.446 0 18.184-2.361 25.032-6.14 6.613 3.307 14.405 5.196 22.907 5.196 4.959 0 9.918-.709 14.405-1.889 1.653.708 3.306 1.18 4.959 1.653v-8.738c2.362-.472 4.487-1.181 6.376-1.889 4.015 1.181 8.265 1.653 12.752 1.653 7.557 0 14.642-1.653 20.309-4.487 6.14 3.542 13.697 5.432 22.198 5.432 7.557 0 12.516 4.014 18.42 1.18 6.14 3.543 15.822-.236 24.324-.236h6.612c8.501 0 18.183 3.542 24.323.236 5.668 2.834 10.863-1.18 18.42-1.18 8.501 0 16.058-2.126 22.198-5.432 5.668 2.834 12.752 4.487 20.309 4.487 4.487 0 8.738-.709 12.752-1.653 1.889.944 4.251 1.653 6.376 1.889v8.738c1.653-.473 3.306-.945 4.959-1.653 4.487 1.18 9.21 1.889 14.405 1.889 8.502 0 16.531-1.889 22.907-5.196 6.848 3.779 15.586 6.14 25.032 6.14 8.501 0 16.53-1.889 22.906-5.195 6.849 3.778 15.586 6.14 25.032 6.14a55.366 55.366 0 0018.184-3.07c6.612 3.306 14.405 5.195 23.143 5.195 4.25 0 8.265-.472 12.043-1.417 5.432-.472 10.627-1.889 15.35-3.778a50.473 50.473 0 0015.35 3.778c3.778.945 7.793 1.417 12.044 1.417 8.501 0 16.529-1.889 23.139-5.195a55.366 55.366 0 0018.19 3.07c9.44 0 18.18-2.362 25.03-6.14 6.61 3.306 14.4 5.195 22.91 5.195 9.44 0 18.18-2.361 25.03-6.14 6.61 3.307 14.4 5.196 22.9 5.196 4.73 0 9.45-.709 13.7-1.653v-70.373c-.94 0-2.12.236-3.07.472-1.18-1.18-2.6-2.125-4.25-2.597-6.61-2.126-14.41 2.833-18.66 11.335-2.12-.945-4.48-1.653-7.08-2.126-10.63-1.653-20.31 2.598-22.67 9.446-1.18-.236-2.36-.236-3.54-.236 0-.236-.24-.472-.24-.944-2.12-5.668-8.97-8.502-16.77-7.793 1.18-3.07 1.42-6.14.48-8.974-2.84-7.557-14.17-10.154-25.04-5.904-1.18.473-2.36.945-3.54 1.653-4.25-8.973-11.81-15.113-21.02-15.822-2.59-.236-5.19 0-7.79.709 2.84-10.155 0-20.073-7.083-22.671-6.376-2.361-13.933 1.653-18.656 9.446-2.833-1.653-5.903-2.597-9.209-2.833-3.543-.237-6.849.236-10.155 1.416-15.35-5.903-53.842-15.585-45.105 14.406-2.597-.709-5.195-.945-7.793-.709-9.209.709-17.002 7.085-21.017 15.822-1.181-.708-2.361-1.181-3.542-1.653-10.863-4.251-21.962-1.653-25.032 5.904-1.181 2.834-.945 5.904.472 8.974-7.793-.709-14.641 2.361-16.766 7.793 0 .236-.237.472-.237.944-1.18 0-2.361.236-3.542.236-2.361-7.084-12.043-11.099-22.67-9.446-2.598.473-4.959 1.181-7.085 2.126-4.25-8.502-12.043-13.461-18.656-11.336-1.653.473-3.07 1.417-4.25 2.598-4.723-.944-10.391-.236-15.822 2.362-1.417-2.834-3.306-4.723-6.14-5.668-5.904-1.889-14.878-8.265-18.656-.708-8.029-3.543-20.545-6.613-20.545 7.793-3.779-3.543-7.085 0-7.085 2.125-1.889-6.376-4.487-6.376-10.39-5.904 6.376-15.113-11.572-26.213-25.032-13.46-6.14-13.225-14.642-6.376-20.781 6.848-.945-.472-2.126-.945-3.07-1.417-9.683-3.778-19.601-1.417-22.199 5.195-.944 2.598-.708 5.196.473 8.029-6.849-.472-12.988 2.126-14.878 7.085 0 .236-.236.472-.236.708-.944 0-2.125 0-3.07.237-2.125-6.14-10.627-9.919-20.073-8.502-2.361.472-4.486.945-6.376 1.889-3.778-7.556-10.626-12.043-16.53-9.918-2.598.945-4.723 2.834-6.14 5.668-5.431-2.598-11.099-3.306-15.822-2.362-1.181-1.181-2.598-2.125-4.251-2.598-6.612-2.125-14.405 2.834-18.656 11.336-2.125-.945-4.486-1.653-7.084-2.126-10.627-1.653-20.309 2.598-22.671 9.446-1.18-.236-2.361-.236-3.542-.236 0-.236-.236-.472-.236-.944-2.125-5.668-8.974-8.502-16.767-7.793 1.181-3.07 1.417-6.14.473-8.974-2.834-7.557-14.169-10.155-25.032-5.904-1.181.472-2.362.945-3.542 1.653-4.251-8.973-11.808-15.113-21.018-15.822-2.598-.236-5.195 0-7.793.709 8.738-30.228-29.755-20.309-45.104-14.406-3.307-1.18-6.613-1.653-10.155-1.416-3.306.236-6.376 1.18-9.21 2.833-4.723-7.793-12.28-11.807-18.656-9.446-7.084 2.598-9.918 12.516-7.084 22.671-2.598-.709-5.195-.945-7.793-.709-9.21.709-16.767 7.085-21.017 15.822-1.181-.708-2.362-1.18-3.543-1.653-10.863-4.25-21.962-1.653-25.032 5.904-1.18 2.834-.944 5.904.473 8.974-7.793-.709-14.642 2.361-16.767 7.793 0 .236-.236.472-.236.944-1.181 0-2.362.236-3.542.236-2.362-7.084-12.044-11.099-22.671-9.446-2.597.473-4.959 1.181-7.084 2.126-4.251-8.502-12.044-13.461-18.656-11.335-1.889.472-3.306 1.417-4.723 2.597z" fill="#AFDDAB"/><path d="M963.397 636.987l34-193s-98-15-140-15c-235.096 0-345.147-10.683-580 0-69.562 3.165-178 10.5-178 10.5v197.5h864z" fill="#7CC076"/><path d="M1225.4 479.987H68.397v165.208H1225.4V479.987z" fill="#C4CDDF"/><path d="M1225.4 487.987H68.397v14.937H1225.4v-14.937z" fill="#767D86"/><path d="M1225.4 479.916H68.397v7.904H1225.4v-7.904z" fill="#E7EEF6"/><path d="M1225.4 484.987H68.397v2.833H1225.4v-2.833z" fill="#CCC"/><path d="M151.187 566.807l31.368 6.18H68.397v-6.18h82.79zm1074.213 6.18v-6.18h-48.85l31.36 6.18h17.49zm-112.87-6.18l31.36 6.18h-128.3l-31.363-6.18h128.303zm-192.324 0l31.368 6.18H823.275l-31.367-6.18h128.298zm-192.319 0l31.368 6.18H630.956l-31.367-6.18h128.298zm-192.062 0l31.368 6.18H438.894l-31.367-6.18h128.298zm-192.319 0l31.368 6.18H246.575l-31.367-6.18h128.298z" fill="#fff"/></g><path fill-rule="evenodd" clip-rule="evenodd" d="M563.025 534.74c148.68 0 269.797-3.785 269.797-8.516s-121.275-8.516-269.797-8.516c-148.523 0-269.798 3.785-269.798 8.516-.157 4.574 121.118 8.516 269.798 8.516z" fill="#68667B" opacity=".75"/><path fill-rule="evenodd" clip-rule="evenodd" d="M623.505 433.967c26.46-.789 38.115 17.032 38.272 47.154 0 29.964-21.577 49.046-43.942 47.153-22.365-1.892-39.848-21.132-38.273-47.153 1.575-26.022 17.483-46.366 43.943-47.154z" fill="#231F20"/><path fill-rule="evenodd" clip-rule="evenodd" d="M635.002 439.644c13.703 0 24.57 14.825 26.617 34.695.158 2.208.158 4.416.158 6.782 0 25.863-16.065 45.892-34.65 46.68-14.017-2.838-23.94-21.448-22.995-43.842 1.102-24.444 14.963-44.315 30.87-44.315z" fill="#383431"/><path fill-rule="evenodd" clip-rule="evenodd" d="M635.16 445.164c12.915 0 25.199 16.086 22.364 39.741-2.835 23.656-14.804 33.592-26.144 34.853-11.34 1.42-22.838-16.086-21.893-35.956.788-19.714 12.758-38.638 25.673-38.638z" fill="#A7A9AC"/><path fill-rule="evenodd" clip-rule="evenodd" d="M635.002 450.526c11.183 0 21.578 13.878 19.215 34.222-2.362 20.344-12.758 28.86-22.523 29.964-9.765 1.104-19.53-13.878-18.742-30.91.63-17.032 10.867-33.276 22.05-33.276z" fill="#6D6E71"/><path fill-rule="evenodd" clip-rule="evenodd" d="M387.412 433.967c26.46-.789 38.115 17.032 38.273 47.154 0 29.964-21.578 49.046-43.943 47.153-22.365-1.892-39.847-21.132-38.272-47.153 1.575-26.022 17.482-46.366 43.942-47.154z" fill="#231F20"/><path fill-rule="evenodd" clip-rule="evenodd" d="M398.91 439.644c13.702 0 24.57 14.825 26.617 34.695.158 2.208.158 4.416.158 6.782 0 25.863-16.065 45.892-34.65 46.68-14.018-2.838-23.94-21.448-22.995-43.842 1.102-24.444 14.962-44.315 30.87-44.315z" fill="#383431"/><path fill-rule="evenodd" clip-rule="evenodd" d="M399.067 445.164c12.915 0 25.2 16.086 22.365 39.741-2.835 23.656-14.805 33.592-26.145 34.853-11.34 1.42-22.837-16.086-21.892-35.956.787-19.714 12.6-38.638 25.672-38.638z" fill="#A7A9AC"/><path fill-rule="evenodd" clip-rule="evenodd" d="M398.91 450.526c11.182 0 21.577 13.878 19.215 34.222-2.363 20.344-12.758 28.86-22.523 29.964-9.765 1.104-19.53-13.878-18.742-30.91.63-17.032 10.867-33.276 22.05-33.276z" fill="#6D6E71"/><path fill-rule="evenodd" clip-rule="evenodd" d="M426.945 506.511h316.417c13.703-1.893 53.393-3.785 67.095-5.677 16.538-60.244-27.562-76.645-58.747-92.1H412.297l-84.105 92.1c24.255 4.731 65.835 5.677 98.753 5.677z" fill="#58595B"/><path fill-rule="evenodd" clip-rule="evenodd" d="M511.207 433.967c26.46-.789 38.115 17.032 38.272 47.154 0 29.964-21.577 49.046-43.942 47.153-22.365-1.892-39.848-21.132-38.273-47.153 1.733-26.022 17.483-46.366 43.943-47.154z" fill="#231F20"/><path fill-rule="evenodd" clip-rule="evenodd" d="M522.704 439.644c13.703 0 24.57 14.825 26.618 34.695.157 2.208.157 4.416.157 6.782 0 25.863-16.065 45.892-34.65 46.68-14.017-2.838-23.94-21.448-22.995-43.842 1.103-24.444 14.963-44.315 30.87-44.315z" fill="#414042"/><path fill-rule="evenodd" clip-rule="evenodd" d="M522.862 445.164c12.915 0 25.2 16.086 22.365 39.741-2.835 23.656-14.805 33.592-26.145 34.853-11.34 1.42-22.838-16.086-21.893-35.956.945-19.714 12.758-38.638 25.673-38.638z" fill="#E2E3E4"/><path fill-rule="evenodd" clip-rule="evenodd" d="M522.862 445.164c7.402 0 14.647 5.204 18.9 14.036 1.26 5.204 1.575 11.039.787 17.505-2.835 23.182-14.805 32.802-26.145 34.222-6.772.788-13.702-5.047-17.955-14.036-1.102-4.258-1.575-8.831-1.417-13.563 1.102-19.555 12.915-38.164 25.83-38.164z" fill="#BCBEC0"/><path fill-rule="evenodd" clip-rule="evenodd" d="M517.349 499.099c-.472 4.416-.472 9.936-1.102 14.194 3.15 0 6.142-1.262 8.82-3.47-.158-3.785-2.993-8.043-6.3-11.197-.315-.315-.63-.315-.945-.158-.158 0-.473.316-.473.631zm7.088-8.989c.158 1.419 4.095 7.885 6.142 9.777.158.158.473.316.788.158.315 0 .472-.315.63-.473a46.416 46.416 0 002.677-8.989c.158-.473-.157-.789-.472-.946-3.623-1.42-6.773-1.42-9.135-.316-.472.158-.63.473-.63.789zm1.575-10.409c3.307.473 6.772.789 9.922 1.577.158-4.258-.157-8.043-.945-11.512-4.882 3.785-8.662 7.412-8.977 9.935zm-3.308-25.706l-1.575 12.144c0 .315.158.631.315.788.315.158.63.316.788.158 2.992-1.104 5.67-3.47 8.032-6.466a.763.763 0 000-1.104c-1.89-2.839-4.095-4.889-6.615-6.15-.315-.158-.63-.158-.787 0 .157.157 0 .315-.158.63zm-17.482 8.043l7.087 6.309c2.835-.474 5.513-14.667 2.363-15.298-5.198-.946-7.718 3.943-9.765 7.885 0 .474 0 .947.315 1.104zm-2.835 8.674c2.205 2.681 4.095 5.677 3.937 8.989-.157 3.627-3.78 5.204-6.457 6.939-.315.158-.63.158-.788 0-.315-.157-.472-.315-.472-.631-.63-4.258 1.26-11.354 2.362-14.982.158-.315.315-.473.63-.63.315-.158.63 0 .788.315zm3.465 37.061c3.78-5.204 4.725-8.674 3.15-15.298-1.26-1.577-5.355 2.366-8.348 4.258-.315.158-.472.631-.472.947.945 3.785 2.362 7.096 4.252 10.093a.868.868 0 00.788.473c.157 0 .315-.158.63-.473z" fill="#A7A9AC"/><path fill-rule="evenodd" clip-rule="evenodd" d="M517.192 500.676c-.315 4.1-.473 8.831-.945 12.459.63 0 1.102 0 1.575-.158 1.417-.631 2.835-1.419 4.252-2.523 0-3.154-2.205-6.782-4.882-9.778zm7.245-10.566c.158 1.261 2.993 6.15 5.198 8.674.787-2.208 1.574-4.732 2.047-7.57.157-.473-.157-.789-.472-.947-2.205-.946-4.41-1.261-6.3-1.104-.315.316-.473.631-.473.947zm1.575-10.409c2.362.316 4.725.631 6.93.946 0-3.154-.158-5.992-.63-8.673-3.465 2.996-5.985 5.677-6.3 7.727zm-3.308-24.602l-1.417 11.039c0 .316 0 .631.315.789 2.205-1.262 4.095-3.154 6.142-5.52a.763.763 0 000-1.104c-1.575-2.208-3.307-3.942-5.04-5.204zm-17.482 6.939l5.985 5.205c2.047-3.943 3.15-12.932.63-13.405-.473-.158-.945-.158-1.26-.158-2.52 1.419-4.095 4.573-5.513 7.254-.157.474-.157.947.158 1.104zm-6.615 24.287c0-.158-.158-.158-.158-.316-.472-3.785.788-9.462 1.89-13.247 1.733 2.366 3.15 5.047 2.993 7.728-.158 2.838-2.52 4.415-4.725 5.835zm7.245 6.781c-1.575 1.104-3.623 2.681-5.198 3.627-.315.158-.472.631-.472.947.945 3.469 2.205 6.623 3.78 9.462 2.835-4.416 3.465-7.728 2.047-13.72-.157-.158-.157-.316-.157-.316z" fill="#58595B"/><path fill-rule="evenodd" clip-rule="evenodd" d="M514.987 476.389c-1.26.789-2.048 2.997-2.048 5.52 0 3.154 1.418 5.677 3.308 5.835-.315.158-.788.316-1.103.316-1.89 0-3.307-2.524-3.307-5.836-.158-3.311 1.417-5.835 3.15-5.835z" fill="#A7A9AC"/><path fill-rule="evenodd" clip-rule="evenodd" d="M516.719 485.852c1.26 0 2.205-1.735 2.205-3.943s-.945-3.942-2.205-3.942c-1.26 0-2.205 1.734-2.205 3.942-.157 2.208.945 3.943 2.205 3.943z" fill="#A7A9AC"/><path fill-rule="evenodd" clip-rule="evenodd" d="M304.567 442.956c3.623-12.932 11.183-20.186 17.798-24.602 37.327-12.932 92.137-21.763 129.937-28.86 49.298-2.681 101.745-1.893 136.71 5.046-24.255 25.864-65.835-3.942-103.792 31.384 21.892 16.401-56.858 61.032-66.15 74.91H308.505c-.63-2.524-1.418-5.362-2.048-8.359h1.418c-.63-2.996-.945-5.993-1.575-8.674h-1.733c-2.52-13.878-3.622-29.963 0-40.845z" fill="#E2304D"/><path fill-rule="evenodd" clip-rule="evenodd" d="M766.83 433.967c26.46-.789 38.115 17.032 38.272 47.154 0 29.964-21.577 49.046-43.942 47.153-22.365-1.892-39.848-21.132-38.273-47.153 1.575-26.022 17.483-46.366 43.943-47.154z" fill="#231F20"/><path fill-rule="evenodd" clip-rule="evenodd" d="M778.327 439.644c13.703 0 24.57 14.825 26.618 34.695.157 2.208.157 4.416.157 6.782 0 25.863-16.065 45.892-34.65 46.68-14.017-2.838-23.94-21.448-22.995-43.842 1.103-24.444 14.963-44.315 30.87-44.315z" fill="#414042"/><path fill-rule="evenodd" clip-rule="evenodd" d="M778.485 445.164c12.915 0 25.2 16.086 22.365 39.741-2.835 23.656-14.805 33.592-26.145 34.853-11.34 1.42-22.838-16.086-21.893-35.956.945-19.714 12.758-38.638 25.673-38.638z" fill="#E2E3E4"/><path fill-rule="evenodd" clip-rule="evenodd" d="M778.485 445.164c7.402 0 14.647 5.204 18.9 14.036 1.26 5.204 1.575 11.039.787 17.505-2.835 23.182-14.805 32.802-26.145 34.222-6.772.788-13.702-5.047-17.955-14.036-1.102-4.258-1.575-8.831-1.417-13.563 1.102-19.555 12.915-38.164 25.83-38.164z" fill="#BCBEC0"/><path fill-rule="evenodd" clip-rule="evenodd" d="M772.972 499.099c-.472 4.416-.472 9.936-1.102 14.194 3.15 0 6.142-1.262 8.82-3.47-.158-3.785-2.993-8.043-6.3-11.197-.315-.315-.63-.315-.945-.158-.158 0-.473.316-.473.631zm7.088-8.989c.157 1.419 4.095 7.885 6.142 9.777.158.158.473.316.788.158.315 0 .472-.315.63-.473a46.416 46.416 0 002.677-8.989c.158-.473-.157-.789-.472-.946-3.623-1.42-6.773-1.42-9.135-.316-.473.158-.63.473-.63.789zm1.575-10.409c3.307.473 6.772.789 9.922 1.577.158-4.258-.157-8.043-.945-11.512-4.882 3.785-8.662 7.412-8.977 9.935zm-3.308-25.706l-1.575 12.144c0 .315.158.631.315.788.315.158.63.316.788.158 2.992-1.104 5.67-3.47 8.032-6.466a.763.763 0 000-1.104c-1.89-2.839-4.095-4.889-6.615-6.15-.315-.158-.63-.158-.787 0 .157.157 0 .315-.158.63zm-17.482 8.043l7.087 6.309c2.835-.474 5.513-14.667 2.363-15.298-5.198-.946-7.718 3.943-9.765 7.885-.158.474 0 .947.315 1.104zm-2.835 8.674c2.205 2.681 4.095 5.677 3.937 8.989-.157 3.627-3.78 5.204-6.457 6.939-.315.158-.63.158-.788 0-.315-.157-.472-.315-.472-.631-.63-4.258 1.26-11.354 2.362-14.982.158-.315.315-.473.63-.63.315-.158.63 0 .788.315zm3.465 37.061c3.78-5.204 4.725-8.674 3.15-15.298-1.26-1.577-5.355 2.366-8.348 4.258-.315.158-.472.631-.472.947.945 3.785 2.52 7.096 4.252 10.093a.868.868 0 00.788.473c.157 0 .315-.158.63-.473z" fill="#A7A9AC"/><path fill-rule="evenodd" clip-rule="evenodd" d="M772.815 500.676c-.315 4.1-.473 8.831-.945 12.459.63 0 1.102 0 1.575-.158 1.417-.631 2.835-1.419 4.252-2.523 0-3.154-2.205-6.782-4.882-9.778zm7.245-10.566c.157 1.261 2.992 6.15 5.197 8.674.788-2.208 1.575-4.732 2.048-7.57.157-.473-.158-.789-.473-.947-2.205-.946-4.41-1.261-6.3-1.104-.315.316-.472.631-.472.947zm1.575-10.409c2.362.316 4.725.631 6.93.946 0-3.154-.158-5.992-.63-8.673-3.465 2.996-5.985 5.677-6.3 7.727zm-3.308-24.602l-1.417 11.039c0 .316 0 .631.315.789 2.205-1.262 4.095-3.154 6.142-5.52a.763.763 0 000-1.104c-1.575-2.208-3.307-3.942-5.04-5.204zm-17.482 6.939l5.985 5.205c2.047-3.943 3.15-12.932.63-13.405-.473-.158-.945-.158-1.26-.158-2.52 1.419-4.095 4.573-5.513 7.254-.315.474-.157.947.158 1.104zm-6.615 24.287c0-.158-.158-.158-.158-.316-.472-3.785.788-9.462 1.89-13.247 1.733 2.366 3.15 5.047 2.993 7.728-.158 2.838-2.52 4.415-4.725 5.835zm7.087 6.781c-1.575 1.104-3.622 2.681-5.197 3.627-.315.158-.473.631-.473.947.945 3.469 2.205 6.623 3.78 9.462 2.835-4.416 3.465-7.728 2.048-13.72 0-.158 0-.316-.158-.316z" fill="#58595B"/><path fill-rule="evenodd" clip-rule="evenodd" d="M770.61 476.389c-1.26.789-2.048 2.997-2.048 5.52 0 3.154 1.418 5.677 3.308 5.835-.315.158-.788.316-1.103.316-1.89 0-3.307-2.524-3.307-5.836-.158-3.311 1.417-5.835 3.15-5.835z" fill="#A7A9AC"/><path fill-rule="evenodd" clip-rule="evenodd" d="M772.342 485.852c1.26 0 2.205-1.735 2.205-3.943s-.945-3.942-2.205-3.942c-1.26 0-2.205 1.734-2.205 3.942-.157 2.208.945 3.943 2.205 3.943z" fill="#A7A9AC"/><path fill-rule="evenodd" clip-rule="evenodd" d="M395.13 446.898c32.445-49.361 159.547-48.415 176.557-46.523-8.662-12.301-72.607-12.301-122.85-10.25 18.113-12.301 44.1-28.545 77.49-38.165 21.42-6.151 61.425-5.677 88.2-4.731 41.265 1.577 90.72 4.573 116.235 12.301 14.49 4.416 29.925 24.917 36.225 34.379 5.67 8.517 37.013 4.574 47.723 11.513 15.277 9.935 14.332 29.964 12.285 54.25 11.025 1.262 8.82 16.086-1.26 36.903-3.78 0-14.49 4.101-18.27 4.101 10.867-107.082-81.585-81.691-76.388 0H553.575c18.112-101.247-74.813-110.394-80.483 0h-38.745c-11.182-20.344 25.358-48.1-5.985-47.785-34.02.473-34.965-3.312-33.232-5.993z" fill="#EC5F6B"/><path fill-rule="evenodd" clip-rule="evenodd" d="M586.335 401.795c.315-6.624 14.647-26.337 33.704-40.373 3.15-2.365 9.765-4.573 19.53-5.046 26.933-1.419 48.668-.158 75.6 8.201 8.663 2.68 32.13 37.533 20.79 37.849-39.217.473-110.407-.631-149.624-.631z" fill="#E11E3E"/><path fill-rule="evenodd" clip-rule="evenodd" d="M451.042 474.655c-14.49 11.039-28.35 20.974-31.815 26.179H308.505c-.63-2.524-1.418-5.362-2.048-8.359h1.418c-.63-2.996-.945-5.993-1.575-8.674h-1.733l-1.417-8.989h147.892v-.157z" fill="#EC5F6B"/><path fill-rule="evenodd" clip-rule="evenodd" d="M320.79 452.734c21.893 0 39.109.157 68.985.157 2.677-7.412 10.08-17.663 20.632-25.233h-91.665c2.835 5.52 4.725 15.456 2.048 25.076z" fill="#58595B"/><path fill-rule="evenodd" clip-rule="evenodd" d="M316.537 422.77c34.02-.158 85.213-.322 107.231 0 25.894 0 34.94.846 39.124 5.03l-46.5-3.296h-101.43c.473-.63 1.103-1.104 1.575-1.734z" fill="#EC5F6B"/><path fill-rule="evenodd" clip-rule="evenodd" d="M435.45 481.594c-2.835 4.415-2.363 9.777-3.308 14.351H307.087l-.945-3.312h1.575c-.63-2.997-.945-5.993-1.575-8.674h-1.575c-.157-.631-.315-1.104-.315-1.735l131.198-.63z" fill="#58595B"/><path fill-rule="evenodd" clip-rule="evenodd" d="M308.347 495.629h136.868c2.835 0 5.197 1.262 5.197 2.681s-2.362 2.681-5.197 2.681H308.347c-2.835 0-5.197-1.262-5.197-2.681 0-1.577 2.362-2.681 5.197-2.681z" fill="#EC5F6B"/><path fill-rule="evenodd" clip-rule="evenodd" d="M303.307 454.784h92.453c2.205 0 4.095 1.892 4.095 4.1v13.878c0 2.208-1.89 4.1-4.095 4.1h-92.453c-2.205 0-4.095-1.892-4.095-4.1v-13.878c0-2.208 1.89-4.1 4.095-4.1z" fill="#E2304D"/><path fill-rule="evenodd" clip-rule="evenodd" d="M399.54 474.655c-.63 1.261-2.048 2.207-3.623 2.207h-92.61c-1.575 0-2.992-.946-3.622-2.207h99.855z" fill="#E11E3E"/><path fill-rule="evenodd" clip-rule="evenodd" d="M460.492 388.548c10.395-10.409 42.525-26.495 73.237-32.172 32.603-4.258 54.653-1.893 80.01 1.104-15.277 10.881-26.46 24.286-41.895 35.168-36.697-7.728-81.585-7.097-111.352-4.1z" fill="#EDFEFF"/><path fill-rule="evenodd" clip-rule="evenodd" d="M589.957 400.691c.315-6.15 14.017-24.444 32.13-37.534 2.992-2.208 9.293-4.258 18.585-4.731 25.673-1.262 46.463-.158 72.135 7.57 8.19 2.523 30.713 34.853 19.688 35.168-37.328.631-105.21-.473-142.538-.473z" fill="#82ADB1"/><path fill-rule="evenodd" clip-rule="evenodd" d="M589.957 400.691c.158-5.047 9.293-17.978 22.523-29.806 12.285 9.304 27.72 28.071 19.215 29.964-15.75 0-30.24-.158-41.738-.158zm53.392-42.423c24.413-1.104 44.73.158 69.458 7.728 5.67 1.735 18.113 17.663 21.735 27.441h-61.268c-5.985 0-13.702-4.889-16.852-11.04l-13.073-24.129z" fill="#C0D8DA"/><path fill-rule="evenodd" clip-rule="evenodd" d="M645.082 358.268c11.97-.473 22.837-.315 34.02.789l-20.633 42.107c-11.655-.158-23.309-.158-34.177-.315l20.79-42.581zm42.053 1.893c7.56 1.104 15.119 2.838 23.152 5.204l-17.64 35.957c-8.347 0-17.01 0-25.673-.158l20.161-41.003z" fill="#ABE1E1"/><path fill-rule="evenodd" clip-rule="evenodd" d="M299.212 458.096l72.765-.001 103.005.001v1.577h-175.77v-1.577z" fill="#EC5F6B"/><path fill-rule="evenodd" clip-rule="evenodd" d="M380.01 474.812h89.775l-2.363 6.308c-35.28-5.046-57.172-3.469-87.412-4.731v-1.577z" fill="#E11E3E"/><path fill-rule="evenodd" clip-rule="evenodd" d="M599.407 384.605l4.882 16.086h-14.49c.315-3.47 2.835-9.462 9.608-16.086z" fill="#576578"/><path fill-rule="evenodd" clip-rule="evenodd" d="M602.557 382.082h21.578c4.567 0 6.772 11.985 4.252 14.982-.63.631-1.418.788-2.363.946-6.3 1.104-18.427 2.839-24.097 1.419-8.033-2.05-5.985-9.62-1.89-16.086.63-.788 1.575-1.261 2.52-1.261z" fill="#EC5F6B"/><path fill-rule="evenodd" clip-rule="evenodd" d="M602.557 382.082h21.578c3.78 0 5.827 7.727 5.197 12.301-8.505.946-19.057 1.577-24.727.473-5.198-.946-7.245-3.312-7.245-5.993.63-1.892 1.575-3.627 2.835-5.52.472-.788 1.417-1.261 2.362-1.261zM383.16 461.88l88.2-2.207v1.577l-90.09 5.677 1.89-5.047zm33.705-38.795c19.53 0 41.052-2.07 46.777 4.889 29.925-11.828 71.978-14.667 110.093-16.874h244.282c-5.985-2.366-6.93-6.939-17.955-7.255-72.45-.473-171.99-.946-244.44-1.419-60.007 1.892-109.305 9.778-138.757 20.659zm-95.288 14.036H400.8v2.523h-79.223v-2.523z" fill="#E2304D"/><path fill-rule="evenodd" clip-rule="evenodd" d="M399.225 483.802h20.947a2.488 2.488 0 012.52 2.523v3.785a2.49 2.49 0 01-2.52 2.523h-20.947a2.49 2.49 0 01-2.52-2.523v-3.785c.157-1.42 1.26-2.523 2.52-2.523z" fill="#414042"/><path fill-rule="evenodd" clip-rule="evenodd" d="M402.69 483.802h17.482c1.26 0 2.363.946 2.363 2.05v3.311c0 1.104-1.103 2.051-2.52 2.051H402.69c-1.418 0-2.52-.947-2.52-2.051v-3.311c.157-1.104 1.102-2.05 2.52-2.05z" fill="#EEE6D4"/><path fill-rule="evenodd" clip-rule="evenodd" d="M402.69 483.802h17.482c1.26 0 2.363.946 2.363 2.05v.63H400.17v-.63c.157-1.104 1.102-2.05 2.52-2.05z" fill="#D2C8AD"/><path fill-rule="evenodd" clip-rule="evenodd" d="M304.725 483.802h15.435a2.49 2.49 0 012.52 2.523v3.785a2.49 2.49 0 01-2.52 2.523H306.3l1.26-1.577c1.26-1.419-.945-5.52-1.26-7.097l-1.575-.157z" fill="#414042"/><path fill-rule="evenodd" clip-rule="evenodd" d="M306.3 483.802h14.017c1.26 0 2.205.946 2.205 2.05v3.311c0 1.104-.945 2.051-2.205 2.051h-12.915c-.315-2.366-.63-4.889-1.102-7.412z" fill="#EEE6D4"/><path fill-rule="evenodd" clip-rule="evenodd" d="M306.3 483.802h14.017c1.26 0 2.205.946 2.205 2.05v.63h-15.75c-.157-.946-.315-1.734-.472-2.68z" fill="#D2C8AD"/><path fill-rule="evenodd" clip-rule="evenodd" d="M321.262 441.694c28.165-.63 57.595 0 75.758 0v2.523h-75.758v-2.523z" fill="#E2304D"/><path fill-rule="evenodd" clip-rule="evenodd" d="M665.557 356.849l5.67 44.473 7.56-.158-7.875-45.104-5.355.789z" fill="#E11E3E"/><path fill-rule="evenodd" clip-rule="evenodd" d="M667.447 355.745l5.985 47.469 7.403-.157-8.033-48.1-5.355.788z" fill="#EC5F6B"/><path fill-rule="evenodd" clip-rule="evenodd" d="M463.485 431.286c.787 13.089-16.538 18.293-26.618 19.082-11.182.788-21.262.946-33.075 0-2.047-.158-5.355-2.523-4.41-4.573 12.915-24.445 63.473-25.549 64.103-14.509zm-148.365-6.782c3.622 6.151 6.457 12.617 6.3 21.133 0 1.262-.63 2.365-1.733 3.154a5.966 5.966 0 01-4.095 1.104c-4.41-.315-8.505 0-12.757.946a38.67 38.67 0 011.732-7.885c2.205-7.57 5.67-13.563 10.553-18.452z" fill="#E11E3E"/><path fill-rule="evenodd" clip-rule="evenodd" d="M304.567 442.956c2.048-7.412 4.883-12.459 9.608-17.506 3.307 6.151 5.197 11.671 5.985 20.187.472 4.415-2.835 6.15-3.78 5.992-4.568-.315-9.135-1.577-13.545-.157.315-2.997.787-5.993 1.732-8.516z" fill="#EC5F6B"/><path fill-rule="evenodd" clip-rule="evenodd" d="M302.835 450.683c4.41-1.892 8.19-2.681 12.6-2.208 1.102.158 2.047-.157 2.835-.946.787-.788 1.102-1.577 1.26-2.681 0-7.57-2.048-13.089-4.883-18.609-5.512 6.308-9.607 16.086-11.812 24.444z" fill="#FFFCD5"/><path fill-rule="evenodd" clip-rule="evenodd" d="M303.307 447.845c4.41-1.735 8.663-1.42 13.388-.789 1.102.158 1.575 0 2.362-.788.788-.789.315-2.051.315-3.155.158-7.727-2.205-12.143-4.882-16.874-5.198 5.52-8.82 10.882-11.183 21.606z" fill="#EEE6D4"/><path fill-rule="evenodd" clip-rule="evenodd" d="M319.372 440.59c-.945-5.519-2.992-10.881-5.197-14.982-3.308 3.312-5.828 7.097-8.033 12.775 4.253.946 8.19 1.734 13.23 2.207z" fill="#D2C8AD"/><path fill-rule="evenodd" clip-rule="evenodd" d="M318.742 435.701c.63 3.154.788 6.624.473 10.093-.63.631-1.418 1.104-2.205 1.262-.788-.158-1.418-.158-2.205-.315-2.363-1.104-4.095-4.416-4.095-8.516 0-4.732 2.205-8.517 5.197-8.832 1.103 2.05 2.048 4.1 2.835 6.308z" fill="#fff"/><path fill-rule="evenodd" clip-rule="evenodd" d="M316.38 432.074c.315 0 .63 0 .945.158.472 1.104.945 2.365 1.417 3.469.315 2.05.63 4.258.63 6.624-.787 1.419-1.89 2.208-2.992 2.208-2.205 0-3.938-2.839-3.938-6.309 0-3.311 1.733-6.15 3.938-6.15z" fill="#DAD9D4"/><path fill-rule="evenodd" clip-rule="evenodd" d="M322.875 458.075l52.902.005c1.992-.011 3.696 1.575 3.759 3.719l-.079 11.021c.012 1.994-1.72 3.749-3.713 3.76l-52.901-.005c-1.993.011-3.697-1.575-3.76-3.719l.08-11.021c.085-2.194 1.669-3.898 3.712-3.76z" fill="#EAEEF0"/><path fill-rule="evenodd" clip-rule="evenodd" d="M324.179 459.464l49.913.022c1.494-.008 2.795.882 3.201 2.076-.65-.445-1.399-.69-2.246-.735l-49.913-.022c-1.844-.04-3.528 1.366-3.468 3.011l.009 9.325c-.047.349.105.797.206 1.096-.701-.595-1.155-1.44-1.11-2.288l-.009-9.325c.038-1.845 1.573-3.2 3.417-3.16z" fill="#B2C7CF"/><path fill-rule="evenodd" clip-rule="evenodd" d="M611.534 359.057c-14.175 10.566-24.885 23.183-39.532 33.433-36.855-7.569-81.743-6.939-111.51-4.1 34.65-20.344 109.147-34.537 151.042-29.333z" fill="#ADE3E3"/><path fill-rule="evenodd" clip-rule="evenodd" d="M572.002 392.49c-.63-.157-1.103-.157-1.733-.315l-1.732-.316c-1.103-.157-2.363-.473-3.465-.63h-.158l-1.732-.316h-.158l-1.732-.315c-1.103-.158-2.048-.316-3.15-.473h-.788l-3.307-.473-1.575-.158-1.575-.158h-.158l-1.26-.157-.787-.158-1.575-.158h-.158c-1.102-.158-2.362-.315-3.465-.315h-.157l-1.103-.158h-.787l-1.103-.158h-.63l-1.26-.157h-.472l-1.733-.158c-1.732-.158-3.465-.316-5.197-.316h-35.123c-1.732 0-3.307 0-4.882.158h-.315c-1.103 0-2.048 0-3.15.158h-.158c-1.102 0-2.205 0-3.15.158-8.347.315-16.065.946-22.995 1.577 17.798-8.201 46.463-16.402 74.025-20.817 25.515-2.839 47.565-3.312 68.04-2.366-10.237 7.885-19.53 17.663-31.342 26.021z" fill="#9AC7C7"/><path fill-rule="evenodd" clip-rule="evenodd" d="M724.619 497.206l-166.95-.473-.472-5.046 167.895-.631-.473 6.15z" fill="#E2304D"/><path fill-rule="evenodd" clip-rule="evenodd" d="M589.957 400.691c6.3 29.648 6.93 71.913-.63 100.143h77.332c11.34-18.767 20.79-40.058 22.523-69.548 1.102-13.09-7.718-23.814-16.38-30.28l-82.845-.315z" fill="#E11E3E"/><path fill-rule="evenodd" clip-rule="evenodd" d="M591.375 401.006c6.615 27.441 8.032 69.706-.473 99.828h73.553c8.505-30.437 24.727-88.631 6.93-99.512l-80.01-.316z" fill="#EC5F6B"/><path fill-rule="evenodd" clip-rule="evenodd" d="M593.422 411.099h87.255c-2.205-2.996-4.568-5.519-7.245-7.727l-81.743-.789c.473 2.366 1.103 5.362 1.733 8.516z" fill="#6EB8C0"/><path fill-rule="evenodd" clip-rule="evenodd" d="M672.96 400.849c16.065 18.924 1.417 67.024-8.505 99.985h61.267c-3.465-33.434 10.238-58.194 26.933-69.864 1.102-12.774-7.403-23.34-15.75-29.806l-63.945-.315z" fill="#E11E3E"/><path fill-rule="evenodd" clip-rule="evenodd" d="M673.59 401.322c16.695 13.72 3.465 66.394-6.93 99.512h57.172c-3.465-33.434 9.923-58.194 26.775-69.864 1.103-12.774-7.402-23.34-15.75-29.806H673.59v.158z" fill="#EC5F6B"/><path fill-rule="evenodd" clip-rule="evenodd" d="M554.397 429.987h195.77c0 .474-4.27 4.527-4.27 5l-110.453-3.423h-81.047v-1.577z" fill="#E2304D"/><path fill-rule="evenodd" clip-rule="evenodd" d="M672.96 420.089l.315 1.261c.63 2.366-.945 4.258-3.15 4.258h-7.56c-2.363 0-4.725-1.892-5.198-4.258l-.315-1.261h15.908z" fill="#E11E3E"/><path fill-rule="evenodd" clip-rule="evenodd" d="M653.902 416.619h18.9c.472 0 1.103.473 1.103.946l.472 1.735c.157.473-.157.946-.63.946h-18.9c-.472 0-1.102-.473-1.102-.946l-.473-1.735c-.157-.63.158-.946.63-.946z" fill="#E2304D"/><path fill-rule="evenodd" clip-rule="evenodd" d="M741.157 420.089l.315 1.261c.63 2.366-.945 4.258-3.15 4.258h-7.56c-2.362 0-4.725-1.892-5.197-4.258l-.315-1.261h15.907z" fill="#E11E3E"/><path fill-rule="evenodd" clip-rule="evenodd" d="M722.1 416.619H741c.472 0 1.102.473 1.102.946l.473 1.735c.157.473-.158.946-.63.946h-18.9c-.473 0-1.103-.473-1.103-.946l-.472-1.735c-.158-.63.157-.946.63-.946zm-42.525-5.52h64.89c-2.048-2.838-4.568-5.519-7.088-7.727-20.16-.158-41.107-.158-61.897-.316 1.732 2.051 3.15 4.732 4.095 8.043zm-86.153 0h84.735c-.63-3.785-2.363-5.992-4.725-8.043-28.035-.157-55.913-.315-81.743-.473.63 2.681 1.26 5.52 1.733 8.516zm130.095 86.107l-55.755-.157c.63-1.893 1.103-3.785 1.733-5.835l53.707-.158c.158 2.05.158 4.1.315 6.15zm-58.117-.157l-73.553-.158c.473-1.735.787-3.47 1.26-5.362l74.025-.315c-.63 2.05-1.26 3.942-1.732 5.835zm142.537-35.642H822.9c6.615 1.262 8.977 3.47 9.607 5.362l-22.68 2.051-1.89-7.413z" fill="#E2304D"/><path fill-rule="evenodd" clip-rule="evenodd" d="M463.485 430.97c.63 12.459-15.908 17.506-25.515 18.136-10.71.789-20.318.947-31.658 0-2.047-.157-5.197-2.523-4.095-4.415 12.285-23.341 60.638-24.287 61.268-13.721z" fill="#58595B"/><path fill-rule="evenodd" clip-rule="evenodd" d="M464.141 430.695c.744 12.396-15.927 17.405-25.564 18.245-10.694.862-20.413 1.139-31.847.254-2.045-.097-5.332-2.355-4.244-4.282 12.141-23.391 60.946-24.852 61.655-14.217z" fill="#FFFCD5"/><path fill-rule="evenodd" clip-rule="evenodd" d="M464.141 430.695c.11 1.972-.206 3.742-.875 5.519-4.728 6.66-15.941 9.719-23.33 10.229-10.694.862-20.413 1.139-31.847.254-1.835-.173-4.906-2.153-4.379-3.998 13.944-21.313 59.73-22.286 60.431-12.004z" fill="#EEE6D4"/><path fill-rule="evenodd" clip-rule="evenodd" d="M464.141 430.695c.014.705.028 1.41-.025 2.257-8.936 4.139-21.85 6.741-36.365 6.838-7.186.083-14.034-.548-20.185-1.545 17.065-16.866 55.962-16.917 56.575-7.55z" fill="#D2C8AD"/><path fill-rule="evenodd" clip-rule="evenodd" d="M464.141 430.695c.552 9.861-9.914 15.021-19.103 17.12 1.166-5.032 3.315-10.296 6.1-15.433 1.427-2.64 3.138-5.145 4.856-7.297 4.742 1.027 8.022 2.932 8.147 5.61z" fill="#FBD55B"/><path fill-rule="evenodd" clip-rule="evenodd" d="M464.141 430.695c.11 1.972-.206 3.742-.875 5.519-3.632 5.085-10.971 8.062-17.567 9.471 1.181-4.327 3.066-8.669 5.514-13.093 1.426-2.64 3.137-5.145 4.856-7.297 4.667.817 7.947 2.722 8.072 5.4z" fill="#F58220"/><path fill-rule="evenodd" clip-rule="evenodd" d="M464.141 430.695c.014.705.028 1.409-.025 2.257a68.127 68.127 0 01-15.479 4.702c.811-1.71 1.623-3.42 2.643-5.205 1.427-2.64 3.138-5.145 4.856-7.297 4.6.96 7.88 2.865 8.005 5.543z" fill="#D7662C"/><path fill-rule="evenodd" clip-rule="evenodd" d="M433.653 428.451c3.312.001 6.005 4.245 6.112 9.532-.035 5.22-2.625 9.577-5.937 9.577-3.312 0-6.005-4.245-6.112-9.532.035-5.22 2.625-9.577 5.937-9.577z" fill="#fff"/><path fill-rule="evenodd" clip-rule="evenodd" d="M433.71 431.271c2.255.023 4.358 2.94 4.294 6.75.004 3.667-1.835 6.809-4.233 6.719-2.256-.022-4.358-2.94-4.294-6.749.064-3.81 1.977-6.742 4.233-6.72z" fill="#DAD9D4"/><path fill-rule="evenodd" clip-rule="evenodd" d="M210.195 368.02l-1.715-8.4c7.92-4.866 11.759-8.657 15.318-17.484 6.611-7.564 6.298-18.24 5.597-28.36-.683-9.847-2.882-23.8-7.54-33.054l7.388 3.37c13.204 38.248 11.436 34.144 7.912 49.848-3.59 15.848 1.643 8.444-26.96 34.08z" fill="#8D533B"/><path fill-rule="evenodd" clip-rule="evenodd" d="M206.397 474.019c36.371 0 66-2.007 66-4.516s-29.667-4.516-66-4.516-66 2.007-66 4.516c-.038 2.426 29.629 4.516 66 4.516z" fill="#68667B" fill-opacity=".5" opacity=".75"/><path fill-rule="evenodd" clip-rule="evenodd" d="M217.419 470.067h-29.578c-2.674 0-4.595-2.574-3.835-5.138l5.111-17.223 1.758-29.529 4.179-25.687 6.93 10.903 4.095-5.871 7.402 5.032 3.938 67.513zm-17.469-115.11c-36.773-31.482-21.602-21.801-25.294-38.026-7.034-20.677-1.535-34.631 5.85-48.92l5.816 4.73c-6.262 12.205-8.233 27.925-5.113 41.985 3.119 14.061-6.078 9.699 21.645 32.726l-2.904 7.505z" fill="#AA7244"/><path fill-rule="evenodd" clip-rule="evenodd" d="M224.494 467.067a3 3 0 01-3 3h-12.58l3.78-31.852-6.615-40.693 6.615 5.032h6.615v20.193l5.185 31.638v12.682z" fill="#8D533B"/><path fill-rule="evenodd" clip-rule="evenodd" d="M212.351 361.484c-53.719 2.219-34.035-.974-47.854-13.044-13.819-12.071-17.218 10.87-25.502-51.449l8.488-.796c2.988 57.494 10.096 33.712 21.759 44.25 11.767 10.311 1.018 15.458 40.973 11.278l2.136 9.761z" fill="#AA7244"/><path fill-rule="evenodd" clip-rule="evenodd" d="M218.82 402.702l-11.334 4.782-4.286 2.773-5.035-8.604-3.791-2.701 6.576-160.555 13.831.056 4.039 164.249z" fill="#AA7244"/><path fill-rule="evenodd" clip-rule="evenodd" d="M219.339 403.075l-11.67 4.376 6.749-21.999-5.348-18.31-2.798-39.468 6.29-29.491-2.274-60.24 6.276-.057 2.775 165.189zm11.584-55.334l5.234-17.863c29.113-2.202 66.801-23.394 71.311-37.707 4.509-14.313 3.932-30.758-1.526-44.019l3.05-2.071c8.019 4.604 12.653 33.955 3.95 51.241-10.127 20.111-18.248 28.367-82.019 50.419z" fill="#8D533B"/><path fill-rule="evenodd" clip-rule="evenodd" d="M317.649 191.541c11.706.07 18.554 14.356 15.135 31.968-3.418 17.612-15.635 31.797-27.35 31.95-11.706-.069-18.554-14.356-15.135-31.967 3.311-17.727 15.644-32.021 27.35-31.951z" fill="#7CC076"/><path fill-rule="evenodd" clip-rule="evenodd" d="M329.983 233.225c-5.256 12.865-15.07 22.227-24.549 22.234-11.483-.062-18.232-14.01-15.275-31.192 5.256-12.865 15.07-22.227 24.549-22.234 11.484.062 18.233 14.01 15.275 31.192z" fill="#A1E79B"/><path fill-rule="evenodd" clip-rule="evenodd" d="M343.931 217.426c8.229 3.741 8.574 15.907.586 27.228-7.882 11.437-20.925 17.565-29.27 13.932-8.229-3.741-8.574-15.907-.586-27.228 7.989-11.321 21.032-17.45 29.27-13.932z" fill="#BAFCB4"/><path fill-rule="evenodd" clip-rule="evenodd" d="M284.591 181.789c3.892-4.014 6.172-9.748 6.166-16.746.205-16.057-11.427-33.356-27.189-41.796 2.078-3.196 3.378-7.291 3.389-12.062.146-12.719-8.2-26.416-19.72-33.612 3.489-18.214-13.118-37.935-39.587-37.935-15.304-5.087-18.899 31.857-24.911 44.633-15.94-13.695-38.269-5.192-34.791 36.425-26.853 7.279-23.359 47.689-19.183 79.308-42.038-12.455-50.783 80.846 7.784 107.949 12.797 10.894 38.47 7.612 53.892 12.782 15.304 5.086 67.757 6.769 76.516-24.705 0 0 39.042-3.99 23.8-49.836 10.673-16.405 22.247-39.443-6.166-64.405z" fill="#7CC076"/><path fill-rule="evenodd" clip-rule="evenodd" d="M143.27 303.38l.118.083.118.084.118.083.118.083.118.083.118.083.118.083.235.167.118.083.236.166.118.084.471.332.354.25c.236.166.589.416.77.66l.354.249.707.499.118.084.59.415.117.084c13.081 3.984 30.227-2.176 41.512-3.655 18.06 4.934 35.028-.345 43.205-15.439a25.961 25.961 0 002.038-4.39c16.99-14.821 24.63-33.907 19.996-43.355 3.155-1.97 5.76-4.911 7.712-8.429 7.692-14.154 1.962-35.564-12.628-50.171-.087-.877-.174-1.755-.379-2.715-.909-6.47-2.91-12.893-5.767-19.105 3.892-4.014 6.172-9.749 6.166-16.747.205-16.056-11.427-33.355-27.19-41.795 2.134-3.274 3.379-7.291 3.39-12.062.145-12.719-8.2-26.416-19.721-33.612-1.332-5.37-.421-11.507-3.12-16.441-23.354 8.303-23.354 25.949-19.257 31.89-23.818-5.422-48.211 18.163-35.957 49.46-26.853 7.278-44.95 32.308-28.31 62.897-39.994 14.043-35.217 92.833 23.296 120.014z" fill="#A1E79B"/><path fill-rule="evenodd" clip-rule="evenodd" d="M162.848 230.04c-7.437-2.74-7.316-16.572.349-30.873 7.656-14.436 20.041-23.931 27.479-21.191 7.438 2.74 7.316 16.572-.349 30.874-7.665 14.301-19.929 23.891-27.479 21.19zm31.054-70.986c-2.824-3.106-1.798-10.407 2.37-16.316 4.169-5.908 9.882-8.228 12.8-5.115 2.823 3.105 1.798 10.407-2.371 16.315-4.168 5.908-9.881 8.228-12.799 5.116zm-44.568 32.353c-8.197-.676-16.333-12.454-18.2-26.446-1.867-13.992 3.167-24.805 11.365-24.13 8.108.563 16.333 12.454 18.2 26.446 1.868 13.992-3.167 24.806-11.365 24.13zm26.888-49.62c-6.334-3.534-10.997-17.206-10.35-30.508.593-13.436 6.314-21.46 12.649-17.927 6.335 3.534 10.997 17.206 10.35 30.509-.647 13.302-6.247 21.433-12.649 17.926zm47.751 96.555c-6.297-2.429-7.638-12.307-3.048-22.124 4.59-9.817 13.349-15.815 19.646-13.386 6.296 2.429 7.638 12.307 3.048 22.124-4.542 9.73-13.349 15.815-19.646 13.386zm-45.675 52.507c-12.577 9.532-36.057 1.033-52.458-18.874-16.401-19.907-18.866-26.502-6.289-36.034 12.577-9.531 41.522-7.909 35.59 15.818 28.67 0 35.709 29.651 23.157 39.09z" fill="#BAFCB4"/><path d="M456.196 422.056s-7.359-.305-7.803-.657c-.444-.353-2.405-7.444-2.405-7.444s-.3 7.475-.646 7.926c-.347.451-7.329 2.442-7.329 2.442s7.249.217 7.68.469c.444.352 2.528 7.632 2.528 7.632s.3-7.475.647-7.926c.248-.439 7.328-2.442 7.328-2.442zm-5.644 23.834s2.5-2.72 2.778-2.776c.279-.056 3.63 1.489 3.63 1.489s-2.766-2.535-2.827-2.814c-.06-.278 1.438-3.597 1.438-3.597s-2.43 2.706-2.666 2.79c-.279.056-3.742-1.503-3.742-1.503s2.766 2.535 2.826 2.814c.088.237-1.437 3.597-1.437 3.597z" fill="#F6F6F5"/><path fill-rule="evenodd" clip-rule="evenodd" d="M722.397 485.987l-160-.373v-1.493l160-10.134v12z" fill="#fff" opacity=".65"/><path fill-rule="evenodd" clip-rule="evenodd" d="M580.1 623.543c33.495 0 60.781-3.058 60.781-6.88 0-3.823-27.321-6.881-60.781-6.881-33.46 0-60.782 3.058-60.782 6.881-.035 3.695 27.286 6.88 60.782 6.88z" fill="#68667B" opacity=".5"/><path fill-rule="evenodd" clip-rule="evenodd" d="M615.648 594.045c2.948-.31 5.451 2.041 6.095 4.934 1.423 6.389 4.91 9.441 4.156 15.494-.265 2.135-2.274 3.502-4.426 3.502h-10.062c-.17-.001-33.851-.114-34.667-3.372-.635-2.537.334-4.06 1.661-5.283.747-.689 1.744-1.017 2.755-1.119 3.308-.336 7.387-1.168 11.29-2.304a4.805 4.805 0 001.121-.492c9.003-5.423 4.078-4.962 8.777-9.043.66-.573 1.487-.913 2.352-1.031 3.56-.484 7.257-.897 10.948-1.286z" fill="#F4F4F4"/><path fill-rule="evenodd" clip-rule="evenodd" d="M615.648 592.16c2.948-.31 5.451 2.041 6.095 4.935 1.423 6.388 4.91 9.44 4.156 15.493-.265 2.135-2.274 3.502-4.426 3.502h-10.062c-.17 0-33.851-.114-34.667-3.371-.635-2.538.334-4.06 1.661-5.284.747-.688 1.744-1.016 2.755-1.119 3.308-.336 7.387-1.168 11.29-2.303a4.85 4.85 0 001.121-.493c9.003-5.423 4.078-4.962 8.777-9.043.66-.573 1.487-.913 2.352-1.031 3.56-.484 7.257-.897 10.948-1.286z" fill="#3B4451"/><path fill-rule="evenodd" clip-rule="evenodd" d="M621.536 591.589c.554 9.318 4.804 14.382 3.88 21.674l-10.347-11.779-14.966-3.77c1.478-2.228 2.956-2.479 5.358-4.504l9.608-1.013 6.467-.608z" fill="#1B1C1E"/><path fill-rule="evenodd" clip-rule="evenodd" d="M573.242 593.103c2.949-.311 5.451 2.04 6.096 4.934 1.423 6.388 4.909 9.44 4.156 15.493-.266 2.135-2.275 3.502-4.426 3.502h-10.063c-.17 0-33.851-.114-34.667-3.371-.635-2.538.334-4.06 1.661-5.283.747-.689 1.744-1.017 2.755-1.12 3.308-.336 7.387-1.168 11.29-2.303.39-.113.774-.283 1.121-.493 9.003-5.422 4.078-4.962 8.778-9.043.659-.572 1.487-.913 2.352-1.031 3.559-.484 7.256-.896 10.947-1.285z" fill="#F4F4F4"/><path fill-rule="evenodd" clip-rule="evenodd" d="M573.242 591.218c2.949-.311 5.451 2.04 6.096 4.934 1.423 6.388 4.909 9.44 4.156 15.493-.266 2.135-2.275 3.503-4.426 3.503h-10.063c-.17-.001-33.851-.115-34.667-3.372-.635-2.537.334-4.06 1.661-5.283.747-.689 1.744-1.017 2.755-1.12 3.308-.335 7.387-1.168 11.29-2.303.39-.113.774-.283 1.121-.493 9.003-5.422 4.078-4.962 8.778-9.043.659-.572 1.487-.913 2.352-1.03 3.559-.485 7.256-.897 10.947-1.286z" fill="#3B4451"/><path fill-rule="evenodd" clip-rule="evenodd" d="M579.13 590.646c.554 9.318 4.804 14.382 3.88 21.675l-10.347-11.78-14.966-3.769c1.479-2.228 2.957-2.479 5.359-4.505l9.607-1.013 6.467-.608z" fill="#1B1C1E"/><path fill-rule="evenodd" clip-rule="evenodd" d="M558.617 437.739s-20.233 23.47-18.598 77.962c5.089 36.309 19.075 78.862 19.075 78.862l21.232-1.225s-16.599-44.779-18.234-73.556c-1.635-29.797 13.079-52.45 14.101-53.063 1.84-1.224 8.278 0 8.278 0s6.471 26.736 9.333 53.88c3.27 30.613 7.142 74.702 7.346 75.518.204 1.429 19.018 0 19.018 0s-.239-42.66-2.895-76.13c-2.862-35.92-2.044-74.901-1.84-81.024.205-12.041-56.816-1.224-56.816-1.224z" fill="#58595B"/><path fill-rule="evenodd" clip-rule="evenodd" d="M573.916 593.615l5.927-.612s-7.328-52.772-17.751-73.424c7.766-21.283 18.734-52.451 19.755-53.064 1.84-1.224 4.509 0 4.509 0 10.218 15.919 18.859 34.287 21.515 59.798 2.453 23.267 7.971 59.6 10.628 70.008 2.452-.204 4.292-.408 4.292-.408s-1.635-45.77-4.292-79.241c0-37.223 0-57.483-3.27-77.709-16.554-1.224-45.371 4.286-45.371 4.286s-11.689 40.441-19.699 70.125c5.654 20.261 17.012 67.179 23.757 80.241z" fill="#3F4144"/><path fill-rule="evenodd" clip-rule="evenodd" d="M558.256 293.57c.553 10.98 9.545 21.683 20.75 21.822 11.206.139 15.305-10.842 15.443-21.822.138-10.981 2.403-22.1-8.802-22.239-11.344-.139-28.775-3.058-27.391 22.239z" fill="#E8A476"/><path fill-rule="evenodd" clip-rule="evenodd" d="M563.462 272.831c-2.086 3.348-1.669 10.883-1.252 18.138.557 11.022 8.624 22.603 19.891 22.324 4.591-.14 9.042-2.651 11.128-4.186-3.616 4.186-9.18 5.869-18.36 7.538-7.094 2.504-9.597-2.559-12.659-7.214-5.957-9.06-1.686-12.327-5.455-17.039-4.712-10.837-2.827-12.25 6.707-19.561z" fill="#F1B287"/><path fill-rule="evenodd" clip-rule="evenodd" d="M598.654 325.11c.362 2.711-9.469 3.795-12.908 4.157-3.439.361-6.516-1.446-6.878-4.157l-.905-7.772c-.362-2.711 2.353-5.242 5.792-5.603 3.439-.362 8.919-8.861 9.281-6.15l5.618 19.525z" fill="#E8A476"/><path fill-rule="evenodd" clip-rule="evenodd" d="M600.242 284.053s-3.226 9.722-6.735 22.946c-1.681.421-3.07 3.269-12.722 3.269-1.651-7.324-5.183-13.224-8.002-16.573-6.677-5.425-4.159 3.349-6.556 3.349-.981.562-5.588-14.061-11.078-15.033-5.167-10.369-3.638-9.095-.416-12.215 25.836-13.61 44.246-2.726 45.509 14.257z" fill="#6D2132"/><path fill-rule="evenodd" clip-rule="evenodd" d="M572.171 289.672c1.998.704 2.902 3.043 2.034 5.262-.868 2.22-3.413 5.934-5.411 5.23-1.998-.704-2.577-5.225-1.813-7.498.931-2.344 3.191-3.698 5.19-2.994z" fill="#F1B287"/><path fill-rule="evenodd" clip-rule="evenodd" d="M572.386 295.417a1.52 1.52 0 00.44-.559c.506-.994.392-2.305-.412-3.184-.185-.25-.433-.377-.681-.503-.994-.506-2.303-.389-3.119.291-.251.186-.316.622-.131.873.185.25.621.316.871.13.502-.371 1.188-.491 1.685-.238.124.063.248.126.309.314.494.564.49 1.188.236 1.686l-.189.373c-.251.185-.193.684-.008.935.373.19.748.067.999-.118z" fill="#EE7660"/><path d="M555.209 289.111c-.164-.385 2.423.833 3.798 2.907.158.538-1.924-.177-2.844-.222-.518-.029-.996-2.209-.954-2.685z" fill="#6D2132"/><path fill-rule="evenodd" clip-rule="evenodd" d="M588.38 349.285c8.583 0 15.736-3.266 15.736-7.143 0-3.878-6.948-7.143-15.736-7.143-8.789 0-15.737 3.265-15.737 7.143 0 3.877 6.948 7.143 15.737 7.143z" fill="#335766"/><path fill-rule="evenodd" clip-rule="evenodd" d="M539.125 421.329c-4.496 4.898-6.744 4.286-10.218 7.143-.205-.408-.409-.612-.409-1.021-3.27-2.245-5.518-5.102-5.927-8.571 2.453-1.633 4.088-1.837 6.131-4.286 0-.817.409-6.123.613-5.919.409.204 3.884-.816 5.519.612 1.43 1.225 3.065 2.45 4.904 2.041l4.905 6.735-5.518 3.266z" fill="#E8A476"/><path fill-rule="evenodd" clip-rule="evenodd" d="M529.724 415.818c-.409-.816-1.839-2.449-2.044-4.081-.204-1.225-.613-2.245 1.635-3.674 0 0 3.27-1.021 5.11.204 9.605 6.735-1.84 7.551-4.701 7.551z" fill="#E8A476"/><path fill-rule="evenodd" clip-rule="evenodd" d="M519.301 409.9s1.635 2.653 7.562 2.245c1.226 0 .204-3.266 6.54-4.286-1.226-.612-1.635-.204-6.949.408-4.496.612-8.992-.204-7.153 1.633zm-1.226 21.633c.613-2.449 6.335-4.286 7.357-4.694 1.022-.408 4.088 1.837 4.088 1.837s-.613.408-5.723 2.041c-3.883.816-6.131 3.061-5.722.816z" fill="#F1B287"/><path fill-rule="evenodd" clip-rule="evenodd" d="M537.286 415.206c4.087 0 3.27 4.286 2.044 5.919-2.657 3.265-8.175 6.735-10.015 7.551-.204-1.224-3.474-1.02-3.678-2.041 5.313-3.673 6.744-11.225 11.649-11.429z" fill="#F1B287"/><path fill-rule="evenodd" clip-rule="evenodd" d="M584.292 410.307c-11.656 9.999-26.373 15.851-33.441 18.275-2.371.812-4.891-.407-5.865-2.717l-4.319-10.243c-1.152-2.733.298-5.873 3.101-6.843 8.658-2.995 25.482-9.455 30.714-16.023 7.153-8.98 13.693-20.613 12.671-27.756-.292-2.335 11.635-2.792 18.461-2.863 2.615-.027 4.693 2.022 4.385 4.619-.978 8.234-5.491 26.226-25.707 43.551z" fill="#3E678C"/><path fill-rule="evenodd" clip-rule="evenodd" d="M547.431 419.801c-2.46 1.02-5.242-.191-6.287-2.64l-.651-1.527c-1.167-2.735.282-5.889 3.093-6.862 8.664-2.999 25.464-9.453 30.692-16.016 7.153-8.98 13.693-20.613 12.671-27.756-.131-1.043 2.239-1.669 5.511-2.092 3.15-.407 5.726 2.4 4.918 5.472-2.476 9.416-8.703 23.115-24.326 36.417-8.274 6.913-18.081 11.876-25.621 15.004z" fill="#4C7BA6"/><path fill-rule="evenodd" clip-rule="evenodd" d="M615.652 338.568c11.308 30.626-3.298 49.002-1.752 98.475 0 0-19.451 5.654-36.857 3.712-16.306.472-22.421-6.068-22.421-6.068s4.28-73.136 4.28-73.607c0-.472-4.28-16.03-4.28-16.03-1.223-3.536 6.726-20.508 29.555-22.629 22.829-2.358 29.641 5.303 31.475 16.147z" fill="#3E678C"/><path fill-rule="evenodd" clip-rule="evenodd" d="M554.862 342.091l-.613-2.041c-1.226-3.062-1.303-12.173 29.634-19.593 16.824-4.035 25.956 4.49 28 12.245-12.467.817-24.73-.612-37.401.205-9.401.612-11.445 5.714-13.284 4.694-.818 1.632-3.475 3.469-6.336 4.49z" fill="#4C7BA6"/><path fill-rule="evenodd" clip-rule="evenodd" d="M514.396 429.288c0-2.653 6.949-6.326 7.971-7.143 1.022-.612 5.313 1.021 5.313 1.021s2.044 0-6.131 3.673c-4.7 1.837-7.153 4.898-7.153 2.449z" fill="#E8A476"/><path fill-rule="evenodd" clip-rule="evenodd" d="M514.6 424.799c.409-2.654 7.562-5.715 8.584-6.327 1.226-.613 5.11 1.428 5.11 1.428s2.043.204-6.54 3.062c-4.701 1.632-7.358 4.49-7.154 1.837z" fill="#E8A476"/><path fill-rule="evenodd" clip-rule="evenodd" d="M482.309 425.206c0 1.021.818 1.837 2.044 1.837a1.83 1.83 0 001.839-1.837 1.83 1.83 0 00-1.839-1.836c-1.226 0-2.044.816-2.044 1.836z" fill="#A39999"/><path d="M520.45 451.062l-1.642 30.49a3 3 0 002.834 3.156l50.337 2.704a3 3 0 003.157-2.835l1.642-30.489a3 3 0 00-2.834-3.157l-50.337-2.704a3.002 3.002 0 00-3.157 2.835z" fill="#fff"/><path d="M532.297 456.491l-1.12 20.788 2.653.143 1.121-20.788-2.654-.143zm3.809.129l-1.119 20.787 2.653.143 1.119-20.788-2.653-.142zm3.81.128l-1.119 20.788 2.653.142 1.119-20.788-2.653-.142zm3.8.33l-1.12 20.788 2.653.143 1.121-20.788-2.654-.143zm3.811.128l-1.12 20.788 2.653.143 1.12-20.788-2.653-.143zm3.796.332l-1.118 20.788 2.654.142 1.118-20.788-2.654-.142zm3.813.127l-1.121 20.788 2.653.142 1.121-20.788-2.653-.142zm3.435 7.457l-.724 13.451 2.653.143.724-13.451-2.653-.143z" fill="#D0D2D3"/><path fill-rule="evenodd" clip-rule="evenodd" d="M548.731 468.065c-1.431-2.653 2.248-9.388 2.657-10.613.613-1.224 5.109-1.632 5.109-1.632s1.84-.817-3.065 6.327c-2.862 4.49-3.27 8.367-4.701 5.918z" fill="#E8A476"/><path fill-rule="evenodd" clip-rule="evenodd" d="M560.585 445.615c-.205 6.939-2.248 7.96-3.27 12.858-.409-.204-.818-.408-1.022-.408-4.292.408-7.971 0-10.628-2.653.818-3.062 2.044-4.49 1.84-7.96-.613-.612-1.431-3.469-1.022-3.469.409 0 0-3.674 4.292-4.898 2.043 0 1.839-.613 3.065-2.041l8.584 1.837-1.839 6.734z" fill="#E8A476"/><path fill-rule="evenodd" clip-rule="evenodd" d="M547.505 449.289c0-2.653-5.314 1.225-3.475-4.082 0 0 2.248-5.51 4.701-5.918 12.262-1.429 1.022 7.959-1.226 10z" fill="#F1B287"/><path fill-rule="evenodd" clip-rule="evenodd" d="M546.687 449.289c0-.204.205-.408.205-.408.613-1.021-2.249-2.449.408-8.776-1.226.816-1.839 1.837-4.087 6.735-.409.612-.613 1.429-1.022 2.041l4.496.408z" fill="#F1B287"/><path fill-rule="evenodd" clip-rule="evenodd" d="M550.775 468.473c-1.227-2.245 2.043-7.959 2.657-8.776.613-1.02 4.7-1.428 4.7-1.428s-.204.816-3.27 5.51c-2.452 3.266-2.861 6.735-4.087 4.694z" fill="#E8A476"/><path fill-rule="evenodd" clip-rule="evenodd" d="M554.862 442.146c3.27-2.857 5.723 1.021 5.723 3.47.204 4.49-1.84 11.02-2.657 13.061-1.022-.816-3.475 1.633-4.496 1.021 1.635-6.939-2.453-14.082 1.43-17.552z" fill="#E8A476"/><path fill-rule="evenodd" clip-rule="evenodd" d="M546.278 469.29c-1.839-2.245 1.022-10.001 1.431-11.225.409-1.225 4.905-2.857 4.905-2.857s1.635-1.225-2.452 7.143c-2.249 4.898-2.044 8.98-3.884 6.939z" fill="#E8A476"/><path fill-rule="evenodd" clip-rule="evenodd" d="M543.622 465.412c-1.635-2.449 2.043-9.796 2.452-11.021.204-.204 1.226-4.081 1.431-5.306 0-.612 1.839-7.347 4.292-9.388 1.43-1.225 3.678 1.224 4.087 1.633.613.612-3.474 8.775-4.701 10.816 0 1.225-1.021 3.47-3.065 6.939-2.861 4.49-3.066 8.776-4.496 6.327z" fill="#F1B287"/><path fill-rule="evenodd" clip-rule="evenodd" d="M580.859 398.568c-2.507 18.105-9.48 34.034-13.172 41.505-1.239 2.508-4.329 3.325-6.727 1.881l-10.344-6.226c-2.29-1.379-3.105-4.307-1.905-6.696 4.31-8.575 13.453-28.097 13.14-38.83-.205-14.026-5.927-38.14-8.176-48.229-.873-7.988 13.621-3.943 17.861-2.595.763.242 1.432.69 1.877 1.355 2.441 3.655 10.032 18.406 7.446 57.835z" fill="#4C7BA6"/><path fill-rule="evenodd" clip-rule="evenodd" d="M550.816 435.833c-2.388-1.294-3.303-4.244-2.099-6.679 4.627-9.357 13.654-28.877 13.317-39.28-.204-14.051-5.919-38.208-8.165-48.315-.599-6.03 8.767-12.531 17.774-4.267.399.366.723.813.949 1.306 4.328 9.428 4.032 24.676.055 53.494-2.547 18.454-10.041 35.049-13.848 42.573-1.22 2.41-4.162 3.24-6.536 1.953l-1.447-.785z" fill="#4C7BA6"/><path d="M520.494 450.953l-1.67 30.69a3 3 0 002.833 3.158l5.779.313 1.996-36.681-5.779-.313a3 3 0 00-3.159 2.833z" fill="#4A80AA"/><path opacity=".32" d="M426.802 332.984c1.76.255 3.364.968 4.711 2.147 1.344 1.146 2.312 2.603 3.15 4.107 1.003 1.791 1.846 3.667 2.622 5.551.918 2.274 1.71 4.63 2.202 7.051.575 2.887.818 5.843.482 8.791.004.034-.032.342-.166.357-.101.01-.2-.284-.207-.351-.157-.526-.187-1.133-.146-1.713.219-2.123.039-3.832-.381-5.888a38.793 38.793 0 00-1.957-6.332 52.214 52.214 0 00-2.388-5.271c-.767-1.477-1.695-2.87-2.841-4.071-1.372-1.414-3.071-2.387-4.91-3.075-.346-.065-.309-1.322-.171-1.303z" fill="#8A7269"/><path fill-rule="evenodd" clip-rule="evenodd" d="M452.452 607.609c21.552 0 39.108-1.673 39.108-3.764 0-2.091-17.579-3.764-39.108-3.764-21.528 0-39.107 1.673-39.107 3.764-.023 2.021 17.556 3.764 39.107 3.764z" fill="#68667B" opacity=".5"/><path fill-rule="evenodd" clip-rule="evenodd" d="M478.626 448.254s2.202-5.703 2.868-6.555c.667-.851 6.007-1.684 6.007-1.684s1.542-.37-3.931 4.556c-3.15 2.785-4.872 6.12-4.944 3.683z" fill="#E8A476"/><path fill-rule="evenodd" clip-rule="evenodd" d="M487.246 422.427s.764 2.896 1.091 6.299c.511 3.425.306 5.08.306 5.08s.095 2.253.259 3.954c.163 1.702-4.253 4.143-4.253 4.143s-7.34 3.387-8.329 3.825c-.989.438-1.221-.711-.877-1.976.343-1.265 4.737-3.523 6.118-4.099 1.38-.576-4.603.924-5.638 1.73-1.035.806-1.637-1.883.985-3.426 2.6-1.359 5.636-3.225 5.636-3.225s-.555-1.563-.671-2.137c.069-.552-1.895-5.838-2.334-6.826-2.492-4.044.153-5.771.126-8.576l4.392-3.752 3.189 8.986z" fill="#E8A476"/><path fill-rule="evenodd" clip-rule="evenodd" d="M493.579 427.499c-1.809-4.697-8.781-28.267-10.06-37.577 0-12.675.307-22.635 0-31.236-.168-4.69-4.88-10.866-10.573-15.521-3.006 7.659-3.049 26.143-.258 47.406 6.172 18.133 9.572 39.192 9.572 39.192l11.319-2.264z" fill="#285C4D"/><path d="M453.148 580.662a49.301 49.301 0 009.585 15.384c.157.167.345.368.538.439.769.318 1.545-.563 1.574-1.404.114-1.454-.982-2.689-1.986-3.727-2.731-2.845-5.461-5.69-8.159-8.534-.848-.871-2.149-1.789-3.115-1.077" fill="#2B1615"/><path d="M470.851 500.904c1.74 7.196.426 22.092-1.303 34.84-.349 2.647-3.36 19.725-3.887 27.65-.192 2.793-.177 11.995.283 14.74 1.459 8.761-.244 9.625 9.063 17.846-2.276.063-9.269 2.755-11.546 2.818-1.105.033-2.369-.044-2.987-1.01-.647-1.036-2.246-3.714-2.694-4.884-1.911-4.998-1.753-4.853-4.423-7.567-2.669-2.749-3.474-7.779-2.02-11.404.39-.967.817-3.051 1.366-3.908 2.03-3.36 2.328-8.354 2.204-12.382-.656-23.954-4.279-32.123-1.034-43.595.333-1.214 1.431-1.982 2.211-2.935 1.794-2.144 1.554-4.671 2.57-6.876.912-1.999 2.098-3.463 2.727-5.716 1.11-4.022 1.387-9.366 4.666-12.194" fill="#FFBE88"/><path d="M452.381 515.922c.254-.796.604-1.519 1.011-2.03 1.697-2.182 5.876-2.776 8.08-4.557 3.139-2.553 6.314-2.271 10.193-1.721.13.005.259.044.354.117a.6.6 0 01.148.425c.261 1.898-.679 3.756-1.802 5.258-2.113 2.938-3.577 5.897-5.879 8.654-2.371 2.894-4.682 5.93-5.91 9.598-1.049 3.148-1.229 6.571-1.407 9.924a195.194 195.194 0 00-.055 19.977c.109 2.558.787 5.555.441 8.132-.385 2.751-3.558 2.434-3.065 5.145.52 2.887 6.094 22.598 6.093 22.633-1.792-2.754-4.246-10.919-6.103-13.641-1.208-1.755-4.155-3.954-3.486-6.45.187-.729.693-1.307.913-2.034.148-.555-2.184 5.237-2.133 4.679.062-.873 2.604-8.057 2.794-8.89 1.589-6.665 3.114-12.387 1.982-19.282-.973-5.841-2.928-33.653-2.169-35.937z" fill="#FF9B71"/><path d="M451.728 573.76c-1.553 1.729-2.885 4.472-4.025 6.506-.725 1.271-1.357 2.675-1.212 4.137.096 1.008.554 1.898.977 2.819a52.763 52.763 0 014.273 13.974c.454.015.941.031 1.396.014-.175-3.471-.382-6.976-.557-10.448 3.62 3.426 2.801 2.557 6.382 6.667.204.687 1.755 2.468 2.258 2.971.408.402.952.647 1.499.828 5.96 2.833 12.751 1.475 16.135.294.693-1.272.389-2.869-.35-4.093-.738-1.223-3.501-2.136-4.64-3.049-1.171-.914-2.409-1.765-3.614-2.648.292.982.093 2.076-.711 2.794-.636.562-1.462.955-2.31 1.056-11.212-6.771-14.094-12.479-15.876-18.402-.235-.753-.4-1.633.106-2.199.27-.282.699-.494.776-.848.078-.386-.661-.638-.609-.247" fill="#B02C42"/><path d="M437.266 500.863c1.948 8.727-3.061 18.319-4.232 26.902-.296 2.24.445 7.99.992 13.666.461 4.888 7.183 27.993 4.889 33.333-.681 1.583-2.039 3.181-1.416 4.783.301.821-2.082 3.365-1.657 4.146.616 1.161 1.586 2.99 1.4 4.31-.242 1.882 1.723 1.414 2.087 3.27.669 3.322 2.383 9.437 5.334 11.167 3.381 1.999 9.896 1.044 12.843-1.548-6.031-7.243-7.55-20.466-9.006-28.255.105-12.019-.5-24.446 1.626-33.033 1.467-5.99 1.398-11.141 3.09-16.967 1.703-5.896 5.992-13.372 4.29-19.661-.676-2.503-9.232-2.592-11.709-3.387" fill="#FFBE88"/><path d="M461.184 507.864c-8.009 14.753-17.43 12.129-22.595 23.236-4.109 8.788-3.591 13.113-1.306 21.935 1.292 5.026 2.377 10.153 3.062 15.308.578 4.51-.006 17.633-.776 23.669-.837-.579-3.428-13.283-3.266-14.255.152-1.002 1.574-1.669 1.87-2.65.623-2.074 1.298-2.94 1.07-5.112-.255-2.572-.914-5.966-1.169-8.538-.189-1.947-.378-3.894-.947-5.751-.519-1.703-6.371-24.444-3.609-32.965 1.623-4.986 2.698-8.297 6.781-11.597 1.054-.853 7.432-.032 8.658-.567 1.226-.534 2.786-.565 3.785.302" fill="#FF9B71"/><path d="M440.492 601.692c-.844.386-2.535.423-3.957 0 0-2.61-.173-4.503-.417-6.56a78.011 78.011 0 00-2.669-11.946c1.766-.348 3.412.803 4.253 2.271.824 1.419 1.024 3.152 1.3 4.748.448 2.459.702 1.633 1.608 6.613" fill="#B02C42"/><path d="M455.33 596.058c1.176 1.474 3.133 2.628 4.309 4.102 1.994 4.37-1.741 5.734-5.9 5.712-1.977-.018-8.055-.711-8.473-1.378-1.851-2.841-3.57-5.329-4.821-8.42-1.251-3.09-2.348-5.895-4.521-8.496-.844-1.016-1.767-1.965-2.277-3.19-.771-1.853-.311-4.043.673-5.82.984-1.777 2.479-3.17 3.974-4.564.497 1.617-1.275 3.02-1.008 4.592.324 1.794-.648 4.428 2.086 10.422 0 0 3.559 4.036 4.482 6.422 2.961 3.69 7.435 4.093 12.113 2.742-.403-.884-1.193-1.262-.637-2.124z" fill="#B02C42"/><path d="M424.9 437.712c-2.079 21.464 7.561 55.432 9.895 80.684 11.892 1.929 23.924 6.275 39.624-.433 1.069-.457 1.974-1.504 2.488-2.619.418-.906 12.144-96.899 1.574-111.247-1.239-.968-23.905 4.966-39.185 7.712 0 0-12.535 6.768-14.396 25.903z" fill="#388A6C"/><path d="M465.288 408.11c1.403 1.593-16.802-3.506-17.871-3.015-3.208 1.406-3.73 8.015-4.756 11.01-1.701 4.944-4.661 4.876-13.369 8.225-11.771 4.527 6.338 93.714 6.338 93.714 1.69.375 8.924 3.291 10.152 1.999.743-.804.998-1.952 1.253-3.066 1.114-4.769-18.196-72.274 8.274-84.165 23.181-3.955 38.269 5.553 23.181-20.311-1.041-7.576-10.036-7.953-15.513-5.702" fill="#32725F" opacity=".35"/><path fill-rule="evenodd" clip-rule="evenodd" d="M421.838 347.668s7.266 17.061 8.641 25.493c1.374 8.236 2.16 56.476 2.16 56.476s18.655 1.372 34.365.784c15.709-.784 18.878-2.922 18.878-2.922s-5.739-19.132-7.02-37.123c-.689-9.684 2.04-10.412 3.398-21.731 0-9.959-6.338-10.412-6.338-20.977-1.178-1.765-.474-10.393-22.664-10.785-22.779 3.241-31.812 10.197-31.42 10.785z" fill="#32725F"/><path fill-rule="evenodd" clip-rule="evenodd" d="M442.261 340.124c14.139-.589 7.658 18.918 0 20.683-.196 0 17.87 23.727 17.87 23.727s3.927 38.239 3.338 45.887c-9.229 1.765-30.634-.784-30.634-.784s-9.229-82.753-10.997-81.969c2.553-3.53 15.514-6.368 20.423-7.544z" fill="#32725F"/><path fill-rule="evenodd" clip-rule="evenodd" d="M451.687 431.009c-15.152 1.47-25.112-3.51-25.112-3.51s2.264-10.413 3.118-25.708c8.837 9.608 17.87 19.413 21.994 29.218z" fill="#388A6C"/><path fill-rule="evenodd" clip-rule="evenodd" d="M465.962 337.866l-4.074 47.078-23.994-46.287s8-7.983 14.487-7.587c3.243 0 7.243 1.81 13.581 6.796z" fill="#F38C94"/><path fill-rule="evenodd" clip-rule="evenodd" d="M461.888 385.849l.918-12.37-3.781-18.85s-.32 1.203-2.557 1.203-1.811-.802-1.811-.802l.999 14.976 6.232 15.843z" fill="#E2304D"/><path fill-rule="evenodd" clip-rule="evenodd" d="M460.995 349.452l-4.606-1.161-4.448.58 2.541 6.582.795.967c1.112 1.355 2.859 1.162 3.812-.193l.635-.968 1.271-5.807z" fill="#E2304D"/><path fill-rule="evenodd" clip-rule="evenodd" d="M456.455 347.368s-8.307 9.082-8.699 11.043c-.197 1.961-8.052-20.198-8.052-20.198s5.702-6.16 5.899-5.768c3.142 7.844 10.852 14.923 10.852 14.923z" fill="#F9ABB1"/><path fill-rule="evenodd" clip-rule="evenodd" d="M455.55 346.914s7.719 6.398 8.308 8.359c.589 1.961 1.664-18.753 1.664-18.753s-4.097-2.471-4.097-2.079c.197 3.922-5.875 12.473-5.875 12.473z" fill="#F9ABB1"/><path fill-rule="evenodd" clip-rule="evenodd" d="M468.701 338.881c-4.517-1.177-3.338 7.059-3.338 7.059l-2.57 41.267 1.86 42.27 11.783-53.926-.966-27.731-6.769-8.939z" fill="#32725F"/><path fill-rule="evenodd" clip-rule="evenodd" d="M462.793 387.66l-29.329-39.708 6.717-1.471s-2.501-.456-8.626-3.188c3.754-2.522 14.035-10.866 14.035-10.866l-3.169 5.886.905 6.338 19.467 43.009zm0 0l11.875-39.539-6.676-1.177 6.676-3.651-8.879-6.338-2.996 50.705zm-2.422 6.091c0 .981.785 1.765 1.963 1.765.982 0 1.768-.784 1.768-1.765a1.76 1.76 0 00-1.768-1.765c-1.178-.196-1.963.785-1.963 1.765z" fill="#388A6C"/><path fill-rule="evenodd" clip-rule="evenodd" d="M503.725 430.029c-.589-2.746-7.069-5.099-8.248-5.687-1.178-.392-4.516 1.961-4.516 1.961s-1.768.392 6.087 2.549c4.517 1.177 7.266 3.726 6.677 1.177z" fill="#E8A476"/><path fill-rule="evenodd" clip-rule="evenodd" d="M482.321 421.596c4.32 4.707 6.48 4.118 9.818 6.864.196-.392.393-.589.393-.981 3.142-2.157 5.302-4.706 5.695-8.04-2.357-1.569-3.928-1.765-5.892-4.314 0-.784.197-5.098-.196-4.902-.393.196-3.338-.589-7.069 1.176-1.375 1.177-1.571.785-3.339.589l-4.712 6.471 5.302 3.137z" fill="#E8A476"/><path fill-rule="evenodd" clip-rule="evenodd" d="M493.514 416.498c-1.768-1.961-1.179-1.765.785-2.157.196-1.177.982-2.55-1.374-3.922 0 0-4.321-1.177-6.284 0-9.426 6.275 3.927 5.883 6.873 6.079z" fill="#F1B287"/><path fill-rule="evenodd" clip-rule="evenodd" d="M501.565 411.988s-1.571 2.549-7.266 2.157c-1.178 0-.196-3.138-6.284-4.118 1.178-.588 1.571-.196 6.677.392 4.32.784 8.64-.196 6.873 1.569z" fill="#F1B287"/><path fill-rule="evenodd" clip-rule="evenodd" d="M502.547 431.401c-.589-2.353-6.088-4.118-7.07-4.51-.982-.392-3.927 1.765-3.927 1.765s.589.392 5.498 1.961c3.731.784 5.891 2.941 5.499.784z" fill="#E8A476"/><path fill-rule="evenodd" clip-rule="evenodd" d="M484.088 415.91c-3.928 0-3.142 4.118-1.964 5.686 2.553 3.138 7.855 6.472 9.622 7.256.197-1.177 3.339-.98 3.535-1.961-5.106-3.53-6.48-10.981-11.193-10.981z" fill="#E8A476"/><path fill-rule="evenodd" clip-rule="evenodd" d="M506.081 429.244c0-2.549-6.676-6.079-7.658-6.863-.982-.589-5.106.98-5.106.98s-1.963 0 5.891 3.53c4.517 1.961 6.873 4.902 6.873 2.353z" fill="#E8A476"/><path fill-rule="evenodd" clip-rule="evenodd" d="M505.885 425.126c-.393-2.549-7.266-5.491-8.444-6.079-.196-.196-3.338-2.157-4.124-2.745-.392-.393-5.694-3.922-8.64-3.922-1.571 0-1.767 2.941-1.767 3.529 0 .785 7.658 3.922 9.622 4.707.785.784 2.749 1.765 6.284 2.941 4.713 1.373 7.265 3.922 7.069 1.569z" fill="#F1B287"/><path fill-rule="evenodd" clip-rule="evenodd" d="M429.744 397.167c8.94 18.066 46.685 27.567 46.685 27.567l7.642-13.533s-16.298-3.621-43.008-24.899c-3.622-14.94-1.747-16.751-4.693-27.064-4.815-16.85-14.532-11.766-14.532-11.766s-13.824 5.781 7.906 49.695z" fill="#388A6C"/><path d="M480.262 359.956l-7.678.784a2 2 0 00-1.785 2.193l.272 2.654a2 2 0 002.193 1.786l7.678-.785a2 2 0 001.786-2.193l-.272-2.653a2 2 0 00-2.194-1.786z" fill="#4A80AA"/><path d="M461.435 338.361c-.453-.395.304-.966-.416-1.587-.68-1.329.078-4.069.311-6.958-1.465.021-7.91-1.993-9.153-1.141-6.135 0-1.271 5.745-3.418 5.343-2.117 6.285 6.791 13.426 6.791 13.426s3.237-4.957 5.885-9.083z" fill="#FFBE88"/><path d="M450.117 341.126c.906-3.474 1.413-9.632 3.409-12.571 0 0 6.3 1.879 7.739 1.381-.445-1.359-4.871-6.393-5.155-7.721l-1.778-.739c-.124.224-.207.395-.321.446-.946.483-2.155 1.387-3.247 1.293-1.632-.161-3.866-1.645-5.577-2.075-.453-.105.809-2.061.528-1.734-1.511 1.876 2.608 7.731.469 15.705.564.493 3.723 6.781 3.933 6.015z" fill="#FF9B71"/><path d="M463.725 289.539c1.169-1.769 3.598-1.688 5.144-.434 1.545 1.254 2.348 6.198 3.156 8.167 1.617 3.924 1.654.325 3.261 8.645a5.524 5.524 0 001.611-1.745 5.62 5.62 0 00.738-2.27c.037-1.13.502-2.179.822-3.252 1.184-3.995-3.702-8.72-6.305-11.571-1.573-1.722.273-2.77-1.127-4.682-.86-1.173-9.264-2.513-10.02-3.781-2.077-3.471-5.934-.63-9.396-.601-5.886.052-3.147.086-7.516 5.302-2.081 2.47-5.6 3.576-7.192 6.408-1.593 2.832-3.81 5.397-4.327 8.878-.348 2.345.16 4.729.784 6.975.724 2.575.31 5.855 1.457 8.206 1.409 2.932 9.307 5.494 10.322 8.684.686 2.15-4.171.133-2.264 1.358 1.359 2.264 5.825-.514 9.508-1.358 4.228-.977 12.485.174 14.966-4.698 1.681-3.305 2.25-13.732 4.317-16.721 3.039-4.392 6.44 2.35 6.234-3.672-.165-4.644 1.235-6.703-1.231-10.069-3.57-4.868-14.967-9.326-17.852-10.037" fill="#712A2D"/><path d="M475.922 315.827c.485-2.286-.321-6.819.751-9.262 1.04-2.412-.142-3.099-.313-7.386-.115-.131.428-4.952.313-5.083-2.38-3.404-6.927-.635-10.748-2.116-1.672-.65-3.466-1.275-5.222-.898-3.571.718-9.468 5.517-11.492 8.097-3.137 4.083-.407 19.604 3.224 25.884 3.464 3.055 8.416 5.626 11.073 5.484 3.082-.12 10.791-6.998 12.414-14.72z" fill="#FFBE88"/><path d="M452.003 300.04c2.025-2.611 5.157-8.206 8.728-8.925 1.754-.345 10.488 2.932 12.022 3.887 4.425 2.73 1.764 3.863 4.144 7.266.085.13-.656-3.157-.541-3.026-.895-3.857-3.055-7.968-7.524-9.295-1.078-.337-2.375-.593-3.797-.761-4.189.311-7.172.28-11.268.565-.618.155-1.206.343-1.764.532-1.226 1.31-3.716 5.239-4.192 5.589-.475.35-.747.898-1.018 1.415-.412.884-.795 1.801-1.088 2.753.235.731.517 1.745.739 3.318l-1.708 1.222c-.062.59-.125 1.212-.157 1.835.649 5.624 3.082 7.438 3.005 11.806-.032 1.778 2.114 4.42 4.877 6.907-1.08-10.606-3.625-21.038-.458-25.088z" fill="#FFA274"/><path d="M461.93 303.001c-1.803-.349-5.421.111-7.041.936-3.272 1.62-.581 1.208.661.822 3.048-.976 4.712-.835 7.802 0-.027.003-.804-1.653-1.422-1.758z" fill="#934031"/><path opacity=".3" d="M473.924 306.765c-.709-1.005-2.782-.958-3.494-.152-.94 1.075-1.865 3.025-2.208 4.35.682-.807 1.903-3.179 3.057-3.119.243.013 3.249.764 3.205.449 0 0-.306-1.14-.56-1.528z" fill="#FF9585"/><path d="M468.623 310.828s.595-2.623 2.757-3.197c1.575-.417 1.42-.363 2.059.233.637.627 1.47 3.018-1.591 3.888-1.358 0-2.309-.376-3.225-.924z" fill="#fff"/><path opacity=".3" d="M454.311 309.016c1.656-2.536 2.742-2.917 5.106-2.699 1.909.194 2.215 2.489 2.215 2.489s-9.241 3.139-7.321.21z" fill="#FF9585"/><path d="M461.242 308.661s-1.087-1.337-3.225-.637c-.899.296-2.702.42-3.713 2.272 0 0 .935 1.33 2.86 1.805 2.044.513 3.704-.368 4.317-1.023.672-.62.09-1.713-.239-2.417z" fill="#fff"/><path d="M457.298 308.95s-.391.479-.251 1.299c.14.819.7 1.754 1.643 1.772 1.338.039 1.731-.471 2.168-1.26-.031-.002-2.09-.797-1.975-.666.369-.074 1.944-.492 1.944-.492s-.175-.727-.846-1.293c-.757-.664-1.726-.778-2.683.64zm13.804-.839c-.85.767-.563 2.75.699 3.191 1.125.371 1.723-.378 1.912-1.305a4.994 4.994 0 01-1.455-.483 9.804 9.804 0 011.446-.423c-.216-.668-.508-.964-1.168-1.155-.138-.038-.906-.297-1.024-.178l-.41.353z" fill="#2C2C3E"/><path d="M461.588 308.705c-.635-.657-1.123-2.123-2.869-1.933-2.264.246-3.081 1.063-3.622 1.503-.232.2-1.175 1.852-.794 2.2.503-.286 2.416-2.63 4.869-2.345 1.12.121 1.993.575 2.708 2.345.319.298-.292-1.77-.292-1.77z" fill="#9A4938"/><path d="M469.991 315.85c-.025-.031-.023-.06-.048-.091-.309-.581-3.065-5.301-3.214-5.933-.282-1.114.966-3.504 1.642-4.45-.955 1.288-2.453 2.476-2.409 4.113.035.834 2.897 5.529 2.891 6.629-.006.118-.014.266-.072.382-.088.174-.249.255-.41.335-.536.27-1.484.471-2.679 1.344-.161.081-.35.19-.534.21-.498.033-.864-.461-1.356-.547-.086.144.087.332.213.428.327.225.651.539.98.735.33.195.624.062.967-.009 1.037-.332 3.344-1.042 3.87-2.114.201-.346.324-.696.159-1.032z" fill="#FFA274"/><path d="M468.53 310.886c.171-.366.986-2.215 1.279-2.574.584-.688 1.543-1.464 2.492-1.54.489-.037.918.148 1.358.484.703.536.901 1.983.632 2.469-.137-.289-.73-1.194-.961-1.425-.578-.592-1.641-.421-2.386-.147-1.551.543-2.148 2.872-2.517 2.946 0 0 .035-.092.103-.213z" fill="#9A4938"/><path d="M471.037 303.235c.229-.209 3.251-.017 4.322.802 1.324 1.029.846 1.537.81 2.389-.414-1.419-3.488-2.289-6.801-1.426-.164-.256.98-1.14 1.669-1.765z" fill="#934031"/><path d="M460.432 306.714c-.829-.45-1.796-.594-2.714-.517-.887.078-1.818.404-2.375 1.156-.13.149.135.319.265.17.522-.66 1.421-.956 2.215-1.008.827-.082 1.733.059 2.473.473.118.068.313-.171.136-.274zm13.386-.298c-.68-.379-1.431-.575-2.199-.459-.767.116-1.401.583-1.86 1.214-.13.15.135.32.265.171.424-.54.994-.948 1.67-1.068.676-.121 1.367.071 1.958.414.179.072.344-.169.166-.272z" fill="#E46F50"/><path d="M465.335 321.657c.56-.105 1.806.272 2.42.245-.783.494-1.876 1.925-3.21 1.825-.365-.019-1.614-.36-1.876-.494-1.393-.732-1.999-1.69-2.477-2.097 1.494.331 4.552.622 5.143.521z" fill="#D8383E"/><path d="M468.9 321.114c-.929-.188-1.86-.346-2.787-.25-.493.045-.966.186-1.466.293-1.402.268-3.417-.062-4.799-.296-.016.156.844.716.802.838 1.598.508 3 .555 4.689.474.735-.02 1.677.043 2.374-.201.254-.101 1.126-.864 1.187-.858z" fill="#D8383E"/><path d="M474.981 291.978a3.37 3.37 0 01.883-1.332c4.38-3.865 3.934 6.365 3.772 8.266-.275 3.226-1.444 6.345-1.759 9.473-1.148-.137-1.471-2.46-2.013-3.424.964-5.432-1.603-6.135-1.352-9.054.085-1.1-.119-.518 0-1.615a9.105 9.105 0 01.469-2.314z" fill="#712A2D"/><path d="M481.808 299.528c-.018-3.005-2.472-3.819-2.835-6.791-.248-2.25-.029-5.541-1.034-7.299-.735-1.118-1.662-2.018-2.711-2.633a1.314 1.314 0 00-.951-.347c-.298.061-2.824-.298-3.073-.036-1.049 1.125-7.252.261-7.842 1.928-.591 1.666-8.446 6.915-7.812 8.387.975-.827 17.366-1.533 18.429-1.259 2.107.535 1.463 2.676 2.029 4.665.488 1.825 1.907 3.132 2.17 5.194.312 2.476-.678 4.349-1.307 6.691-.453 1.703 4.927-2.728 4.937-8.5z" fill="#9A4938"/><path d="M474.556 294.108c-8.141-3.634-12.238-3.992-16.29-2.619-3.341 1.14-4.975 5.776-8.21 12.114-1.575 3.086-1.877 11.726-1.04 18.757a1.745 1.745 0 01-.268.834 1.686 1.686 0 01-1.236.477c-1.68.153-.633.988-5.091.5-1.007-5.862-10.638-11.027-10.385-15.616.506-9.22-2.745-8.471.425-14.447 2.076-3.907 7.758-12.416 8.522-13.913 0 0 3.785-2.204 6.682-1.169 2.754.982 6.129-.787 8.897-.2 1.694.357 2.907 1.683 4.606 2.241 2.291.744 4.773.63 7.026 1.531.993.401 1.909.954 2.864 1.431.744.349-3.37 1.608-1.666 5.448.329.744 4.596-1.98 4.835-1.202.41 1.321.835 1.836.759 3.214-.043.907.262 2.099-.43 2.619z" fill="#9A4938"/><path d="M449.421 308.685c-.528-1.762-2.702-3.142-4.411-2.201-2.491 1.42-2.216 5.421-.872 7.701.864 1.374 2.703 3.142 4.092 2.449 1.868-1.065 2.265-4.566 1.191-7.949z" fill="#FFA274"/><path d="M447.552 308.474c-.496-.765-1.327-1.143-2.253-.68-1.709.941-1.595 3.79-.619 5.46 0 0-.016.14.128.157-.609-2.338.14-5.09 2.744-4.937z" fill="#FB8761"/><path d="M445.763 307.563s2.555-.704 2.192 3.793c-.607.215-.718 1.195-.094 2.117-.064.56-.383.807-.383.807s-1.375-.723-1.041-2.386c.096-.841.894-1.459.894-1.459s-.258-2.866-1.568-2.872z" fill="#E86850"/><path d="M440.933 284.048c-2.428 3.662-5.466 5.061-5.756 10.812 1.017-2.326 1.665-3.122 3.126-4.212-.675 2.769-1.232 6.46-2.053 9.099 2.932-5.138 4.023-8.047 6.245-8.93-1.759 2.567 0 7.623-1.466 10.764 2.155-2.451 3.413-4.434 5.762-5.978-.678 2.895-1.865 5.375-2.079 8.453 1.017-3.353 2.149-4.945 4.281-5.939.093.868.178 1.741.316 2.576 1.663-2.832 1.569-6.996 4.539-7.792.109-.009.213-.081.293-.203.167-.328-.114-.791-.372-.868-2.017-.598-2.487.613-4.319 1.534l1.135-4.824c-2.098.54-4.086 1.905-5.794 3.98-.24-.41-.059-1.192.132-1.732l2.287-6.475c-2.765 3.315-4.172-.188-6.471 3.498 1.528-3.556 1.704-6.393 3.891-8.202-2.959.699-4.07 2.716-6.638 5.867m36.535-.918a9.423 9.423 0 00-.416-1.328c2.159.64 3.29 2.36 4.258 4.362a12.48 12.48 0 01.803 8.315c.689-2.724-1.392-3.945-2.738-5.408-1.155-1.236-1.387-3.867-1.907-5.941zm-38.681 24.587l-2.845-5.355s1.252 5.073 4.341 10.455c0 0-.83-3.275-.262-2.511 0 0 3.043 4.618 2.662 3.285-.127-.417-.968-1.697-1.271-4.079.039.311 2.489 3.313 2.771 3.698a7.227 7.227 0 01-.544-1.302 7.322 7.322 0 01-.288-1.384c-.095-.965.047-1.792-.103-2.776a20.088 20.088 0 001.344 2.817c-.323-1.059-.168-1.997.006-2.808.174-.812.37-1.686.104-2.757a16.77 16.77 0 00-1.377 1.444c-.51-1.155-1.459-4.164-1.648-5.402.054.368-.179 1.55-.206 2.019a27.568 27.568 0 00-.078 3.492l-1.336-2.394c-.052.716-.015 1.508.109 2.333-.057-.377-1.251-2.692-1.479-3.313-.474-1.29-.902-2.757-1.622-3.726.227 2.61 1.123 5.584 1.722 8.264zm25.013-25.215a.617.617 0 00.299.44.754.754 0 00.415.037c1.037-.102 3.017-.851 3.955-.144.253.196.438.462.531.763.094.3.091.622-.007.921.46-.466 1.06-.78 1.713-.898.386-.097.847-.263.909-.707.253-1.929-10.781-4.362-11.795-4.542-3.651-.643-4.465.527-8.12.685 1.375-.061 4.05-.463 4.569 1.591.286 1.114 1.385.587 2.066.351a15.826 15.826 0 012.38-.62 3.538 3.538 0 011.714.023c.303.097.575.268.791.496.216.229.368.507.441.809.058.254.072.55.139.795z" fill="#712A2D"/><defs><linearGradient id="paint0_linear" x1="646.149" y1="197.844" x2="299.562" y2="380.238" gradientUnits="userSpaceOnUse"><stop stop-color="#FFD9A1" stop-opacity=".042"/><stop offset=".12" stop-color="#FFD9A1"/><stop offset="1" stop-color="#FFD9A1" stop-opacity="0"/></linearGradient><linearGradient id="paint1_linear" x1="610.896" y1="189.162" x2="146.02" y2="234.425" gradientUnits="userSpaceOnUse"><stop stop-color="#FFD9A1" stop-opacity=".042"/><stop offset=".12" stop-color="#FFD9A1"/><stop offset="1" stop-color="#FFD9A1" stop-opacity="0"/></linearGradient><linearGradient id="paint2_linear" x1="729.545" y1="212.331" x2="901.34" y2="381.843" gradientUnits="userSpaceOnUse"><stop stop-color="#FFD9A1" stop-opacity=".042"/><stop offset=".12" stop-color="#FFD9A1"/><stop offset="1" stop-color="#FFD9A1" stop-opacity="0"/></linearGradient><linearGradient id="paint3_linear" x1="655.31" y1="218.433" x2="515.588" y2="423.073" gradientUnits="userSpaceOnUse"><stop stop-color="#FFD9A1" stop-opacity=".042"/><stop offset=".12" stop-color="#FFD9A1"/><stop offset="1" stop-color="#FFD9A1" stop-opacity="0"/></linearGradient><filter id="filter0_f" x="644.325" y="125.579" width="119.304" height="96.733" filterUnits="userSpaceOnUse" color-interpolation-filters="sRGB"><feFlood flood-opacity="0" result="BackgroundImageFix"/><feBlend in="SourceGraphic" in2="BackgroundImageFix" result="shape"/><feGaussianBlur stdDeviation="2.5" result="effect1_foregroundBlur"/></filter></defs></svg>