<svg width="965" height="705" fill="none" xmlns="http://www.w3.org/2000/svg"><path d="M180.815 258.215c23.422 97.655-77.445 170.476-32.172 258.616C197.526 611.997 251 618.678 394.662 601.582c71.117-17.153 128.522-14.941 199.298-3.76 281.466 19.802 279.698-12.518 321.448-154.035 77.561-262.904-89.67-212.522-201.903-279.276-179.101-106.526-586.75-131.684-532.69 93.704z" fill="#BBDEED"/><path fill-rule="evenodd" clip-rule="evenodd" d="M563.628 534.753c148.68 0 269.797-3.785 269.797-8.516s-121.275-8.516-269.797-8.516c-148.523 0-269.798 3.785-269.798 8.516-.157 4.573 121.118 8.516 269.798 8.516z" fill="#68667B" opacity=".75"/><path d="M180.815 258.215c23.422 97.655-77.445 170.476-32.172 258.616C197.526 611.997 251 618.678 394.662 601.582c71.117-17.153 128.522-14.941 199.298-3.76 281.466 19.802 279.698-12.518 321.448-154.035 77.561-262.904-89.67-212.522-201.903-279.276-179.101-106.526-586.75-131.684-532.69 93.704z" fill="url(#paint0_linear)"/><circle cx="707.752" cy="160.603" r="56.5" transform="rotate(4.564 707.752 160.603)" fill="#F7FCFF"/><g filter="url(#filter0_f)"><path fill-rule="evenodd" clip-rule="evenodd" d="M703 217.5c-25 0-50.637-22-52.5-52-1.643-26.454 13.912-42.042 27.5-43.5 20.814-2.234 75.5 51 49 92 0 0 14.925-.423-24 3.5z" fill="#D5DEE6"/></g><mask id="a" maskUnits="userSpaceOnUse" x="116" y="46" width="849" height="659"><path d="M180.815 258.215c23.422 97.655-77.445 170.476-32.172 258.616C197.526 611.997 251 618.678 394.662 601.582c71.117-17.153 128.522-14.941 199.298-3.76 281.466 19.802 279.698-12.518 321.448-154.035 77.561-262.904-89.67-212.522-201.903-279.276-179.101-106.526-586.75-131.684-532.69 93.704z" fill="url(#paint1_linear)"/></mask><g mask="url(#a)"><path fill-rule="evenodd" clip-rule="evenodd" d="M145.006 251.341l274.446.411c18.624 0 145.982-6.159 100.548 3.901-25.787 5.748-180.978 15.602-211.677 16.629-38.885 1.232 577.953 2.053 277.925 20.325-92.301 5.543 88.412 10.47 101.919 10.265 204.453-2.669 317.633.821 377.793 0V267.56c-5.93-.205-12.27-.205-19.03-.205-6.55 0-79.815 0-70.81-2.874 3.889-1.232 65.9-6.159 44.62-8.828-33.159-4.106-97.334 6.364-132.74 6.364-79.494 0-85.225-16.013-139.254-16.013-4.298 0-116.088-.206-114.246-1.643 6.344-4.722 160.089-4.106 174.006-3.079 83.909 6.159 172.321 1.026 257.254-1.437L965 222.5l-845.924 21.861 25.93 6.98zm92.15-109.802l145.443-5.444c44.67-1.657-174.417 18.856 19.546 18.856 152.783 1.418 350.336 13.083 323.065 14.065-30.698 1.027-121.923-2.264-147.71 3.484-45.434 10.06 44.376 10 63 10l425.46 22.033-920.954 12.113c12.388-11.512 122.386-8.399 122.386-8.399s2630.408-16.853 162.059-16.853c-35.406 0-287.183 11.245-320.338 6.933-21.284-2.668 269.598-8.986 273.486-10.218 62.963-8.602-179.265-8.602-186.019-8.602-20.056.206-37.452-.615-51.574-.41l92.15-37.558z" fill="url(#paint2_linear)" opacity=".54"/><path fill-rule="evenodd" clip-rule="evenodd" d="M915.668 402.896a.857.857 0 00-.856-.857c-.227 0-.441-.096-.625-.229a2.63 2.63 0 00-.38-.227c-.539-.265-1.045-.757-1.045-1.358 0-.602.487-1.089 1.088-1.089h.244c.736 0 1.332-.597 1.332-1.332v-5.32c0-.736-.596-1.332-1.332-1.332a1.332 1.332 0 01-1.332-1.333v-.119c0-.802.65-1.452 1.452-1.452.803 0 1.454-.651 1.454-1.453v-1.207c0-.802-.651-1.453-1.454-1.453-.802 0-1.452-.65-1.452-1.452v-.119c0-.736.596-1.332 1.332-1.332.736 0 1.332-.597 1.332-1.333v-5.32c0-.735-.596-1.332-1.332-1.332a1.332 1.332 0 01-1.332-1.332v-.12c0-.801.65-1.451 1.452-1.451.803 0 1.454-.651 1.454-1.454v-1.206c0-.803-.651-1.453-1.454-1.453-.802 0-1.452-.65-1.452-1.452v-.12c0-.735.596-1.332 1.332-1.332.736 0 1.332-.596 1.332-1.332v-5.32c0-.736-.596-1.332-1.332-1.332a1.332 1.332 0 01-1.332-1.332v-.12c0-.802.65-1.452 1.452-1.452.803 0 1.454-.65 1.454-1.453v-1.206c0-.803-.651-1.454-1.454-1.454-.802 0-1.452-.65-1.452-1.451v-.12c0-.736.596-1.332 1.332-1.332.736 0 1.332-.597 1.332-1.332v-5.32c0-.736-.596-1.332-1.332-1.332a1.332 1.332 0 01-1.332-1.333v-.119c0-.802.65-1.452 1.452-1.452.803 0 1.454-.651 1.454-1.453v-.965c0-.802-.651-1.453-1.454-1.453-.802 0-1.452-.65-1.452-1.452v-.119c0-.736.596-1.332 1.332-1.332.736 0 1.332-.597 1.332-1.333v-5.32c0-.735-.596-1.332-1.332-1.332a1.332 1.332 0 01-1.332-1.332v-.12c0-.801.65-1.451 1.452-1.451.803 0 1.454-.651 1.454-1.454v-1.206c0-.803-.65-1.453-1.453-1.453a1.453 1.453 0 01-1.453-1.454v-3.99a5.444 5.444 0 00-5.444-5.444h-.491a5.935 5.935 0 01-5.934-5.935v-4.101a4.24 4.24 0 00-4.239-4.239 4.24 4.24 0 01-4.239-4.239v-7.424a6 6 0 00-6-6h-10.042a6 6 0 00-6 6v7.424a4.24 4.24 0 01-4.239 4.239 4.24 4.24 0 00-4.239 4.239v4.101a5.935 5.935 0 01-5.935 5.935 5.934 5.934 0 00-5.934 5.934v6.313c0 3.274-2.629 5.935-5.9 6.06-11.169.429-18.807 1.465-18.807 2.501v4.597-.242 53.713-.242 12.697a4.48 4.48 0 11-8.962 0v-87.025c0-3.314-2.742-6-6.055-6-3.314 0-6.056-2.686-6.056-6v-37.182a5.45 5.45 0 00-5.45-5.45 5.45 5.45 0 01-5.45-5.45v-6.454a6 6 0 00-6-6h-5.682a6 6 0 00-6 6v6.454a5.45 5.45 0 01-5.45 5.45 5.45 5.45 0 00-5.45 5.45v37.248a5.935 5.935 0 01-5.935 5.934h-4.724a1.21 1.21 0 00-1.21 1.21 1.21 1.21 0 01-1.21 1.21h-.487a1.452 1.452 0 100 2.903h.122c.87 0 1.575.705 1.575 1.575v1.206c0 .869-.705 1.574-1.575 1.574h-.122a1.452 1.452 0 100 2.904h.122c.87 0 1.575.704 1.575 1.574v1.206c0 .87-.705 1.575-1.575 1.575h-.122a1.452 1.452 0 100 2.903h.122c.87 0 1.575.705 1.575 1.575v1.206c0 .869-.705 1.574-1.575 1.574-.869 0-1.574.705-1.574 1.575v.48c0 .87.705 1.574 1.574 1.574.87 0 1.575.705 1.575 1.575v1.206c0 .87-.705 1.575-1.575 1.575h-.122a1.452 1.452 0 100 2.903h.122c.87 0 1.575.705 1.575 1.574v1.207c0 .869-.705 1.574-1.575 1.574h-.122a1.451 1.451 0 100 2.903h.122c.87 0 1.575.705 1.575 1.575v1.69c0 .87-.705 1.574-1.575 1.574h-.122a1.452 1.452 0 100 2.904h.122c.87 0 1.575.705 1.575 1.574v1.207c0 .869-.705 1.574-1.575 1.574h-.122a1.452 1.452 0 100 2.903h.122c.87 0 1.575.705 1.575 1.575v1.206c0 .87-.705 1.575-1.575 1.575h-.122a1.452 1.452 0 100 2.903h.122c.87 0 1.575.705 1.575 1.574v1.207c0 .869-.705 1.574-1.575 1.574h-.122a1.452 1.452 0 100 2.903h.122c.87 0 1.575.705 1.575 1.575v1.206c0 .87-.705 1.575-1.575 1.575h-.122a1.452 1.452 0 100 2.903h.122c.87 0 1.575.705 1.575 1.574v1.207c0 .869-.705 1.574-1.575 1.574h-.122a1.452 1.452 0 100 2.903h.85a.847.847 0 110 1.694h-4.482a5.33 5.33 0 00-5.329 5.329v47.707a6 6 0 006 6h161.431a6 6 0 006-6v-38.388z" fill="#323845"/><path fill-rule="evenodd" clip-rule="evenodd" d="M915.668 305.747a3.39 3.39 0 00-3.391-3.391 3.391 3.391 0 01-3.391-3.391v-6.645a4.239 4.239 0 00-4.239-4.239 4.24 4.24 0 01-4.239-4.239v-7.424a6 6 0 00-6-6h-10.526a6 6 0 00-6 6v7.545a4.118 4.118 0 01-4.118 4.118 4.118 4.118 0 00-4.118 4.117v4.223a5.935 5.935 0 01-5.934 5.935 5.935 5.935 0 00-5.935 5.934v6.313c0 3.274-2.628 5.935-5.9 6.06-11.169.429-18.807 1.465-18.807 2.5v4.598-.242 18.146-.242 35.325-.242 12.581a4.599 4.599 0 01-4.599 4.597 4.604 4.604 0 01-4.605-4.602v-86.904c0-3.314-2.742-6-6.056-6-3.313 0-6.055-2.686-6.055-6v-37.061a5.57 5.57 0 00-5.571-5.571 5.57 5.57 0 01-5.571-5.571v-6.333a6 6 0 00-6-6h-5.925a6 6 0 00-6 6v6.333a5.57 5.57 0 01-5.571 5.571 5.57 5.57 0 00-5.571 5.571v37.061a6 6 0 01-6 6h-4.901a1.21 1.21 0 00-1.21 1.21 1.21 1.21 0 01-1.21 1.21h-.487a1.452 1.452 0 100 2.903h.122c.87 0 1.575.705 1.575 1.575v1.206c0 .869-.705 1.574-1.575 1.574h-.122a1.452 1.452 0 100 2.904h.122c.87 0 1.575.704 1.575 1.574v1.206c0 .87-.705 1.575-1.575 1.575h-.122a1.452 1.452 0 100 2.903h.122c.87 0 1.575.705 1.575 1.575v1.206c0 .869-.705 1.574-1.575 1.574-.869 0-1.574.705-1.574 1.575v.48c0 .87.705 1.574 1.574 1.574.87 0 1.575.705 1.575 1.575v1.206c0 .87-.705 1.575-1.575 1.575h-.122a1.452 1.452 0 100 2.903h.122c.87 0 1.575.705 1.575 1.574v1.207c0 .869-.705 1.574-1.575 1.574h-.122a1.451 1.451 0 100 2.903h.122c.87 0 1.575.705 1.575 1.575v1.69c0 .87-.705 1.574-1.575 1.574h-.122a1.452 1.452 0 100 2.904h.122c.87 0 1.575.705 1.575 1.574v1.207c0 .869-.705 1.574-1.575 1.574h-.122a1.452 1.452 0 100 2.903h.122c.87 0 1.575.705 1.575 1.575v1.206c0 .87-.705 1.575-1.575 1.575h-.122a1.452 1.452 0 100 2.903h.122c.87 0 1.575.705 1.575 1.574v1.207c0 .869-.705 1.574-1.575 1.574h-.122a1.452 1.452 0 100 2.903h.122c.87 0 1.575.705 1.575 1.575v1.206c0 .87-.705 1.575-1.575 1.575h-.122a1.452 1.452 0 100 2.903h.122c.87 0 1.575.705 1.575 1.574v1.207c0 .869-.705 1.574-1.575 1.574h-.122a1.452 1.452 0 100 2.903h.85a.847.847 0 110 1.694h-4.482a5.33 5.33 0 00-5.329 5.329v47.707a6 6 0 006 6h154.891a6 6 0 006-6V305.747z" fill="#2C2A3F"/><path fill-rule="evenodd" clip-rule="evenodd" d="M792.862 410.507c-1.938 0-3.392-1.451-3.392-3.387v-2.661c0-.314.11-.616.294-.869.819-1.127 1.402-2.428 1.402-3.728 0-3.388-2.664-12.098-6.055-12.098-3.392 0-6.056 8.71-6.056 12.098 0 .682-.562 1.451-1.245 1.451h-3.005a2.774 2.774 0 01-2.774-2.775v-80.694a2.907 2.907 0 00-2.907-2.907 2.907 2.907 0 01-2.907-2.907v-2.17c0-1.74-1.41-3.149-3.149-3.149h-.729a2.42 2.42 0 01-2.42-2.42v-3.022a1.816 1.816 0 00-1.816-1.817 1.816 1.816 0 01-1.817-1.817v-2.175a3.992 3.992 0 00-3.992-3.992h-3.642a3.992 3.992 0 00-3.993 3.992v2.175a1.816 1.816 0 01-1.816 1.817 1.816 1.816 0 00-1.817 1.817v2.535a3.15 3.15 0 01-3.149 3.149 3.148 3.148 0 00-3.149 3.148v2.9a2.178 2.178 0 01-2.177 2.178h-1.093a3.27 3.27 0 00-3.27 3.27v12.094c0 8.485-6.878 15.364-15.364 15.364h-23.167c-8.552 0-15.484-6.933-15.484-15.485v-12.094a3.391 3.391 0 00-3.391-3.391 3.392 3.392 0 01-3.392-3.391v-3.503c0-.736-.596-1.332-1.332-1.332a1.332 1.332 0 01-1.332-1.333v-.361a2.42 2.42 0 00-2.419-2.42h-5.819a2.42 2.42 0 00-2.42 2.42c0 .935-.758 1.694-1.693 1.694h-2.184a1.694 1.694 0 01-1.694-1.694 2.42 2.42 0 00-2.419-2.42h-5.698a2.057 2.057 0 00-2.056 2.057v.724c0 .736-.597 1.333-1.332 1.333-.736 0-1.333.596-1.333 1.332v4.958a1.935 1.935 0 01-1.935 1.936h-.245a2.18 2.18 0 00-2.18 2.18v97.23c0 8.837 7.164 16 16 16h143.867c2.665 0 5.087-2.177 5.087-5.081v-11.613c0-1.694-1.454-3.146-3.391-3.146z" fill="#4D5B71"/><path fill-rule="evenodd" clip-rule="evenodd" d="M800.562 410.507c-1.938 0-3.391-1.451-3.391-3.387v-2.661c0-.314.11-.616.294-.869.818-1.127 1.402-2.428 1.402-3.728 0-3.388-2.665-12.098-6.056-12.098s-6.055 8.71-6.055 12.098c0 .682-.562 1.451-1.245 1.451h-3.005a2.774 2.774 0 01-2.775-2.775v-80.694a2.906 2.906 0 00-2.907-2.907 2.906 2.906 0 01-2.906-2.907v-2.17c0-1.74-1.41-3.149-3.149-3.149h-.729a2.42 2.42 0 01-2.42-2.42v-3.022a1.816 1.816 0 00-1.817-1.817 1.816 1.816 0 01-1.816-1.817v-2.175a3.992 3.992 0 00-3.992-3.992h-3.643a3.992 3.992 0 00-3.992 3.992v2.175a1.816 1.816 0 01-1.817 1.817 1.816 1.816 0 00-1.816 1.817v2.535a3.15 3.15 0 01-3.149 3.149 3.148 3.148 0 00-3.149 3.148v2.9a2.178 2.178 0 01-2.178 2.178h-1.092a3.27 3.27 0 00-3.27 3.27v12.094c0 8.485-6.879 15.364-15.364 15.364h-23.167c-8.552 0-15.485-6.933-15.485-15.485v-12.094a3.39 3.39 0 00-3.391-3.391 3.39 3.39 0 01-3.391-3.391v-3.503c0-.736-.596-1.332-1.332-1.332a1.332 1.332 0 01-1.332-1.333v-.361a2.42 2.42 0 00-2.42-2.42h-5.819a2.42 2.42 0 00-2.419 2.42c0 .935-.758 1.694-1.694 1.694h-2.184a1.694 1.694 0 01-1.693-1.694 2.42 2.42 0 00-2.42-2.42h-5.697a2.057 2.057 0 00-2.057 2.057v.724c0 .736-.596 1.333-1.332 1.333-.736 0-1.332.596-1.332 1.332v4.958a1.936 1.936 0 01-1.936 1.936h-.244a2.18 2.18 0 00-2.18 2.18v97.23c0 8.837 7.163 16 16 16h143.867c2.664 0 5.086-2.177 5.086-5.081v-11.613c0-1.694-1.453-3.146-3.391-3.146z" fill="#3B354A"/><path fill-rule="evenodd" clip-rule="evenodd" d="M198.596 385.376c-4.723-.945-10.391-.236-15.822 2.361-1.417-2.833-3.306-4.723-6.14-5.667-5.904-1.889-12.752 2.361-16.531 9.918-1.889-.944-4.014-1.417-6.376-1.889-9.446-1.417-17.947 2.125-20.073 8.501-.944 0-2.125-.236-3.07-.236 0-.236-.236-.472-.236-.708-1.889-4.959-8.029-7.557-14.877-7.085 1.181-2.597 1.417-5.431.472-8.029-2.598-6.376-12.516-8.737-22.198-4.959-1.18.472-2.125.945-3.07 1.417-3.778-7.557-10.39-12.988-18.183-13.933v82.653a47.096 47.096 0 0013.224 1.889c8.501 0 16.058-2.126 22.198-5.432 5.668 2.834 12.752 4.487 20.309 4.487 8.501 0 16.058-2.125 22.198-5.431 5.668 2.834 12.752 4.487 20.309 4.487 4.487 0 8.738-.709 12.752-1.653 1.889.944 4.251 1.416 6.376 1.889v8.737c1.653-.472 3.306-.944 4.959-1.653 4.487 1.181 9.21 1.889 14.405 1.889 8.502 0 16.531-1.889 22.907-5.195 6.848 3.779 15.586 6.14 25.032 6.14 8.501 0 16.53-1.889 22.907-5.195 6.848 3.778 15.585 6.14 25.031 6.14a55.366 55.366 0 0018.184-3.07c6.612 3.306 14.405 5.195 23.143 5.195 4.25 0 8.265-.472 12.043-1.417 5.432-.472 10.627-1.889 15.35-3.778a50.473 50.473 0 0015.35 3.778c3.778.945 7.793 1.417 12.044 1.417 8.501 0 16.53-1.889 23.142-5.195a55.376 55.376 0 0018.184 3.07c9.446 0 18.183-2.362 25.032-6.14 6.612 3.306 14.405 5.195 22.906 5.195 9.446 0 18.184-2.361 25.032-6.14 6.612 3.306 14.405 5.195 22.907 5.195 4.959 0 9.918-.708 14.405-1.889 1.653.709 3.306 1.181 4.959 1.653v-8.737c2.362-.473 4.487-1.181 6.376-1.889 4.015 1.18 8.265 1.653 12.752 1.653 7.557 0 14.641-1.653 20.309-4.487 6.14 3.542 13.697 5.431 22.198 5.431 7.557 0 12.516 4.015 18.42 1.181 6.14 3.542 15.822-.236 24.323-.236h6.613c8.501 0 18.183 3.542 24.323.236 5.668 2.834 10.863-1.181 18.42-1.181 8.501 0 16.058-2.125 22.198-5.431 5.668 2.834 12.752 4.487 20.309 4.487 4.487 0 8.737-.709 12.752-1.653 1.889.944 4.251 1.653 6.376 1.889v8.737c1.653-.472 3.306-.944 4.959-1.653 4.487 1.181 9.21 1.889 14.405 1.889 8.502 0 16.531-1.889 22.907-5.195 6.848 3.779 15.586 6.14 25.032 6.14 8.501 0 16.53-1.889 22.906-5.195 6.849 3.778 15.586 6.14 25.032 6.14a55.376 55.376 0 0018.184-3.07c6.612 3.306 14.405 5.195 23.143 5.195 4.25 0 8.265-.472 12.043-1.417 5.432-.472 10.627-1.889 15.35-3.778a50.473 50.473 0 0015.35 3.778c3.778.945 7.793 1.417 12.043 1.417 8.502 0 16.527-1.889 23.147-5.195a55.351 55.351 0 0018.18 3.07c9.45 0 18.18-2.362 25.03-6.14 6.61 3.306 14.41 5.195 22.91 5.195 9.44 0 18.18-2.361 25.03-6.14 6.61 3.306 14.41 5.195 22.91 5.195 4.72 0 9.44-.708 13.69-1.653v-70.372c-.94 0-2.12.236-3.07.472-1.18-1.181-2.59-2.125-4.25-2.598-6.61-2.125-14.4 2.834-18.65 11.336-2.13-.945-4.49-1.654-7.09-2.126-10.62-1.653-20.31 2.598-22.67 9.446-1.18-.236-2.36-.236-3.54-.236 0-.236-.24-.472-.24-.945-2.12-5.667-8.97-8.501-16.76-7.793 1.18-3.069 1.41-6.139.47-8.973-2.83-7.557-14.17-10.155-25.03-5.904-1.18.472-2.36.945-3.55 1.653-4.25-8.974-11.8-15.114-21.01-15.822-2.6-.236-5.2 0-7.8.708 2.84-10.154 0-20.072-7.08-22.67-6.376-2.361-13.933 1.653-18.656 9.446a21.005 21.005 0 00-9.21-2.834c-3.542-.236-6.848.236-10.154 1.417-15.35-5.904-53.842-15.586-45.105 14.405-2.597-.708-5.195-.944-7.793-.708-9.21.708-17.003 7.084-21.017 15.822-1.181-.709-2.362-1.181-3.542-1.653-10.863-4.251-21.962-1.653-25.032 5.904-1.181 2.833-.945 5.903.472 8.973-7.793-.708-14.641 2.362-16.767 7.793 0 .236-.236.473-.236.945-1.18 0-2.361.236-3.542.236-2.361-7.084-12.044-11.099-22.67-9.446-2.598.472-4.959 1.181-7.085 2.125-4.251-8.501-12.044-13.46-18.656-11.335-1.653.472-3.07 1.417-4.25 2.598-4.723-.945-10.391-.236-15.822 2.361-1.417-2.833-3.307-4.723-6.14-5.667-5.904-1.889-14.878-8.266-18.656-.709-8.029-3.542-20.545-6.612-20.545 7.793-3.779-3.542-7.085 0-7.085 2.126-1.889-6.376-4.487-6.376-10.39-5.904 6.376-15.114-11.572-26.213-25.032-13.461-6.14-13.224-14.642-6.376-20.782 6.849-.944-.473-2.125-.945-3.07-1.417-9.682-3.779-19.6-1.417-22.198 5.195-.944 2.598-.708 5.195.473 8.029-6.849-.472-12.989 2.125-14.878 7.085 0 .236-.236.472-.236.708-.945 0-2.125 0-3.07.236-2.125-6.14-10.627-9.918-20.073-8.501-2.361.472-4.487.944-6.376 1.889-3.778-7.557-10.626-12.044-16.53-9.918-2.598.944-4.723 2.834-6.14 5.667-5.432-2.597-11.099-3.306-15.822-2.361-1.181-1.181-2.598-2.126-4.251-2.598-6.612-2.125-14.405 2.834-18.656 11.335-2.125-.944-4.487-1.653-7.084-2.125-10.627-1.653-20.309 2.598-22.671 9.446-1.18-.236-2.361-.236-3.542-.236 0-.236-.236-.472-.236-.945-2.125-5.667-8.974-8.501-16.767-7.793 1.181-3.07 1.417-6.14.473-8.973-2.834-7.557-14.169-10.155-25.032-5.904-1.181.472-2.362.944-3.543 1.653-4.25-8.974-11.807-15.114-21.017-15.822-2.598-.236-5.195 0-7.793.708 8.738-30.227-29.755-20.309-45.105-14.405-3.306-1.181-6.612-1.653-10.154-1.417a21.01 21.01 0 00-9.21 2.834c-4.723-7.793-12.28-11.807-18.656-9.446-7.084 2.598-9.918 12.516-7.084 22.67-2.598-.708-5.196-.944-7.793-.708-9.21.708-16.767 7.085-21.018 15.822-1.18-.708-2.361-1.181-3.542-1.653-10.863-4.251-21.962-1.653-25.032 5.904-1.181 2.834-.944 5.904.473 8.973-7.793-.708-14.642 2.362-16.767 7.793 0 .237-.236.473-.236.945-1.181 0-2.362.236-3.543.236-2.361-7.084-12.043-11.099-22.67-9.446-2.598.472-4.959 1.181-7.084 2.126-4.251-8.502-12.044-13.461-18.656-11.336-1.89.473-3.306 1.417-4.723 2.598z" fill="url(#paint3_linear)"/><path d="M964 637l34-193s-98-15-140-15c-235.096 0-345.147-10.684-580 0-69.562 3.164-178 10.5-178 10.5V637h864z" fill="#7CC076"/><path d="M1226 480H69v165.208h1157V480z" fill="#C4CDDF"/><path d="M1226 488H69v14.937h1157V488z" fill="#767D86"/><path d="M1226 479.928H69v7.905h1157v-7.905z" fill="#E7EEF6"/><path d="M1226 485H69v2.833h1157V485z" fill="#CCC"/><path d="M151.79 566.819L183.157 573H69v-6.181h82.79zM1226 573v-6.181h-48.85l31.37 6.181H1226zm-112.87-6.181L1144.5 573h-128.3l-31.37-6.181h128.3zm-192.321 0L952.177 573H823.878l-31.367-6.181h128.298zm-192.319 0L759.858 573H631.559l-31.367-6.181H728.49zm-192.062 0L567.796 573H439.497l-31.367-6.181h128.298zm-192.319 0L375.477 573H247.178l-31.367-6.181h128.298z" fill="#fff"/></g><path fill-rule="evenodd" clip-rule="evenodd" d="M563.628 534.753c148.68 0 269.797-3.785 269.797-8.516s-121.275-8.516-269.797-8.516c-148.523 0-269.798 3.785-269.798 8.516-.157 4.573 121.118 8.516 269.798 8.516z" fill="#68667B" opacity=".75"/><path fill-rule="evenodd" clip-rule="evenodd" d="M624.107 433.979c26.46-.788 38.115 17.033 38.273 47.154 0 29.964-21.578 49.047-43.943 47.154-22.365-1.892-39.847-21.132-38.272-47.154 1.575-26.021 17.482-46.365 43.942-47.154z" fill="#231F20"/><path fill-rule="evenodd" clip-rule="evenodd" d="M635.605 439.657c13.702 0 24.57 14.824 26.617 34.695.158 2.208.158 4.416.158 6.781 0 25.864-16.065 45.893-34.65 46.681-14.018-2.839-23.94-21.448-22.995-43.842 1.102-24.444 14.962-44.315 30.87-44.315z" fill="#383431"/><path fill-rule="evenodd" clip-rule="evenodd" d="M635.762 445.177c12.915 0 25.2 16.085 22.365 39.741-2.835 23.656-14.805 33.591-26.145 34.853-11.34 1.419-22.837-16.086-21.892-35.957.787-19.713 12.757-38.637 25.672-38.637z" fill="#A7A9AC"/><path fill-rule="evenodd" clip-rule="evenodd" d="M635.605 450.539c11.182 0 21.577 13.878 19.215 34.222-2.363 20.344-12.758 28.86-22.523 29.964-9.765 1.103-19.53-13.879-18.742-30.911.63-17.032 10.867-33.275 22.05-33.275z" fill="#6D6E71"/><path fill-rule="evenodd" clip-rule="evenodd" d="M388.015 433.979c26.46-.788 38.115 17.033 38.273 47.154 0 29.964-21.578 49.047-43.943 47.154-22.365-1.892-39.847-21.132-38.272-47.154 1.575-26.021 17.482-46.365 43.942-47.154z" fill="#231F20"/><path fill-rule="evenodd" clip-rule="evenodd" d="M399.513 439.657c13.702 0 24.57 14.824 26.617 34.695.158 2.208.158 4.416.158 6.781 0 25.864-16.065 45.893-34.65 46.681-14.018-2.839-23.94-21.448-22.995-43.842 1.102-24.444 14.962-44.315 30.87-44.315z" fill="#383431"/><path fill-rule="evenodd" clip-rule="evenodd" d="M399.67 445.177c12.915 0 25.2 16.085 22.365 39.741-2.835 23.656-14.805 33.591-26.145 34.853-11.34 1.419-22.837-16.086-21.892-35.957.787-19.713 12.6-38.637 25.672-38.637z" fill="#A7A9AC"/><path fill-rule="evenodd" clip-rule="evenodd" d="M399.513 450.539c11.182 0 21.577 13.878 19.215 34.222-2.363 20.344-12.758 28.86-22.523 29.964-9.765 1.103-19.53-13.879-18.742-30.911.63-17.032 10.867-33.275 22.05-33.275z" fill="#6D6E71"/><path fill-rule="evenodd" clip-rule="evenodd" d="M427.548 506.524h316.417c13.702-1.893 53.393-3.785 67.095-5.678 16.538-60.243-27.562-76.644-58.747-92.099H412.9l-84.105 92.099c24.255 4.731 65.835 5.678 98.753 5.678z" fill="#58595B"/><path fill-rule="evenodd" clip-rule="evenodd" d="M511.81 433.979c26.46-.788 38.115 17.033 38.272 47.154 0 29.964-21.577 49.047-43.942 47.154-22.365-1.892-39.848-21.132-38.273-47.154 1.733-26.021 17.483-46.365 43.943-47.154z" fill="#231F20"/><path fill-rule="evenodd" clip-rule="evenodd" d="M523.307 439.657c13.703 0 24.57 14.824 26.618 34.695.157 2.208.157 4.416.157 6.781 0 25.864-16.065 45.893-34.65 46.681-14.017-2.839-23.94-21.448-22.995-43.842 1.103-24.444 14.963-44.315 30.87-44.315z" fill="#414042"/><path fill-rule="evenodd" clip-rule="evenodd" d="M523.465 445.177c12.915 0 25.2 16.085 22.365 39.741-2.835 23.656-14.805 33.591-26.145 34.853-11.34 1.419-22.838-16.086-21.893-35.957.945-19.713 12.758-38.637 25.673-38.637z" fill="#E2E3E4"/><path fill-rule="evenodd" clip-rule="evenodd" d="M523.465 445.177c7.402 0 14.647 5.204 18.9 14.035 1.26 5.205 1.575 11.04.787 17.506-2.835 23.182-14.805 32.802-26.145 34.221-6.772.789-13.702-5.046-17.955-14.035-1.102-4.258-1.575-8.832-1.417-13.563 1.102-19.555 12.915-38.164 25.83-38.164z" fill="#BCBEC0"/><path fill-rule="evenodd" clip-rule="evenodd" d="M517.952 499.112c-.472 4.416-.472 9.935-1.102 14.193 3.15 0 6.142-1.261 8.82-3.469-.158-3.785-2.993-8.043-6.3-11.197-.315-.316-.63-.316-.945-.158-.158 0-.473.315-.473.631zm7.088-8.99c.157 1.42 4.095 7.886 6.142 9.778.158.158.473.316.788.158.315 0 .472-.316.63-.473a46.437 46.437 0 002.677-8.989c.158-.473-.157-.789-.472-.947-3.623-1.419-6.773-1.419-9.135-.315-.473.158-.63.473-.63.788zm1.575-10.408c3.307.473 6.772.788 9.922 1.577.158-4.258-.157-8.043-.945-11.512-4.882 3.784-8.662 7.412-8.977 9.935zm-3.308-25.706l-1.575 12.143c0 .316.158.631.315.789.315.158.63.315.788.158 2.992-1.104 5.67-3.47 8.032-6.466a.763.763 0 000-1.104c-1.89-2.839-4.095-4.889-6.615-6.151-.315-.157-.63-.157-.787 0 .157.158 0 .316-.158.631zm-17.482 8.043l7.087 6.308c2.835-.473 5.513-14.666 2.363-15.297-5.198-.946-7.718 3.942-9.765 7.885 0 .473 0 .946.315 1.104zm-2.835 8.674c2.205 2.681 4.095 5.677 3.937 8.989-.157 3.627-3.78 5.204-6.457 6.939-.315.158-.63.158-.788 0-.315-.158-.472-.316-.472-.631-.63-4.258 1.26-11.355 2.362-14.982.158-.315.315-.473.63-.631.315-.157.63 0 .788.316zm3.465 37.06c3.78-5.204 4.725-8.673 3.15-15.297-1.26-1.577-5.355 2.366-8.348 4.258-.315.158-.472.631-.472.946.945 3.785 2.362 7.097 4.252 10.093a.867.867 0 00.788.474c.157 0 .315-.158.63-.474z" fill="#A7A9AC"/><path fill-rule="evenodd" clip-rule="evenodd" d="M517.795 500.689c-.315 4.1-.473 8.831-.945 12.458.63 0 1.102 0 1.575-.157 1.417-.631 2.835-1.42 4.252-2.524 0-3.154-2.205-6.781-4.882-9.777zm7.245-10.567c.157 1.262 2.992 6.151 5.197 8.674.788-2.208 1.575-4.731 2.048-7.57.157-.473-.158-.788-.473-.946-2.205-.946-4.41-1.262-6.3-1.104-.315.316-.472.631-.472.946zm1.575-10.408c2.362.315 4.725.631 6.93.946 0-3.154-.158-5.993-.63-8.674-3.465 2.997-5.985 5.678-6.3 7.728zm-3.308-24.602l-1.417 11.039c0 .316 0 .631.315.789 2.205-1.262 4.095-3.154 6.142-5.52a.763.763 0 000-1.104c-1.575-2.208-3.307-3.943-5.04-5.204zm-17.482 6.939l5.985 5.204c2.047-3.942 3.15-12.932.63-13.405-.473-.157-.945-.157-1.26-.157-2.52 1.419-4.095 4.573-5.513 7.254-.157.473-.157.946.158 1.104zm-6.615 24.286c0-.157-.158-.157-.158-.315-.472-3.785.788-9.462 1.89-13.247 1.733 2.365 3.15 5.046 2.993 7.727-.158 2.839-2.52 4.416-4.725 5.835zm7.245 6.782c-1.575 1.104-3.623 2.681-5.198 3.627-.315.158-.472.631-.472.946.945 3.47 2.205 6.624 3.78 9.463 2.835-4.416 3.465-7.728 2.047-13.721-.157-.157-.157-.315-.157-.315z" fill="#58595B"/><path fill-rule="evenodd" clip-rule="evenodd" d="M515.59 476.402c-1.26.789-2.048 2.996-2.048 5.52 0 3.154 1.418 5.677 3.308 5.835-.315.158-.788.315-1.103.315-1.89 0-3.307-2.523-3.307-5.835-.158-3.312 1.417-5.835 3.15-5.835z" fill="#A7A9AC"/><path fill-rule="evenodd" clip-rule="evenodd" d="M517.322 485.864c1.26 0 2.205-1.734 2.205-3.942s-.945-3.943-2.205-3.943c-1.26 0-2.205 1.735-2.205 3.943-.157 2.208.945 3.942 2.205 3.942z" fill="#A7A9AC"/><path fill-rule="evenodd" clip-rule="evenodd" d="M305.17 442.969c3.623-12.932 11.183-20.187 17.798-24.602 37.327-12.932 92.137-21.764 129.937-28.86 49.298-2.681 101.745-1.893 136.71 5.046-24.255 25.864-65.835-3.942-103.792 31.383 21.892 16.402-56.858 61.032-66.15 74.91H309.108c-.63-2.523-1.418-5.362-2.048-8.358h1.418c-.63-2.996-.945-5.993-1.575-8.674h-1.733c-2.52-13.878-3.622-29.964 0-40.845z" fill="#E2304D"/><path fill-rule="evenodd" clip-rule="evenodd" d="M767.433 433.979c26.46-.788 38.115 17.033 38.272 47.154 0 29.964-21.577 49.047-43.942 47.154-22.365-1.892-39.848-21.132-38.273-47.154 1.575-26.021 17.483-46.365 43.943-47.154z" fill="#231F20"/><path fill-rule="evenodd" clip-rule="evenodd" d="M778.93 439.657c13.703 0 24.57 14.824 26.618 34.695.157 2.208.157 4.416.157 6.781 0 25.864-16.065 45.893-34.65 46.681-14.017-2.839-23.94-21.448-22.995-43.842 1.103-24.444 14.963-44.315 30.87-44.315z" fill="#414042"/><path fill-rule="evenodd" clip-rule="evenodd" d="M779.088 445.177c12.915 0 25.2 16.085 22.365 39.741-2.835 23.656-14.805 33.591-26.145 34.853-11.34 1.419-22.838-16.086-21.893-35.957.945-19.713 12.758-38.637 25.673-38.637z" fill="#E2E3E4"/><path fill-rule="evenodd" clip-rule="evenodd" d="M779.088 445.177c7.402 0 14.647 5.204 18.9 14.035 1.26 5.205 1.575 11.04.787 17.506-2.835 23.182-14.805 32.802-26.145 34.221-6.772.789-13.702-5.046-17.955-14.035-1.102-4.258-1.575-8.832-1.417-13.563 1.102-19.555 12.915-38.164 25.83-38.164z" fill="#9A9D9F"/><path fill-rule="evenodd" clip-rule="evenodd" d="M773.575 499.112c-.472 4.416-.472 9.935-1.102 14.193 3.15 0 6.142-1.261 8.82-3.469-.158-3.785-2.993-8.043-6.3-11.197-.315-.316-.63-.316-.945-.158-.158 0-.473.315-.473.631zm7.088-8.99c.157 1.42 4.095 7.886 6.142 9.778.158.158.473.316.788.158.315 0 .472-.316.63-.473a46.437 46.437 0 002.677-8.989c.158-.473-.157-.789-.472-.947-3.623-1.419-6.773-1.419-9.135-.315-.473.158-.63.473-.63.788zm1.575-10.408c3.307.473 6.772.788 9.922 1.577.158-4.258-.157-8.043-.945-11.512-4.882 3.784-8.662 7.412-8.977 9.935zm-3.308-25.706l-1.575 12.143c0 .316.158.631.315.789.315.158.63.315.788.158 2.992-1.104 5.67-3.47 8.032-6.466a.763.763 0 000-1.104c-1.89-2.839-4.095-4.889-6.615-6.151-.315-.157-.63-.157-.787 0 .157.158 0 .316-.158.631zm-17.482 8.043l7.087 6.308c2.835-.473 5.513-14.666 2.363-15.297-5.198-.946-7.718 3.942-9.765 7.885-.158.473 0 .946.315 1.104zm-2.835 8.674c2.205 2.681 4.095 5.677 3.937 8.989-.157 3.627-3.78 5.204-6.457 6.939-.315.158-.63.158-.788 0-.315-.158-.472-.316-.472-.631-.63-4.258 1.26-11.355 2.362-14.982.158-.315.315-.473.63-.631.315-.157.63 0 .788.316zm3.465 37.06c3.78-5.204 4.725-8.673 3.15-15.297-1.26-1.577-5.355 2.366-8.348 4.258-.315.158-.472.631-.472.946.945 3.785 2.52 7.097 4.252 10.093a.867.867 0 00.788.474c.157 0 .315-.158.63-.474z" fill="#A7A9AC"/><path fill-rule="evenodd" clip-rule="evenodd" d="M773.418 500.689c-.315 4.1-.473 8.831-.945 12.458.63 0 1.102 0 1.575-.157 1.417-.631 2.835-1.42 4.252-2.524 0-3.154-2.205-6.781-4.882-9.777zm7.245-10.567c.157 1.262 2.992 6.151 5.197 8.674.788-2.208 1.575-4.731 2.048-7.57.157-.473-.158-.788-.473-.946-2.205-.946-4.41-1.262-6.3-1.104-.315.316-.472.631-.472.946zm1.575-10.408c2.362.315 4.725.631 6.93.946 0-3.154-.158-5.993-.63-8.674-3.465 2.997-5.985 5.678-6.3 7.728zm-3.308-24.602l-1.417 11.039c0 .316 0 .631.315.789 2.205-1.262 4.095-3.154 6.142-5.52a.763.763 0 000-1.104c-1.575-2.208-3.307-3.943-5.04-5.204zm-17.482 6.939l5.985 5.204c2.047-3.942 3.15-12.932.63-13.405-.473-.157-.945-.157-1.26-.157-2.52 1.419-4.095 4.573-5.513 7.254-.315.473-.157.946.158 1.104zm-6.615 24.286c0-.157-.158-.157-.158-.315-.472-3.785.788-9.462 1.89-13.247 1.733 2.365 3.15 5.046 2.993 7.727-.158 2.839-2.52 4.416-4.725 5.835zm7.087 6.782c-1.575 1.104-3.622 2.681-5.197 3.627-.315.158-.473.631-.473.946.945 3.47 2.205 6.624 3.78 9.463 2.835-4.416 3.465-7.728 2.048-13.721 0-.157 0-.315-.158-.315z" fill="#58595B"/><path fill-rule="evenodd" clip-rule="evenodd" d="M771.213 476.402c-1.26.789-2.048 2.996-2.048 5.52 0 3.154 1.418 5.677 3.308 5.835-.315.158-.788.315-1.103.315-1.89 0-3.307-2.523-3.307-5.835-.158-3.312 1.417-5.835 3.15-5.835z" fill="#A7A9AC"/><path fill-rule="evenodd" clip-rule="evenodd" d="M772.945 485.864c1.26 0 2.205-1.734 2.205-3.942s-.945-3.943-2.205-3.943c-1.26 0-2.205 1.735-2.205 3.943-.157 2.208.945 3.942 2.205 3.942z" fill="#A7A9AC"/><path fill-rule="evenodd" clip-rule="evenodd" d="M395.733 446.911c32.445-49.362 159.547-48.415 176.557-46.523-8.662-12.301-72.607-12.301-122.85-10.251 18.113-12.301 44.1-28.544 77.49-38.164 21.42-6.151 61.425-5.678 88.2-4.732 41.265 1.578 90.72 4.574 116.235 12.301 14.49 4.416 29.925 24.918 36.225 34.38 5.67 8.516 37.013 4.574 47.723 11.513 15.277 9.935 14.332 29.964 12.285 54.25 11.025 1.262 8.82 16.086-1.26 36.903-3.78 0-14.49 4.1-18.27 4.1 10.867-107.081-81.585-81.691-76.388 0H554.178c18.112-101.246-74.813-110.393-80.483 0H434.95c-11.182-20.344 25.358-48.1-5.985-47.784-34.02.473-34.965-3.312-33.232-5.993z" fill="url(#paint4_linear)"/><path fill-rule="evenodd" clip-rule="evenodd" d="M586.937 401.808c.315-6.624 14.648-26.337 33.705-40.373 3.15-2.365 9.765-4.573 19.53-5.046 26.933-1.42 48.668-.158 75.6 8.2 8.663 2.681 32.13 37.534 20.79 37.849-39.217.473-110.407-.63-149.625-.63z" fill="#E11E3E"/><path fill-rule="evenodd" clip-rule="evenodd" d="M451.645 474.667c-14.49 11.04-28.35 20.975-31.815 26.179H309.108c-.63-2.523-1.418-5.362-2.048-8.358h1.418c-.63-2.997-.945-5.993-1.575-8.674h-1.733l-1.417-8.989h147.892v-.158z" fill="#EC5F6B"/><path fill-rule="evenodd" clip-rule="evenodd" d="M321.393 452.746c21.893 0 39.109.158 68.985.158 2.677-7.412 10.08-17.663 20.632-25.233h-91.665c2.835 5.52 4.725 15.455 2.048 25.075z" fill="#58595B"/><path fill-rule="evenodd" clip-rule="evenodd" d="M317.14 422.782c34.02-.157 85.213-.321 107.231 0 25.894 0 34.94.847 39.124 5.031l-46.5-3.296h-101.43c.473-.631 1.103-1.104 1.575-1.735z" fill="#EC5F6B"/><path fill-rule="evenodd" clip-rule="evenodd" d="M436.053 481.606c-2.835 4.416-2.363 9.778-3.308 14.351H307.69l-.945-3.311h1.575c-.63-2.997-.945-5.993-1.575-8.674h-1.575c-.157-.631-.315-1.104-.315-1.735l131.198-.631z" fill="#58595B"/><path fill-rule="evenodd" clip-rule="evenodd" d="M308.95 495.642h136.868c2.835 0 5.197 1.261 5.197 2.681 0 1.419-2.362 2.681-5.197 2.681H308.95c-2.835 0-5.197-1.262-5.197-2.681 0-1.577 2.362-2.681 5.197-2.681z" fill="#EC5F6B"/><path fill-rule="evenodd" clip-rule="evenodd" d="M303.91 454.796h92.453c2.205 0 4.095 1.893 4.095 4.101v13.878c0 2.208-1.89 4.1-4.095 4.1H303.91c-2.205 0-4.095-1.892-4.095-4.1v-13.878c0-2.208 1.89-4.101 4.095-4.101z" fill="#E2304D"/><path fill-rule="evenodd" clip-rule="evenodd" d="M400.143 474.667c-.63 1.262-2.048 2.208-3.623 2.208h-92.61c-1.575 0-2.992-.946-3.622-2.208h99.855z" fill="#E11E3E"/><path fill-rule="evenodd" clip-rule="evenodd" d="M461.095 388.56c10.395-10.408 42.525-26.494 73.237-32.171 32.603-4.259 54.653-1.893 80.01 1.103-15.277 10.882-26.46 24.287-41.895 35.169-36.697-7.728-81.585-7.097-111.352-4.101z" fill="#EDFEFF"/><path fill-rule="evenodd" clip-rule="evenodd" d="M590.56 400.704c.315-6.151 14.017-24.445 32.13-37.534 2.992-2.208 9.292-4.258 18.585-4.731 25.672-1.262 46.462-.158 72.135 7.57 8.19 2.523 30.712 34.852 19.687 35.168-37.327.631-105.21-.473-142.537-.473z" fill="#82ADB1"/><path fill-rule="evenodd" clip-rule="evenodd" d="M590.56 400.704c.157-5.047 9.292-17.979 22.522-29.807 12.285 9.305 27.72 28.072 19.215 29.964-15.75 0-30.24-.157-41.737-.157zm53.392-42.423c24.413-1.104 44.73.158 69.458 7.728 5.67 1.734 18.112 17.663 21.735 27.44h-61.268c-5.985 0-13.702-4.889-16.852-11.039l-13.073-24.129z" fill="#C0D8DA"/><path fill-rule="evenodd" clip-rule="evenodd" d="M645.685 358.281c11.97-.473 22.837-.315 34.02.789l-20.633 42.107c-11.655-.158-23.31-.158-34.177-.316l20.79-42.58zm42.052 1.892c7.56 1.104 15.12 2.839 23.153 5.205l-17.64 35.956c-8.348 0-17.01 0-25.673-.157l20.16-41.004z" fill="#ABE1E1"/><path fill-rule="evenodd" clip-rule="evenodd" d="M299.815 458.108h175.77v1.577h-175.77v-1.577z" fill="#EC5F6B"/><path fill-rule="evenodd" clip-rule="evenodd" d="M380.613 474.825h89.775l-2.363 6.308c-35.28-5.046-57.172-3.469-87.412-4.731v-1.577z" fill="#E11E3E"/><path fill-rule="evenodd" clip-rule="evenodd" d="M600.01 384.618l4.882 16.086h-14.49c.315-3.47 2.835-9.463 9.608-16.086z" fill="#576578"/><path fill-rule="evenodd" clip-rule="evenodd" d="M603.16 382.094h21.577c4.568 0 6.773 11.986 4.253 14.982-.63.631-1.418.789-2.363.947-6.3 1.104-18.427 2.838-24.097 1.419-8.033-2.05-5.985-9.62-1.89-16.086.63-.788 1.575-1.262 2.52-1.262z" fill="#EC5F6B"/><path fill-rule="evenodd" clip-rule="evenodd" d="M603.16 382.094h21.577c3.78 0 5.828 7.728 5.198 12.301-8.505.947-19.058 1.577-24.728.474-5.197-.947-7.245-3.312-7.245-5.993.63-1.893 1.575-3.627 2.835-5.52.473-.788 1.418-1.262 2.363-1.262zm-219.397 79.799l88.2-2.208v1.577l-90.09 5.678 1.89-5.047z" fill="#E2304D"/><path fill-rule="evenodd" clip-rule="evenodd" d="M417.467 423.098c19.53 0 41.053-2.07 46.778 4.889 29.925-11.828 71.977-14.667 110.092-16.875H818.62c-5.985-2.365-6.93-6.939-17.955-7.254-72.45-.473-171.99-.946-244.44-1.42-60.008 1.893-109.305 9.778-138.758 20.66z" fill="url(#paint5_linear)"/><path fill-rule="evenodd" clip-rule="evenodd" d="M322.18 437.133h79.223v2.524H322.18v-2.524z" fill="#E2304D"/><path fill-rule="evenodd" clip-rule="evenodd" d="M399.828 483.814h20.947a2.49 2.49 0 012.52 2.523v3.785a2.49 2.49 0 01-2.52 2.524h-20.947a2.49 2.49 0 01-2.52-2.524v-3.785c.157-1.419 1.26-2.523 2.52-2.523z" fill="#414042"/><path fill-rule="evenodd" clip-rule="evenodd" d="M403.293 483.814h17.482c1.26 0 2.363.946 2.363 2.05v3.312c0 1.104-1.103 2.05-2.52 2.05h-17.325c-1.418 0-2.52-.946-2.52-2.05v-3.312c.157-1.104 1.102-2.05 2.52-2.05z" fill="#EEE6D4"/><path fill-rule="evenodd" clip-rule="evenodd" d="M403.293 483.814h17.482c1.26 0 2.363.946 2.363 2.05v.631h-22.365v-.631c.157-1.104 1.102-2.05 2.52-2.05z" fill="#D2C8AD"/><path fill-rule="evenodd" clip-rule="evenodd" d="M305.328 483.814h15.435a2.49 2.49 0 012.52 2.523v3.785a2.49 2.49 0 01-2.52 2.524h-13.86l1.26-1.577c1.26-1.42-.945-5.52-1.26-7.097l-1.575-.158z" fill="#414042"/><path fill-rule="evenodd" clip-rule="evenodd" d="M306.903 483.814h14.017c1.26 0 2.205.946 2.205 2.05v3.312c0 1.104-.945 2.05-2.205 2.05h-12.915c-.315-2.365-.63-4.889-1.102-7.412z" fill="#EEE6D4"/><path fill-rule="evenodd" clip-rule="evenodd" d="M306.903 483.814h14.017c1.26 0 2.205.946 2.205 2.05v.631h-15.75c-.157-.946-.315-1.735-.472-2.681z" fill="#D2C8AD"/><path fill-rule="evenodd" clip-rule="evenodd" d="M321.865 441.707c28.165-.63 57.595 0 75.758 0v2.523h-75.758v-2.523z" fill="#E2304D"/><path fill-rule="evenodd" clip-rule="evenodd" d="M666.16 356.862l5.67 44.472 7.56-.157-7.875-45.104-5.355.789z" fill="#E11E3E"/><path fill-rule="evenodd" clip-rule="evenodd" d="M668.05 355.758l5.985 47.469 7.403-.158-8.033-48.1-5.355.789z" fill="#EC5F6B"/><path fill-rule="evenodd" clip-rule="evenodd" d="M464.088 431.298c.787 13.09-16.538 18.294-26.618 19.083-11.182.788-21.262.946-33.075 0-2.047-.158-5.355-2.524-4.41-4.574 12.915-24.444 63.473-25.548 64.103-14.509zm-148.365-6.781c3.622 6.151 6.457 12.617 6.3 21.133 0 1.261-.63 2.365-1.733 3.154a5.977 5.977 0 01-4.095 1.104c-4.41-.316-8.505 0-12.757.946a38.67 38.67 0 011.732-7.885c2.205-7.57 5.67-13.563 10.553-18.452z" fill="#E11E3E"/><path fill-rule="evenodd" clip-rule="evenodd" d="M305.17 442.968c2.048-7.412 4.883-12.458 9.608-17.505 3.307 6.151 5.197 11.67 5.985 20.186.472 4.416-2.835 6.151-3.78 5.993-4.568-.315-9.135-1.577-13.545-.158.315-2.996.787-5.992 1.732-8.516z" fill="#EC5F6B"/><path fill-rule="evenodd" clip-rule="evenodd" d="M303.438 450.696c4.41-1.892 8.19-2.681 12.6-2.208 1.102.158 2.047-.158 2.835-.946.787-.789 1.102-1.577 1.26-2.681 0-7.57-2.048-13.09-4.883-18.609-5.512 6.308-9.607 16.086-11.812 24.444z" fill="#FFFCD5"/><path fill-rule="evenodd" clip-rule="evenodd" d="M303.91 447.857c4.41-1.734 8.663-1.419 13.388-.788 1.102.157 1.575 0 2.362-.789.788-.788.315-2.05.315-3.154.158-7.727-2.205-12.143-4.882-16.874-5.198 5.519-8.82 10.881-11.183 21.605z" fill="#EEE6D4"/><path fill-rule="evenodd" clip-rule="evenodd" d="M319.975 440.603c-.945-5.52-2.992-10.882-5.197-14.982-3.308 3.312-5.828 7.097-8.033 12.774 4.253.946 8.19 1.735 13.23 2.208z" fill="#D2C8AD"/><path fill-rule="evenodd" clip-rule="evenodd" d="M319.345 435.714c.63 3.154.788 6.624.473 10.093-.63.631-1.418 1.104-2.205 1.262-.788-.158-1.418-.158-2.205-.316-2.363-1.104-4.095-4.415-4.095-8.516 0-4.731 2.205-8.516 5.197-8.831 1.103 2.05 2.048 4.1 2.835 6.308z" fill="#fff"/><path fill-rule="evenodd" clip-rule="evenodd" d="M316.983 432.087c.315 0 .63 0 .945.157.472 1.104.945 2.366 1.417 3.47.315 2.05.63 4.258.63 6.623-.787 1.42-1.89 2.208-2.992 2.208-2.205 0-3.938-2.838-3.938-6.308 0-3.312 1.733-6.15 3.938-6.15z" fill="#DAD9D4"/><path fill-rule="evenodd" clip-rule="evenodd" d="M323.478 458.088l52.902.005c1.992-.011 3.696 1.575 3.759 3.719l-.08 11.021c.013 1.994-1.719 3.749-3.712 3.76l-52.901-.005c-1.993.011-3.697-1.575-3.76-3.719l.08-11.021c.085-2.194 1.669-3.899 3.712-3.76z" fill="#EAEEF0"/><path fill-rule="evenodd" clip-rule="evenodd" d="M324.782 459.477l49.913.022c1.494-.009 2.795.882 3.201 2.076-.65-.445-1.399-.69-2.246-.735l-49.913-.022c-1.844-.04-3.528 1.366-3.468 3.011l.009 9.325c-.048.349.105.797.206 1.095-.701-.594-1.155-1.439-1.11-2.287l-.009-9.325c.038-1.845 1.573-3.2 3.417-3.16z" fill="#B2C7CF"/><path fill-rule="evenodd" clip-rule="evenodd" d="M612.137 359.07c-14.175 10.566-24.885 23.182-39.532 33.433-36.855-7.57-81.743-6.939-111.51-4.1 34.65-20.344 109.147-34.538 151.042-29.333z" fill="#ADE3E3"/><path fill-rule="evenodd" clip-rule="evenodd" d="M572.605 392.503c-.63-.158-1.103-.158-1.733-.315l-1.732-.316c-1.103-.158-2.363-.473-3.465-.631h-.158l-1.732-.315h-.158l-1.732-.315c-1.103-.158-2.048-.316-3.15-.474h-.788l-3.307-.473-1.575-.157-1.575-.158h-.158l-1.26-.158-.787-.158-1.575-.157h-.158c-1.102-.158-2.362-.316-3.465-.316h-.157l-1.103-.157h-.787l-1.103-.158h-.63l-1.26-.158h-.472l-1.733-.157c-1.732-.158-3.465-.316-5.197-.316h-35.123c-1.732 0-3.307 0-4.882.158h-.315c-1.103 0-2.048 0-3.15.158h-.158c-1.102 0-2.205 0-3.15.157-8.347.316-16.065.947-22.995 1.577 17.798-8.2 46.463-16.401 74.025-20.817 25.515-2.838 47.565-3.312 68.04-2.365-10.237 7.885-19.53 17.663-31.342 26.021z" fill="#9AC7C7"/><path fill-rule="evenodd" clip-rule="evenodd" d="M725.222 497.219l-166.95-.473-.472-5.047 167.895-.63-.473 6.15z" fill="#E2304D"/><path fill-rule="evenodd" clip-rule="evenodd" d="M590.56 400.704c6.3 29.648 6.93 71.913-.63 100.142h77.332c11.34-18.767 20.79-40.057 22.523-69.548 1.102-13.089-7.718-23.813-16.38-30.279l-82.845-.315z" fill="#E11E3E"/><path fill-rule="evenodd" clip-rule="evenodd" d="M591.977 401.019c6.615 27.441 8.033 69.706-.472 99.827h73.552c8.505-30.437 24.728-88.63 6.93-99.512l-80.01-.315z" fill="#EC5F6B"/><path fill-rule="evenodd" clip-rule="evenodd" d="M594.025 411.112h87.255c-2.205-2.996-4.568-5.52-7.245-7.728l-81.743-.788c.473 2.366 1.103 5.362 1.733 8.516z" fill="#6EB8C0"/><path fill-rule="evenodd" clip-rule="evenodd" d="M673.563 400.861c16.065 18.925 1.417 67.025-8.505 99.985h61.267c-3.465-33.433 10.238-58.193 26.933-69.863 1.102-12.774-7.403-23.34-15.75-29.806l-63.945-.316z" fill="#E11E3E"/><path fill-rule="evenodd" clip-rule="evenodd" d="M674.193 401.334c16.695 13.721 3.465 66.394-6.93 99.512h57.172c-3.465-33.433 9.923-58.193 26.775-69.863 1.103-12.774-7.402-23.34-15.75-29.806h-61.267v.157z" fill="#EC5F6B"/><path fill-rule="evenodd" clip-rule="evenodd" d="M555 430h195.77c0 .473-4.27 4.527-4.27 5l-110.453-3.423H555V430z" fill="#E2304D"/><path fill-rule="evenodd" clip-rule="evenodd" d="M673.562 420.101l.315 1.262c.63 2.366-.945 4.258-3.15 4.258h-7.56c-2.362 0-4.724-1.892-5.197-4.258l-.315-1.262h15.907z" fill="#E11E3E"/><path fill-rule="evenodd" clip-rule="evenodd" d="M654.505 416.632h18.9c.472 0 1.102.473 1.102.946l.473 1.735c.157.473-.158.946-.63.946h-18.9c-.473 0-1.103-.473-1.103-.946l-.472-1.735c-.158-.631.157-.946.63-.946z" fill="#E2304D"/><path fill-rule="evenodd" clip-rule="evenodd" d="M741.76 420.101l.315 1.262c.63 2.366-.945 4.258-3.15 4.258h-7.56c-2.362 0-4.725-1.892-5.197-4.258l-.315-1.262h15.907z" fill="#E11E3E"/><path fill-rule="evenodd" clip-rule="evenodd" d="M722.703 416.632h18.9c.472 0 1.102.473 1.102.946l.473 1.735c.157.473-.158.946-.63.946h-18.9c-.473 0-1.103-.473-1.103-.946l-.472-1.735c-.158-.631.157-.946.63-.946zm-42.525-5.52h64.89c-2.048-2.839-4.568-5.52-7.088-7.728-20.16-.157-41.107-.157-61.897-.315 1.732 2.05 3.15 4.731 4.095 8.043zm-86.153 0h84.735c-.63-3.785-2.363-5.993-4.725-8.043-28.035-.158-55.913-.315-81.743-.473.63 2.681 1.26 5.52 1.733 8.516zm130.095 86.107l-55.755-.158c.63-1.892 1.103-3.785 1.733-5.835l53.707-.157c.158 2.05.158 4.1.315 6.15zm-58.118-.158l-73.552-.157c.472-1.735.787-3.47 1.26-5.362l74.025-.316c-.63 2.05-1.26 3.943-1.733 5.835z" fill="#E2304D"/><path fill-rule="evenodd" clip-rule="evenodd" d="M808.54 461.42h14.962c6.615 1.262 8.978 3.47 9.608 5.362l-22.68 2.05-1.89-7.412z" fill="#881F2E"/><path fill-rule="evenodd" clip-rule="evenodd" d="M464.088 430.983c.63 12.459-15.908 17.505-25.516 18.136-10.71.789-20.317.946-31.657 0-2.047-.158-5.198-2.523-4.095-4.416 12.285-23.34 60.638-24.286 61.268-13.72z" fill="#58595B"/><path fill-rule="evenodd" clip-rule="evenodd" d="M464.744 430.707c.744 12.397-15.927 17.406-25.564 18.246-10.694.862-20.413 1.139-31.847.254-2.045-.098-5.333-2.355-4.244-4.283 12.141-23.39 60.946-24.851 61.655-14.217z" fill="#FFFCD5"/><path fill-rule="evenodd" clip-rule="evenodd" d="M464.744 430.707c.11 1.973-.207 3.743-.875 5.52-4.728 6.659-15.941 9.719-23.33 10.229-10.694.862-20.413 1.139-31.847.254-1.836-.173-4.906-2.153-4.379-3.998 13.944-21.313 59.729-22.286 60.431-12.005z" fill="#EEE6D4"/><path fill-rule="evenodd" clip-rule="evenodd" d="M464.744 430.707c.014.705.028 1.41-.025 2.258-8.937 4.139-21.85 6.741-36.365 6.838-7.186.082-14.034-.548-20.185-1.545 17.065-16.866 55.962-16.917 56.575-7.551z" fill="#D2C8AD"/><path fill-rule="evenodd" clip-rule="evenodd" d="M464.744 430.707c.551 9.862-9.915 15.021-19.104 17.121 1.167-5.032 3.316-10.297 6.101-15.434 1.427-2.639 3.138-5.144 4.856-7.297 4.742 1.028 8.022 2.933 8.147 5.61z" fill="#FBD55B"/><path fill-rule="evenodd" clip-rule="evenodd" d="M464.744 430.707c.11 1.973-.207 3.743-.875 5.52-3.632 5.084-10.971 8.061-17.567 9.471 1.181-4.327 3.066-8.669 5.514-13.094 1.426-2.64 3.137-5.144 4.855-7.297 4.668.818 7.948 2.723 8.073 5.4z" fill="#F58220"/><path fill-rule="evenodd" clip-rule="evenodd" d="M464.744 430.707c.014.705.028 1.41-.025 2.258a68.078 68.078 0 01-15.479 4.701c.811-1.71 1.622-3.419 2.643-5.204 1.427-2.64 3.138-5.145 4.856-7.297 4.6.96 7.88 2.865 8.005 5.542z" fill="#D7662C"/><path fill-rule="evenodd" clip-rule="evenodd" d="M434.256 428.464c3.312 0 6.005 4.245 6.112 9.532-.035 5.22-2.625 9.577-5.937 9.577-3.312 0-6.005-4.245-6.112-9.532.035-5.22 2.625-9.577 5.937-9.577z" fill="#fff"/><path fill-rule="evenodd" clip-rule="evenodd" d="M434.313 431.284c2.255.022 4.358 2.94 4.294 6.75.004 3.667-1.836 6.809-4.233 6.719-2.256-.023-4.358-2.94-4.294-6.75.063-3.809 1.977-6.742 4.233-6.719z" fill="#DAD9D4"/><path fill-rule="evenodd" clip-rule="evenodd" d="M210.798 368.032l-1.715-8.399c7.92-4.866 11.759-8.657 15.318-17.484 6.611-7.564 6.298-18.241 5.597-28.361-.683-9.847-2.882-23.799-7.54-33.053l7.387 3.37c13.205 38.248 11.437 34.144 7.913 49.848-3.59 15.847 1.643 8.444-26.96 34.079z" fill="#8D533B"/><path fill-rule="evenodd" clip-rule="evenodd" d="M207 474.032c36.371 0 66-2.007 66-4.516S243.333 465 207 465s-66 2.007-66 4.516c-.038 2.425 29.629 4.516 66 4.516z" fill="#68667B" fill-opacity=".5" opacity=".75"/><path fill-rule="evenodd" clip-rule="evenodd" d="M218.022 470.08h-29.578c-2.674 0-4.596-2.574-3.835-5.138l5.111-17.223 1.758-29.529 4.179-25.687 6.93 10.903 4.095-5.871 7.402 5.032 3.938 67.513zm-17.469-115.111c-36.773-31.481-21.603-21.8-25.294-38.026-7.035-20.676-1.535-34.631 5.85-48.919l5.816 4.73c-6.262 12.205-8.233 27.925-5.114 41.985 3.12 14.061-6.077 9.699 21.646 32.726l-2.904 7.504z" fill="#AA7244"/><path fill-rule="evenodd" clip-rule="evenodd" d="M225.097 467.08a3 3 0 01-3 3h-12.58l3.78-31.853-6.615-40.692 6.615 5.032h6.615v20.193l5.185 31.638v12.682z" fill="#8D533B"/><path fill-rule="evenodd" clip-rule="evenodd" d="M212.954 361.497c-53.719 2.218-34.035-.974-47.854-13.045-13.819-12.07-17.218 10.87-25.503-51.449l8.489-.795c2.988 57.494 10.096 33.712 21.759 44.25 11.767 10.31 1.018 15.458 40.973 11.278l2.136 9.761z" fill="#AA7244"/><path fill-rule="evenodd" clip-rule="evenodd" d="M219.423 402.715l-11.334 4.781-4.286 2.774-5.035-8.604-3.791-2.701 6.575-160.556 13.832.056 4.039 164.25z" fill="#AA7244"/><path fill-rule="evenodd" clip-rule="evenodd" d="M219.942 403.088l-11.67 4.376 6.749-21.999-5.348-18.311-2.798-39.468 6.29-29.49-2.274-60.241 6.276-.057 2.775 165.19zm11.584-55.334l5.234-17.864c29.113-2.201 66.801-23.394 71.311-37.707 4.509-14.312 3.932-30.757-1.526-44.018l3.05-2.071c8.019 4.604 12.653 33.955 3.95 51.24-10.127 20.112-18.248 28.368-82.019 50.42z" fill="#8D533B"/><path fill-rule="evenodd" clip-rule="evenodd" d="M318.252 191.554c11.706.069 18.554 14.356 15.135 31.967-3.418 17.612-15.636 31.798-27.35 31.951-11.706-.07-18.554-14.356-15.136-31.968 3.312-17.727 15.644-32.02 27.351-31.95z" fill="#7CC076"/><path fill-rule="evenodd" clip-rule="evenodd" d="M330.586 233.237c-5.256 12.865-15.07 22.228-24.549 22.235-11.483-.062-18.232-14.01-15.275-31.192 5.256-12.865 15.07-22.227 24.549-22.235 11.484.062 18.232 14.011 15.275 31.192z" fill="#A1E79B"/><path fill-rule="evenodd" clip-rule="evenodd" d="M344.534 217.439c8.229 3.741 8.574 15.907.585 27.228-7.881 11.436-20.924 17.565-29.269 13.932-8.23-3.741-8.574-15.908-.586-27.229 7.989-11.321 21.032-17.449 29.27-13.931z" fill="#BAFCB4"/><path fill-rule="evenodd" clip-rule="evenodd" d="M285.194 181.802c3.892-4.014 6.172-9.749 6.166-16.747.205-16.057-11.427-33.355-27.189-41.796 2.078-3.196 3.378-7.29 3.389-12.061.146-12.719-8.2-26.417-19.72-33.612 3.489-18.214-13.118-37.936-39.587-37.936-15.304-5.086-18.899 31.858-24.911 44.633-15.94-13.694-38.269-5.192-34.791 36.426-26.853 7.278-23.359 47.688-19.184 79.308-42.037-12.456-50.782 80.846 7.785 107.949 12.796 10.893 38.47 7.612 53.892 12.781 15.304 5.087 67.757 6.769 76.516-24.705 0 0 39.041-3.99 23.8-49.835 10.672-16.405 22.247-39.443-6.166-64.405z" fill="#7CC076"/><path fill-rule="evenodd" clip-rule="evenodd" d="M143.873 303.393l.118.083.118.083.118.083.118.084.118.083.118.083.117.083.236.167.118.083.236.166.118.083.471.333.354.249c.236.167.589.416.77.66l.354.25.707.499.118.083.589.416.118.083c13.081 3.984 30.227-2.175 41.511-3.654 18.061 4.933 35.028-.345 43.206-15.439a25.997 25.997 0 002.038-4.39c16.99-14.821 24.63-33.908 19.996-43.355 3.155-1.97 5.76-4.911 7.712-8.429 7.692-14.155 1.962-35.564-12.628-50.171-.087-.878-.174-1.755-.379-2.716-.91-6.469-2.91-12.893-5.767-19.104 3.892-4.015 6.172-9.749 6.166-16.747.205-16.057-11.427-33.355-27.19-41.796 2.134-3.273 3.379-7.29 3.39-12.061.145-12.72-8.2-26.417-19.721-33.613-1.332-5.369-.421-11.506-3.12-16.44-23.354 8.303-23.354 25.949-19.257 31.89-23.818-5.422-48.211 18.163-35.957 49.46-26.853 7.278-44.95 32.308-28.31 62.897-39.994 14.043-35.217 92.833 23.296 120.014z" fill="#A1E79B"/><path fill-rule="evenodd" clip-rule="evenodd" d="M163.451 230.053c-7.437-2.74-7.316-16.572.349-30.874 7.656-14.435 20.041-23.93 27.479-21.19 7.438 2.74 7.316 16.572-.349 30.874-7.665 14.301-19.929 23.89-27.479 21.19zm31.053-70.986c-2.823-3.106-1.797-10.408 2.371-16.316 4.169-5.908 9.882-8.228 12.8-5.116 2.823 3.106 1.797 10.407-2.371 16.316-4.168 5.908-9.882 8.228-12.8 5.116zm-44.567 32.353c-8.197-.676-16.333-12.454-18.2-26.446-1.867-13.992 3.167-24.806 11.365-24.13 8.108.563 16.333 12.454 18.2 26.446 1.867 13.992-3.167 24.805-11.365 24.13zm26.888-49.62c-6.335-3.534-10.997-17.206-10.35-30.509.593-13.436 6.314-21.46 12.649-17.926 6.335 3.534 10.997 17.206 10.35 30.508-.647 13.303-6.247 21.434-12.649 17.927zm47.751 96.555c-6.297-2.429-7.639-12.308-3.048-22.125 4.59-9.817 13.349-15.814 19.646-13.385 6.296 2.429 7.638 12.307 3.048 22.124-4.542 9.73-13.349 15.815-19.646 13.386zM178.9 290.862c-12.577 9.531-36.056 1.033-52.457-18.874-16.401-19.907-18.866-26.503-6.289-36.034 12.577-9.531 41.522-7.909 35.59 15.818 28.67 0 35.709 29.651 23.156 39.09z" fill="#BAFCB4"/><path fill-rule="evenodd" clip-rule="evenodd" d="M723 486l-160-.373v-1.494L723 474v12z" fill="#fff" opacity=".65"/><path fill-rule="evenodd" clip-rule="evenodd" d="M732.5 559c32.238 0 58.5-3.333 58.5-7.5s-26.296-7.5-58.5-7.5-58.5 3.333-58.5 7.5c-.034 4.028 26.262 7.5 58.5 7.5z" fill="#68667B" opacity=".5"/><path d="M712.622 539.451c.343-.159.71-.244 1.079-.252l15.197-.329c1.542-.034 2.798 1.274 2.84 2.957l.234 9.442c.043 1.75-1.238 3.238-2.842 3.299l-34.936 1.348c-2.126.396-3.103-5.19-1.421-7.135.161-.185.371-.305.586-.405l19.263-8.925z" fill="#231F20"/><path d="M742.194 539.452a2.7 2.7 0 011.078-.253l15.197-.329c1.543-.034 2.799 1.274 2.84 2.957l.235 9.442c.043 1.75-1.238 3.238-2.842 3.3l-34.936 1.347c-2.127.396-3.103-5.19-1.422-7.134.161-.186.372-.306.586-.406l19.264-8.924z" fill="#231F20"/><path d="M681.414 319.763c6.182 7.43 17.336 13.038 22.14 14.914 4.222-4.656 5.14-7.579 6.946-14.914 2.257-9.168 4.243-26.367-2.398-34.627-6.64-8.261-17.789-10.807-26.248-8.157-8.459 2.65-9.44 16.347-11.085 24.098-1.646 7.752 2.917 9.399 10.645 18.686z" fill="#2D2A2A"/><path fill-rule="evenodd" clip-rule="evenodd" d="M719.472 513.894l1.264 8.834s8.486.54 8.667-.541c.18-.902-1.625-9.555-1.625-9.555l-8.306 1.262z" fill="#929496"/><path fill-rule="evenodd" clip-rule="evenodd" d="M704.5 393s1.079 17.058 2.5 74.5c.609 25.919 8.036 73.5 8.036 73.5l14.161-1.168s-1.864-15.016-1.791-31.143c.064-14.162 1.791-23.157 1.791-37.106.788-6.925 2.006-13.097 5.518-28.921 1.623-1.168 5.115-26.352 5.115-26.352s.609 28.253 3.247 56.741c2.841 32.456 7.915 65.847 7.915 66.548.203 1.634 7.799 0 7.799 0s1.537-54.374-2.006-68.016c-2.693-10.368 9.53-71.484 3.543-84.695C760.53 374.513 704.5 393 704.5 393z" fill="#231F20"/><path fill-rule="evenodd" clip-rule="evenodd" d="M705.854 422.358s-4.809 35.267-3.854 43.628c2 17.5 5 39.014 5 39.014l7.63 35.27h9.454c0-23.539-5.026-35.242 4.571-97.717.2-3.031.6-4.663.8-4.896.707-2.804 2.845-4.137 2.845-4.137s-2.599 13.831 0 42.272c8.666 50.664 12.475 61.95 12.475 62.649.2.699 4.748 2.062 9.546 1.829-5.593-48.68-7.317-46.601-7.569-74.284-.245-26.882 2.096-26.844 2.096-53.434L729.455 418a17591.296 17591.296 0 01-23.601 4.358z" fill="#3C3839"/><path fill-rule="evenodd" clip-rule="evenodd" d="M667.64 380.368c-11.39 7.88-17.234 5.841-19.618 7.372-.265-.114-3.196 6.775-1.011 13.471 1.987-.423 5.364.393 11.407-5.795 3.162-3.273 3.94-2.458 9.801-6.007l-.579-9.041z" fill="#E8A476"/><path fill-rule="evenodd" clip-rule="evenodd" d="M650.703 393.051c-.711-.147-2.317-.359-3.36-1.288-.696-.619-1.672-.88-1.06-3.014 0 0 1.159-2.378 2.782-2.638 8.923-1.43 3.128 5.344 1.638 6.94z" fill="#F1B287"/><path fill-rule="evenodd" clip-rule="evenodd" d="M641.929 395.345s2.218.636 5.298-2.833c.563-.716-1.722-2.02 1.109-6.075-.91.407-1.01.683-3.46 4.103-1.987 2.981-4.834 4.951-2.947 4.805z" fill="#F1B287"/><path fill-rule="evenodd" clip-rule="evenodd" d="M700 372c-5.425 12.449-38.9 22.636-38.9 22.636l-6.254-9.716s17.441-6.692 19.342-15.965c2.018-9.492 1.369-27.041 1.356-34.313.709-6.531 13.356-1.687 13.356-1.687.163-.044 22.49 11.577 11.1 39.045z" fill="#58595B"/><path fill-rule="evenodd" clip-rule="evenodd" d="M654.846 384.92c2.917-2.828 19.342-13.874 19.342-15.965 0-17.455 1.113-27.346.937-34.574.449-4.224 2.43-4.004 6.32-3.174-1.458 8.969 8.836 13.506 5.055 32.793-6.059 15.976-28.632 25.712-28.632 25.712l-3.022-4.792z" fill="#7B7D82"/><path fill-rule="evenodd" clip-rule="evenodd" d="M658.158 382.92l5.925 11.108-3.543 1.13-5.787-10.586 3.405-1.652z" fill="#434242"/><path fill-rule="evenodd" clip-rule="evenodd" d="M713.683 370.322c-24.128 9.322-45.888 18.501-69.849 27.8-5.945-3.55-10.48-.561-11.895 5.275-.551-.288-1.102-.576-1.821-.841 2.814-9.304 9.031-9.977 13.539-6.957l69.205-27.53.821 2.253z" fill="#414042"/><path fill-rule="evenodd" clip-rule="evenodd" d="M656.911 397.485c.298 1.727-3.029 2.051-3.244.52V393c-.067-.668-.133-1.336.943-1.352.812-.13 1.143.652 1.209 1.32l1.092 4.517z" fill="#F1B287"/><path fill-rule="evenodd" clip-rule="evenodd" d="M653.998 398.787c.066.668-.679 1.466-1.49 1.596-.994.211-1.871-.327-1.755-1.076l.066-7.005c-.066-.668-.132-1.336.861-1.547.994-.211 1.143.652 1.292 1.515l1.026 6.517z" fill="#F1B287"/><path fill-rule="evenodd" clip-rule="evenodd" d="M651.547 399.649c.067.668-.678 1.466-1.49 1.596-.993.212-1.87-.326-1.936-.994l-.116-6.924c-.066-.668-.132-1.335.861-1.547.993-.211 1.142.652 1.291 1.516l1.39 6.353z" fill="#F1B287"/><path fill-rule="evenodd" clip-rule="evenodd" d="M648.84 400.306c.066.668-.497 1.384-1.308 1.514-.811.13-1.506-.489-1.573-1.157L645 394c-.066-.668.712-1.596 1.523-1.726.811-.13.96.733 1.026 1.401l1.291 6.631z" fill="#F1B287"/><path fill-rule="evenodd" clip-rule="evenodd" d="M731.255 310.185c7.101 1.624 15.654 25.606 18.768 33.024 2.149 5.438 6.255 24.267 8.623 36.813C764.733 390.849 762 398.5 762 398.5c0 10.5-51 22.5-55 19-6.5-19-17.988-58.61-18.354-59-.183-.39-11.667-24.495-11.667-24.495-.732-1.366-4.819-4.183 11.667-15.7 16.485-11.516 35.507-9.744 42.609-8.12z" fill="#939598"/><path opacity=".5" d="M737.376 402.85c-4.451-2.082-5.215-9.768-4.541-11.85 0 0-11.694 6.45-19.835 7.5-3.498.451-8.5 2.5-8.5 2.5 2.833 1.249 3 8 1 11l2.547 6.592c9.453 2.628 31.016-5.156 39.953-8.974l-2.024-6.768c-1.011.868-4.148 2.083-8.6 0z" fill="#333130" stroke="#1E1E1E" stroke-linejoin="round"/><path fill-rule="evenodd" clip-rule="evenodd" d="M708 390c-7.675 4.133-3 19-1 28-9-30-20.75-60.586-20.931-60.947-10.472-20.108 16.999 29.691 31.931 18.569 5.148-3.835 6.603-6.331 7.5-33.122-4.5-11.5-.792-18.204 2.278-15.5 0 0 6.333 15.149 9.222 22 1.444 3.245 19.597-10.919 14 14.5-7 15.5-10.5 9-43 26.5zm-28-70c5.417 1.442 13.833 12.418 20.333 13.32.723-9.375 1.445-15.143 9.389-14.963-1.444-5.048-.18-14.242-2.527-16.586-15.348-.54-25.028 13.181-27.195 18.229z" fill="#58595B"/><path fill-rule="evenodd" clip-rule="evenodd" d="M692.57 321.241c2.527 10.096 6.68 12.259 12.819 13.521-.903-9.915 1.444-15.143 3.25-23.256 0 0-7.042 1.443-11.375 4.507-2.347 1.803.181.181-4.694 5.228z" fill="#3B3839"/><path fill-rule="evenodd" clip-rule="evenodd" d="M709.726 320.035c1.083 2.344-.361 5.409-3.431 6.851-3.069 1.442-9.389 3.966-10.472 1.622-2.167-3.064-8.667-1.983-6.319-9.374-1.084-2.344 6.5-5.949 9.569-7.391 3.069-1.443 6.319-.722 7.583 1.622l3.07 6.67z" fill="#231F20"/><path fill-rule="evenodd" clip-rule="evenodd" d="M712.506 291.966c.987 1.946-.161 7.442-1.999 8.588-1.838 1.146-3.764 3.407-4.752 1.461-.987-1.947-.117-10.36 1.721-11.506 1.806-1.011 4.042-.49 5.03 1.457z" fill="#FDA470"/><path fill-rule="evenodd" clip-rule="evenodd" d="M708.824 294.707c2.619 21.399 1.641 15.024-10.259 27.686-4.754 3.744-7.793 4.788-11.753-.809-2.88-4.07-7.462-8.187-8.971-12.851-3.23-9.976-5.984-19.947 2.92-24.22 8.936-4.419 22.022-13.536 28.063 10.194z" fill="#A96C49"/><path fill-rule="evenodd" clip-rule="evenodd" d="M675.082 301.909c1.061 7.876 9.182 16.246 11.427 19.302.248.063 5.159-7.211 9.991-3.711 14.898-12.623 7.868-15.9 6-22.5-.532-7.898-2.674-13.9-7.668-16.87-9.485 1.486-22.961-.323-19.75 23.779z" fill="#FFBE88"/><path fill-rule="evenodd" clip-rule="evenodd" d="M696.761 296.599c.124.029.28-.077.436-.184.311-.214.313-.786.128-1.115-1.608-2.091-4.468-2.185-6.432-.496-.312.214-.314.786-.129 1.115.186.329.714.309 1.026.096 1.341-1.262 3.392-1.071 4.381.304.093.165.31.358.59.28zm-19.581 8.177a.944.944 0 00.686-.699c.286-1.793 1.815-3.297 3.586-3.028.372.086.716-.263.81-.67.095-.407-.214-.765-.587-.852-2.423-.278-4.855 1.731-5.083 4.397-.095.407.215.765.588.852-.125-.029-.125-.029 0 0z" fill="#321613"/><path fill-rule="evenodd" clip-rule="evenodd" d="M709.372 298.679c1.366-.246 2.444-2.062 2.486-3.931.042-1.869-.951-3.227-2.276-3.16-.414.092-.787.569-.788 1.132 0 .564.29 1.007.704.915.663-.033 1.035.617.993 1.359-.041.742.034 2.108-.546 2.349-.414.091-1.194.064-1.194.628-.125.535.207.799.621.708z" fill="#FB8761"/><path fill-rule="evenodd" clip-rule="evenodd" d="M683.022 304.991c.369 1.231.208 2.481-.507 2.744-.716.262-1.615-.376-2.108-1.635-.368-1.231-.208-2.481.508-2.744.716-.262 1.739.405 2.107 1.635z" fill="#3A1610"/><path fill-rule="evenodd" clip-rule="evenodd" d="M681.439 304.48c.185.329.09.736-.19.814-.28.078-.497-.116-.682-.445-.185-.329-.09-.736.19-.814.28-.078.497.115.682.445z" fill="#fff"/><path fill-rule="evenodd" clip-rule="evenodd" d="M696.129 299.314c.368 1.23.208 2.481-.508 2.743-.715.263-1.614-.375-2.107-1.635-.368-1.23-.208-2.481.508-2.743.747-.398 1.614.376 2.107 1.635z" fill="#3A1610"/><path fill-rule="evenodd" clip-rule="evenodd" d="M694.514 298.938c.185.33.091.737-.189.815-.28.078-.497-.116-.683-.445-.185-.329-.09-.737.19-.815.312-.213.653.009.682.445z" fill="#fff"/><path fill-rule="evenodd" clip-rule="evenodd" d="M688.576 309.31c.125.029 1.396-.984 1.52-.955.716-.263 1.339-.69 1.653-1.476.219-.378 2.525-.206 2.184-.429-.341-.222-3.236-.674-3.455-.296-.219.378-1.044 1.159-1.448 1.208-.56.156-.998-.632-1.089-1.369-.029-.436-1.57-9.512-1.329-6.381-.405.049-.255 7.872-.261 9.181.777.694 1.013.664 2.225.517z" fill="#DC9265"/><path fill-rule="evenodd" clip-rule="evenodd" d="M703.04 277.48c-3.147-5.072-32.189-9.917-30.024 22.75 0 0-1.569-8.661 4.624-9.772 2.834-.489 7.024.103 10.862-2.577 1.948-1.462 4.332-3.204 5.936-3.724 2.131-.653 4.303.108 5.663 1.701.296.324.563.769.83 1.214 1.135 2.562 1.435 6.588 1.978 8.501.3.836 1.853 1.07 1.853 1.07.85.07.24-2.625.785-3.902.718-1.492 1.276-1.234 1.276-1.234s.372-4.253-1.696-9.712c-.511-1.523-1.402-3.007-2.087-4.315z" fill="#FFD18E"/><path fill-rule="evenodd" clip-rule="evenodd" d="M689.681 311.263c2.182-1.495 2.788-2.275 5.239-.99.341.223 1.159.242.94.621-.219.378-1.104.261-.872.369-1.488-1.263-3.282-1.708-6.882 4.098-.219.379-.556.557-.772.363.441-.953.448-1.549.667-1.927.472-1.464.434-1.679 1.68-2.534z" fill="#DC9265"/><path fill-rule="evenodd" clip-rule="evenodd" d="M700.062 274.09c-8.061-5.31-38.367-3.378-27.769 24.112 1.693-3.898 5.387-10.765 15.68-12.232 24.249-1.224 19.492 7.398 19.964 5.934.659-1.707 1.373-1.398 1.373-1.398s-1.186-11.106-9.248-16.416z" fill="#58595B"/><path fill-rule="evenodd" clip-rule="evenodd" d="M670.856 289.75c13.736-13.746 20.406-13.734 30.923-15.839-7.817-4.108-28.92-4.584-30.923 15.839z" fill="#939598" fill-opacity=".49"/><path fill-rule="evenodd" clip-rule="evenodd" d="M671.819 300.238c12.381-2.556 25.454-7.526 37.409-12.756.059.873 1.143 1.84 1.078 2.684-1.929.409-4.424 2.69-6.7 4.593-.293 3.509-2.3 8.192-5.599 9.428-6.411 2.227-7.879-4.41-10.71-3.495-2.116.652.161 6.62-5.254 8.507-7.563 2.675-8.784-3.332-10.224-8.961z" fill="#231F20"/><path fill-rule="evenodd" clip-rule="evenodd" d="M701.46 294.975c.247.629.089 1.308-.347 1.493-.436.184-.87-.203-1.116-.832-.246-.63-.088-1.309.347-1.493.436-.185.994.231 1.116.832zm-16.991 5.489c.246.629.088 1.308-.348 1.493-.435.184-.869-.203-1.115-.832-.247-.63-.089-1.309.347-1.493.436-.185.87.202 1.116.832z" fill="#fff"/><g filter="url(#filter1_d)"><path fill-rule="evenodd" clip-rule="evenodd" d="M703.043 284.956c-3.695 2.53-3.311 7.207-6.973 9.598-2.668 2.18-9.906.79-13.18 2.092-3.851 1.462-7.034 4.112-9.224 7.141-1.376-.468-2.56-6.463-1.08-8.183 2.67-11.469 20.567-14.572 30.457-10.648z" fill="#939598"/></g><path fill-rule="evenodd" clip-rule="evenodd" d="M687.632 326.759c-2.927-1.912-7.744-5.058-11.632-10.759-5.069-7.433-7.107-13.946-7.859-18.55-.564-3.45-1.931-12.78 4.509-20.088 6.44-7.307 25.493-10.801 33.175 0 7.187 10.107 8.328 16.788 7.267 24.638-.309 2.289-.713 4.787-1.134 7.394-.734 4.545-1.522 9.422-1.958 14.106-1.778 4.946-1.609 7.968-1.5 9.932.093 1.672.144 2.578-1.086 3.251-2.673 1.465-14.742-5.761-19.414-9.683l-.368-.241zm-1.619-3.641c-2.293-1.77-7.697-6.555-10.974-11.537-3.079-4.68-3.297-7.66-3.494-10.369-.066-.895-.129-1.76-.292-2.647-.022-.119-.101-.348-.212-.667-.736-2.128-2.859-8.259 1.459-12.398 4.964-4.759 19.161-11.279 27.5-4 8.339 7.279 6.722 21.689 6 27.5-.296 2.379-.175 4.027-.045 5.806.124 1.697.257 3.512.045 6.194-1.067 2.836-1.034 5.526-1.007 7.677.035 2.804.059 4.692-2.384 4.792-4.317.176-12.863-6.827-16.596-10.351z" fill="#78777A"/><path fill-rule="evenodd" clip-rule="evenodd" d="M711.646 373.575l-.81 3.642s-6.283 4.857-8.715 5.262c-.405.607-11.958-2.631-11.958-2.631s1.419-4.047 4.865-8.297c2.432-3.035 7.701-3.237 11.146-3.44 3.04-2.023 5.675.81 6.08 1.215.406.404-1.013 4.249-.608 4.249z" fill="#F1B287"/><path fill-rule="evenodd" clip-rule="evenodd" d="M695.028 372.159c.608-.81 1.621-1.012 2.432-.405.81.607 1.013 1.619.405 2.226l-4.864 6.88c-1.216 1.821-4.256.809-2.432-1.417l4.459-7.284z" fill="#F1B287"/><path fill-rule="evenodd" clip-rule="evenodd" d="M697.662 373.171c.608-.81 1.622-1.012 2.432-.405.811.607 1.014 1.619.406 2.226l-4.662 6.677c-1.216 1.822-4.256.81-2.432-1.416l4.256-7.082z" fill="#F1B287"/><path fill-rule="evenodd" clip-rule="evenodd" d="M700.905 373.575c.608-.809 1.621-1.012 2.432-.405.811.607 1.013 1.619.405 2.226l-4.864 6.88c-1.216 1.822-4.256.81-2.432-1.416l4.459-7.285z" fill="#F1B287"/><path fill-rule="evenodd" clip-rule="evenodd" d="M703.945 373.98c.608-.81 1.621-1.012 2.432-.405.811.607 1.013 1.619.405 2.226l-4.864 6.88c-1.216 1.821-4.256.81-2.432-1.416l4.459-7.285z" fill="#F1B287"/><path fill-rule="evenodd" clip-rule="evenodd" d="M751.5 349c0 16.683 0 16.683-37.422 31.86l-3.85-15.177S729.5 352.5 731.5 349s-4-4-7-18.5c-6-14 7-18.5 7-18.5 4.459 1.619 21.419 15.348 20 37z" fill="#9DA1A8"/><path fill-rule="evenodd" clip-rule="evenodd" d="M710.228 365.683l3.85 15.177-4.661 1.214-3.648-14.367 4.459-2.024z" fill="#434242"/><path fill-rule="evenodd" clip-rule="evenodd" d="M159.691 383.273c15.782-38.987 32.1-79.296 21.124-125.058C131.907 54.307 460.901 55.465 656.672 136.42c9.758-20.6 31.506-34.059 55.575-32.137 31.105 2.482 54.308 29.711 51.826 60.816a56.363 56.363 0 01-5.47 20.164c15.715 5.676 31.709 10.311 47.333 14.838 89.643 25.975 167.081 48.414 109.472 243.686-1.567 5.312-3.073 10.47-4.535 15.477-37.481 128.393-46.013 157.617-316.913 138.559-70.776-11.182-128.181-13.394-199.298 3.759C251 618.678 197.526 611.997 148.643 516.831c-24.058-46.837-6.849-89.348 11.048-133.558z" fill="url(#paint6_linear)" opacity=".67"/><defs><linearGradient id="paint0_linear" x1="257" y1="205" x2="829.5" y2="561" gradientUnits="userSpaceOnUse"><stop offset=".172" stop-color="#1E5471" stop-opacity=".12"/><stop offset=".76" stop-color="#455C74"/><stop offset="1" stop-color="#20363F"/></linearGradient><linearGradient id="paint1_linear" x1="582.984" y1="106.795" x2="498.09" y2="644.162" gradientUnits="userSpaceOnUse"><stop offset=".172" stop-color="#1E5471"/><stop offset=".76" stop-color="#455C74"/><stop offset="1" stop-color="#20363F"/></linearGradient><linearGradient id="paint2_linear" x1="54.233" y1="302.962" x2="1383.54" y2="302.962" gradientUnits="userSpaceOnUse"><stop stop-color="#203050" stop-opacity="0"/><stop offset="1" stop-color="#12203A"/></linearGradient><linearGradient id="paint3_linear" x1="201.5" y1="427.5" x2="881.5" y2="448" gradientUnits="userSpaceOnUse"><stop stop-color="#AFDDAB"/><stop offset="1" stop-color="#3E533C"/></linearGradient><linearGradient id="paint4_linear" x1="690.5" y1="444" x2="835" y2="454" gradientUnits="userSpaceOnUse"><stop stop-color="#EC5F6B"/><stop offset="1" stop-color="#A73841"/></linearGradient><linearGradient id="paint5_linear" x1="798.5" y1="408" x2="507" y2="415" gradientUnits="userSpaceOnUse"><stop stop-color="#B02A40"/><stop offset="1" stop-color="#E2304D"/></linearGradient><linearGradient id="paint6_linear" x1="700.5" y1="488.5" x2="350" y2="550" gradientUnits="userSpaceOnUse"><stop stop-color="#A69C96"/><stop offset=".969" stop-color="#474264" stop-opacity="0"/></linearGradient><filter id="filter0_f" x="645.38" y="116.932" width="93.722" height="105.568" filterUnits="userSpaceOnUse" color-interpolation-filters="sRGB"><feFlood flood-opacity="0" result="BackgroundImageFix"/><feBlend in="SourceGraphic" in2="BackgroundImageFix" result="shape"/><feGaussianBlur stdDeviation="2.5" result="effect1_foregroundBlur"/></filter><filter id="filter1_d" x="670.591" y="278.508" width="33.501" height="32.797" filterUnits="userSpaceOnUse" color-interpolation-filters="sRGB"><feFlood flood-opacity="0" result="BackgroundImageFix"/><feColorMatrix in="SourceAlpha" values="0 0 0 0 0 0 0 0 0 0 0 0 0 0 0 0 0 0 127 0"/><feOffset dx="1" dy="2"/><feColorMatrix values="0 0 0 0 0 0 0 0 0 0 0 0 0 0 0 0 0 0 0.25 0"/><feBlend mode="multiply" in2="BackgroundImageFix" result="effect1_dropShadow"/><feBlend in="SourceGraphic" in2="effect1_dropShadow" result="shape"/></filter></defs></svg>