<svg width="964" height="705" fill="none" xmlns="http://www.w3.org/2000/svg"><path d="M180.212 258.202c23.423 97.655-77.445 170.476-32.172 258.616 48.883 95.166 102.357 101.847 246.019 84.751 71.117-17.153 128.522-14.941 199.298-3.759 281.466 19.801 279.698-12.518 321.448-154.036 77.561-262.903-89.67-212.521-201.903-279.275-179.101-106.527-586.75-131.684-532.69 93.703z" fill="#BBDEED"/><circle cx="707.149" cy="160.591" r="56.5" transform="rotate(4.564 707.149 160.591)" fill="#FFE2B8"/><g filter="url(#filter0_f)"><path fill-rule="evenodd" clip-rule="evenodd" d="M740.032 207.356c-19.993 17.966-62.498 10.059-78.352-11.27-18.564-18.917-13.097-50.599-3.783-60.599 14.268-15.318 67.264 8.402 85.5 27.5 18.236 19.098 23.484 15.915-3.365 44.369z" fill="#FFE2B8"/></g><mask id="a" maskUnits="userSpaceOnUse" x="136" y="85" width="799" height="524"><path d="M180.212 258.202c23.423 97.655-77.445 170.476-32.172 258.616 48.883 95.166 102.357 101.847 246.019 84.751 71.117-17.153 128.522-14.941 199.298-3.759 281.466 19.801 279.698-12.518 321.448-154.036 77.561-262.903-89.67-212.521-201.903-279.275-179.101-106.527-586.75-131.684-532.69 93.703z" fill="#E6F8FF"/></mask><g mask="url(#a)"><path d="M341.514 339.043l332.771-153.876L294.96 430.983l46.554-91.94z" fill="url(#paint0_linear)"/><path d="M186.397 248.987l461-64-530.084 122.81 69.084-58.81z" fill="url(#paint1_linear)"/><path d="M838.168 396.461L719.777 195.205l186.05 206.397-67.659-5.141z" fill="url(#paint2_linear)"/><path d="M500.064 369.335l169.733-164.608L505.06 437.109l-4.996-67.774z" fill="url(#paint3_linear)"/><path fill-rule="evenodd" clip-rule="evenodd" d="M144.403 251.329l274.446.41c18.624 0 145.982-6.159 100.548 3.901-25.787 5.748-180.978 15.603-211.677 16.629-38.885 1.232 577.953 2.053 277.925 20.325-92.301 5.543 88.412 10.47 101.919 10.265 204.453-2.669 317.626.821 377.796 0v-35.312c-5.93-.205-12.28-.205-19.03-.205-6.55 0-79.818 0-70.813-2.874 3.889-1.232 65.903-6.159 44.613-8.828-33.152-4.106-97.327 6.364-132.733 6.364-79.494 0-85.225-16.013-139.254-16.013-4.298 0-116.088-.205-114.246-1.642 6.344-4.722 160.089-4.106 174.006-3.08 83.909 6.159 172.321 1.027 257.257-1.437l-100.763-17.345-845.924 21.862 25.93 6.98zm12.494-101.842l225.099-13.404c44.67-1.658-174.417 18.855 19.546 18.855 152.783 1.418 350.337 13.083 323.065 14.066-30.698 1.026-121.923-2.265-147.71 3.483-45.434 10.06 44.376 10 63 10l425.463 22.033-920.957 12.113c12.388-11.511 122.386-8.399 122.386-8.399s2630.411-16.853 162.059-16.853c-35.406 0-287.183 11.245-320.337 6.934-21.285-2.669 269.597-8.987 273.485-10.218 62.963-8.602-179.265-8.602-186.019-8.602-20.056.205 91.312-9.508 70.812-17.508s-109.892-12.5-109.892-12.5z" fill="#E6F8FF"/><path fill-rule="evenodd" clip-rule="evenodd" d="M915.065 402.883a.856.856 0 00-.856-.856c-.227 0-.441-.096-.625-.229a2.683 2.683 0 00-.379-.228c-.54-.265-1.046-.757-1.046-1.358 0-.601.487-1.089 1.088-1.089h.244c.736 0 1.332-.596 1.332-1.332v-5.32c0-.736-.596-1.332-1.332-1.332a1.332 1.332 0 01-1.332-1.332v-.12c0-.802.65-1.452 1.452-1.452.803 0 1.454-.65 1.454-1.453v-1.206c0-.803-.651-1.454-1.454-1.454-.802 0-1.452-.65-1.452-1.451v-.12c0-.736.596-1.332 1.332-1.332.736 0 1.332-.597 1.332-1.332v-5.32c0-.736-.596-1.333-1.332-1.333a1.332 1.332 0 01-1.332-1.332v-.119c0-.802.65-1.452 1.452-1.452.803 0 1.454-.651 1.454-1.453v-1.207c0-.802-.651-1.453-1.454-1.453-.802 0-1.452-.65-1.452-1.452v-.119c0-.736.596-1.332 1.332-1.332.736 0 1.332-.597 1.332-1.333v-5.32c0-.735-.596-1.332-1.332-1.332a1.332 1.332 0 01-1.332-1.332v-.12c0-.801.65-1.451 1.452-1.451.803 0 1.454-.651 1.454-1.454v-1.206c0-.803-.651-1.453-1.454-1.453-.802 0-1.452-.65-1.452-1.452v-.12c0-.735.596-1.332 1.332-1.332.736 0 1.332-.596 1.332-1.332v-5.32c0-.736-.596-1.332-1.332-1.332a1.332 1.332 0 01-1.332-1.332v-.12c0-.802.65-1.452 1.452-1.452.803 0 1.454-.65 1.454-1.453v-.964c0-.803-.651-1.454-1.454-1.454-.802 0-1.452-.65-1.452-1.451v-.12c0-.736.596-1.332 1.332-1.332.736 0 1.332-.597 1.332-1.332v-5.32c0-.736-.596-1.333-1.332-1.333a1.332 1.332 0 01-1.332-1.332v-.119c0-.802.65-1.452 1.452-1.452.803 0 1.454-.651 1.454-1.453V314.2c0-.802-.65-1.453-1.453-1.453a1.453 1.453 0 01-1.453-1.453v-3.991a5.444 5.444 0 00-5.444-5.444h-.491a5.934 5.934 0 01-5.934-5.934v-4.102a4.24 4.24 0 00-4.239-4.239 4.24 4.24 0 01-4.239-4.239v-7.423a6 6 0 00-6-6H875.77a6 6 0 00-6 6v7.423a4.24 4.24 0 01-4.239 4.239 4.24 4.24 0 00-4.239 4.239v4.102a5.934 5.934 0 01-5.934 5.934 5.935 5.935 0 00-5.935 5.935v6.312c0 3.274-2.628 5.935-5.9 6.061-11.169.428-18.807 1.464-18.807 2.5v4.597-.242 53.713-.242 12.697a4.48 4.48 0 11-8.962 0v-87.025c0-3.313-2.742-6-6.055-6-3.314 0-6.056-2.686-6.056-6v-37.182a5.45 5.45 0 00-5.45-5.45 5.45 5.45 0 01-5.45-5.45v-6.454a6 6 0 00-6-6h-5.682a6 6 0 00-6 6v6.454a5.45 5.45 0 01-5.45 5.45 5.45 5.45 0 00-5.45 5.45v37.248a5.934 5.934 0 01-5.935 5.934h-4.724a1.21 1.21 0 00-1.21 1.21 1.21 1.21 0 01-1.21 1.21h-.487a1.452 1.452 0 100 2.903h.123c.869 0 1.574.705 1.574 1.575v1.206c0 .87-.705 1.574-1.574 1.574h-.123a1.452 1.452 0 100 2.904h.123c.869 0 1.574.705 1.574 1.574v1.207c0 .869-.705 1.574-1.574 1.574h-.123a1.452 1.452 0 100 2.903h.123c.869 0 1.574.705 1.574 1.575v1.206c0 .87-.705 1.575-1.574 1.575-.87 0-1.575.704-1.575 1.574v.48c0 .87.705 1.575 1.575 1.575.869 0 1.574.705 1.574 1.574v1.206c0 .87-.705 1.575-1.574 1.575h-.123a1.452 1.452 0 100 2.903h.123c.869 0 1.574.705 1.574 1.575v1.206c0 .869-.705 1.574-1.574 1.574h-.123a1.452 1.452 0 100 2.904h.123c.869 0 1.574.705 1.574 1.574v1.69c0 .87-.705 1.575-1.574 1.575h-.123a1.452 1.452 0 100 2.903h.123c.869 0 1.574.705 1.574 1.575v1.206c0 .869-.705 1.574-1.574 1.574h-.123a1.452 1.452 0 100 2.904h.123c.869 0 1.574.705 1.574 1.574v1.206c0 .87-.705 1.575-1.574 1.575h-.123a1.452 1.452 0 100 2.903h.123c.869 0 1.574.705 1.574 1.575v1.206c0 .869-.705 1.574-1.574 1.574h-.123a1.452 1.452 0 100 2.904h.123c.869 0 1.574.705 1.574 1.574v1.206c0 .87-.705 1.575-1.574 1.575h-.123a1.452 1.452 0 100 2.903h.123c.869 0 1.574.705 1.574 1.575v1.206c0 .869-.705 1.574-1.574 1.574h-.123a1.452 1.452 0 100 2.904h.85a.847.847 0 110 1.693h-4.482a5.33 5.33 0 00-5.329 5.329v47.707a6 6 0 006 6h161.431a6 6 0 006-6v-38.388z" fill="#E7EEF6"/><path fill-rule="evenodd" clip-rule="evenodd" d="M915.065 305.734a3.39 3.39 0 00-3.391-3.391 3.39 3.39 0 01-3.391-3.391v-6.645a4.24 4.24 0 00-4.239-4.239 4.24 4.24 0 01-4.239-4.239v-7.423a6 6 0 00-6-6h-10.526a6 6 0 00-6 6v7.544a4.118 4.118 0 01-4.118 4.118 4.118 4.118 0 00-4.118 4.118v4.223a5.934 5.934 0 01-5.934 5.934 5.935 5.935 0 00-5.935 5.934v6.313c0 3.274-2.628 5.935-5.9 6.061-11.169.428-18.806 1.464-18.806 2.5v4.597-.242 18.146-.242 35.325-.242 12.581a4.6 4.6 0 01-4.6 4.597 4.604 4.604 0 01-4.605-4.602v-86.904c0-3.313-2.742-6-6.055-6-3.314 0-6.056-2.686-6.056-6v-37.06a5.572 5.572 0 00-5.571-5.572 5.57 5.57 0 01-5.571-5.571v-6.333a6 6 0 00-6-6h-5.925a6 6 0 00-6 6v6.333a5.57 5.57 0 01-5.571 5.571 5.572 5.572 0 00-5.571 5.572v37.06a6 6 0 01-6 6h-4.901a1.21 1.21 0 00-1.21 1.21 1.21 1.21 0 01-1.21 1.21h-.487a1.452 1.452 0 100 2.903h.123c.869 0 1.574.705 1.574 1.575v1.206c0 .87-.705 1.574-1.574 1.574h-.123a1.452 1.452 0 100 2.904h.123c.869 0 1.574.705 1.574 1.574v1.207c0 .869-.705 1.574-1.574 1.574h-.123a1.452 1.452 0 100 2.903h.123c.869 0 1.574.705 1.574 1.575v1.206c0 .87-.705 1.575-1.574 1.575-.87 0-1.575.704-1.575 1.574v.48c0 .87.705 1.575 1.575 1.575.869 0 1.574.705 1.574 1.574v1.206c0 .87-.705 1.575-1.574 1.575h-.123a1.452 1.452 0 100 2.903h.123c.869 0 1.574.705 1.574 1.575v1.206c0 .869-.705 1.574-1.574 1.574h-.123a1.452 1.452 0 100 2.904h.123c.869 0 1.574.705 1.574 1.574v1.69c0 .87-.705 1.575-1.574 1.575h-.123a1.452 1.452 0 100 2.903h.123c.869 0 1.574.705 1.574 1.575v1.206c0 .869-.705 1.574-1.574 1.574h-.123a1.452 1.452 0 100 2.904h.123c.869 0 1.574.705 1.574 1.574v1.206c0 .87-.705 1.575-1.574 1.575h-.123a1.452 1.452 0 100 2.903h.123c.869 0 1.574.705 1.574 1.575v1.206c0 .869-.705 1.574-1.574 1.574h-.123a1.452 1.452 0 100 2.904h.123c.869 0 1.574.705 1.574 1.574v1.206c0 .87-.705 1.575-1.574 1.575h-.123a1.452 1.452 0 100 2.903h.123c.869 0 1.574.705 1.574 1.575v1.206c0 .869-.705 1.574-1.574 1.574h-.123a1.452 1.452 0 100 2.904h.85a.847.847 0 110 1.693h-4.482a5.33 5.33 0 00-5.329 5.329v47.707a6 6 0 006 6h154.891a6 6 0 006-6V305.734z" fill="#D8DEEB"/><path fill-rule="evenodd" clip-rule="evenodd" d="M792.259 410.495c-1.938 0-3.391-1.452-3.391-3.388v-2.661c0-.313.109-.615.293-.869.819-1.126 1.402-2.427 1.402-3.728 0-3.387-2.664-12.098-6.055-12.098-3.391 0-6.056 8.711-6.056 12.098 0 .683-.562 1.452-1.245 1.452h-3.005a2.775 2.775 0 01-2.774-2.775v-80.695a2.908 2.908 0 00-2.907-2.907 2.907 2.907 0 01-2.907-2.906v-2.171a3.15 3.15 0 00-3.149-3.149h-.729a2.42 2.42 0 01-2.419-2.42v-3.022a1.818 1.818 0 00-1.817-1.817 1.817 1.817 0 01-1.817-1.816v-2.176a3.992 3.992 0 00-3.992-3.992h-3.642a3.992 3.992 0 00-3.993 3.992v2.176a1.816 1.816 0 01-1.816 1.816 1.817 1.817 0 00-1.817 1.817v2.535a3.15 3.15 0 01-3.149 3.149 3.15 3.15 0 00-3.149 3.149v2.9a2.177 2.177 0 01-2.177 2.177h-1.093a3.27 3.27 0 00-3.27 3.27v12.094c0 8.485-6.878 15.364-15.363 15.364h-23.167c-8.552 0-15.485-6.933-15.485-15.485v-12.094a3.39 3.39 0 00-3.391-3.391 3.39 3.39 0 01-3.391-3.391v-3.503c0-.736-.597-1.332-1.333-1.332a1.333 1.333 0 01-1.332-1.332v-.362a2.419 2.419 0 00-2.419-2.419h-5.819a2.42 2.42 0 00-2.42 2.419c0 .936-.758 1.694-1.693 1.694h-2.184a1.694 1.694 0 01-1.694-1.694 2.419 2.419 0 00-2.419-2.419h-5.698a2.057 2.057 0 00-2.056 2.056v.725c0 .735-.597 1.332-1.332 1.332-.736 0-1.333.596-1.333 1.332v4.959a1.935 1.935 0 01-1.935 1.935h-.245a2.18 2.18 0 00-2.18 2.18v97.231c0 8.836 7.164 16 16 16h143.867c2.665 0 5.087-2.178 5.087-5.081V413.64c0-1.694-1.454-3.145-3.391-3.145z" fill="#E7EEF6"/><path fill-rule="evenodd" clip-rule="evenodd" d="M799.959 410.495c-1.937 0-3.391-1.452-3.391-3.388v-2.661c0-.313.11-.615.294-.869.818-1.126 1.402-2.427 1.402-3.728 0-3.387-2.665-12.098-6.056-12.098s-6.055 8.711-6.055 12.098c0 .683-.562 1.452-1.245 1.452h-3.005a2.776 2.776 0 01-2.775-2.775v-80.695a2.907 2.907 0 00-2.906-2.907 2.906 2.906 0 01-2.907-2.906v-2.171a3.15 3.15 0 00-3.149-3.149h-.729a2.42 2.42 0 01-2.42-2.42v-3.022a1.817 1.817 0 00-1.817-1.817 1.816 1.816 0 01-1.816-1.816v-2.176a3.992 3.992 0 00-3.992-3.992h-3.643a3.992 3.992 0 00-3.992 3.992v2.176a1.816 1.816 0 01-1.817 1.816 1.817 1.817 0 00-1.816 1.817v2.535a3.15 3.15 0 01-3.149 3.149 3.15 3.15 0 00-3.149 3.149v2.9a2.178 2.178 0 01-2.178 2.177h-1.092a3.27 3.27 0 00-3.27 3.27v12.094c0 8.485-6.879 15.364-15.364 15.364h-23.167c-8.552 0-15.485-6.933-15.485-15.485v-12.094a3.39 3.39 0 00-3.391-3.391 3.39 3.39 0 01-3.391-3.391v-3.503c0-.736-.596-1.332-1.332-1.332a1.332 1.332 0 01-1.332-1.332v-.362a2.42 2.42 0 00-2.42-2.419h-5.819a2.419 2.419 0 00-2.419 2.419c0 .936-.758 1.694-1.694 1.694h-2.183a1.693 1.693 0 01-1.694-1.694 2.42 2.42 0 00-2.42-2.419h-5.697a2.056 2.056 0 00-2.056 2.056v.725c0 .735-.597 1.332-1.333 1.332-.735 0-1.332.596-1.332 1.332v4.959a1.935 1.935 0 01-1.936 1.935h-.244a2.18 2.18 0 00-2.18 2.18v97.231c0 8.836 7.164 16 16 16h143.867c2.664 0 5.086-2.178 5.086-5.081V413.64c0-1.694-1.453-3.145-3.391-3.145z" fill="#D8DEEB"/><path fill-rule="evenodd" clip-rule="evenodd" d="M197.993 385.363c-4.723-.944-10.391-.236-15.822 2.362-1.417-2.834-3.306-4.723-6.14-5.668-5.904-1.889-12.752 2.362-16.531 9.918-1.889-.944-4.014-1.416-6.376-1.889-9.446-1.417-17.947 2.126-20.072 8.502-.945 0-2.126-.236-3.07-.236 0-.237-.237-.473-.237-.709-1.889-4.959-8.029-7.557-14.877-7.084 1.181-2.598 1.417-5.432.472-8.03-2.597-6.376-12.516-8.737-22.198-4.959-1.18.473-2.125.945-3.07 1.417-3.778-7.557-10.39-12.988-18.183-13.933v82.653a47.06 47.06 0 0013.224 1.889c8.501 0 16.058-2.125 22.198-5.431 5.668 2.833 12.752 4.487 20.309 4.487 8.501 0 16.058-2.126 22.198-5.432 5.668 2.834 12.752 4.487 20.309 4.487 4.487 0 8.738-.709 12.752-1.653 1.889.944 4.251 1.417 6.376 1.889v8.738c1.653-.473 3.306-.945 4.959-1.653 4.487 1.18 9.21 1.889 14.406 1.889 8.501 0 16.53-1.889 22.906-5.196 6.848 3.779 15.586 6.14 25.032 6.14 8.501 0 16.531-1.889 22.907-5.195 6.848 3.778 15.586 6.14 25.032 6.14a55.365 55.365 0 0018.183-3.07c6.612 3.306 14.405 5.195 23.143 5.195 4.251 0 8.265-.472 12.043-1.417 5.432-.472 10.627-1.889 15.35-3.778a50.473 50.473 0 0015.35 3.778c3.778.945 7.793 1.417 12.044 1.417 8.501 0 16.53-1.889 23.142-5.195a55.376 55.376 0 0018.184 3.07c9.446 0 18.183-2.362 25.032-6.14 6.612 3.306 14.405 5.195 22.906 5.195 9.446 0 18.184-2.361 25.032-6.14 6.613 3.307 14.405 5.196 22.907 5.196 4.959 0 9.918-.709 14.405-1.889 1.653.708 3.306 1.18 4.959 1.653v-8.738c2.362-.472 4.487-1.181 6.376-1.889 4.015 1.181 8.265 1.653 12.752 1.653 7.557 0 14.642-1.653 20.309-4.487 6.14 3.542 13.697 5.432 22.198 5.432 7.557 0 12.516 4.014 18.42 1.18 6.14 3.543 15.822-.236 24.324-.236h6.612c8.501 0 18.183 3.542 24.323.236 5.668 2.834 10.863-1.18 18.42-1.18 8.501 0 16.058-2.126 22.198-5.432 5.668 2.834 12.752 4.487 20.309 4.487 4.487 0 8.738-.709 12.752-1.653 1.889.944 4.251 1.653 6.376 1.889v8.738c1.653-.473 3.306-.945 4.959-1.653 4.487 1.18 9.21 1.889 14.405 1.889 8.502 0 16.531-1.889 22.907-5.196 6.848 3.779 15.586 6.14 25.032 6.14 8.501 0 16.53-1.889 22.906-5.195 6.849 3.778 15.586 6.14 25.032 6.14a55.366 55.366 0 0018.184-3.07c6.612 3.306 14.405 5.195 23.143 5.195 4.25 0 8.265-.472 12.043-1.417 5.432-.472 10.627-1.889 15.35-3.778a50.473 50.473 0 0015.35 3.778c3.778.945 7.793 1.417 12.044 1.417 8.501 0 16.529-1.889 23.139-5.195a55.366 55.366 0 0018.19 3.07c9.44 0 18.18-2.362 25.03-6.14 6.61 3.306 14.4 5.195 22.91 5.195 9.44 0 18.18-2.361 25.03-6.14 6.61 3.307 14.4 5.196 22.9 5.196 4.73 0 9.45-.709 13.7-1.653v-70.373c-.94 0-2.12.236-3.07.472-1.18-1.18-2.6-2.125-4.25-2.597-6.61-2.126-14.41 2.833-18.66 11.335-2.12-.945-4.48-1.653-7.08-2.126-10.63-1.653-20.31 2.598-22.67 9.446-1.18-.236-2.36-.236-3.54-.236 0-.236-.24-.472-.24-.944-2.12-5.668-8.97-8.502-16.77-7.793 1.18-3.07 1.42-6.14.48-8.974-2.84-7.557-14.17-10.154-25.04-5.904-1.18.473-2.36.945-3.54 1.653-4.25-8.973-11.81-15.113-21.02-15.822-2.59-.236-5.19 0-7.79.709 2.84-10.155 0-20.073-7.083-22.671-6.376-2.361-13.933 1.653-18.656 9.446-2.833-1.653-5.903-2.597-9.209-2.833-3.543-.237-6.849.236-10.155 1.416-15.35-5.903-53.842-15.585-45.105 14.406-2.597-.709-5.195-.945-7.793-.709-9.209.709-17.002 7.085-21.017 15.822-1.181-.708-2.361-1.181-3.542-1.653-10.863-4.251-21.962-1.653-25.032 5.904-1.181 2.834-.945 5.904.472 8.974-7.793-.709-14.641 2.361-16.766 7.793 0 .236-.237.472-.237.944-1.18 0-2.361.236-3.542.236-2.361-7.084-12.043-11.099-22.67-9.446-2.598.473-4.959 1.181-7.085 2.126-4.25-8.502-12.043-13.461-18.656-11.336-1.653.473-3.07 1.417-4.25 2.598-4.723-.944-10.391-.236-15.822 2.362-1.417-2.834-3.306-4.723-6.14-5.668-5.904-1.889-14.878-8.265-18.656-.708-8.029-3.543-20.545-6.613-20.545 7.793-3.779-3.543-7.085 0-7.085 2.125-1.889-6.376-4.487-6.376-10.39-5.904 6.376-15.113-11.572-26.213-25.032-13.46-6.14-13.225-14.642-6.376-20.781 6.848-.945-.472-2.126-.945-3.07-1.417-9.683-3.778-19.601-1.417-22.199 5.195-.944 2.598-.708 5.196.473 8.029-6.849-.472-12.988 2.126-14.878 7.085 0 .236-.236.472-.236.708-.944 0-2.125 0-3.07.237-2.125-6.14-10.627-9.919-20.073-8.502-2.361.472-4.486.945-6.376 1.889-3.778-7.556-10.626-12.043-16.53-9.918-2.598.945-4.723 2.834-6.14 5.668-5.431-2.598-11.099-3.306-15.822-2.362-1.181-1.181-2.598-2.125-4.251-2.598-6.612-2.125-14.405 2.834-18.656 11.336-2.125-.945-4.486-1.653-7.084-2.126-10.627-1.653-20.309 2.598-22.671 9.446-1.18-.236-2.361-.236-3.542-.236 0-.236-.236-.472-.236-.944-2.125-5.668-8.974-8.502-16.767-7.793 1.181-3.07 1.417-6.14.473-8.974-2.834-7.557-14.169-10.155-25.032-5.904-1.181.472-2.362.945-3.542 1.653-4.251-8.973-11.808-15.113-21.018-15.822-2.598-.236-5.195 0-7.793.709 8.738-30.228-29.755-20.309-45.104-14.406-3.307-1.18-6.613-1.653-10.155-1.416-3.306.236-6.376 1.18-9.21 2.833-4.723-7.793-12.28-11.807-18.656-9.446-7.084 2.598-9.918 12.516-7.084 22.671-2.598-.709-5.195-.945-7.793-.709-9.21.709-16.767 7.085-21.017 15.822-1.181-.708-2.362-1.18-3.543-1.653-10.863-4.25-21.962-1.653-25.032 5.904-1.18 2.834-.944 5.904.473 8.974-7.793-.709-14.642 2.361-16.767 7.793 0 .236-.236.472-.236.944-1.181 0-2.362.236-3.542.236-2.362-7.084-12.044-11.099-22.671-9.446-2.597.473-4.959 1.181-7.084 2.126-4.251-8.502-12.044-13.461-18.656-11.335-1.889.472-3.306 1.417-4.723 2.597z" fill="#AFDDAB"/><path d="M963.397 636.987l34-193s-98-15-140-15c-235.096 0-345.147-10.683-580 0-69.562 3.165-178 10.5-178 10.5v197.5h864z" fill="#7CC076"/><path d="M1225.4 479.987H68.397v165.208H1225.4V479.987z" fill="#C4CDDF"/><path d="M1225.4 487.987H68.397v14.937H1225.4v-14.937z" fill="#767D86"/><path d="M1225.4 479.916H68.397v7.904H1225.4v-7.904z" fill="#E7EEF6"/><path d="M1225.4 484.987H68.397v2.833H1225.4v-2.833z" fill="#CCC"/><path d="M151.187 566.807l31.368 6.18H68.397v-6.18h82.79zm1074.213 6.18v-6.18h-48.85l31.36 6.18h17.49zm-112.87-6.18l31.36 6.18h-128.3l-31.363-6.18h128.303zm-192.324 0l31.368 6.18H823.275l-31.367-6.18h128.298zm-192.319 0l31.368 6.18H630.956l-31.367-6.18h128.298zm-192.062 0l31.368 6.18H438.894l-31.367-6.18h128.298zm-192.319 0l31.368 6.18H246.575l-31.367-6.18h128.298z" fill="#fff"/></g><path fill-rule="evenodd" clip-rule="evenodd" d="M563.025 534.74c148.68 0 269.797-3.785 269.797-8.516s-121.275-8.516-269.797-8.516c-148.523 0-269.798 3.785-269.798 8.516-.157 4.574 121.118 8.516 269.798 8.516z" fill="#68667B" opacity=".75"/><path fill-rule="evenodd" clip-rule="evenodd" d="M623.505 433.967c26.46-.789 38.115 17.032 38.272 47.154 0 29.964-21.577 49.046-43.942 47.153-22.365-1.892-39.848-21.132-38.273-47.153 1.575-26.022 17.483-46.366 43.943-47.154z" fill="#231F20"/><path fill-rule="evenodd" clip-rule="evenodd" d="M635.002 439.644c13.703 0 24.57 14.825 26.617 34.695.158 2.208.158 4.416.158 6.782 0 25.863-16.065 45.892-34.65 46.68-14.017-2.838-23.94-21.448-22.995-43.842 1.102-24.444 14.963-44.315 30.87-44.315z" fill="#383431"/><path fill-rule="evenodd" clip-rule="evenodd" d="M635.16 445.164c12.915 0 25.199 16.086 22.364 39.741-2.835 23.656-14.804 33.592-26.144 34.853-11.34 1.42-22.838-16.086-21.893-35.956.788-19.714 12.758-38.638 25.673-38.638z" fill="#A7A9AC"/><path fill-rule="evenodd" clip-rule="evenodd" d="M635.002 450.526c11.183 0 21.578 13.878 19.215 34.222-2.362 20.344-12.758 28.86-22.523 29.964-9.765 1.104-19.53-13.878-18.742-30.91.63-17.032 10.867-33.276 22.05-33.276z" fill="#6D6E71"/><path fill-rule="evenodd" clip-rule="evenodd" d="M387.412 433.967c26.46-.789 38.115 17.032 38.273 47.154 0 29.964-21.578 49.046-43.943 47.153-22.365-1.892-39.847-21.132-38.272-47.153 1.575-26.022 17.482-46.366 43.942-47.154z" fill="#231F20"/><path fill-rule="evenodd" clip-rule="evenodd" d="M398.91 439.644c13.702 0 24.57 14.825 26.617 34.695.158 2.208.158 4.416.158 6.782 0 25.863-16.065 45.892-34.65 46.68-14.018-2.838-23.94-21.448-22.995-43.842 1.102-24.444 14.962-44.315 30.87-44.315z" fill="#383431"/><path fill-rule="evenodd" clip-rule="evenodd" d="M399.067 445.164c12.915 0 25.2 16.086 22.365 39.741-2.835 23.656-14.805 33.592-26.145 34.853-11.34 1.42-22.837-16.086-21.892-35.956.787-19.714 12.6-38.638 25.672-38.638z" fill="#A7A9AC"/><path fill-rule="evenodd" clip-rule="evenodd" d="M398.91 450.526c11.182 0 21.577 13.878 19.215 34.222-2.363 20.344-12.758 28.86-22.523 29.964-9.765 1.104-19.53-13.878-18.742-30.91.63-17.032 10.867-33.276 22.05-33.276z" fill="#6D6E71"/><path fill-rule="evenodd" clip-rule="evenodd" d="M426.945 506.511h316.417c13.703-1.893 53.393-3.785 67.095-5.677 16.538-60.244-27.562-76.645-58.747-92.1H412.297l-84.105 92.1c24.255 4.731 65.835 5.677 98.753 5.677z" fill="#58595B"/><path fill-rule="evenodd" clip-rule="evenodd" d="M304.567 442.956c3.623-12.932 11.183-20.186 17.798-24.602 37.327-12.932 92.137-21.763 129.937-28.86 49.298-2.681 101.745-1.893 136.71 5.046-24.255 25.864-65.835-3.942-103.792 31.384 21.892 16.401-56.858 61.032-66.15 74.91H308.505c-.63-2.524-1.418-5.362-2.048-8.359h1.418c-.63-2.996-.945-5.993-1.575-8.674h-1.733c-2.52-13.878-3.622-29.963 0-40.845z" fill="#E2304D"/><path fill-rule="evenodd" clip-rule="evenodd" d="M766.83 433.967c26.46-.789 38.115 17.032 38.272 47.154 0 29.964-21.577 49.046-43.942 47.153-22.365-1.892-39.848-21.132-38.273-47.153 1.575-26.022 17.483-46.366 43.943-47.154z" fill="#231F20"/><path fill-rule="evenodd" clip-rule="evenodd" d="M778.327 439.644c13.703 0 24.57 14.825 26.618 34.695.157 2.208.157 4.416.157 6.782 0 25.863-16.065 45.892-34.65 46.68-14.017-2.838-23.94-21.448-22.995-43.842 1.103-24.444 14.963-44.315 30.87-44.315z" fill="#414042"/><path fill-rule="evenodd" clip-rule="evenodd" d="M778.485 445.164c12.915 0 25.2 16.086 22.365 39.741-2.835 23.656-14.805 33.592-26.145 34.853-11.34 1.42-22.838-16.086-21.893-35.956.945-19.714 12.758-38.638 25.673-38.638z" fill="#E2E3E4"/><path fill-rule="evenodd" clip-rule="evenodd" d="M778.485 445.164c7.402 0 14.647 5.204 18.9 14.036 1.26 5.204 1.575 11.039.787 17.505-2.835 23.182-14.805 32.802-26.145 34.222-6.772.788-13.702-5.047-17.955-14.036-1.102-4.258-1.575-8.831-1.417-13.563 1.102-19.555 12.915-38.164 25.83-38.164z" fill="#BCBEC0"/><path fill-rule="evenodd" clip-rule="evenodd" d="M772.972 499.099c-.472 4.416-.472 9.936-1.102 14.194 3.15 0 6.142-1.262 8.82-3.47-.158-3.785-2.993-8.043-6.3-11.197-.315-.315-.63-.315-.945-.158-.158 0-.473.316-.473.631zm7.088-8.989c.157 1.419 4.095 7.885 6.142 9.777.158.158.473.316.788.158.315 0 .472-.315.63-.473a46.416 46.416 0 002.677-8.989c.158-.473-.157-.789-.472-.946-3.623-1.42-6.773-1.42-9.135-.316-.473.158-.63.473-.63.789zm1.575-10.409c3.307.473 6.772.789 9.922 1.577.158-4.258-.157-8.043-.945-11.512-4.882 3.785-8.662 7.412-8.977 9.935zm-3.308-25.706l-1.575 12.144c0 .315.158.631.315.788.315.158.63.316.788.158 2.992-1.104 5.67-3.47 8.032-6.466a.763.763 0 000-1.104c-1.89-2.839-4.095-4.889-6.615-6.15-.315-.158-.63-.158-.787 0 .157.157 0 .315-.158.63zm-17.482 8.043l7.087 6.309c2.835-.474 5.513-14.667 2.363-15.298-5.198-.946-7.718 3.943-9.765 7.885-.158.474 0 .947.315 1.104zm-2.835 8.674c2.205 2.681 4.095 5.677 3.937 8.989-.157 3.627-3.78 5.204-6.457 6.939-.315.158-.63.158-.788 0-.315-.157-.472-.315-.472-.631-.63-4.258 1.26-11.354 2.362-14.982.158-.315.315-.473.63-.63.315-.158.63 0 .788.315zm3.465 37.061c3.78-5.204 4.725-8.674 3.15-15.298-1.26-1.577-5.355 2.366-8.348 4.258-.315.158-.472.631-.472.947.945 3.785 2.52 7.096 4.252 10.093a.868.868 0 00.788.473c.157 0 .315-.158.63-.473z" fill="#A7A9AC"/><path fill-rule="evenodd" clip-rule="evenodd" d="M772.815 500.676c-.315 4.1-.473 8.831-.945 12.459.63 0 1.102 0 1.575-.158 1.417-.631 2.835-1.419 4.252-2.523 0-3.154-2.205-6.782-4.882-9.778zm7.245-10.566c.157 1.261 2.992 6.15 5.197 8.674.788-2.208 1.575-4.732 2.048-7.57.157-.473-.158-.789-.473-.947-2.205-.946-4.41-1.261-6.3-1.104-.315.316-.472.631-.472.947zm1.575-10.409c2.362.316 4.725.631 6.93.946 0-3.154-.158-5.992-.63-8.673-3.465 2.996-5.985 5.677-6.3 7.727zm-3.308-24.602l-1.417 11.039c0 .316 0 .631.315.789 2.205-1.262 4.095-3.154 6.142-5.52a.763.763 0 000-1.104c-1.575-2.208-3.307-3.942-5.04-5.204zm-17.482 6.939l5.985 5.205c2.047-3.943 3.15-12.932.63-13.405-.473-.158-.945-.158-1.26-.158-2.52 1.419-4.095 4.573-5.513 7.254-.315.474-.157.947.158 1.104zm-6.615 24.287c0-.158-.158-.158-.158-.316-.472-3.785.788-9.462 1.89-13.247 1.733 2.366 3.15 5.047 2.993 7.728-.158 2.838-2.52 4.415-4.725 5.835zm7.087 6.781c-1.575 1.104-3.622 2.681-5.197 3.627-.315.158-.473.631-.473.947.945 3.469 2.205 6.623 3.78 9.462 2.835-4.416 3.465-7.728 2.048-13.72 0-.158 0-.316-.158-.316z" fill="#58595B"/><path fill-rule="evenodd" clip-rule="evenodd" d="M770.61 476.389c-1.26.789-2.048 2.997-2.048 5.52 0 3.154 1.418 5.677 3.308 5.835-.315.158-.788.316-1.103.316-1.89 0-3.307-2.524-3.307-5.836-.158-3.311 1.417-5.835 3.15-5.835z" fill="#A7A9AC"/><path fill-rule="evenodd" clip-rule="evenodd" d="M772.342 485.852c1.26 0 2.205-1.735 2.205-3.943s-.945-3.942-2.205-3.942c-1.26 0-2.205 1.734-2.205 3.942-.157 2.208.945 3.943 2.205 3.943z" fill="#A7A9AC"/><g clip-path="url(#clip0)" fill-rule="evenodd" clip-rule="evenodd"><path d="M774.91 518.195c12.97.547 24.3-15.038 25.118-34.448.819-19.409-9.159-35.892-22.129-36.439-12.97-.547-24.3 15.038-25.119 34.447-.818 19.41 9.16 35.893 22.13 36.44z" fill="#D1D2D3"/><path d="M763.079 501.634c12.97.547 24.3-15.038 25.119-34.448.213-5.063-.054-9.724-1.266-14.002-2.691-2.227-5.434-3.188-8.677-3.325-12.043-.507-22.376 13.429-23.123 31.15-.302 7.174 1.248 14.425 3.814 19.605 1.354.903 2.744.961 4.133 1.02z" fill="#A7A8AB"/><path d="M791.994 487.213c-7.412-.312-14.021 2.368-14.181 6.165-.143 3.376 5.291 6.564 12.222 7.279 2.013-3.72 3.135-8.322 3.794-12.944-.446-.441-.909-.461-1.835-.5zm-.055-20.714c-6.521.57-11.26 2.907-11.402 6.282-.16 3.798 5.737 7.005 13.612 7.337l.463.02c-.25-5.083-1.461-9.361-2.673-13.639zm-16.926-16.777c-4.686 1.071-7.109 3.505-5.808 5.673 1.746 2.61 9.086 4.61 16.551 3.657.464.02 1.408-.363 1.871-.344-3.528-4.375-7.555-7.927-12.614-8.986zm.022 65.519c-6.432-1.539-10.476-4.668-8.517-7.122 1.96-2.454 9.442-3.829 16.8-2.251 1.39.059 2.299.52 3.207.981-3.402 3.661-7.25 6.88-11.49 8.392zm-14.611-16.678c6.022.254 11.42-6.705 11.811-15.987.374-8.861-4.401-16.671-10.423-16.925l-1.39-.059c-2.048 4.564-3.687 10.412-3.936 16.32-.249 5.907.892 11.873 3.012 16.612l.926.039z" fill="#6D6E71"/></g><path fill-rule="evenodd" clip-rule="evenodd" d="M395.13 446.898c32.445-49.361 159.547-48.415 176.557-46.523-8.662-12.301-72.607-12.301-122.85-10.25 18.113-12.301 44.1-28.545 77.49-38.165 21.42-6.151 61.425-5.677 88.2-4.731 41.265 1.577 90.72 4.573 116.235 12.301 14.49 4.416 29.925 24.917 36.225 34.379 5.67 8.517 37.013 4.574 47.723 11.513 15.277 9.935 14.332 29.964 12.285 54.25 11.025 1.262 8.82 16.086-1.26 36.903-3.78 0-14.49 4.101-18.27 4.101 10.867-107.082-81.585-81.691-76.388 0H553.575c18.112-101.247-74.813-110.394-80.483 0h-38.745c-11.182-20.344 25.358-48.1-5.985-47.785-34.02.473-34.965-3.312-33.232-5.993z" fill="#EC5F6B"/><path fill-rule="evenodd" clip-rule="evenodd" d="M586.335 401.795c.315-6.624 14.647-26.337 33.704-40.373 3.15-2.365 9.765-4.573 19.53-5.046 26.933-1.419 48.668-.158 75.6 8.201 8.663 2.68 32.13 37.533 20.79 37.849-39.217.473-110.407-.631-149.624-.631z" fill="#E11E3E"/><path fill-rule="evenodd" clip-rule="evenodd" d="M451.042 474.655c-14.49 11.039-28.35 20.974-31.815 26.179H308.505c-.63-2.524-1.418-5.362-2.048-8.359h1.418c-.63-2.996-.945-5.993-1.575-8.674h-1.733l-1.417-8.989h147.892v-.157z" fill="#EC5F6B"/><path fill-rule="evenodd" clip-rule="evenodd" d="M320.79 452.734c21.893 0 39.109.157 68.985.157 2.677-7.412 10.08-17.663 20.632-25.233h-91.665c2.835 5.52 4.725 15.456 2.048 25.076z" fill="#58595B"/><path fill-rule="evenodd" clip-rule="evenodd" d="M316.537 422.77c34.02-.158 85.213-.322 107.231 0 25.894 0 34.94.846 39.124 5.03l-46.5-3.296h-101.43c.473-.63 1.103-1.104 1.575-1.734z" fill="#EC5F6B"/><path fill-rule="evenodd" clip-rule="evenodd" d="M435.45 481.594c-2.835 4.415-2.363 9.777-3.308 14.351H307.087l-.945-3.312h1.575c-.63-2.997-.945-5.993-1.575-8.674h-1.575c-.157-.631-.315-1.104-.315-1.735l131.198-.63z" fill="#58595B"/><path fill-rule="evenodd" clip-rule="evenodd" d="M308.347 495.629h136.868c2.835 0 5.197 1.262 5.197 2.681s-2.362 2.681-5.197 2.681H308.347c-2.835 0-5.197-1.262-5.197-2.681 0-1.577 2.362-2.681 5.197-2.681z" fill="#EC5F6B"/><path fill-rule="evenodd" clip-rule="evenodd" d="M303.307 454.784h92.453c2.205 0 4.095 1.892 4.095 4.1v13.878c0 2.208-1.89 4.1-4.095 4.1h-92.453c-2.205 0-4.095-1.892-4.095-4.1v-13.878c0-2.208 1.89-4.1 4.095-4.1z" fill="#E2304D"/><path fill-rule="evenodd" clip-rule="evenodd" d="M399.54 474.655c-.63 1.261-2.048 2.207-3.623 2.207h-92.61c-1.575 0-2.992-.946-3.622-2.207h99.855z" fill="#E11E3E"/><path fill-rule="evenodd" clip-rule="evenodd" d="M460.492 388.548c10.395-10.409 42.525-26.495 73.237-32.172 32.603-4.258 54.653-1.893 80.01 1.104-15.277 10.881-26.46 24.286-41.895 35.168-36.697-7.728-81.585-7.097-111.352-4.1z" fill="#EDFEFF"/><path fill-rule="evenodd" clip-rule="evenodd" d="M589.957 400.691c.315-6.15 14.017-24.444 32.13-37.534 2.992-2.208 9.293-4.258 18.585-4.731 25.673-1.262 46.463-.158 72.135 7.57 8.19 2.523 30.713 34.853 19.688 35.168-37.328.631-105.21-.473-142.538-.473z" fill="#82ADB1"/><path fill-rule="evenodd" clip-rule="evenodd" d="M589.957 400.691c.158-5.047 9.293-17.978 22.523-29.806 12.285 9.304 27.72 28.071 19.215 29.964-15.75 0-30.24-.158-41.738-.158zm53.392-42.423c24.413-1.104 44.73.158 69.458 7.728 5.67 1.735 18.113 17.663 21.735 27.441h-61.268c-5.985 0-13.702-4.889-16.852-11.04l-13.073-24.129z" fill="#C0D8DA"/><path fill-rule="evenodd" clip-rule="evenodd" d="M645.082 358.268c11.97-.473 22.837-.315 34.02.789l-20.633 42.107c-11.655-.158-23.309-.158-34.177-.315l20.79-42.581zm42.053 1.893c7.56 1.104 15.119 2.838 23.152 5.204l-17.64 35.957c-8.347 0-17.01 0-25.673-.158l20.161-41.003z" fill="#ABE1E1"/><path fill-rule="evenodd" clip-rule="evenodd" d="M299.212 458.096l72.765-.001 103.005.001v1.577h-175.77v-1.577z" fill="#EC5F6B"/><path fill-rule="evenodd" clip-rule="evenodd" d="M380.01 474.812h89.775l-2.363 6.308c-35.28-5.046-57.172-3.469-87.412-4.731v-1.577z" fill="#E11E3E"/><path fill-rule="evenodd" clip-rule="evenodd" d="M599.407 384.605l4.882 16.086h-14.49c.315-3.47 2.835-9.462 9.608-16.086z" fill="#576578"/><path fill-rule="evenodd" clip-rule="evenodd" d="M602.557 382.082h21.578c4.567 0 6.772 11.985 4.252 14.982-.63.631-1.418.788-2.363.946-6.3 1.104-18.427 2.839-24.097 1.419-8.033-2.05-5.985-9.62-1.89-16.086.63-.788 1.575-1.261 2.52-1.261z" fill="#EC5F6B"/><path fill-rule="evenodd" clip-rule="evenodd" d="M602.557 382.082h21.578c3.78 0 5.827 7.727 5.197 12.301-8.505.946-19.057 1.577-24.727.473-5.198-.946-7.245-3.312-7.245-5.993.63-1.892 1.575-3.627 2.835-5.52.472-.788 1.417-1.261 2.362-1.261zM383.16 461.88l88.2-2.207v1.577l-90.09 5.677 1.89-5.047zm33.705-38.795c19.53 0 41.052-2.07 46.777 4.889 29.925-11.828 71.978-14.667 110.093-16.874h244.282c-5.985-2.366-6.93-6.939-17.955-7.255-72.45-.473-171.99-.946-244.44-1.419-60.007 1.892-109.305 9.778-138.757 20.659zm-95.288 14.036H400.8v2.523h-79.223v-2.523z" fill="#E2304D"/><path fill-rule="evenodd" clip-rule="evenodd" d="M399.225 483.802h20.947a2.488 2.488 0 012.52 2.523v3.785a2.49 2.49 0 01-2.52 2.523h-20.947a2.49 2.49 0 01-2.52-2.523v-3.785c.157-1.42 1.26-2.523 2.52-2.523z" fill="#414042"/><path fill-rule="evenodd" clip-rule="evenodd" d="M402.69 483.802h17.482c1.26 0 2.363.946 2.363 2.05v3.311c0 1.104-1.103 2.051-2.52 2.051H402.69c-1.418 0-2.52-.947-2.52-2.051v-3.311c.157-1.104 1.102-2.05 2.52-2.05z" fill="#EEE6D4"/><path fill-rule="evenodd" clip-rule="evenodd" d="M402.69 483.802h17.482c1.26 0 2.363.946 2.363 2.05v.63H400.17v-.63c.157-1.104 1.102-2.05 2.52-2.05z" fill="#D2C8AD"/><path fill-rule="evenodd" clip-rule="evenodd" d="M304.725 483.802h15.435a2.49 2.49 0 012.52 2.523v3.785a2.49 2.49 0 01-2.52 2.523H306.3l1.26-1.577c1.26-1.419-.945-5.52-1.26-7.097l-1.575-.157z" fill="#414042"/><path fill-rule="evenodd" clip-rule="evenodd" d="M306.3 483.802h14.017c1.26 0 2.205.946 2.205 2.05v3.311c0 1.104-.945 2.051-2.205 2.051h-12.915c-.315-2.366-.63-4.889-1.102-7.412z" fill="#EEE6D4"/><path fill-rule="evenodd" clip-rule="evenodd" d="M306.3 483.802h14.017c1.26 0 2.205.946 2.205 2.05v.63h-15.75c-.157-.946-.315-1.734-.472-2.68z" fill="#D2C8AD"/><path fill-rule="evenodd" clip-rule="evenodd" d="M321.262 441.694c28.165-.63 57.595 0 75.758 0v2.523h-75.758v-2.523z" fill="#E2304D"/><path fill-rule="evenodd" clip-rule="evenodd" d="M665.557 356.849l5.67 44.473 7.56-.158-7.875-45.104-5.355.789z" fill="#E11E3E"/><path fill-rule="evenodd" clip-rule="evenodd" d="M667.447 355.745l5.985 47.469 7.403-.157-8.033-48.1-5.355.788z" fill="#EC5F6B"/><path fill-rule="evenodd" clip-rule="evenodd" d="M463.485 431.286c.787 13.089-16.538 18.293-26.618 19.082-11.182.788-21.262.946-33.075 0-2.047-.158-5.355-2.523-4.41-4.573 12.915-24.445 63.473-25.549 64.103-14.509zm-148.365-6.782c3.622 6.151 6.457 12.617 6.3 21.133 0 1.262-.63 2.365-1.733 3.154a5.966 5.966 0 01-4.095 1.104c-4.41-.315-8.505 0-12.757.946a38.67 38.67 0 011.732-7.885c2.205-7.57 5.67-13.563 10.553-18.452z" fill="#E11E3E"/><path fill-rule="evenodd" clip-rule="evenodd" d="M304.567 442.956c2.048-7.412 4.883-12.459 9.608-17.506 3.307 6.151 5.197 11.671 5.985 20.187.472 4.415-2.835 6.15-3.78 5.992-4.568-.315-9.135-1.577-13.545-.157.315-2.997.787-5.993 1.732-8.516z" fill="#EC5F6B"/><path fill-rule="evenodd" clip-rule="evenodd" d="M302.835 450.683c4.41-1.892 8.19-2.681 12.6-2.208 1.102.158 2.047-.157 2.835-.946.787-.788 1.102-1.577 1.26-2.681 0-7.57-2.048-13.089-4.883-18.609-5.512 6.308-9.607 16.086-11.812 24.444z" fill="#FFFCD5"/><path fill-rule="evenodd" clip-rule="evenodd" d="M303.307 447.845c4.41-1.735 8.663-1.42 13.388-.789 1.102.158 1.575 0 2.362-.788.788-.789.315-2.051.315-3.155.158-7.727-2.205-12.143-4.882-16.874-5.198 5.52-8.82 10.882-11.183 21.606z" fill="#EEE6D4"/><path fill-rule="evenodd" clip-rule="evenodd" d="M319.372 440.59c-.945-5.519-2.992-10.881-5.197-14.982-3.308 3.312-5.828 7.097-8.033 12.775 4.253.946 8.19 1.734 13.23 2.207z" fill="#D2C8AD"/><path fill-rule="evenodd" clip-rule="evenodd" d="M318.742 435.701c.63 3.154.788 6.624.473 10.093-.63.631-1.418 1.104-2.205 1.262-.788-.158-1.418-.158-2.205-.315-2.363-1.104-4.095-4.416-4.095-8.516 0-4.732 2.205-8.517 5.197-8.832 1.103 2.05 2.048 4.1 2.835 6.308z" fill="#fff"/><path fill-rule="evenodd" clip-rule="evenodd" d="M316.38 432.074c.315 0 .63 0 .945.158.472 1.104.945 2.365 1.417 3.469.315 2.05.63 4.258.63 6.624-.787 1.419-1.89 2.208-2.992 2.208-2.205 0-3.938-2.839-3.938-6.309 0-3.311 1.733-6.15 3.938-6.15z" fill="#DAD9D4"/><path fill-rule="evenodd" clip-rule="evenodd" d="M322.875 458.075l52.902.005c1.992-.011 3.696 1.575 3.759 3.719l-.079 11.021c.012 1.994-1.72 3.749-3.713 3.76l-52.901-.005c-1.993.011-3.697-1.575-3.76-3.719l.08-11.021c.085-2.194 1.669-3.898 3.712-3.76z" fill="#EAEEF0"/><path fill-rule="evenodd" clip-rule="evenodd" d="M324.179 459.464l49.913.022c1.494-.008 2.795.882 3.201 2.076-.65-.445-1.399-.69-2.246-.735l-49.913-.022c-1.844-.04-3.528 1.366-3.468 3.011l.009 9.325c-.047.349.105.797.206 1.096-.701-.595-1.155-1.44-1.11-2.288l-.009-9.325c.038-1.845 1.573-3.2 3.417-3.16z" fill="#B2C7CF"/><path fill-rule="evenodd" clip-rule="evenodd" d="M611.534 359.057c-14.175 10.566-24.885 23.183-39.532 33.433-36.855-7.569-81.743-6.939-111.51-4.1 34.65-20.344 109.147-34.537 151.042-29.333z" fill="#ADE3E3"/><path fill-rule="evenodd" clip-rule="evenodd" d="M572.002 392.49c-.63-.157-1.103-.157-1.733-.315l-1.732-.316c-1.103-.157-2.363-.473-3.465-.63h-.158l-1.732-.316h-.158l-1.732-.315c-1.103-.158-2.048-.316-3.15-.473h-.788l-3.307-.473-1.575-.158-1.575-.158h-.158l-1.26-.157-.787-.158-1.575-.158h-.158c-1.102-.158-2.362-.315-3.465-.315h-.157l-1.103-.158h-.787l-1.103-.158h-.63l-1.26-.157h-.472l-1.733-.158c-1.732-.158-3.465-.316-5.197-.316h-35.123c-1.732 0-3.307 0-4.882.158h-.315c-1.103 0-2.048 0-3.15.158h-.158c-1.102 0-2.205 0-3.15.158-8.347.315-16.065.946-22.995 1.577 17.798-8.201 46.463-16.402 74.025-20.817 25.515-2.839 47.565-3.312 68.04-2.366-10.237 7.885-19.53 17.663-31.342 26.021z" fill="#9AC7C7"/><path fill-rule="evenodd" clip-rule="evenodd" d="M724.619 497.206l-166.95-.473-.472-5.046 167.895-.631-.473 6.15z" fill="#E2304D"/><path fill-rule="evenodd" clip-rule="evenodd" d="M589.957 400.691c6.3 29.648 6.93 71.913-.63 100.143h77.332c11.34-18.767 20.79-40.058 22.523-69.548 1.102-13.09-7.718-23.814-16.38-30.28l-82.845-.315z" fill="#E11E3E"/><path fill-rule="evenodd" clip-rule="evenodd" d="M591.375 401.006c6.615 27.441 8.032 69.706-.473 99.828h73.553c8.505-30.437 24.727-88.631 6.93-99.512l-80.01-.316z" fill="#EC5F6B"/><path fill-rule="evenodd" clip-rule="evenodd" d="M593.422 411.099h87.255c-2.205-2.996-4.568-5.519-7.245-7.727l-81.743-.789c.473 2.366 1.103 5.362 1.733 8.516z" fill="#6EB8C0"/><path fill-rule="evenodd" clip-rule="evenodd" d="M672.96 400.849c16.065 18.924 1.417 67.024-8.505 99.985h61.267c-3.465-33.434 10.238-58.194 26.933-69.864 1.102-12.774-7.403-23.34-15.75-29.806l-63.945-.315z" fill="#E11E3E"/><path fill-rule="evenodd" clip-rule="evenodd" d="M673.59 401.322c16.695 13.72 3.465 66.394-6.93 99.512h57.172c-3.465-33.434 9.923-58.194 26.775-69.864 1.103-12.774-7.402-23.34-15.75-29.806H673.59v.158z" fill="#EC5F6B"/><path fill-rule="evenodd" clip-rule="evenodd" d="M554.397 429.987h195.77c0 .474-4.27 4.527-4.27 5l-110.453-3.423h-81.047v-1.577z" fill="#E2304D"/><path fill-rule="evenodd" clip-rule="evenodd" d="M672.96 420.089l.315 1.261c.63 2.366-.945 4.258-3.15 4.258h-7.56c-2.363 0-4.725-1.892-5.198-4.258l-.315-1.261h15.908z" fill="#E11E3E"/><path fill-rule="evenodd" clip-rule="evenodd" d="M653.902 416.619h18.9c.472 0 1.103.473 1.103.946l.472 1.735c.157.473-.157.946-.63.946h-18.9c-.472 0-1.102-.473-1.102-.946l-.473-1.735c-.157-.63.158-.946.63-.946z" fill="#E2304D"/><path fill-rule="evenodd" clip-rule="evenodd" d="M741.157 420.089l.315 1.261c.63 2.366-.945 4.258-3.15 4.258h-7.56c-2.362 0-4.725-1.892-5.197-4.258l-.315-1.261h15.907z" fill="#E11E3E"/><path fill-rule="evenodd" clip-rule="evenodd" d="M722.1 416.619H741c.472 0 1.102.473 1.102.946l.473 1.735c.157.473-.158.946-.63.946h-18.9c-.473 0-1.103-.473-1.103-.946l-.472-1.735c-.158-.63.157-.946.63-.946zm-42.525-5.52h64.89c-2.048-2.838-4.568-5.519-7.088-7.727-20.16-.158-41.107-.158-61.897-.316 1.732 2.051 3.15 4.732 4.095 8.043zm-86.153 0h84.735c-.63-3.785-2.363-5.992-4.725-8.043-28.035-.157-55.913-.315-81.743-.473.63 2.681 1.26 5.52 1.733 8.516zm130.095 86.107l-55.755-.157c.63-1.893 1.103-3.785 1.733-5.835l53.707-.158c.158 2.05.158 4.1.315 6.15zm-58.117-.157l-73.553-.158c.473-1.735.787-3.47 1.26-5.362l74.025-.315c-.63 2.05-1.26 3.942-1.732 5.835zm142.537-35.642H822.9c6.615 1.262 8.977 3.47 9.607 5.362l-22.68 2.051-1.89-7.413z" fill="#E2304D"/><path fill-rule="evenodd" clip-rule="evenodd" d="M463.485 430.97c.63 12.459-15.908 17.506-25.515 18.136-10.71.789-20.318.947-31.658 0-2.047-.157-5.197-2.523-4.095-4.415 12.285-23.341 60.638-24.287 61.268-13.721z" fill="#58595B"/><path fill-rule="evenodd" clip-rule="evenodd" d="M464.141 430.695c.744 12.396-15.927 17.405-25.564 18.245-10.694.862-20.413 1.139-31.847.254-2.045-.097-5.332-2.355-4.244-4.282 12.141-23.391 60.946-24.852 61.655-14.217z" fill="#FFFCD5"/><path fill-rule="evenodd" clip-rule="evenodd" d="M464.141 430.695c.11 1.972-.206 3.742-.875 5.519-4.728 6.66-15.941 9.719-23.33 10.229-10.694.862-20.413 1.139-31.847.254-1.835-.173-4.906-2.153-4.379-3.998 13.944-21.313 59.73-22.286 60.431-12.004z" fill="#EEE6D4"/><path fill-rule="evenodd" clip-rule="evenodd" d="M464.141 430.695c.014.705.028 1.41-.025 2.257-8.936 4.139-21.85 6.741-36.365 6.838-7.186.083-14.034-.548-20.185-1.545 17.065-16.866 55.962-16.917 56.575-7.55z" fill="#D2C8AD"/><path fill-rule="evenodd" clip-rule="evenodd" d="M464.141 430.695c.552 9.861-9.914 15.021-19.103 17.12 1.166-5.032 3.315-10.296 6.1-15.433 1.427-2.64 3.138-5.145 4.856-7.297 4.742 1.027 8.022 2.932 8.147 5.61z" fill="#FBD55B"/><path fill-rule="evenodd" clip-rule="evenodd" d="M464.141 430.695c.11 1.972-.206 3.742-.875 5.519-3.632 5.085-10.971 8.062-17.567 9.471 1.181-4.327 3.066-8.669 5.514-13.093 1.426-2.64 3.137-5.145 4.856-7.297 4.667.817 7.947 2.722 8.072 5.4z" fill="#F58220"/><path fill-rule="evenodd" clip-rule="evenodd" d="M464.141 430.695c.014.705.028 1.409-.025 2.257a68.127 68.127 0 01-15.479 4.702c.811-1.71 1.623-3.42 2.643-5.205 1.427-2.64 3.138-5.145 4.856-7.297 4.6.96 7.88 2.865 8.005 5.543z" fill="#D7662C"/><path fill-rule="evenodd" clip-rule="evenodd" d="M433.653 428.451c3.312.001 6.005 4.245 6.112 9.532-.035 5.22-2.625 9.577-5.937 9.577-3.312 0-6.005-4.245-6.112-9.532.035-5.22 2.625-9.577 5.937-9.577z" fill="#fff"/><path fill-rule="evenodd" clip-rule="evenodd" d="M433.71 431.271c2.255.023 4.358 2.94 4.294 6.75.004 3.667-1.835 6.809-4.233 6.719-2.256-.022-4.358-2.94-4.294-6.749.064-3.81 1.977-6.742 4.233-6.72z" fill="#DAD9D4"/><path fill-rule="evenodd" clip-rule="evenodd" d="M210.195 368.02l-1.715-8.4c7.92-4.866 11.759-8.657 15.318-17.484 6.611-7.564 6.298-18.24 5.597-28.36-.683-9.847-2.882-23.8-7.54-33.054l7.388 3.37c13.204 38.248 11.436 34.144 7.912 49.848-3.59 15.848 1.643 8.444-26.96 34.08z" fill="#8D533B"/><path fill-rule="evenodd" clip-rule="evenodd" d="M206.397 474.019c36.371 0 66-2.007 66-4.516s-29.667-4.516-66-4.516-66 2.007-66 4.516c-.038 2.426 29.629 4.516 66 4.516z" fill="#68667B" fill-opacity=".5" opacity=".75"/><path fill-rule="evenodd" clip-rule="evenodd" d="M217.419 470.067h-29.578c-2.674 0-4.595-2.574-3.835-5.138l5.111-17.223 1.758-29.529 4.179-25.687 6.93 10.903 4.095-5.871 7.402 5.032 3.938 67.513zm-17.469-115.11c-36.773-31.482-21.602-21.801-25.294-38.026-7.034-20.677-1.535-34.631 5.85-48.92l5.816 4.73c-6.262 12.205-8.233 27.925-5.113 41.985 3.119 14.061-6.078 9.699 21.645 32.726l-2.904 7.505z" fill="#AA7244"/><path fill-rule="evenodd" clip-rule="evenodd" d="M224.494 467.067a3 3 0 01-3 3h-12.58l3.78-31.852-6.615-40.693 6.615 5.032h6.615v20.193l5.185 31.638v12.682z" fill="#8D533B"/><path fill-rule="evenodd" clip-rule="evenodd" d="M212.351 361.484c-53.719 2.219-34.035-.974-47.854-13.044-13.819-12.071-17.218 10.87-25.502-51.449l8.488-.796c2.988 57.494 10.096 33.712 21.759 44.25 11.767 10.311 1.018 15.458 40.973 11.278l2.136 9.761z" fill="#AA7244"/><path fill-rule="evenodd" clip-rule="evenodd" d="M218.82 402.702l-11.334 4.782-4.286 2.773-5.035-8.604-3.791-2.701 6.576-160.555 13.831.056 4.039 164.249z" fill="#AA7244"/><path fill-rule="evenodd" clip-rule="evenodd" d="M219.339 403.075l-11.67 4.376 6.749-21.999-5.348-18.31-2.798-39.468 6.29-29.491-2.274-60.24 6.276-.057 2.775 165.189zm11.584-55.334l5.234-17.863c29.113-2.202 66.801-23.394 71.311-37.707 4.509-14.313 3.932-30.758-1.526-44.019l3.05-2.071c8.019 4.604 12.653 33.955 3.95 51.241-10.127 20.111-18.248 28.367-82.019 50.419z" fill="#8D533B"/><path fill-rule="evenodd" clip-rule="evenodd" d="M317.649 191.541c11.706.07 18.554 14.356 15.135 31.968-3.418 17.612-15.635 31.797-27.35 31.95-11.706-.069-18.554-14.356-15.135-31.967 3.311-17.727 15.644-32.021 27.35-31.951z" fill="#7CC076"/><path fill-rule="evenodd" clip-rule="evenodd" d="M329.983 233.225c-5.256 12.865-15.07 22.227-24.549 22.234-11.483-.062-18.232-14.01-15.275-31.192 5.256-12.865 15.07-22.227 24.549-22.234 11.484.062 18.233 14.01 15.275 31.192z" fill="#A1E79B"/><path fill-rule="evenodd" clip-rule="evenodd" d="M343.931 217.426c8.229 3.741 8.574 15.907.586 27.228-7.882 11.437-20.925 17.565-29.27 13.932-8.229-3.741-8.574-15.907-.586-27.228 7.989-11.321 21.032-17.45 29.27-13.932z" fill="#BAFCB4"/><path fill-rule="evenodd" clip-rule="evenodd" d="M284.591 181.789c3.892-4.014 6.172-9.748 6.166-16.746.205-16.057-11.427-33.356-27.189-41.796 2.078-3.196 3.378-7.291 3.389-12.062.146-12.719-8.2-26.416-19.72-33.612 3.489-18.214-13.118-37.935-39.587-37.935-15.304-5.087-18.899 31.857-24.911 44.633-15.94-13.695-38.269-5.192-34.791 36.425-26.853 7.279-23.359 47.689-19.183 79.308-42.038-12.455-50.783 80.846 7.784 107.949 12.797 10.894 38.47 7.612 53.892 12.782 15.304 5.086 67.757 6.769 76.516-24.705 0 0 39.042-3.99 23.8-49.836 10.673-16.405 22.247-39.443-6.166-64.405z" fill="#7CC076"/><path fill-rule="evenodd" clip-rule="evenodd" d="M143.27 303.38l.118.083.118.084.118.083.118.083.118.083.118.083.118.083.235.167.118.083.236.166.118.084.471.332.354.25c.236.166.589.416.77.66l.354.249.707.499.118.084.59.415.117.084c13.081 3.984 30.227-2.176 41.512-3.655 18.06 4.934 35.028-.345 43.205-15.439a25.961 25.961 0 002.038-4.39c16.99-14.821 24.63-33.907 19.996-43.355 3.155-1.97 5.76-4.911 7.712-8.429 7.692-14.154 1.962-35.564-12.628-50.171-.087-.877-.174-1.755-.379-2.715-.909-6.47-2.91-12.893-5.767-19.105 3.892-4.014 6.172-9.749 6.166-16.747.205-16.056-11.427-33.355-27.19-41.795 2.134-3.274 3.379-7.291 3.39-12.062.145-12.719-8.2-26.416-19.721-33.612-1.332-5.37-.421-11.507-3.12-16.441-23.354 8.303-23.354 25.949-19.257 31.89-23.818-5.422-48.211 18.163-35.957 49.46-26.853 7.278-44.95 32.308-28.31 62.897-39.994 14.043-35.217 92.833 23.296 120.014z" fill="#A1E79B"/><path fill-rule="evenodd" clip-rule="evenodd" d="M162.848 230.04c-7.437-2.74-7.316-16.572.349-30.873 7.656-14.436 20.041-23.931 27.479-21.191 7.438 2.74 7.316 16.572-.349 30.874-7.665 14.301-19.929 23.891-27.479 21.19zm31.054-70.986c-2.824-3.106-1.798-10.407 2.37-16.316 4.169-5.908 9.882-8.228 12.8-5.115 2.823 3.105 1.798 10.407-2.371 16.315-4.168 5.908-9.881 8.228-12.799 5.116zm-44.568 32.353c-8.197-.676-16.333-12.454-18.2-26.446-1.867-13.992 3.167-24.805 11.365-24.13 8.108.563 16.333 12.454 18.2 26.446 1.868 13.992-3.167 24.806-11.365 24.13zm26.888-49.62c-6.334-3.534-10.997-17.206-10.35-30.508.593-13.436 6.314-21.46 12.649-17.927 6.335 3.534 10.997 17.206 10.35 30.509-.647 13.302-6.247 21.433-12.649 17.926zm47.751 96.555c-6.297-2.429-7.638-12.307-3.048-22.124 4.59-9.817 13.349-15.815 19.646-13.386 6.296 2.429 7.638 12.307 3.048 22.124-4.542 9.73-13.349 15.815-19.646 13.386zm-45.675 52.507c-12.577 9.532-36.057 1.033-52.458-18.874-16.401-19.907-18.866-26.502-6.289-36.034 12.577-9.531 41.522-7.909 35.59 15.818 28.67 0 35.709 29.651 23.157 39.09z" fill="#BAFCB4"/><path d="M456.196 422.056s-7.359-.305-7.803-.657c-.444-.353-2.405-7.444-2.405-7.444s-.3 7.475-.646 7.926c-.347.451-7.329 2.442-7.329 2.442s7.249.217 7.68.469c.444.352 2.528 7.632 2.528 7.632s.3-7.475.647-7.926c.248-.439 7.328-2.442 7.328-2.442zm-5.644 23.834s2.5-2.72 2.778-2.776c.279-.056 3.63 1.489 3.63 1.489s-2.766-2.535-2.827-2.814c-.06-.278 1.438-3.597 1.438-3.597s-2.43 2.706-2.666 2.79c-.279.056-3.742-1.503-3.742-1.503s2.766 2.535 2.826 2.814c.088.237-1.437 3.597-1.437 3.597z" fill="#F6F6F5"/><path fill-rule="evenodd" clip-rule="evenodd" d="M722.397 485.987l-160-.373v-1.493l160-10.134v12z" fill="#fff" opacity=".65"/><path fill="#231F20" d="M454.892 525.38l14.473 5.063-4.456 12.737-14.473-5.063z"/><path fill-rule="evenodd" clip-rule="evenodd" d="M418.033 559.139c-48.613-.013-88.212-3.215-88.211-7.205.001-3.989 39.654-7.169 88.215-7.155 48.561.013 88.212 3.215 88.211 7.205.05 3.856-39.603 7.169-88.215 7.155z" fill="#68667B" opacity=".5"/><path fill-rule="evenodd" clip-rule="evenodd" d="M456.168 536.906c-2.895-.638-5.365 1.64-6.437 4.404-1.468 3.785-3.992 4.451-3.794 8.414.107 2.148 2.122 3.589 4.272 3.67l8.633.326h.008c.17.006 30.328 1.041 31.168-1.849.633-2.176-.109-3.554-1.195-4.674-.708-.729-1.699-1.088-2.704-1.233-2.906-.419-6.438-1.284-9.816-2.402a5.08 5.08 0 01-1.104-.531c-7.673-4.856-2.787.289-6.487-2.688a5.472 5.472 0 00-2.341-1.106c-3.156-.639-6.748-1.568-10.203-2.331z" fill="#C7C3C3"/><path fill-rule="evenodd" clip-rule="evenodd" d="M454.727 536.17c-2.909-.573-5.363 1.641-6.302 4.453-1.141 3.416-2.939 3.719-2.522 7.43.24 2.138 2.22 3.572 4.37 3.653l8.632.326h.009c.17.006 30.327 1.04 31.168-1.849.633-2.176-.109-3.554-1.196-4.674-.707-.729-1.698-1.088-2.704-1.233-2.935-.424-6.51-1.302-9.919-2.437-.316-.105-1.518-.83-1.798-1.01-2.94-1.881-10.722-3.127-14.173-3.653-1.829-.28-3.763-.651-5.565-1.006z" fill="#9A4413"/><path fill-rule="evenodd" clip-rule="evenodd" d="M450.186 536.737a1.024 1.024 0 00-1.007.906c-.818 6.543-2.834 5.399-2.799 9.787.006.738.821 1.154 1.454.774l7.059-4.238a1 1 0 01.514-.142h23.267c.781 0 1.118-.749.47-1.184-2.412-1.621-7.216-3.563-9.734-5.067-.603-.361-1.463-.13-1.716.525l-.194.502a1.002 1.002 0 01-1.107.625l-13.961-2.473a1.022 1.022 0 00-.174-.015h-2.072z" fill="#792C13"/><path fill-rule="evenodd" clip-rule="evenodd" d="M368.391 524.777c1.583-2.506.57-5.788-1.69-7.706-4.105-3.486-5.317-7.198-10.017-8.985-2.011-.765-4.137.448-5.088 2.378l-3.817 7.75-.004.008c-.074.152-13.315 27.268-11.019 29.213 1.73 1.466 3.29 1.35 4.755.814.955-.349 1.687-1.107 2.229-1.966 1.567-2.482 3.797-5.355 6.195-7.983.274-.3.594-.568.936-.787 7.797-4.999 5.602-1.348 10.568-3.39.807-.332 1.478-.927 1.966-1.651a319.285 319.285 0 004.986-7.695z" fill="#AFABAB"/><path fill-rule="evenodd" clip-rule="evenodd" d="M369.907 525.524c1.583-2.506.57-5.788-1.69-7.707-4.106-3.486-5.318-7.198-10.017-8.985-2.011-.764-4.138.449-5.088 2.379l-3.817 7.75-.004.007c-.075.153-13.315 27.268-11.019 29.214 1.729 1.465 3.29 1.349 4.755.814.954-.349 1.686-1.107 2.229-1.966 1.567-2.482 3.797-5.355 6.195-7.984.273-.299.594-.568.935-.787 7.798-4.999 5.603-1.347 10.568-3.389.808-.332 1.479-.927 1.966-1.651a324.401 324.401 0 004.987-7.695z" fill="#9A4413"/><path fill-rule="evenodd" clip-rule="evenodd" d="M373.005 520.53c-7.274-4.136-9.663-9.559-15.894-11.705l5.375 12.986-2.896 13.529c2.377-.307 3.164-1.396 5.745-2.525l4.62-7.325 3.05-4.96z" fill="#792C13"/><path fill-rule="evenodd" clip-rule="evenodd" d="M399.754 475.631c3.025.335 5.232 4.6 4.689 9.518-.544 4.918-3.44 8.619-6.654 8.264-3.025-.335-5.232-4.6-4.689-9.518.733-4.897 3.63-8.598 6.654-8.264z" fill="#fff"/><path fill-rule="evenodd" clip-rule="evenodd" d="M399.461 478.28c2.269.25 3.657 3.276 3.28 6.681-.376 3.405-2.391 6.054-4.66 5.803-2.268-.25-3.656-3.276-3.279-6.681.376-3.405 2.58-6.033 4.659-5.803z" fill="#D9D8D4"/><path fill-rule="evenodd" clip-rule="evenodd" d="M415.78 476.063c3.592.397 5.926 5.25 5.299 10.925-.628 5.675-3.965 9.901-7.557 9.504-3.592-.397-5.926-5.25-5.298-10.925.627-5.675 3.964-9.902 7.556-9.504z" fill="#fff"/><path fill-rule="evenodd" clip-rule="evenodd" d="M470.445 491.33c1.366-2.372.01-5.387-2.672-5.936-12.281-2.513-41.457-8.638-46.949-11.19-6.203-3.092-12.954-3.996-28.635-11.94a3.965 3.965 0 01-2.14-3.966l5.053-46.468c.315-2.894 3.518-4.494 6.02-3.006l20.438 12.143c.26.155.538.28.827.372l.997.319c1.337.426 2.258 1.586 2.93 2.817 3.293 6.04 11.852-3.302 11.873 5.2.008 3.07 2.759 5.828 5.829 5.884 18.978.347 38.015 23.846 46.697 28.547 4.986 2.762 17.956 10.175 13.64 20.098-7.633 17.553-25.561 43.772-31.368 52.086-1.081 1.546-3.088 2.089-4.818 1.337l-15.403-6.699a4 4 0 01-1.871-5.665l19.552-33.933z" fill="#2C2A3F"/><path fill-rule="evenodd" clip-rule="evenodd" d="M409.421 531.445s-24.376-66.043-22.234-73.196c2.214-6.69 7.211-28.003 12.238-36.317l40.96 41.027c-.971 7.747-5.374 6.759-4.035 25.742-1.066 8.69 5.372 47.307 1.656 57.346-4.924 6.911-7.271 10.41-13.343 9.459-24.936-3.908-66.805-18.077-66.805-18.077l7.009-25.492 34.884 4.661 9.67 14.847z" fill="#334866"/><path d="M403.519 514.466l-38.014-2.475-1.768 4.066 30.411 3.36 18.918 16.796-9.547-21.747z" fill="#2C2A3F"/><path fill-rule="evenodd" clip-rule="evenodd" d="M472.811 438.088c9.647 9.668 31.477 10.656 31.477 10.656l2.165-12.664s-20.826-21.619-26.224-29.913c-5.373-8.517-9.684-26.65-12.32-33.959-3.138-6.233-14.756 5.386-14.756 5.386s-1.066 38.509 19.658 60.494z" fill="#2C6F9A"/><path fill-rule="evenodd" clip-rule="evenodd" d="M402.631 357.903s4.36 17.001 3.453 25.906c-.901 8.663-10.367 41.181-10.367 41.181-.767 3.355 46.055 5.708 52.118 36.109-1.128-9.458 9.461-68.504 9.473-68.987.012-.482 7.46-22.397 7.46-22.397s2.39-13.776-18.383-20.295c-36.427-5.982-44.191 7.743-43.754 8.483z" fill="#3E7FA9"/><path fill-rule="evenodd" clip-rule="evenodd" d="M422.044 435.601c7.546.602 2.403 24.912 8.71 25.609l7.035.777.971.108c-.466-9.12 15.484-64.554 15.534-65.013.026-.23 2.584-12.27.743-17.821-14.104-14.58-35.513-14.156-40.678-5.194 0 0-8.245 3.506-13.35 5.267-.472 2.04-.7 4.108-1.095 5.459-1.642 8.189-1.456 39.831-1.456 39.831 8.803 11.436 11.483 9.407 23.586 10.977z" fill="#2C6F9A"/><path fill-rule="evenodd" clip-rule="evenodd" d="M455.911 361.802c-5.364 13.61-6.376 9.718-10.006 10.001-3.63.283-12.485-3.781-14.602-21.795 0 0 7.037-4.711 14.203-1.107 3.732 1.819 2.038 6.382 10.405 12.901z" fill="#2C2A3F"/><path fill-rule="evenodd" clip-rule="evenodd" d="M461.919 392.542c-18.662-3.592-30.815-7.898-43.244-14.114-5.283 21.841-11.303 39.668-19.178 57.145 11.769 14.042 29.517 20.336 45.362 14.188 5.488-14.428 13.004-39.065 17.06-57.219z" fill="#334866"/><path fill-rule="evenodd" clip-rule="evenodd" d="M467.254 365.609c-.078 11.593-3.43 23.388-7.947 35.338-1.928-1.673-3.667-3.324-5.595-4.997 5.931-12.657 8.558-24.826 7.91-36.792 1.898 1.959 3.765 4.205 5.632 6.451zm-43.371-16.947c4.103 6.878 1.887 22.755.153 36.198-2.207-.125-4.982.078-7.004-.036 1.975-14.66 1.853-27.827-2.09-34.204 2.862-2.054 6.723-1.837 8.941-1.958z" fill="#334866"/><path fill-rule="evenodd" clip-rule="evenodd" d="M448.616 400.133l-4.699 11.352-16.387-7.556 2.894-8.87 18.192 5.074z" fill="#E6E7E8"/><path fill-rule="evenodd" clip-rule="evenodd" d="M448.955 405.723c-7.54.699-14.998-2.806-21.806-7.005-2.6 7.946-4.823 14.21-7.424 22.156 7.69 4.871 15.063 7.409 21.449 8.498 2.791-4.478 5.371-12.235 7.781-23.649z" fill="#334866"/><path fill-rule="evenodd" clip-rule="evenodd" d="M427.338 398.738c-2.6 7.946-4.823 14.211-7.424 22.157 7.69 4.871 15.063 7.409 21.449 8.498-10.172-11.847-14.018-16.868-14.025-30.655z" fill="#2C2A3F"/><path fill-rule="evenodd" clip-rule="evenodd" d="M465.936 395.116c26.441-1.282 38.427 16.318 39.146 46.431.559 29.959-20.658 49.441-43.055 47.966-22.396-1.475-40.235-20.385-39.146-46.431 1.247-26.049 16.615-46.684 43.055-47.966z" fill="#231F20"/><path fill-rule="evenodd" clip-rule="evenodd" d="M477.538 400.578c13.7-.256 24.842 14.363 27.26 34.192.199 2.205.24 4.412.284 6.778.483 25.859-15.206 46.183-33.773 47.319-14.068-2.577-24.336-20.998-23.809-43.406.646-24.46 14.133-44.586 30.038-44.883z" fill="#414042"/><path fill-rule="evenodd" clip-rule="evenodd" d="M477.798 406.094c12.913-.241 25.496 15.612 23.103 39.317-2.393 23.704-14.176 33.862-25.49 35.335-11.312 1.63-23.134-15.657-22.56-35.542.577-19.728 12.035-38.869 24.947-39.11z" fill="#E2E3E4"/><path fill-rule="evenodd" clip-rule="evenodd" d="M477.798 406.094c7.401-.138 14.742 4.93 19.159 13.68 1.357 5.18 1.781 11.008 1.114 17.488-2.402 23.231-14.19 33.073-25.502 34.704-6.757.915-13.794-4.79-18.214-13.698-1.181-4.237-1.739-8.801-1.67-13.534.737-19.573 12.2-38.399 25.113-38.64z" fill="#BCBEC0"/><path fill-rule="evenodd" clip-rule="evenodd" d="M473.293 460.122c-.39 4.424-.287 9.943-.837 14.212 3.149-.059 6.118-1.376 8.754-3.634-.229-3.781-3.143-7.985-6.508-11.077-.321-.31-.636-.304-.948-.14-.158.003-.467.324-.461.639zm6.919-9.12c.184 1.417 4.241 7.808 6.324 9.662.16.154.478.306.79.143.315-.006.467-.325.621-.485a46.402 46.402 0 002.509-9.038c.149-.476-.172-.785-.49-.937-3.648-1.351-6.798-1.293-9.139-.145-.47.167-.621.485-.615.8zm1.38-10.436c3.316.412 6.786.662 9.95 1.392.078-4.26-.307-8.039-1.159-11.493-4.811 3.876-8.523 7.573-8.791 10.101zm-3.786-25.639l-1.349 12.17c.006.315.17.628.33.783.318.151.636.303.79.143 2.972-1.16 5.605-3.575 7.911-6.615a.763.763 0 00-.021-1.104c-1.942-2.803-4.185-4.811-6.728-6.026-.318-.152-.633-.146-.788.015.161.155.006.315-.145.634zm-17.33 8.368l7.204 6.174c2.826-.526 5.238-14.767 2.077-15.338-5.214-.849-7.643 4.086-9.616 8.066.009.473.017.946.335 1.098zm-2.672 8.725c2.254 2.639 4.2 5.6 4.104 8.914-.09 3.629-3.682 5.274-6.327 7.058-.312.164-.627.17-.787.015-.318-.152-.478-.307-.484-.622-.71-4.246 1.048-11.376 2.082-15.024.152-.318.306-.478.618-.642.312-.164.63-.012.794.301zm4.156 36.989c3.682-5.274 4.562-8.76 2.864-15.353-1.29-1.554-5.31 2.465-8.267 4.413-.312.163-.461.639-.455.955 1.016 3.766 2.495 7.051 4.44 10.012a.868.868 0 00.797.458c.157-.003.312-.164.621-.485z" fill="#A7A9AC"/><path fill-rule="evenodd" clip-rule="evenodd" d="M473.165 461.702c-.238 4.105-.307 8.839-.712 12.474.63-.012 1.102-.021 1.572-.187 1.405-.657 2.808-1.472 4.204-2.602-.059-3.154-2.331-6.739-5.064-9.685zm7.047-10.7c.181 1.259 3.107 6.094 5.358 8.576.746-2.223 1.487-4.76 1.906-7.607.149-.476-.172-.786-.49-.937-2.222-.905-4.433-1.179-6.319-.987-.309.322-.461.64-.455.955zm1.38-10.436c2.368.272 4.736.543 6.947.817-.059-3.154-.27-5.989-.792-8.66-3.409 3.06-5.878 5.788-6.155 7.843zm-3.766-24.536l-1.211 11.064c.006.315.012.631.33.783 2.181-1.303 4.035-3.23 6.038-5.634a.763.763 0 00-.021-1.104c-1.615-2.178-3.38-3.88-5.136-5.109zm-17.35 7.264l6.081 5.092c1.974-3.98 2.908-12.988.38-13.414-.475-.149-.948-.141-1.263-.135-2.493 1.466-4.009 4.649-5.376 7.356-.148.476-.14.949.178 1.101zm-6.16 24.406c-.003-.158-.161-.155-.164-.312-.543-3.776.611-9.476 1.643-13.28 1.776 2.332 3.243 4.986 3.136 7.67-.105 2.841-2.437 4.462-4.615 5.922zm7.37 6.645c-1.554 1.133-3.572 2.748-5.129 3.723-.312.164-.461.64-.455.955 1.01 3.452 2.328 6.582 3.956 9.39 2.752-4.467 3.32-7.79 1.791-13.756a.488.488 0 01-.163-.312z" fill="#58595B"/><path fill-rule="evenodd" clip-rule="evenodd" d="M470.507 437.461c-1.245.812-1.991 3.034-1.944 5.557.059 3.153 1.523 5.65 3.416 5.772-.312.164-.781.33-1.096.336-1.89.035-3.354-2.461-3.416-5.772-.22-3.309 1.308-5.861 3.04-5.893z" fill="#A7A9AC"/><path fill-rule="evenodd" clip-rule="evenodd" d="M472.416 446.889c1.26-.023 2.172-1.776 2.131-3.983-.041-2.208-1.018-3.924-2.278-3.901-1.26.024-2.172 1.776-2.131 3.983-.116 2.211 1.018 3.925 2.278 3.901z" fill="#A7A9AC"/><path fill-rule="evenodd" clip-rule="evenodd" d="M419.919 438.157l-.167 3.768s4.034 6.46 4.142 7.092c.293.763 14.231 1.453 14.231 1.453s-.072-4.215-2.202-9.051c-1.412-3.497-4.557-5.72-6.516-7.659-2.251-2.702-8.058.411-8.69.52-.632.108-.298 3.953-.798 3.877z" fill="#F0B186"/><path fill-rule="evenodd" clip-rule="evenodd" d="M435.685 442.21c-.928-1.116-2.305-1.167-3.42-.238-1.116.928-1.167 2.306-.239 3.422l8.797 8.977c.928 1.116 1.724 1.742 2.794 1.036 1.116-.929.234-2.267-.517-3.115l-7.415-10.082zm-5.986-2.523c-.211 1.031.971 1.63 2.294 1.542 1.573-.037 3.106-1.156 3.317-2.188l1.143-9.436c.211-1.031.351-1.719-1.222-1.682-1.573.037-2.104 1.362-2.315 2.393l-3.217 9.371z" fill="#F0B186"/><path fill-rule="evenodd" clip-rule="evenodd" d="M434.44 446.328c-.747-1.244-2.313-1.582-3.557-.833-1.243.748-1.581 2.315-.834 3.559l7.681 10.577c.748 1.243 1.362 2.196 2.605 1.447 1.243-.748.574-2.204-.173-3.448l-5.722-11.302z" fill="#F0B186"/><path fill-rule="evenodd" clip-rule="evenodd" d="M429.424 446.411c-.748-1.244-2.101-1.503-3.345-.754-1.243.748-1.502 2.102-.755 3.346l7.335 10.207c.747 1.244 1.44 1.984 2.604 1.448 1.244-.749.575-2.205-.039-3.157l-5.8-11.09z" fill="#F0B186"/><path fill-rule="evenodd" clip-rule="evenodd" d="M426.378 445.622c-.418-1.053-1.578-1.762-2.513-1.536-1.053.419-1.257 1.622-.957 2.869l4.763 10.883c.612 1.171 1.03 2.224 1.772 1.881 1.052-.42.752-1.666.141-2.837l-3.206-11.26z" fill="#F0B186"/><path fill-rule="evenodd" clip-rule="evenodd" d="M380.468 407.381c5.404 16.148 35.289 32.807 38.321 34.583l14.091-9.237s-22.064-21.827-29.585-28.308c6.404-14.906 10.13-22.661 10.814-35.451 1.105-2.632-3.163-18.585-8.648-14.309-11.048 8.613-27.314 38.354-24.993 52.722z" fill="#3E7FA9"/><path fill-rule="evenodd" clip-rule="evenodd" d="M432.342 432.158c-.595-1.527-2.673-1.729-3.552-.345l-3.999 6.302a2.006 2.006 0 01-.907.77l-4.703 1.996a2.001 2.001 0 00-1.194 2.154l.087.549a2 2 0 002.688 1.556l4.703-1.792c.363-.138.677-.378.905-.692l5.911-8.119a2 2 0 00.247-1.904l-.186-.475z" fill="#2C2A3F"/><path fill-rule="evenodd" clip-rule="evenodd" d="M506.731 451.076c.757.084 1.149-1.152 1.036-2.443-.337-1.572-.955-2.919-1.712-3.002l-6.901.004c-.758-.084-1.263-.139-1.178 1.404.085 1.544 1.067 1.909 1.824 1.992l6.931 2.045z" fill="#F0B186"/><path fill-rule="evenodd" clip-rule="evenodd" d="M506.195 446.669c.758.084 1.15-1.152 1.037-2.443-.085-1.544-.955-2.918-1.713-3.002l-6.901.004c-.757-.084-1.262-.139-1.177 1.404.085 1.544 1.067 1.909 1.824 1.992l6.93 2.045z" fill="#F0B186"/><path fill-rule="evenodd" clip-rule="evenodd" d="M506.137 442.571c.758.084 1.15-1.152 1.037-2.443-.085-1.544-.955-2.919-1.713-3.002l-6.901.004c-.757-.084-1.262-.14-1.177 1.404.085 1.544 1.067 1.908 1.824 1.992l6.93 2.045z" fill="#F0B186"/><path fill-rule="evenodd" clip-rule="evenodd" d="M506.36 438.248c.757.084 1.121-.899.98-1.938-.112-1.291-1.011-2.413-1.768-2.497l-6.873-.248c-.758-.084-1.263-.14-1.15 1.152.113 1.291 1.095 1.655 1.852 1.739l6.959 1.792z" fill="#F0B186"/><path d="M468.366 354.736s-11.401.455-11.981 6.237c-7.294 20.036-19.809-.18-18.583-11.859 5.494-.948 10.164-9.385 13.289-15.873-.039-2.534 7.902 15.017 10.397 14.925" fill="#FFBE88"/><path d="M459.56 343.14c-1.09-5.606-2.84 4.532-7.468-.102l-2.652-5.124c-.387 1.906-7.164 8.833-7.448 9.687 2.448 5.159 3.499 14.929 5.868 16.511 2.987 1.995 5.367 1.855 7.508 1.037 0 0 6.766-8.793 4.192-22.009z" fill="#FDA470"/><path d="M474.689 352.065c3.206-1.765 4.429-4.112 4.429-4.112l5.478-12.961c.17-.216-4.48-2.548-4.48-2.548l-20.804-14.353s-12.956 7.253-12.2 21.352c-2.219 5.07-2.387 8.71.4 15.076.783 1.79 2.486 6.025 2.957 6.399.503.574 4.32 3.199 6.108 3.868 3.207 1.201 6.103-1.704 7.488-2.008 2.51-2.406 5.037-4.099 7.596-5.947 1.377-.995 2.16-3.175 3.028-4.766z" fill="#FFBE88"/><path opacity=".5" d="M456.885 357.261c-.937-.971-.198-1.396.772-.459.81.783 1.612.983 2.424 1.645-.363.357-1.531.385-2.079-.12-.321-.295-.729-.663-1.117-1.066z" fill="#E17C5C"/><path d="M456.317 323.099c2.615 2.076 9.06 3.839 12.131 4.311 3.674.564 7.832 3.185 10.319 6.054 1.959 2.259 5.075 6.002 5.15 8.838-.24-1.457-2.902-5.291-5.762-5.824-2.593-4.477-8.765-6.044-9.937-6.832-.879-.587-2.387-.461-3.408-.568-1.31-.135-4.814 2.676-5.912 3.232-1.377.69-1.954 3.216-5.299 5.802-5.546 6.42-4.682 10.628-3.626 18.619 0 0-8.105-9.845-2.601-18.906 1.426-2.347 2.465-10.518 4.978-11.689 2.669-1.247 1.471-5.012 3.967-3.037z" fill="#FA8C6B" opacity=".3"/><path d="M456.452 313.739c1.943-1.591 12.961 5.149 14.998 6.012 1.738.745 3.818 1.676 5.103 3.151 1.54 1.764.988 3.999-1.307 4.575-1.125.282-2.355.076-3.541-.133l-3.511-.613c-.819-.143-.403.278-1.182.455-.565.128-2.337-.15-2.806.147-1.835 1.131-5.136 1.362-6.981 2.379-.651.357-.107 2.263-5.095 6.483-.253-1.816-.054-5.219-.315-7.041a8.284 8.284 0 00-2.378 2.648 8.596 8.596 0 00-1.071 3.441c-.172 1.95-1.464 6.534-2.438 8.17-.596 1-.949-.996-2.239-.676 2.468-7.373.742-20.093 12.763-28.998z" fill="#C66A15"/><path d="M452.481 331.562c.429-1.763-.776-4.122-2.748-4.286-2.901-.199-4.686 3.292-4.663 5.939.06 1.626.775 4.123 2.343 4.316 2.175.149 4.294-2.55 5.068-5.969z" fill="#FFA274"/><path d="M450.953 330.349c-.047-.913-.583-1.69-1.629-1.819-1.973-.164-3.315 2.276-3.306 4.212 0 0-.085.108.032.201.651-2.288 2.7-4.168 4.903-2.594z" fill="#FB8761"/><path d="M449.847 328.593s2.595.832-.002 4.382c-.64-.157-1.234.599-1.155 1.714-.339.432-.744.461-.744.461s-.838-1.366.298-2.569c.509-.648 1.522-.721 1.522-.721s1.226-2.534.081-3.267z" fill="#E86850"/><path opacity=".16" d="M455.474 329.087c-.18-1.714-1.012-3.356-2.327-4.595a10.248 10.248 0 003.154-1.414 6.842 6.842 0 01-1.625-.381c1.623-.349 3.02-1.256 3.949-2.567.351 1.381-.421 2.668-1.164 3.785a4.975 4.975 0 002.761-.922c-.071 1.306-1.216 2.123-2.165 2.811.857.347 2.016-.057 2.764-.499a.339.339 0 01.254-.071c.214.053.175.367.069.542a5.344 5.344 0 01-2.823 2.27c-.488.167-2.924.271-2.847 1.041z" fill="#F9C482"/><path fill-rule="evenodd" clip-rule="evenodd" d="M452.404 333.131l3.237-3.919 3.201-.207c-5.13.869-8.693 10.918-9.576 16.215 0 0 1.823 7.296 5.314 5.604.747-.031 5.006.459 5.006.459l3.974 4.257 4.406 2.364.096 1.38c-.236.399-2.952 2.853-3.437 3.767l-4.141 4.315c-7.597 1.933-14.092-11.089-16.094-17.177l4.02-10.727s-3.098 5.129-.707 1.888c1.81-2.453 1.98-5.409 1.98-5.409l2.697-2.842.024.032z" fill="#DF8835"/><path fill-rule="evenodd" clip-rule="evenodd" d="M465.94 358.405c-4.746-2.086-8.176-5.422-8.176-5.422s-2.962 1.322-3.597 4.847c.167 2.128 3.062 3.602 3.062 3.602l1.425-.716-.007 2.014s1.607 1.219 2.306.846c2.026-3.385 5.155-4.992 4.987-5.171z" fill="#FFBE88"/><path fill-rule="evenodd" clip-rule="evenodd" d="M463.775 358.942c.617-.601.511.19-.846-.73-.768-.206-1.681-.541-2.599-1.199-1.402-1.005-2.072-.78-2.917-1.876-.845-1.096-.86.048-.436.725.721.541-.218.848 2.749 2.205 2.966 1.357 3.431 1.477 4.049.875zm-3.26 1.771c.262-.255.217.081-.359-.31a3.31 3.31 0 01-1.103-.509c-.595-.426-.88-.331-1.238-.796-.359-.465-.366.021-.186.308.307.229-.092.36 1.167.936 1.259.576 1.456.626 1.719.371z" fill="#DC9265"/><path d="M461.093 336.463c-1.003.248-4.834 2.057-.446 5.685 4.389 3.629 5.973.63 6.797-1.423.158-.995-4.823-4.594-6.351-4.262z" fill="#FBAB77"/><path d="M459.73 340.799c-.961.864.561 1.454 1.719 2.682 1.177 1.249 1.818 2.371 2.838 1.456s1.248-1.351.071-2.6c-1.159-1.227-3.175-1.629-4.628-1.538z" fill="#fff"/><path d="M463.592 342.66c.66.526.724 1.497.189 2.176-.151.179 0 0-.484.356-.395-.272-.531-.012-1.147-.502-.237-.199-.811-1.057-1.004-1.221.026-.161.103-.34.269-.537.542-.643 1.539-.78 2.177-.272z" fill="#6D2132"/><path d="M462.235 341.963l.418 1.428-1.231-.806.813-.622z" fill="#fff"/><path d="M464.81 344.65c.083-.682.013-.817-1.872-2.132-1.761-1.224-2.871-1.708-3.405-1.499.431-.638 1.651-.888 4.271.719 2.307 1.413 1.603 2.254 1.006 2.912z" fill="#C66A15"/><path d="M477.251 348.785c-.021.933-1.892 4.148-5.113 1.996-3.952-2.626-1.116-4.605.434-6.011.791-.461 4.709 2.595 4.679 4.015z" fill="#FBAB77"/><path d="M474.231 351.807c-.48.673-1.223.222-2.455-.727-1.381-1.056-2.4-1.658-1.884-2.37.494-.732 2.308-.557 3.573.315 1.249.93 1.296 2.011.766 2.782z" fill="#fff"/><path d="M473.225 349.093c.622.448.707 1.452.156 2.244-.17.265-.353.411-.561.497-.256-.171-.473-.113-.795-.348-.563-.41-1.044-.718-1.202-1.119.019-.195.074-.427.249-.653.551-.791 1.492-1.07 2.153-.621z" fill="#6D2132"/><path d="M471.863 348.689l.227 1.517-.978-.995.751-.522z" fill="#fff"/><path d="M469.94 348.659c.492-.249 1.951.338 3.503 1.435 1.43 1.049.819 1.198.821 1.677.362-.508 1.267-1.404-.243-2.632-1.747-1.419-3.738-1.143-4.081-.48zm-9.133-12.43s2.867 2.274 6.327 6.327c1.399.749 3.147-.682 2.911-1.022-1.66-2.427-4.79-4.415-7.557-6.491-.942-.126-1.681 1.186-1.681 1.186zm17.606 12.39s-.425-.963-5.882-2.176c-.044-.717.416-1.707.942-1.699 1.87.029 5.354 1.531 5.816 2.381.461.85-.876 1.494-.876 1.494z" fill="#C66A15"/><path d="M472.721 344.705c-.076.299-3.316 4.722-5.105 11.309-.698.612-1.645 1.056-3.591-.347-.979-.706-2.305-1.802-2.354-3.178a.618.618 0 01.077-.383c.185-.295 1.16 2.652 3.319 2.732-.212-.131 1.004 1.446 2.613-1.904 1.738-6.399 3.307-5.726 5.041-8.256 0 0 .005.009 0 .027z" fill="#DC9265"/><path fill-rule="evenodd" clip-rule="evenodd" d="M460.426 312.408c9.893-.999 39.136 9.641 20.918 33.054-.181-3.713-1.197-10.601-10.944-15.666-8.913-6.003-10.913-2.455-16.951-2.673-2.982-.108-5.803-2.163-5.803-2.163s4.883-11.72 12.78-12.552z" fill="#2C2A3F"/><path fill-rule="evenodd" clip-rule="evenodd" d="M450.25 320.202c7.77 3.287 23.93 8.66 36.47 7.345-3.144-10.936-19.307-15.919-26.12-15.204-4.643.483-8.15 4.513-10.35 7.859z" fill="#334866"/><path fill-rule="evenodd" clip-rule="evenodd" d="M460.85 325.936c.359 2.731.211 3.047 2.857 7.442 1.761 3.44 7.308 3.446 9.921 6.459 3.078 3.415 4.739 3.558 5.731 7.639.596-2.583 3.826-6.495 2.95-8.98-2.143-16.094-16.813-10.722-21.459-12.56z" fill="#AE7670" fill-opacity=".5"/><path fill-rule="evenodd" clip-rule="evenodd" d="M460.966 325.487c2.519 4.331 1.724 2.568 4.37 6.963 1.761 3.44 8.965 5.674 11.578 8.686 3.078 3.416 3.172 3.706 4.165 7.786 1.4.187 4.29-.246 3.415-2.732.532-7.579-12.792-19.607-23.528-20.703z" fill="#334866"/><path fill-rule="evenodd" clip-rule="evenodd" d="M520.203 466.154c4.565 0 8.179 6.851 8.179 15.415 0 8.374-3.614 15.416-8.179 15.416s-8.178-6.851-8.178-15.416c0-8.564 3.804-15.415 8.178-15.415z" fill="#24282C"/><path fill-rule="evenodd" clip-rule="evenodd" d="M523.437 466.154c4.564 0 8.178 6.851 8.178 15.415 0 8.374-3.614 15.416-8.178 15.416-4.565 0-8.179-6.851-8.179-15.416-.19-8.564 3.614-15.415 8.179-15.415z" fill="#69777C"/><defs><linearGradient id="paint0_linear" x1="646.149" y1="197.844" x2="299.562" y2="380.238" gradientUnits="userSpaceOnUse"><stop stop-color="#FFD9A1" stop-opacity=".042"/><stop offset=".12" stop-color="#FFD9A1"/><stop offset="1" stop-color="#FFD9A1" stop-opacity="0"/></linearGradient><linearGradient id="paint1_linear" x1="610.896" y1="189.162" x2="146.02" y2="234.425" gradientUnits="userSpaceOnUse"><stop stop-color="#FFD9A1" stop-opacity=".042"/><stop offset=".12" stop-color="#FFD9A1"/><stop offset="1" stop-color="#FFD9A1" stop-opacity="0"/></linearGradient><linearGradient id="paint2_linear" x1="729.545" y1="212.331" x2="901.34" y2="381.843" gradientUnits="userSpaceOnUse"><stop stop-color="#FFD9A1" stop-opacity=".042"/><stop offset=".12" stop-color="#FFD9A1"/><stop offset="1" stop-color="#FFD9A1" stop-opacity="0"/></linearGradient><linearGradient id="paint3_linear" x1="655.31" y1="218.433" x2="515.588" y2="423.073" gradientUnits="userSpaceOnUse"><stop stop-color="#FFD9A1" stop-opacity=".042"/><stop offset=".12" stop-color="#FFD9A1"/><stop offset="1" stop-color="#FFD9A1" stop-opacity="0"/></linearGradient><clipPath id="clip0"><path fill="#fff" transform="rotate(2.414 -10213.495 18121.508)" d="M0 0h47.29v70.95H0z"/></clipPath><filter id="filter0_f" x="644.325" y="125.579" width="119.304" height="96.733" filterUnits="userSpaceOnUse" color-interpolation-filters="sRGB"><feFlood flood-opacity="0" result="BackgroundImageFix"/><feBlend in="SourceGraphic" in2="BackgroundImageFix" result="shape"/><feGaussianBlur stdDeviation="2.5" result="effect1_foregroundBlur"/></filter></defs></svg>