<svg width="964" height="705" fill="none" xmlns="http://www.w3.org/2000/svg"><path d="M180.212 258.202c23.423 97.655-77.445 170.476-32.172 258.616 48.883 95.166 102.357 101.847 246.019 84.751 71.117-17.153 128.522-14.941 199.298-3.759 281.466 19.801 279.698-12.518 321.448-154.036 77.561-262.903-89.67-212.521-201.903-279.275-179.101-106.527-586.75-131.684-532.69 93.703z" fill="#BBDEED"/><circle cx="707.149" cy="160.591" r="56.5" transform="rotate(4.564 707.149 160.591)" fill="#FFE2B8"/><g filter="url(#filter0_f)"><path fill-rule="evenodd" clip-rule="evenodd" d="M740.032 207.356c-19.993 17.966-62.498 10.059-78.352-11.27-18.564-18.917-13.097-50.599-3.783-60.599 14.268-15.318 67.264 8.402 85.5 27.5 18.236 19.098 23.484 15.915-3.365 44.369z" fill="#FFE2B8"/></g><mask id="a" maskUnits="userSpaceOnUse" x="136" y="85" width="799" height="524"><path d="M180.212 258.202c23.423 97.655-77.445 170.476-32.172 258.616 48.883 95.166 102.357 101.847 246.019 84.751 71.117-17.153 128.522-14.941 199.298-3.759 281.466 19.801 279.698-12.518 321.448-154.036 77.561-262.903-89.67-212.521-201.903-279.275-179.101-106.527-586.75-131.684-532.69 93.703z" fill="#E6F8FF"/></mask><g mask="url(#a)"><path d="M341.514 339.043l332.771-153.876L294.96 430.983l46.554-91.94z" fill="url(#paint0_linear)"/><path d="M186.397 248.987l461-64-530.084 122.81 69.084-58.81z" fill="url(#paint1_linear)"/><path d="M838.168 396.461L719.777 195.205l186.05 206.397-67.659-5.141z" fill="url(#paint2_linear)"/><path d="M500.064 369.335l169.733-164.608L505.06 437.109l-4.996-67.774z" fill="url(#paint3_linear)"/><path fill-rule="evenodd" clip-rule="evenodd" d="M144.403 251.329l274.446.41c18.624 0 145.982-6.159 100.548 3.901-25.787 5.748-180.978 15.603-211.677 16.629-38.885 1.232 577.953 2.053 277.925 20.325-92.301 5.543 88.412 10.47 101.919 10.265 204.453-2.669 317.626.821 377.796 0v-35.312c-5.93-.205-12.28-.205-19.03-.205-6.55 0-79.818 0-70.813-2.874 3.889-1.232 65.903-6.159 44.613-8.828-33.152-4.106-97.327 6.364-132.733 6.364-79.494 0-85.225-16.013-139.254-16.013-4.298 0-116.088-.205-114.246-1.642 6.344-4.722 160.089-4.106 174.006-3.08 83.909 6.159 172.321 1.027 257.257-1.437l-100.763-17.345-845.924 21.862 25.93 6.98zm12.494-101.842l225.099-13.404c44.67-1.658-174.417 18.855 19.546 18.855 152.783 1.418 350.337 13.083 323.065 14.066-30.698 1.026-121.923-2.265-147.71 3.483-45.434 10.06 44.376 10 63 10l425.463 22.033-920.957 12.113c12.388-11.511 122.386-8.399 122.386-8.399s2630.411-16.853 162.059-16.853c-35.406 0-287.183 11.245-320.337 6.934-21.285-2.669 269.597-8.987 273.485-10.218 62.963-8.602-179.265-8.602-186.019-8.602-20.056.205 91.312-9.508 70.812-17.508s-109.892-12.5-109.892-12.5z" fill="#E6F8FF"/><path fill-rule="evenodd" clip-rule="evenodd" d="M915.065 402.883a.856.856 0 00-.856-.856c-.227 0-.441-.096-.625-.229a2.683 2.683 0 00-.379-.228c-.54-.265-1.046-.757-1.046-1.358 0-.601.487-1.089 1.088-1.089h.244c.736 0 1.332-.596 1.332-1.332v-5.32c0-.736-.596-1.332-1.332-1.332a1.332 1.332 0 01-1.332-1.332v-.12c0-.802.65-1.452 1.452-1.452.803 0 1.454-.65 1.454-1.453v-1.206c0-.803-.651-1.454-1.454-1.454-.802 0-1.452-.65-1.452-1.451v-.12c0-.736.596-1.332 1.332-1.332.736 0 1.332-.597 1.332-1.332v-5.32c0-.736-.596-1.333-1.332-1.333a1.332 1.332 0 01-1.332-1.332v-.119c0-.802.65-1.452 1.452-1.452.803 0 1.454-.651 1.454-1.453v-1.207c0-.802-.651-1.453-1.454-1.453-.802 0-1.452-.65-1.452-1.452v-.119c0-.736.596-1.332 1.332-1.332.736 0 1.332-.597 1.332-1.333v-5.32c0-.735-.596-1.332-1.332-1.332a1.332 1.332 0 01-1.332-1.332v-.12c0-.801.65-1.451 1.452-1.451.803 0 1.454-.651 1.454-1.454v-1.206c0-.803-.651-1.453-1.454-1.453-.802 0-1.452-.65-1.452-1.452v-.12c0-.735.596-1.332 1.332-1.332.736 0 1.332-.596 1.332-1.332v-5.32c0-.736-.596-1.332-1.332-1.332a1.332 1.332 0 01-1.332-1.332v-.12c0-.802.65-1.452 1.452-1.452.803 0 1.454-.65 1.454-1.453v-.964c0-.803-.651-1.454-1.454-1.454-.802 0-1.452-.65-1.452-1.451v-.12c0-.736.596-1.332 1.332-1.332.736 0 1.332-.597 1.332-1.332v-5.32c0-.736-.596-1.333-1.332-1.333a1.332 1.332 0 01-1.332-1.332v-.119c0-.802.65-1.452 1.452-1.452.803 0 1.454-.651 1.454-1.453V314.2c0-.802-.65-1.453-1.453-1.453a1.453 1.453 0 01-1.453-1.453v-3.991a5.444 5.444 0 00-5.444-5.444h-.491a5.934 5.934 0 01-5.934-5.934v-4.102a4.24 4.24 0 00-4.239-4.239 4.24 4.24 0 01-4.239-4.239v-7.423a6 6 0 00-6-6H875.77a6 6 0 00-6 6v7.423a4.24 4.24 0 01-4.239 4.239 4.24 4.24 0 00-4.239 4.239v4.102a5.934 5.934 0 01-5.934 5.934 5.935 5.935 0 00-5.935 5.935v6.312c0 3.274-2.628 5.935-5.9 6.061-11.169.428-18.807 1.464-18.807 2.5v4.597-.242 53.713-.242 12.697a4.48 4.48 0 11-8.962 0v-87.025c0-3.313-2.742-6-6.055-6-3.314 0-6.056-2.686-6.056-6v-37.182a5.45 5.45 0 00-5.45-5.45 5.45 5.45 0 01-5.45-5.45v-6.454a6 6 0 00-6-6h-5.682a6 6 0 00-6 6v6.454a5.45 5.45 0 01-5.45 5.45 5.45 5.45 0 00-5.45 5.45v37.248a5.934 5.934 0 01-5.935 5.934h-4.724a1.21 1.21 0 00-1.21 1.21 1.21 1.21 0 01-1.21 1.21h-.487a1.452 1.452 0 100 2.903h.123c.869 0 1.574.705 1.574 1.575v1.206c0 .87-.705 1.574-1.574 1.574h-.123a1.452 1.452 0 100 2.904h.123c.869 0 1.574.705 1.574 1.574v1.207c0 .869-.705 1.574-1.574 1.574h-.123a1.452 1.452 0 100 2.903h.123c.869 0 1.574.705 1.574 1.575v1.206c0 .87-.705 1.575-1.574 1.575-.87 0-1.575.704-1.575 1.574v.48c0 .87.705 1.575 1.575 1.575.869 0 1.574.705 1.574 1.574v1.206c0 .87-.705 1.575-1.574 1.575h-.123a1.452 1.452 0 100 2.903h.123c.869 0 1.574.705 1.574 1.575v1.206c0 .869-.705 1.574-1.574 1.574h-.123a1.452 1.452 0 100 2.904h.123c.869 0 1.574.705 1.574 1.574v1.69c0 .87-.705 1.575-1.574 1.575h-.123a1.452 1.452 0 100 2.903h.123c.869 0 1.574.705 1.574 1.575v1.206c0 .869-.705 1.574-1.574 1.574h-.123a1.452 1.452 0 100 2.904h.123c.869 0 1.574.705 1.574 1.574v1.206c0 .87-.705 1.575-1.574 1.575h-.123a1.452 1.452 0 100 2.903h.123c.869 0 1.574.705 1.574 1.575v1.206c0 .869-.705 1.574-1.574 1.574h-.123a1.452 1.452 0 100 2.904h.123c.869 0 1.574.705 1.574 1.574v1.206c0 .87-.705 1.575-1.574 1.575h-.123a1.452 1.452 0 100 2.903h.123c.869 0 1.574.705 1.574 1.575v1.206c0 .869-.705 1.574-1.574 1.574h-.123a1.452 1.452 0 100 2.904h.85a.847.847 0 110 1.693h-4.482a5.33 5.33 0 00-5.329 5.329v47.707a6 6 0 006 6h161.431a6 6 0 006-6v-38.388z" fill="#E7EEF6"/><path fill-rule="evenodd" clip-rule="evenodd" d="M915.065 305.734a3.39 3.39 0 00-3.391-3.391 3.39 3.39 0 01-3.391-3.391v-6.645a4.24 4.24 0 00-4.239-4.239 4.24 4.24 0 01-4.239-4.239v-7.423a6 6 0 00-6-6h-10.526a6 6 0 00-6 6v7.544a4.118 4.118 0 01-4.118 4.118 4.118 4.118 0 00-4.118 4.118v4.223a5.934 5.934 0 01-5.934 5.934 5.935 5.935 0 00-5.935 5.934v6.313c0 3.274-2.628 5.935-5.9 6.061-11.169.428-18.806 1.464-18.806 2.5v4.597-.242 18.146-.242 35.325-.242 12.581a4.6 4.6 0 01-4.6 4.597 4.604 4.604 0 01-4.605-4.602v-86.904c0-3.313-2.742-6-6.055-6-3.314 0-6.056-2.686-6.056-6v-37.06a5.572 5.572 0 00-5.571-5.572 5.57 5.57 0 01-5.571-5.571v-6.333a6 6 0 00-6-6h-5.925a6 6 0 00-6 6v6.333a5.57 5.57 0 01-5.571 5.571 5.572 5.572 0 00-5.571 5.572v37.06a6 6 0 01-6 6h-4.901a1.21 1.21 0 00-1.21 1.21 1.21 1.21 0 01-1.21 1.21h-.487a1.452 1.452 0 100 2.903h.123c.869 0 1.574.705 1.574 1.575v1.206c0 .87-.705 1.574-1.574 1.574h-.123a1.452 1.452 0 100 2.904h.123c.869 0 1.574.705 1.574 1.574v1.207c0 .869-.705 1.574-1.574 1.574h-.123a1.452 1.452 0 100 2.903h.123c.869 0 1.574.705 1.574 1.575v1.206c0 .87-.705 1.575-1.574 1.575-.87 0-1.575.704-1.575 1.574v.48c0 .87.705 1.575 1.575 1.575.869 0 1.574.705 1.574 1.574v1.206c0 .87-.705 1.575-1.574 1.575h-.123a1.452 1.452 0 100 2.903h.123c.869 0 1.574.705 1.574 1.575v1.206c0 .869-.705 1.574-1.574 1.574h-.123a1.452 1.452 0 100 2.904h.123c.869 0 1.574.705 1.574 1.574v1.69c0 .87-.705 1.575-1.574 1.575h-.123a1.452 1.452 0 100 2.903h.123c.869 0 1.574.705 1.574 1.575v1.206c0 .869-.705 1.574-1.574 1.574h-.123a1.452 1.452 0 100 2.904h.123c.869 0 1.574.705 1.574 1.574v1.206c0 .87-.705 1.575-1.574 1.575h-.123a1.452 1.452 0 100 2.903h.123c.869 0 1.574.705 1.574 1.575v1.206c0 .869-.705 1.574-1.574 1.574h-.123a1.452 1.452 0 100 2.904h.123c.869 0 1.574.705 1.574 1.574v1.206c0 .87-.705 1.575-1.574 1.575h-.123a1.452 1.452 0 100 2.903h.123c.869 0 1.574.705 1.574 1.575v1.206c0 .869-.705 1.574-1.574 1.574h-.123a1.452 1.452 0 100 2.904h.85a.847.847 0 110 1.693h-4.482a5.33 5.33 0 00-5.329 5.329v47.707a6 6 0 006 6h154.891a6 6 0 006-6V305.734z" fill="#D8DEEB"/><path fill-rule="evenodd" clip-rule="evenodd" d="M792.259 410.495c-1.938 0-3.391-1.452-3.391-3.388v-2.661c0-.313.109-.615.293-.869.819-1.126 1.402-2.427 1.402-3.728 0-3.387-2.664-12.098-6.055-12.098-3.391 0-6.056 8.711-6.056 12.098 0 .683-.562 1.452-1.245 1.452h-3.005a2.775 2.775 0 01-2.774-2.775v-80.695a2.908 2.908 0 00-2.907-2.907 2.907 2.907 0 01-2.907-2.906v-2.171a3.15 3.15 0 00-3.149-3.149h-.729a2.42 2.42 0 01-2.419-2.42v-3.022a1.818 1.818 0 00-1.817-1.817 1.817 1.817 0 01-1.817-1.816v-2.176a3.992 3.992 0 00-3.992-3.992h-3.642a3.992 3.992 0 00-3.993 3.992v2.176a1.816 1.816 0 01-1.816 1.816 1.817 1.817 0 00-1.817 1.817v2.535a3.15 3.15 0 01-3.149 3.149 3.15 3.15 0 00-3.149 3.149v2.9a2.177 2.177 0 01-2.177 2.177h-1.093a3.27 3.27 0 00-3.27 3.27v12.094c0 8.485-6.878 15.364-15.363 15.364h-23.167c-8.552 0-15.485-6.933-15.485-15.485v-12.094a3.39 3.39 0 00-3.391-3.391 3.39 3.39 0 01-3.391-3.391v-3.503c0-.736-.597-1.332-1.333-1.332a1.333 1.333 0 01-1.332-1.332v-.362a2.419 2.419 0 00-2.419-2.419h-5.819a2.42 2.42 0 00-2.42 2.419c0 .936-.758 1.694-1.693 1.694h-2.184a1.694 1.694 0 01-1.694-1.694 2.419 2.419 0 00-2.419-2.419h-5.698a2.057 2.057 0 00-2.056 2.056v.725c0 .735-.597 1.332-1.332 1.332-.736 0-1.333.596-1.333 1.332v4.959a1.935 1.935 0 01-1.935 1.935h-.245a2.18 2.18 0 00-2.18 2.18v97.231c0 8.836 7.164 16 16 16h143.867c2.665 0 5.087-2.178 5.087-5.081V413.64c0-1.694-1.454-3.145-3.391-3.145z" fill="#E7EEF6"/><path fill-rule="evenodd" clip-rule="evenodd" d="M799.959 410.495c-1.937 0-3.391-1.452-3.391-3.388v-2.661c0-.313.11-.615.294-.869.818-1.126 1.402-2.427 1.402-3.728 0-3.387-2.665-12.098-6.056-12.098s-6.055 8.711-6.055 12.098c0 .683-.562 1.452-1.245 1.452h-3.005a2.776 2.776 0 01-2.775-2.775v-80.695a2.907 2.907 0 00-2.906-2.907 2.906 2.906 0 01-2.907-2.906v-2.171a3.15 3.15 0 00-3.149-3.149h-.729a2.42 2.42 0 01-2.42-2.42v-3.022a1.817 1.817 0 00-1.817-1.817 1.816 1.816 0 01-1.816-1.816v-2.176a3.992 3.992 0 00-3.992-3.992h-3.643a3.992 3.992 0 00-3.992 3.992v2.176a1.816 1.816 0 01-1.817 1.816 1.817 1.817 0 00-1.816 1.817v2.535a3.15 3.15 0 01-3.149 3.149 3.15 3.15 0 00-3.149 3.149v2.9a2.178 2.178 0 01-2.178 2.177h-1.092a3.27 3.27 0 00-3.27 3.27v12.094c0 8.485-6.879 15.364-15.364 15.364h-23.167c-8.552 0-15.485-6.933-15.485-15.485v-12.094a3.39 3.39 0 00-3.391-3.391 3.39 3.39 0 01-3.391-3.391v-3.503c0-.736-.596-1.332-1.332-1.332a1.332 1.332 0 01-1.332-1.332v-.362a2.42 2.42 0 00-2.42-2.419h-5.819a2.419 2.419 0 00-2.419 2.419c0 .936-.758 1.694-1.694 1.694h-2.183a1.693 1.693 0 01-1.694-1.694 2.42 2.42 0 00-2.42-2.419h-5.697a2.056 2.056 0 00-2.056 2.056v.725c0 .735-.597 1.332-1.333 1.332-.735 0-1.332.596-1.332 1.332v4.959a1.935 1.935 0 01-1.936 1.935h-.244a2.18 2.18 0 00-2.18 2.18v97.231c0 8.836 7.164 16 16 16h143.867c2.664 0 5.086-2.178 5.086-5.081V413.64c0-1.694-1.453-3.145-3.391-3.145z" fill="#D8DEEB"/><path fill-rule="evenodd" clip-rule="evenodd" d="M197.993 385.363c-4.723-.944-10.391-.236-15.822 2.362-1.417-2.834-3.306-4.723-6.14-5.668-5.904-1.889-12.752 2.362-16.531 9.918-1.889-.944-4.014-1.416-6.376-1.889-9.446-1.417-17.947 2.126-20.072 8.502-.945 0-2.126-.236-3.07-.236 0-.237-.237-.473-.237-.709-1.889-4.959-8.029-7.557-14.877-7.084 1.181-2.598 1.417-5.432.472-8.03-2.597-6.376-12.516-8.737-22.198-4.959-1.18.473-2.125.945-3.07 1.417-3.778-7.557-10.39-12.988-18.183-13.933v82.653a47.06 47.06 0 0013.224 1.889c8.501 0 16.058-2.125 22.198-5.431 5.668 2.833 12.752 4.487 20.309 4.487 8.501 0 16.058-2.126 22.198-5.432 5.668 2.834 12.752 4.487 20.309 4.487 4.487 0 8.738-.709 12.752-1.653 1.889.944 4.251 1.417 6.376 1.889v8.738c1.653-.473 3.306-.945 4.959-1.653 4.487 1.18 9.21 1.889 14.406 1.889 8.501 0 16.53-1.889 22.906-5.196 6.848 3.779 15.586 6.14 25.032 6.14 8.501 0 16.531-1.889 22.907-5.195 6.848 3.778 15.586 6.14 25.032 6.14a55.365 55.365 0 0018.183-3.07c6.612 3.306 14.405 5.195 23.143 5.195 4.251 0 8.265-.472 12.043-1.417 5.432-.472 10.627-1.889 15.35-3.778a50.473 50.473 0 0015.35 3.778c3.778.945 7.793 1.417 12.044 1.417 8.501 0 16.53-1.889 23.142-5.195a55.376 55.376 0 0018.184 3.07c9.446 0 18.183-2.362 25.032-6.14 6.612 3.306 14.405 5.195 22.906 5.195 9.446 0 18.184-2.361 25.032-6.14 6.613 3.307 14.405 5.196 22.907 5.196 4.959 0 9.918-.709 14.405-1.889 1.653.708 3.306 1.18 4.959 1.653v-8.738c2.362-.472 4.487-1.181 6.376-1.889 4.015 1.181 8.265 1.653 12.752 1.653 7.557 0 14.642-1.653 20.309-4.487 6.14 3.542 13.697 5.432 22.198 5.432 7.557 0 12.516 4.014 18.42 1.18 6.14 3.543 15.822-.236 24.324-.236h6.612c8.501 0 18.183 3.542 24.323.236 5.668 2.834 10.863-1.18 18.42-1.18 8.501 0 16.058-2.126 22.198-5.432 5.668 2.834 12.752 4.487 20.309 4.487 4.487 0 8.738-.709 12.752-1.653 1.889.944 4.251 1.653 6.376 1.889v8.738c1.653-.473 3.306-.945 4.959-1.653 4.487 1.18 9.21 1.889 14.405 1.889 8.502 0 16.531-1.889 22.907-5.196 6.848 3.779 15.586 6.14 25.032 6.14 8.501 0 16.53-1.889 22.906-5.195 6.849 3.778 15.586 6.14 25.032 6.14a55.366 55.366 0 0018.184-3.07c6.612 3.306 14.405 5.195 23.143 5.195 4.25 0 8.265-.472 12.043-1.417 5.432-.472 10.627-1.889 15.35-3.778a50.473 50.473 0 0015.35 3.778c3.778.945 7.793 1.417 12.044 1.417 8.501 0 16.529-1.889 23.139-5.195a55.366 55.366 0 0018.19 3.07c9.44 0 18.18-2.362 25.03-6.14 6.61 3.306 14.4 5.195 22.91 5.195 9.44 0 18.18-2.361 25.03-6.14 6.61 3.307 14.4 5.196 22.9 5.196 4.73 0 9.45-.709 13.7-1.653v-70.373c-.94 0-2.12.236-3.07.472-1.18-1.18-2.6-2.125-4.25-2.597-6.61-2.126-14.41 2.833-18.66 11.335-2.12-.945-4.48-1.653-7.08-2.126-10.63-1.653-20.31 2.598-22.67 9.446-1.18-.236-2.36-.236-3.54-.236 0-.236-.24-.472-.24-.944-2.12-5.668-8.97-8.502-16.77-7.793 1.18-3.07 1.42-6.14.48-8.974-2.84-7.557-14.17-10.154-25.04-5.904-1.18.473-2.36.945-3.54 1.653-4.25-8.973-11.81-15.113-21.02-15.822-2.59-.236-5.19 0-7.79.709 2.84-10.155 0-20.073-7.083-22.671-6.376-2.361-13.933 1.653-18.656 9.446-2.833-1.653-5.903-2.597-9.209-2.833-3.543-.237-6.849.236-10.155 1.416-15.35-5.903-53.842-15.585-45.105 14.406-2.597-.709-5.195-.945-7.793-.709-9.209.709-17.002 7.085-21.017 15.822-1.181-.708-2.361-1.181-3.542-1.653-10.863-4.251-21.962-1.653-25.032 5.904-1.181 2.834-.945 5.904.472 8.974-7.793-.709-14.641 2.361-16.766 7.793 0 .236-.237.472-.237.944-1.18 0-2.361.236-3.542.236-2.361-7.084-12.043-11.099-22.67-9.446-2.598.473-4.959 1.181-7.085 2.126-4.25-8.502-12.043-13.461-18.656-11.336-1.653.473-3.07 1.417-4.25 2.598-4.723-.944-10.391-.236-15.822 2.362-1.417-2.834-3.306-4.723-6.14-5.668-5.904-1.889-14.878-8.265-18.656-.708-8.029-3.543-20.545-6.613-20.545 7.793-3.779-3.543-7.085 0-7.085 2.125-1.889-6.376-4.487-6.376-10.39-5.904 6.376-15.113-11.572-26.213-25.032-13.46-6.14-13.225-14.642-6.376-20.781 6.848-.945-.472-2.126-.945-3.07-1.417-9.683-3.778-19.601-1.417-22.199 5.195-.944 2.598-.708 5.196.473 8.029-6.849-.472-12.988 2.126-14.878 7.085 0 .236-.236.472-.236.708-.944 0-2.125 0-3.07.237-2.125-6.14-10.627-9.919-20.073-8.502-2.361.472-4.486.945-6.376 1.889-3.778-7.556-10.626-12.043-16.53-9.918-2.598.945-4.723 2.834-6.14 5.668-5.431-2.598-11.099-3.306-15.822-2.362-1.181-1.181-2.598-2.125-4.251-2.598-6.612-2.125-14.405 2.834-18.656 11.336-2.125-.945-4.486-1.653-7.084-2.126-10.627-1.653-20.309 2.598-22.671 9.446-1.18-.236-2.361-.236-3.542-.236 0-.236-.236-.472-.236-.944-2.125-5.668-8.974-8.502-16.767-7.793 1.181-3.07 1.417-6.14.473-8.974-2.834-7.557-14.169-10.155-25.032-5.904-1.181.472-2.362.945-3.542 1.653-4.251-8.973-11.808-15.113-21.018-15.822-2.598-.236-5.195 0-7.793.709 8.738-30.228-29.755-20.309-45.104-14.406-3.307-1.18-6.613-1.653-10.155-1.416-3.306.236-6.376 1.18-9.21 2.833-4.723-7.793-12.28-11.807-18.656-9.446-7.084 2.598-9.918 12.516-7.084 22.671-2.598-.709-5.195-.945-7.793-.709-9.21.709-16.767 7.085-21.017 15.822-1.181-.708-2.362-1.18-3.543-1.653-10.863-4.25-21.962-1.653-25.032 5.904-1.18 2.834-.944 5.904.473 8.974-7.793-.709-14.642 2.361-16.767 7.793 0 .236-.236.472-.236.944-1.181 0-2.362.236-3.542.236-2.362-7.084-12.044-11.099-22.671-9.446-2.597.473-4.959 1.181-7.084 2.126-4.251-8.502-12.044-13.461-18.656-11.335-1.889.472-3.306 1.417-4.723 2.597z" fill="#AFDDAB"/><path d="M963.397 636.987l34-193s-98-15-140-15c-235.096 0-345.147-10.683-580 0-69.562 3.165-178 10.5-178 10.5v197.5h864z" fill="#7CC076"/><path d="M1225.4 479.987H68.397v165.208H1225.4V479.987z" fill="#C4CDDF"/><path d="M1225.4 487.987H68.397v14.937H1225.4v-14.937z" fill="#767D86"/><path d="M1225.4 479.916H68.397v7.904H1225.4v-7.904z" fill="#E7EEF6"/><path d="M1225.4 484.987H68.397v2.833H1225.4v-2.833z" fill="#CCC"/><path d="M151.187 566.807l31.368 6.18H68.397v-6.18h82.79zm1074.213 6.18v-6.18h-48.85l31.36 6.18h17.49zm-112.87-6.18l31.36 6.18h-128.3l-31.363-6.18h128.303zm-192.324 0l31.368 6.18H823.275l-31.367-6.18h128.298zm-192.319 0l31.368 6.18H630.956l-31.367-6.18h128.298zm-192.062 0l31.368 6.18H438.894l-31.367-6.18h128.298zm-192.319 0l31.368 6.18H246.575l-31.367-6.18h128.298z" fill="#fff"/></g><path fill-rule="evenodd" clip-rule="evenodd" d="M563.025 534.74c148.68 0 269.797-3.785 269.797-8.516s-121.275-8.516-269.797-8.516c-148.523 0-269.798 3.785-269.798 8.516-.157 4.574 121.118 8.516 269.798 8.516z" fill="#68667B" opacity=".75"/><path fill="#C4CDDF" d="M398.397 200.987h13v200h-13z"/><path fill="#989FA8" d="M405.397 200.987h4v200h-4z"/><path fill="#fff" d="M399.397 200.987h3v200h-3z"/><circle cx="405.397" cy="207.987" r="47" fill="#FD6366" stroke="#C4CDDF" stroke-width="12"/><circle cx="405.397" cy="207.987" r="47" fill="#FD6366" stroke="#E7EEF6" stroke-width="9"/><circle cx="405.397" cy="207.987" r="41.5" fill="#4A80AA" stroke="#FD6366" stroke-width="11"/><mask id="b" maskUnits="userSpaceOnUse" x="358" y="160" width="95" height="95"><circle cx="405.397" cy="207.987" r="41.5" fill="#4A80AA" stroke="#FD6366" stroke-width="11"/></mask><g mask="url(#b)"><path stroke="#fff" stroke-width="15" d="M360.7 164.684l93 93m-103 6.606l93-93"/><path stroke="#FD6366" stroke-width="12" d="M361.64 165.745l93 93m-103 4.485l93-93"/></g><circle cx="405.397" cy="207.987" r="41.5" stroke="#FD6366" stroke-width="11"/><circle cx="405.397" cy="207.987" r="36.25" stroke="#fff" stroke-width="1.5"/><path stroke="#FD6366" stroke-width="12" d="M374.64 178.745l60 60m-56.758-1.758l56.015-56.014"/><path fill-rule="evenodd" clip-rule="evenodd" d="M623.505 433.967c26.46-.789 38.115 17.032 38.272 47.154 0 29.964-21.577 49.046-43.942 47.153-22.365-1.892-39.848-21.132-38.273-47.153 1.575-26.022 17.483-46.366 43.943-47.154z" fill="#231F20"/><path fill-rule="evenodd" clip-rule="evenodd" d="M635.002 439.644c13.703 0 24.57 14.825 26.617 34.695.158 2.208.158 4.416.158 6.782 0 25.863-16.065 45.892-34.65 46.68-14.017-2.838-23.94-21.448-22.995-43.842 1.102-24.444 14.963-44.315 30.87-44.315z" fill="#383431"/><path fill-rule="evenodd" clip-rule="evenodd" d="M635.16 445.164c12.915 0 25.199 16.086 22.364 39.741-2.835 23.656-14.804 33.592-26.144 34.853-11.34 1.42-22.838-16.086-21.893-35.956.788-19.714 12.758-38.638 25.673-38.638z" fill="#A7A9AC"/><path fill-rule="evenodd" clip-rule="evenodd" d="M635.002 450.526c11.183 0 21.578 13.878 19.215 34.222-2.362 20.344-12.758 28.86-22.523 29.964-9.765 1.104-19.53-13.878-18.742-30.91.63-17.032 10.867-33.276 22.05-33.276z" fill="#6D6E71"/><path fill-rule="evenodd" clip-rule="evenodd" d="M387.412 433.967c26.46-.789 38.115 17.032 38.273 47.154 0 29.964-21.578 49.046-43.943 47.153-22.365-1.892-39.847-21.132-38.272-47.153 1.575-26.022 17.482-46.366 43.942-47.154z" fill="#231F20"/><path fill-rule="evenodd" clip-rule="evenodd" d="M398.91 439.644c13.702 0 24.57 14.825 26.617 34.695.158 2.208.158 4.416.158 6.782 0 25.863-16.065 45.892-34.65 46.68-14.018-2.838-23.94-21.448-22.995-43.842 1.102-24.444 14.962-44.315 30.87-44.315z" fill="#383431"/><path fill-rule="evenodd" clip-rule="evenodd" d="M399.067 445.164c12.915 0 25.2 16.086 22.365 39.741-2.835 23.656-14.805 33.592-26.145 34.853-11.34 1.42-22.837-16.086-21.892-35.956.787-19.714 12.6-38.638 25.672-38.638z" fill="#A7A9AC"/><path fill-rule="evenodd" clip-rule="evenodd" d="M398.91 450.526c11.182 0 21.577 13.878 19.215 34.222-2.363 20.344-12.758 28.86-22.523 29.964-9.765 1.104-19.53-13.878-18.742-30.91.63-17.032 10.867-33.276 22.05-33.276z" fill="#6D6E71"/><path fill-rule="evenodd" clip-rule="evenodd" d="M426.945 506.511h316.417c13.703-1.893 53.393-3.785 67.095-5.677 16.538-60.244-27.562-76.645-58.747-92.1H412.297l-84.105 92.1c24.255 4.731 65.835 5.677 98.753 5.677z" fill="#58595B"/><path fill-rule="evenodd" clip-rule="evenodd" d="M511.207 433.967c26.46-.789 38.115 17.032 38.272 47.154 0 29.964-21.577 49.046-43.942 47.153-22.365-1.892-39.848-21.132-38.273-47.153 1.733-26.022 17.483-46.366 43.943-47.154z" fill="#231F20"/><path fill-rule="evenodd" clip-rule="evenodd" d="M522.704 439.644c13.703 0 24.57 14.825 26.618 34.695.157 2.208.157 4.416.157 6.782 0 25.863-16.065 45.892-34.65 46.68-14.017-2.838-23.94-21.448-22.995-43.842 1.103-24.444 14.963-44.315 30.87-44.315z" fill="#414042"/><path fill-rule="evenodd" clip-rule="evenodd" d="M522.862 445.164c12.915 0 25.2 16.086 22.365 39.741-2.835 23.656-14.805 33.592-26.145 34.853-11.34 1.42-22.838-16.086-21.893-35.956.945-19.714 12.758-38.638 25.673-38.638z" fill="#E2E3E4"/><path fill-rule="evenodd" clip-rule="evenodd" d="M522.862 445.164c7.402 0 14.647 5.204 18.9 14.036 1.26 5.204 1.575 11.039.787 17.505-2.835 23.182-14.805 32.802-26.145 34.222-6.772.788-13.702-5.047-17.955-14.036-1.102-4.258-1.575-8.831-1.417-13.563 1.102-19.555 12.915-38.164 25.83-38.164z" fill="#BCBEC0"/><path fill-rule="evenodd" clip-rule="evenodd" d="M517.349 499.099c-.472 4.416-.472 9.936-1.102 14.194 3.15 0 6.142-1.262 8.82-3.47-.158-3.785-2.993-8.043-6.3-11.197-.315-.315-.63-.315-.945-.158-.158 0-.473.316-.473.631zm7.088-8.989c.158 1.419 4.095 7.885 6.142 9.777.158.158.473.316.788.158.315 0 .472-.315.63-.473a46.416 46.416 0 002.677-8.989c.158-.473-.157-.789-.472-.946-3.623-1.42-6.773-1.42-9.135-.316-.472.158-.63.473-.63.789zm1.575-10.409c3.307.473 6.772.789 9.922 1.577.158-4.258-.157-8.043-.945-11.512-4.882 3.785-8.662 7.412-8.977 9.935zm-3.308-25.706l-1.575 12.144c0 .315.158.631.315.788.315.158.63.316.788.158 2.992-1.104 5.67-3.47 8.032-6.466a.763.763 0 000-1.104c-1.89-2.839-4.095-4.889-6.615-6.15-.315-.158-.63-.158-.787 0 .157.157 0 .315-.158.63zm-17.482 8.043l7.087 6.309c2.835-.474 5.513-14.667 2.363-15.298-5.198-.946-7.718 3.943-9.765 7.885 0 .474 0 .947.315 1.104zm-2.835 8.674c2.205 2.681 4.095 5.677 3.937 8.989-.157 3.627-3.78 5.204-6.457 6.939-.315.158-.63.158-.788 0-.315-.157-.472-.315-.472-.631-.63-4.258 1.26-11.354 2.362-14.982.158-.315.315-.473.63-.63.315-.158.63 0 .788.315zm3.465 37.061c3.78-5.204 4.725-8.674 3.15-15.298-1.26-1.577-5.355 2.366-8.348 4.258-.315.158-.472.631-.472.947.945 3.785 2.362 7.096 4.252 10.093a.868.868 0 00.788.473c.157 0 .315-.158.63-.473z" fill="#A7A9AC"/><path fill-rule="evenodd" clip-rule="evenodd" d="M517.192 500.676c-.315 4.1-.473 8.831-.945 12.459.63 0 1.102 0 1.575-.158 1.417-.631 2.835-1.419 4.252-2.523 0-3.154-2.205-6.782-4.882-9.778zm7.245-10.566c.158 1.261 2.993 6.15 5.198 8.674.787-2.208 1.574-4.732 2.047-7.57.157-.473-.157-.789-.472-.947-2.205-.946-4.41-1.261-6.3-1.104-.315.316-.473.631-.473.947zm1.575-10.409c2.362.316 4.725.631 6.93.946 0-3.154-.158-5.992-.63-8.673-3.465 2.996-5.985 5.677-6.3 7.727zm-3.308-24.602l-1.417 11.039c0 .316 0 .631.315.789 2.205-1.262 4.095-3.154 6.142-5.52a.763.763 0 000-1.104c-1.575-2.208-3.307-3.942-5.04-5.204zm-17.482 6.939l5.985 5.205c2.047-3.943 3.15-12.932.63-13.405-.473-.158-.945-.158-1.26-.158-2.52 1.419-4.095 4.573-5.513 7.254-.157.474-.157.947.158 1.104zm-6.615 24.287c0-.158-.158-.158-.158-.316-.472-3.785.788-9.462 1.89-13.247 1.733 2.366 3.15 5.047 2.993 7.728-.158 2.838-2.52 4.415-4.725 5.835zm7.245 6.781c-1.575 1.104-3.623 2.681-5.198 3.627-.315.158-.472.631-.472.947.945 3.469 2.205 6.623 3.78 9.462 2.835-4.416 3.465-7.728 2.047-13.72-.157-.158-.157-.316-.157-.316z" fill="#58595B"/><path fill-rule="evenodd" clip-rule="evenodd" d="M514.987 476.389c-1.26.789-2.048 2.997-2.048 5.52 0 3.154 1.418 5.677 3.308 5.835-.315.158-.788.316-1.103.316-1.89 0-3.307-2.524-3.307-5.836-.158-3.311 1.417-5.835 3.15-5.835z" fill="#A7A9AC"/><path fill-rule="evenodd" clip-rule="evenodd" d="M516.719 485.852c1.26 0 2.205-1.735 2.205-3.943s-.945-3.942-2.205-3.942c-1.26 0-2.205 1.734-2.205 3.942-.157 2.208.945 3.943 2.205 3.943z" fill="#A7A9AC"/><path fill-rule="evenodd" clip-rule="evenodd" d="M304.567 442.956c3.623-12.932 11.183-20.186 17.798-24.602 37.327-12.932 92.137-21.763 129.937-28.86 49.298-2.681 101.745-1.893 136.71 5.046-24.255 25.864-65.835-3.942-103.792 31.384 21.892 16.401-56.858 61.032-66.15 74.91H308.505c-.63-2.524-1.418-5.362-2.048-8.359h1.418c-.63-2.996-.945-5.993-1.575-8.674h-1.733c-2.52-13.878-3.622-29.963 0-40.845z" fill="#E2304D"/><path fill-rule="evenodd" clip-rule="evenodd" d="M766.83 433.967c26.46-.789 38.115 17.032 38.272 47.154 0 29.964-21.577 49.046-43.942 47.153-22.365-1.892-39.848-21.132-38.273-47.153 1.575-26.022 17.483-46.366 43.943-47.154z" fill="#231F20"/><path fill-rule="evenodd" clip-rule="evenodd" d="M778.327 439.644c13.703 0 24.57 14.825 26.618 34.695.157 2.208.157 4.416.157 6.782 0 25.863-16.065 45.892-34.65 46.68-14.017-2.838-23.94-21.448-22.995-43.842 1.103-24.444 14.963-44.315 30.87-44.315z" fill="#414042"/><path fill-rule="evenodd" clip-rule="evenodd" d="M778.485 445.164c12.915 0 25.2 16.086 22.365 39.741-2.835 23.656-14.805 33.592-26.145 34.853-11.34 1.42-22.838-16.086-21.893-35.956.945-19.714 12.758-38.638 25.673-38.638z" fill="#E2E3E4"/><path fill-rule="evenodd" clip-rule="evenodd" d="M778.485 445.164c7.402 0 14.647 5.204 18.9 14.036 1.26 5.204 1.575 11.039.787 17.505-2.835 23.182-14.805 32.802-26.145 34.222-6.772.788-13.702-5.047-17.955-14.036-1.102-4.258-1.575-8.831-1.417-13.563 1.102-19.555 12.915-38.164 25.83-38.164z" fill="#BCBEC0"/><path fill-rule="evenodd" clip-rule="evenodd" d="M772.972 499.099c-.472 4.416-.472 9.936-1.102 14.194 3.15 0 6.142-1.262 8.82-3.47-.158-3.785-2.993-8.043-6.3-11.197-.315-.315-.63-.315-.945-.158-.158 0-.473.316-.473.631zm7.088-8.989c.157 1.419 4.095 7.885 6.142 9.777.158.158.473.316.788.158.315 0 .472-.315.63-.473a46.416 46.416 0 002.677-8.989c.158-.473-.157-.789-.472-.946-3.623-1.42-6.773-1.42-9.135-.316-.473.158-.63.473-.63.789zm1.575-10.409c3.307.473 6.772.789 9.922 1.577.158-4.258-.157-8.043-.945-11.512-4.882 3.785-8.662 7.412-8.977 9.935zm-3.308-25.706l-1.575 12.144c0 .315.158.631.315.788.315.158.63.316.788.158 2.992-1.104 5.67-3.47 8.032-6.466a.763.763 0 000-1.104c-1.89-2.839-4.095-4.889-6.615-6.15-.315-.158-.63-.158-.787 0 .157.157 0 .315-.158.63zm-17.482 8.043l7.087 6.309c2.835-.474 5.513-14.667 2.363-15.298-5.198-.946-7.718 3.943-9.765 7.885-.158.474 0 .947.315 1.104zm-2.835 8.674c2.205 2.681 4.095 5.677 3.937 8.989-.157 3.627-3.78 5.204-6.457 6.939-.315.158-.63.158-.788 0-.315-.157-.472-.315-.472-.631-.63-4.258 1.26-11.354 2.362-14.982.158-.315.315-.473.63-.63.315-.158.63 0 .788.315zm3.465 37.061c3.78-5.204 4.725-8.674 3.15-15.298-1.26-1.577-5.355 2.366-8.348 4.258-.315.158-.472.631-.472.947.945 3.785 2.52 7.096 4.252 10.093a.868.868 0 00.788.473c.157 0 .315-.158.63-.473z" fill="#A7A9AC"/><path fill-rule="evenodd" clip-rule="evenodd" d="M772.815 500.676c-.315 4.1-.473 8.831-.945 12.459.63 0 1.102 0 1.575-.158 1.417-.631 2.835-1.419 4.252-2.523 0-3.154-2.205-6.782-4.882-9.778zm7.245-10.566c.157 1.261 2.992 6.15 5.197 8.674.788-2.208 1.575-4.732 2.048-7.57.157-.473-.158-.789-.473-.947-2.205-.946-4.41-1.261-6.3-1.104-.315.316-.472.631-.472.947zm1.575-10.409c2.362.316 4.725.631 6.93.946 0-3.154-.158-5.992-.63-8.673-3.465 2.996-5.985 5.677-6.3 7.727zm-3.308-24.602l-1.417 11.039c0 .316 0 .631.315.789 2.205-1.262 4.095-3.154 6.142-5.52a.763.763 0 000-1.104c-1.575-2.208-3.307-3.942-5.04-5.204zm-17.482 6.939l5.985 5.205c2.047-3.943 3.15-12.932.63-13.405-.473-.158-.945-.158-1.26-.158-2.52 1.419-4.095 4.573-5.513 7.254-.315.474-.157.947.158 1.104zm-6.615 24.287c0-.158-.158-.158-.158-.316-.472-3.785.788-9.462 1.89-13.247 1.733 2.366 3.15 5.047 2.993 7.728-.158 2.838-2.52 4.415-4.725 5.835zm7.087 6.781c-1.575 1.104-3.622 2.681-5.197 3.627-.315.158-.473.631-.473.947.945 3.469 2.205 6.623 3.78 9.462 2.835-4.416 3.465-7.728 2.048-13.72 0-.158 0-.316-.158-.316z" fill="#58595B"/><path fill-rule="evenodd" clip-rule="evenodd" d="M770.61 476.389c-1.26.789-2.048 2.997-2.048 5.52 0 3.154 1.418 5.677 3.308 5.835-.315.158-.788.316-1.103.316-1.89 0-3.307-2.524-3.307-5.836-.158-3.311 1.417-5.835 3.15-5.835z" fill="#A7A9AC"/><path fill-rule="evenodd" clip-rule="evenodd" d="M772.342 485.852c1.26 0 2.205-1.735 2.205-3.943s-.945-3.942-2.205-3.942c-1.26 0-2.205 1.734-2.205 3.942-.157 2.208.945 3.943 2.205 3.943z" fill="#A7A9AC"/><path fill-rule="evenodd" clip-rule="evenodd" d="M395.13 446.898c32.445-49.361 159.547-48.415 176.557-46.523-8.662-12.301-72.607-12.301-122.85-10.25 18.113-12.301 44.1-28.545 77.49-38.165 21.42-6.151 61.425-5.677 88.2-4.731 41.265 1.577 90.72 4.573 116.235 12.301 14.49 4.416 29.925 24.917 36.225 34.379 5.67 8.517 37.013 4.574 47.723 11.513 15.277 9.935 14.332 29.964 12.285 54.25 11.025 1.262 8.82 16.086-1.26 36.903-3.78 0-14.49 4.101-18.27 4.101 10.867-107.082-81.585-81.691-76.388 0H553.575c18.112-101.247-74.813-110.394-80.483 0h-38.745c-11.182-20.344 25.358-48.1-5.985-47.785-34.02.473-34.965-3.312-33.232-5.993z" fill="#EC5F6B"/><path fill-rule="evenodd" clip-rule="evenodd" d="M586.335 401.795c.315-6.624 14.647-26.337 33.704-40.373 3.15-2.365 9.765-4.573 19.53-5.046 26.933-1.419 48.668-.158 75.6 8.201 8.663 2.68 32.13 37.533 20.79 37.849-39.217.473-110.407-.631-149.624-.631z" fill="#E11E3E"/><path fill-rule="evenodd" clip-rule="evenodd" d="M451.042 474.655c-14.49 11.039-28.35 20.974-31.815 26.179H308.505c-.63-2.524-1.418-5.362-2.048-8.359h1.418c-.63-2.996-.945-5.993-1.575-8.674h-1.733l-1.417-8.989h147.892v-.157z" fill="#EC5F6B"/><path fill-rule="evenodd" clip-rule="evenodd" d="M320.79 452.734c21.893 0 39.109.157 68.985.157 2.677-7.412 10.08-17.663 20.632-25.233h-91.665c2.835 5.52 4.725 15.456 2.048 25.076z" fill="#58595B"/><path fill-rule="evenodd" clip-rule="evenodd" d="M316.537 422.77c34.02-.158 85.213-.322 107.231 0 25.894 0 34.94.846 39.124 5.03l-46.5-3.296h-101.43c.473-.63 1.103-1.104 1.575-1.734z" fill="#EC5F6B"/><path fill-rule="evenodd" clip-rule="evenodd" d="M435.45 481.594c-2.835 4.415-2.363 9.777-3.308 14.351H307.087l-.945-3.312h1.575c-.63-2.997-.945-5.993-1.575-8.674h-1.575c-.157-.631-.315-1.104-.315-1.735l131.198-.63z" fill="#58595B"/><path fill-rule="evenodd" clip-rule="evenodd" d="M308.347 495.629h136.868c2.835 0 5.197 1.262 5.197 2.681s-2.362 2.681-5.197 2.681H308.347c-2.835 0-5.197-1.262-5.197-2.681 0-1.577 2.362-2.681 5.197-2.681z" fill="#EC5F6B"/><path fill-rule="evenodd" clip-rule="evenodd" d="M303.307 454.784h92.453c2.205 0 4.095 1.892 4.095 4.1v13.878c0 2.208-1.89 4.1-4.095 4.1h-92.453c-2.205 0-4.095-1.892-4.095-4.1v-13.878c0-2.208 1.89-4.1 4.095-4.1z" fill="#E2304D"/><path fill-rule="evenodd" clip-rule="evenodd" d="M399.54 474.655c-.63 1.261-2.048 2.207-3.623 2.207h-92.61c-1.575 0-2.992-.946-3.622-2.207h99.855z" fill="#E11E3E"/><path fill-rule="evenodd" clip-rule="evenodd" d="M460.492 388.548c10.395-10.409 42.525-26.495 73.237-32.172 32.603-4.258 54.653-1.893 80.01 1.104-15.277 10.881-26.46 24.286-41.895 35.168-36.697-7.728-81.585-7.097-111.352-4.1z" fill="#EDFEFF"/><path fill-rule="evenodd" clip-rule="evenodd" d="M589.957 400.691c.315-6.15 14.017-24.444 32.13-37.534 2.992-2.208 9.293-4.258 18.585-4.731 25.673-1.262 46.463-.158 72.135 7.57 8.19 2.523 30.713 34.853 19.688 35.168-37.328.631-105.21-.473-142.538-.473z" fill="#82ADB1"/><path fill-rule="evenodd" clip-rule="evenodd" d="M589.957 400.691c.158-5.047 9.293-17.978 22.523-29.806 12.285 9.304 27.72 28.071 19.215 29.964-15.75 0-30.24-.158-41.738-.158zm53.392-42.423c24.413-1.104 44.73.158 69.458 7.728 5.67 1.735 18.113 17.663 21.735 27.441h-61.268c-5.985 0-13.702-4.889-16.852-11.04l-13.073-24.129z" fill="#C0D8DA"/><path fill-rule="evenodd" clip-rule="evenodd" d="M645.082 358.268c11.97-.473 22.837-.315 34.02.789l-20.633 42.107c-11.655-.158-23.309-.158-34.177-.315l20.79-42.581zm42.053 1.893c7.56 1.104 15.119 2.838 23.152 5.204l-17.64 35.957c-8.347 0-17.01 0-25.673-.158l20.161-41.003z" fill="#ABE1E1"/><path fill-rule="evenodd" clip-rule="evenodd" d="M299.212 458.096l72.765-.001 103.005.001v1.577h-175.77v-1.577z" fill="#EC5F6B"/><path fill-rule="evenodd" clip-rule="evenodd" d="M380.01 474.812h89.775l-2.363 6.308c-35.28-5.046-57.172-3.469-87.412-4.731v-1.577z" fill="#E11E3E"/><path fill-rule="evenodd" clip-rule="evenodd" d="M599.407 384.605l4.882 16.086h-14.49c.315-3.47 2.835-9.462 9.608-16.086z" fill="#576578"/><path fill-rule="evenodd" clip-rule="evenodd" d="M602.557 382.082h21.578c4.567 0 6.772 11.985 4.252 14.982-.63.631-1.418.788-2.363.946-6.3 1.104-18.427 2.839-24.097 1.419-8.033-2.05-5.985-9.62-1.89-16.086.63-.788 1.575-1.261 2.52-1.261z" fill="#EC5F6B"/><path fill-rule="evenodd" clip-rule="evenodd" d="M602.557 382.082h21.578c3.78 0 5.827 7.727 5.197 12.301-8.505.946-19.057 1.577-24.727.473-5.198-.946-7.245-3.312-7.245-5.993.63-1.892 1.575-3.627 2.835-5.52.472-.788 1.417-1.261 2.362-1.261zM383.16 461.88l88.2-2.207v1.577l-90.09 5.677 1.89-5.047zm33.705-38.795c19.53 0 41.052-2.07 46.777 4.889 29.925-11.828 71.978-14.667 110.093-16.874h244.282c-5.985-2.366-6.93-6.939-17.955-7.255-72.45-.473-171.99-.946-244.44-1.419-60.007 1.892-109.305 9.778-138.757 20.659zm-95.288 14.036H400.8v2.523h-79.223v-2.523z" fill="#E2304D"/><path fill-rule="evenodd" clip-rule="evenodd" d="M399.225 483.802h20.947a2.488 2.488 0 012.52 2.523v3.785a2.49 2.49 0 01-2.52 2.523h-20.947a2.49 2.49 0 01-2.52-2.523v-3.785c.157-1.42 1.26-2.523 2.52-2.523z" fill="#414042"/><path fill-rule="evenodd" clip-rule="evenodd" d="M402.69 483.802h17.482c1.26 0 2.363.946 2.363 2.05v3.311c0 1.104-1.103 2.051-2.52 2.051H402.69c-1.418 0-2.52-.947-2.52-2.051v-3.311c.157-1.104 1.102-2.05 2.52-2.05z" fill="#EEE6D4"/><path fill-rule="evenodd" clip-rule="evenodd" d="M402.69 483.802h17.482c1.26 0 2.363.946 2.363 2.05v.63H400.17v-.63c.157-1.104 1.102-2.05 2.52-2.05z" fill="#D2C8AD"/><path fill-rule="evenodd" clip-rule="evenodd" d="M304.725 483.802h15.435a2.49 2.49 0 012.52 2.523v3.785a2.49 2.49 0 01-2.52 2.523H306.3l1.26-1.577c1.26-1.419-.945-5.52-1.26-7.097l-1.575-.157z" fill="#414042"/><path fill-rule="evenodd" clip-rule="evenodd" d="M306.3 483.802h14.017c1.26 0 2.205.946 2.205 2.05v3.311c0 1.104-.945 2.051-2.205 2.051h-12.915c-.315-2.366-.63-4.889-1.102-7.412z" fill="#EEE6D4"/><path fill-rule="evenodd" clip-rule="evenodd" d="M306.3 483.802h14.017c1.26 0 2.205.946 2.205 2.05v.63h-15.75c-.157-.946-.315-1.734-.472-2.68z" fill="#D2C8AD"/><path fill-rule="evenodd" clip-rule="evenodd" d="M321.262 441.694c28.165-.63 57.595 0 75.758 0v2.523h-75.758v-2.523z" fill="#E2304D"/><path fill-rule="evenodd" clip-rule="evenodd" d="M665.557 356.849l5.67 44.473 7.56-.158-7.875-45.104-5.355.789z" fill="#E11E3E"/><path fill-rule="evenodd" clip-rule="evenodd" d="M667.447 355.745l5.985 47.469 7.403-.157-8.033-48.1-5.355.788z" fill="#EC5F6B"/><path fill-rule="evenodd" clip-rule="evenodd" d="M463.485 431.286c.787 13.089-16.538 18.293-26.618 19.082-11.182.788-21.262.946-33.075 0-2.047-.158-5.355-2.523-4.41-4.573 12.915-24.445 63.473-25.549 64.103-14.509zm-148.365-6.782c3.622 6.151 6.457 12.617 6.3 21.133 0 1.262-.63 2.365-1.733 3.154a5.966 5.966 0 01-4.095 1.104c-4.41-.315-8.505 0-12.757.946a38.67 38.67 0 011.732-7.885c2.205-7.57 5.67-13.563 10.553-18.452z" fill="#E11E3E"/><path fill-rule="evenodd" clip-rule="evenodd" d="M304.567 442.956c2.048-7.412 4.883-12.459 9.608-17.506 3.307 6.151 5.197 11.671 5.985 20.187.472 4.415-2.835 6.15-3.78 5.992-4.568-.315-9.135-1.577-13.545-.157.315-2.997.787-5.993 1.732-8.516z" fill="#EC5F6B"/><path fill-rule="evenodd" clip-rule="evenodd" d="M302.835 450.683c4.41-1.892 8.19-2.681 12.6-2.208 1.102.158 2.047-.157 2.835-.946.787-.788 1.102-1.577 1.26-2.681 0-7.57-2.048-13.089-4.883-18.609-5.512 6.308-9.607 16.086-11.812 24.444z" fill="#FFFCD5"/><path fill-rule="evenodd" clip-rule="evenodd" d="M303.307 447.845c4.41-1.735 8.663-1.42 13.388-.789 1.102.158 1.575 0 2.362-.788.788-.789.315-2.051.315-3.155.158-7.727-2.205-12.143-4.882-16.874-5.198 5.52-8.82 10.882-11.183 21.606z" fill="#EEE6D4"/><path fill-rule="evenodd" clip-rule="evenodd" d="M319.372 440.59c-.945-5.519-2.992-10.881-5.197-14.982-3.308 3.312-5.828 7.097-8.033 12.775 4.253.946 8.19 1.734 13.23 2.207z" fill="#D2C8AD"/><path fill-rule="evenodd" clip-rule="evenodd" d="M318.742 435.701c.63 3.154.788 6.624.473 10.093-.63.631-1.418 1.104-2.205 1.262-.788-.158-1.418-.158-2.205-.315-2.363-1.104-4.095-4.416-4.095-8.516 0-4.732 2.205-8.517 5.197-8.832 1.103 2.05 2.048 4.1 2.835 6.308z" fill="#fff"/><path fill-rule="evenodd" clip-rule="evenodd" d="M316.38 432.074c.315 0 .63 0 .945.158.472 1.104.945 2.365 1.417 3.469.315 2.05.63 4.258.63 6.624-.787 1.419-1.89 2.208-2.992 2.208-2.205 0-3.938-2.839-3.938-6.309 0-3.311 1.733-6.15 3.938-6.15z" fill="#DAD9D4"/><path fill-rule="evenodd" clip-rule="evenodd" d="M322.875 458.075l52.902.005c1.992-.011 3.696 1.575 3.759 3.719l-.079 11.021c.012 1.994-1.72 3.749-3.713 3.76l-52.901-.005c-1.993.011-3.697-1.575-3.76-3.719l.08-11.021c.085-2.194 1.669-3.898 3.712-3.76z" fill="#EAEEF0"/><path fill-rule="evenodd" clip-rule="evenodd" d="M324.179 459.464l49.913.022c1.494-.008 2.795.882 3.201 2.076-.65-.445-1.399-.69-2.246-.735l-49.913-.022c-1.844-.04-3.528 1.366-3.468 3.011l.009 9.325c-.047.349.105.797.206 1.096-.701-.595-1.155-1.44-1.11-2.288l-.009-9.325c.038-1.845 1.573-3.2 3.417-3.16z" fill="#B2C7CF"/><path fill-rule="evenodd" clip-rule="evenodd" d="M611.534 359.057c-14.175 10.566-24.885 23.183-39.532 33.433-36.855-7.569-81.743-6.939-111.51-4.1 34.65-20.344 109.147-34.537 151.042-29.333z" fill="#ADE3E3"/><path fill-rule="evenodd" clip-rule="evenodd" d="M572.002 392.49c-.63-.157-1.103-.157-1.733-.315l-1.732-.316c-1.103-.157-2.363-.473-3.465-.63h-.158l-1.732-.316h-.158l-1.732-.315c-1.103-.158-2.048-.316-3.15-.473h-.788l-3.307-.473-1.575-.158-1.575-.158h-.158l-1.26-.157-.787-.158-1.575-.158h-.158c-1.102-.158-2.362-.315-3.465-.315h-.157l-1.103-.158h-.787l-1.103-.158h-.63l-1.26-.157h-.472l-1.733-.158c-1.732-.158-3.465-.316-5.197-.316h-35.123c-1.732 0-3.307 0-4.882.158h-.315c-1.103 0-2.048 0-3.15.158h-.158c-1.102 0-2.205 0-3.15.158-8.347.315-16.065.946-22.995 1.577 17.798-8.201 46.463-16.402 74.025-20.817 25.515-2.839 47.565-3.312 68.04-2.366-10.237 7.885-19.53 17.663-31.342 26.021z" fill="#9AC7C7"/><path fill-rule="evenodd" clip-rule="evenodd" d="M724.619 497.206l-166.95-.473-.472-5.046 167.895-.631-.473 6.15z" fill="#E2304D"/><path fill-rule="evenodd" clip-rule="evenodd" d="M589.957 400.691c6.3 29.648 6.93 71.913-.63 100.143h77.332c11.34-18.767 20.79-40.058 22.523-69.548 1.102-13.09-7.718-23.814-16.38-30.28l-82.845-.315z" fill="#E11E3E"/><path fill-rule="evenodd" clip-rule="evenodd" d="M591.375 401.006c6.615 27.441 8.032 69.706-.473 99.828h73.553c8.505-30.437 24.727-88.631 6.93-99.512l-80.01-.316z" fill="#EC5F6B"/><path fill-rule="evenodd" clip-rule="evenodd" d="M593.422 411.099h87.255c-2.205-2.996-4.568-5.519-7.245-7.727l-81.743-.789c.473 2.366 1.103 5.362 1.733 8.516z" fill="#6EB8C0"/><path fill-rule="evenodd" clip-rule="evenodd" d="M672.96 400.849c16.065 18.924 1.417 67.024-8.505 99.985h61.267c-3.465-33.434 10.238-58.194 26.933-69.864 1.102-12.774-7.403-23.34-15.75-29.806l-63.945-.315z" fill="#E11E3E"/><path fill-rule="evenodd" clip-rule="evenodd" d="M673.59 401.322c16.695 13.72 3.465 66.394-6.93 99.512h57.172c-3.465-33.434 9.923-58.194 26.775-69.864 1.103-12.774-7.402-23.34-15.75-29.806H673.59v.158z" fill="#EC5F6B"/><path fill-rule="evenodd" clip-rule="evenodd" d="M554.397 429.987h195.77c0 .474-4.27 4.527-4.27 5l-110.453-3.423h-81.047v-1.577z" fill="#E2304D"/><path fill-rule="evenodd" clip-rule="evenodd" d="M672.96 420.089l.315 1.261c.63 2.366-.945 4.258-3.15 4.258h-7.56c-2.363 0-4.725-1.892-5.198-4.258l-.315-1.261h15.908z" fill="#E11E3E"/><path fill-rule="evenodd" clip-rule="evenodd" d="M653.902 416.619h18.9c.472 0 1.103.473 1.103.946l.472 1.735c.157.473-.157.946-.63.946h-18.9c-.472 0-1.102-.473-1.102-.946l-.473-1.735c-.157-.63.158-.946.63-.946z" fill="#E2304D"/><path fill-rule="evenodd" clip-rule="evenodd" d="M741.157 420.089l.315 1.261c.63 2.366-.945 4.258-3.15 4.258h-7.56c-2.362 0-4.725-1.892-5.197-4.258l-.315-1.261h15.907z" fill="#E11E3E"/><path fill-rule="evenodd" clip-rule="evenodd" d="M722.1 416.619H741c.472 0 1.102.473 1.102.946l.473 1.735c.157.473-.158.946-.63.946h-18.9c-.473 0-1.103-.473-1.103-.946l-.472-1.735c-.158-.63.157-.946.63-.946zm-42.525-5.52h64.89c-2.048-2.838-4.568-5.519-7.088-7.727-20.16-.158-41.107-.158-61.897-.316 1.732 2.051 3.15 4.732 4.095 8.043zm-86.153 0h84.735c-.63-3.785-2.363-5.992-4.725-8.043-28.035-.157-55.913-.315-81.743-.473.63 2.681 1.26 5.52 1.733 8.516zm130.095 86.107l-55.755-.157c.63-1.893 1.103-3.785 1.733-5.835l53.707-.158c.158 2.05.158 4.1.315 6.15zm-58.117-.157l-73.553-.158c.473-1.735.787-3.47 1.26-5.362l74.025-.315c-.63 2.05-1.26 3.942-1.732 5.835zm142.537-35.642H822.9c6.615 1.262 8.977 3.47 9.607 5.362l-22.68 2.051-1.89-7.413z" fill="#E2304D"/><path fill-rule="evenodd" clip-rule="evenodd" d="M463.485 430.97c.63 12.459-15.908 17.506-25.515 18.136-10.71.789-20.318.947-31.658 0-2.047-.157-5.197-2.523-4.095-4.415 12.285-23.341 60.638-24.287 61.268-13.721z" fill="#58595B"/><path fill-rule="evenodd" clip-rule="evenodd" d="M464.141 430.695c.744 12.396-15.927 17.405-25.564 18.245-10.694.862-20.413 1.139-31.847.254-2.045-.097-5.332-2.355-4.244-4.282 12.141-23.391 60.946-24.852 61.655-14.217z" fill="#FFFCD5"/><path fill-rule="evenodd" clip-rule="evenodd" d="M464.141 430.695c.11 1.972-.206 3.742-.875 5.519-4.728 6.66-15.941 9.719-23.33 10.229-10.694.862-20.413 1.139-31.847.254-1.835-.173-4.906-2.153-4.379-3.998 13.944-21.313 59.73-22.286 60.431-12.004z" fill="#EEE6D4"/><path fill-rule="evenodd" clip-rule="evenodd" d="M464.141 430.695c.014.705.028 1.41-.025 2.257-8.936 4.139-21.85 6.741-36.365 6.838-7.186.083-14.034-.548-20.185-1.545 17.065-16.866 55.962-16.917 56.575-7.55z" fill="#D2C8AD"/><path fill-rule="evenodd" clip-rule="evenodd" d="M464.141 430.695c.552 9.861-9.914 15.021-19.103 17.12 1.166-5.032 3.315-10.296 6.1-15.433 1.427-2.64 3.138-5.145 4.856-7.297 4.742 1.027 8.022 2.932 8.147 5.61z" fill="#FBD55B"/><path fill-rule="evenodd" clip-rule="evenodd" d="M464.141 430.695c.11 1.972-.206 3.742-.875 5.519-3.632 5.085-10.971 8.062-17.567 9.471 1.181-4.327 3.066-8.669 5.514-13.093 1.426-2.64 3.137-5.145 4.856-7.297 4.667.817 7.947 2.722 8.072 5.4z" fill="#F58220"/><path fill-rule="evenodd" clip-rule="evenodd" d="M464.141 430.695c.014.705.028 1.409-.025 2.257a68.127 68.127 0 01-15.479 4.702c.811-1.71 1.623-3.42 2.643-5.205 1.427-2.64 3.138-5.145 4.856-7.297 4.6.96 7.88 2.865 8.005 5.543z" fill="#D7662C"/><path fill-rule="evenodd" clip-rule="evenodd" d="M433.653 428.451c3.312.001 6.005 4.245 6.112 9.532-.035 5.22-2.625 9.577-5.937 9.577-3.312 0-6.005-4.245-6.112-9.532.035-5.22 2.625-9.577 5.937-9.577z" fill="#fff"/><path fill-rule="evenodd" clip-rule="evenodd" d="M433.71 431.271c2.255.023 4.358 2.94 4.294 6.75.004 3.667-1.835 6.809-4.233 6.719-2.256-.022-4.358-2.94-4.294-6.749.064-3.81 1.977-6.742 4.233-6.72z" fill="#DAD9D4"/><path fill-rule="evenodd" clip-rule="evenodd" d="M210.195 368.02l-1.715-8.4c7.92-4.866 11.759-8.657 15.318-17.484 6.611-7.564 6.298-18.24 5.597-28.36-.683-9.847-2.882-23.8-7.54-33.054l7.388 3.37c13.204 38.248 11.436 34.144 7.912 49.848-3.59 15.848 1.643 8.444-26.96 34.08z" fill="#8D533B"/><path fill-rule="evenodd" clip-rule="evenodd" d="M206.397 474.019c36.371 0 66-2.007 66-4.516s-29.667-4.516-66-4.516-66 2.007-66 4.516c-.038 2.426 29.629 4.516 66 4.516z" fill="#68667B" fill-opacity=".5" opacity=".75"/><path fill-rule="evenodd" clip-rule="evenodd" d="M217.419 470.067h-29.578c-2.674 0-4.595-2.574-3.835-5.138l5.111-17.223 1.758-29.529 4.179-25.687 6.93 10.903 4.095-5.871 7.402 5.032 3.938 67.513zm-17.469-115.11c-36.773-31.482-21.602-21.801-25.294-38.026-7.034-20.677-1.535-34.631 5.85-48.92l5.816 4.73c-6.262 12.205-8.233 27.925-5.113 41.985 3.119 14.061-6.078 9.699 21.645 32.726l-2.904 7.505z" fill="#AA7244"/><path fill-rule="evenodd" clip-rule="evenodd" d="M224.494 467.067a3 3 0 01-3 3h-12.58l3.78-31.852-6.615-40.693 6.615 5.032h6.615v20.193l5.185 31.638v12.682z" fill="#8D533B"/><path fill-rule="evenodd" clip-rule="evenodd" d="M212.351 361.484c-53.719 2.219-34.035-.974-47.854-13.044-13.819-12.071-17.218 10.87-25.502-51.449l8.488-.796c2.988 57.494 10.096 33.712 21.759 44.25 11.767 10.311 1.018 15.458 40.973 11.278l2.136 9.761z" fill="#AA7244"/><path fill-rule="evenodd" clip-rule="evenodd" d="M218.82 402.702l-11.334 4.782-4.286 2.773-5.035-8.604-3.791-2.701 6.576-160.555 13.831.056 4.039 164.249z" fill="#AA7244"/><path fill-rule="evenodd" clip-rule="evenodd" d="M219.339 403.075l-11.67 4.376 6.749-21.999-5.348-18.31-2.798-39.468 6.29-29.491-2.274-60.24 6.276-.057 2.775 165.189zm11.584-55.334l5.234-17.863c29.113-2.202 66.801-23.394 71.311-37.707 4.509-14.313 3.932-30.758-1.526-44.019l3.05-2.071c8.019 4.604 12.653 33.955 3.95 51.241-10.127 20.111-18.248 28.367-82.019 50.419z" fill="#8D533B"/><path fill-rule="evenodd" clip-rule="evenodd" d="M317.649 191.541c11.706.07 18.554 14.356 15.135 31.968-3.418 17.612-15.635 31.797-27.35 31.95-11.706-.069-18.554-14.356-15.135-31.967 3.311-17.727 15.644-32.021 27.35-31.951z" fill="#7CC076"/><path fill-rule="evenodd" clip-rule="evenodd" d="M329.983 233.225c-5.256 12.865-15.07 22.227-24.549 22.234-11.483-.062-18.232-14.01-15.275-31.192 5.256-12.865 15.07-22.227 24.549-22.234 11.484.062 18.233 14.01 15.275 31.192z" fill="#A1E79B"/><path fill-rule="evenodd" clip-rule="evenodd" d="M343.931 217.426c8.229 3.741 8.574 15.907.586 27.228-7.882 11.437-20.925 17.565-29.27 13.932-8.229-3.741-8.574-15.907-.586-27.228 7.989-11.321 21.032-17.45 29.27-13.932z" fill="#BAFCB4"/><path fill-rule="evenodd" clip-rule="evenodd" d="M284.591 181.789c3.892-4.014 6.172-9.748 6.166-16.746.205-16.057-11.427-33.356-27.189-41.796 2.078-3.196 3.378-7.291 3.389-12.062.146-12.719-8.2-26.416-19.72-33.612 3.489-18.214-13.118-37.935-39.587-37.935-15.304-5.087-18.899 31.857-24.911 44.633-15.94-13.695-38.269-5.192-34.791 36.425-26.853 7.279-23.359 47.689-19.183 79.308-42.038-12.455-50.783 80.846 7.784 107.949 12.797 10.894 38.47 7.612 53.892 12.782 15.304 5.086 67.757 6.769 76.516-24.705 0 0 39.042-3.99 23.8-49.836 10.673-16.405 22.247-39.443-6.166-64.405z" fill="#7CC076"/><path fill-rule="evenodd" clip-rule="evenodd" d="M143.27 303.38l.118.083.118.084.118.083.118.083.118.083.118.083.118.083.235.167.118.083.236.166.118.084.471.332.354.25c.236.166.589.416.77.66l.354.249.707.499.118.084.59.415.117.084c13.081 3.984 30.227-2.176 41.512-3.655 18.06 4.934 35.028-.345 43.205-15.439a25.961 25.961 0 002.038-4.39c16.99-14.821 24.63-33.907 19.996-43.355 3.155-1.97 5.76-4.911 7.712-8.429 7.692-14.154 1.962-35.564-12.628-50.171-.087-.877-.174-1.755-.379-2.715-.909-6.47-2.91-12.893-5.767-19.105 3.892-4.014 6.172-9.749 6.166-16.747.205-16.056-11.427-33.355-27.19-41.795 2.134-3.274 3.379-7.291 3.39-12.062.145-12.719-8.2-26.416-19.721-33.612-1.332-5.37-.421-11.507-3.12-16.441-23.354 8.303-23.354 25.949-19.257 31.89-23.818-5.422-48.211 18.163-35.957 49.46-26.853 7.278-44.95 32.308-28.31 62.897-39.994 14.043-35.217 92.833 23.296 120.014z" fill="#A1E79B"/><path fill-rule="evenodd" clip-rule="evenodd" d="M162.848 230.04c-7.437-2.74-7.316-16.572.349-30.873 7.656-14.436 20.041-23.931 27.479-21.191 7.438 2.74 7.316 16.572-.349 30.874-7.665 14.301-19.929 23.891-27.479 21.19zm31.054-70.986c-2.824-3.106-1.798-10.407 2.37-16.316 4.169-5.908 9.882-8.228 12.8-5.115 2.823 3.105 1.798 10.407-2.371 16.315-4.168 5.908-9.881 8.228-12.799 5.116zm-44.568 32.353c-8.197-.676-16.333-12.454-18.2-26.446-1.867-13.992 3.167-24.805 11.365-24.13 8.108.563 16.333 12.454 18.2 26.446 1.868 13.992-3.167 24.806-11.365 24.13zm26.888-49.62c-6.334-3.534-10.997-17.206-10.35-30.508.593-13.436 6.314-21.46 12.649-17.927 6.335 3.534 10.997 17.206 10.35 30.509-.647 13.302-6.247 21.433-12.649 17.926zm47.751 96.555c-6.297-2.429-7.638-12.307-3.048-22.124 4.59-9.817 13.349-15.815 19.646-13.386 6.296 2.429 7.638 12.307 3.048 22.124-4.542 9.73-13.349 15.815-19.646 13.386zm-45.675 52.507c-12.577 9.532-36.057 1.033-52.458-18.874-16.401-19.907-18.866-26.502-6.289-36.034 12.577-9.531 41.522-7.909 35.59 15.818 28.67 0 35.709 29.651 23.157 39.09z" fill="#BAFCB4"/><path d="M456.196 422.056s-7.359-.305-7.803-.657c-.444-.353-2.405-7.444-2.405-7.444s-.3 7.475-.646 7.926c-.347.451-7.329 2.442-7.329 2.442s7.249.217 7.68.469c.444.352 2.528 7.632 2.528 7.632s.3-7.475.647-7.926c.248-.439 7.328-2.442 7.328-2.442zm-5.644 23.834s2.5-2.72 2.778-2.776c.279-.056 3.63 1.489 3.63 1.489s-2.766-2.535-2.827-2.814c-.06-.278 1.438-3.597 1.438-3.597s-2.43 2.706-2.666 2.79c-.279.056-3.742-1.503-3.742-1.503s2.766 2.535 2.826 2.814c.088.237-1.437 3.597-1.437 3.597z" fill="#F6F6F5"/><path fill-rule="evenodd" clip-rule="evenodd" d="M722.397 485.987l-160-.373v-1.493l160-10.134v12z" fill="#fff" opacity=".65"/><path fill-rule="evenodd" clip-rule="evenodd" d="M823.66 583.973c37.179 0 67.465-3.785 67.465-8.516s-30.326-8.516-67.465-8.516-67.465 3.785-67.465 8.516c-.039 4.574 30.287 8.516 67.465 8.516z" fill="#68667B" opacity=".5"/><path d="M793.414 561.829c.35-.147.725-.226 1.104-.233l18.017-.354a3 3 0 013.058 2.917l.289 10.576a3 3 0 01-2.894 3.08l-41.109 1.439c-2.492.42-3.628-5.559-1.617-7.576.166-.167.377-.277.594-.368l22.558-9.481zm61.95.103a2.999 2.999 0 00-1.995-.759h-12.734a3 3 0 00-2.694 1.681l-2.902 5.928a3.003 3.003 0 00-.306 1.319v4.539a3 3 0 003 3h25.918c1.852 0 2.636-5.972.985-7.483-.132-.122-.282-.223-.416-.342l-8.856-7.883z" fill="#1B1C1E"/><path d="M806.777 268.807s7.755 10.649 5.654 16.75c-1.229 3.558 8.96 17.877 12.146 19.049 6.486 2.387 12.334-18.435 11.747-20.094-.238-.67-.877-2.588-1.824-4.525-.208-6.776-3.629-15.975.253-24.387 1.163-2.522-18.218 11.05-20.247 9.67" fill="#FFBE88"/><path d="M825.451 264.821c-6.24 2.316-2.907-8.811-6.539-3.709-8.565 12.026-6.481 19.922-6.481 19.922 1.469 1.918 4.217 2.857 7.261 1.444 1.728-.801 9.374-8.849 13.808-7.491.162-1.006-1.849-10.407-1.273-12.528-1.849-10.442.023.225-2.7-2.482 1.028.161-.68-.677 0 0-1.954-.321-7.226 3.153-8.617 4.487" fill="#FDA470"/><path d="M799.087 258.95c-1.82-3.69-1.634-6.675-1.634-6.675l2.065-15.647c-.035-.31 5.492.276 5.492.276l26.905-1.125s7.786 14.78-.713 27.803c-2.02 10.566-2.649 9.772-8.714 14.172-1.705 1.236-6.145 2.751-6.78 2.822-.777.245-5.708.443-7.708 0-3.587-.793-2.953-3.639-4.046-4.768-.954-3.821-4.347-8.404-4.748-10.468-.544-2.808-.209-4.343-.119-6.39z" fill="#FFBE88"/><path opacity=".5" d="M811.553 275.872c1.374-.37.899-1.214-.488-.895l-.069.015c-1.173.258-2.014-.037-3.121.104.133.562 1.182 1.298 1.962 1.148.484-.095 1.103-.207 1.716-.372z" fill="#E17C5C"/><path d="M832.332 243.985c-3.531.4-10.377-1.82-13.436-3.231-3.66-1.687-8.898-1.701-12.752-.465-3.034.972-7.945 2.662-9.582 5.328 1.025-1.247 5.572-3.299 8.472-2.075 4.839-2.709 11.33-.467 12.833-.51 1.126-.028 2.43 1.006 3.419 1.522 1.268.666 2.905 5.477 3.598 6.674.872 1.494 0 4.259 1.616 8.759 1.5 9.5-1.616 13-7 20 0 0 12.832-4.5 12.832-16.5 0-3.109 3.575-11.55 1.934-14.193-1.741-2.81 1.434-5.684-1.934-5.309z" fill="#FA8C6B" opacity=".3"/><path d="M833.743 233.452c-.889-2.697-10.99-1.423-13.323-1.832-1.996-.34-4.406-.709-6.394-.076-2.379.753-3.115 3.223-1.343 5.164.869.951 2.103 1.499 3.3 2.017l3.537 1.54c.826.359.213.51.825 1.15.443.465 2.212 1.273 2.474 1.84 1.045 2.193 3.924 4.412 5.042 6.501.395.736 1.672 8.485 1.051 9.282 1.235-1.582 2.939-4.956 4.186-6.54a9.977 9.977 0 01.699 3.972 10.077 10.077 0 01-.929 3.938c-.924 1.969-2.296 3.4-2.315 5.555-.011 1.316.77-2.077 1.768-.991 1.836-8.543 4.124-16.71 1.422-31.52z" fill="#360A0D"/><path d="M830.272 253.586c.584-1.946 2.985-3.47 4.872-2.431 2.752 1.568 2.448 5.988.963 8.505-.954 1.518-2.985 3.471-4.519 2.705-2.063-1.176-2.501-5.042-1.316-8.779z" fill="#FFA274"/><path d="M832.337 253.353c.548-.845 1.466-1.263 2.489-.752 1.887 1.039 1.76 4.186.682 6.031 0 0 .018.155-.141.173.673-2.583-.154-5.621-3.03-5.452z" fill="#FB8761"/><path d="M834.313 252.346s-2.822-.776-2.421 4.19c.67.237.793 1.32.104 2.338.07.618.423.892.423.892s1.518-.799 1.149-2.637c-.105-.927-.987-1.611-.987-1.611s.285-3.164 1.732-3.172z" fill="#E86850"/><path d="M807.734 255.492c-.137.316-.988 7.019-1.256 10.8.334.933 1.928 2.428 3.269 2.319 1.631-.129 2.619-1.058 3.696-2.297a.62.62 0 00.198-.393c.009-.37-2.911 1.338-4.458 1.376.338-.008-2.21.797-1.543-3.135.301-3.212.197-5.45.113-8.694 0 0-.012.005-.019.024z" fill="#DC9265"/><path opacity=".16" d="M829.808 250.217a7.671 7.671 0 014.664-2.983 11.96 11.96 0 01-2.09-3.263 7.079 7.079 0 001.692.62 7.656 7.656 0 01-2.176-4.845c-1.085 1.107-1.094 2.806-1.036 4.324a5.717 5.717 0 01-2.004-2.554c-.659 1.291-.069 2.766.414 3.998-.972-.187-1.804-1.275-2.241-2.15a.385.385 0 00-.192-.222c-.224-.079-.363.245-.363.477a6.382 6.382 0 001.315 3.879c.352.455 2.513 2.029 2.017 2.719z" fill="#F9C482"/><path fill-rule="evenodd" clip-rule="evenodd" d="M806.689 271.567l8.124-.517 1.263 1.388s-1.551-1.117-6.584-.187c-3.784.703-2.803-.684-2.803-.684z" fill="#DC9265"/><path d="M820.12 252.266c.776.843 3.264 4.89-2.747 5.705-6.012.815-5.792-3.011-5.404-5.473.408-1.046 6.943-1.474 8.151-.232z" fill="#FBAB77"/><path d="M819.022 256.754c.124 1.06-1.335 1.011-3.121 1.206-1.816.2-2.967.596-3.101-.528-.134-1.124.564-2.565 2.379-2.764 1.786-.195 3.7.898 3.843 2.086z" fill="#fff"/><path d="M815.494 255.112c-.893.098-1.464 1.161-1.321 2.349.046.32.143.567.264.778.513-.009 1.19-.14 2.024-.229.326-.048.626-.059.893-.098.061-.205.083-.469.031-.821-.167-1.152-1.027-2.072-1.891-1.979z" fill="#6D2132"/><path d="M814.099 256.132l1.438.738-1.512.417.074-1.155z" fill="#fff"/><path d="M813.298 253.603c.672-.784 2.013-.718 2.842-.218.196.102.04.484-.161.35-.692-.39-1.845-.417-2.383.249-.175.254-.507-.155-.298-.381z" fill="#E46F50"/><path d="M812.801 257.432c.228-.719-.026-1.578 2.204-1.838 2.083-.238 3.643.659 4.018 1.159-.096-.868-1.031-2.248-4.034-2.104-2.644.124-2.421 1.804-2.188 2.783z" fill="#6D2132"/><path d="M798.606 254.266c-.556.914-.696 5.128 3.807 4.965 5.517-.188 3.943-3.782 3.283-6.06-.494-.915-6.243-.293-7.09 1.095z" fill="#FBAB77"/><path d="M799.716 258.393c.064.935.991.955 2.64.793 1.843-.172 3.105-.131 3.029-1.124-.045-1-1.796-1.932-3.431-1.865-1.654.132-2.295 1.138-2.238 2.196z" fill="#fff"/><path d="M802.301 256.487c-.814.053-1.45.953-1.389 2.031.008.353.093.6.235.806.328-.009.687-.026 1.11-.055.581-.063 1.104-.084 1.521-.142a1.43 1.43 0 00.136-.766c-.061-1.078-.762-1.905-1.613-1.874z" fill="#6D2132"/><path d="M800.4 256.878l1.774.911-1.453.305-.321-1.216z" fill="#fff"/><path d="M803.602 254.903c-.828-.699-2.186-.354-2.991.356-.172.156.037.504.231.343.655-.559 1.824-.834 2.497-.223.25.219.535-.262.263-.476z" fill="#E46F50"/><path d="M805.37 257.984c-.311-.537-1.354-1.36-3.376-1.251-1.885.136-2.021 1.149-2.288 1.607-.049-.707-.379-2.112 1.678-2.371 2.378-.298 4.04 1.172 3.986 2.015z" fill="#6D2132"/><path d="M821.222 252.352s-6.918-.822-10.172 1.365c-.494-1.254-.073-2.21.275-2.384 2.462-1.253 6.906-1.966 9.22-.64.815.467.677 1.659.677 1.659zm-23.968 1.803s6.204-.833 8.642.67c.319-.735.868-2.538.523-2.685-1.898-.754-7.605-.231-8.397.468-.792.699-.768 1.547-.768 1.547z" fill="#59232D"/><path fill-rule="evenodd" clip-rule="evenodd" d="M761.466 340.785c-8.1 20.977 28.331 36.694 34.287 39.316l6.432-10.25s-13.102-11.204-19.296-17.64c-2.382-15.733 7.385-24.792 15.246-34.088.715 0-11.445-25.368-11.445-25.368s-20.936 25.861-25.224 48.03z" fill="#334866"/><path fill-rule="evenodd" clip-rule="evenodd" d="M770.169 343.017c-8.1 20.977 8.375 19.848 14.331 22.47l26.388 6.596s-13.102-11.204-19.296-17.64c-2.382-15.733 7.385-24.792 15.246-34.088.715 0-13.838-15.368-13.838-15.368s-18.543 15.861-22.831 38.03z" fill="#2C2A3F"/><path fill-rule="evenodd" clip-rule="evenodd" d="M791.941 325.274c3.812-9.535 2.859-38.855-1.191-32.419-5.717 13.826-.476 20.739 1.191 32.419z" fill="#A9A5B0"/><path fill-rule="evenodd" clip-rule="evenodd" d="M787.892 377.002c3.573 1.43 6.432 2.384 7.623 3.099l1.429-2.384 8.814-9.773s-2.62-1.669-6.67-4.291l-11.196 13.349z" fill="#234965"/><path fill-rule="evenodd" clip-rule="evenodd" d="M792.656 376.048c0 .716.477 1.431 1.429 1.431.715 0 1.43-.715 1.43-1.431 0-.715-.477-1.43-1.43-1.43-.714 0-1.429.477-1.429 1.43zm46.691-88.438c0 .716-.714 1.431-1.429 1.431-.715 0-1.429-.715-1.429-1.431 0-.715.714-1.43 1.429-1.43.715 0 1.429.715 1.429 1.43z" fill="#A19898"/><path fill-rule="evenodd" clip-rule="evenodd" d="M789.083 535.523l1.429 10.966s10.72.715 10.958-.477c.238-1.192-1.906-11.919-1.906-11.919l-10.481 1.43zm46.215 0l1.429 10.966s10.72.715 10.958-.477c.238-1.192-1.906-11.919-1.906-11.919l-10.481 1.43z" fill="#5E5E5E"/><path fill-rule="evenodd" clip-rule="evenodd" d="M791.166 382.801s-3.888 31.093-2.071 98.626c.779 30.473 4.666 84.208 4.666 84.208l22.532-.824s-1.044-43.375-2.861-79.063c0-18.522 7.588-63.881 8.627-64.704 2.076-1.373 7.264-2.005 7.264-2.005s.778 33.217 4.153 66.709c3.634 38.159 10.123 77.416 10.123 78.24.26 1.921 17.032.274 17.032.274s.1-37.884-3.015-79.337c-3.375-44.473-2.336-92.79-2.077-100.477.26-14.549-64.373-1.647-64.373-1.647z" fill="#2C2A3F"/><path fill-rule="evenodd" clip-rule="evenodd" d="M791.166 382.801s-6.483 80.412-6.23 90.319c.779 30.472 5.771 92.515 5.771 92.515l12.91-.549c0-27.72-2.755-61.563 9.705-135.136.259-3.569.779-5.49 1.038-5.765.918-3.302 3.694-4.872 3.694-4.872s5.474 30.453 8.848 63.945c3.634 38.159 8.643 80.18 8.643 81.004.259.824 6.229 1.098 12.459.824 0-48.801-1.29-120.923-1.29-184.481l-24.919-2.471c-15.574 1.647-30.629 4.667-30.629 4.667z" fill="#334866"/><path fill-rule="evenodd" clip-rule="evenodd" d="M865.325 294.836s-5.168 21.798-6.835 30.856c-1.43 9.297-.108 49.15-2.49 51.295 0 0-21.751 12.527-38.903 11.812-17.152-.715-21.44-13.587-21.44-13.587-1.667-5.245-9.658-53.6-9.658-54.077v-27.343s4.81-4.231 14.001-7.199c.646-.209 3.811-2.627 4.5-2.821 1.702-.48 5.538-2.433 7.5-2.785 1-.179-.479 2.866 3 2.785 21.5 4.215 19.5-7.285 19.5-7.285 5.5 3.5 8.5 6 11 7.285.855.238 1.688 1.965 2.5 2.215 10.355 3.2 17.585 8.589 17.325 8.849z" fill="#334866"/><path fill-rule="evenodd" clip-rule="evenodd" d="M808 285.192l4 39.795h7l12.5-27s-.541-15.432-8.861-14.953c-4.303.24-4.311 0-14.639 2.158z" fill="#77AEDC"/><path fill-rule="evenodd" clip-rule="evenodd" d="M819.5 325.487H813l1.811-20.952s.476 1.192 3.335 1.192c2.858 0 3.811-.953 3.811-.953v15.713l-2.457 5z" fill="#334866"/><path fill-rule="evenodd" clip-rule="evenodd" d="M813.143 297.861l6.194-1.192 5.955.715-3.335 7.39-.953.953c-1.429 1.43-3.811 1.43-5.24-.238l-.953-1.192-1.668-6.436z" fill="#2C2A3F"/><path fill-rule="evenodd" clip-rule="evenodd" d="M832.632 291.663c-.646 3.337-5.492 5.483-11.307 5.006-5.492-.477-9.691-3.576-9.368-6.913l1.543-6.269c0-.882 4-.882 10.093-.883 5.492.477 11.3-3.337 10.977.001l-1.938 9.058z" fill="#FFBE88"/><path fill-rule="evenodd" clip-rule="evenodd" d="M820.5 295.987s-8.333 3.924-8.951 5.865c-.618 1.941-4.549-17.693-4.549-17.693s6-2.819 6-2.172c0 4.098 7.5 14 7.5 14z" fill="#FDA470"/><path fill-rule="evenodd" clip-rule="evenodd" d="M792.723 373.426c23.362 9.87 42.31 6.234 63.335 2.338 0 4.416 0 3.896-.259 8.312-26.476 6.233-51.395 5.714-65.152-1.559.778-3.636 1.297-5.714 2.076-9.091z" fill="#1B1C1E"/><path fill-rule="evenodd" clip-rule="evenodd" d="M809.824 377.063l4.675.26v2.078l-3.776-.26c-.54 0-1.079.519-1.079 1.299l-.18 5.714c0 .779.36 1.299 1.079 1.558l3.956.26v2.078l-5.215-.519c-.719 0-1.438-1.039-1.259-2.078l.36-8.572c0-1.039.539-1.818 1.439-1.818zm4.675.519l5.214.52c.72 0 1.439 1.039 1.259 2.078l-.36 8.571c0 1.039-.719 2.078-1.438 1.819l-4.675-.26v-2.078l3.776.26c.539 0 1.079-.52 1.079-1.299l.18-5.714c0-.78-.36-1.299-1.079-1.559l-3.956-.26v-2.078z" fill="#B6B3B9"/><g filter="url(#filter1_d)"><path fill-rule="evenodd" clip-rule="evenodd" d="M833.212 315.584a1 1 0 00-1.087.902l-1.965 20.894a1 1 0 00.933 1.092l15.259.954a1 1 0 001.057-.89l2.212-20.416a1 1 0 00-.902-1.104l-15.507-1.432z" fill="#334866"/><g filter="url(#filter2_d)"><path fill-rule="evenodd" clip-rule="evenodd" d="M832.639 312.97a1 1 0 011.102-.875l15.255 1.67a1 1 0 01.884 1.113l-.604 5.031a.999.999 0 01-.779.857l-7.609 1.666a.998.998 0 01-.615-.061l-7.644-3.346a1 1 0 01-.592-1.035l.602-5.02z" fill="#3A5377"/></g><path fill-rule="evenodd" clip-rule="evenodd" d="M842.726 318.997c0 .808-.809 1.617-1.617 1.617-.808 0-1.616-.809-1.616-1.617 0-.809.808-1.618 1.616-1.618 1.078 0 1.617.809 1.617 1.618z" fill="#A19898"/></g><g filter="url(#filter3_d)"><path fill-rule="evenodd" clip-rule="evenodd" d="M792.557 317.273a1 1 0 00-1.108.969l-.424 16.75c-.014.55.42 1.008.97 1.025l13.922.415a1 1 0 001.03-1.013l-.212-15.711a1.001 1.001 0 00-.892-.981l-13.286-1.454z" fill="#334866"/><g filter="url(#filter4_d)"><path fill-rule="evenodd" clip-rule="evenodd" d="M791.278 314.618a1 1 0 01.999-1.039h13.446a1 1 0 011 1v4.254a1 1 0 01-.666.942l-6.409 2.276a1.004 1.004 0 01-.625.015l-6.865-2.082a1.002 1.002 0 01-.709-.919l-.171-4.447z" fill="#3A5377"/></g><path fill-rule="evenodd" clip-rule="evenodd" d="M800.767 319.539c0 .715-.715 1.43-1.429 1.43-.715 0-1.43-.715-1.43-1.43s.715-1.43 1.43-1.43c.714 0 1.429.715 1.429 1.43z" fill="#A19898"/></g><g filter="url(#filter5_d)"><path fill-rule="evenodd" clip-rule="evenodd" d="M845.414 286.087a.958.958 0 011.088-.429c10.392 2.864 14.749 5.725 17.527 8.393a.928.928 0 01.196 1.082c-.272.551-.58 1.092-.873 1.601-.328.567-1.107.691-1.609.27-3.861-3.239-9.304-5.918-16.503-7.876a1.045 1.045 0 01-.659-1.467c.25-.501.519-1.033.833-1.574z" fill="#3A5377"/></g><g filter="url(#filter6_d)"><path fill-rule="evenodd" clip-rule="evenodd" d="M800.173 286.39a.992.992 0 00-1.223-.658c-7.48 2.198-10.726 4.595-12.875 7.191a.968.968 0 00-.171.908l.431 1.383c.232.743 1.196.954 1.762.418 2.906-2.75 6.836-4.855 11.894-6.313.548-.158.867-.733.697-1.277l-.515-1.652z" fill="#3A5377"/></g><g filter="url(#filter7_d)"><path fill-rule="evenodd" clip-rule="evenodd" d="M819.099 296.669s8.888 5.924 9.09 8.07c.203 2.145 6.311-13.252 7.311-21.752.255-2.168-.798-5.976-1-5.5-2.833 8.344-15.401 19.182-15.401 19.182z" fill="#77AEDC"/></g><path fill-rule="evenodd" clip-rule="evenodd" d="M797 287.418c0 .715.476 1.43 1.429 1.668.715 0 1.43-.477 1.668-1.43 0-.715-.477-1.43-1.429-1.669-.953 0-1.668.715-1.668 1.431z" fill="#A19898"/><g filter="url(#filter8_d)"><path fill-rule="evenodd" clip-rule="evenodd" d="M819.337 295.669s-7.433 5.721-8.02 7.867c-.587 2.145-4.317-19.555-4.317-19.555s5.5-2.709 5.5-1.994c0 4.53 6.837 13.682 6.837 13.682z" fill="#77AEDC"/></g><path fill-rule="evenodd" clip-rule="evenodd" d="M842.222 324.155c3.573 1.66 5.003 6.018 3.335 9.961-1.667 3.942-5.955 5.81-9.529 4.357-3.573-1.66-5.002-6.017-3.335-9.96 1.906-3.943 6.194-6.018 9.529-4.358z" fill="#ED9839"/><path fill-rule="evenodd" clip-rule="evenodd" d="M841.269 326.853c2.144 1.038 3.097 3.735 2.144 6.225-1.191 2.491-3.811 3.736-5.955 2.698-2.144-1.038-3.097-3.735-2.144-6.225.953-2.49 3.573-3.736 5.955-2.698z" fill="#D68133"/><path d="M838.887 336.813c2.144 0 4.05-1.245 5.003-3.32 1.191-2.698.238-5.81-2.382-7.055-.715-.208-1.192-.415-1.906-.415-2.144 0-4.05 1.245-5.003 3.32-1.191 2.698-.238 5.81 2.382 7.055.477.208 1.191.415 1.906.415zm.715-9.753c.476 0 .953 0 1.429.208 1.906.83 2.62 3.32 1.668 5.603-.953 2.075-3.335 3.32-5.241 2.49-1.906-.83-2.621-3.32-1.668-5.603.715-1.66 2.144-2.698 3.812-2.698z" fill="#D68133"/><path fill-rule="evenodd" clip-rule="evenodd" d="M874.553 351.972c-2.497 21.931-49.377 19.547-56.87 19.547l-1.388-11.68s19.982-4.768 30.25-7.867c11.101-13.11 5.273-23.599 8.048-39.57-.832-.239 9.436-14.541 9.436-14.541s17.74 32.896 10.524 54.111z" fill="#2C2A3F"/><path fill-rule="evenodd" clip-rule="evenodd" d="M874.856 351.734c-1.942 5.244-10.827 9.297-13.602 11.919-15.541 6.436-35.245 4.529-43.571 5.483l-4.163-12.873s28.03-6.13 41.351-8.276c2.129-.343 3.629-15.5 0-35.824 1.11-10.012 7.77-14.541 10.823-16.924-.555.476 14.306 14.248 9.162 56.495z" fill="#334866"/><path d="M846.15 369.69c1.291-10.179-1.665-18.708-4.673-19.513l-3.538.688c6.004 5.732 4.911 14.385 4.673 19.514l3.538-.689z" fill="#fff"/><path d="M839.673 370.516c1.678-9.582-.772-17.945-3.609-18.961l-3.408.362c5.482 5.953 4.06 14.099 3.608 18.961l3.409-.362z" fill="#fff"/><path fill-rule="evenodd" clip-rule="evenodd" d="M846 287.226c0 .715.476 1.43 1.429 1.669.715 0 1.43-.477 1.43-1.431 0-.715-.477-1.43-1.43-1.43-.714-.238-1.191.477-1.429 1.192z" fill="#A19898"/><path fill-rule="evenodd" clip-rule="evenodd" d="M816.85 367.944l-2.775 2.383s-8.048 1.192-8.603 1.431c-.833.238-10.823-9.297-10.823-9.297s3.607-2.384 8.88-3.814c3.886-.954 7.771 0 10.824 0 3.885 0 5.273 5.959 5.55 6.436-.277.477-3.608 2.622-3.053 2.861z" fill="#F0B186"/><path fill-rule="evenodd" clip-rule="evenodd" d="M801.309 359.124c1.388-.477 2.775 0 3.33 1.191.555 1.192 0 2.384-1.387 2.861l-12.766 3.814c-1.388.477-2.498.715-3.053-.238-.555-1.192.833-1.907 1.943-2.384l11.933-5.244z" fill="#ED9C94"/><path fill-rule="evenodd" clip-rule="evenodd" d="M802.974 362.222c1.388-.476 3.053 0 3.608 1.192.555 1.192 0 2.623-1.388 3.099l-13.321 3.814c-1.387.477-2.497.954-3.33-.238-.555-1.192.833-1.907 2.22-2.384l12.211-5.483z" fill="#ED9C94"/><path fill-rule="evenodd" clip-rule="evenodd" d="M805.194 364.845c1.388-.477 2.776 0 3.331 1.192.555 1.192 0 2.383-1.388 2.86l-12.766 3.814c-1.387.477-2.498.715-3.053-.238-.555-1.192.833-1.907 1.943-2.384l11.933-5.244z" fill="#ED9C94"/><path fill-rule="evenodd" clip-rule="evenodd" d="M808.525 367.228c1.387-.476 2.775-.238 3.33.715.555.954-.278 2.146-1.665 2.623l-12.489 3.814c-1.387.476-2.497.953-3.052 0-.555-.954.832-1.669 2.22-2.146l11.656-5.006z" fill="#ED9C94"/><path fill-rule="evenodd" clip-rule="evenodd" d="M778.838 325.017a3.998 3.998 0 00-3.224-1.66l-45.372-.228 38.647 53.815a3 3 0 002.437 1.25h45.867l-38.355-53.177z" fill="#408AC9"/><path fill-rule="evenodd" clip-rule="evenodd" d="M817.193 378.194L777.5 324.487l-47.258-1.358a1.722 1.722 0 011.688-1.438l44.891-.223a3 3 0 012.446 1.241l38.206 52.796a2 2 0 01-.083 2.453l-.197.236z" fill="#D1D2D3"/><path fill-rule="evenodd" clip-rule="evenodd" d="M750.239 357.812c-.852.31-2.487.449-2.487-1.104 0-1.552.426-2.793 1.278-3.104l7.032-1.242c.852-.31 1.491-.31 1.491 1.242s-.639 1.863-1.491 2.173l-5.823 2.035z" fill="#E7A376"/><path fill-rule="evenodd" clip-rule="evenodd" d="M747.775 355.151c-1.086.31-1.629-.69-2.759-1.971 0-1.552.043-3.451 1.13-3.762l10.592-1.242c1.087-.31 2.173-.31 2.173 1.242s-1.086 2.484-2.173 2.484l-8.963 3.249z" fill="#E7A376"/><path fill-rule="evenodd" clip-rule="evenodd" d="M745.331 351.28c-1.086.311-2.173-.931-2.444-2.483 0-1.552.814-3.415 1.901-3.725l10.592-1.242c1.087-.31 2.173-.31 2.173 1.242s-1.086 2.173-2.173 2.483l-10.049 3.725z" fill="#E7A376"/><path fill-rule="evenodd" clip-rule="evenodd" d="M743.701 346.624c-1.086.311-2.173-.621-2.173-1.862 0-1.242.815-2.794 1.902-3.105l10.592-1.552c1.087-.31 2.173-.31 2.173.932 0 1.241-1.086 1.862-2.173 2.173l-10.321 3.414z" fill="#E7A376"/><path fill-rule="evenodd" clip-rule="evenodd" d="M827.396 371.996c-4.44-.238-8.048-.477-9.713-.477l-.278-2.86-4.162-12.396s3.885-.477 9.158-1.192l4.995 16.925z" fill="#3A5377"/><path fill-rule="evenodd" clip-rule="evenodd" d="M823.233 369.374c-.277.715-1.387.954-2.22.715-.832-.238-1.11-1.192-.832-1.907.277-.715 1.387-.953 2.22-.715.832.238 1.11 1.192.832 1.907zm-8.329-27.39c-.255.715-1.276.953-2.042.715-.766-.239-1.022-1.192-.766-1.907.255-.715 1.276-.954 2.042-.715.766.238 1.022 1.192.766 1.907zm-1 12c-.255.715-1.276.953-2.042.715-.766-.239-1.022-1.192-.766-1.907.255-.715 1.276-.954 2.042-.715.766.238 1.022 1.192.766 1.907z" fill="#A19898"/><path fill-rule="evenodd" clip-rule="evenodd" d="M800.673 225.372c14.712-1.974 39.867 2.401 40.114 7.179.229 4.647-11.402 9.014-25.903 9.624-7.703.365-14.642-.441-19.57-1.918-16.033-4.931-7.288-13.187 5.359-14.885z" fill="#334866"/><path fill-rule="evenodd" clip-rule="evenodd" d="M835.227 238.108c-4.71 2.103-12.107 3.763-20.343 4.067-7.703.365-14.642-.441-19.57-1.917-9.451-2.875-10.255-6.91-6.865-10.038 2.346-1.116 5.133-1.891 8.23-2.307 14.712-1.974 39.866 2.401 40.114 7.179-.006.936-.528 1.942-1.566 3.016z" fill="#2C2A3F"/><g filter="url(#filter9_d)"><path fill-rule="evenodd" clip-rule="evenodd" d="M827.537 242.481c-2.909 2.796-8.537 9.309-23.537 10.006-13 .604-11.993-4.569-7.125-8.43 11.005-1.209 21.563-1.825 30.662-1.576z" fill="#334866"/></g><path fill-rule="evenodd" clip-rule="evenodd" d="M795.636 238.744c8.653-2.096 28.439-2.48 39.96-.819.153 2.118.095 2.661.247 4.778-14.143-.641-29.788.256-39.836 1.738-.282-2.1-.347-3.562-.371-5.697z" fill="#B6B3B9"/><path fill-rule="evenodd" clip-rule="evenodd" d="M815.358 236.899c7.204-.164 14.607.178 20.109 1.044.153 2.117.095 2.66.247 4.777-5.69-.305-11.732-.296-17.352-.076l-3.004-5.745z" fill="#D4D2D1"/><path fill-rule="evenodd" clip-rule="evenodd" d="M800.674 228.313c3.537-.074 6.382 1.548 6.535 3.666.153 2.118-2.621 3.96-6.141 4.165-3.537.074-6.383-1.549-6.535-3.666-.153-2.118 2.604-4.092 6.141-4.165z" fill="#ED9839"/><path fill-rule="evenodd" clip-rule="evenodd" d="M800.739 229.774c2.229-.032 4.065.924 4.13 2.386.047 1.33-1.637 2.491-3.848 2.654-2.229.032-4.065-.924-4.13-2.386-.065-1.461 1.618-2.622 3.848-2.654z" fill="#D68133"/><path d="M843.414 303.63c2.069-.455-12.018-1.327-9.914-1.143-7.5 11-11 17.5-18 30 1.171-.667 2.539-3.356 3-4.5 6-9.5 10.782-17.905 15.5-24.357l9.414 1.857c-1.93.365.586-.126 1.586-1.857l-.01-16.854c.473-.488 1.043-1.03 1.003-1.654-.145-2.346-.519-.341-.831.082-.705.95-.659 18.186-1.748 18.426zm-45.987-3.009l7.507-2.57c.13.1.239.226.321.37.082.145.135.304.156.47l-8.185 1.969" fill="#2C2A3F"/><path d="M813.258 330.807c.398-.008.425 1.461.742 1.18-.367-2.126-6.652-26.498-7.072-27.415-.825-1.781-1.37-5.516-2.514-6.699-.85 1.788 1.39 6.449 1.937 8.479 1.005 3.742 6.102 20.667 6.907 24.455z" fill="#2C2A3F"/><defs><filter id="filter0_f" x="644.325" y="125.579" width="119.304" height="96.733" filterUnits="userSpaceOnUse" color-interpolation-filters="sRGB"><feFlood flood-opacity="0" result="BackgroundImageFix"/><feBlend in="SourceGraphic" in2="BackgroundImageFix" result="shape"/><feGaussianBlur stdDeviation="2.5" result="effect1_foregroundBlur"/></filter><filter id="filter1_d" x="830.155" y="312.089" width="20.732" height="29.339" filterUnits="userSpaceOnUse" color-interpolation-filters="sRGB"><feFlood flood-opacity="0" result="BackgroundImageFix"/><feColorMatrix in="SourceAlpha" values="0 0 0 0 0 0 0 0 0 0 0 0 0 0 0 0 0 0 127 0"/><feOffset dx="1" dy="2"/><feColorMatrix values="0 0 0 0 0 0 0 0 0 0 0 0 0 0 0 0 0 0 0.25 0"/><feBlend mode="multiply" in2="BackgroundImageFix" result="effect1_dropShadow"/><feBlend in="SourceGraphic" in2="effect1_dropShadow" result="shape"/></filter><filter id="filter2_d" x="832.03" y="312.089" width="18.857" height="12.366" filterUnits="userSpaceOnUse" color-interpolation-filters="sRGB"><feFlood flood-opacity="0" result="BackgroundImageFix"/><feColorMatrix in="SourceAlpha" values="0 0 0 0 0 0 0 0 0 0 0 0 0 0 0 0 0 0 127 0"/><feOffset dx="1" dy="2"/><feColorMatrix values="0 0 0 0 0 0 0 0 0 0 0 0 0 0 0 0 0 0 0.25 0"/><feBlend mode="multiply" in2="BackgroundImageFix" result="effect1_dropShadow"/><feBlend in="SourceGraphic" in2="effect1_dropShadow" result="shape"/></filter><filter id="filter3_d" x="791.025" y="313.579" width="16.922" height="24.854" filterUnits="userSpaceOnUse" color-interpolation-filters="sRGB"><feFlood flood-opacity="0" result="BackgroundImageFix"/><feColorMatrix in="SourceAlpha" values="0 0 0 0 0 0 0 0 0 0 0 0 0 0 0 0 0 0 127 0"/><feOffset dx="1" dy="2"/><feColorMatrix values="0 0 0 0 0 0 0 0 0 0 0 0 0 0 0 0 0 0 0.25 0"/><feBlend mode="multiply" in2="BackgroundImageFix" result="effect1_dropShadow"/><feBlend in="SourceGraphic" in2="effect1_dropShadow" result="shape"/></filter><filter id="filter4_d" x="791.277" y="313.579" width="16.445" height="10.529" filterUnits="userSpaceOnUse" color-interpolation-filters="sRGB"><feFlood flood-opacity="0" result="BackgroundImageFix"/><feColorMatrix in="SourceAlpha" values="0 0 0 0 0 0 0 0 0 0 0 0 0 0 0 0 0 0 127 0"/><feOffset dx="1" dy="2"/><feColorMatrix values="0 0 0 0 0 0 0 0 0 0 0 0 0 0 0 0 0 0 0.25 0"/><feBlend mode="multiply" in2="BackgroundImageFix" result="effect1_dropShadow"/><feBlend in="SourceGraphic" in2="effect1_dropShadow" result="shape"/></filter><filter id="filter5_d" x="844.473" y="285.622" width="20.847" height="13.632" filterUnits="userSpaceOnUse" color-interpolation-filters="sRGB"><feFlood flood-opacity="0" result="BackgroundImageFix"/><feColorMatrix in="SourceAlpha" values="0 0 0 0 0 0 0 0 0 0 0 0 0 0 0 0 0 0 127 0"/><feOffset dx="1" dy="2"/><feColorMatrix values="0 0 0 0 0 0 0 0 0 0 0 0 0 0 0 0 0 0 0.25 0"/><feBlend mode="multiply" in2="BackgroundImageFix" result="effect1_dropShadow"/><feBlend in="SourceGraphic" in2="effect1_dropShadow" result="shape"/></filter><filter id="filter6_d" x="785.858" y="285.692" width="15.876" height="12.239" filterUnits="userSpaceOnUse" color-interpolation-filters="sRGB"><feFlood flood-opacity="0" result="BackgroundImageFix"/><feColorMatrix in="SourceAlpha" values="0 0 0 0 0 0 0 0 0 0 0 0 0 0 0 0 0 0 127 0"/><feOffset dx="1" dy="2"/><feColorMatrix values="0 0 0 0 0 0 0 0 0 0 0 0 0 0 0 0 0 0 0.25 0"/><feBlend mode="multiply" in2="BackgroundImageFix" result="effect1_dropShadow"/><feBlend in="SourceGraphic" in2="effect1_dropShadow" result="shape"/></filter><filter id="filter7_d" x="819.099" y="277.447" width="17.441" height="29.495" filterUnits="userSpaceOnUse" color-interpolation-filters="sRGB"><feFlood flood-opacity="0" result="BackgroundImageFix"/><feColorMatrix in="SourceAlpha" values="0 0 0 0 0 0 0 0 0 0 0 0 0 0 0 0 0 0 127 0"/><feOffset dx="1" dy="2"/><feColorMatrix values="0 0 0 0 0 0 0 0 0 0 0 0 0 0 0 0 0 0 0.25 0"/><feBlend mode="multiply" in2="BackgroundImageFix" result="effect1_dropShadow"/><feBlend in="SourceGraphic" in2="effect1_dropShadow" result="shape"/></filter><filter id="filter8_d" x="807" y="281.867" width="12.337" height="23.817" filterUnits="userSpaceOnUse" color-interpolation-filters="sRGB"><feFlood flood-opacity="0" result="BackgroundImageFix"/><feColorMatrix in="SourceAlpha" values="0 0 0 0 0 0 0 0 0 0 0 0 0 0 0 0 0 0 127 0"/><feOffset dy="2"/><feColorMatrix values="0 0 0 0 0 0 0 0 0 0 0 0 0 0 0 0 0 0 0.25 0"/><feBlend in2="BackgroundImageFix" result="effect1_dropShadow"/><feBlend in="SourceGraphic" in2="effect1_dropShadow" result="shape"/></filter><filter id="filter9_d" x="793.534" y="242.427" width="37.003" height="10.109" filterUnits="userSpaceOnUse" color-interpolation-filters="sRGB"><feFlood flood-opacity="0" result="BackgroundImageFix"/><feColorMatrix in="SourceAlpha" values="0 0 0 0 0 0 0 0 0 0 0 0 0 0 0 0 0 0 127 0"/><feOffset dx="3"/><feColorMatrix values="0 0 0 0 0 0 0 0 0 0 0 0 0 0 0 0 0 0 0.25 0"/><feBlend mode="multiply" in2="BackgroundImageFix" result="effect1_dropShadow"/><feBlend in="SourceGraphic" in2="effect1_dropShadow" result="shape"/></filter><linearGradient id="paint0_linear" x1="646.149" y1="197.844" x2="299.562" y2="380.238" gradientUnits="userSpaceOnUse"><stop stop-color="#FFD9A1" stop-opacity=".042"/><stop offset=".12" stop-color="#FFD9A1"/><stop offset="1" stop-color="#FFD9A1" stop-opacity="0"/></linearGradient><linearGradient id="paint1_linear" x1="610.896" y1="189.162" x2="146.02" y2="234.425" gradientUnits="userSpaceOnUse"><stop stop-color="#FFD9A1" stop-opacity=".042"/><stop offset=".12" stop-color="#FFD9A1"/><stop offset="1" stop-color="#FFD9A1" stop-opacity="0"/></linearGradient><linearGradient id="paint2_linear" x1="729.545" y1="212.331" x2="901.34" y2="381.843" gradientUnits="userSpaceOnUse"><stop stop-color="#FFD9A1" stop-opacity=".042"/><stop offset=".12" stop-color="#FFD9A1"/><stop offset="1" stop-color="#FFD9A1" stop-opacity="0"/></linearGradient><linearGradient id="paint3_linear" x1="655.31" y1="218.433" x2="515.588" y2="423.073" gradientUnits="userSpaceOnUse"><stop stop-color="#FFD9A1" stop-opacity=".042"/><stop offset=".12" stop-color="#FFD9A1"/><stop offset="1" stop-color="#FFD9A1" stop-opacity="0"/></linearGradient></defs></svg>