<svg width="965" height="705" fill="none" xmlns="http://www.w3.org/2000/svg"><path d="M180.815 258.215c23.422 97.655-77.445 170.476-32.172 258.616C197.526 611.997 251 618.678 394.662 601.582c71.117-17.153 128.522-14.941 199.298-3.76 281.466 19.802 279.698-12.518 321.448-154.035 77.561-262.904-89.67-212.522-201.903-279.276-179.101-106.526-586.75-131.684-532.69 93.704z" fill="#BBDEED"/><circle cx="707.752" cy="160.603" r="56.5" transform="rotate(4.564 707.752 160.603)" fill="#FFE2B8"/><g filter="url(#filter0_f)"><path fill-rule="evenodd" clip-rule="evenodd" d="M740.635 207.369c-19.993 17.966-62.499 10.058-78.352-11.271-18.564-18.916-13.097-50.598-3.783-60.598 14.268-15.318 67.264 8.402 85.5 27.5 18.236 19.098 23.484 15.914-3.365 44.369z" fill="#FFE2B8"/></g><mask id="a" maskUnits="userSpaceOnUse" x="136" y="85" width="800" height="524"><path d="M180.815 258.215c23.422 97.655-77.445 170.476-32.172 258.616C197.526 611.997 251 618.678 394.662 601.582c71.117-17.153 128.522-14.941 199.298-3.76 281.466 19.802 279.698-12.518 321.448-154.035 77.561-262.904-89.67-212.522-201.903-279.276-179.101-106.526-586.75-131.684-532.69 93.704z" fill="#E6F8FF"/></mask><g mask="url(#a)"><path d="M342.117 339.055L674.888 185.18 295.563 430.996l46.554-91.941z" fill="url(#paint0_linear)"/><path d="M187 249l461-64-530.085 122.81L187 249z" fill="url(#paint1_linear)"/><path d="M838.771 396.474L720.38 195.218l186.05 206.396-67.659-5.14z" fill="url(#paint2_linear)"/><path d="M500.667 369.347L670.4 204.74 505.663 437.121l-4.996-67.774z" fill="url(#paint3_linear)"/><path fill-rule="evenodd" clip-rule="evenodd" d="M145.006 251.341l274.446.411c18.624 0 145.982-6.159 100.548 3.901-25.787 5.748-180.978 15.602-211.677 16.629-38.885 1.232 577.953 2.053 277.925 20.325-92.301 5.543 88.412 10.47 101.919 10.265 204.453-2.669 317.633.821 377.793 0V267.56c-5.93-.205-12.27-.205-19.03-.205-6.55 0-79.815 0-70.81-2.874 3.889-1.232 65.9-6.159 44.62-8.828-33.159-4.106-97.334 6.364-132.74 6.364-79.494 0-85.225-16.013-139.254-16.013-4.298 0-116.088-.206-114.246-1.643 6.344-4.722 160.089-4.106 174.006-3.079 83.909 6.159 172.321 1.026 257.254-1.437L965 222.5l-845.924 21.861 25.93 6.98zM157.5 149.5l225.099-13.405c44.67-1.657-174.417 18.856 19.546 18.856 152.783 1.418 350.336 13.083 323.065 14.065-30.698 1.027-121.923-2.264-147.71 3.484-45.434 10.06 44.376 10 63 10l425.46 22.033-920.954 12.113c12.388-11.512 122.386-8.399 122.386-8.399s2630.408-16.853 162.059-16.853c-35.406 0-287.183 11.245-320.338 6.933-21.284-2.668 269.598-8.986 273.486-10.218 62.963-8.602-179.265-8.602-186.019-8.602-20.056.206 91.312-9.507 70.812-17.507-20.5-8-109.892-12.5-109.892-12.5z" fill="#E6F8FF"/><path fill-rule="evenodd" clip-rule="evenodd" d="M915.668 402.896a.857.857 0 00-.856-.857c-.227 0-.441-.096-.625-.229a2.63 2.63 0 00-.38-.227c-.539-.265-1.045-.757-1.045-1.358 0-.602.487-1.089 1.088-1.089h.244c.736 0 1.332-.597 1.332-1.332v-5.32c0-.736-.596-1.332-1.332-1.332a1.332 1.332 0 01-1.332-1.333v-.119c0-.802.65-1.452 1.452-1.452.803 0 1.454-.651 1.454-1.453v-1.207c0-.802-.651-1.453-1.454-1.453-.802 0-1.452-.65-1.452-1.452v-.119c0-.736.596-1.332 1.332-1.332.736 0 1.332-.597 1.332-1.333v-5.32c0-.735-.596-1.332-1.332-1.332a1.332 1.332 0 01-1.332-1.332v-.12c0-.801.65-1.451 1.452-1.451.803 0 1.454-.651 1.454-1.454v-1.206c0-.803-.651-1.453-1.454-1.453-.802 0-1.452-.65-1.452-1.452v-.12c0-.735.596-1.332 1.332-1.332.736 0 1.332-.596 1.332-1.332v-5.32c0-.736-.596-1.332-1.332-1.332a1.332 1.332 0 01-1.332-1.332v-.12c0-.802.65-1.452 1.452-1.452.803 0 1.454-.65 1.454-1.453v-1.206c0-.803-.651-1.454-1.454-1.454-.802 0-1.452-.65-1.452-1.451v-.12c0-.736.596-1.332 1.332-1.332.736 0 1.332-.597 1.332-1.332v-5.32c0-.736-.596-1.332-1.332-1.332a1.332 1.332 0 01-1.332-1.333v-.119c0-.802.65-1.452 1.452-1.452.803 0 1.454-.651 1.454-1.453v-.965c0-.802-.651-1.453-1.454-1.453-.802 0-1.452-.65-1.452-1.452v-.119c0-.736.596-1.332 1.332-1.332.736 0 1.332-.597 1.332-1.333v-5.32c0-.735-.596-1.332-1.332-1.332a1.332 1.332 0 01-1.332-1.332v-.12c0-.801.65-1.451 1.452-1.451.803 0 1.454-.651 1.454-1.454v-1.206c0-.803-.65-1.453-1.453-1.453a1.453 1.453 0 01-1.453-1.454v-3.99a5.444 5.444 0 00-5.444-5.444h-.491a5.935 5.935 0 01-5.934-5.935v-4.101a4.24 4.24 0 00-4.239-4.239 4.24 4.24 0 01-4.239-4.239v-7.424a6 6 0 00-6-6h-10.042a6 6 0 00-6 6v7.424a4.24 4.24 0 01-4.239 4.239 4.24 4.24 0 00-4.239 4.239v4.101a5.935 5.935 0 01-5.935 5.935 5.934 5.934 0 00-5.934 5.934v6.313c0 3.274-2.629 5.935-5.9 6.06-11.169.429-18.807 1.465-18.807 2.501v4.597-.242 53.713-.242 12.697a4.48 4.48 0 11-8.962 0v-87.025c0-3.314-2.742-6-6.055-6-3.314 0-6.056-2.686-6.056-6v-37.182a5.45 5.45 0 00-5.45-5.45 5.45 5.45 0 01-5.45-5.45v-6.454a6 6 0 00-6-6h-5.682a6 6 0 00-6 6v6.454a5.45 5.45 0 01-5.45 5.45 5.45 5.45 0 00-5.45 5.45v37.248a5.935 5.935 0 01-5.935 5.934h-4.724a1.21 1.21 0 00-1.21 1.21 1.21 1.21 0 01-1.21 1.21h-.487a1.452 1.452 0 100 2.903h.122c.87 0 1.575.705 1.575 1.575v1.206c0 .869-.705 1.574-1.575 1.574h-.122a1.452 1.452 0 100 2.904h.122c.87 0 1.575.704 1.575 1.574v1.206c0 .87-.705 1.575-1.575 1.575h-.122a1.452 1.452 0 100 2.903h.122c.87 0 1.575.705 1.575 1.575v1.206c0 .869-.705 1.574-1.575 1.574-.869 0-1.574.705-1.574 1.575v.48c0 .87.705 1.574 1.574 1.574.87 0 1.575.705 1.575 1.575v1.206c0 .87-.705 1.575-1.575 1.575h-.122a1.452 1.452 0 100 2.903h.122c.87 0 1.575.705 1.575 1.574v1.207c0 .869-.705 1.574-1.575 1.574h-.122a1.451 1.451 0 100 2.903h.122c.87 0 1.575.705 1.575 1.575v1.69c0 .87-.705 1.574-1.575 1.574h-.122a1.452 1.452 0 100 2.904h.122c.87 0 1.575.705 1.575 1.574v1.207c0 .869-.705 1.574-1.575 1.574h-.122a1.452 1.452 0 100 2.903h.122c.87 0 1.575.705 1.575 1.575v1.206c0 .87-.705 1.575-1.575 1.575h-.122a1.452 1.452 0 100 2.903h.122c.87 0 1.575.705 1.575 1.574v1.207c0 .869-.705 1.574-1.575 1.574h-.122a1.452 1.452 0 100 2.903h.122c.87 0 1.575.705 1.575 1.575v1.206c0 .87-.705 1.575-1.575 1.575h-.122a1.452 1.452 0 100 2.903h.122c.87 0 1.575.705 1.575 1.574v1.207c0 .869-.705 1.574-1.575 1.574h-.122a1.452 1.452 0 100 2.903h.85a.847.847 0 110 1.694h-4.482a5.33 5.33 0 00-5.329 5.329v47.707a6 6 0 006 6h161.431a6 6 0 006-6v-38.388z" fill="#E7EEF6"/><path fill-rule="evenodd" clip-rule="evenodd" d="M915.668 305.747a3.39 3.39 0 00-3.391-3.391 3.391 3.391 0 01-3.391-3.391v-6.645a4.239 4.239 0 00-4.239-4.239 4.24 4.24 0 01-4.239-4.239v-7.424a6 6 0 00-6-6h-10.526a6 6 0 00-6 6v7.545a4.118 4.118 0 01-4.118 4.118 4.118 4.118 0 00-4.118 4.117v4.223a5.935 5.935 0 01-5.934 5.935 5.935 5.935 0 00-5.935 5.934v6.313c0 3.274-2.628 5.935-5.9 6.06-11.169.429-18.807 1.465-18.807 2.5v4.598-.242 18.146-.242 35.325-.242 12.581a4.599 4.599 0 01-4.599 4.597 4.604 4.604 0 01-4.605-4.602v-86.904c0-3.314-2.742-6-6.056-6-3.313 0-6.055-2.686-6.055-6v-37.061a5.57 5.57 0 00-5.571-5.571 5.57 5.57 0 01-5.571-5.571v-6.333a6 6 0 00-6-6h-5.925a6 6 0 00-6 6v6.333a5.57 5.57 0 01-5.571 5.571 5.57 5.57 0 00-5.571 5.571v37.061a6 6 0 01-6 6h-4.901a1.21 1.21 0 00-1.21 1.21 1.21 1.21 0 01-1.21 1.21h-.487a1.452 1.452 0 100 2.903h.122c.87 0 1.575.705 1.575 1.575v1.206c0 .869-.705 1.574-1.575 1.574h-.122a1.452 1.452 0 100 2.904h.122c.87 0 1.575.704 1.575 1.574v1.206c0 .87-.705 1.575-1.575 1.575h-.122a1.452 1.452 0 100 2.903h.122c.87 0 1.575.705 1.575 1.575v1.206c0 .869-.705 1.574-1.575 1.574-.869 0-1.574.705-1.574 1.575v.48c0 .87.705 1.574 1.574 1.574.87 0 1.575.705 1.575 1.575v1.206c0 .87-.705 1.575-1.575 1.575h-.122a1.452 1.452 0 100 2.903h.122c.87 0 1.575.705 1.575 1.574v1.207c0 .869-.705 1.574-1.575 1.574h-.122a1.451 1.451 0 100 2.903h.122c.87 0 1.575.705 1.575 1.575v1.69c0 .87-.705 1.574-1.575 1.574h-.122a1.452 1.452 0 100 2.904h.122c.87 0 1.575.705 1.575 1.574v1.207c0 .869-.705 1.574-1.575 1.574h-.122a1.452 1.452 0 100 2.903h.122c.87 0 1.575.705 1.575 1.575v1.206c0 .87-.705 1.575-1.575 1.575h-.122a1.452 1.452 0 100 2.903h.122c.87 0 1.575.705 1.575 1.574v1.207c0 .869-.705 1.574-1.575 1.574h-.122a1.452 1.452 0 100 2.903h.122c.87 0 1.575.705 1.575 1.575v1.206c0 .87-.705 1.575-1.575 1.575h-.122a1.452 1.452 0 100 2.903h.122c.87 0 1.575.705 1.575 1.574v1.207c0 .869-.705 1.574-1.575 1.574h-.122a1.452 1.452 0 100 2.903h.85a.847.847 0 110 1.694h-4.482a5.33 5.33 0 00-5.329 5.329v47.707a6 6 0 006 6h154.891a6 6 0 006-6V305.747z" fill="#D8DEEB"/><path fill-rule="evenodd" clip-rule="evenodd" d="M792.862 410.507c-1.938 0-3.392-1.451-3.392-3.387v-2.661c0-.314.11-.616.294-.869.819-1.127 1.402-2.428 1.402-3.728 0-3.388-2.664-12.098-6.055-12.098-3.392 0-6.056 8.71-6.056 12.098 0 .682-.562 1.451-1.245 1.451h-3.005a2.774 2.774 0 01-2.774-2.775v-80.694a2.907 2.907 0 00-2.907-2.907 2.907 2.907 0 01-2.907-2.907v-2.17c0-1.74-1.41-3.149-3.149-3.149h-.729a2.42 2.42 0 01-2.42-2.42v-3.022a1.816 1.816 0 00-1.816-1.817 1.816 1.816 0 01-1.817-1.817v-2.175a3.992 3.992 0 00-3.992-3.992h-3.642a3.992 3.992 0 00-3.993 3.992v2.175a1.816 1.816 0 01-1.816 1.817 1.816 1.816 0 00-1.817 1.817v2.535a3.15 3.15 0 01-3.149 3.149 3.148 3.148 0 00-3.149 3.148v2.9a2.178 2.178 0 01-2.177 2.178h-1.093a3.27 3.27 0 00-3.27 3.27v12.094c0 8.485-6.878 15.364-15.364 15.364h-23.167c-8.552 0-15.484-6.933-15.484-15.485v-12.094a3.391 3.391 0 00-3.391-3.391 3.392 3.392 0 01-3.392-3.391v-3.503c0-.736-.596-1.332-1.332-1.332a1.332 1.332 0 01-1.332-1.333v-.361a2.42 2.42 0 00-2.419-2.42h-5.819a2.42 2.42 0 00-2.42 2.42c0 .935-.758 1.694-1.693 1.694h-2.184a1.694 1.694 0 01-1.694-1.694 2.42 2.42 0 00-2.419-2.42h-5.698a2.057 2.057 0 00-2.056 2.057v.724c0 .736-.597 1.333-1.332 1.333-.736 0-1.333.596-1.333 1.332v4.958a1.935 1.935 0 01-1.935 1.936h-.245a2.18 2.18 0 00-2.18 2.18v97.23c0 8.837 7.164 16 16 16h143.867c2.665 0 5.087-2.177 5.087-5.081v-11.613c0-1.694-1.454-3.146-3.391-3.146z" fill="#E7EEF6"/><path fill-rule="evenodd" clip-rule="evenodd" d="M800.562 410.507c-1.938 0-3.391-1.451-3.391-3.387v-2.661c0-.314.11-.616.294-.869.818-1.127 1.402-2.428 1.402-3.728 0-3.388-2.665-12.098-6.056-12.098s-6.055 8.71-6.055 12.098c0 .682-.562 1.451-1.245 1.451h-3.005a2.774 2.774 0 01-2.775-2.775v-80.694a2.906 2.906 0 00-2.907-2.907 2.906 2.906 0 01-2.906-2.907v-2.17c0-1.74-1.41-3.149-3.149-3.149h-.729a2.42 2.42 0 01-2.42-2.42v-3.022a1.816 1.816 0 00-1.817-1.817 1.816 1.816 0 01-1.816-1.817v-2.175a3.992 3.992 0 00-3.992-3.992h-3.643a3.992 3.992 0 00-3.992 3.992v2.175a1.816 1.816 0 01-1.817 1.817 1.816 1.816 0 00-1.816 1.817v2.535a3.15 3.15 0 01-3.149 3.149 3.148 3.148 0 00-3.149 3.148v2.9a2.178 2.178 0 01-2.178 2.178h-1.092a3.27 3.27 0 00-3.27 3.27v12.094c0 8.485-6.879 15.364-15.364 15.364h-23.167c-8.552 0-15.485-6.933-15.485-15.485v-12.094a3.39 3.39 0 00-3.391-3.391 3.39 3.39 0 01-3.391-3.391v-3.503c0-.736-.596-1.332-1.332-1.332a1.332 1.332 0 01-1.332-1.333v-.361a2.42 2.42 0 00-2.42-2.42h-5.819a2.42 2.42 0 00-2.419 2.42c0 .935-.758 1.694-1.694 1.694h-2.184a1.694 1.694 0 01-1.693-1.694 2.42 2.42 0 00-2.42-2.42h-5.697a2.057 2.057 0 00-2.057 2.057v.724c0 .736-.596 1.333-1.332 1.333-.736 0-1.332.596-1.332 1.332v4.958a1.936 1.936 0 01-1.936 1.936h-.244a2.18 2.18 0 00-2.18 2.18v97.23c0 8.837 7.163 16 16 16h143.867c2.664 0 5.086-2.177 5.086-5.081v-11.613c0-1.694-1.453-3.146-3.391-3.146z" fill="#D8DEEB"/><path fill-rule="evenodd" clip-rule="evenodd" d="M198.596 385.376c-4.723-.945-10.391-.236-15.822 2.361-1.417-2.833-3.306-4.723-6.14-5.667-5.904-1.889-12.752 2.361-16.531 9.918-1.889-.944-4.014-1.417-6.376-1.889-9.446-1.417-17.947 2.125-20.073 8.501-.944 0-2.125-.236-3.07-.236 0-.236-.236-.472-.236-.708-1.889-4.959-8.029-7.557-14.877-7.085 1.181-2.597 1.417-5.431.472-8.029-2.597-6.376-12.516-8.737-22.198-4.959-1.18.472-2.125.945-3.07 1.417-3.778-7.557-10.39-12.988-18.183-13.933v82.653a47.096 47.096 0 0013.224 1.889c8.501 0 16.058-2.126 22.198-5.432 5.668 2.834 12.752 4.487 20.309 4.487 8.501 0 16.058-2.125 22.198-5.431 5.668 2.834 12.752 4.487 20.309 4.487 4.487 0 8.738-.709 12.752-1.653 1.889.944 4.251 1.416 6.376 1.889v8.737c1.653-.472 3.306-.944 4.959-1.653 4.487 1.181 9.21 1.889 14.405 1.889 8.502 0 16.531-1.889 22.907-5.195 6.848 3.779 15.586 6.14 25.032 6.14 8.501 0 16.53-1.889 22.907-5.195 6.848 3.778 15.585 6.14 25.031 6.14a55.366 55.366 0 0018.184-3.07c6.612 3.306 14.405 5.195 23.143 5.195 4.25 0 8.265-.472 12.043-1.417 5.432-.472 10.627-1.889 15.35-3.778a50.473 50.473 0 0015.35 3.778c3.778.945 7.793 1.417 12.044 1.417 8.501 0 16.53-1.889 23.142-5.195a55.376 55.376 0 0018.184 3.07c9.446 0 18.183-2.362 25.032-6.14 6.612 3.306 14.405 5.195 22.906 5.195 9.446 0 18.184-2.361 25.032-6.14 6.612 3.306 14.405 5.195 22.907 5.195 4.959 0 9.918-.708 14.405-1.889 1.653.709 3.306 1.181 4.959 1.653v-8.737c2.362-.473 4.487-1.181 6.376-1.889 4.015 1.18 8.265 1.653 12.752 1.653 7.557 0 14.642-1.653 20.309-4.487 6.14 3.542 13.697 5.431 22.198 5.431 7.557 0 12.516 4.015 18.42 1.181 6.14 3.542 15.822-.236 24.323-.236h6.613c8.501 0 18.183 3.542 24.323.236 5.668 2.834 10.863-1.181 18.42-1.181 8.501 0 16.058-2.125 22.198-5.431 5.668 2.834 12.752 4.487 20.309 4.487 4.487 0 8.737-.709 12.752-1.653 1.889.944 4.251 1.653 6.376 1.889v8.737c1.653-.472 3.306-.944 4.959-1.653 4.487 1.181 9.21 1.889 14.405 1.889 8.502 0 16.531-1.889 22.907-5.195 6.848 3.779 15.586 6.14 25.032 6.14 8.501 0 16.53-1.889 22.906-5.195 6.849 3.778 15.586 6.14 25.032 6.14a55.376 55.376 0 0018.184-3.07c6.612 3.306 14.405 5.195 23.143 5.195 4.25 0 8.265-.472 12.043-1.417 5.432-.472 10.627-1.889 15.35-3.778a50.473 50.473 0 0015.35 3.778c3.778.945 7.793 1.417 12.043 1.417 8.502 0 16.527-1.889 23.147-5.195a55.351 55.351 0 0018.18 3.07c9.45 0 18.18-2.362 25.03-6.14 6.61 3.306 14.41 5.195 22.91 5.195 9.44 0 18.18-2.361 25.03-6.14 6.61 3.306 14.41 5.195 22.91 5.195 4.72 0 9.44-.708 13.69-1.653v-70.372c-.94 0-2.12.236-3.07.472-1.18-1.181-2.59-2.125-4.25-2.598-6.61-2.125-14.4 2.834-18.65 11.336-2.13-.945-4.49-1.654-7.09-2.126-10.62-1.653-20.31 2.598-22.67 9.446-1.18-.236-2.36-.236-3.54-.236 0-.236-.24-.472-.24-.945-2.12-5.667-8.97-8.501-16.76-7.793 1.18-3.069 1.41-6.139.47-8.973-2.83-7.557-14.17-10.155-25.03-5.904-1.18.472-2.36.945-3.55 1.653-4.25-8.974-11.8-15.114-21.01-15.822-2.6-.236-5.2 0-7.8.708 2.84-10.154 0-20.072-7.08-22.67-6.376-2.361-13.933 1.653-18.656 9.446a21.005 21.005 0 00-9.21-2.834c-3.542-.236-6.848.236-10.154 1.417-15.35-5.904-53.842-15.586-45.105 14.405-2.597-.708-5.195-.944-7.793-.708-9.209.708-17.003 7.084-21.017 15.822-1.181-.709-2.362-1.181-3.542-1.653-10.863-4.251-21.962-1.653-25.032 5.904-1.181 2.833-.945 5.903.472 8.973-7.793-.708-14.641 2.362-16.767 7.793 0 .236-.236.473-.236.945-1.18 0-2.361.236-3.542.236-2.361-7.084-12.044-11.099-22.67-9.446-2.598.472-4.959 1.181-7.085 2.125-4.251-8.501-12.044-13.46-18.656-11.335-1.653.472-3.07 1.417-4.25 2.598-4.723-.945-10.391-.236-15.822 2.361-1.417-2.833-3.307-4.723-6.14-5.667-5.904-1.889-14.878-8.266-18.656-.709-8.029-3.542-20.545-6.612-20.545 7.793-3.779-3.542-7.085 0-7.085 2.126-1.889-6.376-4.487-6.376-10.39-5.904 6.376-15.114-11.572-26.213-25.032-13.461-6.14-13.224-14.642-6.376-20.782 6.849-.944-.473-2.125-.945-3.07-1.417-9.682-3.779-19.6-1.417-22.198 5.195-.944 2.598-.708 5.195.473 8.029-6.849-.472-12.989 2.125-14.878 7.085 0 .236-.236.472-.236.708-.945 0-2.125 0-3.07.236-2.125-6.14-10.627-9.918-20.073-8.501-2.361.472-4.487.944-6.376 1.889-3.778-7.557-10.626-12.044-16.53-9.918-2.598.944-4.723 2.834-6.14 5.667-5.432-2.597-11.099-3.306-15.822-2.361-1.181-1.181-2.598-2.126-4.251-2.598-6.612-2.125-14.405 2.834-18.656 11.335-2.125-.944-4.487-1.653-7.084-2.125-10.627-1.653-20.309 2.598-22.671 9.446-1.18-.236-2.361-.236-3.542-.236 0-.236-.236-.472-.236-.945-2.125-5.667-8.974-8.501-16.767-7.793 1.181-3.07 1.417-6.14.473-8.973-2.834-7.557-14.169-10.155-25.032-5.904-1.181.472-2.362.944-3.543 1.653-4.25-8.974-11.807-15.114-21.017-15.822-2.598-.236-5.195 0-7.793.708 8.738-30.227-29.755-20.309-45.105-14.405-3.306-1.181-6.612-1.653-10.154-1.417a21.01 21.01 0 00-9.21 2.834c-4.723-7.793-12.28-11.807-18.656-9.446-7.084 2.598-9.918 12.516-7.084 22.67-2.598-.708-5.196-.944-7.793-.708-9.21.708-16.767 7.085-21.018 15.822-1.18-.708-2.361-1.181-3.542-1.653-10.863-4.251-21.962-1.653-25.032 5.904-1.18 2.834-.944 5.904.473 8.973-7.793-.708-14.642 2.362-16.767 7.793 0 .237-.236.473-.236.945-1.181 0-2.362.236-3.543.236-2.361-7.084-12.043-11.099-22.67-9.446-2.598.472-4.959 1.181-7.084 2.126-4.251-8.502-12.044-13.461-18.656-11.336-1.889.473-3.306 1.417-4.723 2.598z" fill="#AFDDAB"/><path d="M964 637l34-193s-98-15-140-15c-235.096 0-345.147-10.684-580 0-69.562 3.164-178 10.5-178 10.5V637h864z" fill="#7CC076"/><path d="M1226 480H69v165.208h1157V480z" fill="#C4CDDF"/><path d="M1226 488H69v14.937h1157V488z" fill="#767D86"/><path d="M1226 479.928H69v7.905h1157v-7.905z" fill="#E7EEF6"/><path d="M1226 485H69v2.833h1157V485z" fill="#CCC"/><path d="M151.79 566.819L183.157 573H69v-6.181h82.79zM1226 573v-6.181h-48.85l31.37 6.181H1226zm-112.87-6.181L1144.5 573h-128.3l-31.37-6.181h128.3zm-192.321 0L952.177 573H823.878l-31.367-6.181h128.298zm-192.319 0L759.858 573H631.559l-31.367-6.181H728.49zm-192.062 0L567.796 573H439.497l-31.367-6.181h128.298zm-192.319 0L375.477 573H247.178l-31.367-6.181h128.298z" fill="#fff"/></g><path fill-rule="evenodd" clip-rule="evenodd" d="M563.628 534.753c148.68 0 269.797-3.785 269.797-8.516s-121.275-8.516-269.797-8.516c-148.523 0-269.798 3.785-269.798 8.516-.157 4.573 121.118 8.516 269.798 8.516z" fill="#68667B" opacity=".75"/><path fill-rule="evenodd" clip-rule="evenodd" d="M779.5 536c21.768 0 39.5-1.778 39.5-4s-17.755-4-39.5-4-39.5 1.778-39.5 4c-.023 2.148 17.732 4 39.5 4zm85 17c20.666 0 37.5-4 37.5-9s-16.856-9-37.5-9-37.5 4-37.5 9c-.022 4.833 16.835 9 37.5 9zm-73.5-2c3.858 0 7-.222 7-.5s-3.147-.5-7-.5-7 .222-7 .5c-.004.269 3.142.5 7 .5z" fill="#68667B" opacity=".75"/><rect x="788.09" y="544" width="11" height="3" rx="1" transform="rotate(21.314 788.09 544)" fill="#A7A9AC"/><path d="M787.255 543.085l-1.276 3.34 1.597 3.432 4.219.167 1.633-3.834-2.432-4.087-3.741.982z" fill="#BCBEC0" stroke="#BCBEC0" stroke-linejoin="round"/><path d="M784.766 546.405a.252.252 0 00.031.237l2.237 3.122a.255.255 0 00.201.107l3.75.11a.243.243 0 00.233-.148l1.634-3.834a.251.251 0 00-.012-.217l-2.027-3.709a.256.256 0 00-.261-.131l-4.146.604a.243.243 0 00-.192.152l-1.448 3.707z" fill="#E2E3E4" stroke="#E2E3E4" stroke-width=".5" stroke-linecap="round" stroke-linejoin="round"/><path fill-rule="evenodd" clip-rule="evenodd" d="M826.338 563.078c-3.858 0-7-.222-7-.5s3.146-.5 7-.5c3.853 0 7 .222 7 .5.004.268-3.142.5-7 .5z" fill="#68667B" opacity=".75"/><rect width="9.602" height="3" rx="1" transform="scale(-1 1) rotate(21.314 -1892.158 -1925.323)" fill="#E2E3E4"/><path d="M829.562 554.859l2.089 2.767.174 3.62-2.802 1.283-2.514-3.13.153-4.453 2.9-.087z" fill="#E2E3E4" stroke="#BCBEC0" stroke-linejoin="round"/><path d="M832.544 557.29a.257.257 0 01.051.178l-.374 3.503a.235.235 0 01-.141.191l-2.505 1.105a.262.262 0 01-.308-.078l-2.513-3.13a.253.253 0 01-.057-.158l.017-3.994a.239.239 0 01.198-.233l3.036-.546a.265.265 0 01.255.1l2.341 3.062z" fill="#A7A9AC" stroke="#A7A9AC" stroke-width=".5" stroke-linecap="round" stroke-linejoin="round"/><path fill-rule="evenodd" clip-rule="evenodd" d="M624.107 433.979c26.46-.788 38.115 17.032 38.273 47.154 0 29.964-21.578 49.046-43.943 47.154-22.365-1.893-39.847-21.133-38.272-47.154 1.575-26.021 17.482-46.365 43.942-47.154z" fill="#231F20"/><path fill-rule="evenodd" clip-rule="evenodd" d="M635.605 439.657c13.702 0 24.57 14.824 26.617 34.695.158 2.208.158 4.416.158 6.781 0 25.864-16.065 45.892-34.65 46.681-14.018-2.839-23.94-21.448-22.995-43.842 1.102-24.444 14.962-44.315 30.87-44.315z" fill="#383431"/><path fill-rule="evenodd" clip-rule="evenodd" d="M635.762 445.176c12.915 0 25.2 16.086 22.365 39.742-2.835 23.656-14.805 33.591-26.145 34.853-11.34 1.419-22.837-16.086-21.892-35.957.787-19.713 12.757-38.638 25.672-38.638z" fill="#A7A9AC"/><path fill-rule="evenodd" clip-rule="evenodd" d="M635.605 450.538c11.182 0 21.577 13.878 19.215 34.222-2.363 20.344-12.758 28.86-22.523 29.964-9.765 1.104-19.53-13.878-18.742-30.91.63-17.032 10.867-33.276 22.05-33.276z" fill="#6D6E71"/><path fill-rule="evenodd" clip-rule="evenodd" d="M388.015 433.979c26.46-.788 38.115 17.032 38.273 47.154 0 29.964-21.578 49.046-43.943 47.154-22.365-1.893-39.847-21.133-38.272-47.154 1.575-26.021 17.482-46.365 43.942-47.154z" fill="#231F20"/><path fill-rule="evenodd" clip-rule="evenodd" d="M399.513 439.657c13.702 0 24.57 14.824 26.617 34.695.158 2.208.158 4.416.158 6.781 0 25.864-16.065 45.892-34.65 46.681-14.018-2.839-23.94-21.448-22.995-43.842 1.102-24.444 14.962-44.315 30.87-44.315z" fill="#383431"/><path fill-rule="evenodd" clip-rule="evenodd" d="M399.67 445.176c12.915 0 25.2 16.086 22.365 39.742-2.835 23.656-14.805 33.591-26.145 34.853-11.34 1.419-22.837-16.086-21.892-35.957.787-19.713 12.6-38.638 25.672-38.638z" fill="#A7A9AC"/><path fill-rule="evenodd" clip-rule="evenodd" d="M399.513 450.538c11.182 0 21.577 13.878 19.215 34.222-2.363 20.344-12.758 28.86-22.523 29.964-9.765 1.104-19.53-13.878-18.742-30.91.63-17.032 10.867-33.276 22.05-33.276z" fill="#6D6E71"/><path fill-rule="evenodd" clip-rule="evenodd" d="M427.548 510.523l316.417 4c13.702-1.892 53.393-3.785 67.095-5.677 16.538-60.243-27.562-80.645-58.747-96.1H412.9l-84.105 92.1c24.255 4.731 65.835 5.677 98.753 5.677z" fill="#58595B"/><g clip-path="url(#clip0)" fill-rule="evenodd" clip-rule="evenodd"><path d="M765.35 463c4.66 0 8.349 7.155 8.349 16.099 0 8.746-3.689 16.1-8.349 16.1-4.661-.199-8.35-7.354-8.35-16.1 0-8.944 3.689-16.099 8.35-16.099z" fill="#383431"/><path d="M768.456 463c4.661 0 8.35 7.155 8.35 16.099 0 8.746-3.689 16.1-8.35 16.1-4.66 0-8.349-7.156-8.349-16.1 0-8.944 3.689-16.099 8.349-16.099z" fill="#6D6E71"/></g><path fill-rule="evenodd" clip-rule="evenodd" d="M511.81 433.979c26.46-.788 38.115 17.032 38.272 47.154 0 29.964-21.577 49.046-43.942 47.154-22.365-1.893-39.848-21.133-38.273-47.154 1.733-26.021 17.483-46.365 43.943-47.154z" fill="#231F20"/><path fill-rule="evenodd" clip-rule="evenodd" d="M523.307 439.657c13.703 0 24.57 14.824 26.618 34.695.157 2.208.157 4.416.157 6.781 0 25.864-16.065 45.892-34.65 46.681-14.017-2.839-23.94-21.448-22.995-43.842 1.103-24.444 14.963-44.315 30.87-44.315z" fill="#414042"/><path fill-rule="evenodd" clip-rule="evenodd" d="M523.465 445.176c12.915 0 25.2 16.086 22.365 39.742-2.835 23.656-14.805 33.591-26.145 34.853-11.34 1.419-22.838-16.086-21.893-35.957.945-19.713 12.758-38.638 25.673-38.638z" fill="#E2E3E4"/><path fill-rule="evenodd" clip-rule="evenodd" d="M523.465 445.176c7.402 0 14.647 5.205 18.9 14.036 1.26 5.204 1.575 11.039.787 17.505-2.835 23.183-14.805 32.803-26.145 34.222-6.772.789-13.702-5.046-17.955-14.036-1.102-4.258-1.575-8.831-1.417-13.562 1.102-19.556 12.915-38.165 25.83-38.165z" fill="#BCBEC0"/><path fill-rule="evenodd" clip-rule="evenodd" d="M517.952 499.111c-.472 4.416-.472 9.936-1.102 14.194 3.15 0 6.142-1.262 8.82-3.47-.158-3.785-2.993-8.043-6.3-11.197-.315-.315-.63-.315-.945-.157-.158 0-.473.315-.473.63zm7.088-8.989c.157 1.42 4.095 7.885 6.142 9.778.158.158.473.315.788.158.315 0 .472-.316.63-.473a46.427 46.427 0 002.677-8.99c.158-.473-.157-.788-.472-.946-3.623-1.419-6.773-1.419-9.135-.315-.473.157-.63.473-.63.788zm1.575-10.408c3.307.473 6.772.788 9.922 1.577.158-4.258-.157-8.043-.945-11.513-4.882 3.785-8.662 7.412-8.977 9.936zm-3.308-25.706l-1.575 12.143c0 .316.158.631.315.789.315.157.63.315.788.157 2.992-1.104 5.67-3.469 8.032-6.466a.762.762 0 000-1.103c-1.89-2.839-4.095-4.889-6.615-6.151-.315-.158-.63-.158-.787 0 .157.158 0 .315-.158.631zm-17.482 8.043l7.087 6.308c2.835-.473 5.513-14.667 2.363-15.297-5.198-.947-7.718 3.942-9.765 7.885 0 .473 0 .946.315 1.104zm-2.835 8.673c2.205 2.681 4.095 5.678 3.937 8.99-.157 3.627-3.78 5.204-6.457 6.939-.315.157-.63.157-.788 0-.315-.158-.472-.316-.472-.631-.63-4.258 1.26-11.355 2.362-14.982.158-.316.315-.473.63-.631.315-.158.63 0 .788.315zm3.465 37.061c3.78-5.204 4.725-8.674 3.15-15.297-1.26-1.577-5.355 2.365-8.348 4.258-.315.157-.472.63-.472.946.945 3.785 2.362 7.097 4.252 10.093a.868.868 0 00.788.473c.157 0 .315-.158.63-.473z" fill="#A7A9AC"/><path fill-rule="evenodd" clip-rule="evenodd" d="M517.795 500.688c-.315 4.101-.473 8.832-.945 12.459.63 0 1.102 0 1.575-.158 1.417-.63 2.835-1.419 4.252-2.523 0-3.154-2.205-6.781-4.882-9.778zm7.245-10.566c.157 1.262 2.992 6.151 5.197 8.674.788-2.208 1.575-4.731 2.048-7.57.157-.473-.158-.788-.473-.946-2.205-.946-4.41-1.262-6.3-1.104-.315.315-.472.631-.472.946zm1.575-10.408c2.362.315 4.725.631 6.93.946 0-3.154-.158-5.993-.63-8.674-3.465 2.997-5.985 5.678-6.3 7.728zm-3.308-24.602l-1.417 11.039c0 .316 0 .631.315.789 2.205-1.262 4.095-3.154 6.142-5.52a.763.763 0 000-1.104c-1.575-2.208-3.307-3.943-5.04-5.204zm-17.482 6.939l5.985 5.204c2.047-3.943 3.15-12.932.63-13.405-.473-.158-.945-.158-1.26-.158-2.52 1.42-4.095 4.574-5.513 7.255-.157.473-.157.946.158 1.104zm-6.615 24.286c0-.157-.158-.157-.158-.315-.472-3.785.788-9.462 1.89-13.247 1.733 2.365 3.15 5.046 2.993 7.727-.158 2.839-2.52 4.416-4.725 5.835zm7.245 6.782c-1.575 1.104-3.623 2.681-5.198 3.627-.315.158-.472.631-.472.946.945 3.47 2.205 6.624 3.78 9.462 2.835-4.415 3.465-7.727 2.047-13.72-.157-.158-.157-.315-.157-.315z" fill="#58595B"/><path fill-rule="evenodd" clip-rule="evenodd" d="M515.59 476.402c-1.26.788-2.048 2.996-2.048 5.52 0 3.154 1.418 5.677 3.308 5.835-.315.157-.788.315-1.103.315-1.89 0-3.307-2.523-3.307-5.835-.158-3.312 1.417-5.835 3.15-5.835z" fill="#A7A9AC"/><path fill-rule="evenodd" clip-rule="evenodd" d="M517.322 485.864c1.26 0 2.205-1.735 2.205-3.942 0-2.208-.945-3.943-2.205-3.943-1.26 0-2.205 1.735-2.205 3.943-.157 2.207.945 3.942 2.205 3.942z" fill="#A7A9AC"/><path fill-rule="evenodd" clip-rule="evenodd" d="M825.225 537.942c-2.162-8.206 8.839-16.149 25.562-19.297 1.869-.308 3.763-.522 5.792-.75 22.186-2.502 41.901 5.182 45.51 16.237-.223 8.67-14.62 16.412-33.979 18.013-21.143 1.704-40.375-4.676-42.885-14.203z" fill="#BCBEC0"/><path fill-rule="evenodd" clip-rule="evenodd" d="M825.552 536.343c-2.194-8.327 11.572-18.034 35.366-18.835 23.793-.801 35.617 5.812 38.787 12.983 3.325 7.153-11.974 16.511-31.716 18.109-19.587 1.582-40.243-3.931-42.437-12.257z" fill="#E2E3E4"/><path fill-rule="evenodd" clip-rule="evenodd" d="M879.64 533.904c4.432-.186 9.871-.8 14.174-.867-.535-2.03-2.286-3.82-4.917-5.3-3.703.522-7.418 2.823-9.964 5.305-.257.239-.204.442.005.627.027.102.391.27.702.235zm-10.063-3.571c1.372-.259 7.076-3.516 8.593-5.047.128-.119.23-.339.021-.525-.053-.203-.391-.269-.573-.353a69.865 69.865 0 00-9.313-.728c-.493-.049-.75.189-.852.41-.784 2.493-.249 4.524 1.24 5.924.236.287.574.354.884.319zm-10.524.141c-.096-2.185-.374-4.453-.132-6.572-4.222.372-7.899.995-11.184 1.889 4.559 2.727 8.776 4.761 11.316 4.683zm-24.771 4.989l12.234-.334c.311-.035.595-.171.724-.29.102-.221.204-.442.022-.526-1.597-1.806-4.383-3.27-7.737-4.46-.364-.168-.83-.115-1.088.123-2.476 1.534-4.122 3.183-4.937 4.948-.102.221-.049.424.134.508.128-.119.31-.035.648.031zm10.896 10.377l5.012-5.27c-.947-1.775-15.389-1.924-15.476.177-.05 3.456 5.196 4.537 9.429 5.419.466-.053.933-.105 1.035-.326zm9.029.864c2.267-1.719 4.899-3.271 8.19-3.537 3.601-.302 5.77 1.859 7.935 3.392.208.186.262.389.133.508-.102.22-.23.339-.541.375-4.089.879-11.404.449-15.166.141-.337-.066-.519-.15-.728-.336-.209-.185-.107-.406.177-.543zm35.933-6.352c-5.77-1.859-9.35-2.082-15.61-.331-1.34.988 3.241 3.19 5.614 4.909.209.185.702.234 1.013.199 3.569-1.03 6.592-2.312 9.224-3.863.284-.137.386-.357.333-.56-.027-.102-.209-.186-.574-.354z" fill="#A7A9AC"/><path fill-rule="evenodd" clip-rule="evenodd" d="M881.221 533.83c4.094-.253 8.783-.677 12.438-.775-.107-.407-.187-.711-.423-.998a16.705 16.705 0 00-3.209-2.461c-3.108.35-6.308 2.175-8.806 4.234zm-11.644-3.497c1.217-.242 5.553-2.613 7.665-4.314-2.309-.263-4.929-.49-7.807-.479-.493-.049-.751.189-.852.409-.558 1.527-.495 2.984-.018 4.185.364.168.702.234 1.012.199zm-10.524.141a324.191 324.191 0 01-.245-4.573c-3.108.351-5.879.768-8.441 1.37 3.542 1.901 6.612 3.228 8.686 3.203zm-23.683 4.866l11.12-.313c.31-.035.621-.07.723-.29-1.618-1.282-3.804-2.29-6.483-3.347-.364-.168-.83-.115-1.088.123-1.908 1.26-3.323 2.57-4.272 3.827zm9.808 10.5l4.112-4.437c-4.233-.882-13.279-.594-13.317 1.084-.076.322.005.626.058.829 1.827 1.467 5.203 2.132 8.085 2.748.493.049.96-.003 1.062-.224zm25.057 1.566c-.156.018-.129.119-.284.137-3.65.725-9.459.543-13.376.253 2.037-1.38 4.438-2.591 7.107-2.788 2.824-.214 4.78 1.134 6.553 2.398zm5.452-5.424c1.355.893 3.257 2.038 4.457 2.948.209.185.702.234 1.013.199 3.259-.995 6.153-2.157 8.683-3.488-4.833-1.337-8.204-1.375-13.869.204-.129.119-.284.137-.284.137z" fill="#58595B"/><path fill-rule="evenodd" clip-rule="evenodd" d="M857.661 537.95c.992.725 3.301.987 5.788.707 3.108-.351 5.354-1.545 5.188-2.781.209.186.445.473.498.676.321 1.218-1.925 2.413-5.188 2.781-3.237.469-5.991-.266-6.286-1.383z" fill="#A7A9AC"/><path fill-rule="evenodd" clip-rule="evenodd" d="M866.692 535.782c-.214-.813-2.084-1.229-4.26-.984-2.175.246-3.724 1.048-3.51 1.86.214.812 2.084 1.229 4.259.983 2.203-.143 3.725-1.047 3.511-1.859z" fill="#A7A9AC"/><path fill-rule="evenodd" clip-rule="evenodd" d="M305.17 446.968c3.623-12.931 11.183-20.186 17.798-24.602 37.327-12.931 92.137-21.763 129.937-28.86 49.298-2.681 101.745-1.892 136.71 5.047-24.255 25.864-65.835-3.943-103.792 31.383 21.892 16.402-56.858 61.032-66.15 74.91H309.108c-.63-2.523-1.418-5.362-2.048-8.358h1.418c-.63-2.997-.945-5.993-1.575-8.674h-1.733c-2.52-13.878-3.622-29.964 0-40.846z" fill="#E2304D"/><path fill-rule="evenodd" clip-rule="evenodd" d="M395.733 450.911c32.445-49.362 159.547-48.416 176.557-46.523-8.662-12.301-72.607-12.301-122.85-10.251 18.113-12.301 44.1-28.545 77.49-38.165 21.42-6.15 61.425-5.677 88.2-4.731 41.265 1.577 90.72 4.574 116.235 12.301 14.49 4.416 29.925 28.918 36.225 38.38 5.67 8.516 37.013 4.573 47.723 11.512 15.277 9.936 14.332 29.964 12.285 54.251 11.025 1.261 8.82 16.086-1.26 36.903-3.78 0-14.49 4.1-18.27 4.1 10.867-107.082-81.585-81.691-76.388 0-43.942 0-133.402-4-177.502-4 18.112-101.246-74.813-110.393-80.483 0H434.95c-11.182-20.344 25.358-48.1-5.985-47.784-34.02.473-34.965-3.312-33.232-5.993z" fill="#EC5F6B"/><path fill-rule="evenodd" clip-rule="evenodd" d="M586.937 405.807c.315-6.623 14.648-26.336 33.705-40.372 3.15-2.366 9.765-4.574 19.53-5.047 26.933-1.419 48.668-.157 75.6 8.201 8.663 2.681 32.13 37.534 20.79 37.849-39.217.473-110.407-.631-149.625-.631z" fill="#E11E3E"/><path fill-rule="evenodd" clip-rule="evenodd" d="M451.645 478.667c-14.49 11.039-28.35 20.975-31.815 26.179H309.108c-.63-2.523-1.418-5.362-2.048-8.358h1.418c-.63-2.997-.945-5.993-1.575-8.674h-1.733l-1.417-8.989h147.892v-.158z" fill="#EC5F6B"/><path fill-rule="evenodd" clip-rule="evenodd" d="M321.393 456.746c24.412-1.419 49.927-3.943 68.985.158 2.677-7.412 10.08-17.663 20.632-25.233-27.405-3.312-61.11 0-91.665 0 2.835 5.52 4.725 15.455 2.048 25.075z" fill="#58595B"/><path fill-rule="evenodd" clip-rule="evenodd" d="M317.14 426.782c34.02-.158 80.168-4.731 99.855 0 24.098 5.835 43.785 3.47 45.203 5.835l-45.203-4.1c-19.687-4.731-67.567 0-101.43 0 .473-.631 1.103-1.104 1.575-1.735z" fill="#EC5F6B"/><path fill-rule="evenodd" clip-rule="evenodd" d="M436.053 485.606c-2.835 4.416-2.363 9.778-3.308 14.351H307.69l-.945-3.312h1.575c-.63-2.996-.945-5.992-1.575-8.673h-1.575c-.157-.631-.315-1.104-.315-1.735l131.198-.631z" fill="#58595B"/><path fill-rule="evenodd" clip-rule="evenodd" d="M308.95 499.642h136.868c2.835 0 5.197 1.261 5.197 2.681 0 1.419-2.362 2.681-5.197 2.681H308.95c-2.835 0-5.197-1.262-5.197-2.681 0-1.577 2.362-2.681 5.197-2.681z" fill="#EC5F6B"/><path fill-rule="evenodd" clip-rule="evenodd" d="M303.91 458.796h92.453c2.205 0 4.095 1.893 4.095 4.1v13.879c0 2.207-1.89 4.1-4.095 4.1H303.91c-2.205 0-4.095-1.893-4.095-4.1v-13.879c0-2.207 1.89-4.1 4.095-4.1z" fill="#E2304D"/><path fill-rule="evenodd" clip-rule="evenodd" d="M400.143 478.667c-.63 1.262-2.048 2.208-3.623 2.208h-92.61c-1.575 0-2.992-.946-3.622-2.208h99.855z" fill="#E11E3E"/><path fill-rule="evenodd" clip-rule="evenodd" d="M461.095 392.56c10.395-10.408 42.525-26.494 73.237-32.172 32.603-4.258 54.653-1.892 80.01 1.104-15.277 10.882-26.46 24.287-41.895 35.168-36.697-7.727-81.585-7.096-111.352-4.1z" fill="#CDEEF0"/><path fill-rule="evenodd" clip-rule="evenodd" d="M590.56 404.703c.315-6.15 14.017-24.444 32.13-37.533 2.992-2.208 9.292-4.258 18.585-4.731 25.672-1.262 46.462-.158 72.135 7.569 8.19 2.524 30.712 34.853 19.687 35.169-37.327.63-105.21-.474-142.537-.474z" fill="#82ADB1"/><path fill-rule="evenodd" clip-rule="evenodd" d="M590.56 404.704c.157-5.047 9.292-17.979 22.522-29.807 12.285 9.305 27.72 28.072 19.215 29.964-15.75 0-30.24-.157-41.737-.157zm53.392-42.423c24.413-1.104 44.73.157 69.458 7.727 5.67 1.735 18.112 17.663 21.735 27.441h-61.268c-5.985 0-13.702-4.889-16.852-11.039l-13.073-24.129z" fill="#C0D8DA"/><path fill-rule="evenodd" clip-rule="evenodd" d="M645.685 362.281c11.97-.473 22.837-.316 34.02.788l-20.633 42.107c-11.655-.157-23.31-.157-34.177-.315l20.79-42.58zm42.052 1.892c7.56 1.104 15.12 2.839 23.153 5.204l-17.64 35.957c-8.348 0-17.01 0-25.673-.158l20.16-41.003z" fill="#ADC2C2" style="mix-blend-mode:overlay"/><path fill-rule="evenodd" clip-rule="evenodd" d="M299.815 462.108c25.83 0 46.935-2.05 72.765-2.05 6.458 0 19.215 2.365 25.673 2.365 26.302 0 51.03-.315 77.332-.315v1.577l-83.002.946-21.893-2.838-70.875 1.892v-1.577z" fill="#EC5F6B"/><path fill-rule="evenodd" clip-rule="evenodd" d="M380.613 478.825h89.775l-2.363 6.308c-35.28-5.047-57.172-3.47-87.412-4.731v-1.577z" fill="#E11E3E"/><path fill-rule="evenodd" clip-rule="evenodd" d="M600.01 388.617l4.882 16.086h-14.49c.315-3.469 2.835-9.462 9.608-16.086z" fill="#576578"/><path fill-rule="evenodd" clip-rule="evenodd" d="M603.16 386.094h21.577c4.568 0 6.773 11.986 4.253 14.982-.63.631-1.418.789-2.363.946-6.3 1.104-18.427 2.839-24.097 1.42-8.033-2.05-5.985-9.62-1.89-16.086.63-.789 1.575-1.262 2.52-1.262z" fill="#EC5F6B"/><path fill-rule="evenodd" clip-rule="evenodd" d="M603.16 386.094h21.577c3.78 0 5.828 7.728 5.198 12.301-8.505.946-19.058 1.577-24.728.473-5.197-.946-7.245-3.311-7.245-5.992.63-1.893 1.575-3.628 2.835-5.52.473-.789 1.418-1.262 2.363-1.262zm-219.397 79.799l88.2-2.208v1.577l-90.09 5.678 1.89-5.047zm33.704-38.795c19.53 0 35.123 1.577 46.778 4.888 29.925-11.827 71.977-14.666 110.092-16.874l244.283 4c-5.985-2.366-6.93-6.939-17.955-7.254-72.45-.474-171.99-4.947-244.44-5.42-60.008 1.893-109.305 9.778-138.758 20.66zm-95.287 14.035c28.035-.631 61.583-3.469 79.223 0v2.523c-23.468-3.469-51.66-1.261-79.223 0v-2.523z" fill="#E2304D"/><path fill-rule="evenodd" clip-rule="evenodd" d="M399.828 487.814h20.947a2.49 2.49 0 012.52 2.523v3.785a2.49 2.49 0 01-2.52 2.523h-20.947a2.49 2.49 0 01-2.52-2.523v-3.785c.157-1.419 1.26-2.523 2.52-2.523z" fill="#414042"/><path fill-rule="evenodd" clip-rule="evenodd" d="M403.293 487.814h17.482c1.26 0 2.363.946 2.363 2.05v3.312c0 1.104-1.103 2.05-2.52 2.05h-17.325c-1.418 0-2.52-.946-2.52-2.05v-3.312c.157-1.104 1.102-2.05 2.52-2.05z" fill="#EEE6D4"/><path fill-rule="evenodd" clip-rule="evenodd" d="M403.293 487.814h17.482c1.26 0 2.363.946 2.363 2.05v.631h-22.365v-.631c.157-1.104 1.102-2.05 2.52-2.05z" fill="#D2C8AD"/><path fill-rule="evenodd" clip-rule="evenodd" d="M305.328 487.814h15.435a2.49 2.49 0 012.52 2.523v3.785a2.49 2.49 0 01-2.52 2.523h-13.86l1.26-1.577c1.26-1.419-.945-5.519-1.26-7.096l-1.575-.158z" fill="#414042"/><path fill-rule="evenodd" clip-rule="evenodd" d="M306.903 487.814h14.017c1.26 0 2.205.946 2.205 2.05v3.312c0 1.104-.945 2.05-2.205 2.05h-12.915c-.315-2.365-.63-4.889-1.102-7.412z" fill="#EEE6D4"/><path fill-rule="evenodd" clip-rule="evenodd" d="M306.903 487.814h14.017c1.26 0 2.205.946 2.205 2.05v.631h-15.75c-.157-.946-.315-1.735-.472-2.681z" fill="#D2C8AD"/><path fill-rule="evenodd" clip-rule="evenodd" d="M321.865 445.707c28.193-1.42 57.645-3.47 75.758 0v2.523c-22.365-4.573-49.455-1.735-75.758 0v-2.523z" fill="#E2304D"/><path fill-rule="evenodd" clip-rule="evenodd" d="M666.16 360.861l5.67 44.473 7.56-.158-7.875-45.103-5.355.788z" fill="#E11E3E"/><path fill-rule="evenodd" clip-rule="evenodd" d="M668.05 359.758l5.985 47.469 7.403-.158-8.033-48.1-5.355.789z" fill="#EC5F6B"/><path fill-rule="evenodd" clip-rule="evenodd" d="M464.088 435.298c.787 13.09-16.538 18.294-26.618 19.082-11.182.789-21.262.947-33.075 0-2.047-.157-5.355-2.523-4.41-4.573 12.915-24.444 63.473-25.548 64.103-14.509zm-148.365-6.781c3.622 6.15 6.457 12.616 6.3 21.132 0 1.262-.63 2.366-1.733 3.154a5.966 5.966 0 01-4.095 1.104 43.18 43.18 0 00-12.757.947c.315-2.839.945-5.52 1.732-7.886 2.205-7.57 5.67-13.562 10.553-18.451z" fill="#E11E3E"/><path fill-rule="evenodd" clip-rule="evenodd" d="M305.17 446.968c2.048-7.412 4.883-12.459 9.608-17.505 3.307 6.15 5.197 11.67 5.985 20.186.472 4.416-2.835 6.151-3.78 5.993-4.568-.316-9.135-1.577-13.545-.158.315-2.996.787-5.993 1.732-8.516z" fill="#EC5F6B"/><path fill-rule="evenodd" clip-rule="evenodd" d="M303.438 454.696c4.41-1.893 8.19-2.681 12.6-2.208 1.102.158 2.047-.158 2.835-.946.787-.789 1.102-1.577 1.26-2.681 0-7.57-2.048-13.09-4.883-18.61-5.512 6.309-9.607 16.086-11.812 24.445z" fill="#FFFCD5"/><path fill-rule="evenodd" clip-rule="evenodd" d="M303.91 451.857c4.41-1.735 8.663-1.419 13.388-.788 1.102.157 1.575 0 2.362-.789.788-.789.315-2.05.315-3.154.158-7.728-2.205-12.143-4.882-16.875-5.198 5.52-8.82 10.882-11.183 21.606z" fill="#EEE6D4"/><path fill-rule="evenodd" clip-rule="evenodd" d="M319.975 444.603c-.945-5.52-2.992-10.882-5.197-14.982-3.308 3.312-5.828 7.097-8.033 12.774 4.253.946 8.19 1.735 13.23 2.208z" fill="#D2C8AD"/><path fill-rule="evenodd" clip-rule="evenodd" d="M319.345 439.714c.63 3.154.788 6.623.473 10.093-.63.631-1.418 1.104-2.205 1.261-.788-.157-1.418-.157-2.205-.315-2.363-1.104-4.095-4.416-4.095-8.516 0-4.731 2.205-8.516 5.197-8.831 1.103 2.05 2.048 4.1 2.835 6.308z" fill="#fff"/><path fill-rule="evenodd" clip-rule="evenodd" d="M316.983 436.086c.315 0 .63 0 .945.158.472 1.104.945 2.366 1.417 3.47.315 2.05.63 4.258.63 6.623-.787 1.42-1.89 2.208-2.992 2.208-2.205 0-3.938-2.839-3.938-6.308 0-3.312 1.733-6.151 3.938-6.151z" fill="#DAD9D4"/><path fill-rule="evenodd" clip-rule="evenodd" d="M327.85 461.004l50.085 17.032c1.89.631 2.993 2.681 2.363 4.731l-3.623 10.409c-.63 1.892-2.835 2.996-4.725 2.365l-50.085-17.032c-1.89-.631-2.992-2.681-2.362-4.731l3.622-10.408c.788-2.051 2.835-3.155 4.725-2.366z" fill="#EAEEF0"/><path fill-rule="evenodd" clip-rule="evenodd" d="M328.638 462.739l47.25 16.086c1.417.473 2.362 1.734 2.362 2.996-.472-.631-1.102-1.104-1.89-1.419l-47.25-16.086c-1.732-.631-3.78.157-4.252 1.735l-2.993 8.831c-.157.315-.157.789-.157 1.104-.473-.789-.63-1.735-.315-2.523l2.992-8.832c.63-1.735 2.52-2.523 4.253-1.892z" fill="#B2C7CF"/><path fill-rule="evenodd" clip-rule="evenodd" d="M612.137 363.069c-14.175 10.567-24.885 23.183-39.532 33.434-36.855-7.57-81.743-6.939-111.51-4.1 34.65-20.344 109.147-34.538 151.042-29.334z" fill="#A8D6D6"/><path fill-rule="evenodd" clip-rule="evenodd" d="M572.605 396.503c-.63-.158-1.103-.158-1.733-.316l-1.732-.315c-1.103-.158-2.363-.473-3.465-.631h-.158l-1.732-.315h-.158l-1.732-.316c-1.103-.157-2.048-.315-3.15-.473h-.788l-3.307-.473-1.575-.158-1.575-.157h-.158l-1.26-.158-.787-.158-1.575-.157h-.158c-1.102-.158-2.362-.316-3.465-.316h-.157l-1.103-.158h-.787l-1.103-.157h-.63l-1.26-.158h-.472l-1.733-.158c-1.732-.157-3.465-.315-5.197-.315h-35.123c-1.732 0-3.307 0-4.882.158h-.315c-1.103 0-2.048 0-3.15.157h-.158c-1.102 0-2.205 0-3.15.158-8.347.315-16.065.946-22.995 1.577 17.798-8.201 46.463-16.401 74.025-20.817 25.515-2.839 47.565-3.312 68.04-2.366-10.237 7.886-19.53 17.663-31.342 26.022z" fill="#8DB4B7"/><path fill-rule="evenodd" clip-rule="evenodd" d="M725.222 501.219l-166.95-.473-.472-5.047 167.895-.631-.473 6.151z" fill="#E2304D"/><path fill-rule="evenodd" clip-rule="evenodd" d="M590.56 404.703c6.3 29.649 6.93 71.914-.63 100.143h77.332c11.34-18.767 20.79-40.057 22.523-69.548 1.102-13.089-7.718-23.813-16.38-30.279l-82.845-.316z" fill="#E11E3E"/><path fill-rule="evenodd" clip-rule="evenodd" d="M591.977 405.019c6.615 27.44 8.033 69.705-.472 99.827h73.552c8.505-30.437 24.728-88.63 6.93-99.512l-80.01-.315z" fill="#EC5F6B"/><path fill-rule="evenodd" clip-rule="evenodd" d="M594.025 415.112h87.255c-2.205-2.997-4.568-5.52-7.245-7.728l-81.743-.788c.473 2.365 1.103 5.362 1.733 8.516z" fill="#6EB8C0"/><path fill-rule="evenodd" clip-rule="evenodd" d="M673.563 404.861c16.065 18.925.417 70.025-9.505 102.985l62.267 1c-3.465-33.433 10.238-62.193 26.933-73.863 1.102-12.774-7.403-23.341-15.75-29.807l-63.945-.315z" fill="#E11E3E"/><path fill-rule="evenodd" clip-rule="evenodd" d="M674.193 405.334c16.695 13.721 3.465 69.394-6.93 102.512l57.172 1c-3.465-33.433 9.923-62.193 26.775-73.863 1.103-12.774-7.402-23.341-15.75-29.806h-61.267v.157z" fill="#EC5F6B"/><path fill-rule="evenodd" clip-rule="evenodd" d="M673.562 424.101l.315 1.262c.63 2.365-.945 4.258-3.15 4.258h-7.56c-2.362 0-4.724-1.893-5.197-4.258l-.315-1.262h15.907z" fill="#E11E3E"/><path fill-rule="evenodd" clip-rule="evenodd" d="M654.505 420.632h18.9c.472 0 1.102.473 1.102.946l.473 1.735c.157.473-.158.946-.63.946h-18.9c-.473 0-1.103-.473-1.103-.946l-.472-1.735c-.158-.631.157-.946.63-.946z" fill="#E2304D"/><path fill-rule="evenodd" clip-rule="evenodd" d="M741.76 424.101l.315 1.262c.63 2.365-.945 4.258-3.15 4.258h-7.56c-2.362 0-4.725-1.893-5.197-4.258l-.315-1.262h15.907z" fill="#E11E3E"/><path fill-rule="evenodd" clip-rule="evenodd" d="M722.703 420.632h18.9c.472 0 1.102.473 1.102.946l.473 1.735c.157.473-.158.946-.63.946h-18.9c-.473 0-1.103-.473-1.103-.946l-.472-1.735c-.158-.631.157-.946.63-.946zm-42.525-5.52h64.89c-2.048-2.839-4.568-5.52-7.088-7.728-20.16-.157-41.107-.157-61.897-.315 1.732 2.05 3.15 4.731 4.095 8.043zm-86.153 0h84.735c-.63-3.785-2.363-5.993-4.725-8.043-28.035-.158-55.913-.316-81.743-.473.63 2.681 1.26 5.519 1.733 8.516zm130.095 86.107l-55.755-.158c.63-1.892 1.103-3.785 1.733-5.835l53.707-.158c.158 2.051.158 4.101.315 6.151zM556 434h195.77c0 .473-4.27 4.527-4.27 5l-110.453-3.423H556V434zm110.002 67.061l-73.552-.158c.472-1.734.787-3.469 1.26-5.362l74.025-.315c-.63 2.05-1.26 3.943-1.733 5.835zM808.54 465.42h14.963c6.615 1.262 8.977 3.469 9.607 5.362l-22.68 2.05-1.89-7.412z" fill="#E2304D"/><path fill-rule="evenodd" clip-rule="evenodd" d="M562.008 377.128l-11-5.628 3.992 5.628-20.468 1.577 18.585 2.366-14.332 5.362L552.5 384h4.5l-3.253 5.903 6.753-6.624h5.5l7 6.624-3.03-6.624 12.442 2.839-9.412-5.047h-3.03l3.03-2.366 16.5-2.996-20.79 1.419 6.298-5.628-10.508 4.209-2.492 1.419z" fill="#427B82"/><path fill-rule="evenodd" clip-rule="evenodd" d="M464.088 434.983c.63 12.459-15.908 17.505-25.515 18.136-10.71.788-20.318.946-31.658 0-2.047-.158-5.197-2.523-4.095-4.416 12.285-23.34 60.638-24.286 61.268-13.72z" fill="#58595B"/><path fill-rule="evenodd" clip-rule="evenodd" d="M412.427 478.036c-1.732-12.301 2.205-28.702 19.53-37.849 21.263-11.355 33.705-6.781 31.5 6.466-16.38 12.459-34.807 18.925-51.03 31.383z" fill="#808285"/><path fill-rule="evenodd" clip-rule="evenodd" d="M461.882 441.291c5.985 10.882-6.93 22.552-15.277 27.441-9.293 5.362-17.955 9.777-28.665 13.878-1.89.788-5.828.157-5.67-2.05.945-26.337 44.415-48.574 49.612-39.269z" fill="#FFFCD5"/><path fill-rule="evenodd" clip-rule="evenodd" d="M461.882 441.291c.945 1.735 1.418 3.47 1.575 5.362-1.417 8.043-10.237 15.613-16.695 19.24-9.292 5.362-17.955 9.778-28.665 13.878-1.732.631-5.355.158-5.67-1.735 3.465-25.233 44.415-45.734 49.455-36.745z" fill="#EEE6D4"/><path fill-rule="evenodd" clip-rule="evenodd" d="M461.882 441.291c.315.631.63 1.262.945 2.05-6.3 7.57-16.852 15.455-29.925 21.763-6.457 3.155-12.915 5.52-18.9 7.255 8.19-22.552 43.313-39.269 47.88-31.068z" fill="#D2C8AD"/><path fill-rule="evenodd" clip-rule="evenodd" d="M461.882 441.291c4.725 8.674-2.52 17.821-9.922 23.656-1.103-5.047-1.418-10.724-1.103-16.559.158-2.997.63-5.993 1.26-8.674 4.725-1.104 8.505-.789 9.765 1.577z" fill="#FBD55B"/><path fill-rule="evenodd" clip-rule="evenodd" d="M461.882 441.291c.945 1.735 1.418 3.47 1.575 5.362-1.102 6.151-6.457 11.986-11.812 16.086-.788-4.416-.945-9.147-.63-14.194.157-2.996.63-5.992 1.26-8.673 4.567-1.262 8.347-.946 9.607 1.419z" fill="#F58220"/><path fill-rule="evenodd" clip-rule="evenodd" d="M461.882 441.291c.315.631.63 1.262.945 2.05a68.088 68.088 0 01-11.97 10.882c0-1.893 0-3.785.158-5.835.157-2.997.63-5.993 1.26-8.674 4.567-1.104 8.347-.789 9.607 1.577z" fill="#D7662C"/><path fill-rule="evenodd" clip-rule="evenodd" d="M433.375 452.33c2.992-1.419 7.245 1.262 9.607 5.993 2.205 4.731 1.733 9.778-1.26 11.197-2.992 1.419-7.245-1.262-9.607-5.993-2.205-4.731-1.733-9.777 1.26-11.197z" fill="#fff"/><path fill-rule="evenodd" clip-rule="evenodd" d="M434.635 454.854c2.047-.947 5.197.788 6.772 4.258 1.575 3.311 1.26 6.939-.945 7.885-2.047.946-5.197-.789-6.772-4.258-1.575-3.47-1.103-6.939.945-7.885z" fill="#DAD9D4"/><path fill-rule="evenodd" clip-rule="evenodd" d="M723 490l-160-.373v-1.494L723 478v12z" fill="#fff" opacity=".65"/><path fill-rule="evenodd" clip-rule="evenodd" d="M590.411 534.122c5.512 0 9.922-1.104 9.922-2.524 0-1.419-4.41-2.523-9.922-2.523-5.513 0-9.923 1.104-9.923 2.523 0 1.42 4.568 2.524 9.923 2.524z" fill="#A1E79B"/><path fill-rule="evenodd" clip-rule="evenodd" d="M566.785 542.48c5.513 0 9.923-1.104 9.923-2.523s-4.41-2.523-9.923-2.523c-5.512 0-9.922 1.104-9.922 2.523s4.41 2.523 9.922 2.523z" fill="#7CC076"/><path fill-rule="evenodd" clip-rule="evenodd" d="M554.343 536.33c5.512 0 9.922-1.104 9.922-2.524 0-1.419-4.41-2.523-9.922-2.523-5.513 0-9.923 1.104-9.923 2.523 0 1.42 4.41 2.524 9.923 2.524z" fill="#A1E79B"/><path fill-rule="evenodd" clip-rule="evenodd" d="M618.918 548c5.513 0 9.923-1.104 9.923-2.523 0-1.42-4.41-2.524-9.923-2.524-5.512 0-9.922 1.104-9.922 2.524 0 1.419 4.41 2.523 9.922 2.523z" fill="#BAFCB4"/><path fill-rule="evenodd" clip-rule="evenodd" d="M501.738 538.064c5.512 0 9.922-1.104 9.922-2.523s-4.41-2.523-9.922-2.523c-5.513 0-9.923 1.104-9.923 2.523 0 1.262 4.568 2.523 9.923 2.523z" fill="#7CC076"/><path fill-rule="evenodd" clip-rule="evenodd" d="M525.52 546.265c5.513 0 9.923-1.104 9.923-2.523 0-1.42-4.41-2.523-9.923-2.523-5.512 0-9.922 1.103-9.922 2.523 0 1.419 4.41 2.523 9.922 2.523z" fill="#A1E79B"/><path fill-rule="evenodd" clip-rule="evenodd" d="M537.805 540.272c5.513 0 9.923-1.104 9.923-2.523 0-1.42-4.41-2.523-9.923-2.523-5.512 0-9.922 1.103-9.922 2.523 0 1.261 4.567 2.523 9.922 2.523z" fill="#BAFCB4"/><path fill-rule="evenodd" clip-rule="evenodd" d="M547.885 547.527c5.513 0 9.923-1.104 9.923-2.523 0-1.42-4.41-2.524-9.923-2.524-5.512 0-9.922 1.104-9.922 2.524 0 1.419 4.41 2.523 9.922 2.523z" fill="#A1E79B"/><path fill-rule="evenodd" clip-rule="evenodd" d="M207.5 474.032c36.371 0 66-2.007 66-4.516S243.833 465 207.5 465s-66 2.007-66 4.516c-.038 2.425 29.629 4.516 66 4.516z" fill="#68667B" fill-opacity=".5" opacity=".75"/><path fill-rule="evenodd" clip-rule="evenodd" d="M315.149 378.973c-20.63-39.367-11.234-25.752-6.782-40.187 4.451-14.434-14.455-9.156 30.734-36.578l3.604 6.069c-43.33 21.822-22.468 19.027-26.496 31.329-3.815 12.302-11.574 6.028 5.723 34.446l-6.783 4.921zm-97.127 91.107h-29.578c-2.674 0-4.596-2.574-3.835-5.138l5.111-17.223 1.758-29.529 4.179-25.687 6.93 10.902 4.095-5.87 7.402 5.032 3.938 67.513z" fill="#AA7244"/><path fill-rule="evenodd" clip-rule="evenodd" d="M225.097 467.08a3 3 0 01-3 3h-12.58l3.78-31.853-6.615-40.692 6.615 5.032h6.615v20.193l5.185 31.638v12.682z" fill="#8D533B"/><path fill-rule="evenodd" clip-rule="evenodd" d="M214.113 402.463l-4.437-5.607 8.845-8.174-2.727-3.687 4.662-7.579 167.886-9.255-.442 16.642-173.787 17.66z" fill="#AA7244"/><path fill-rule="evenodd" clip-rule="evenodd" d="M214.612 402.561l-4.438-5.607 22.301.308 19.509-6.09 41.81-5.781 31.009 2.731 63.76-7.144-.113 5.276-173.838 16.307z" fill="#8D533B"/><path fill-rule="evenodd" clip-rule="evenodd" d="M311.129 392.518l6.93-5.047c7.715 5.185 17.296 8.099 28.487 14.752 9.625 2.875 13.163-1.439 22.079-6.277 8.675-4.708 20.457-12.5 26.943-20.579v8.12c-29.318 27.888-26.318 24.576-42.068 27.888-15.908 3.312-7.176-3.475-42.371-18.857z" fill="#8D533B"/><path fill-rule="evenodd" clip-rule="evenodd" d="M315.014 377.024c11.099-43.111 9.016-26.597 19.991-35.95 13.184-13.883 25.61-14.614 38.938-13.883l-1.568 6.722c-11.368-.584-23.911 3.8-33.45 11.837-9.538 8.038-9.413-1.393-17.247 30.835l-6.664.439z" fill="#AA7244"/><path fill-rule="evenodd" clip-rule="evenodd" d="M464.726 399.503c29.172-2.926 52.691-7.742 52.386-10.782-.305-3.041-24.343-3.086-53.484-.163-29.14 2.923-52.691 7.743-52.386 10.783.264 2.942 24.313 3.089 53.484.162zm93.057-35.336c37.505-2.484 67.872-7.294 67.641-10.777-.23-3.482-31.006-4.242-68.471-1.761-37.465 2.482-67.872 7.294-67.641 10.777.183 3.369 30.967 4.245 68.471 1.761z" fill="#68667B" fill-opacity=".5" opacity=".75"/><path fill-rule="evenodd" clip-rule="evenodd" d="M504.492 394.33c34.256-3.437 61.091-16.901 59.754-30.232-1.337-13.331-30.349-21.193-64.568-17.761-34.22 3.433-61.092 16.901-59.754 30.232 1.256 12.891 30.312 21.197 64.568 17.761z" fill="#68667B" fill-opacity=".5" opacity=".75"/><path fill-rule="evenodd" clip-rule="evenodd" d="M538.046 379.392c5.948-4.889 11.063-10.724 15.346-17.19 6.899.946 14.393-.631 21.531-5.046 16.535-9.936 25.813-31.226 23.077-50.624 4.759-.157 9.874-1.577 14.751-4.573 13.085-7.885 21.056-23.971 20.104-38.796 15.821-15.928 23.078-39.426 17.368-56.458-5.829-16.874-39.137-6.781-56.505-4.1 2.498-22.867-36.401-30.28-76.37-.946-26.766-19.398-55.315-9.305-84.579 14.351-15.464-37.219-109.084 26.494-94.571 95.884-1.903 18.294-.238 36.746 5.591 53.778 5.829 16.874 51.282 43.339 89.711 31.328 18.5-1.995 43.536-7.765 67.194-1.995 12.371-.473 25.337-5.52 37.352-15.613z" fill="#7CC076"/><path fill-rule="evenodd" clip-rule="evenodd" d="M338.316 312.052v3.154c0 .315 0 .789-.119 1.104v2.523c5.353 14.194 13.205 26.179 22.84 35.326 7.97 19.24 25.576 31.068 46.869 28.86a36.724 36.724 0 005.948-.946c27.36 5.835 52.341.631 58.646-9.462 4.282 1.577 9.16 2.05 14.156 1.577 19.985-2.05 37.709-20.66 42.111-42.896.832-.631 1.665-1.262 2.498-2.05 5.947-4.889 11.063-10.724 15.345-17.19 6.9.946 14.394-.631 21.531-5.047 16.535-9.935 25.814-31.225 23.078-50.623 4.877-.158 9.873-1.577 14.751-4.573 13.085-7.886 21.055-23.971 20.103-38.796 4.521-4.573 8.446-9.777 11.539-15.297-12.847-1.893-31.761 3.312-43.419 5.046 2.498-22.867-36.401-30.279-76.371-.946-26.765-19.397-55.315-9.304-84.578 14.351-15.821-37.218-109.322 26.495-94.928 95.885z" fill="#A1E79B"/><path fill-rule="evenodd" clip-rule="evenodd" d="M387.694 296.682c-11.673.096-18.76-14.08-15.71-31.672 2.966-17.725 15.034-32.244 26.708-32.34 11.674-.096 18.761 14.081 15.71 31.672-3.05 17.592-14.901 32.16-26.708 32.34zm152.136-6.709c-3.806-3.154-3.211-11.197 1.428-17.978 4.639-6.781 11.539-9.778 15.464-6.624 3.807 3.154 3.212 11.197-1.427 17.979-4.639 6.781-11.539 9.777-15.465 6.623zm-86.6-37.533c-7.495-6.151-6.305-21.764 2.736-35.011 9.04-13.247 22.364-19.082 29.858-12.932 7.494 5.993 6.305 21.764-2.736 35.011-9.041 13.247-22.364 19.082-29.858 12.932z" fill="#BAFCB4"/><g filter="url(#filter1_d)"><path fill-rule="evenodd" clip-rule="evenodd" d="M366.384 403.206L349 412c21.5 0 78.003 2.101 85.878 14.875 7.875 12.774 11.34 28.86 9.293 43.054l3.465 1.261c3.467-36.216 0-44.315-8.711-50.649-8.347-13.562-17.603-11.74-72.541-17.335z" fill="#8D533B"/></g><path fill-rule="evenodd" clip-rule="evenodd" d="M479.136 521.025c-8.033 8.516-23.153 3.785-33.705-10.724-10.553-14.509-12.6-33.118-4.725-41.792 8.032-8.516 23.152-3.785 33.705 10.724 10.71 14.509 12.757 33.276 4.725 41.792z" fill="#7CC076"/><path fill-rule="evenodd" clip-rule="evenodd" d="M440.233 501.628c-5.827-12.617-5.985-26.179.473-33.118 7.875-8.359 22.68-3.785 33.232 10.093 5.828 12.616 5.985 26.179-.472 33.118-7.875 8.358-22.68 3.785-33.233-10.093z" fill="#A1E79B"/><path fill-rule="evenodd" clip-rule="evenodd" d="M442.281 522.602c-8.348 3.47-17.483-4.573-20.318-18.136-2.992-13.562 1.418-27.283 9.765-30.91 8.348-3.469 17.483 4.573 20.318 18.136 2.835 13.563-1.575 27.283-9.765 30.91zm82.918-272.686c-7.495-6.15-6.305-21.921 2.736-35.168 9.04-13.405 22.602-19.24 30.096-13.089 7.494 6.15 6.305 21.92-2.736 35.168-9.041 13.247-22.483 19.24-30.096 13.089zm-66.292 100.005c-8.003-7.452-6.673-20.263 2.92-28.724 9.593-8.46 23.767-9.336 31.77-1.884s6.673 20.264-2.92 28.724c-9.497 8.391-23.767 9.337-31.77 1.884zm-82.405 4.081c-15.583-12.617-12.966-45.104 5.71-72.545 18.677-27.44 46.513-39.584 62.096-26.967 15.583 12.616 12.966 45.103-5.71 72.544-18.795 27.598-46.631 39.584-62.096 26.968z" fill="#BAFCB4"/><path fill-rule="evenodd" clip-rule="evenodd" d="M816.101 465.229c10.958 11.222 2.166 28.189-20.354 48.194-22.463 19.83-45.223 22.883-52.567 11.704-21.505-18.737-4.182-39.561 15.943-56.083 27.453-22.539 42.31-18.834 56.978-3.815z" fill="#231F20"/><path fill-rule="evenodd" clip-rule="evenodd" d="M816.349 474.089c5.369 6.082-1.486 20.716-15.58 34.776-1.593 1.531-3.249 2.992-5.022 4.558-19.389 17.117-40.698 23.242-48.571 15.515-5.714-5.607.86-22.697 23.862-41.935 22.222-18.586 39.079-19.974 45.311-12.914z" fill="#383431"/><path fill-rule="evenodd" clip-rule="evenodd" d="M812.273 477.812c5.061 5.732-2.185 21.831-21.03 36.228-18.844 14.398-30.983 15.661-36.372 11.463-5.507-4.094 2.193-22.478 17.459-35.209 15.087-12.697 34.883-18.214 39.943-12.482z" fill="#A7A9AC"/><path fill-rule="evenodd" clip-rule="evenodd" d="M808.192 481.291c4.381 4.963-1.949 18.761-18.126 31.177-16.177 12.415-26.634 13.438-31.288 9.834-4.654-3.603 2.752-17.852 15.829-28.775 13.015-10.993 29.203-17.199 33.585-12.236z" fill="#6D6E71"/><defs><linearGradient id="paint0_linear" x1="646.752" y1="197.857" x2="300.165" y2="380.251" gradientUnits="userSpaceOnUse"><stop stop-color="#FFD9A1" stop-opacity=".042"/><stop offset=".12" stop-color="#FFD9A1"/><stop offset="1" stop-color="#FFD9A1" stop-opacity="0"/></linearGradient><linearGradient id="paint1_linear" x1="611.498" y1="189.174" x2="146.623" y2="234.437" gradientUnits="userSpaceOnUse"><stop stop-color="#FFD9A1" stop-opacity=".042"/><stop offset=".12" stop-color="#FFD9A1"/><stop offset="1" stop-color="#FFD9A1" stop-opacity="0"/></linearGradient><linearGradient id="paint2_linear" x1="730.148" y1="212.343" x2="901.943" y2="381.856" gradientUnits="userSpaceOnUse"><stop stop-color="#FFD9A1" stop-opacity=".042"/><stop offset=".12" stop-color="#FFD9A1"/><stop offset="1" stop-color="#FFD9A1" stop-opacity="0"/></linearGradient><linearGradient id="paint3_linear" x1="655.913" y1="218.446" x2="516.191" y2="423.085" gradientUnits="userSpaceOnUse"><stop stop-color="#FFD9A1" stop-opacity=".042"/><stop offset=".12" stop-color="#FFD9A1"/><stop offset="1" stop-color="#FFD9A1" stop-opacity="0"/></linearGradient><filter id="filter0_f" x="644.928" y="125.592" width="119.304" height="96.733" filterUnits="userSpaceOnUse" color-interpolation-filters="sRGB"><feFlood flood-opacity="0" result="BackgroundImageFix"/><feBlend in="SourceGraphic" in2="BackgroundImageFix" result="shape"/><feGaussianBlur stdDeviation="2.5" result="effect1_foregroundBlur"/></filter><filter id="filter1_d" x="349" y="403.206" width="100.964" height="69.985" filterUnits="userSpaceOnUse" color-interpolation-filters="sRGB"><feFlood flood-opacity="0" result="BackgroundImageFix"/><feColorMatrix in="SourceAlpha" values="0 0 0 0 0 0 0 0 0 0 0 0 0 0 0 0 0 0 127 0"/><feOffset dx="1" dy="2"/><feColorMatrix values="0 0 0 0 0 0 0 0 0 0 0 0 0 0 0 0 0 0 0.25 0"/><feBlend mode="multiply" in2="BackgroundImageFix" result="effect1_dropShadow"/><feBlend in="SourceGraphic" in2="effect1_dropShadow" result="shape"/></filter><clipPath id="clip0"><path fill="#fff" transform="translate(757 463)" d="M0 0h20v32H0z"/></clipPath></defs></svg>