<svg width="61" height="57" fill="none" xmlns="http://www.w3.org/2000/svg"><rect x=".39" width="60" height="56.842" rx="4" fill="#DFEBFA"/><path d="M30.39 33.01c0 .834-.241 1.528-.723 2.081-.482.553-1.074.83-1.777.83h-10c-.703 0-1.296-.277-1.777-.83-.482-.553-.723-1.247-.723-2.08s.058-1.598.176-2.295a9.24 9.24 0 01.576-2.012c.267-.644.66-1.152 1.181-1.523s1.153-.557 1.895-.557a43.22 43.22 0 001.318.772c.176.097.407.211.694.341a3.911 3.911 0 002.48.283c.274-.058.554-.152.84-.283.287-.13.518-.244.693-.341a43.22 43.22 0 001.319-.772c.742 0 1.373.186 1.894.557.521.37.915.879 1.182 1.523a9.25 9.25 0 01.576 2.012 13.9 13.9 0 01.176 2.295zm-3.067-10.155c0 1.224-.433 2.268-1.298 3.134-.866.866-1.911 1.3-3.135 1.3-1.224 0-2.269-.434-3.135-1.3-.866-.866-1.299-1.91-1.299-3.134s.433-2.27 1.3-3.135c.865-.866 1.91-1.299 3.134-1.299s2.269.433 3.135 1.299c.866.866 1.299 1.91 1.299 3.135zm18.067 8.691v1.25a.608.608 0 01-.176.45.609.609 0 01-.45.175h-11.25a.609.609 0 01-.448-.176.608.608 0 01-.176-.449v-1.25c0-.182.059-.332.176-.45a.608.608 0 01.449-.175h11.25c.182 0 .332.059.45.176a.608.608 0 01.175.449zm0-4.922v1.094a.678.678 0 01-.205.498.678.678 0 01-.498.205H33.593a.678.678 0 01-.498-.205.678.678 0 01-.205-.498v-1.094c0-.195.068-.361.205-.498a.678.678 0 01.498-.205h11.094c.195 0 .361.068.498.205a.678.678 0 01.205.498zm0-5.078v1.25a.608.608 0 01-.176.45.609.609 0 01-.45.175h-11.25a.609.609 0 01-.448-.176.608.608 0 01-.176-.449v-1.25c0-.182.059-.332.176-.45a.608.608 0 01.449-.175h11.25c.182 0 .332.059.45.176a.608.608 0 01.175.449zm2.5 18.75v-23.75a.6.6 0 00-.186-.44.6.6 0 00-.44-.185h-33.75a.6.6 0 00-.439.186.6.6 0 00-.185.439v23.75a.6.6 0 00.185.44.6.6 0 00.44.185h6.875v-1.875c0-.182.058-.332.176-.45a.608.608 0 01.449-.175h1.25c.182 0 .332.059.45.176a.608.608 0 01.175.449v1.875h15v-1.875c0-.182.059-.332.176-.45a.608.608 0 01.449-.175h1.25c.182 0 .332.059.45.176a.608.608 0 01.175.449v1.875h6.875a.6.6 0 00.44-.185.6.6 0 00.185-.44zm2.5-23.75v23.75a3.01 3.01 0 01-.918 2.207 3.009 3.009 0 01-2.207.918h-33.75c-.86 0-1.595-.306-2.207-.918a3.01 3.01 0 01-.918-2.207v-23.75c0-.86.306-1.595.918-2.207a3.009 3.009 0 012.207-.918h33.75c.86 0 1.595.306 2.207.918a3.01 3.01 0 01.918 2.207z" fill="#2C2A3F"/></svg>