<svg width="290" height="62" fill="none" xmlns="http://www.w3.org/2000/svg"><path d="M31.38 23.2c0 2.03-1.623 3.675-3.625 3.675-2.003 0-3.626-1.645-3.626-3.674 0-2.03 1.623-3.675 3.626-3.675 2.002 0 3.625 1.645 3.625 3.675zm-16.16.137l5.068 7.21L6.4 52.463l22.55-22.556-13.729-6.57zm9.7 12.979l-3.832 3.686 2.434 4.127-8.62 3.725 14.328-1.722-4.31-9.816z" fill="#E11E3E"/><path fill-rule="evenodd" clip-rule="evenodd" d="M.725 33.214c0-3.338.702-6.324 1.932-9.135l-1.581-.703C-.154 27.417-.329 31.81.549 35.85H.9c-.175-.878-.175-1.756-.175-2.635zm.879-11.594l1.932.702a22.234 22.234 0 017.73-7.905l-2.46-3.514c-3.162 2.987-5.621 6.5-7.202 10.716zm8.783-11.947l2.635 3.865c2.986-1.58 6.149-2.284 9.838-2.284v-6.5c-4.743.527-8.96 2.284-12.473 4.92z" fill="#E11E3E"/><path d="M34.065 14.416l4.568-6.676c-4.217-2.284-8.96-3.514-13.88-3.162v6.676c4.02.487 6.037 1.222 9.312 3.162zm1.33 1.168l4.567-6.676c4.216 2.811 7.554 6.676 9.487 11.42l-7.554 2.81c-1.581-2.986-3.865-5.622-6.5-7.554zm7.378 9.31l7.379-2.81c1.581 4.391 1.757 9.31.878 13.878h-6.675c.35-3.865-.176-7.73-1.582-11.068zm92.95-14.246h7.219l8.022 25.669h-7.22l-8.021-25.67zm44.118 0h-7.22L164.6 36.317h7.219l8.022-25.67z" fill="#E11E3E"/><path d="M161.392 10.648h-7.22l-10.428 25.669h7.22l10.428-25.67z" fill="#E11E3E"/><path d="M154.17 10.648h7.219l10.428 25.669h-7.219l-10.428-25.67z" fill="#E11E3E"/><path d="M81.793 10.648h7.22L75.376 36.317h-7.22l13.637-25.67z" fill="#2C2A3F"/><path d="M81.791 10.648h7.22l13.636 25.669h-7.22l-13.636-25.67z" fill="#2C2A3F"/><path d="M94.627 31.187v-5.615H76.979v5.615h17.648zm28.154-14.924v-5.616H96.31v5.616h26.471z" fill="#2C2A3F"/><path d="M264.13 10.648h-7.22v25.669h7.22v-25.67z" fill="#E11E3E"/><path d="M279.676 10.648h7.716l-23.263 21.658-6.418-1.297 21.965-20.361zm-52.455 0h-7.219v25.669h7.219v-25.67z" fill="#E11E3E"/><path d="M113.157 10.648h-7.219v25.669h7.219v-25.67z" fill="#2C2A3F"/><path d="M231.111 26.595h9.739l12.018 9.626h-9.739l-12.018-9.626zm34.922-1.59l6.446-3.245 16.854 14.46h-9.691l-13.609-11.215z" fill="#E11E3E"/><path fill-rule="evenodd" clip-rule="evenodd" d="M184.645 10.648a2.362 2.362 0 00-2.362 2.362v20.945a2.362 2.362 0 002.362 2.362h28.15a2.362 2.362 0 002.362-2.362V13.01a2.362 2.362 0 00-2.362-2.362h-28.15zm7.124 5.621c-1.59 0-2.282.738-2.282 2.602v9.562c0 1.618.645 2.275 2.282 2.275h13.786c1.796 0 2.396-.657 2.396-2.275v-9.837c0-1.59-.6-2.327-2.396-2.327h-13.786zm33.228-5.621a2.362 2.362 0 00-2.362 2.362v12.923a2.362 2.362 0 002.362 2.362h22.564a2.362 2.362 0 002.362-2.362V13.01a2.362 2.362 0 00-2.362-2.362h-22.564zm3.129 4.819a.675.675 0 00-.675.674v5.854c0 .373.303.675.675.675h13.133c1.108 0 2.265-.675 2.265-2.265v-2.674c0-1.59-1.157-2.265-2.265-2.265h-13.133z" fill="#E11E3E"/><path d="M123.637 22.359v5.615h12.05v-5.615h-12.05z" fill="#2C2A3F"/></svg>