<svg width="147" height="170" viewBox="0 0 147 170" fill="none" xmlns="http://www.w3.org/2000/svg">
<circle r="67.6482" transform="matrix(-1 0 0 1 68 101.999)" fill="#4A80AA"/>
<mask id="mask0" mask-type="alpha" maskUnits="userSpaceOnUse" x="-6" y="-7" width="174" height="177">
<path d="M0.351852 101.999C0.351852 139.36 30.6389 169.647 68 169.647C96.6647 169.647 121.165 151.819 131.018 126.646C134.007 119.009 152.493 135.342 152.493 126.646C176.477 110.405 173.009 -6.89624 135.648 -6.89624C98.2871 -6.89624 -34.5986 6.08865 0.351852 101.999Z" fill="#4A80AA"/>
</mask>
<g mask="url(#mask0)">
<path d="M9.62988 59.7009H136V172.802H19.3507C13.982 172.802 9.62988 168.091 9.62988 162.281V59.7009Z" fill="#E6F8FF"/>
<path d="M136 57.0706V67.5914H9.62988V57.0706C9.62988 51.26 13.982 46.5496 19.3507 46.5496H126.279C131.648 46.5496 136 51.26 136 57.0706Z" fill="#AECFD6"/>
<path d="M24.2111 59.701H21.7809C20.4386 59.701 19.3506 58.5234 19.3506 57.0707C19.3506 55.618 20.4386 54.4404 21.7809 54.4404H24.2111C25.5533 54.4404 26.6413 55.618 26.6413 57.0707C26.6413 58.5234 25.5533 59.701 24.2111 59.701Z" fill="#F8BA5D"/>
<path d="M36.3621 59.701H33.9319C32.5897 59.701 31.5017 58.5234 31.5017 57.0707C31.5017 55.618 32.5897 54.4404 33.9319 54.4404H36.3621C37.7044 54.4404 38.7923 55.618 38.7923 57.0707C38.7923 58.5234 37.7041 59.701 36.3621 59.701Z" fill="#7CC076"/>
<path d="M48.5129 59.701H46.0827C44.7404 59.701 43.6525 58.5234 43.6525 57.0707C43.6525 55.618 44.7404 54.4404 46.0827 54.4404H48.5129C49.8551 54.4404 50.9431 55.618 50.9431 57.0707C50.9431 58.5234 49.8551 59.701 48.5129 59.701Z" fill="#E85F6A"/>
<path d="M123.849 59.701H58.2337C56.8914 59.701 55.8035 58.5234 55.8035 57.0707C55.8035 55.618 56.8914 54.4404 58.2337 54.4404H123.849C125.191 54.4404 126.279 55.618 126.279 57.0707C126.279 58.5234 125.191 59.701 123.849 59.701Z" fill="white"/>
<circle cx="55.0598" cy="113.978" r="33.0253" fill="#C4C4C4"/>
<mask id="mask1" mask-type="alpha" maskUnits="userSpaceOnUse" x="22" y="80" width="67" height="68">
<circle cx="55.0598" cy="113.978" r="33.0253" fill="#C4C4C4"/>
</mask>
<g mask="url(#mask1)">
<rect x="20.5382" y="79.3945" width="66.0997" height="22.0941" fill="white"/>
<rect x="20.5382" y="101.489" width="66.0997" height="22.0941" fill="#408AC9"/>
<rect x="20.5382" y="123.4" width="66.0997" height="22.0941" fill="#E85F6A"/>
</g>
<path d="M66.4842 81.3755C78.9875 86.2181 87.8536 98.3604 87.8536 112.574C87.8536 131.044 72.8801 146.018 54.4093 146.018C35.9385 146.018 20.965 131.044 20.965 112.574C20.965 98.3604 29.8311 86.2181 42.3344 81.3755" stroke="#F8BA5D" stroke-width="9" stroke-linecap="round" stroke-dasharray="12 12"/>
<path d="M72.5753 124.94H35.1691C32.5153 124.94 30.3669 124.459 30.3669 123.865V121.799C30.3669 121.205 32.5153 120.724 35.1691 120.724H72.5753C75.2291 120.724 77.3774 121.205 77.3774 121.799V123.865C77.3142 124.459 75.1659 124.94 72.5753 124.94Z" fill="#1B1C1E"/>
<path d="M41.1359 104.84H66.9811C68.4878 104.84 69.8588 105.383 70.9312 106.285C70.9312 103.335 66.2561 94.8147 64.402 94.8147H43.7014C41.5107 94.8147 37.1859 102.557 37.1859 106.285C38.2446 105.383 39.6292 104.84 41.1359 104.84Z" fill="#F1F1F1"/>
<path d="M41.135 104.839H66.9802C67.6046 104.839 68.2154 104.932 68.7855 105.118C68.7855 102.613 65.1054 96.1279 64.3875 96.1279H43.7005C42.0183 98.2097 39.3025 102.614 39.3025 105.118C39.8998 104.932 40.497 104.839 41.135 104.839Z" fill="#67B0EB"/>
<path d="M70.6377 104.263H37.4773C35.9769 104.263 29.6923 110.796 29.6923 112.055V120.021C29.8142 119.986 29.9361 119.969 30.058 119.969H48.1882C48.4321 119.655 48.8152 119.429 49.2332 119.429H58.8818C59.3172 119.429 59.7003 119.638 59.9268 119.969H78.057C78.1789 119.969 78.3008 119.986 78.4227 120.021V112.055C78.4227 110.436 71.3626 104.263 70.6377 104.263Z" fill="#F8F8F8"/>
<path d="M59.7347 111.863C61.1802 111.863 62.5213 111.444 63.2702 110.753L66.7186 107.61H41.3954L44.8439 110.753C45.5927 111.444 46.9338 111.863 48.3793 111.863H59.7347Z" fill="#ABABAB"/>
<path d="M62.0817 113.395L62.0338 117.481C62.0321 117.624 61.7321 117.735 61.3624 117.728C60.9927 117.722 60.6954 117.601 60.6971 117.457L60.745 113.371C60.7466 113.228 61.0466 113.117 61.4163 113.123C61.7861 113.13 62.0833 113.257 62.0817 113.395Z" fill="#ABABAB"/>
<path d="M57.7984 113.395L57.7505 117.481C57.7488 117.624 57.4488 117.735 57.0791 117.728C56.7094 117.722 56.4121 117.601 56.4138 117.457L56.4617 113.371C56.4634 113.228 56.7634 113.117 57.1331 113.123C57.5028 113.13 57.8 113.257 57.7984 113.395Z" fill="#ABABAB"/>
<path d="M53.4672 113.395L53.4193 117.481C53.4176 117.624 53.1177 117.735 52.7479 117.728C52.3782 117.722 52.0809 117.601 52.0826 117.457L52.1305 113.371C52.1322 113.228 52.4322 113.117 52.8019 113.123C53.1716 113.13 53.4688 113.257 53.4672 113.395Z" fill="#ABABAB"/>
<path d="M49.3594 113.395L49.3115 117.481C49.3099 117.624 49.0099 117.735 48.6401 117.728C48.2704 117.722 47.9732 117.601 47.9748 117.457L48.0227 113.371C48.0244 113.228 48.3244 113.117 48.6941 113.123C49.0638 113.13 49.361 113.257 49.3594 113.395Z" fill="#ABABAB"/>
<path d="M59.9401 113.395L59.8922 117.481C59.8905 117.624 59.5905 117.735 59.2208 117.728C58.8511 117.722 58.5538 117.601 58.5555 117.457L58.6034 113.371C58.605 113.228 58.905 113.117 59.2747 113.123C59.6445 113.13 59.9417 113.257 59.9401 113.395Z" fill="#ABABAB"/>
<path d="M55.6568 113.395L55.609 117.481C55.6073 117.624 55.3073 117.735 54.9376 117.728C54.5678 117.722 54.2706 117.601 54.2723 117.457L54.3202 113.371C54.3218 113.228 54.6218 113.117 54.9915 113.123C55.3613 113.13 55.6585 113.257 55.6568 113.395Z" fill="#ABABAB"/>
<path d="M51.3256 113.395L51.2777 117.481C51.276 117.624 50.9761 117.735 50.6063 117.728C50.2366 117.722 49.9393 117.601 49.941 117.457L49.9889 113.371C49.9906 113.228 50.2906 113.117 50.6603 113.123C51.03 113.13 51.3272 113.257 51.3256 113.395Z" fill="#ABABAB"/>
<path d="M47.2181 113.395L47.17 117.48C47.1683 117.624 46.8683 117.735 46.4986 117.728C46.1289 117.722 45.8316 117.601 45.8333 117.457L45.8814 113.371C45.8831 113.228 46.1831 113.117 46.5528 113.123C46.9225 113.13 47.2197 113.257 47.2181 113.395Z" fill="#ABABAB"/>
<path d="M74.9716 115.573C76.3003 115.573 77.3774 114.495 77.3774 113.165C77.3774 111.835 76.3003 110.757 74.9716 110.757C73.643 110.757 72.5659 111.835 72.5659 113.165C72.5659 114.495 73.643 115.573 74.9716 115.573Z" fill="#F9CC5D"/>
<path d="M40.1527 115.573C41.4814 115.573 42.5585 114.495 42.5585 113.165C42.5585 111.835 41.4814 110.757 40.1527 110.757C38.824 110.757 37.7469 111.835 37.7469 113.165C37.7469 114.495 38.824 115.573 40.1527 115.573Z" fill="#F9CC5D"/>
<path d="M68.5253 115.48C69.854 115.48 70.9311 114.402 70.9311 113.072C70.9311 111.742 69.854 110.664 68.5253 110.664C67.1967 110.664 66.1196 111.742 66.1196 113.072C66.1196 114.402 67.1967 115.48 68.5253 115.48Z" fill="#F9CC5D"/>
<path d="M33.7065 115.48C35.0352 115.48 36.1123 114.402 36.1123 113.072C36.1123 111.742 35.0352 110.664 33.7065 110.664C32.3778 110.664 31.3007 111.742 31.3007 113.072C31.3007 114.402 32.3778 115.48 33.7065 115.48Z" fill="#F9CC5D"/>
<path d="M67.0472 123.211V126.698C67.0472 127.587 67.6574 128.319 68.3984 128.319H74.3556C75.0966 128.319 75.7068 127.587 75.7068 126.698V123.211H67.0472Z" fill="#1B1C1E"/>
<path d="M70.999 126.698V123.211H67.0325V126.698C67.0325 127.587 67.6427 128.319 68.3837 128.319H72.3503C71.6093 128.301 70.999 127.587 70.999 126.698Z" fill="#1B1C1E"/>
<path d="M32.4102 123.211V126.698C32.4102 127.587 33.0214 128.319 33.7634 128.319H39.7293C40.4714 128.319 41.0825 127.587 41.0825 126.698V123.211H32.4102Z" fill="#1B1C1E"/>
<path d="M36.3826 126.698V123.211H32.4102V126.698C32.4102 127.587 33.0214 128.319 33.7634 128.319H37.7358C36.9792 128.301 36.3826 127.587 36.3826 126.698Z" fill="#1B1C1E"/>
<path d="M48.0152 122.741V120.196C48.0152 119.899 48.1197 119.638 48.2764 119.411H30.0591C29.3276 119.411 28.7355 120.004 28.7355 120.736V122.218C28.7355 122.95 29.3276 123.542 30.0591 123.542H48.2939C48.1197 123.316 48.0152 123.037 48.0152 122.741Z" fill="#DFEBFA"/>
<path d="M78.0574 119.411H59.8227C59.9794 119.638 60.0839 119.899 60.0839 120.196V122.741C60.0839 123.037 59.9794 123.298 59.8227 123.525H78.0574C78.7889 123.525 79.3811 122.932 79.3811 122.2V120.719C79.3811 120.004 78.7889 119.411 78.0574 119.411Z" fill="#DFEBFA"/>
<mask id="path-38-outside-1" maskUnits="userSpaceOnUse" x="26.7355" y="89.6755" width="55" height="36" fill="black">
<rect fill="white" x="26.7355" y="89.6755" width="55" height="36"/>
<path fill-rule="evenodd" clip-rule="evenodd" d="M60.4485 94.8143H60.501C61.2151 94.8143 61.8073 94.4562 61.8247 94.0138V92.476C61.8247 92.0337 61.2325 91.6755 60.501 91.6755H51.5484H47.8493C47.1178 91.6755 46.5256 92.0337 46.5256 92.476V94.0138C46.5256 94.4562 47.1178 94.8143 47.8493 94.8143H51.5484H56.7363V94.8144H60.4354C60.4398 94.8144 60.4441 94.8144 60.4485 94.8143ZM64.402 94.8147C65.9265 94.8147 69.3582 100.575 70.5301 104.263H70.6377C71.3626 104.263 78.4227 110.436 78.4227 112.055V119.462C78.9763 119.62 79.3811 120.128 79.3811 120.719V122.2C79.3811 122.932 78.7889 123.525 78.0574 123.525H59.8227C59.9794 123.298 60.0839 123.037 60.0839 122.741V120.196C60.0839 120.118 60.0767 120.042 60.0632 119.969H59.9268C59.7003 119.638 59.3172 119.429 58.8818 119.429H49.2332C48.8152 119.429 48.4321 119.655 48.1882 119.969H48.0359C48.0224 120.042 48.0152 120.118 48.0152 120.196V122.741C48.0152 123.037 48.1197 123.316 48.2939 123.543H30.0591C29.3276 123.543 28.7355 122.95 28.7355 122.218V120.736C28.7355 120.131 29.1395 119.622 29.6923 119.463V112.055C29.6923 110.796 35.9769 104.263 37.4773 104.263H37.4844C38.4996 100.303 41.8569 94.8147 43.7014 94.8147H64.402Z"/>
</mask>
<path d="M60.4485 94.8143V92.8143L60.4368 92.8144L60.4485 94.8143ZM61.8247 94.0138L63.8231 94.0925L63.8247 94.0532V94.0138H61.8247ZM56.7363 94.8143H58.7363V92.8143H56.7363V94.8143ZM56.7363 94.8144H54.7363V96.8144H56.7363V94.8144ZM70.5301 104.263L68.624 104.869L69.0671 106.263H70.5301V104.263ZM78.4227 119.462H76.4227V120.971L77.8735 121.385L78.4227 119.462ZM59.8227 123.525L58.1778 122.387L56.0075 125.525H59.8227V123.525ZM60.0632 119.969L62.0299 119.606L61.7276 117.969H60.0632V119.969ZM59.9268 119.969L58.2757 121.098L58.8713 121.969H59.9268V119.969ZM48.1882 119.969V121.969H49.1669L49.7675 121.196L48.1882 119.969ZM48.0359 119.969V117.969H46.3716L46.0692 119.606L48.0359 119.969ZM48.2939 123.543V125.543H52.3534L49.8796 122.324L48.2939 123.543ZM29.6923 119.463L30.2453 121.385L31.6923 120.968V119.463H29.6923ZM37.4844 104.263V106.263H39.0364L39.4218 104.76L37.4844 104.263ZM60.501 92.8143H60.4485V96.8143H60.501V92.8143ZM59.8262 93.9352C59.854 93.2306 60.3119 92.9153 60.3891 92.8686C60.5039 92.7992 60.5457 92.8143 60.501 92.8143V96.8143C61.1705 96.8143 61.8654 96.6504 62.4591 96.2914C63.0153 95.955 63.778 95.2394 63.8231 94.0925L59.8262 93.9352ZM59.8247 92.476V94.0138H63.8247V92.476H59.8247ZM60.501 93.6755C60.5643 93.6755 60.5243 93.6951 60.4022 93.6213C60.3168 93.5696 59.8247 93.2247 59.8247 92.476H63.8247C63.8247 91.285 63.0365 90.5398 62.4722 90.1985C61.8711 89.835 61.1693 89.6755 60.501 89.6755V93.6755ZM51.5484 93.6755H60.501V89.6755H51.5484V93.6755ZM47.8493 93.6755H51.5484V89.6755H47.8493V93.6755ZM48.5256 92.476C48.5256 93.2247 48.0335 93.5696 47.9481 93.6213C47.826 93.6951 47.786 93.6755 47.8493 93.6755V89.6755C47.181 89.6755 46.4792 89.835 45.8781 90.1985C45.3138 90.5398 44.5256 91.285 44.5256 92.476H48.5256ZM48.5256 94.0138V92.476H44.5256V94.0138H48.5256ZM47.8493 92.8143C47.786 92.8143 47.826 92.7948 47.9481 92.8686C48.0335 92.9202 48.5256 93.2652 48.5256 94.0138H44.5256C44.5256 95.2049 45.3138 95.9501 45.8781 96.2914C46.4792 96.6549 47.181 96.8143 47.8493 96.8143V92.8143ZM51.5484 92.8143H47.8493V96.8143H51.5484V92.8143ZM56.7363 92.8143H51.5484V96.8143H56.7363V92.8143ZM54.7363 94.8143V94.8144H58.7363V94.8143H54.7363ZM56.7363 96.8144H60.4354V92.8144H56.7363V96.8144ZM60.4354 96.8144C60.4437 96.8144 60.4519 96.8144 60.4602 96.8143L60.4368 92.8144C60.4364 92.8144 60.4359 92.8144 60.4354 92.8144V96.8144ZM72.4362 103.657C71.7876 101.617 70.5542 99.1004 69.2916 97.0916C68.6595 96.086 67.9759 95.1364 67.3042 94.4123C66.9705 94.0526 66.5921 93.6963 66.1803 93.416C65.8066 93.1617 65.1821 92.8147 64.402 92.8147V96.8147C64.003 96.8147 63.8193 96.6477 63.9297 96.7228C64.0019 96.772 64.1509 96.8946 64.3716 97.1326C64.8087 97.6038 65.3422 98.3248 65.905 99.2203C67.0323 101.014 68.1007 103.222 68.624 104.869L72.4362 103.657ZM70.6377 102.263H70.5301V106.263H70.6377V102.263ZM80.4227 112.055C80.4227 111.266 80.0485 110.585 79.8324 110.225C79.5635 109.778 79.213 109.315 78.8436 108.873C78.0989 107.981 77.1304 106.996 76.1724 106.095C75.2097 105.189 74.2159 104.329 73.4005 103.684C72.9965 103.365 72.6092 103.077 72.2765 102.859C72.1133 102.752 71.9271 102.638 71.7366 102.543C71.6494 102.499 71.2008 102.263 70.6377 102.263V106.263C70.3457 106.263 70.1371 106.194 70.082 106.175C70.0031 106.148 69.9563 106.125 69.9526 106.123C69.9452 106.119 69.9849 106.139 70.0842 106.204C70.2763 106.33 70.5595 106.537 70.9194 106.822C71.6316 107.385 72.5388 108.169 73.4317 109.009C74.3293 109.853 75.1711 110.715 75.773 111.436C76.0767 111.8 76.2835 112.085 76.4035 112.285C76.5763 112.573 76.4227 112.439 76.4227 112.055H80.4227ZM80.4227 119.462V112.055H76.4227V119.462H80.4227ZM81.3811 120.719C81.3811 119.196 80.3467 117.932 78.972 117.539L77.8735 121.385C77.6059 121.309 77.3811 121.059 77.3811 120.719H81.3811ZM81.3811 122.2V120.719H77.3811V122.2H81.3811ZM78.0574 125.525C79.8952 125.525 81.3811 124.035 81.3811 122.2H77.3811C77.3811 121.83 77.6827 121.525 78.0574 121.525V125.525ZM59.8227 125.525H78.0574V121.525H59.8227V125.525ZM58.0839 122.741C58.0839 122.649 58.1008 122.566 58.1242 122.499C58.1464 122.435 58.1704 122.398 58.1778 122.387L61.4676 124.663C61.7989 124.184 62.0839 123.533 62.0839 122.741H58.0839ZM58.0839 120.196V122.741H62.0839V120.196H58.0839ZM58.0965 120.332C58.0883 120.288 58.0839 120.242 58.0839 120.196H62.0839C62.0839 119.993 62.0651 119.796 62.0299 119.606L58.0965 120.332ZM59.9268 121.969H60.0632V117.969H59.9268V121.969ZM58.8818 121.429C58.6635 121.429 58.4258 121.317 58.2757 121.098L61.5778 118.84C60.9749 117.958 59.9709 117.429 58.8818 117.429V121.429ZM49.2332 121.429H58.8818V117.429H49.2332V121.429ZM49.7675 121.196C49.7249 121.251 49.6688 121.302 49.5917 121.343C49.5116 121.386 49.3893 121.429 49.2332 121.429V117.429C48.09 117.429 47.1603 118.032 46.609 118.742L49.7675 121.196ZM48.0359 121.969H48.1882V117.969H48.0359V121.969ZM50.0152 120.196C50.0152 120.242 50.0108 120.288 50.0027 120.332L46.0692 119.606C46.034 119.796 46.0152 119.993 46.0152 120.196H50.0152ZM50.0152 122.741V120.196H46.0152V122.741H50.0152ZM49.8796 122.324C49.9512 122.417 50.0152 122.56 50.0152 122.741H46.0152C46.0152 123.514 46.2882 124.215 46.7081 124.761L49.8796 122.324ZM30.0591 125.543H48.2939V121.543H30.0591V125.543ZM26.7355 122.218C26.7355 124.053 28.2214 125.543 30.0591 125.543V121.543C30.4339 121.543 30.7355 121.847 30.7355 122.218H26.7355ZM26.7355 120.736V122.218H30.7355V120.736H26.7355ZM29.1393 117.541C27.7508 117.94 26.7355 119.218 26.7355 120.736H30.7355C30.7355 121.045 30.5281 121.303 30.2453 121.385L29.1393 117.541ZM27.6923 112.055V119.463H31.6923V112.055H27.6923ZM37.4773 102.263C36.7198 102.263 36.0571 102.616 35.7162 102.812C35.2823 103.061 34.828 103.387 34.3881 103.734C33.5016 104.434 32.5116 105.352 31.5952 106.285C30.6777 107.22 29.7902 108.213 29.1176 109.08C28.7842 109.51 28.4747 109.945 28.2384 110.35C28.1205 110.551 28 110.781 27.904 111.023C27.8197 111.235 27.6923 111.608 27.6923 112.055H31.6923C31.6923 112.216 31.6683 112.334 31.6541 112.393C31.6391 112.455 31.6248 112.491 31.6224 112.497C31.6192 112.505 31.6352 112.465 31.6921 112.368C31.8053 112.174 31.9985 111.892 32.2778 111.532C32.8304 110.82 33.6078 109.945 34.449 109.088C35.2913 108.231 36.1539 107.437 36.8677 106.873C37.228 106.588 37.5108 106.394 37.7077 106.281C37.9977 106.114 37.8597 106.263 37.4773 106.263V102.263ZM37.4844 102.263H37.4773V106.263H37.4844V102.263ZM43.7014 92.8147C42.9886 92.8147 42.3807 93.0726 41.938 93.3311C41.4816 93.5975 41.0651 93.9439 40.697 94.3035C39.9606 95.023 39.2435 95.9677 38.5981 96.9746C37.3102 98.9839 36.1175 101.541 35.5471 103.766L39.4218 104.76C39.8664 103.025 40.8601 100.858 41.9657 99.1332C42.5171 98.273 43.0487 97.5981 43.4923 97.1647C43.7141 96.948 43.8705 96.8346 43.9547 96.7855C44.0526 96.7283 43.9532 96.8147 43.7014 96.8147V92.8147ZM64.402 92.8147H43.7014V96.8147H64.402V92.8147Z" fill="#1B1C1E" mask="url(#path-38-outside-1)"/>
<path d="M59.2231 123.356H48.9127C48.1813 123.356 47.5891 122.875 47.5891 122.281V120.216C47.5891 119.621 48.1813 119.14 48.9127 119.14H59.2231C59.9546 119.14 60.5467 119.621 60.5467 120.216V122.281C60.5293 122.875 59.9372 123.356 59.2231 123.356Z" fill="#B1DBFC"/>
<path d="M60.501 94.8144H47.8493C47.1178 94.8144 46.5256 94.4562 46.5256 94.0138V92.476C46.5256 92.0337 47.1178 91.6755 47.8493 91.6755H60.501C61.2325 91.6755 61.8247 92.0337 61.8247 92.476V94.0138C61.8073 94.4562 61.2151 94.8144 60.501 94.8144Z" fill="white"/>
<path d="M51.5484 94.8144H47.8493C47.1178 94.8144 46.5256 94.4562 46.5256 94.0138V92.476C46.5256 92.0337 47.1178 91.6755 47.8493 91.6755H51.5484V94.8144Z" fill="#4A80AA"/>
<path d="M56.7363 94.8143H60.4354C61.1669 94.8143 61.759 94.4562 61.759 94.0138V92.476C61.759 92.0337 61.1669 91.6755 60.4354 91.6755H56.7363V94.8143Z" fill="#E11E3E"/>
</g>
<path d="M146.012 104.4V121.928C145.983 123.019 145.883 124.107 145.712 125.184C143.632 138.424 135.718 150.028 124.157 156.79C123.407 157.24 122.47 157.24 121.72 156.79C110.159 150.028 102.246 138.424 100.166 125.184C99.994 124.107 99.894 123.019 99.8658 121.928V104.4C99.8658 103.124 100.899 102.091 102.173 102.091H143.704C144.979 102.091 146.012 103.124 146.012 104.4Z" fill="#E85F6A"/>
<path d="M125.246 102.091V143.659C125.246 144.934 124.213 145.968 122.939 145.968C121.664 145.968 120.631 144.934 120.631 143.659V102.091H125.246Z" fill="#F8BA5D"/>
<path d="M146.012 120.565V121.928C145.983 123.019 145.883 124.106 145.712 125.184H100.166C99.9943 124.106 99.8943 123.019 99.8661 121.928V120.565H146.012Z" fill="#F8BA5D"/>
</svg>
