<svg width="144" height="170" viewBox="0 0 144 170" fill="none" xmlns="http://www.w3.org/2000/svg">
<circle r="67.6482" transform="matrix(-1 0 0 1 76 101.999)" fill="#4A80AA"/>
<mask id="mask0" mask-type="alpha" maskUnits="userSpaceOnUse" x="0" y="3" width="144" height="167">
<path d="M8.35184 101.999C8.35184 139.36 38.639 169.647 76 169.647C113.361 169.647 143.648 139.36 143.648 101.999C143.648 64.638 140.702 3.01904 103.341 3.01904C65.98 3.01904 -26.5986 6.08849 8.35184 101.999Z" fill="#4A80AA"/>
</mask>
<g mask="url(#mask0)">
<path d="M128.208 181.067L140.45 42.9734L43.9409 36.2901L19.2532 171.069L128.208 181.067Z" fill="#E7EEF6"/>
<path d="M126.208 179.067L138.45 40.9734L41.9409 34.2901L17.2532 169.069L126.208 179.067Z" fill="#C4CDDF"/>
<path d="M136.318 34.8412L38.9954 25.9881L27.6969 37.5839L16.4652 164.337L123.997 174.141L136.318 34.8412Z" fill="#E6F8FF"/>
<path d="M87.9629 42.1011L35.048 37.3118L29.8397 94.8552L82.7546 99.6445L87.9629 42.1011Z" fill="white"/>
<mask id="mask1" mask-type="alpha" maskUnits="userSpaceOnUse" x="31" y="35" width="58" height="66">
<path d="M88.3364 40.5859L36.6553 35.9082L31.2254 95.8993L82.9066 100.577L88.3364 40.5859Z" fill="white"/>
</mask>
<g mask="url(#mask1)">
<path d="M83.8679 66.5858L80.2726 66.3483C80.0396 66.3329 79.8199 66.3686 79.6135 66.4552C79.6038 66.8558 79.5941 67.2564 79.5677 67.6559L79.3708 70.6353C79.826 71.0833 80.2114 71.5769 80.5435 72.1171L83.473 72.3106C84.3053 72.3656 85.0328 71.7282 85.0878 70.896L85.2648 68.2161C85.3542 67.3694 84.7168 66.6419 83.8679 66.5858Z" fill="#DFEBFA"/>
<path d="M81.843 70.6648L82.02 67.9849C82.075 67.1527 82.8025 66.5153 83.6348 66.5703L80.2891 66.3493C80.0561 66.3339 79.8364 66.3695 79.6301 66.4562C79.6203 66.8568 79.6106 67.2574 79.5842 67.6568L79.3874 70.6363C79.8426 71.0843 80.2279 71.5779 80.56 72.1181L83.2565 72.2962C82.4243 72.2412 81.7869 71.5137 81.843 70.6648Z" fill="#B1DBFC"/>
<path d="M38.4237 67.9301L38.6206 64.9506C38.6502 64.5012 38.6966 64.0529 38.7596 63.6056L35.3307 63.3791C34.4984 63.3241 33.7709 63.9615 33.7159 64.7938L33.5389 67.4736C33.4839 68.3059 34.1213 69.0334 34.9535 69.0884L37.0674 69.228C37.4666 68.7529 37.9313 68.2987 38.4237 67.9301Z" fill="#DFEBFA"/>
<path d="M36.019 67.6374L36.196 64.9576C36.251 64.1253 36.9785 63.488 37.8108 63.543L35.3307 63.3791C34.4984 63.3241 33.7709 63.9615 33.7159 64.7938L33.5389 67.4736C33.4839 68.3059 34.1213 69.0334 34.9535 69.0884L37.0674 69.228C37.0852 69.2125 37.0863 69.1958 37.1029 69.1969C36.4304 69.002 35.9706 68.3698 36.019 67.6374Z" fill="#B1DBFC"/>
<path d="M43.1797 66.5557L74.8719 68.6493C76.7195 68.7714 78.3555 69.5649 79.5957 70.7836L79.7936 67.7875C80.0037 64.6083 79.4381 61.5283 78.2083 59.1401C76.843 56.5255 74.8703 55.0076 72.6066 54.8581L47.2229 53.1811C44.9758 53.0327 42.8039 54.2768 41.1232 56.6901C39.5899 58.8959 38.6241 61.8747 38.4141 65.0539L38.2161 68.05C39.5892 67.0039 41.3321 66.4336 43.1797 66.5557Z" fill="#E85F6A"/>
<path d="M41.7584 65.275C41.9684 62.0958 42.9342 59.117 44.4675 56.9113C46.1482 54.4979 48.3201 53.2538 50.5672 53.4023L47.2382 53.1824C44.9911 53.0339 42.8192 54.278 41.1385 56.6913C39.6052 58.8971 38.6394 61.8759 38.4293 65.0551L38.2314 68.0512C39.2174 67.2972 40.4044 66.7905 41.6704 66.6066L41.7584 65.275Z" fill="#EB676F"/>
<path d="M43.1786 66.5554L74.8707 68.6491C75.6364 68.6997 76.3778 68.8657 77.0614 69.1449L77.1626 67.6136C77.3419 64.9004 76.8765 62.3286 75.8533 60.3552C74.949 58.607 73.729 57.5902 72.414 57.5033L47.047 55.8275C45.7486 55.7417 44.4054 56.5891 43.2623 58.2021C41.9885 60.0238 41.1888 62.512 41.0096 65.2252L40.9084 66.7565C41.6562 66.5719 42.3963 66.5038 43.1786 66.5554Z" fill="#67B0EB"/>
<path d="M44.3722 65.4473C44.5515 62.7342 45.3511 60.2459 46.625 58.4242C47.7514 56.8102 49.0946 55.9627 50.4096 56.0496L47.0806 55.8297C45.7823 55.7439 44.439 56.5913 43.296 58.2043C42.0221 60.026 41.2225 62.5142 41.0432 65.2274L40.942 66.7587C41.6554 66.5885 42.4133 66.5049 43.1789 66.5554L44.2941 66.6291L44.3722 65.4473Z" fill="#2E9DE6"/>
<path d="M68.8162 61.612C65.637 61.402 62.8677 63.8437 62.6555 67.0562C62.6379 67.3226 62.638 67.5733 62.6537 67.8419L65.2836 68.0156C65.2336 67.7615 65.2179 67.493 65.2355 67.2267C65.3531 65.4457 66.8792 64.1087 68.6269 64.2242C70.3913 64.3408 71.7115 65.8657 71.5939 67.6467C71.5763 67.913 71.5254 68.1772 71.4423 68.4225L74.0722 68.5962C74.122 68.3487 74.1563 68.0835 74.1739 67.8172C74.4194 64.6069 72.012 61.8232 68.8162 61.612Z" fill="#2E9DE6"/>
<path d="M68.8162 61.612C65.637 61.402 62.8677 63.8437 62.6555 67.0562C62.6379 67.3226 62.638 67.5733 62.6537 67.8419L65.2836 68.0156C65.2336 67.7615 65.2179 67.493 65.2355 67.2267C65.3531 65.4457 66.8792 64.1087 68.6269 64.2242C70.3913 64.3408 71.7115 65.8657 71.5939 67.6467C71.5763 67.913 71.5254 68.1772 71.4423 68.4225L74.0722 68.5962C74.122 68.3487 74.1563 68.0835 74.1739 67.8172C74.4194 64.6069 72.012 61.8232 68.8162 61.612Z" fill="#2E9DE6"/>
<path d="M65.6607 65.8505C66.3153 63.7873 68.0554 62.2472 70.1701 61.8687C69.7439 61.7402 69.2822 61.6428 68.8162 61.612C65.637 61.402 62.8677 63.8437 62.6555 67.0562C62.6379 67.3226 62.638 67.5733 62.6537 67.8419L65.2836 68.0156C65.2336 67.7615 65.2179 67.493 65.2355 67.2267C65.2851 66.7284 65.4324 66.2701 65.6607 65.8505Z" fill="#3490D1"/>
<path d="M74.8786 68.533L43.1865 66.4393C39.0918 66.1688 35.5251 69.2934 35.2546 73.3881L34.7521 80.9949C34.8708 80.9693 34.9884 80.9603 35.1049 80.968L52.4324 82.1127C52.6852 81.8285 53.0657 81.6363 53.4652 81.6627L62.6865 82.2719C63.1027 82.2994 63.4557 82.5233 63.6512 82.8539L80.9786 83.9986C81.0952 84.0063 81.2106 84.0306 81.3249 84.0716L81.8274 76.4648C82.0979 72.3701 78.9733 68.8035 74.8786 68.533Z" fill="#F0868D"/>
<path d="M40.1327 73.6932C40.4032 69.5985 43.9699 66.4739 48.0646 66.7444L43.1876 66.4222C39.0929 66.1517 35.5262 69.2763 35.2557 73.371L34.7532 80.9778C34.8719 80.9522 34.9895 80.9432 35.106 80.9509L39.6501 81.2511L40.1494 73.6943L40.1327 73.6932Z" fill="#E85F6A"/>
<path d="M63.9789 75.1015C65.3605 75.1927 66.6894 74.5617 67.4832 73.4271L71.1341 68.2685L46.9322 66.6697L49.8728 72.2637C50.5104 73.4928 51.7448 74.2932 53.1263 74.3845L63.9789 75.1015Z" fill="#E85F6A"/>
<path d="M54.3669 72.5606L51.4264 66.9666L46.9322 66.6697L49.8728 72.2637C50.5104 73.4928 51.7448 74.2932 53.1263 74.3845L57.6205 74.6814C56.239 74.5901 55.0046 73.7897 54.3669 72.5606Z" fill="#EB676F"/>
<path d="M64.4678 78.8451L52.1505 78.0314C51.7177 78.0028 51.3913 77.6301 51.4199 77.1974C51.4485 76.7646 51.8211 76.4381 52.2539 76.4667L64.5712 77.2804C65.004 77.309 65.3304 77.6817 65.3018 78.1144C65.2732 78.5472 64.884 78.8726 64.4678 78.8451Z" fill="#E85F6A"/>
<path d="M74.9178 79.0678C76.5909 79.1783 78.0368 77.9116 78.1473 76.2385C78.2579 74.5654 76.9912 73.1195 75.3181 73.009C73.645 72.8984 72.1991 74.1651 72.0885 75.8382C71.978 77.5113 73.2447 78.9572 74.9178 79.0678Z" fill="#F9CC5D"/>
<path d="M41.7445 76.8756C43.4176 76.9862 44.8635 75.7194 44.974 74.0464C45.0846 72.3733 43.8178 70.9274 42.1448 70.8168C40.4717 70.7063 39.0258 71.973 38.9152 73.6461C38.8047 75.3192 40.0714 76.7651 41.7445 76.8756Z" fill="#F9CC5D"/>
<path d="M75.1009 76.0371C75.1757 74.9053 75.8565 73.9639 76.806 73.5084C76.3731 73.229 75.8836 73.0462 75.3344 73.0099C73.6532 72.8989 72.2148 74.1747 72.1048 75.8392C71.9938 77.5204 73.2696 78.9588 74.9341 79.0687C75.4834 79.105 76.0093 78.9893 76.4585 78.7682C75.5772 78.1917 75.0262 77.169 75.1009 76.0371Z" fill="#F7BD3C"/>
<path d="M41.9285 73.8457C42.0032 72.7139 42.684 71.7725 43.6335 71.317C43.2006 71.0376 42.7112 70.8548 42.1619 70.8185C40.4807 70.7075 39.0423 71.9833 38.9323 73.6478C38.8213 75.329 40.0971 76.7674 41.7616 76.8773C42.3109 76.9136 42.8368 76.7979 43.2861 76.5768C42.4047 76.0003 41.8537 74.9776 41.9285 73.8457Z" fill="#F7BD3C"/>
<path d="M70.2546 86.3994L70.0347 89.7284C69.9786 90.5773 70.6315 91.3226 71.4804 91.3787L78.3049 91.8295C79.1538 91.8856 79.8991 91.2327 79.9551 90.3838L80.1751 87.0548L70.2546 86.3994Z" fill="#665E68"/>
<path d="M74.5619 90.0274L74.7818 86.6984L70.2377 86.3982L70.0178 89.7272C69.9617 90.5761 70.6146 91.3214 71.4635 91.3775L76.0076 91.6776C75.1598 91.6049 74.5058 90.8763 74.5619 90.0274Z" fill="#544E55"/>
<path d="M35.5163 84.1045L35.2963 87.4335C35.2403 88.2824 35.8932 89.0277 36.7421 89.0838L43.5665 89.5346C44.4154 89.5907 45.1607 88.9378 45.2168 88.0889L45.4367 84.7599L35.5163 84.1045Z" fill="#665E68"/>
<path d="M39.8404 87.7337L40.0604 84.4047L35.5163 84.1045L35.2963 87.4335C35.2403 88.2824 35.8932 89.0277 36.7421 89.0838L41.2862 89.3839C40.4217 89.3101 39.7844 88.5826 39.8404 87.7337Z" fill="#544E55"/>
<path d="M52.0922 84.7483L52.2527 82.3181C52.2714 82.0351 52.3878 81.7921 52.5519 81.5856L35.1412 80.4354C34.4421 80.3892 33.8387 80.9177 33.7926 81.6168L33.6991 83.0317C33.6529 83.7308 34.1815 84.3341 34.8805 84.3803L52.3079 85.5316C52.1557 85.3042 52.0735 85.0313 52.0922 84.7483Z" fill="#DFEBFA"/>
<path d="M38.2432 83.3319L38.3367 81.917C38.3828 81.2179 38.9862 80.6894 39.6852 80.7356L35.1412 80.4354C34.4421 80.3892 33.8387 80.9177 33.7926 81.6168L33.6991 83.0317C33.6529 83.7308 34.1815 84.3341 34.8805 84.3803L39.4246 84.6805C38.7266 84.6176 38.1981 84.0143 38.2432 83.3319Z" fill="#B1DBFC"/>
<path d="M81.0141 83.4658L63.5868 82.3145C63.7223 82.5407 63.8057 82.797 63.787 83.08L63.6264 85.5101C63.6077 85.7931 63.4914 86.0362 63.3273 86.2427L80.7546 87.394C81.4537 87.4402 82.057 86.9116 82.1032 86.2125L82.1967 84.7977C82.2418 84.1153 81.7132 83.5119 81.0141 83.4658Z" fill="#DFEBFA"/>
<path d="M62.7105 86.7202L52.8566 86.0692C52.1576 86.023 51.629 85.4197 51.6752 84.7206L51.8357 82.2904C51.8819 81.5913 52.4852 81.0628 53.1843 81.109L63.0382 81.7599C63.7373 81.8061 64.2658 82.4094 64.2197 83.1085L64.0591 85.5387C63.9963 86.2367 63.393 86.7652 62.7105 86.7202Z" fill="#B1DBFC"/>
<path d="M56.2193 85.0208L56.3798 82.5906C56.426 81.8915 57.0293 81.363 57.7284 81.4092L53.1843 81.109C52.4852 81.0628 51.8819 81.5913 51.8357 82.2904L51.6752 84.7206C51.629 85.4197 52.1576 86.023 52.8566 86.0692L57.4007 86.3694C56.7017 86.3232 56.1731 85.7199 56.2193 85.0208Z" fill="#85B5DE"/>
</g>
<g style="mix-blend-mode:multiply">
<path d="M38.832 26.022L27.5336 37.6179L24.9014 67.2996C45.5799 45.2235 76.0596 35.7004 103.297 31.9043L38.832 26.022Z" fill="#E7F1F7"/>
</g>
<path d="M27.5342 37.618L40.9821 36.3623L38.8326 26.0222L27.5342 37.618Z" fill="white"/>
<path d="M125.635 56.6911L91.1179 54.0651L90.689 60.3322L125.206 62.9582L125.635 56.6911Z" fill="#AECFD6"/>
<path d="M124.982 68.2108L90.5195 65.5579L90.3676 67.4935L124.83 70.1463L124.982 68.2108Z" fill="#C4D9E8"/>
<path d="M124.486 74.5455L90.0231 71.8927L89.8712 73.8283L124.334 76.4811L124.486 74.5455Z" fill="#C4D9E8"/>
<path d="M123.987 80.8798L89.4842 78.2132L89.3731 80.1625L123.836 82.8153L123.987 80.8798Z" fill="#C4D9E8"/>
<path d="M123.491 87.2145L88.9878 84.548L88.8767 86.4972L123.339 89.1501L123.491 87.2145Z" fill="#C4D9E8"/>
<path d="M122.995 93.549L88.4915 90.8824L88.3804 92.8317L122.843 95.4845L122.995 93.549Z" fill="#C4D9E8"/>
<path d="M89.333 109.563L76.9418 108.601L76.0143 120.938L88.4055 121.901L89.333 109.563Z" fill="#F8BA5D"/>
<path d="M89.1169 112.323L76.5521 113.762L76.9029 108.615L89.3615 109.544L89.1169 112.323Z" fill="#F8BA5D"/>
<path d="M75.5418 122.236C74.9733 122.044 74.5948 121.459 74.63 120.842L75.5581 108.506C75.6279 107.785 76.2835 107.205 77.0072 107.276L89.3968 108.239C89.7415 108.241 90.086 108.414 90.3268 108.724C90.585 108.982 90.688 109.36 90.6359 109.686L89.7078 122.022C89.638 122.742 88.9825 123.323 88.2588 123.251L75.8691 122.289C75.7485 122.305 75.6451 122.27 75.5418 122.236Z" fill="#F8BA5D"/>
<path d="M74.9341 129.282C74.0776 128.994 73.5075 128.112 73.5605 127.181C73.6657 126.096 74.6534 125.221 75.7438 125.329L112.274 128.104C113.365 128.213 114.246 129.199 114.141 130.284C114.036 131.37 113.048 132.245 111.958 132.137L75.4274 129.361C75.2456 129.387 75.0899 129.334 74.9341 129.282Z" fill="#C4D9E8"/>
<path d="M74.4078 135.485C73.5513 135.197 72.9811 134.315 73.0342 133.385C73.1393 132.299 74.127 131.424 75.2174 131.532L104.411 133.553C105.501 133.662 106.383 134.648 106.278 135.734C106.173 136.819 105.185 137.694 104.094 137.586L74.901 135.565C74.7453 135.512 74.5635 135.537 74.4078 135.485Z" fill="#C4D9E8"/>
<path d="M30.2326 126.782C29.3761 126.494 28.806 125.612 28.859 124.681C28.9642 123.596 29.9519 122.721 31.0423 122.829L67.5727 125.604C68.6631 125.713 69.5447 126.699 69.4396 127.784C69.3344 128.87 68.3467 129.745 67.2563 129.637L30.7259 126.862C30.5441 126.887 30.3884 126.834 30.2326 126.782Z" fill="#C4D9E8"/>
<path d="M29.7063 132.985C28.8498 132.697 28.2796 131.815 28.3327 130.885C28.4378 129.799 29.4255 128.924 30.5159 129.032L59.7093 131.053C60.7997 131.162 61.6814 132.148 61.5762 133.234C61.471 134.319 60.4833 135.194 59.393 135.086L30.1995 133.065C30.0438 133.012 29.862 133.037 29.7063 132.985Z" fill="#C4D9E8"/>
<path d="M44.5632 106.621L31.4866 105.606L30.5078 118.626L43.5844 119.641L44.5632 106.621Z" fill="#F59797"/>
<path d="M30.0641 120.001C29.4642 119.8 29.0648 119.182 29.102 118.53L30.0814 105.512C30.1551 104.752 30.8469 104.139 31.6106 104.215L44.6856 105.231C45.0493 105.232 45.4129 105.415 45.6671 105.742C45.9396 106.015 46.0482 106.414 45.9932 106.758L45.0138 119.776C44.9402 120.536 44.2484 121.149 43.4846 121.073L30.4096 120.057C30.3005 120.021 30.1732 120.038 30.0641 120.001Z" fill="#F59797"/>
<path d="M41.0682 143.804L29.6244 142.915L28.7678 154.309L40.2116 155.198L41.0682 143.804Z" fill="white"/>
<path d="M28.3844 155.517C27.8594 155.34 27.5099 154.8 27.5424 154.23L28.3995 142.837C28.464 142.171 29.0694 141.635 29.7378 141.701L41.1802 142.591C41.4985 142.592 41.8167 142.752 42.0391 143.038C42.2776 143.277 42.3727 143.626 42.3246 143.927L41.4674 155.32C41.403 155.985 40.7975 156.521 40.1292 156.455L28.6868 155.566C28.5753 155.581 28.4799 155.549 28.3844 155.517Z" fill="#9BB3BA"/>
<path d="M53.978 147.659C53.1215 147.371 52.5514 146.489 52.6044 145.558C52.7096 144.473 53.6973 143.598 54.7877 143.706L102.325 147.453C103.415 147.561 104.297 148.547 104.192 149.633C104.086 150.718 103.099 151.593 102.008 151.485L54.4713 147.738C54.3156 147.686 54.1338 147.711 53.978 147.659Z" fill="#C4D9E8"/>
<path d="M53.5548 153.811C52.6983 153.523 52.1281 152.641 52.1812 151.71C52.2863 150.625 53.274 149.75 54.3644 149.858L95.9041 153.139C96.9945 153.247 97.8761 154.234 97.7709 155.319C97.6658 156.405 96.6781 157.28 95.5877 157.172L54.048 153.891C53.8663 153.916 53.7105 153.863 53.5548 153.811Z" fill="#C4D9E8"/>
<path d="M130.316 32.8794C129.988 31.6755 129.184 30.6153 128.051 29.991C126.917 29.3667 125.637 29.179 124.41 29.5563C123.203 29.8791 122.141 30.6762 121.517 31.8031L120.582 33.4935L121.826 33.6082L122.541 32.3906C122.999 31.5727 123.823 30.9385 124.702 30.6872C125.635 30.4544 126.641 30.5498 127.464 31.0088C128.287 31.4678 128.926 32.2904 129.181 33.1661C129.418 34.0963 129.325 35.0979 128.867 35.9158L123.037 46.1666L119.682 52.1464C119.077 53.2188 117.668 53.5953 116.589 52.9895C116.077 52.6957 115.693 52.2022 115.53 51.6002C115.366 50.9983 115.439 50.4156 115.733 49.9067L121.856 39.147L120.832 38.5596L114.709 49.3193C114.251 50.1372 114.14 51.0112 114.395 51.8869C114.65 52.7625 115.198 53.4936 116.021 53.9526C116.222 54.081 116.441 54.1549 116.606 54.2102C118.142 54.727 119.881 54.0967 120.669 52.6608L124.391 46.136L129.909 36.4487C130.496 35.4309 130.625 34.1379 130.316 32.8794Z" fill="#3C3B58"/>
</g>
</svg>
