<svg width="552" height="380" viewBox="0 0 552 380" fill="none" xmlns="http://www.w3.org/2000/svg">
<path d="M368.76 376.125H181.34C180.2 376.125 179.744 374.605 180.732 373.997C188.408 369.286 216.605 356.369 228.005 356.369H318.447C333.647 356.369 362.452 369.362 369.444 373.997C370.356 374.605 369.9 376.125 368.76 376.125Z" fill="#EEF2F4"/>
<path d="M368.456 373.845H181.416C180.428 373.845 179.668 374.605 179.668 375.593V377.72C179.668 379.012 180.732 380 181.948 380H368.608C369.9 380 370.888 378.936 370.888 377.72V376.277C370.888 374.985 369.748 373.845 368.456 373.845Z" fill="#D8E2F1"/>
<path d="M304.007 360.852H246.549C246.549 360.852 249.817 320.656 252.021 320.656H296.786C298.61 320.656 304.007 360.852 304.007 360.852Z" fill="#B9CBEA"/>
<path d="M304.007 360.852H246.549C246.549 360.852 248.905 364.727 249.893 364.727H300.663C301.651 364.727 304.007 360.852 304.007 360.852Z" fill="#D8E2F1"/>
<path d="M545.464 338.132H6.53614C2.96407 338.132 0 335.169 0 331.598V6.53469C0 2.96341 2.96407 0 6.53614 0H545.464C549.036 0 552 2.96341 552 6.53469V331.598C552 335.169 549.036 338.132 545.464 338.132Z" fill="#EEF2F4"/>
<path d="M543.716 308.878H7.14415C5.92813 308.878 4.86411 307.89 4.86411 306.599V7.21851C4.86411 6.00275 5.85213 4.93896 7.14415 4.93896H543.716C544.932 4.93896 545.996 5.92677 545.996 7.21851V306.675C545.996 307.89 545.008 308.878 543.716 308.878Z" fill="white" stroke="#8BA9C0" stroke-width="2" stroke-miterlimit="10"/>
<path opacity="0.61" d="M522.967 331.598C523.849 331.598 524.563 330.883 524.563 330.002C524.563 329.121 523.849 328.406 522.967 328.406C522.086 328.406 521.371 329.121 521.371 330.002C521.371 330.883 522.086 331.598 522.967 331.598Z" fill="#408AC9"/>
<path d="M506.247 332.358C507.548 332.358 508.603 331.303 508.603 330.002C508.603 328.701 507.548 327.646 506.247 327.646C504.946 327.646 503.891 328.701 503.891 330.002C503.891 331.303 504.946 332.358 506.247 332.358Z" fill="#B9CBEA"/>
<path d="M485.727 332.358C488.203 332.358 490.211 331.303 490.211 330.002C490.211 328.701 488.203 327.646 485.727 327.646C483.25 327.646 481.242 328.701 481.242 330.002C481.242 331.303 483.25 332.358 485.727 332.358Z" fill="#B9CBEA"/>
<path d="M465.966 332.358C468.443 332.358 470.45 331.303 470.45 330.002C470.45 328.701 468.443 327.646 465.966 327.646C463.49 327.646 461.482 328.701 461.482 330.002C461.482 331.303 463.49 332.358 465.966 332.358Z" fill="#B9CBEA"/>
<path d="M444.686 332.358C447.162 332.358 449.17 331.303 449.17 330.002C449.17 328.701 447.162 327.646 444.686 327.646C442.209 327.646 440.202 328.701 440.202 330.002C440.202 331.303 442.209 332.358 444.686 332.358Z" fill="#B9CBEA"/>
</svg>
