<svg width="61" height="57" fill="none" xmlns="http://www.w3.org/2000/svg"><rect x=".39" width="60" height="56.842" rx="4" fill="#DFEBFA"/><path d="M44.28 25.552l-2.166-6.497a4.742 4.742 0 00-4.505-3.248H23.173a4.742 4.742 0 00-4.505 3.248l-2.166 6.497a3.166 3.166 0 00-1.944 2.922v7.916c0 1.169.64 2.18 1.583 2.728v3.606a1.584 1.584 0 001.583 1.583h1.584a1.583 1.583 0 001.583-1.583v-3.167h19v3.167a1.584 1.584 0 001.583 1.583h1.584a1.583 1.583 0 001.583-1.583v-3.605a3.152 3.152 0 001.583-2.729v-7.916a3.167 3.167 0 00-1.944-2.922zm-21.107-6.578h14.435a1.58 1.58 0 011.503 1.083l1.75 5.25h-20.94l1.75-5.25a1.583 1.583 0 011.502-1.083zm-3.074 15.833a2.377 2.377 0 01-1.678-4.056 2.377 2.377 0 111.678 4.056zm20.584 0a2.377 2.377 0 01-1.679-4.056 2.375 2.375 0 111.679 4.056z" fill="#2C2A3F"/></svg>