<svg width="61" height="57" viewBox="0 0 61 57" fill="none" xmlns="http://www.w3.org/2000/svg">
<rect x="0.389893" width="60" height="56.8421" rx="4" fill="#DFEBFA"/>
<path d="M30.3899 33.0109C30.3899 33.8442 30.149 34.5376 29.6672 35.091C29.1855 35.6444 28.593 35.921 27.8899 35.921H17.8899C17.1868 35.921 16.5943 35.6444 16.1125 35.091C15.6308 34.5376 15.3899 33.8442 15.3899 33.0109C15.3899 32.1776 15.4485 31.4126 15.5657 30.716C15.6829 30.0194 15.8749 29.3488 16.1418 28.7042C16.4088 28.0597 16.8027 27.5519 17.3235 27.1808C17.8443 26.8097 18.4758 26.6242 19.218 26.6242C19.2961 26.6763 19.4915 26.7934 19.804 26.9757C20.1165 27.158 20.3606 27.298 20.5364 27.3957C20.7122 27.4933 20.9433 27.6072 21.2297 27.7374C21.5162 27.8677 21.7961 27.9621 22.0696 28.0207C22.343 28.0792 22.6165 28.1085 22.8899 28.1085C23.1633 28.1085 23.4368 28.0792 23.7102 28.0207C23.9836 27.9621 24.2636 27.8677 24.55 27.7374C24.8365 27.6072 25.0676 27.4933 25.2434 27.3957C25.4192 27.298 25.6633 27.158 25.9758 26.9757C26.2883 26.7934 26.4836 26.6763 26.5618 26.6242C27.304 26.6242 27.9355 26.8097 28.4563 27.1808C28.9771 27.5519 29.371 28.0597 29.6379 28.7042C29.9049 29.3488 30.0969 30.0194 30.2141 30.716C30.3313 31.4126 30.3899 32.1776 30.3899 33.0109ZM27.3235 22.8546C27.3235 24.0786 26.8905 25.1235 26.0247 25.9894C25.1588 26.8553 24.1139 27.2882 22.8899 27.2882C21.6659 27.2882 20.621 26.8553 19.7551 25.9894C18.8892 25.1235 18.4563 24.0786 18.4563 22.8546C18.4563 21.6307 18.8892 20.5858 19.7551 19.7199C20.621 18.854 21.6659 18.421 22.8899 18.421C24.1139 18.421 25.1588 18.854 26.0247 19.7199C26.8905 20.5858 27.3235 21.6307 27.3235 22.8546ZM45.3899 31.546V32.796C45.3899 32.9783 45.3313 33.1281 45.2141 33.2453C45.0969 33.3624 44.9472 33.421 44.7649 33.421H33.5149C33.3326 33.421 33.1829 33.3624 33.0657 33.2453C32.9485 33.1281 32.8899 32.9783 32.8899 32.796V31.546C32.8899 31.3638 32.9485 31.214 33.0657 31.0968C33.1829 30.9796 33.3326 30.921 33.5149 30.921H44.7649C44.9472 30.921 45.0969 30.9796 45.2141 31.0968C45.3313 31.214 45.3899 31.3638 45.3899 31.546ZM45.3899 26.6242V27.7179C45.3899 27.9132 45.3215 28.0792 45.1848 28.216C45.0481 28.3527 44.8821 28.421 44.6868 28.421H33.593C33.3977 28.421 33.2317 28.3527 33.095 28.216C32.9583 28.0792 32.8899 27.9132 32.8899 27.7179V26.6242C32.8899 26.4289 32.9583 26.2628 33.095 26.1261C33.2317 25.9894 33.3977 25.921 33.593 25.921H44.6868C44.8821 25.921 45.0481 25.9894 45.1848 26.1261C45.3215 26.2628 45.3899 26.4289 45.3899 26.6242ZM45.3899 21.546V22.796C45.3899 22.9783 45.3313 23.1281 45.2141 23.2453C45.0969 23.3624 44.9472 23.421 44.7649 23.421H33.5149C33.3326 23.421 33.1829 23.3624 33.0657 23.2453C32.9485 23.1281 32.8899 22.9783 32.8899 22.796V21.546C32.8899 21.3638 32.9485 21.214 33.0657 21.0968C33.1829 20.9796 33.3326 20.921 33.5149 20.921H44.7649C44.9472 20.921 45.0969 20.9796 45.2141 21.0968C45.3313 21.214 45.3899 21.3638 45.3899 21.546ZM47.8899 40.296V16.546C47.8899 16.3768 47.828 16.2303 47.7043 16.1066C47.5806 15.9829 47.4342 15.921 47.2649 15.921H13.5149C13.3456 15.921 13.1991 15.9829 13.0754 16.1066C12.9517 16.2303 12.8899 16.3768 12.8899 16.546V40.296C12.8899 40.4653 12.9517 40.6118 13.0754 40.7355C13.1991 40.8592 13.3456 40.921 13.5149 40.921H20.3899V39.046C20.3899 38.8638 20.4485 38.714 20.5657 38.5968C20.6829 38.4796 20.8326 38.421 21.0149 38.421H22.2649C22.4472 38.421 22.5969 38.4796 22.7141 38.5968C22.8313 38.714 22.8899 38.8638 22.8899 39.046V40.921H37.8899V39.046C37.8899 38.8638 37.9485 38.714 38.0657 38.5968C38.1829 38.4796 38.3326 38.421 38.5149 38.421H39.7649C39.9472 38.421 40.0969 38.4796 40.2141 38.5968C40.3313 38.714 40.3899 38.8638 40.3899 39.046V40.921H47.2649C47.4342 40.921 47.5806 40.8592 47.7043 40.7355C47.828 40.6118 47.8899 40.4653 47.8899 40.296ZM50.3899 16.546V40.296C50.3899 41.1554 50.0839 41.8911 49.4719 42.5031C48.8599 43.1151 48.1243 43.421 47.2649 43.421H13.5149C12.6555 43.421 11.9198 43.1151 11.3079 42.5031C10.6959 41.8911 10.3899 41.1554 10.3899 40.296V16.546C10.3899 15.6867 10.6959 14.951 11.3079 14.339C11.9198 13.727 12.6555 13.421 13.5149 13.421H47.2649C48.1243 13.421 48.8599 13.727 49.4719 14.339C50.0839 14.951 50.3899 15.6867 50.3899 16.546Z" fill="#2C2A3F"/>
</svg>
