<svg width="61" height="57" viewBox="0 0 61 57" fill="none" xmlns="http://www.w3.org/2000/svg">
<rect x="0.389893" width="60" height="56.8421" rx="4" fill="#DFEBFA"/>
<path d="M44.2801 25.5525L42.1141 19.0545C41.7999 18.1084 41.1955 17.2855 40.3868 16.7025C39.5782 16.1195 38.6064 15.8062 37.6095 15.8071H23.1727C22.1758 15.8062 21.204 16.1195 20.3953 16.7025C19.5867 17.2855 18.9823 18.1084 18.6681 19.0545L16.5021 25.5525C15.9261 25.7935 15.4342 26.1994 15.0883 26.7192C14.7423 27.239 14.5577 27.8494 14.5577 28.4738V36.3904C14.5577 37.5589 15.1974 38.5691 16.1411 39.1185V42.7238C16.1411 43.1437 16.3079 43.5464 16.6048 43.8434C16.9018 44.1403 17.3045 44.3071 17.7244 44.3071H19.3077C19.7277 44.3071 20.1304 44.1403 20.4273 43.8434C20.7243 43.5464 20.8911 43.1437 20.8911 42.7238V39.5571H39.8911V42.7238C39.8911 43.1437 40.0579 43.5464 40.3548 43.8434C40.6518 44.1403 41.0545 44.3071 41.4744 44.3071H43.0577C43.4777 44.3071 43.8804 44.1403 44.1773 43.8434C44.4743 43.5464 44.6411 43.1437 44.6411 42.7238V39.1185C45.1214 38.843 45.5207 38.4458 45.7987 37.9669C46.0767 37.4879 46.2235 36.9442 46.2244 36.3904V28.4738C46.2244 27.8494 46.0398 27.239 45.6939 26.7192C45.3479 26.1994 44.8561 25.7935 44.2801 25.5525ZM23.1727 18.9738H37.6079C38.2903 18.9738 38.8952 19.4076 39.1105 20.0568L40.8617 25.3071H19.9205L21.6701 20.0568C21.7751 19.7414 21.9768 19.467 22.2465 19.2726C22.5162 19.0782 22.8402 18.9737 23.1727 18.9738ZM20.0994 34.8071C19.7874 34.807 19.4785 34.7454 19.1903 34.626C18.9021 34.5065 18.6402 34.3314 18.4197 34.1107C18.1992 33.89 18.0242 33.628 17.9049 33.3398C17.7857 33.0515 17.7243 32.7425 17.7244 32.4305C17.7245 32.1185 17.7861 31.8096 17.9056 31.5214C18.025 31.2332 18.2001 30.9713 18.4208 30.7508C18.6415 30.5303 18.9035 30.3554 19.1918 30.2361C19.48 30.1168 19.789 30.0554 20.101 30.0555C20.7311 30.0557 21.3353 30.3062 21.7807 30.7519C22.2261 31.1976 22.4762 31.802 22.476 32.4321C22.4758 33.0622 22.2253 33.6664 21.7796 34.1118C21.3339 34.5572 20.7295 34.8073 20.0994 34.8071ZM40.6827 34.8071C40.3707 34.807 40.0618 34.7454 39.7736 34.626C39.4854 34.5065 39.2236 34.3314 39.003 34.1107C38.7825 33.89 38.6076 33.628 38.4883 33.3398C38.369 33.0515 38.3076 32.7425 38.3077 32.4305C38.3078 32.1185 38.3694 31.8096 38.4889 31.5214C38.6084 31.2332 38.7835 30.9713 39.0042 30.7508C39.2248 30.5303 39.4868 30.3554 39.7751 30.2361C40.0634 30.1168 40.3723 30.0554 40.6843 30.0555C41.3144 30.0557 41.9186 30.3062 42.364 30.7519C42.8094 31.1976 43.0595 31.802 43.0593 32.4321C43.0591 33.0622 42.8086 33.6664 42.3629 34.1118C41.9172 34.5572 41.3128 34.8073 40.6827 34.8071Z" fill="#2C2A3F"/>
</svg>
