<svg width="290" height="62" viewBox="0 0 290 62" fill="none" xmlns="http://www.w3.org/2000/svg">
<path d="M31.3799 23.2008C31.3799 25.2302 29.7569 26.8754 27.7546 26.8754C25.7521 26.8754 24.1289 25.2302 24.1289 23.2008C24.1289 21.1714 25.7521 19.5262 27.7546 19.5262C29.7569 19.5262 31.3799 21.1714 31.3799 23.2008Z" fill="#E11E3E"/>
<path d="M15.2201 23.3368L20.2885 30.5479L6.40039 52.4616L28.9485 29.9069L15.2201 23.3368Z" fill="#E11E3E"/>
<path d="M24.9193 36.3165L21.0881 40.0023L23.5225 44.1285L14.9023 47.8543L29.2295 46.1317L24.9193 36.3165Z" fill="#E11E3E"/>
<path fill-rule="evenodd" clip-rule="evenodd" d="M0.724673 33.2143C0.724673 29.8764 1.42739 26.8899 2.65714 24.0791L1.07603 23.3763C-0.153718 27.417 -0.329397 31.8089 0.548995 35.8495H0.900353C0.724673 34.9711 0.724673 34.0927 0.724673 33.2143Z" fill="#E11E3E"/>
<path fill-rule="evenodd" clip-rule="evenodd" d="M1.60352 21.6195L3.53599 22.3222C5.46844 18.9843 8.10361 16.3492 11.2658 14.4167L8.80633 10.9031C5.64412 13.8897 3.18463 17.4032 1.60352 21.6195Z" fill="#E11E3E"/>
<path fill-rule="evenodd" clip-rule="evenodd" d="M10.3867 9.6733L13.0219 13.5382C16.0084 11.9571 19.1706 11.2544 22.8599 11.2544V4.7543C18.1166 5.28134 13.9003 7.03812 10.3867 9.6733Z" fill="#E11E3E"/>
<path d="M34.0648 14.4158L38.6325 7.74003C34.4161 5.4562 29.6728 4.22645 24.7539 4.57781V11.2536C28.7736 11.7408 30.7896 12.4764 34.0648 14.4158Z" fill="#E11E3E"/>
<path d="M35.3945 15.584L39.9622 8.90823C44.1785 11.7191 47.5165 15.584 49.4489 20.3273L41.8947 23.1382C40.3136 20.1517 38.0297 17.5165 35.3945 15.584Z" fill="#E11E3E"/>
<path d="M42.7734 24.894L50.152 22.0831C51.7331 26.4751 51.9088 31.3941 51.0304 35.9617H44.3546C44.7059 32.0968 44.1789 28.2319 42.7734 24.894Z" fill="#E11E3E"/>
<path d="M135.723 10.6475H142.942L150.964 36.3167H143.744L135.723 10.6475Z" fill="#E11E3E"/>
<path d="M179.841 10.6475H172.621L164.6 36.3167H171.819L179.841 10.6475Z" fill="#E11E3E"/>
<path d="M161.392 10.6475H154.172L143.744 36.3167H150.964L161.392 10.6475Z" fill="#E11E3E"/>
<path d="M154.17 10.6475H161.389L171.817 36.3167H164.598L154.17 10.6475Z" fill="#E11E3E"/>
<path d="M81.793 10.6475H89.0125L75.3757 36.3167H68.1562L81.793 10.6475Z" fill="#2C2A3F"/>
<path d="M81.791 10.6475H89.0105L102.647 36.3167H95.4278L81.791 10.6475Z" fill="#2C2A3F"/>
<path d="M94.627 31.1868V25.5717H76.9793V31.1868H94.627Z" fill="#2C2A3F"/>
<path d="M122.781 16.2627V10.6475L96.3099 10.6475V16.2627H122.781Z" fill="#2C2A3F"/>
<path d="M264.13 10.6475H256.91V36.3167H264.13V10.6475Z" fill="#E11E3E"/>
<path d="M279.676 10.6475H287.392L264.129 32.306L257.711 31.009L279.676 10.6475Z" fill="#E11E3E"/>
<path d="M227.221 10.6475H220.002V36.3167H227.221V10.6475Z" fill="#E11E3E"/>
<path d="M113.157 10.6475H105.938V36.3167H113.157V10.6475Z" fill="#2C2A3F"/>
<path d="M231.111 26.5947H240.85L252.868 36.2207H243.129L231.111 26.5947Z" fill="#E11E3E"/>
<path d="M266.033 25.005L272.479 21.76L289.333 36.2208H279.642L266.033 25.005Z" fill="#E11E3E"/>
<path fill-rule="evenodd" clip-rule="evenodd" d="M184.645 10.6475C183.341 10.6475 182.283 11.705 182.283 13.0096V33.9546C182.283 35.2591 183.341 36.3167 184.645 36.3167H212.795C214.1 36.3167 215.157 35.2591 215.157 33.9546V13.0096C215.157 11.7051 214.1 10.6475 212.795 10.6475H184.645ZM191.769 16.2692C190.179 16.2692 189.487 17.0065 189.487 18.8712V28.4328C189.487 30.0513 190.132 30.708 191.769 30.708H205.555C207.351 30.708 207.951 30.0513 207.951 28.4328V18.5962C207.951 17.0065 207.351 16.2692 205.555 16.2692H191.769Z" fill="#E11E3E"/>
<path fill-rule="evenodd" clip-rule="evenodd" d="M224.997 10.6475C223.692 10.6475 222.635 11.7051 222.635 13.0096V25.9331C222.635 27.2376 223.692 28.2951 224.997 28.2951H247.561C248.865 28.2951 249.923 27.2376 249.923 25.9331V13.0096C249.923 11.7051 248.865 10.6475 247.561 10.6475H224.997ZM228.126 15.4665C227.754 15.4665 227.451 15.7686 227.451 16.1414V21.9951C227.451 22.3678 227.754 22.67 228.126 22.67H241.259C242.367 22.67 243.524 21.9951 243.524 20.4054V17.7311C243.524 16.1414 242.367 15.4665 241.259 15.4665H228.126Z" fill="#E11E3E"/>
<path d="M123.637 22.3587V27.9739H135.687V22.3587L123.637 22.3587Z" fill="#2C2A3F"/>
</svg>
