<svg width="136" height="170" viewBox="0 0 136 170" fill="none" xmlns="http://www.w3.org/2000/svg">
<circle r="67.6482" transform="matrix(-1 0 0 1 68 101.999)" fill="#4A80AA"/>
<mask id="mask0" mask-type="alpha" maskUnits="userSpaceOnUse" x="0" y="34" width="136" height="136">
<circle r="67.6482" transform="matrix(-1 0 0 1 68 101.999)" fill="#4A80AA"/>
</mask>
<g mask="url(#mask0)">
<path d="M4.36122 125.696H130.731V238.797H14.082C8.71336 238.796 4.36122 234.086 4.36122 228.275V125.696Z" fill="#E6F8FF"/>
</g>
<path d="M37.1905 85.4316C37.1905 85.4316 33.215 76.1421 28.442 76.1421C25.2694 76.1421 37.9512 66.2952 48.6015 79.3005C48.6015 79.3005 40.804 82.0874 37.1905 85.4316Z" fill="#FF989F"/>
<path d="M50.5246 145.148C49.8796 147.239 47.9474 148.665 45.7598 148.665H43.0517C40.5301 148.665 38.4053 146.782 38.1015 144.279L36.5107 131.17C36.1502 128.2 38.4687 125.583 41.4609 125.583H49.8052C53.1619 125.583 55.5598 128.832 54.57 132.04L50.5246 145.148Z" fill="#FF989F"/>
<path d="M84.3985 143.5C85.0436 145.59 86.9758 147.016 89.1633 147.016H91.8715C94.3931 147.016 96.5179 145.133 96.8216 142.63L98.4125 129.521C98.773 126.551 96.4545 123.934 93.4623 123.934H85.1179C81.7612 123.934 79.3633 127.183 80.3531 130.391L84.3985 143.5Z" fill="#FF989F"/>
<path d="M22.476 98.3103H27.8012C32.9361 84.0044 48.9116 73.4143 68.1201 73.4143C91.3225 73.4143 109.961 88.8349 109.961 107.971C109.961 127.108 91.1323 142.528 68.1201 142.528C49.1017 142.528 35.4951 137.099 30.3601 122.794L22.476 117.633C19.4331 117.633 16.7705 115.403 16.7705 112.616V103.698C16.9607 100.726 19.4331 98.3103 22.476 98.3103Z" fill="#FF989F"/>
<path d="M68.6907 73.4143C91.5127 73.7859 109.961 89.0207 109.961 107.971C109.961 126.922 91.5127 142.157 68.6907 142.528V73.4143Z" fill="#FF989F"/>
<path d="M55.072 85.4316C55.3449 85.4316 55.6178 85.4316 56.1635 85.165C70.3534 79.0337 82.3603 84.8985 82.3603 85.165C83.4518 85.6982 85.0891 85.4316 85.6349 84.0987C86.1806 83.0324 85.9078 81.4329 84.5433 80.8998C84.2705 80.8998 80.9959 79.0337 75.5382 78.234C70.6263 77.4342 62.7127 77.1677 54.2534 80.8998C53.1618 81.4329 52.3432 82.7658 52.8889 84.0987C53.1618 84.8985 53.9805 85.4316 55.072 85.4316Z" fill="#4A80AA"/>
<path d="M47.9397 95.2007C46.7479 98.1303 43.5069 99.5417 40.5502 98.4187" stroke="#4A80AA" stroke-width="2.72916" stroke-miterlimit="10" stroke-linecap="round" stroke-linejoin="round"/>
<path d="M20.3253 103.895V107.425" stroke="#4A80AA" stroke-width="2.72916" stroke-miterlimit="10" stroke-linecap="round" stroke-linejoin="round"/>
<path d="M106.082 102.936C106.082 102.936 118.279 97.133 115.453 90.5862C113.314 87.8127 110.54 89.9632 111.415 92.3857C112.856 96.3747 113.858 95.8057 115.453 96.3747C118.599 97.4968 122.317 92.0176 122.317 92.0176" stroke="#FF989F" stroke-width="2.72916" stroke-miterlimit="10" stroke-linecap="round"/>
<path d="M75.4697 11.8248C84.943 13.7597 90.0937 25.4903 86.9742 38.0258C83.8547 50.5612 73.6462 59.1547 64.173 57.2198C54.6997 55.2849 49.549 43.5543 52.6685 31.0189C55.788 18.4834 65.9964 9.88994 75.4697 11.8248Z" fill="#F8BA5D"/>
<path d="M83.4319 37.3021C84.9676 31.1309 84.4622 25.1768 82.4278 20.5435C80.3934 15.9102 76.8476 12.6264 72.304 11.6984C67.7604 10.7703 63.0023 12.3581 58.9702 15.7523C54.9381 19.1466 51.6615 24.3282 50.1258 30.4994C48.5901 36.6706 49.0954 42.6247 51.1299 47.258C53.1643 51.8913 56.71 55.1751 61.2536 56.1031C65.7973 57.0312 70.5553 55.4434 74.5874 52.0492C78.6196 48.6549 81.8961 43.4733 83.4319 37.3021Z" fill="#FFE189" stroke="#F8BA5D" stroke-width="1.02027"/>
<path d="M86.8877 48.5993C86.8877 48.5993 79.5283 48.2945 79.0845 47.9423C78.6407 47.5901 76.6801 40.4984 76.6801 40.4984C76.6801 40.4984 76.3801 47.9739 76.0333 48.4247C75.6866 48.8755 68.7051 50.8671 68.7051 50.8671C68.7051 50.8671 75.9535 51.0839 76.3852 51.3357C76.829 51.6879 78.9127 58.968 78.9127 58.968C78.9127 58.968 79.2128 51.4925 79.5595 51.0417C79.8074 50.6032 86.8877 48.5993 86.8877 48.5993Z" fill="#F6F6F5"/>
</svg>
