<svg width="965" height="705" viewBox="0 0 965 705" fill="none" xmlns="http://www.w3.org/2000/svg">
<path d="M180.815 258.215C204.237 355.87 103.37 428.691 148.643 516.831C197.526 611.997 251 618.678 394.662 601.582C465.779 584.429 523.184 586.641 593.96 597.822C875.426 617.624 873.658 585.304 915.408 443.787C992.969 180.883 825.738 231.265 713.505 164.511C534.404 57.985 126.755 32.8275 180.815 258.215Z" fill="#BBDEED"/>
<circle cx="707.752" cy="160.603" r="56.5" transform="rotate(4.56374 707.752 160.603)" fill="#FFE2B8"/>
<g filter="url(#filter0_f)">
<path fill-rule="evenodd" clip-rule="evenodd" d="M740.635 207.369C720.642 225.335 678.136 217.427 662.283 196.098C643.719 177.182 649.186 145.5 658.5 135.5C672.768 120.182 725.764 143.902 744 163C762.236 182.098 767.484 178.914 740.635 207.369Z" fill="#FFE2B8"/>
</g>
<mask id="mask0" mask-type="alpha" maskUnits="userSpaceOnUse" x="136" y="85" width="800" height="524">
<path d="M180.815 258.215C204.237 355.87 103.37 428.691 148.643 516.831C197.526 611.997 251 618.678 394.662 601.582C465.779 584.429 523.184 586.641 593.96 597.822C875.426 617.624 873.658 585.304 915.408 443.787C992.969 180.883 825.738 231.265 713.505 164.511C534.404 57.985 126.755 32.8275 180.815 258.215Z" fill="#E6F8FF"/>
</mask>
<g mask="url(#mask0)">
<path d="M342.117 339.055L674.888 185.18L295.563 430.996L342.117 339.055Z" fill="url(#paint0_linear)"/>
<path d="M187 249L648 185L117.915 307.81L187 249Z" fill="url(#paint1_linear)"/>
<path d="M838.771 396.474L720.38 195.218L906.43 401.614L838.771 396.474Z" fill="url(#paint2_linear)"/>
<path d="M500.667 369.347L670.4 204.74L505.663 437.121L500.667 369.347Z" fill="url(#paint3_linear)"/>
<path fill-rule="evenodd" clip-rule="evenodd" d="M145.006 251.341L419.452 251.752C438.076 251.752 565.434 245.593 520 255.653C494.213 261.401 339.022 271.255 308.323 272.282C269.438 273.514 886.276 274.335 586.248 292.607C493.947 298.15 674.66 303.077 688.167 302.872C892.62 300.203 1005.8 303.693 1065.96 302.872V267.56C1060.03 267.355 1053.69 267.355 1046.93 267.355C1040.38 267.355 967.115 267.355 976.12 264.481C980.009 263.249 1042.02 258.322 1020.74 255.653C987.581 251.547 923.406 262.017 888 262.017C808.506 262.017 802.775 246.004 748.746 246.004C744.448 246.004 632.658 245.798 634.5 244.361C640.844 239.639 794.589 240.255 808.506 241.282C892.415 247.441 980.827 242.308 1065.76 239.845L965 222.5L119.076 244.361L145.006 251.341ZM157.5 149.5L382.599 136.095C427.269 134.438 208.182 154.951 402.145 154.951C554.928 156.369 752.481 168.034 725.21 169.016C694.512 170.043 603.287 166.752 577.5 172.5C532.066 182.56 621.876 182.5 640.5 182.5L1065.96 204.533L145.006 216.646C157.394 205.134 267.392 208.247 267.392 208.247C267.392 208.247 2897.8 191.394 429.451 191.394C394.045 191.394 142.268 202.639 109.113 198.327C87.829 195.659 378.711 189.341 382.599 188.109C445.562 179.507 203.334 179.507 196.58 179.507C176.524 179.713 287.892 170 267.392 162C246.892 154 157.5 149.5 157.5 149.5Z" fill="#E6F8FF"/>
<path fill-rule="evenodd" clip-rule="evenodd" d="M915.668 402.896C915.668 402.423 915.285 402.039 914.812 402.039V402.039C914.585 402.039 914.371 401.943 914.187 401.81C914.066 401.723 913.938 401.647 913.807 401.583C913.268 401.318 912.762 400.826 912.762 400.225V400.225C912.762 399.623 913.249 399.136 913.85 399.136H914.094C914.83 399.136 915.426 398.539 915.426 397.804V392.484C915.426 391.748 914.83 391.152 914.094 391.152V391.152C913.358 391.152 912.762 390.555 912.762 389.819V389.7C912.762 388.898 913.412 388.248 914.214 388.248V388.248C915.017 388.248 915.668 387.597 915.668 386.795V385.588C915.668 384.786 915.017 384.135 914.214 384.135V384.135C913.412 384.135 912.762 383.485 912.762 382.683V382.564C912.762 381.828 913.358 381.232 914.094 381.232V381.232C914.83 381.232 915.426 380.635 915.426 379.899V374.579C915.426 373.844 914.83 373.247 914.094 373.247V373.247C913.358 373.247 912.762 372.651 912.762 371.915V371.795C912.762 370.994 913.412 370.344 914.214 370.344V370.344C915.017 370.344 915.668 369.693 915.668 368.89V367.684C915.668 366.881 915.017 366.231 914.214 366.231V366.231C913.412 366.231 912.762 365.581 912.762 364.779V364.659C912.762 363.924 913.358 363.327 914.094 363.327V363.327C914.83 363.327 915.426 362.731 915.426 361.995V356.675C915.426 355.939 914.83 355.343 914.094 355.343V355.343C913.358 355.343 912.762 354.746 912.762 354.011V353.891C912.762 353.089 913.412 352.439 914.214 352.439V352.439C915.017 352.439 915.668 351.789 915.668 350.986V349.78C915.668 348.977 915.017 348.326 914.214 348.326V348.326C913.412 348.326 912.762 347.676 912.762 346.875V346.755C912.762 346.019 913.358 345.423 914.094 345.423V345.423C914.83 345.423 915.426 344.826 915.426 344.091V338.771C915.426 338.035 914.83 337.439 914.094 337.439V337.439C913.358 337.439 912.762 336.842 912.762 336.106V335.987C912.762 335.185 913.412 334.535 914.214 334.535V334.535C915.017 334.535 915.668 333.884 915.668 333.082V332.117C915.668 331.315 915.017 330.664 914.214 330.664V330.664C913.412 330.664 912.762 330.014 912.762 329.212V329.093C912.762 328.357 913.358 327.761 914.094 327.761V327.761C914.83 327.761 915.426 327.164 915.426 326.428V321.108C915.426 320.373 914.83 319.776 914.094 319.776V319.776C913.358 319.776 912.762 319.18 912.762 318.444V318.324C912.762 317.523 913.412 316.873 914.214 316.873V316.873C915.017 316.873 915.668 316.222 915.668 315.419V314.213C915.668 313.41 915.018 312.76 914.215 312.76V312.76C913.412 312.76 912.762 312.109 912.762 311.306V307.316C912.762 304.309 910.324 301.872 907.318 301.872H906.827C903.55 301.872 900.893 299.215 900.893 295.937V291.836C900.893 289.495 898.995 287.597 896.654 287.597V287.597C894.313 287.597 892.415 285.699 892.415 283.358V275.934C892.415 272.621 889.729 269.934 886.415 269.934H881.999H880.788H876.373C873.059 269.934 870.373 272.621 870.373 275.934V283.358C870.373 285.699 868.475 287.597 866.134 287.597V287.597C863.793 287.597 861.895 289.495 861.895 291.836V295.937C861.895 299.215 859.238 301.872 855.96 301.872V301.872C852.683 301.872 850.026 304.529 850.026 307.806V314.119C850.026 317.393 847.397 320.054 844.126 320.179C832.957 320.608 825.319 321.644 825.319 322.68V327.277V327.035V327.035V330.422V330.664V330.664V336.471C825.319 336.471 825.319 336.471 825.319 336.471C825.319 336.471 825.319 336.471 825.319 336.229V339.374V339.616V339.616V345.423C825.319 345.423 825.319 345.423 825.319 345.423C825.319 345.423 825.319 345.423 825.319 345.181V348.326V348.568V348.568V354.375C825.319 354.375 825.319 354.375 825.319 354.375C825.319 354.375 825.319 354.375 825.319 354.133V357.278V357.52V357.52V363.327C825.319 363.327 825.319 363.327 825.319 363.327C825.319 363.327 825.319 363.327 825.319 363.085V366.231V371.554V374.699V374.941V374.941V380.748V380.506V380.506V383.651V383.893V383.893V389.7V392.845V393.087V393.087V393.203C825.319 395.678 823.313 397.684 820.838 397.684V397.684C818.363 397.684 816.357 395.678 816.357 393.203V306.178C816.357 302.864 813.615 300.178 810.302 300.178V300.178C806.988 300.178 804.246 297.492 804.246 294.178V256.996C804.246 253.986 801.806 251.546 798.796 251.546V251.546C795.786 251.546 793.346 249.106 793.346 246.096V239.642C793.346 236.328 790.66 233.642 787.346 233.642H781.664C778.35 233.642 775.664 236.328 775.664 239.642V246.096C775.664 249.106 773.224 251.546 770.214 251.546V251.546C767.204 251.546 764.764 253.986 764.764 256.996V294.244C764.764 297.521 762.107 300.178 758.829 300.178H754.105C753.437 300.178 752.895 300.72 752.895 301.388V301.388C752.895 302.056 752.353 302.598 751.685 302.598H751.198C750.396 302.598 749.746 303.248 749.746 304.049V304.049C749.746 304.851 750.396 305.501 751.198 305.501H751.32C752.19 305.501 752.895 306.206 752.895 307.076V308.282C752.895 309.151 752.19 309.856 751.32 309.856H751.198C750.396 309.856 749.746 310.506 749.746 311.308V311.308C749.746 312.11 750.396 312.76 751.198 312.76H751.32C752.19 312.76 752.895 313.464 752.895 314.334V315.54C752.895 316.41 752.19 317.115 751.32 317.115H751.198C750.396 317.115 749.746 317.765 749.746 318.566V318.566C749.746 319.368 750.396 320.018 751.198 320.018H751.32C752.19 320.018 752.895 320.723 752.895 321.593V322.799C752.895 323.668 752.19 324.373 751.32 324.373V324.373C750.451 324.373 749.746 325.078 749.746 325.948V326.428C749.746 327.298 750.451 328.002 751.32 328.002V328.002C752.19 328.002 752.895 328.707 752.895 329.577V330.783C752.895 331.653 752.19 332.358 751.32 332.358H751.198C750.396 332.358 749.746 333.008 749.746 333.809V333.809C749.746 334.611 750.396 335.261 751.198 335.261H751.32C752.19 335.261 752.895 335.966 752.895 336.835V338.042C752.895 338.911 752.19 339.616 751.32 339.616H751.198C750.396 339.616 749.746 340.266 749.746 341.068V341.068C749.746 341.87 750.396 342.519 751.198 342.519H751.32C752.19 342.519 752.895 343.224 752.895 344.094V345.784C752.895 346.654 752.19 347.358 751.32 347.358H751.198C750.396 347.358 749.746 348.008 749.746 348.81V348.81C749.746 349.612 750.396 350.262 751.198 350.262H751.32C752.19 350.262 752.895 350.967 752.895 351.836V353.043C752.895 353.912 752.19 354.617 751.32 354.617H751.198C750.396 354.617 749.746 355.267 749.746 356.069V356.069C749.746 356.87 750.396 357.52 751.198 357.52H751.32C752.19 357.52 752.895 358.225 752.895 359.095V360.301C752.895 361.171 752.19 361.876 751.32 361.876H751.198C750.396 361.876 749.746 362.525 749.746 363.327V363.327C749.746 364.129 750.396 364.779 751.198 364.779H751.32C752.19 364.779 752.895 365.484 752.895 366.353V367.56C752.895 368.429 752.19 369.134 751.32 369.134H751.198C750.396 369.134 749.746 369.784 749.746 370.586V370.586C749.746 371.387 750.396 372.037 751.198 372.037H751.32C752.19 372.037 752.895 372.742 752.895 373.612V374.818C752.895 375.688 752.19 376.393 751.32 376.393H751.198C750.396 376.393 749.746 377.042 749.746 377.844V377.844C749.746 378.646 750.396 379.296 751.198 379.296H751.32C752.19 379.296 752.895 380.001 752.895 380.87V382.077C752.895 382.946 752.19 383.651 751.32 383.651H751.198C750.396 383.651 749.746 384.301 749.746 385.103V385.103C749.746 385.904 750.396 386.554 751.198 386.554H752.048C752.516 386.554 752.895 386.934 752.895 387.401V387.401C752.895 387.869 752.516 388.248 752.048 388.248H747.566C744.623 388.248 742.237 390.634 742.237 393.577V441.284C742.237 444.598 744.923 447.284 748.237 447.284H909.668C912.982 447.284 915.668 444.598 915.668 441.284V402.896Z" fill="#E7EEF6"/>
<path fill-rule="evenodd" clip-rule="evenodd" d="M915.668 305.747C915.668 303.874 914.15 302.356 912.277 302.356V302.356C910.404 302.356 908.886 300.837 908.886 298.965V292.32C908.886 289.978 906.988 288.081 904.647 288.081V288.081C902.306 288.081 900.408 286.183 900.408 283.842V276.418C900.408 273.105 897.722 270.418 894.408 270.418H889.75H888.539H883.882C880.568 270.418 877.882 273.105 877.882 276.418V283.963C877.882 286.237 876.038 288.081 873.764 288.081V288.081C871.49 288.081 869.646 289.924 869.646 292.198V296.421C869.646 299.699 866.989 302.356 863.712 302.356V302.356C860.434 302.356 857.777 305.013 857.777 308.29V314.603C857.777 317.877 855.149 320.538 851.877 320.663C840.708 321.092 833.07 322.128 833.07 323.163V327.761V327.519V327.519V330.664C833.07 330.664 833.07 330.664 833.07 330.664C833.07 330.664 833.07 330.664 833.07 330.906V336.713C833.07 336.713 833.07 336.713 833.07 336.713C833.07 336.713 833.07 336.713 833.07 336.471V339.616C833.07 339.616 833.07 339.616 833.07 339.616C833.07 339.616 833.07 339.616 833.07 339.858V345.665V345.423V345.423V348.568V348.81V348.81V354.617C833.07 354.617 833.07 354.617 833.07 354.617C833.07 354.617 833.07 354.617 833.07 354.375V357.52C833.07 357.52 833.07 357.52 833.07 357.52C833.07 357.52 833.07 357.52 833.07 357.762V363.569C833.07 363.569 833.07 363.569 833.07 363.569C833.07 363.569 833.07 363.569 833.07 363.327V366.473V371.554V374.699V374.941V374.941V380.748V380.506V380.506V383.651V383.893V383.893V389.7V392.845V393.087V393.087V393.087C833.07 395.626 831.01 397.684 828.471 397.684V397.684C825.929 397.684 823.866 395.624 823.866 393.082V306.178C823.866 302.864 821.124 300.178 817.81 300.178V300.178C814.497 300.178 811.755 297.492 811.755 294.178V257.117C811.755 254.04 809.261 251.546 806.184 251.546V251.546C803.107 251.546 800.613 249.052 800.613 245.975V239.642C800.613 236.328 797.926 233.642 794.613 233.642H788.688C785.375 233.642 782.688 236.328 782.688 239.642V245.975C782.688 249.052 780.194 251.546 777.117 251.546V251.546C774.04 251.546 771.546 254.04 771.546 257.117V294.178C771.546 297.492 768.86 300.178 765.546 300.178H760.645C759.976 300.178 759.435 300.72 759.435 301.388V301.388C759.435 302.056 758.893 302.598 758.225 302.598H757.738C756.936 302.598 756.286 303.248 756.286 304.049V304.049C756.286 304.851 756.936 305.501 757.738 305.501H757.86C758.73 305.501 759.435 306.206 759.435 307.076V308.282C759.435 309.151 758.73 309.856 757.86 309.856H757.738C756.936 309.856 756.286 310.506 756.286 311.308V311.308C756.286 312.11 756.936 312.76 757.738 312.76H757.86C758.73 312.76 759.435 313.464 759.435 314.334V315.54C759.435 316.41 758.73 317.115 757.86 317.115H757.738C756.936 317.115 756.286 317.765 756.286 318.566V318.566C756.286 319.368 756.936 320.018 757.738 320.018H757.86C758.73 320.018 759.435 320.723 759.435 321.593V322.799C759.435 323.668 758.73 324.373 757.86 324.373V324.373C756.991 324.373 756.286 325.078 756.286 325.948V326.428C756.286 327.298 756.991 328.002 757.86 328.002V328.002C758.73 328.002 759.435 328.707 759.435 329.577V330.783C759.435 331.653 758.73 332.358 757.86 332.358H757.738C756.936 332.358 756.286 333.008 756.286 333.809V333.809C756.286 334.611 756.936 335.261 757.738 335.261H757.86C758.73 335.261 759.435 335.966 759.435 336.835V338.042C759.435 338.911 758.73 339.616 757.86 339.616H757.738C756.936 339.616 756.286 340.266 756.286 341.068V341.068C756.286 341.87 756.936 342.519 757.738 342.519H757.86C758.73 342.519 759.435 343.224 759.435 344.094V345.784C759.435 346.654 758.73 347.358 757.86 347.358H757.738C756.936 347.358 756.286 348.008 756.286 348.81V348.81C756.286 349.612 756.936 350.262 757.738 350.262H757.86C758.73 350.262 759.435 350.967 759.435 351.836V353.043C759.435 353.912 758.73 354.617 757.86 354.617H757.738C756.936 354.617 756.286 355.267 756.286 356.069V356.069C756.286 356.87 756.936 357.52 757.738 357.52H757.86C758.73 357.52 759.435 358.225 759.435 359.095V360.301C759.435 361.171 758.73 361.876 757.86 361.876H757.738C756.936 361.876 756.286 362.525 756.286 363.327V363.327C756.286 364.129 756.936 364.779 757.738 364.779H757.86C758.73 364.779 759.435 365.484 759.435 366.353V367.56C759.435 368.429 758.73 369.134 757.86 369.134H757.738C756.936 369.134 756.286 369.784 756.286 370.586V370.586C756.286 371.387 756.936 372.037 757.738 372.037H757.86C758.73 372.037 759.435 372.742 759.435 373.612V374.818C759.435 375.688 758.73 376.393 757.86 376.393H757.738C756.936 376.393 756.286 377.042 756.286 377.844V377.844C756.286 378.646 756.936 379.296 757.738 379.296H757.86C758.73 379.296 759.435 380.001 759.435 380.87V382.077C759.435 382.946 758.73 383.651 757.86 383.651H757.738C756.936 383.651 756.286 384.301 756.286 385.103V385.103C756.286 385.904 756.936 386.554 757.738 386.554H758.588C759.056 386.554 759.435 386.934 759.435 387.401V387.401C759.435 387.869 759.056 388.248 758.588 388.248H754.106C751.163 388.248 748.777 390.634 748.777 393.577V441.284C748.777 444.598 751.463 447.284 754.777 447.284H909.668C912.982 447.284 915.668 444.598 915.668 441.284V305.747Z" fill="#D8DEEB"/>
<path fill-rule="evenodd" clip-rule="evenodd" d="M792.862 410.507C790.924 410.507 789.47 409.056 789.47 407.12V404.459V404.459C789.47 404.145 789.58 403.843 789.764 403.59C790.583 402.463 791.166 401.162 791.166 399.862C791.166 396.474 788.502 387.764 785.111 387.764C781.719 387.764 779.055 396.474 779.055 399.862V399.862C779.055 400.544 778.493 401.313 777.81 401.313H774.805C773.273 401.313 772.031 400.071 772.031 398.538V317.844C772.031 316.238 770.729 314.937 769.124 314.937V314.937C767.519 314.937 766.217 313.636 766.217 312.03V309.86C766.217 308.12 764.807 306.711 763.068 306.711H762.339C761.003 306.711 759.919 305.627 759.919 304.291V304.291V301.269C759.919 300.265 759.106 299.452 758.103 299.452V299.452C757.099 299.452 756.286 298.639 756.286 297.635V295.46C756.286 293.255 754.499 291.468 752.294 291.468H748.652C746.447 291.468 744.659 293.255 744.659 295.46V297.635C744.659 298.639 743.846 299.452 742.843 299.452V299.452C741.839 299.452 741.026 300.265 741.026 301.269V303.804C741.026 305.543 739.616 306.953 737.877 306.953V306.953C736.138 306.953 734.728 308.362 734.728 310.101V313.001V313.001C734.728 314.204 733.753 315.179 732.551 315.179H731.458C729.652 315.179 728.188 316.643 728.188 318.449V330.543C728.188 339.028 721.31 345.907 712.824 345.907H689.657C681.105 345.907 674.173 338.974 674.173 330.422V318.328C674.173 316.455 672.654 314.937 670.782 314.937V314.937C668.909 314.937 667.39 313.419 667.39 311.546V308.043C667.39 307.307 666.794 306.711 666.058 306.711V306.711C665.322 306.711 664.726 306.114 664.726 305.378V305.017V305.017C664.726 303.681 663.643 302.597 662.307 302.597H656.488C655.152 302.597 654.068 303.681 654.068 305.017V305.017V305.017C654.068 305.952 653.31 306.711 652.375 306.711H650.191C649.255 306.711 648.497 305.952 648.497 305.017V305.017V305.017C648.497 303.681 647.414 302.597 646.078 302.597H640.38C639.245 302.597 638.324 303.518 638.324 304.654V305.378C638.324 306.114 637.727 306.711 636.992 306.711V306.711C636.256 306.711 635.659 307.307 635.659 308.043V313.001V313.001C635.659 314.07 634.793 314.937 633.724 314.937H633.479C632.275 314.937 631.299 315.913 631.299 317.117V414.347C631.299 423.184 638.463 430.347 647.299 430.347H791.166C793.831 430.347 796.253 428.17 796.253 425.266V420.427V420.185V413.653C796.253 411.959 794.799 410.507 792.862 410.507Z" fill="#E7EEF6"/>
<path fill-rule="evenodd" clip-rule="evenodd" d="M800.562 410.507C798.624 410.507 797.171 409.056 797.171 407.12V404.459V404.459C797.171 404.145 797.281 403.843 797.465 403.59C798.283 402.463 798.867 401.162 798.867 399.862C798.867 396.474 796.202 387.764 792.811 387.764C789.42 387.764 786.756 396.474 786.756 399.862V399.862C786.756 400.544 786.194 401.313 785.511 401.313H782.506C780.973 401.313 779.731 400.071 779.731 398.538V317.844C779.731 316.238 778.43 314.937 776.824 314.937V314.937C775.219 314.937 773.918 313.636 773.918 312.03V309.86C773.918 308.12 772.508 306.711 770.769 306.711H770.04C768.703 306.711 767.62 305.627 767.62 304.291V304.291V301.269C767.62 300.265 766.807 299.452 765.803 299.452V299.452C764.8 299.452 763.987 298.639 763.987 297.635V295.46C763.987 293.255 762.199 291.468 759.995 291.468H756.352C754.147 291.468 752.36 293.255 752.36 295.46V297.635C752.36 298.639 751.547 299.452 750.543 299.452V299.452C749.54 299.452 748.727 300.265 748.727 301.269V303.804C748.727 305.543 747.317 306.953 745.578 306.953V306.953C743.839 306.953 742.429 308.362 742.429 310.101V313.001V313.001C742.429 314.204 741.454 315.179 740.251 315.179H739.159C737.353 315.179 735.889 316.643 735.889 318.449V330.543C735.889 339.028 729.01 345.907 720.525 345.907H697.358C688.806 345.907 681.873 338.974 681.873 330.422V318.328C681.873 316.455 680.355 314.937 678.482 314.937V314.937C676.609 314.937 675.091 313.419 675.091 311.546V308.043C675.091 307.307 674.495 306.711 673.759 306.711V306.711C673.023 306.711 672.427 306.114 672.427 305.378V305.017V305.017C672.427 303.681 671.343 302.597 670.007 302.597H664.188C662.852 302.597 661.769 303.681 661.769 305.017V305.017V305.017C661.769 305.952 661.011 306.711 660.075 306.711H657.891C656.956 306.711 656.198 305.952 656.198 305.017V305.017V305.017C656.198 303.681 655.115 302.597 653.778 302.597H648.081C646.945 302.597 646.024 303.518 646.024 304.654V305.378C646.024 306.114 645.428 306.711 644.692 306.711V306.711C643.956 306.711 643.36 307.307 643.36 308.043V313.001V313.001C643.36 314.07 642.493 314.937 641.424 314.937H641.18C639.976 314.937 639 315.913 639 317.117V414.347C639 423.184 646.163 430.347 655 430.347H798.867C801.531 430.347 803.953 428.17 803.953 425.266V420.427V420.185V413.653C803.953 411.959 802.5 410.507 800.562 410.507Z" fill="#D8DEEB"/>
<path fill-rule="evenodd" clip-rule="evenodd" d="M198.596 385.376C193.873 384.431 188.205 385.14 182.774 387.737C181.357 384.904 179.468 383.014 176.634 382.07C170.73 380.181 163.882 384.431 160.103 391.988C158.214 391.044 156.089 390.571 153.727 390.099C144.281 388.682 135.78 392.224 133.654 398.6C132.71 398.6 131.529 398.364 130.584 398.364C130.584 398.128 130.348 397.892 130.348 397.656C128.459 392.697 122.319 390.099 115.471 390.571C116.652 387.974 116.888 385.14 115.943 382.542C113.346 376.166 103.427 373.805 93.745 377.583C92.5643 378.055 91.6197 378.528 90.6751 379C86.8967 371.443 80.2845 366.012 72.4915 365.067V447.72C76.5061 448.9 80.9929 449.609 85.7159 449.609C94.2173 449.609 101.774 447.483 107.914 444.177C113.582 447.011 120.666 448.664 128.223 448.664C136.724 448.664 144.281 446.539 150.421 443.233C156.089 446.067 163.173 447.72 170.73 447.72C175.217 447.72 179.468 447.011 183.482 446.067C185.371 447.011 187.733 447.483 189.858 447.956V456.693C191.511 456.221 193.164 455.749 194.817 455.04C199.304 456.221 204.027 456.929 209.222 456.929C217.724 456.929 225.753 455.04 232.129 451.734C238.977 455.513 247.715 457.874 257.161 457.874C265.662 457.874 273.691 455.985 280.068 452.679C286.916 456.457 295.653 458.819 305.099 458.819C311.712 458.819 317.852 457.638 323.283 455.749C329.895 459.055 337.688 460.944 346.426 460.944C350.676 460.944 354.691 460.472 358.469 459.527C363.901 459.055 369.096 457.638 373.819 455.749C378.306 457.638 383.501 459.055 389.169 459.527C392.947 460.472 396.962 460.944 401.213 460.944C409.714 460.944 417.743 459.055 424.355 455.749C429.787 457.638 435.927 458.819 442.539 458.819C451.985 458.819 460.722 456.457 467.571 452.679C474.183 455.985 481.976 457.874 490.477 457.874C499.923 457.874 508.661 455.513 515.509 451.734C522.121 455.04 529.914 456.929 538.416 456.929C543.375 456.929 548.334 456.221 552.821 455.04C554.474 455.749 556.127 456.221 557.78 456.693V447.956C560.142 447.483 562.267 446.775 564.156 446.067C568.171 447.247 572.421 447.72 576.908 447.72C584.465 447.72 591.55 446.067 597.217 443.233C603.357 446.775 610.914 448.664 619.415 448.664C626.972 448.664 631.931 452.679 637.835 449.845C643.975 453.387 653.657 449.609 662.158 449.609C663.339 449.609 664.284 449.609 665.465 449.609C666.645 449.609 667.59 449.609 668.771 449.609C677.272 449.609 686.954 453.151 693.094 449.845C698.762 452.679 703.957 448.664 711.514 448.664C720.015 448.664 727.572 446.539 733.712 443.233C739.38 446.067 746.464 447.72 754.021 447.72C758.508 447.72 762.758 447.011 766.773 446.067C768.662 447.011 771.024 447.72 773.149 447.956V456.693C774.802 456.221 776.455 455.749 778.108 455.04C782.595 456.221 787.318 456.929 792.513 456.929C801.015 456.929 809.044 455.04 815.42 451.734C822.268 455.513 831.006 457.874 840.452 457.874C848.953 457.874 856.982 455.985 863.358 452.679C870.207 456.457 878.944 458.819 888.39 458.819C895.002 458.819 901.142 457.638 906.574 455.749C913.186 459.055 920.979 460.944 929.717 460.944C933.967 460.944 937.982 460.472 941.76 459.527C947.192 459.055 952.387 457.638 957.11 455.749C961.597 457.638 966.792 459.055 972.46 459.527C976.238 460.472 980.253 460.944 984.503 460.944C993.005 460.944 1001.03 459.055 1007.65 455.749C1013.08 457.638 1019.22 458.819 1025.83 458.819C1035.28 458.819 1044.01 456.457 1050.86 452.679C1057.47 455.985 1065.27 457.874 1073.77 457.874C1083.21 457.874 1091.95 455.513 1098.8 451.734C1105.41 455.04 1113.21 456.929 1121.71 456.929C1126.43 456.929 1131.15 456.221 1135.4 455.276V384.904C1134.46 384.904 1133.28 385.14 1132.33 385.376C1131.15 384.195 1129.74 383.251 1128.08 382.778C1121.47 380.653 1113.68 385.612 1109.43 394.114C1107.3 393.169 1104.94 392.46 1102.34 391.988C1091.72 390.335 1082.03 394.586 1079.67 401.434C1078.49 401.198 1077.31 401.198 1076.13 401.198C1076.13 400.962 1075.89 400.726 1075.89 400.253C1073.77 394.586 1066.92 391.752 1059.13 392.46C1060.31 389.391 1060.54 386.321 1059.6 383.487C1056.77 375.93 1045.43 373.332 1034.57 377.583C1033.39 378.055 1032.21 378.528 1031.02 379.236C1026.77 370.262 1019.22 364.122 1010.01 363.414C1007.41 363.178 1004.81 363.414 1002.21 364.122C1005.05 353.968 1002.21 344.05 995.13 341.452C988.754 339.091 981.197 343.105 976.474 350.898C973.64 349.245 970.571 348.3 967.264 348.064C963.722 347.828 960.416 348.3 957.11 349.481C941.76 343.577 903.268 333.895 912.005 363.886C909.408 363.178 906.81 362.942 904.212 363.178C895.003 363.886 887.209 370.262 883.195 379C882.014 378.291 880.833 377.819 879.653 377.347C868.79 373.096 857.691 375.694 854.621 383.251C853.44 386.084 853.676 389.154 855.093 392.224C847.3 391.516 840.452 394.586 838.326 400.017C838.326 400.253 838.09 400.49 838.09 400.962C836.91 400.962 835.729 401.198 834.548 401.198C832.187 394.114 822.504 390.099 811.878 391.752C809.28 392.224 806.919 392.933 804.793 393.877C800.542 385.376 792.749 380.417 786.137 382.542C784.484 383.014 783.067 383.959 781.887 385.14C777.164 384.195 771.496 384.904 766.065 387.501C764.648 384.668 762.758 382.778 759.925 381.834C754.021 379.945 745.047 373.568 741.269 381.125C733.24 377.583 720.724 374.513 720.724 388.918C716.945 385.376 713.639 388.918 713.639 391.044C711.75 384.668 709.152 384.668 703.249 385.14C709.625 370.026 691.677 358.927 678.217 371.679C672.077 358.455 663.575 365.303 657.435 378.528C656.491 378.055 655.31 377.583 654.365 377.111C644.683 373.332 634.765 375.694 632.167 382.306C631.223 384.904 631.459 387.501 632.64 390.335C625.791 389.863 619.651 392.46 617.762 397.42C617.762 397.656 617.526 397.892 617.526 398.128C616.581 398.128 615.401 398.128 614.456 398.364C612.331 392.224 603.829 388.446 594.383 389.863C592.022 390.335 589.896 390.807 588.007 391.752C584.229 384.195 577.381 379.708 571.477 381.834C568.879 382.778 566.754 384.668 565.337 387.501C559.905 384.904 554.238 384.195 549.515 385.14C548.334 383.959 546.917 383.014 545.264 382.542C538.652 380.417 530.859 385.376 526.608 393.877C524.483 392.933 522.121 392.224 519.524 391.752C508.897 390.099 499.215 394.35 496.853 401.198C495.673 400.962 494.492 400.962 493.311 400.962C493.311 400.726 493.075 400.49 493.075 400.017C490.95 394.35 484.101 391.516 476.308 392.224C477.489 389.154 477.725 386.084 476.781 383.251C473.947 375.694 462.612 373.096 451.749 377.347C450.568 377.819 449.387 378.291 448.206 379C443.956 370.026 436.399 363.886 427.189 363.178C424.591 362.942 421.994 363.178 419.396 363.886C428.134 333.659 389.641 343.577 374.291 349.481C370.985 348.3 367.679 347.828 364.137 348.064C360.831 348.3 357.761 349.245 354.927 350.898C350.204 343.105 342.647 339.091 336.271 341.452C329.187 344.05 326.353 353.968 329.187 364.122C326.589 363.414 323.991 363.178 321.394 363.414C312.184 364.122 304.627 370.499 300.376 379.236C299.196 378.528 298.015 378.055 296.834 377.583C285.971 373.332 274.872 375.93 271.802 383.487C270.622 386.321 270.858 389.391 272.275 392.46C264.482 391.752 257.633 394.822 255.508 400.253C255.508 400.49 255.272 400.726 255.272 401.198C254.091 401.198 252.91 401.434 251.729 401.434C249.368 394.35 239.686 390.335 229.059 391.988C226.461 392.46 224.1 393.169 221.975 394.114C217.724 385.612 209.931 380.653 203.319 382.778C201.43 383.251 200.013 384.195 198.596 385.376Z" fill="#AFDDAB"/>
<path d="M964 637L998 444C998 444 900 429 858 429C622.904 429 512.853 418.316 278 429C208.438 432.164 100 439.5 100 439.5V637H964Z" fill="#7CC076"/>
<path d="M1226 480H69.0001V645.208H1226V480Z" fill="#C4CDDF"/>
<path d="M1226 488H69.0001V502.937H1226V488Z" fill="#767D86"/>
<path d="M1226 479.928H69.0001V487.833H1226V479.928Z" fill="#E7EEF6"/>
<path d="M1226 485H69.0001V487.833H1226V485Z" fill="#CCCCCC"/>
<path d="M151.79 566.819L183.157 573H69.0001V566.819H151.79ZM1226 573V566.819H1177.15L1208.52 573H1226ZM1113.13 566.819L1144.5 573H1016.2L984.83 566.819H1113.13ZM920.809 566.819L952.177 573H823.878L792.511 566.819H920.809ZM728.49 566.819L759.858 573H631.559L600.192 566.819H728.49ZM536.428 566.819L567.796 573H439.497L408.13 566.819H536.428ZM344.109 566.819L375.477 573H247.178L215.811 566.819H344.109Z" fill="white"/>
</g>
<g style="mix-blend-mode:multiply">
<g style="mix-blend-mode:multiply" opacity="0.75">
<path fill-rule="evenodd" clip-rule="evenodd" d="M563.628 534.753C712.308 534.753 833.425 530.968 833.425 526.237C833.425 521.506 712.15 517.721 563.628 517.721C415.105 517.721 293.83 521.506 293.83 526.237C293.673 530.81 414.948 534.753 563.628 534.753Z" fill="#68667B"/>
</g>
</g>
<g style="mix-blend-mode:multiply" opacity="0.75">
<g style="mix-blend-mode:multiply" opacity="0.75">
<path fill-rule="evenodd" clip-rule="evenodd" d="M779.5 536C801.268 536 819 534.222 819 532C819 529.778 801.245 528 779.5 528C757.755 528 740 529.778 740 532C739.977 534.148 757.732 536 779.5 536Z" fill="#68667B"/>
</g>
</g>
<g style="mix-blend-mode:multiply" opacity="0.75">
<path fill-rule="evenodd" clip-rule="evenodd" d="M864.5 553C885.166 553 902 549 902 544C902 539 885.144 535 864.5 535C843.856 535 827 539 827 544C826.978 548.833 843.835 553 864.5 553Z" fill="#68667B"/>
</g>
<g style="mix-blend-mode:multiply">
<g style="mix-blend-mode:multiply" opacity="0.75">
<path fill-rule="evenodd" clip-rule="evenodd" d="M791 551C794.858 551 798 550.778 798 550.5C798 550.222 794.853 550 791 550C787.147 550 784 550.222 784 550.5C783.996 550.769 787.142 551 791 551Z" fill="#68667B"/>
</g>
</g>
<rect x="788.09" y="544" width="11" height="3" rx="1" transform="rotate(21.3143 788.09 544)" fill="#A7A9AC"/>
<path d="M787.255 543.085L785.979 546.425L787.576 549.857L791.795 550.024L793.428 546.19L790.996 542.103L787.255 543.085Z" fill="#BCBEC0" stroke="#BCBEC0" stroke-linejoin="round"/>
<path d="M784.766 546.405C784.736 546.483 784.747 546.572 784.797 546.642L787.034 549.764C787.08 549.829 787.155 549.869 787.235 549.871L790.985 549.981C791.087 549.984 791.179 549.926 791.218 549.833L792.852 545.999C792.881 545.93 792.877 545.85 792.84 545.782L790.813 542.073C790.761 541.979 790.657 541.926 790.552 541.942L786.406 542.546C786.319 542.559 786.245 542.617 786.214 542.698L784.766 546.405Z" fill="#E2E3E4" stroke="#E2E3E4" stroke-width="0.5" stroke-linecap="round" stroke-linejoin="round"/>
<g style="mix-blend-mode:multiply">
<g style="mix-blend-mode:multiply" opacity="0.75">
<path fill-rule="evenodd" clip-rule="evenodd" d="M826.338 563.078C822.48 563.078 819.338 562.856 819.338 562.578C819.338 562.3 822.484 562.078 826.338 562.078C830.191 562.078 833.338 562.3 833.338 562.578C833.342 562.846 830.196 563.078 826.338 563.078Z" fill="#68667B"/>
</g>
</g>
<rect width="9.60234" height="3" rx="1" transform="matrix(-0.9316 0.363484 0.363484 0.9316 829.247 556.078)" fill="#E2E3E4"/>
<path d="M829.562 554.859L831.651 557.626L831.825 561.246L829.023 562.529L826.509 559.399L826.662 554.946L829.562 554.859Z" fill="#E2E3E4" stroke="#BCBEC0" stroke-linejoin="round"/>
<path d="M832.544 557.29C832.583 557.342 832.601 557.406 832.595 557.468L832.221 560.971C832.212 561.055 832.159 561.128 832.08 561.162L829.575 562.267C829.469 562.314 829.342 562.282 829.267 562.189L826.754 559.059C826.717 559.013 826.697 558.957 826.697 558.901L826.714 554.907C826.715 554.792 826.797 554.695 826.912 554.674L829.948 554.128C830.044 554.111 830.143 554.15 830.203 554.228L832.544 557.29Z" fill="#A7A9AC" stroke="#A7A9AC" stroke-width="0.5" stroke-linecap="round" stroke-linejoin="round"/>
<path fill-rule="evenodd" clip-rule="evenodd" d="M624.107 433.979C650.567 433.191 662.222 451.011 662.38 481.133C662.38 511.097 640.802 530.179 618.437 528.287C596.072 526.394 578.59 507.154 580.165 481.133C581.74 455.112 597.647 434.768 624.107 433.979Z" fill="#231F20"/>
<path fill-rule="evenodd" clip-rule="evenodd" d="M635.605 439.657C649.307 439.657 660.175 454.481 662.222 474.352C662.38 476.56 662.38 478.768 662.38 481.133C662.38 506.997 646.315 527.025 627.73 527.814C613.712 524.975 603.79 506.366 604.735 483.972C605.837 459.528 619.697 439.657 635.605 439.657Z" fill="#383431"/>
<path fill-rule="evenodd" clip-rule="evenodd" d="M635.762 445.176C648.677 445.176 660.962 461.262 658.127 484.918C655.292 508.574 643.322 518.509 631.982 519.771C620.642 521.19 609.145 503.685 610.09 483.814C610.877 464.101 622.847 445.176 635.762 445.176Z" fill="#A7A9AC"/>
<path fill-rule="evenodd" clip-rule="evenodd" d="M635.605 450.538C646.787 450.538 657.182 464.416 654.82 484.76C652.457 505.104 642.062 513.62 632.297 514.724C622.532 515.828 612.767 500.846 613.555 483.814C614.185 466.782 624.422 450.538 635.605 450.538Z" fill="#6D6E71"/>
<path fill-rule="evenodd" clip-rule="evenodd" d="M388.015 433.979C414.475 433.191 426.13 451.011 426.288 481.133C426.288 511.097 404.71 530.179 382.345 528.287C359.98 526.394 342.498 507.154 344.073 481.133C345.648 455.112 361.555 434.768 388.015 433.979Z" fill="#231F20"/>
<path fill-rule="evenodd" clip-rule="evenodd" d="M399.513 439.657C413.215 439.657 424.083 454.481 426.13 474.352C426.288 476.56 426.288 478.768 426.288 481.133C426.288 506.997 410.223 527.025 391.638 527.814C377.62 524.975 367.698 506.366 368.643 483.972C369.745 459.528 383.605 439.657 399.513 439.657Z" fill="#383431"/>
<path fill-rule="evenodd" clip-rule="evenodd" d="M399.67 445.176C412.585 445.176 424.87 461.262 422.035 484.918C419.2 508.574 407.23 518.509 395.89 519.771C384.55 521.19 373.053 503.685 373.998 483.814C374.785 464.101 386.598 445.176 399.67 445.176Z" fill="#A7A9AC"/>
<path fill-rule="evenodd" clip-rule="evenodd" d="M399.513 450.538C410.695 450.538 421.09 464.416 418.728 484.76C416.365 505.104 405.97 513.62 396.205 514.724C386.44 515.828 376.675 500.846 377.463 483.814C378.093 466.782 388.33 450.538 399.513 450.538Z" fill="#6D6E71"/>
<path fill-rule="evenodd" clip-rule="evenodd" d="M427.548 510.523L743.965 514.523C757.667 512.631 797.358 510.738 811.06 508.846C827.598 448.603 783.498 428.201 752.313 412.746H412.9L328.795 504.846C353.05 509.577 394.63 510.523 427.548 510.523Z" fill="#58595B"/>
<g clip-path="url(#clip0)">
<path fill-rule="evenodd" clip-rule="evenodd" d="M765.35 463C770.01 463 773.699 470.155 773.699 479.099C773.699 487.845 770.01 495.199 765.35 495.199C760.689 495 757 487.845 757 479.099C757 470.155 760.689 463 765.35 463Z" fill="#383431"/>
<path fill-rule="evenodd" clip-rule="evenodd" d="M768.456 463C773.117 463 776.806 470.155 776.806 479.099C776.806 487.845 773.117 495.199 768.456 495.199C763.796 495.199 760.107 488.043 760.107 479.099C760.107 470.155 763.796 463 768.456 463Z" fill="#6D6E71"/>
</g>
<path fill-rule="evenodd" clip-rule="evenodd" d="M511.81 433.979C538.27 433.191 549.925 451.011 550.082 481.133C550.082 511.097 528.505 530.179 506.14 528.287C483.775 526.394 466.292 507.154 467.867 481.133C469.6 455.112 485.35 434.768 511.81 433.979Z" fill="#231F20"/>
<path fill-rule="evenodd" clip-rule="evenodd" d="M523.307 439.657C537.01 439.657 547.877 454.481 549.925 474.352C550.082 476.56 550.082 478.768 550.082 481.133C550.082 506.997 534.017 527.025 515.432 527.814C501.415 524.975 491.492 506.366 492.437 483.972C493.54 459.528 507.4 439.657 523.307 439.657Z" fill="#414042"/>
<path fill-rule="evenodd" clip-rule="evenodd" d="M523.465 445.176C536.38 445.176 548.665 461.262 545.83 484.918C542.995 508.574 531.025 518.509 519.685 519.771C508.345 521.19 496.847 503.685 497.792 483.814C498.737 464.101 510.55 445.176 523.465 445.176Z" fill="#E2E3E4"/>
<path fill-rule="evenodd" clip-rule="evenodd" d="M523.465 445.176C530.867 445.176 538.112 450.381 542.365 459.212C543.625 464.416 543.94 470.251 543.152 476.717C540.317 499.9 528.347 509.52 517.007 510.939C510.235 511.728 503.305 505.893 499.052 496.903C497.95 492.645 497.477 488.072 497.635 483.341C498.737 463.785 510.55 445.176 523.465 445.176Z" fill="#BCBEC0"/>
<path fill-rule="evenodd" clip-rule="evenodd" d="M517.952 499.111C517.48 503.527 517.48 509.047 516.85 513.305C520 513.305 522.992 512.043 525.67 509.835C525.512 506.05 522.677 501.792 519.37 498.638C519.055 498.323 518.74 498.323 518.425 498.481C518.267 498.481 517.952 498.796 517.952 499.111Z" fill="#A7A9AC"/>
<path fill-rule="evenodd" clip-rule="evenodd" d="M525.04 490.122C525.197 491.542 529.135 498.007 531.182 499.9C531.34 500.058 531.655 500.215 531.97 500.058C532.285 500.058 532.442 499.742 532.6 499.585C533.702 496.904 534.647 493.907 535.277 490.595C535.435 490.122 535.12 489.807 534.805 489.649C531.182 488.23 528.032 488.23 525.67 489.334C525.197 489.491 525.04 489.807 525.04 490.122Z" fill="#A7A9AC"/>
<path fill-rule="evenodd" clip-rule="evenodd" d="M526.615 479.714C529.922 480.187 533.387 480.502 536.537 481.291C536.695 477.033 536.38 473.248 535.592 469.778C530.71 473.563 526.93 477.19 526.615 479.714Z" fill="#A7A9AC"/>
<path fill-rule="evenodd" clip-rule="evenodd" d="M523.307 454.008L521.732 466.151C521.732 466.467 521.89 466.782 522.047 466.94C522.362 467.097 522.677 467.255 522.835 467.097C525.827 465.993 528.505 463.628 530.867 460.631C531.182 460.316 531.182 459.843 530.867 459.528C528.977 456.689 526.772 454.639 524.252 453.377C523.937 453.219 523.622 453.219 523.465 453.377C523.622 453.535 523.465 453.692 523.307 454.008Z" fill="#A7A9AC"/>
<path fill-rule="evenodd" clip-rule="evenodd" d="M505.825 462.051L512.912 468.359C515.747 467.886 518.425 453.692 515.275 453.062C510.077 452.115 507.557 457.004 505.51 460.947C505.51 461.42 505.51 461.893 505.825 462.051Z" fill="#A7A9AC"/>
<path fill-rule="evenodd" clip-rule="evenodd" d="M502.99 470.724C505.195 473.405 507.085 476.402 506.927 479.714C506.77 483.341 503.147 484.918 500.47 486.653C500.155 486.81 499.84 486.81 499.682 486.653C499.367 486.495 499.21 486.337 499.21 486.022C498.58 481.764 500.47 474.667 501.572 471.04C501.73 470.724 501.887 470.567 502.202 470.409C502.517 470.251 502.832 470.409 502.99 470.724Z" fill="#A7A9AC"/>
<path fill-rule="evenodd" clip-rule="evenodd" d="M506.455 507.785C510.235 502.581 511.18 499.111 509.605 492.488C508.345 490.911 504.25 494.853 501.257 496.746C500.942 496.903 500.785 497.376 500.785 497.692C501.73 501.477 503.147 504.789 505.037 507.785C505.195 508.1 505.51 508.258 505.825 508.258C505.982 508.258 506.14 508.1 506.455 507.785Z" fill="#A7A9AC"/>
<path fill-rule="evenodd" clip-rule="evenodd" d="M517.795 500.688C517.48 504.789 517.322 509.52 516.85 513.147C517.48 513.147 517.952 513.147 518.425 512.989C519.842 512.359 521.26 511.57 522.677 510.466C522.677 507.312 520.472 503.685 517.795 500.688Z" fill="#58595B"/>
<path fill-rule="evenodd" clip-rule="evenodd" d="M525.04 490.122C525.197 491.384 528.032 496.273 530.237 498.796C531.025 496.588 531.812 494.065 532.285 491.226C532.442 490.753 532.127 490.438 531.812 490.28C529.607 489.334 527.402 489.018 525.512 489.176C525.197 489.491 525.04 489.807 525.04 490.122Z" fill="#58595B"/>
<path fill-rule="evenodd" clip-rule="evenodd" d="M526.615 479.714C528.977 480.029 531.34 480.345 533.545 480.66C533.545 477.506 533.387 474.667 532.915 471.986C529.45 474.983 526.93 477.664 526.615 479.714Z" fill="#58595B"/>
<path fill-rule="evenodd" clip-rule="evenodd" d="M523.307 455.112L521.89 466.151C521.89 466.467 521.89 466.782 522.205 466.94C524.41 465.678 526.3 463.786 528.347 461.42C528.662 461.105 528.662 460.631 528.347 460.316C526.772 458.108 525.04 456.373 523.307 455.112Z" fill="#58595B"/>
<path fill-rule="evenodd" clip-rule="evenodd" d="M505.825 462.051L511.81 467.255C513.857 463.312 514.96 454.323 512.44 453.85C511.967 453.692 511.495 453.692 511.18 453.692C508.66 455.112 507.085 458.266 505.667 460.947C505.51 461.42 505.51 461.893 505.825 462.051Z" fill="#58595B"/>
<path fill-rule="evenodd" clip-rule="evenodd" d="M499.21 486.337C499.21 486.18 499.052 486.18 499.052 486.022C498.58 482.237 499.84 476.56 500.942 472.775C502.675 475.14 504.092 477.821 503.935 480.502C503.777 483.341 501.415 484.918 499.21 486.337Z" fill="#58595B"/>
<path fill-rule="evenodd" clip-rule="evenodd" d="M506.455 493.119C504.88 494.223 502.832 495.8 501.257 496.746C500.942 496.904 500.785 497.377 500.785 497.692C501.73 501.162 502.99 504.316 504.565 507.154C507.4 502.739 508.03 499.427 506.612 493.434C506.455 493.276 506.455 493.119 506.455 493.119Z" fill="#58595B"/>
<path fill-rule="evenodd" clip-rule="evenodd" d="M515.59 476.402C514.33 477.19 513.542 479.398 513.542 481.922C513.542 485.076 514.96 487.599 516.85 487.757C516.535 487.914 516.062 488.072 515.747 488.072C513.857 488.072 512.44 485.549 512.44 482.237C512.282 478.925 513.857 476.402 515.59 476.402Z" fill="#A7A9AC"/>
<path fill-rule="evenodd" clip-rule="evenodd" d="M517.322 485.864C518.582 485.864 519.527 484.129 519.527 481.922C519.527 479.714 518.582 477.979 517.322 477.979C516.062 477.979 515.117 479.714 515.117 481.922C514.96 484.129 516.062 485.864 517.322 485.864Z" fill="#A7A9AC"/>
<path fill-rule="evenodd" clip-rule="evenodd" d="M825.225 537.942C823.063 529.736 834.064 521.793 850.787 518.645C852.656 518.337 854.55 518.123 856.579 517.895C878.765 515.393 898.48 523.077 902.089 534.132C901.866 542.802 887.469 550.544 868.11 552.145C846.967 553.849 827.735 547.469 825.225 537.942Z" fill="#BCBEC0"/>
<path fill-rule="evenodd" clip-rule="evenodd" d="M825.552 536.343C823.358 528.016 837.124 518.309 860.918 517.508C884.711 516.707 896.535 523.32 899.705 530.491C903.03 537.644 887.731 547.002 867.989 548.6C848.402 550.182 827.746 544.669 825.552 536.343Z" fill="#E2E3E4"/>
<path fill-rule="evenodd" clip-rule="evenodd" d="M879.64 533.904C884.072 533.718 889.511 533.104 893.814 533.037C893.279 531.007 891.528 529.217 888.897 527.737C885.194 528.259 881.479 530.56 878.933 533.042C878.676 533.281 878.729 533.484 878.938 533.669C878.965 533.771 879.329 533.939 879.64 533.904Z" fill="#A7A9AC"/>
<path fill-rule="evenodd" clip-rule="evenodd" d="M869.577 530.333C870.949 530.074 876.653 526.817 878.17 525.286C878.298 525.167 878.4 524.947 878.191 524.761C878.138 524.558 877.8 524.492 877.618 524.408C874.789 523.995 871.676 523.718 868.305 523.68C867.812 523.631 867.555 523.869 867.453 524.09C866.669 526.583 867.204 528.614 868.693 530.014C868.929 530.301 869.267 530.368 869.577 530.333Z" fill="#A7A9AC"/>
<path fill-rule="evenodd" clip-rule="evenodd" d="M859.053 530.474C858.957 528.289 858.679 526.021 858.921 523.902C854.699 524.274 851.022 524.897 847.737 525.791C852.296 528.518 856.513 530.552 859.053 530.474Z" fill="#A7A9AC"/>
<path fill-rule="evenodd" clip-rule="evenodd" d="M834.282 535.463L846.516 535.129C846.827 535.094 847.111 534.958 847.24 534.839C847.342 534.618 847.444 534.397 847.262 534.313C845.665 532.507 842.879 531.043 839.525 529.853C839.161 529.685 838.695 529.738 838.437 529.976C835.961 531.51 834.315 533.159 833.5 534.924C833.398 535.145 833.451 535.348 833.634 535.432C833.762 535.313 833.944 535.397 834.282 535.463Z" fill="#A7A9AC"/>
<path fill-rule="evenodd" clip-rule="evenodd" d="M845.178 545.84L850.19 540.57C849.243 538.795 834.801 538.646 834.714 540.747C834.664 544.203 839.91 545.284 844.143 546.166C844.609 546.113 845.076 546.061 845.178 545.84Z" fill="#A7A9AC"/>
<path fill-rule="evenodd" clip-rule="evenodd" d="M854.207 546.704C856.474 544.985 859.106 543.433 862.397 543.167C865.998 542.865 868.167 545.026 870.332 546.559C870.54 546.745 870.594 546.948 870.465 547.067C870.363 547.287 870.235 547.406 869.924 547.442C865.835 548.321 858.52 547.891 854.758 547.583C854.421 547.517 854.239 547.433 854.03 547.247C853.821 547.062 853.923 546.841 854.207 546.704Z" fill="#A7A9AC"/>
<path fill-rule="evenodd" clip-rule="evenodd" d="M890.14 540.352C884.37 538.493 880.79 538.27 874.53 540.021C873.19 541.009 877.771 543.211 880.144 544.93C880.353 545.115 880.846 545.164 881.157 545.129C884.726 544.099 887.749 542.817 890.381 541.266C890.665 541.129 890.767 540.909 890.714 540.706C890.687 540.604 890.505 540.52 890.14 540.352Z" fill="#A7A9AC"/>
<path fill-rule="evenodd" clip-rule="evenodd" d="M881.221 533.83C885.315 533.577 890.004 533.153 893.659 533.055C893.552 532.648 893.472 532.344 893.236 532.057C892.374 531.213 891.356 530.387 890.027 529.596C886.919 529.946 883.719 531.771 881.221 533.83Z" fill="#58595B"/>
<path fill-rule="evenodd" clip-rule="evenodd" d="M869.577 530.333C870.794 530.091 875.13 527.72 877.242 526.019C874.933 525.756 872.313 525.529 869.435 525.54C868.942 525.491 868.684 525.729 868.583 525.949C868.025 527.476 868.088 528.933 868.565 530.134C868.929 530.302 869.267 530.368 869.577 530.333Z" fill="#58595B"/>
<path fill-rule="evenodd" clip-rule="evenodd" d="M859.053 530.474C858.962 528.916 858.872 527.358 858.808 525.901C855.7 526.252 852.929 526.669 850.367 527.271C853.909 529.172 856.979 530.499 859.053 530.474Z" fill="#58595B"/>
<path fill-rule="evenodd" clip-rule="evenodd" d="M835.37 535.34L846.49 535.027C846.8 534.992 847.111 534.957 847.213 534.737C845.595 533.455 843.409 532.447 840.73 531.39C840.366 531.222 839.9 531.275 839.642 531.513C837.734 532.773 836.319 534.083 835.37 535.34Z" fill="#58595B"/>
<path fill-rule="evenodd" clip-rule="evenodd" d="M845.178 545.84L849.29 541.403C845.057 540.521 836.011 540.809 835.973 542.487C835.897 542.809 835.978 543.113 836.031 543.316C837.858 544.783 841.234 545.448 844.116 546.064C844.609 546.113 845.076 546.061 845.178 545.84Z" fill="#58595B"/>
<path fill-rule="evenodd" clip-rule="evenodd" d="M870.235 547.406C870.079 547.424 870.106 547.525 869.951 547.543C866.301 548.268 860.492 548.086 856.575 547.796C858.612 546.416 861.013 545.205 863.682 545.008C866.506 544.794 868.462 546.142 870.235 547.406Z" fill="#58595B"/>
<path fill-rule="evenodd" clip-rule="evenodd" d="M875.687 541.982C877.042 542.875 878.944 544.02 880.144 544.93C880.353 545.115 880.846 545.164 881.157 545.129C884.416 544.134 887.31 542.972 889.84 541.641C885.007 540.304 881.636 540.266 875.971 541.845C875.842 541.964 875.687 541.982 875.687 541.982Z" fill="#58595B"/>
<path fill-rule="evenodd" clip-rule="evenodd" d="M857.661 537.95C858.653 538.675 860.962 538.937 863.449 538.657C866.557 538.306 868.803 537.112 868.637 535.876C868.846 536.062 869.082 536.349 869.135 536.552C869.456 537.77 867.21 538.965 863.947 539.333C860.71 539.802 857.956 539.067 857.661 537.95Z" fill="#A7A9AC"/>
<path fill-rule="evenodd" clip-rule="evenodd" d="M866.692 535.782C866.478 534.969 864.608 534.553 862.432 534.798C860.257 535.044 858.708 535.846 858.922 536.658C859.136 537.47 861.006 537.887 863.181 537.641C865.384 537.498 866.906 536.594 866.692 535.782Z" fill="#A7A9AC"/>
<path fill-rule="evenodd" clip-rule="evenodd" d="M305.17 446.968C308.793 434.037 316.353 426.782 322.968 422.366C360.295 409.435 415.105 400.603 452.905 393.506C502.203 390.825 554.65 391.614 589.615 398.553C565.36 424.417 523.78 394.61 485.823 429.936C507.715 446.338 428.965 490.968 419.673 504.846H309.108C308.478 502.323 307.69 499.484 307.06 496.488H308.478C307.848 493.491 307.533 490.495 306.903 487.814H305.17C302.65 473.936 301.548 457.85 305.17 446.968Z" fill="#E2304D"/>
<path fill-rule="evenodd" clip-rule="evenodd" d="M395.733 450.911C428.178 401.549 555.28 402.495 572.29 404.388C563.628 392.087 499.683 392.087 449.44 394.137C467.553 381.836 493.54 365.592 526.93 355.972C548.35 349.822 588.355 350.295 615.13 351.241C656.395 352.818 705.85 355.815 731.365 363.542C745.855 367.958 761.29 392.46 767.59 401.922C773.26 410.438 804.603 406.495 815.313 413.434C830.59 423.37 829.645 443.398 827.598 467.685C838.623 468.946 836.418 483.771 826.338 504.588C822.558 504.588 811.848 508.688 808.068 508.688C818.935 401.606 726.483 426.997 731.68 508.688C687.738 508.688 598.278 504.688 554.178 504.688C572.29 403.442 479.365 394.295 473.695 504.688H434.95C423.768 484.344 460.308 456.588 428.965 456.904C394.945 457.377 394 453.592 395.733 450.911Z" fill="#EC5F6B"/>
<path fill-rule="evenodd" clip-rule="evenodd" d="M586.937 405.807C587.252 399.184 601.585 379.471 620.642 365.435C623.792 363.069 630.407 360.861 640.172 360.388C667.105 358.969 688.84 360.231 715.772 368.589C724.435 371.27 747.902 406.123 736.562 406.438C697.345 406.911 626.155 405.807 586.937 405.807Z" fill="#E11E3E"/>
<path fill-rule="evenodd" clip-rule="evenodd" d="M451.645 478.667C437.155 489.706 423.295 499.642 419.83 504.846H309.108C308.478 502.323 307.69 499.484 307.06 496.488H308.478C307.848 493.491 307.533 490.495 306.903 487.814H305.17C304.698 484.817 304.225 481.821 303.753 478.825H451.645V478.667Z" fill="#EC5F6B"/>
<path fill-rule="evenodd" clip-rule="evenodd" d="M321.393 456.746C345.805 455.327 371.32 452.803 390.378 456.904C393.055 449.492 400.458 439.241 411.01 431.671C383.605 428.359 349.9 431.671 319.345 431.671C322.18 437.191 324.07 447.126 321.393 456.746Z" fill="#58595B"/>
<path fill-rule="evenodd" clip-rule="evenodd" d="M317.14 426.782C351.16 426.624 397.308 422.051 416.995 426.782C441.093 432.617 460.78 430.252 462.198 432.617L416.995 428.517C397.308 423.786 349.428 428.517 315.565 428.517C316.038 427.886 316.668 427.413 317.14 426.782Z" fill="#EC5F6B"/>
<path fill-rule="evenodd" clip-rule="evenodd" d="M436.053 485.606C433.218 490.022 433.69 495.384 432.745 499.957H307.69C307.375 498.853 307.06 497.749 306.745 496.645H308.32C307.69 493.649 307.375 490.653 306.745 487.972H305.17C305.013 487.341 304.855 486.868 304.855 486.237L436.053 485.606Z" fill="#58595B"/>
<path fill-rule="evenodd" clip-rule="evenodd" d="M308.95 499.642H445.818C448.653 499.642 451.015 500.903 451.015 502.323C451.015 503.742 448.653 505.004 445.818 505.004H308.95C306.115 505.004 303.753 503.742 303.753 502.323C303.753 500.746 306.115 499.642 308.95 499.642Z" fill="#EC5F6B"/>
<path fill-rule="evenodd" clip-rule="evenodd" d="M303.91 458.796H396.363C398.568 458.796 400.458 460.689 400.458 462.896V476.775C400.458 478.982 398.568 480.875 396.363 480.875H303.91C301.705 480.875 299.815 478.982 299.815 476.775V462.896C299.815 460.689 301.705 458.796 303.91 458.796Z" fill="#E2304D"/>
<path fill-rule="evenodd" clip-rule="evenodd" d="M400.143 478.667C399.513 479.929 398.095 480.875 396.52 480.875H303.91C302.335 480.875 300.918 479.929 300.288 478.667H400.143Z" fill="#E11E3E"/>
<path fill-rule="evenodd" clip-rule="evenodd" d="M461.095 392.56C471.49 382.152 503.62 366.066 534.332 360.388C566.935 356.13 588.985 358.496 614.342 361.492C599.065 372.374 587.882 385.779 572.447 396.66C535.75 388.933 490.862 389.564 461.095 392.56Z" fill="#CDEEF0"/>
<path fill-rule="evenodd" clip-rule="evenodd" d="M590.56 404.703C590.875 398.553 604.577 380.259 622.69 367.17C625.682 364.962 631.982 362.912 641.275 362.439C666.947 361.177 687.737 362.281 713.41 370.008C721.6 372.532 744.122 404.861 733.097 405.177C695.77 405.807 627.887 404.703 590.56 404.703Z" fill="#82ADB1"/>
<path fill-rule="evenodd" clip-rule="evenodd" d="M590.56 404.704C590.717 399.657 599.852 386.725 613.082 374.897C625.367 384.202 640.802 402.969 632.297 404.861C616.547 404.861 602.057 404.704 590.56 404.704Z" fill="#C0D8DA"/>
<path fill-rule="evenodd" clip-rule="evenodd" d="M643.952 362.281C668.365 361.177 688.682 362.438 713.41 370.008C719.08 371.743 731.522 387.671 735.145 397.449H673.877C667.892 397.449 660.175 392.56 657.025 386.41L643.952 362.281Z" fill="#C0D8DA"/>
<path fill-rule="evenodd" clip-rule="evenodd" d="M645.685 362.281C657.655 361.808 668.522 361.965 679.705 363.069L659.072 405.176C647.417 405.019 635.762 405.019 624.895 404.861L645.685 362.281Z" fill="#ADC2C2" style="mix-blend-mode:overlay"/>
<path fill-rule="evenodd" clip-rule="evenodd" d="M687.737 364.173C695.297 365.277 702.857 367.012 710.89 369.377L693.25 405.334C684.902 405.334 676.24 405.334 667.577 405.176L687.737 364.173Z" fill="#ADC2C2" style="mix-blend-mode:overlay"/>
<path fill-rule="evenodd" clip-rule="evenodd" d="M299.815 462.108C325.645 462.108 346.75 460.058 372.58 460.058C379.038 460.058 391.795 462.423 398.253 462.423C424.555 462.423 449.283 462.108 475.585 462.108C475.585 462.581 475.585 463.212 475.585 463.685L392.583 464.631L370.69 461.793L299.815 463.685V462.108Z" fill="#EC5F6B"/>
<path fill-rule="evenodd" clip-rule="evenodd" d="M380.613 478.825H470.388L468.025 485.133C432.745 480.086 410.853 481.663 380.613 480.402V478.825Z" fill="#E11E3E"/>
<path fill-rule="evenodd" clip-rule="evenodd" d="M600.01 388.617L604.892 404.703C600.01 404.703 595.285 404.703 590.402 404.703C590.717 401.234 593.237 395.241 600.01 388.617Z" fill="#576578"/>
<path fill-rule="evenodd" clip-rule="evenodd" d="M603.16 386.094C610.405 386.094 617.492 386.094 624.737 386.094C629.305 386.094 631.51 398.08 628.99 401.076C628.36 401.707 627.572 401.865 626.627 402.022C620.327 403.126 608.2 404.861 602.53 403.442C594.497 401.392 596.545 393.822 600.64 387.356C601.27 386.567 602.215 386.094 603.16 386.094Z" fill="#EC5F6B"/>
<path fill-rule="evenodd" clip-rule="evenodd" d="M603.16 386.094C610.405 386.094 617.492 386.094 624.737 386.094C628.517 386.094 630.565 393.822 629.935 398.395C621.43 399.341 610.877 399.972 605.207 398.868C600.01 397.922 597.962 395.557 597.962 392.876C598.592 390.983 599.537 389.248 600.797 387.356C601.27 386.567 602.215 386.094 603.16 386.094Z" fill="#E2304D"/>
<path fill-rule="evenodd" clip-rule="evenodd" d="M383.763 465.893L471.963 463.685V465.262L381.873 470.94L383.763 465.893Z" fill="#E2304D"/>
<path fill-rule="evenodd" clip-rule="evenodd" d="M417.467 427.098C436.997 427.098 452.59 428.675 464.245 431.986C494.17 420.159 536.222 417.32 574.337 415.112L818.62 419.112C812.635 416.746 811.69 412.173 800.665 411.858C728.215 411.384 628.675 406.911 556.225 406.438C496.217 408.331 446.92 416.216 417.467 427.098Z" fill="#E2304D"/>
<path fill-rule="evenodd" clip-rule="evenodd" d="M322.18 441.133C350.215 440.502 383.763 437.664 401.403 441.133C401.403 441.922 401.403 442.868 401.403 443.656C377.935 440.187 349.743 442.395 322.18 443.656C322.18 442.868 322.18 442.079 322.18 441.133Z" fill="#E2304D"/>
<path fill-rule="evenodd" clip-rule="evenodd" d="M399.828 487.814H420.775C422.193 487.814 423.295 488.918 423.295 490.337V494.122C423.295 495.541 422.193 496.645 420.775 496.645H399.828C398.41 496.645 397.308 495.541 397.308 494.122V490.337C397.465 488.918 398.568 487.814 399.828 487.814Z" fill="#414042"/>
<path fill-rule="evenodd" clip-rule="evenodd" d="M403.293 487.814H420.775C422.035 487.814 423.138 488.76 423.138 489.864V493.176C423.138 494.28 422.035 495.226 420.618 495.226H403.293C401.875 495.226 400.773 494.28 400.773 493.176V489.864C400.93 488.76 401.875 487.814 403.293 487.814Z" fill="#EEE6D4"/>
<path fill-rule="evenodd" clip-rule="evenodd" d="M403.293 487.814H420.775C422.035 487.814 423.138 488.76 423.138 489.864V490.495H400.773V489.864C400.93 488.76 401.875 487.814 403.293 487.814Z" fill="#D2C8AD"/>
<path fill-rule="evenodd" clip-rule="evenodd" d="M305.328 487.814H320.763C322.18 487.814 323.283 488.918 323.283 490.337V494.122C323.283 495.541 322.18 496.645 320.763 496.645H306.903L308.163 495.068C309.423 493.649 307.218 489.549 306.903 487.972L305.328 487.814Z" fill="#414042"/>
<path fill-rule="evenodd" clip-rule="evenodd" d="M306.903 487.814H320.92C322.18 487.814 323.125 488.76 323.125 489.864V493.176C323.125 494.28 322.18 495.226 320.92 495.226H308.005C307.69 492.861 307.375 490.337 306.903 487.814Z" fill="#EEE6D4"/>
<path fill-rule="evenodd" clip-rule="evenodd" d="M306.903 487.814H320.92C322.18 487.814 323.125 488.76 323.125 489.864V490.495H307.375C307.218 489.549 307.06 488.76 306.903 487.814Z" fill="#D2C8AD"/>
<path fill-rule="evenodd" clip-rule="evenodd" d="M321.865 445.707C350.058 444.287 379.51 442.237 397.623 445.707C397.623 446.495 397.623 447.442 397.623 448.23C375.258 443.657 348.168 446.495 321.865 448.23C321.865 447.442 321.865 446.495 321.865 445.707Z" fill="#E2304D"/>
<path fill-rule="evenodd" clip-rule="evenodd" d="M666.16 360.861L671.83 405.334L679.39 405.176L671.515 360.073L666.16 360.861Z" fill="#E11E3E"/>
<path fill-rule="evenodd" clip-rule="evenodd" d="M668.05 359.758L674.035 407.227L681.438 407.069L673.405 358.969L668.05 359.758Z" fill="#EC5F6B"/>
<path fill-rule="evenodd" clip-rule="evenodd" d="M464.088 435.298C464.875 448.388 447.55 453.592 437.47 454.38C426.288 455.169 416.208 455.327 404.395 454.38C402.348 454.223 399.04 451.857 399.985 449.807C412.9 425.363 463.458 424.259 464.088 435.298Z" fill="#E11E3E"/>
<path fill-rule="evenodd" clip-rule="evenodd" d="M315.723 428.517C319.345 434.667 322.18 441.133 322.023 449.649C322.023 450.911 321.393 452.015 320.29 452.803C319.188 453.592 317.77 454.065 316.195 453.907C311.785 453.592 307.69 453.907 303.438 454.854C303.753 452.015 304.383 449.334 305.17 446.968C307.375 439.398 310.84 433.406 315.723 428.517Z" fill="#E11E3E"/>
<path fill-rule="evenodd" clip-rule="evenodd" d="M305.17 446.968C307.218 439.556 310.053 434.509 314.778 429.463C318.085 435.613 319.975 441.133 320.763 449.649C321.235 454.065 317.928 455.8 316.983 455.642C312.415 455.326 307.848 454.065 303.438 455.484C303.753 452.488 304.225 449.491 305.17 446.968Z" fill="#EC5F6B"/>
<path fill-rule="evenodd" clip-rule="evenodd" d="M303.438 454.696C307.848 452.803 311.628 452.015 316.038 452.488C317.14 452.646 318.085 452.33 318.873 451.542C319.66 450.753 319.975 449.965 320.133 448.861C320.133 441.291 318.085 435.771 315.25 430.251C309.738 436.56 305.643 446.337 303.438 454.696Z" fill="#FFFCD5"/>
<path fill-rule="evenodd" clip-rule="evenodd" d="M303.91 451.857C308.32 450.122 312.573 450.438 317.298 451.069C318.4 451.226 318.873 451.069 319.66 450.28C320.448 449.491 319.975 448.23 319.975 447.126C320.133 439.398 317.77 434.983 315.093 430.251C309.895 435.771 306.273 441.133 303.91 451.857Z" fill="#EEE6D4"/>
<path fill-rule="evenodd" clip-rule="evenodd" d="M319.975 444.603C319.03 439.083 316.983 433.721 314.778 429.621C311.47 432.933 308.95 436.718 306.745 442.395C310.998 443.341 314.935 444.13 319.975 444.603Z" fill="#D2C8AD"/>
<path fill-rule="evenodd" clip-rule="evenodd" d="M319.345 439.714C319.975 442.868 320.133 446.337 319.818 449.807C319.188 450.438 318.4 450.911 317.613 451.068C316.825 450.911 316.195 450.911 315.408 450.753C313.045 449.649 311.313 446.337 311.313 442.237C311.313 437.506 313.518 433.721 316.51 433.406C317.613 435.456 318.558 437.506 319.345 439.714Z" fill="white"/>
<path fill-rule="evenodd" clip-rule="evenodd" d="M316.983 436.086C317.298 436.086 317.613 436.086 317.928 436.244C318.4 437.348 318.873 438.61 319.345 439.714C319.66 441.764 319.975 443.972 319.975 446.337C319.188 447.757 318.085 448.545 316.983 448.545C314.778 448.545 313.045 445.706 313.045 442.237C313.045 438.925 314.778 436.086 316.983 436.086Z" fill="#DAD9D4"/>
<path fill-rule="evenodd" clip-rule="evenodd" d="M327.85 461.004L377.935 478.036C379.825 478.667 380.928 480.717 380.298 482.767L376.675 493.176C376.045 495.068 373.84 496.172 371.95 495.541L321.865 478.509C319.975 477.878 318.873 475.828 319.503 473.778L323.125 463.37C323.913 461.319 325.96 460.215 327.85 461.004Z" fill="#EAEEF0"/>
<path fill-rule="evenodd" clip-rule="evenodd" d="M328.638 462.739L375.888 478.825C377.305 479.298 378.25 480.559 378.25 481.821C377.778 481.19 377.148 480.717 376.36 480.402L329.11 464.316C327.378 463.685 325.33 464.473 324.858 466.051L321.865 474.882C321.708 475.197 321.708 475.671 321.708 475.986C321.235 475.197 321.078 474.251 321.393 473.463L324.385 464.631C325.015 462.896 326.905 462.108 328.638 462.739Z" fill="#B2C7CF"/>
<path fill-rule="evenodd" clip-rule="evenodd" d="M612.137 363.069C597.962 373.636 587.252 386.252 572.605 396.503C535.75 388.933 490.862 389.564 461.095 392.403C495.745 372.059 570.242 357.865 612.137 363.069Z" fill="#A8D6D6"/>
<path fill-rule="evenodd" clip-rule="evenodd" d="M572.605 396.503C571.975 396.345 571.502 396.345 570.872 396.187L569.14 395.872C568.037 395.714 566.777 395.399 565.675 395.241H565.517L563.785 394.926H563.627L561.895 394.61C560.792 394.453 559.847 394.295 558.745 394.137H558.43H558.272H557.957C556.855 393.979 555.752 393.822 554.65 393.664L553.075 393.506L551.5 393.349H551.342L550.082 393.191L549.295 393.033L547.72 392.876H547.562C546.46 392.718 545.2 392.56 544.097 392.56H543.94L542.837 392.402H542.05L540.947 392.245H540.317L539.057 392.087H538.585L536.852 391.929C535.12 391.772 533.387 391.614 531.655 391.614H531.182H529.922H529.45H528.977H528.662H527.245H526.457H525.355H524.725H523.622H522.047H521.89H520.63H519.842H518.582H518.11H517.007H516.22H514.645H513.857H513.542H512.125H511.81H510.392H509.92H508.66H507.872H506.612H506.297H504.88H504.092H503.147H502.36H501.572C500.47 391.614 499.367 391.614 498.265 391.614H496.532C494.8 391.614 493.225 391.614 491.65 391.772H491.335C490.232 391.772 489.287 391.772 488.185 391.929H488.027C486.925 391.929 485.822 391.929 484.877 392.087C476.53 392.402 468.812 393.033 461.882 393.664C479.68 385.463 508.345 377.263 535.907 372.847C561.422 370.008 583.472 369.535 603.947 370.481C593.71 378.367 584.417 388.144 572.605 396.503Z" fill="#8DB4B7"/>
<path fill-rule="evenodd" clip-rule="evenodd" d="M725.222 501.219L558.272 500.746L557.8 495.699L725.695 495.068L725.222 501.219Z" fill="#E2304D"/>
<path fill-rule="evenodd" clip-rule="evenodd" d="M590.56 404.703C596.86 434.352 597.49 476.617 589.93 504.846C617.335 504.846 639.857 504.846 667.262 504.846C678.602 486.079 688.052 464.789 689.785 435.298C690.887 422.209 682.067 411.485 673.405 405.019L590.56 404.703Z" fill="#E11E3E"/>
<path fill-rule="evenodd" clip-rule="evenodd" d="M591.977 405.019C598.592 432.459 600.01 474.724 591.505 504.846C618.122 504.846 638.44 504.846 665.057 504.846C673.562 474.409 689.785 416.216 671.987 405.334L591.977 405.019Z" fill="#EC5F6B"/>
<path fill-rule="evenodd" clip-rule="evenodd" d="M594.025 415.112H681.28C679.075 412.115 676.712 409.592 674.035 407.384L592.292 406.596C592.765 408.961 593.395 411.958 594.025 415.112Z" fill="#6EB8C0"/>
<path fill-rule="evenodd" clip-rule="evenodd" d="M673.563 404.861C689.628 423.786 673.98 474.886 664.058 507.846L726.325 508.846C722.86 475.413 736.563 446.653 753.258 434.983C754.36 422.209 745.855 411.642 737.508 405.176L673.563 404.861Z" fill="#E11E3E"/>
<path fill-rule="evenodd" clip-rule="evenodd" d="M674.193 405.334C690.888 419.055 677.658 474.728 667.263 507.846L724.435 508.846C720.97 475.413 734.358 446.653 751.21 434.983C752.313 422.209 743.808 411.642 735.46 405.177H674.193V405.334Z" fill="#EC5F6B"/>
<path fill-rule="evenodd" clip-rule="evenodd" d="M673.562 424.101L673.877 425.363C674.507 427.728 672.932 429.621 670.727 429.621H663.167C660.805 429.621 658.443 427.728 657.97 425.363L657.655 424.101H673.562Z" fill="#E11E3E"/>
<path fill-rule="evenodd" clip-rule="evenodd" d="M654.505 420.632H673.405C673.877 420.632 674.507 421.105 674.507 421.578L674.98 423.313C675.137 423.786 674.822 424.259 674.35 424.259H655.45C654.977 424.259 654.347 423.786 654.347 423.313L653.875 421.578C653.717 420.947 654.032 420.632 654.505 420.632Z" fill="#E2304D"/>
<path fill-rule="evenodd" clip-rule="evenodd" d="M741.76 424.101L742.075 425.363C742.705 427.728 741.13 429.621 738.925 429.621H731.365C729.003 429.621 726.64 427.728 726.168 425.363L725.853 424.101H741.76Z" fill="#E11E3E"/>
<path fill-rule="evenodd" clip-rule="evenodd" d="M722.703 420.632H741.603C742.075 420.632 742.705 421.105 742.705 421.578L743.178 423.313C743.335 423.786 743.02 424.259 742.548 424.259H723.648C723.175 424.259 722.545 423.786 722.545 423.313L722.073 421.578C721.915 420.947 722.23 420.632 722.703 420.632Z" fill="#E2304D"/>
<path fill-rule="evenodd" clip-rule="evenodd" d="M680.178 415.112H745.068C743.02 412.273 740.5 409.592 737.98 407.384C717.82 407.227 696.873 407.227 676.083 407.069C677.815 409.119 679.233 411.8 680.178 415.112Z" fill="#E2304D"/>
<path fill-rule="evenodd" clip-rule="evenodd" d="M594.025 415.112H678.76C678.13 411.327 676.397 409.119 674.035 407.069C646 406.911 618.122 406.753 592.292 406.596C592.922 409.277 593.552 412.115 594.025 415.112Z" fill="#E2304D"/>
<path fill-rule="evenodd" clip-rule="evenodd" d="M724.12 501.219L668.365 501.061C668.995 499.169 669.468 497.276 670.098 495.226L723.805 495.068C723.963 497.119 723.963 499.169 724.12 501.219Z" fill="#E2304D"/>
<path fill-rule="evenodd" clip-rule="evenodd" d="M556 434C584.769 434 608.276 434 637.045 434C675.081 434 713.526 434 751.77 434C751.77 434.473 747.5 438.527 747.5 439L637.047 435.577H556V434Z" fill="#E2304D"/>
<path fill-rule="evenodd" clip-rule="evenodd" d="M666.002 501.061L592.45 500.903C592.922 499.169 593.237 497.434 593.71 495.541L667.735 495.226C667.105 497.276 666.475 499.169 666.002 501.061Z" fill="#E2304D"/>
<path fill-rule="evenodd" clip-rule="evenodd" d="M808.54 465.42H823.503C830.118 466.682 832.48 468.889 833.11 470.782L810.43 472.832L808.54 465.42Z" fill="#E2304D"/>
<path fill-rule="evenodd" clip-rule="evenodd" d="M562.008 377.128L551.008 371.5L555 377.128L534.532 378.705L553.117 381.071L538.785 386.433L552.5 384H557L553.747 389.903L560.5 383.279H566L573 389.903L569.97 383.279L582.412 386.118L573 381.071H569.97L573 378.705L589.5 375.709L568.71 377.128L575.008 371.5L564.5 375.709L562.008 377.128Z" fill="#427B82"/>
<path fill-rule="evenodd" clip-rule="evenodd" d="M464.088 434.983C464.718 447.442 448.18 452.488 438.573 453.119C427.863 453.907 418.255 454.065 406.915 453.119C404.868 452.961 401.718 450.596 402.82 448.703C415.105 425.363 463.458 424.417 464.088 434.983Z" fill="#58595B"/>
<path fill-rule="evenodd" clip-rule="evenodd" d="M412.427 478.036C410.695 465.735 414.632 449.334 431.957 440.187C453.22 428.832 465.662 433.406 463.457 446.653C447.077 459.112 428.65 465.578 412.427 478.036Z" fill="#808285"/>
<path fill-rule="evenodd" clip-rule="evenodd" d="M461.882 441.291C467.867 452.173 454.952 463.843 446.605 468.732C437.312 474.094 428.65 478.509 417.94 482.61C416.05 483.398 412.112 482.767 412.27 480.56C413.215 454.223 456.685 431.986 461.882 441.291Z" fill="#FFFCD5"/>
<path fill-rule="evenodd" clip-rule="evenodd" d="M461.882 441.291C462.827 443.026 463.3 444.761 463.457 446.653C462.04 454.696 453.22 462.266 446.762 465.893C437.47 471.255 428.807 475.671 418.097 479.771C416.365 480.402 412.742 479.929 412.427 478.036C415.892 452.803 456.842 432.302 461.882 441.291Z" fill="#EEE6D4"/>
<path fill-rule="evenodd" clip-rule="evenodd" d="M461.882 441.291C462.197 441.922 462.512 442.553 462.827 443.341C456.527 450.911 445.975 458.796 432.902 465.104C426.445 468.259 419.987 470.624 414.002 472.359C422.192 449.807 457.315 433.09 461.882 441.291Z" fill="#D2C8AD"/>
<path fill-rule="evenodd" clip-rule="evenodd" d="M461.882 441.291C466.607 449.965 459.362 459.112 451.96 464.947C450.857 459.9 450.542 454.223 450.857 448.388C451.015 445.391 451.487 442.395 452.117 439.714C456.842 438.61 460.622 438.925 461.882 441.291Z" fill="#FBD55B"/>
<path fill-rule="evenodd" clip-rule="evenodd" d="M461.882 441.291C462.827 443.026 463.3 444.761 463.457 446.653C462.355 452.804 457 458.639 451.645 462.739C450.857 458.323 450.7 453.592 451.015 448.545C451.172 445.549 451.645 442.553 452.275 439.872C456.842 438.61 460.622 438.926 461.882 441.291Z" fill="#F58220"/>
<path fill-rule="evenodd" clip-rule="evenodd" d="M461.882 441.291C462.197 441.922 462.512 442.553 462.827 443.341C459.677 446.968 455.74 450.753 450.857 454.223C450.857 452.33 450.857 450.438 451.015 448.388C451.172 445.391 451.645 442.395 452.275 439.714C456.842 438.61 460.622 438.925 461.882 441.291Z" fill="#D7662C"/>
<path fill-rule="evenodd" clip-rule="evenodd" d="M433.375 452.33C436.367 450.911 440.62 453.592 442.982 458.323C445.187 463.054 444.715 468.101 441.722 469.52C438.73 470.939 434.477 468.258 432.115 463.527C429.91 458.796 430.382 453.75 433.375 452.33Z" fill="white"/>
<path fill-rule="evenodd" clip-rule="evenodd" d="M434.635 454.854C436.682 453.907 439.832 455.642 441.407 459.112C442.982 462.423 442.667 466.051 440.462 466.997C438.415 467.943 435.265 466.208 433.69 462.739C432.115 459.269 432.587 455.8 434.635 454.854Z" fill="#DAD9D4"/>
<g style="mix-blend-mode:soft-light" opacity="0.65">
<path fill-rule="evenodd" clip-rule="evenodd" d="M723 490L563 489.627V488.133L723 478V490Z" fill="white"/>
</g>
<path fill-rule="evenodd" clip-rule="evenodd" d="M590.411 534.122C595.923 534.122 600.333 533.018 600.333 531.598C600.333 530.179 595.923 529.075 590.411 529.075C584.898 529.075 580.488 530.179 580.488 531.598C580.488 533.018 585.056 534.122 590.411 534.122Z" fill="#A1E79B"/>
<path fill-rule="evenodd" clip-rule="evenodd" d="M566.785 542.48C572.298 542.48 576.708 541.376 576.708 539.957C576.708 538.538 572.298 537.434 566.785 537.434C561.273 537.434 556.863 538.538 556.863 539.957C556.863 541.376 561.273 542.48 566.785 542.48Z" fill="#7CC076"/>
<path fill-rule="evenodd" clip-rule="evenodd" d="M554.343 536.33C559.855 536.33 564.265 535.226 564.265 533.806C564.265 532.387 559.855 531.283 554.343 531.283C548.83 531.283 544.42 532.387 544.42 533.806C544.42 535.226 548.83 536.33 554.343 536.33Z" fill="#A1E79B"/>
<path fill-rule="evenodd" clip-rule="evenodd" d="M618.918 548C624.431 548 628.841 546.896 628.841 545.477C628.841 544.057 624.431 542.953 618.918 542.953C613.406 542.953 608.996 544.057 608.996 545.477C608.996 546.896 613.406 548 618.918 548Z" fill="#BAFCB4"/>
<path fill-rule="evenodd" clip-rule="evenodd" d="M501.738 538.064C507.25 538.064 511.66 536.96 511.66 535.541C511.66 534.122 507.25 533.018 501.738 533.018C496.225 533.018 491.815 534.122 491.815 535.541C491.815 536.803 496.383 538.064 501.738 538.064Z" fill="#7CC076"/>
<path fill-rule="evenodd" clip-rule="evenodd" d="M525.52 546.265C531.033 546.265 535.443 545.161 535.443 543.742C535.443 542.322 531.033 541.219 525.52 541.219C520.008 541.219 515.598 542.322 515.598 543.742C515.598 545.161 520.008 546.265 525.52 546.265Z" fill="#A1E79B"/>
<path fill-rule="evenodd" clip-rule="evenodd" d="M537.805 540.272C543.318 540.272 547.728 539.168 547.728 537.749C547.728 536.329 543.318 535.226 537.805 535.226C532.293 535.226 527.883 536.329 527.883 537.749C527.883 539.01 532.45 540.272 537.805 540.272Z" fill="#BAFCB4"/>
<path fill-rule="evenodd" clip-rule="evenodd" d="M547.885 547.527C553.398 547.527 557.808 546.423 557.808 545.004C557.808 543.584 553.398 542.48 547.885 542.48C542.373 542.48 537.963 543.584 537.963 545.004C537.963 546.423 542.373 547.527 547.885 547.527Z" fill="#A1E79B"/>
<g style="mix-blend-mode:multiply">
<g style="mix-blend-mode:multiply" opacity="0.75">
<path fill-rule="evenodd" clip-rule="evenodd" d="M207.5 474.032C243.871 474.032 273.5 472.025 273.5 469.516C273.5 467.007 243.833 465 207.5 465C171.167 465 141.5 467.007 141.5 469.516C141.462 471.941 171.129 474.032 207.5 474.032Z" fill="#68667B" fill-opacity="0.5"/>
</g>
</g>
<path fill-rule="evenodd" clip-rule="evenodd" d="M315.149 378.973C294.519 339.606 303.915 353.221 308.367 338.786C312.818 324.352 293.912 329.63 339.101 302.208L342.705 308.277C299.375 330.099 320.237 327.304 316.209 339.606C312.394 351.908 304.635 345.634 321.932 374.052L315.149 378.973Z" fill="#AA7244"/>
<path fill-rule="evenodd" clip-rule="evenodd" d="M218.022 470.08H188.444C185.77 470.08 183.848 467.506 184.609 464.942L189.72 447.719L191.478 418.19L195.657 392.503L202.587 403.405L206.682 397.535L214.084 402.567L218.022 470.08Z" fill="#AA7244"/>
<path fill-rule="evenodd" clip-rule="evenodd" d="M225.097 467.08C225.097 468.737 223.754 470.08 222.097 470.08H209.517L213.297 438.227L206.682 397.535L213.297 402.567H219.912V422.76L225.097 454.398V467.08Z" fill="#8D533B"/>
<path fill-rule="evenodd" clip-rule="evenodd" d="M214.113 402.463L209.676 396.856L218.521 388.682L215.794 384.995L220.456 377.416L388.342 368.161L387.9 384.803L214.113 402.463Z" fill="#AA7244"/>
<path fill-rule="evenodd" clip-rule="evenodd" d="M214.612 402.561L210.174 396.954L232.475 397.262L251.984 391.172L293.794 385.391L324.803 388.122L388.563 380.978L388.45 386.254L214.612 402.561Z" fill="#8D533B"/>
<path fill-rule="evenodd" clip-rule="evenodd" d="M311.129 392.518L318.059 387.471C325.774 392.656 335.355 395.57 346.546 402.223C356.171 405.098 359.709 400.784 368.625 395.946C377.3 391.238 389.082 383.446 395.568 375.367V383.487C366.25 411.375 369.25 408.063 353.5 411.375C337.592 414.687 346.324 407.9 311.129 392.518Z" fill="#8D533B"/>
<path fill-rule="evenodd" clip-rule="evenodd" d="M315.014 377.024C326.113 333.913 324.03 350.427 335.005 341.074C348.189 327.191 360.615 326.46 373.943 327.191L372.375 333.913C361.007 333.329 348.464 337.713 338.925 345.75C329.387 353.788 329.512 344.357 321.678 376.585L315.014 377.024Z" fill="#AA7244"/>
<g style="mix-blend-mode:multiply">
<g style="mix-blend-mode:multiply" opacity="0.75">
<path fill-rule="evenodd" clip-rule="evenodd" d="M464.726 399.503C493.898 396.577 517.417 391.761 517.112 388.721C516.807 385.68 492.769 385.635 463.628 388.558C434.488 391.481 410.937 396.301 411.242 399.341C411.506 402.283 435.555 402.43 464.726 399.503Z" fill="#68667B" fill-opacity="0.5"/>
</g>
</g>
<g style="mix-blend-mode:multiply">
<g style="mix-blend-mode:multiply" opacity="0.75">
<path fill-rule="evenodd" clip-rule="evenodd" d="M557.783 364.167C595.288 361.683 625.655 356.873 625.424 353.39C625.194 349.908 594.418 349.148 556.953 351.629C519.488 354.111 489.081 358.923 489.312 362.406C489.495 365.775 520.279 366.651 557.783 364.167Z" fill="#68667B" fill-opacity="0.5"/>
</g>
</g>
<g style="mix-blend-mode:multiply">
<g style="mix-blend-mode:multiply" opacity="0.75">
<path fill-rule="evenodd" clip-rule="evenodd" d="M504.492 394.33C538.748 390.893 565.583 377.429 564.246 364.098C562.909 350.767 533.897 342.905 499.678 346.337C465.458 349.77 438.586 363.238 439.924 376.569C441.18 389.46 470.236 397.766 504.492 394.33Z" fill="#68667B" fill-opacity="0.5"/>
</g>
</g>
<path fill-rule="evenodd" clip-rule="evenodd" d="M538.046 379.392C543.994 374.503 549.109 368.668 553.392 362.202C560.291 363.148 567.785 361.571 574.923 357.156C591.458 347.22 600.736 325.93 598 306.532C602.759 306.375 607.874 304.955 612.751 301.959C625.836 294.074 633.807 277.988 632.855 263.163C648.676 247.235 655.933 223.737 650.223 206.705C644.394 189.831 611.086 199.924 593.718 202.605C596.216 179.738 557.317 172.325 517.348 201.659C490.582 182.261 462.033 192.354 432.769 216.01C417.305 178.791 323.685 242.504 338.198 311.894C336.295 330.188 337.96 348.64 343.789 365.672C349.618 382.546 395.071 409.011 433.5 397C452 395.005 477.036 389.235 500.694 395.005C513.065 394.532 526.031 389.485 538.046 379.392Z" fill="#7CC076"/>
<path fill-rule="evenodd" clip-rule="evenodd" d="M338.316 312.052V312.21V312.367V312.525V312.683V312.84V312.998V313.156V313.471V313.629V313.944V314.102V314.733V315.206C338.316 315.521 338.316 315.995 338.197 316.31V316.783V317.729V317.887V318.676V318.833C343.55 333.027 351.402 345.012 361.037 354.159C369.007 373.399 386.613 385.227 407.906 383.019C409.928 382.861 411.951 382.546 413.854 382.073C441.214 387.908 466.195 382.704 472.5 372.611C476.782 374.188 481.66 374.661 486.656 374.188C506.641 372.138 524.365 353.528 528.767 331.292C529.599 330.661 530.432 330.03 531.265 329.242C537.212 324.353 542.328 318.518 546.61 312.052C553.51 312.998 561.004 311.421 568.141 307.005C584.676 297.07 593.955 275.78 591.219 256.382C596.096 256.224 601.092 254.805 605.97 251.809C619.055 243.923 627.025 227.838 626.073 213.013C630.594 208.44 634.519 203.236 637.612 197.716C624.765 195.823 605.851 201.028 594.193 202.762C596.691 179.895 557.792 172.483 517.822 201.816C491.057 182.419 462.507 192.512 433.244 216.167C417.423 178.949 323.922 242.662 338.316 312.052Z" fill="#A1E79B"/>
<path fill-rule="evenodd" clip-rule="evenodd" d="M387.694 296.682C376.021 296.778 368.934 282.602 371.984 265.01C374.95 247.285 387.018 232.766 398.692 232.67C410.366 232.574 417.453 246.751 414.402 264.342C411.352 281.934 399.501 296.502 387.694 296.682Z" fill="#BAFCB4"/>
<path fill-rule="evenodd" clip-rule="evenodd" d="M539.83 289.973C536.024 286.819 536.619 278.776 541.258 271.995C545.897 265.214 552.797 262.217 556.722 265.371C560.529 268.525 559.934 276.568 555.295 283.35C550.656 290.131 543.756 293.127 539.83 289.973Z" fill="#BAFCB4"/>
<path fill-rule="evenodd" clip-rule="evenodd" d="M453.23 252.44C445.735 246.289 446.925 230.676 455.966 217.429C465.006 204.182 478.33 198.347 485.824 204.497C493.318 210.49 492.129 226.261 483.088 239.508C474.047 252.755 460.724 258.59 453.23 252.44Z" fill="#BAFCB4"/>
<g filter="url(#filter1_d)">
<path fill-rule="evenodd" clip-rule="evenodd" d="M366.384 403.206L349 412C370.5 412 427.003 414.101 434.878 426.875C442.753 439.649 446.218 455.735 444.171 469.929L447.636 471.19C451.103 434.974 447.636 426.875 438.925 420.541C430.578 406.979 421.322 408.801 366.384 403.206Z" fill="#8D533B"/>
</g>
<path fill-rule="evenodd" clip-rule="evenodd" d="M479.136 521.025C471.103 529.541 455.983 524.81 445.431 510.301C434.878 495.792 432.831 477.183 440.706 468.509C448.738 459.993 463.858 464.724 474.411 479.233C485.121 493.742 487.168 512.509 479.136 521.025Z" fill="#7CC076"/>
<path fill-rule="evenodd" clip-rule="evenodd" d="M440.233 501.628C434.406 489.011 434.248 475.449 440.706 468.51C448.581 460.151 463.386 464.725 473.938 478.603C479.766 491.219 479.923 504.782 473.466 511.721C465.591 520.079 450.786 515.506 440.233 501.628Z" fill="#A1E79B"/>
<path fill-rule="evenodd" clip-rule="evenodd" d="M442.281 522.602C433.933 526.072 424.798 518.029 421.963 504.466C418.971 490.904 423.381 477.183 431.728 473.556C440.076 470.087 449.211 478.129 452.046 491.692C454.881 505.255 450.471 518.975 442.281 522.602Z" fill="#BAFCB4"/>
<path fill-rule="evenodd" clip-rule="evenodd" d="M525.199 249.916C517.704 243.766 518.894 227.995 527.935 214.748C536.975 201.343 550.537 195.508 558.031 201.659C565.525 207.809 564.336 223.579 555.295 236.827C546.254 250.074 532.812 256.067 525.199 249.916Z" fill="#BAFCB4"/>
<path fill-rule="evenodd" clip-rule="evenodd" d="M458.907 349.921C450.904 342.469 452.234 329.658 461.827 321.197C471.42 312.737 485.594 311.861 493.597 319.313C501.6 326.765 500.27 339.577 490.677 348.037C481.18 356.428 466.91 357.374 458.907 349.921Z" fill="#BAFCB4"/>
<path fill-rule="evenodd" clip-rule="evenodd" d="M376.502 354.002C360.919 341.385 363.536 308.898 382.212 281.457C400.889 254.017 428.725 241.873 444.308 254.49C459.891 267.106 457.274 299.593 438.598 327.034C419.803 354.632 391.967 366.618 376.502 354.002Z" fill="#BAFCB4"/>
<path fill-rule="evenodd" clip-rule="evenodd" d="M816.101 465.229C827.059 476.451 818.267 493.418 795.747 513.423C773.284 533.253 750.524 536.306 743.18 525.127C721.675 506.39 738.998 485.566 759.123 469.044C786.576 446.505 801.433 450.21 816.101 465.229Z" fill="#231F20"/>
<path fill-rule="evenodd" clip-rule="evenodd" d="M816.349 474.089C821.718 480.171 814.863 494.805 800.769 508.865C799.176 510.396 797.52 511.857 795.747 513.423C776.358 530.54 755.049 536.665 747.176 528.938C741.462 523.331 748.036 506.241 771.038 487.003C793.26 468.417 810.117 467.029 816.349 474.089Z" fill="#383431"/>
<path fill-rule="evenodd" clip-rule="evenodd" d="M812.273 477.812C817.334 483.544 810.088 499.643 791.243 514.04C772.399 528.438 760.26 529.701 754.871 525.503C749.364 521.409 757.064 503.025 772.33 490.294C787.417 477.597 807.213 472.08 812.273 477.812Z" fill="#A7A9AC"/>
<path fill-rule="evenodd" clip-rule="evenodd" d="M808.192 481.291C812.573 486.254 806.243 500.052 790.066 512.468C773.889 524.883 763.432 525.906 758.778 522.302C754.124 518.699 761.53 504.45 774.607 493.527C787.622 482.534 803.81 476.328 808.192 481.291Z" fill="#6D6E71"/>
<defs>
<filter id="filter0_f" x="644.928" y="125.592" width="119.304" height="96.7333" filterUnits="userSpaceOnUse" color-interpolation-filters="sRGB">
<feFlood flood-opacity="0" result="BackgroundImageFix"/>
<feBlend mode="normal" in="SourceGraphic" in2="BackgroundImageFix" result="shape"/>
<feGaussianBlur stdDeviation="2.5" result="effect1_foregroundBlur"/>
</filter>
<filter id="filter1_d" x="349" y="403.206" width="100.964" height="69.9847" filterUnits="userSpaceOnUse" color-interpolation-filters="sRGB">
<feFlood flood-opacity="0" result="BackgroundImageFix"/>
<feColorMatrix in="SourceAlpha" type="matrix" values="0 0 0 0 0 0 0 0 0 0 0 0 0 0 0 0 0 0 127 0"/>
<feOffset dx="1" dy="2"/>
<feColorMatrix type="matrix" values="0 0 0 0 0 0 0 0 0 0 0 0 0 0 0 0 0 0 0.25 0"/>
<feBlend mode="multiply" in2="BackgroundImageFix" result="effect1_dropShadow"/>
<feBlend mode="normal" in="SourceGraphic" in2="effect1_dropShadow" result="shape"/>
</filter>
<linearGradient id="paint0_linear" x1="646.752" y1="197.857" x2="300.165" y2="380.251" gradientUnits="userSpaceOnUse">
<stop stop-color="#FFD9A1" stop-opacity="0.0416667"/>
<stop offset="0.119792" stop-color="#FFD9A1"/>
<stop offset="1" stop-color="#FFD9A1" stop-opacity="0"/>
</linearGradient>
<linearGradient id="paint1_linear" x1="611.498" y1="189.174" x2="146.623" y2="234.437" gradientUnits="userSpaceOnUse">
<stop stop-color="#FFD9A1" stop-opacity="0.0416667"/>
<stop offset="0.119792" stop-color="#FFD9A1"/>
<stop offset="1" stop-color="#FFD9A1" stop-opacity="0"/>
</linearGradient>
<linearGradient id="paint2_linear" x1="730.148" y1="212.343" x2="901.943" y2="381.856" gradientUnits="userSpaceOnUse">
<stop stop-color="#FFD9A1" stop-opacity="0.0416667"/>
<stop offset="0.119792" stop-color="#FFD9A1"/>
<stop offset="1" stop-color="#FFD9A1" stop-opacity="0"/>
</linearGradient>
<linearGradient id="paint3_linear" x1="655.913" y1="218.446" x2="516.191" y2="423.085" gradientUnits="userSpaceOnUse">
<stop stop-color="#FFD9A1" stop-opacity="0.0416667"/>
<stop offset="0.119792" stop-color="#FFD9A1"/>
<stop offset="1" stop-color="#FFD9A1" stop-opacity="0"/>
</linearGradient>
<clipPath id="clip0">
<rect width="20" height="32" fill="white" transform="translate(757 463)"/>
</clipPath>
</defs>
</svg>
