<svg width="964" height="705" viewBox="0 0 964 705" fill="none" xmlns="http://www.w3.org/2000/svg">
<path d="M180.212 258.202C203.635 355.857 102.767 428.678 148.04 516.818C196.923 611.984 250.397 618.665 394.059 601.569C465.176 584.416 522.581 586.628 593.357 597.81C874.823 617.611 873.055 585.292 914.805 443.774C992.366 180.871 825.135 231.253 712.902 164.499C533.801 57.9723 126.152 32.8148 180.212 258.202Z" fill="#BBDEED"/>
<circle cx="707.149" cy="160.591" r="56.5" transform="rotate(4.56374 707.149 160.591)" fill="#FFE2B8"/>
<g filter="url(#filter0_f)">
<path fill-rule="evenodd" clip-rule="evenodd" d="M740.032 207.356C720.039 225.322 677.534 217.415 661.68 196.086C643.116 177.169 648.583 145.487 657.897 135.487C672.165 120.169 725.161 143.889 743.397 162.987C761.633 182.085 766.881 178.902 740.032 207.356Z" fill="#FFE2B8"/>
</g>
<mask id="mask0" mask-type="alpha" maskUnits="userSpaceOnUse" x="136" y="85" width="799" height="524">
<path d="M180.212 258.202C203.635 355.857 102.767 428.678 148.04 516.818C196.923 611.984 250.397 618.665 394.059 601.569C465.176 584.416 522.581 586.628 593.357 597.81C874.823 617.611 873.055 585.292 914.805 443.774C992.366 180.871 825.135 231.253 712.902 164.499C533.801 57.9723 126.152 32.8148 180.212 258.202Z" fill="#E6F8FF"/>
</mask>
<g mask="url(#mask0)">
<path d="M341.514 339.043L674.285 185.167L294.96 430.983L341.514 339.043Z" fill="url(#paint0_linear)"/>
<path d="M186.397 248.987L647.397 184.987L117.313 307.797L186.397 248.987Z" fill="url(#paint1_linear)"/>
<path d="M838.168 396.461L719.777 195.205L905.827 401.602L838.168 396.461Z" fill="url(#paint2_linear)"/>
<path d="M500.064 369.335L669.797 204.727L505.06 437.109L500.064 369.335Z" fill="url(#paint3_linear)"/>
<path fill-rule="evenodd" clip-rule="evenodd" d="M144.403 251.329L418.849 251.739C437.473 251.739 564.831 245.58 519.397 255.64C493.61 261.388 338.419 271.243 307.72 272.269C268.835 273.501 885.673 274.322 585.645 292.594C493.344 298.137 674.057 303.064 687.564 302.859C892.017 300.19 1005.19 303.68 1065.36 302.859V267.547C1059.43 267.342 1053.08 267.342 1046.33 267.342C1039.78 267.342 966.512 267.342 975.517 264.468C979.406 263.236 1041.42 258.309 1020.13 255.64C986.978 251.534 922.803 262.004 887.397 262.004C807.903 262.004 802.172 245.991 748.143 245.991C743.845 245.991 632.055 245.786 633.897 244.349C640.241 239.627 793.986 240.243 807.903 241.269C891.812 247.428 980.224 242.296 1065.16 239.832L964.397 222.487L118.473 244.349L144.403 251.329ZM156.897 149.487L381.996 136.083C426.666 134.425 207.579 154.938 401.542 154.938C554.325 156.356 751.879 168.021 724.607 169.004C693.909 170.03 602.684 166.739 576.897 172.487C531.463 182.547 621.273 182.487 639.897 182.487L1065.36 204.52L144.403 216.633C156.791 205.122 266.789 208.234 266.789 208.234C266.789 208.234 2897.2 191.381 428.848 191.381C393.442 191.381 141.665 202.626 108.511 198.315C87.2261 195.646 378.108 189.328 381.996 188.097C444.959 179.495 202.731 179.495 195.977 179.495C175.921 179.7 287.289 169.987 266.789 161.987C246.289 153.987 156.897 149.487 156.897 149.487Z" fill="#E6F8FF"/>
<path fill-rule="evenodd" clip-rule="evenodd" d="M915.065 402.883C915.065 402.41 914.682 402.027 914.209 402.027C913.982 402.027 913.768 401.931 913.584 401.798C913.463 401.71 913.335 401.635 913.205 401.57C912.665 401.305 912.159 400.813 912.159 400.212C912.159 399.611 912.646 399.123 913.247 399.123H913.491C914.227 399.123 914.823 398.527 914.823 397.791V392.471C914.823 391.735 914.227 391.139 913.491 391.139C912.755 391.139 912.159 390.542 912.159 389.807V389.687C912.159 388.885 912.809 388.235 913.611 388.235C914.414 388.235 915.065 387.585 915.065 386.782V385.576C915.065 384.773 914.414 384.122 913.611 384.122C912.809 384.122 912.159 383.472 912.159 382.671V382.551C912.159 381.815 912.755 381.219 913.491 381.219C914.227 381.219 914.823 380.622 914.823 379.887V374.567C914.823 373.831 914.227 373.234 913.491 373.234C912.755 373.234 912.159 372.638 912.159 371.902V371.783C912.159 370.981 912.809 370.331 913.611 370.331C914.414 370.331 915.065 369.68 915.065 368.878V367.671C915.065 366.869 914.414 366.218 913.611 366.218C912.809 366.218 912.159 365.568 912.159 364.766V364.647C912.159 363.911 912.755 363.315 913.491 363.315C914.227 363.315 914.823 362.718 914.823 361.982V356.662C914.823 355.927 914.227 355.33 913.491 355.33C912.755 355.33 912.159 354.734 912.159 353.998V353.878C912.159 353.077 912.809 352.427 913.611 352.427C914.414 352.427 915.065 351.776 915.065 350.973V349.767C915.065 348.964 914.414 348.314 913.611 348.314C912.809 348.314 912.159 347.664 912.159 346.862V346.742C912.159 346.007 912.755 345.41 913.491 345.41C914.227 345.41 914.823 344.814 914.823 344.078V338.758C914.823 338.022 914.227 337.426 913.491 337.426C912.755 337.426 912.159 336.829 912.159 336.094V335.974C912.159 335.172 912.809 334.522 913.611 334.522C914.414 334.522 915.065 333.872 915.065 333.069V332.105C915.065 331.302 914.414 330.651 913.611 330.651C912.809 330.651 912.159 330.001 912.159 329.2V329.08C912.159 328.344 912.755 327.748 913.491 327.748C914.227 327.748 914.823 327.151 914.823 326.416V321.096C914.823 320.36 914.227 319.763 913.491 319.763C912.755 319.763 912.159 319.167 912.159 318.431V318.312C912.159 317.51 912.809 316.86 913.611 316.86C914.414 316.86 915.065 316.209 915.065 315.407V314.2C915.065 313.398 914.415 312.747 913.612 312.747C912.809 312.747 912.159 312.096 912.159 311.294V307.303C912.159 304.296 909.721 301.859 906.715 301.859H906.224C902.947 301.859 900.29 299.202 900.29 295.925V291.823C900.29 289.482 898.392 287.584 896.051 287.584C893.71 287.584 891.812 285.686 891.812 283.345V275.922C891.812 272.608 889.126 269.922 885.812 269.922H881.396H880.185H875.77C872.456 269.922 869.77 272.608 869.77 275.922V283.345C869.77 285.686 867.872 287.584 865.531 287.584C863.19 287.584 861.292 289.482 861.292 291.823V295.925C861.292 299.202 858.635 301.859 855.358 301.859C852.08 301.859 849.423 304.516 849.423 307.794V314.106C849.423 317.38 846.795 320.041 843.523 320.167C832.354 320.595 824.716 321.631 824.716 322.667V327.264V327.022V330.409V330.651V336.458C824.716 336.458 824.716 336.458 824.716 336.216V339.361V339.603V345.41C824.716 345.41 824.716 345.41 824.716 345.168V348.314V348.556V354.362C824.716 354.362 824.716 354.362 824.716 354.12V357.266V357.508V363.315C824.716 363.315 824.716 363.315 824.716 363.073V366.218V371.541V374.686V374.928V380.735V380.493V383.638V383.88V389.687V392.832V393.074V393.19C824.716 395.665 822.71 397.671 820.235 397.671C817.761 397.671 815.754 395.665 815.754 393.19V306.165C815.754 302.852 813.012 300.165 809.699 300.165C806.385 300.165 803.643 297.479 803.643 294.165V256.983C803.643 253.974 801.203 251.533 798.193 251.533C795.183 251.533 792.743 249.093 792.743 246.083V239.629C792.743 236.315 790.057 233.629 786.743 233.629H781.061C777.747 233.629 775.061 236.315 775.061 239.629V246.083C775.061 249.093 772.621 251.533 769.611 251.533C766.601 251.533 764.161 253.974 764.161 256.983V294.231C764.161 297.509 761.504 300.165 758.226 300.165H753.502C752.834 300.165 752.292 300.707 752.292 301.375C752.292 302.043 751.75 302.585 751.082 302.585H750.595C749.793 302.585 749.143 303.235 749.143 304.037C749.143 304.838 749.793 305.488 750.595 305.488H750.718C751.587 305.488 752.292 306.193 752.292 307.063V308.269C752.292 309.139 751.587 309.843 750.718 309.843H750.595C749.793 309.843 749.143 310.493 749.143 311.295C749.143 312.097 749.793 312.747 750.595 312.747H750.718C751.587 312.747 752.292 313.452 752.292 314.321V315.528C752.292 316.397 751.587 317.102 750.718 317.102H750.595C749.793 317.102 749.143 317.752 749.143 318.554C749.143 319.355 749.793 320.005 750.595 320.005H750.718C751.587 320.005 752.292 320.71 752.292 321.58V322.786C752.292 323.656 751.587 324.361 750.718 324.361C749.848 324.361 749.143 325.065 749.143 325.935V326.415C749.143 327.285 749.848 327.99 750.718 327.99C751.587 327.99 752.292 328.695 752.292 329.564V330.77C752.292 331.64 751.587 332.345 750.718 332.345H750.595C749.793 332.345 749.143 332.995 749.143 333.797C749.143 334.598 749.793 335.248 750.595 335.248H750.718C751.587 335.248 752.292 335.953 752.292 336.823V338.029C752.292 338.898 751.587 339.603 750.718 339.603H750.595C749.793 339.603 749.143 340.253 749.143 341.055C749.143 341.857 749.793 342.507 750.595 342.507H750.718C751.587 342.507 752.292 343.212 752.292 344.081V345.771C752.292 346.641 751.587 347.346 750.718 347.346H750.595C749.793 347.346 749.143 347.996 749.143 348.798C749.143 349.599 749.793 350.249 750.595 350.249H750.718C751.587 350.249 752.292 350.954 752.292 351.824V353.03C752.292 353.899 751.587 354.604 750.718 354.604H750.595C749.793 354.604 749.143 355.254 749.143 356.056C749.143 356.858 749.793 357.508 750.595 357.508H750.718C751.587 357.508 752.292 358.213 752.292 359.082V360.288C752.292 361.158 751.587 361.863 750.718 361.863H750.595C749.793 361.863 749.143 362.513 749.143 363.315C749.143 364.116 749.793 364.766 750.595 364.766H750.718C751.587 364.766 752.292 365.471 752.292 366.341V367.547C752.292 368.416 751.587 369.121 750.718 369.121H750.595C749.793 369.121 749.143 369.771 749.143 370.573C749.143 371.375 749.793 372.025 750.595 372.025H750.718C751.587 372.025 752.292 372.73 752.292 373.599V374.805C752.292 375.675 751.587 376.38 750.718 376.38H750.595C749.793 376.38 749.143 377.03 749.143 377.832C749.143 378.633 749.793 379.283 750.595 379.283H750.718C751.587 379.283 752.292 379.988 752.292 380.858V382.064C752.292 382.933 751.587 383.638 750.718 383.638H750.595C749.793 383.638 749.143 384.288 749.143 385.09C749.143 385.892 749.793 386.542 750.595 386.542H751.445C751.913 386.542 752.292 386.921 752.292 387.389C752.292 387.856 751.913 388.235 751.445 388.235H746.963C744.02 388.235 741.634 390.621 741.634 393.564V441.271C741.634 444.585 744.321 447.271 747.634 447.271H909.065C912.379 447.271 915.065 444.585 915.065 441.271V402.883Z" fill="#E7EEF6"/>
<path fill-rule="evenodd" clip-rule="evenodd" d="M915.065 305.734C915.065 303.861 913.547 302.343 911.674 302.343C909.801 302.343 908.283 300.825 908.283 298.952V292.307C908.283 289.966 906.385 288.068 904.044 288.068C901.703 288.068 899.805 286.17 899.805 283.829V276.406C899.805 273.092 897.119 270.406 893.805 270.406H889.148H887.936H883.279C879.965 270.406 877.279 273.092 877.279 276.406V283.95C877.279 286.224 875.435 288.068 873.161 288.068C870.887 288.068 869.043 289.912 869.043 292.186V296.409C869.043 299.686 866.386 302.343 863.109 302.343C859.831 302.343 857.174 305 857.174 308.277V314.59C857.174 317.864 854.546 320.525 851.274 320.651C840.105 321.079 832.468 322.115 832.468 323.151V327.748V327.506V330.651C832.468 330.651 832.468 330.651 832.468 330.893V336.7C832.468 336.7 832.468 336.7 832.468 336.458V339.603C832.468 339.603 832.468 339.603 832.468 339.845V345.652V345.41V348.556V348.798V354.604C832.468 354.604 832.468 354.604 832.468 354.362V357.508C832.468 357.508 832.468 357.508 832.468 357.75V363.556C832.468 363.556 832.468 363.556 832.468 363.315V366.46V371.541V374.686V374.928V380.735V380.493V383.638V383.88V389.687V392.832V393.074C832.468 395.613 830.407 397.671 827.868 397.671C825.326 397.671 823.263 395.611 823.263 393.069V306.165C823.263 302.852 820.521 300.165 817.208 300.165C813.894 300.165 811.152 297.479 811.152 294.165V257.105C811.152 254.028 808.658 251.533 805.581 251.533C802.504 251.533 800.01 249.039 800.01 245.962V239.629C800.01 236.315 797.323 233.629 794.01 233.629H788.085C784.772 233.629 782.085 236.315 782.085 239.629V245.962C782.085 249.039 779.591 251.533 776.514 251.533C773.437 251.533 770.943 254.028 770.943 257.105V294.165C770.943 297.479 768.257 300.165 764.943 300.165H760.042C759.374 300.165 758.832 300.707 758.832 301.375C758.832 302.043 758.29 302.585 757.622 302.585H757.135C756.333 302.585 755.683 303.235 755.683 304.037C755.683 304.838 756.333 305.488 757.135 305.488H757.258C758.127 305.488 758.832 306.193 758.832 307.063V308.269C758.832 309.139 758.127 309.843 757.258 309.843H757.135C756.333 309.843 755.683 310.493 755.683 311.295C755.683 312.097 756.333 312.747 757.135 312.747H757.258C758.127 312.747 758.832 313.452 758.832 314.321V315.528C758.832 316.397 758.127 317.102 757.258 317.102H757.135C756.333 317.102 755.683 317.752 755.683 318.554C755.683 319.355 756.333 320.005 757.135 320.005H757.258C758.127 320.005 758.832 320.71 758.832 321.58V322.786C758.832 323.656 758.127 324.361 757.258 324.361C756.388 324.361 755.683 325.065 755.683 325.935V326.415C755.683 327.285 756.388 327.99 757.258 327.99C758.127 327.99 758.832 328.695 758.832 329.564V330.77C758.832 331.64 758.127 332.345 757.258 332.345H757.135C756.333 332.345 755.683 332.995 755.683 333.797C755.683 334.598 756.333 335.248 757.135 335.248H757.258C758.127 335.248 758.832 335.953 758.832 336.823V338.029C758.832 338.898 758.127 339.603 757.258 339.603H757.135C756.333 339.603 755.683 340.253 755.683 341.055C755.683 341.857 756.333 342.507 757.135 342.507H757.258C758.127 342.507 758.832 343.212 758.832 344.081V345.771C758.832 346.641 758.127 347.346 757.258 347.346H757.135C756.333 347.346 755.683 347.996 755.683 348.798C755.683 349.599 756.333 350.249 757.135 350.249H757.258C758.127 350.249 758.832 350.954 758.832 351.824V353.03C758.832 353.899 758.127 354.604 757.258 354.604H757.135C756.333 354.604 755.683 355.254 755.683 356.056C755.683 356.858 756.333 357.508 757.135 357.508H757.258C758.127 357.508 758.832 358.213 758.832 359.082V360.288C758.832 361.158 758.127 361.863 757.258 361.863H757.135C756.333 361.863 755.683 362.513 755.683 363.315C755.683 364.116 756.333 364.766 757.135 364.766H757.258C758.127 364.766 758.832 365.471 758.832 366.341V367.547C758.832 368.416 758.127 369.121 757.258 369.121H757.135C756.333 369.121 755.683 369.771 755.683 370.573C755.683 371.375 756.333 372.025 757.135 372.025H757.258C758.127 372.025 758.832 372.73 758.832 373.599V374.805C758.832 375.675 758.127 376.38 757.258 376.38H757.135C756.333 376.38 755.683 377.03 755.683 377.832C755.683 378.633 756.333 379.283 757.135 379.283H757.258C758.127 379.283 758.832 379.988 758.832 380.858V382.064C758.832 382.933 758.127 383.638 757.258 383.638H757.135C756.333 383.638 755.683 384.288 755.683 385.09C755.683 385.892 756.333 386.542 757.135 386.542H757.985C758.453 386.542 758.832 386.921 758.832 387.389C758.832 387.856 758.453 388.235 757.985 388.235H753.503C750.56 388.235 748.174 390.621 748.174 393.564V441.271C748.174 444.585 750.86 447.271 754.174 447.271H909.065C912.379 447.271 915.065 444.585 915.065 441.271V305.734Z" fill="#D8DEEB"/>
<path fill-rule="evenodd" clip-rule="evenodd" d="M792.259 410.495C790.321 410.495 788.868 409.043 788.868 407.107V404.446C788.868 404.133 788.977 403.831 789.161 403.577C789.98 402.451 790.563 401.15 790.563 399.849C790.563 396.462 787.899 387.751 784.508 387.751C781.117 387.751 778.452 396.462 778.452 399.849C778.452 400.532 777.89 401.301 777.207 401.301H774.202C772.67 401.301 771.428 400.058 771.428 398.526V317.831C771.428 316.226 770.126 314.924 768.521 314.924C766.916 314.924 765.614 313.623 765.614 312.018V309.847C765.614 308.108 764.204 306.698 762.465 306.698H761.736C760.4 306.698 759.317 305.615 759.317 304.278V301.256C759.317 300.253 758.503 299.439 757.5 299.439C756.497 299.439 755.683 298.626 755.683 297.623V295.447C755.683 293.242 753.896 291.455 751.691 291.455H748.049C745.844 291.455 744.056 293.242 744.056 295.447V297.623C744.056 298.626 743.243 299.439 742.24 299.439C741.236 299.439 740.423 300.253 740.423 301.256V303.791C740.423 305.53 739.013 306.94 737.274 306.94C735.535 306.94 734.125 308.35 734.125 310.089V312.989C734.125 314.191 733.15 315.166 731.948 315.166H730.855C729.049 315.166 727.585 316.63 727.585 318.436V330.53C727.585 339.015 720.707 345.894 712.222 345.894H689.055C680.503 345.894 673.57 338.961 673.57 330.409V318.315C673.57 316.442 672.052 314.924 670.179 314.924C668.306 314.924 666.788 313.406 666.788 311.533V308.03C666.788 307.294 666.191 306.698 665.455 306.698C664.72 306.698 664.123 306.101 664.123 305.366V305.004C664.123 303.668 663.04 302.585 661.704 302.585H655.885C654.549 302.585 653.465 303.668 653.465 305.004C653.465 305.94 652.707 306.698 651.772 306.698H649.588C648.653 306.698 647.894 305.94 647.894 305.004C647.894 303.668 646.811 302.585 645.475 302.585H639.777C638.642 302.585 637.721 303.506 637.721 304.641V305.366C637.721 306.101 637.124 306.698 636.389 306.698C635.653 306.698 635.056 307.294 635.056 308.03V312.989C635.056 314.058 634.19 314.924 633.121 314.924H632.876C631.672 314.924 630.696 315.9 630.696 317.104V414.335C630.696 423.171 637.86 430.335 646.696 430.335H790.563C793.228 430.335 795.65 428.157 795.65 425.254V420.415V420.173V413.64C795.65 411.946 794.196 410.495 792.259 410.495Z" fill="#E7EEF6"/>
<path fill-rule="evenodd" clip-rule="evenodd" d="M799.959 410.495C798.022 410.495 796.568 409.043 796.568 407.107V404.446C796.568 404.133 796.678 403.831 796.862 403.577C797.68 402.451 798.264 401.15 798.264 399.849C798.264 396.462 795.599 387.751 792.208 387.751C788.817 387.751 786.153 396.462 786.153 399.849C786.153 400.532 785.591 401.301 784.908 401.301H781.903C780.371 401.301 779.128 400.058 779.128 398.526V317.831C779.128 316.226 777.827 314.924 776.222 314.924C774.616 314.924 773.315 313.623 773.315 312.018V309.847C773.315 308.108 771.905 306.698 770.166 306.698H769.437C768.1 306.698 767.017 305.615 767.017 304.278V301.256C767.017 300.253 766.204 299.439 765.2 299.439C764.197 299.439 763.384 298.626 763.384 297.623V295.447C763.384 293.242 761.596 291.455 759.392 291.455H755.749C753.544 291.455 751.757 293.242 751.757 295.447V297.623C751.757 298.626 750.944 299.439 749.94 299.439C748.937 299.439 748.124 300.253 748.124 301.256V303.791C748.124 305.53 746.714 306.94 744.975 306.94C743.236 306.94 741.826 308.35 741.826 310.089V312.989C741.826 314.191 740.851 315.166 739.648 315.166H738.556C736.75 315.166 735.286 316.63 735.286 318.436V330.53C735.286 339.015 728.407 345.894 719.922 345.894H696.755C688.203 345.894 681.27 338.961 681.27 330.409V318.315C681.27 316.442 679.752 314.924 677.879 314.924C676.006 314.924 674.488 313.406 674.488 311.533V308.03C674.488 307.294 673.892 306.698 673.156 306.698C672.42 306.698 671.824 306.101 671.824 305.366V305.004C671.824 303.668 670.74 302.585 669.404 302.585H663.585C662.249 302.585 661.166 303.668 661.166 305.004C661.166 305.94 660.408 306.698 659.472 306.698H657.289C656.353 306.698 655.595 305.94 655.595 305.004C655.595 303.668 654.512 302.585 653.175 302.585H647.478C646.342 302.585 645.422 303.506 645.422 304.641V305.366C645.422 306.101 644.825 306.698 644.089 306.698C643.354 306.698 642.757 307.294 642.757 308.03V312.989C642.757 314.058 641.89 314.924 640.821 314.924H640.577C639.373 314.924 638.397 315.9 638.397 317.104V414.335C638.397 423.171 645.561 430.335 654.397 430.335H798.264C800.928 430.335 803.35 428.157 803.35 425.254V420.415V420.173V413.64C803.35 411.946 801.897 410.495 799.959 410.495Z" fill="#D8DEEB"/>
<path fill-rule="evenodd" clip-rule="evenodd" d="M197.993 385.363C193.27 384.419 187.602 385.127 182.171 387.725C180.754 384.891 178.865 383.002 176.031 382.057C170.127 380.168 163.279 384.419 159.5 391.975C157.611 391.031 155.486 390.559 153.124 390.086C143.678 388.669 135.177 392.212 133.052 398.588C132.107 398.588 130.926 398.352 129.982 398.352C129.982 398.115 129.745 397.879 129.745 397.643C127.856 392.684 121.716 390.086 114.868 390.559C116.049 387.961 116.285 385.127 115.34 382.529C112.743 376.153 102.824 373.792 93.1421 377.57C91.9614 378.043 91.0168 378.515 90.0722 378.987C86.2938 371.43 79.6816 365.999 71.8886 365.054V447.707C75.9032 448.888 80.39 449.596 85.113 449.596C93.6144 449.596 101.171 447.471 107.311 444.165C112.979 446.998 120.063 448.652 127.62 448.652C136.121 448.652 143.678 446.526 149.818 443.22C155.486 446.054 162.57 447.707 170.127 447.707C174.614 447.707 178.865 446.998 182.879 446.054C184.768 446.998 187.13 447.471 189.255 447.943V456.681C190.908 456.208 192.561 455.736 194.214 455.028C198.701 456.208 203.424 456.917 208.62 456.917C217.121 456.917 225.15 455.028 231.526 451.721C238.374 455.5 247.112 457.861 256.558 457.861C265.059 457.861 273.089 455.972 279.465 452.666C286.313 456.444 295.051 458.806 304.497 458.806C311.109 458.806 317.249 457.625 322.68 455.736C329.292 459.042 337.085 460.931 345.823 460.931C350.074 460.931 354.088 460.459 357.866 459.514C363.298 459.042 368.493 457.625 373.216 455.736C377.703 457.625 382.898 459.042 388.566 459.514C392.344 460.459 396.359 460.931 400.61 460.931C409.111 460.931 417.14 459.042 423.752 455.736C429.184 457.625 435.324 458.806 441.936 458.806C451.382 458.806 460.119 456.444 466.968 452.666C473.58 455.972 481.373 457.861 489.874 457.861C499.32 457.861 508.058 455.5 514.906 451.721C521.519 455.028 529.311 456.917 537.813 456.917C542.772 456.917 547.731 456.208 552.218 455.028C553.871 455.736 555.524 456.208 557.177 456.681V447.943C559.539 447.471 561.664 446.762 563.553 446.054C567.568 447.235 571.818 447.707 576.305 447.707C583.862 447.707 590.947 446.054 596.614 443.22C602.754 446.762 610.311 448.652 618.812 448.652C626.369 448.652 631.328 452.666 637.232 449.832C643.372 453.375 653.054 449.596 661.556 449.596C662.736 449.596 663.681 449.596 664.862 449.596C666.042 449.596 666.987 449.596 668.168 449.596C676.669 449.596 686.351 453.138 692.491 449.832C698.159 452.666 703.354 448.652 710.911 448.652C719.412 448.652 726.969 446.526 733.109 443.22C738.777 446.054 745.861 447.707 753.418 447.707C757.905 447.707 762.156 446.998 766.17 446.054C768.059 446.998 770.421 447.707 772.546 447.943V456.681C774.199 456.208 775.852 455.736 777.505 455.028C781.992 456.208 786.715 456.917 791.91 456.917C800.412 456.917 808.441 455.028 814.817 451.721C821.665 455.5 830.403 457.861 839.849 457.861C848.35 457.861 856.379 455.972 862.755 452.666C869.604 456.444 878.341 458.806 887.787 458.806C894.4 458.806 900.54 457.625 905.971 455.736C912.583 459.042 920.376 460.931 929.114 460.931C933.364 460.931 937.379 460.459 941.157 459.514C946.589 459.042 951.784 457.625 956.507 455.736C960.994 457.625 966.189 459.042 971.857 459.514C975.635 460.459 979.65 460.931 983.901 460.931C992.402 460.931 1000.43 459.042 1007.04 455.736C1012.47 457.625 1018.61 458.806 1025.23 458.806C1034.67 458.806 1043.41 456.444 1050.26 452.666C1056.87 455.972 1064.66 457.861 1073.17 457.861C1082.61 457.861 1091.35 455.5 1098.2 451.721C1104.81 455.028 1112.6 456.917 1121.1 456.917C1125.83 456.917 1130.55 456.208 1134.8 455.264V384.891C1133.86 384.891 1132.68 385.127 1131.73 385.363C1130.55 384.183 1129.13 383.238 1127.48 382.766C1120.87 380.64 1113.07 385.599 1108.82 394.101C1106.7 393.156 1104.34 392.448 1101.74 391.975C1091.11 390.322 1081.43 394.573 1079.07 401.421C1077.89 401.185 1076.71 401.185 1075.53 401.185C1075.53 400.949 1075.29 400.713 1075.29 400.241C1073.17 394.573 1066.32 391.739 1058.52 392.448C1059.7 389.378 1059.94 386.308 1059 383.474C1056.16 375.917 1044.83 373.32 1033.96 377.57C1032.78 378.043 1031.6 378.515 1030.42 379.223C1026.17 370.25 1018.61 364.11 1009.4 363.401C1006.81 363.165 1004.21 363.401 1001.61 364.11C1004.45 353.955 1001.61 344.037 994.527 341.439C988.151 339.078 980.594 343.092 975.871 350.885C973.038 349.232 969.968 348.288 966.662 348.052C963.119 347.815 959.813 348.288 956.507 349.468C941.157 343.565 902.665 333.883 911.402 363.874C908.805 363.165 906.207 362.929 903.609 363.165C894.4 363.874 886.607 370.25 882.592 378.987C881.411 378.279 880.231 377.806 879.05 377.334C868.187 373.083 857.088 375.681 854.018 383.238C852.837 386.072 853.073 389.142 854.49 392.212C846.697 391.503 839.849 394.573 837.724 400.005C837.724 400.241 837.487 400.477 837.487 400.949C836.307 400.949 835.126 401.185 833.945 401.185C831.584 394.101 821.902 390.086 811.275 391.739C808.677 392.212 806.316 392.92 804.19 393.865C799.94 385.363 792.147 380.404 785.534 382.529C783.881 383.002 782.464 383.946 781.284 385.127C776.561 384.183 770.893 384.891 765.462 387.489C764.045 384.655 762.156 382.766 759.322 381.821C753.418 379.932 744.444 373.556 740.666 381.113C732.637 377.57 720.121 374.5 720.121 388.906C716.342 385.363 713.036 388.906 713.036 391.031C711.147 384.655 708.549 384.655 702.646 385.127C709.022 370.014 691.074 358.914 677.614 371.667C671.474 358.442 662.972 365.291 656.833 378.515C655.888 378.043 654.707 377.57 653.763 377.098C644.08 373.32 634.162 375.681 631.564 382.293C630.62 384.891 630.856 387.489 632.037 390.322C625.188 389.85 619.049 392.448 617.159 397.407C617.159 397.643 616.923 397.879 616.923 398.115C615.979 398.115 614.798 398.115 613.853 398.352C611.728 392.212 603.226 388.433 593.78 389.85C591.419 390.322 589.294 390.795 587.404 391.739C583.626 384.183 576.778 379.696 570.874 381.821C568.276 382.766 566.151 384.655 564.734 387.489C559.303 384.891 553.635 384.183 548.912 385.127C547.731 383.946 546.314 383.002 544.661 382.529C538.049 380.404 530.256 385.363 526.005 393.865C523.88 392.92 521.519 392.212 518.921 391.739C508.294 390.086 498.612 394.337 496.25 401.185C495.07 400.949 493.889 400.949 492.708 400.949C492.708 400.713 492.472 400.477 492.472 400.005C490.347 394.337 483.498 391.503 475.705 392.212C476.886 389.142 477.122 386.072 476.178 383.238C473.344 375.681 462.009 373.083 451.146 377.334C449.965 377.806 448.784 378.279 447.604 378.987C443.353 370.014 435.796 363.874 426.586 363.165C423.988 362.929 421.391 363.165 418.793 363.874C427.531 333.646 389.038 343.565 373.689 349.468C370.382 348.288 367.076 347.815 363.534 348.052C360.228 348.288 357.158 349.232 354.324 350.885C349.601 343.092 342.044 339.078 335.668 341.439C328.584 344.037 325.75 353.955 328.584 364.11C325.986 363.401 323.389 363.165 320.791 363.401C311.581 364.11 304.024 370.486 299.774 379.223C298.593 378.515 297.412 378.043 296.231 377.57C285.368 373.32 274.269 375.917 271.199 383.474C270.019 386.308 270.255 389.378 271.672 392.448C263.879 391.739 257.03 394.809 254.905 400.241C254.905 400.477 254.669 400.713 254.669 401.185C253.488 401.185 252.307 401.421 251.127 401.421C248.765 394.337 239.083 390.322 228.456 391.975C225.859 392.448 223.497 393.156 221.372 394.101C217.121 385.599 209.328 380.64 202.716 382.766C200.827 383.238 199.41 384.183 197.993 385.363Z" fill="#AFDDAB"/>
<path d="M963.397 636.987L997.397 443.987C997.397 443.987 899.397 428.987 857.397 428.987C622.301 428.987 512.25 418.304 277.397 428.987C207.835 432.152 99.3971 439.487 99.3971 439.487V636.987H963.397Z" fill="#7CC076"/>
<path d="M1225.4 479.987H68.3972V645.195H1225.4V479.987Z" fill="#C4CDDF"/>
<path d="M1225.4 487.987H68.3972V502.924H1225.4V487.987Z" fill="#767D86"/>
<path d="M1225.4 479.916H68.3972V487.82H1225.4V479.916Z" fill="#E7EEF6"/>
<path d="M1225.4 484.987H68.3972V487.82H1225.4V484.987Z" fill="#CCCCCC"/>
<path d="M151.187 566.807L182.555 572.987H68.3972V566.807H151.187ZM1225.4 572.987V566.807H1176.55L1207.91 572.987H1225.4ZM1112.53 566.807L1143.89 572.987H1015.59L984.227 566.807H1112.53ZM920.206 566.807L951.574 572.987H823.275L791.908 566.807H920.206ZM727.887 566.807L759.255 572.987H630.956L599.589 566.807H727.887ZM535.825 566.807L567.193 572.987H438.894L407.527 566.807H535.825ZM343.506 566.807L374.874 572.987H246.575L215.208 566.807H343.506Z" fill="white"/>
</g>
<g style="mix-blend-mode:multiply">
<g style="mix-blend-mode:multiply" opacity="0.75">
<path fill-rule="evenodd" clip-rule="evenodd" d="M563.025 534.74C711.705 534.74 832.822 530.955 832.822 526.224C832.822 521.493 711.547 517.708 563.025 517.708C414.502 517.708 293.227 521.493 293.227 526.224C293.07 530.798 414.345 534.74 563.025 534.74Z" fill="#68667B"/>
</g>
</g>
<path fill-rule="evenodd" clip-rule="evenodd" d="M623.505 433.967C649.965 433.178 661.62 450.999 661.777 481.121C661.777 511.085 640.2 530.167 617.835 528.274C595.47 526.382 577.987 507.142 579.562 481.121C581.137 455.099 597.045 434.755 623.505 433.967Z" fill="#231F20"/>
<path fill-rule="evenodd" clip-rule="evenodd" d="M635.002 439.644C648.705 439.644 659.572 454.469 661.619 474.339C661.777 476.547 661.777 478.755 661.777 481.121C661.777 506.984 645.712 527.013 627.127 527.801C613.11 524.963 603.187 506.353 604.132 483.959C605.234 459.515 619.095 439.644 635.002 439.644Z" fill="#383431"/>
<path fill-rule="evenodd" clip-rule="evenodd" d="M635.16 445.164C648.075 445.164 660.359 461.25 657.524 484.905C654.689 508.561 642.72 518.497 631.38 519.758C620.04 521.178 608.542 503.672 609.487 483.802C610.275 464.088 622.245 445.164 635.16 445.164Z" fill="#A7A9AC"/>
<path fill-rule="evenodd" clip-rule="evenodd" d="M635.002 450.526C646.185 450.526 656.58 464.404 654.217 484.748C651.855 505.092 641.459 513.608 631.694 514.712C621.929 515.816 612.164 500.834 612.952 483.802C613.582 466.77 623.819 450.526 635.002 450.526Z" fill="#6D6E71"/>
<path fill-rule="evenodd" clip-rule="evenodd" d="M387.412 433.967C413.872 433.178 425.527 450.999 425.685 481.121C425.685 511.085 404.107 530.167 381.742 528.274C359.377 526.382 341.895 507.142 343.47 481.121C345.045 455.099 360.952 434.755 387.412 433.967Z" fill="#231F20"/>
<path fill-rule="evenodd" clip-rule="evenodd" d="M398.91 439.644C412.612 439.644 423.48 454.469 425.527 474.339C425.685 476.547 425.685 478.755 425.685 481.121C425.685 506.984 409.62 527.013 391.035 527.801C377.017 524.963 367.095 506.353 368.04 483.959C369.142 459.515 383.002 439.644 398.91 439.644Z" fill="#383431"/>
<path fill-rule="evenodd" clip-rule="evenodd" d="M399.067 445.164C411.982 445.164 424.267 461.25 421.432 484.905C418.597 508.561 406.627 518.497 395.287 519.758C383.947 521.178 372.45 503.672 373.395 483.802C374.182 464.088 385.995 445.164 399.067 445.164Z" fill="#A7A9AC"/>
<path fill-rule="evenodd" clip-rule="evenodd" d="M398.91 450.526C410.092 450.526 420.487 464.404 418.125 484.748C415.762 505.092 405.367 513.608 395.602 514.712C385.837 515.816 376.072 500.834 376.86 483.802C377.49 466.77 387.727 450.526 398.91 450.526Z" fill="#6D6E71"/>
<path fill-rule="evenodd" clip-rule="evenodd" d="M426.945 506.511H743.362C757.065 504.618 796.755 502.726 810.457 500.834C826.995 440.59 782.895 424.189 751.71 408.734H412.297L328.192 500.834C352.447 505.565 394.027 506.511 426.945 506.511Z" fill="#58595B"/>
<path fill-rule="evenodd" clip-rule="evenodd" d="M304.567 442.956C308.19 430.024 315.75 422.77 322.365 418.354C359.692 405.422 414.502 396.591 452.302 389.494C501.6 386.813 554.047 387.601 589.012 394.54C564.757 420.404 523.177 390.598 485.22 425.924C507.112 442.325 428.362 486.956 419.07 500.834H308.505C307.875 498.31 307.087 495.472 306.457 492.475H307.875C307.245 489.479 306.93 486.482 306.3 483.801H304.567C302.047 469.923 300.945 453.838 304.567 442.956Z" fill="#E2304D"/>
<path fill-rule="evenodd" clip-rule="evenodd" d="M766.83 433.967C793.29 433.178 804.945 450.999 805.102 481.121C805.102 511.085 783.525 530.167 761.16 528.274C738.795 526.382 721.312 507.142 722.887 481.121C724.462 455.099 740.37 434.755 766.83 433.967Z" fill="#231F20"/>
<path fill-rule="evenodd" clip-rule="evenodd" d="M778.327 439.644C792.03 439.644 802.897 454.469 804.945 474.339C805.102 476.547 805.102 478.755 805.102 481.121C805.102 506.984 789.037 527.013 770.452 527.801C756.435 524.963 746.512 506.353 747.457 483.959C748.56 459.515 762.42 439.644 778.327 439.644Z" fill="#414042"/>
<path fill-rule="evenodd" clip-rule="evenodd" d="M778.485 445.164C791.4 445.164 803.685 461.25 800.85 484.905C798.015 508.561 786.045 518.497 774.705 519.758C763.365 521.178 751.867 503.672 752.812 483.802C753.757 464.088 765.57 445.164 778.485 445.164Z" fill="#E2E3E4"/>
<path fill-rule="evenodd" clip-rule="evenodd" d="M778.485 445.164C785.887 445.164 793.132 450.368 797.385 459.2C798.645 464.404 798.96 470.239 798.172 476.705C795.337 499.887 783.367 509.507 772.027 510.927C765.255 511.715 758.325 505.88 754.072 496.891C752.97 492.633 752.497 488.06 752.655 483.328C753.757 463.773 765.57 445.164 778.485 445.164Z" fill="#BCBEC0"/>
<path fill-rule="evenodd" clip-rule="evenodd" d="M772.972 499.099C772.5 503.515 772.5 509.035 771.87 513.293C775.02 513.293 778.012 512.031 780.69 509.823C780.532 506.038 777.697 501.78 774.39 498.626C774.075 498.311 773.76 498.311 773.445 498.468C773.287 498.468 772.972 498.784 772.972 499.099Z" fill="#A7A9AC"/>
<path fill-rule="evenodd" clip-rule="evenodd" d="M780.06 490.11C780.217 491.529 784.155 497.995 786.202 499.887C786.36 500.045 786.675 500.203 786.99 500.045C787.305 500.045 787.462 499.73 787.62 499.572C788.722 496.891 789.667 493.895 790.297 490.583C790.455 490.11 790.14 489.794 789.825 489.637C786.202 488.217 783.052 488.217 780.69 489.321C780.217 489.479 780.06 489.794 780.06 490.11Z" fill="#A7A9AC"/>
<path fill-rule="evenodd" clip-rule="evenodd" d="M781.635 479.701C784.942 480.174 788.407 480.49 791.557 481.278C791.715 477.02 791.4 473.235 790.612 469.766C785.73 473.551 781.95 477.178 781.635 479.701Z" fill="#A7A9AC"/>
<path fill-rule="evenodd" clip-rule="evenodd" d="M778.327 453.995L776.752 466.139C776.752 466.454 776.91 466.77 777.067 466.927C777.382 467.085 777.697 467.243 777.855 467.085C780.847 465.981 783.525 463.615 785.887 460.619C786.202 460.304 786.202 459.83 785.887 459.515C783.997 456.676 781.792 454.626 779.272 453.365C778.957 453.207 778.642 453.207 778.485 453.365C778.642 453.522 778.485 453.68 778.327 453.995Z" fill="#A7A9AC"/>
<path fill-rule="evenodd" clip-rule="evenodd" d="M760.845 462.038L767.932 468.347C770.767 467.873 773.445 453.68 770.295 453.049C765.097 452.103 762.577 456.992 760.53 460.934C760.372 461.408 760.53 461.881 760.845 462.038Z" fill="#A7A9AC"/>
<path fill-rule="evenodd" clip-rule="evenodd" d="M758.01 470.712C760.215 473.393 762.105 476.389 761.947 479.701C761.79 483.328 758.167 484.905 755.49 486.64C755.175 486.798 754.86 486.798 754.702 486.64C754.387 486.483 754.23 486.325 754.23 486.009C753.6 481.751 755.49 474.655 756.592 471.027C756.75 470.712 756.907 470.554 757.222 470.397C757.537 470.239 757.852 470.397 758.01 470.712Z" fill="#A7A9AC"/>
<path fill-rule="evenodd" clip-rule="evenodd" d="M761.475 507.773C765.255 502.569 766.2 499.099 764.625 492.475C763.365 490.898 759.27 494.841 756.277 496.733C755.962 496.891 755.805 497.364 755.805 497.68C756.75 501.465 758.325 504.776 760.057 507.773C760.215 508.088 760.53 508.246 760.845 508.246C761.002 508.246 761.16 508.088 761.475 507.773Z" fill="#A7A9AC"/>
<path fill-rule="evenodd" clip-rule="evenodd" d="M772.815 500.676C772.5 504.776 772.342 509.507 771.87 513.135C772.5 513.135 772.972 513.135 773.445 512.977C774.862 512.346 776.28 511.558 777.697 510.454C777.697 507.3 775.492 503.672 772.815 500.676Z" fill="#58595B"/>
<path fill-rule="evenodd" clip-rule="evenodd" d="M780.06 490.11C780.217 491.371 783.052 496.26 785.257 498.784C786.045 496.576 786.832 494.052 787.305 491.214C787.462 490.741 787.147 490.425 786.832 490.267C784.627 489.321 782.422 489.006 780.532 489.163C780.217 489.479 780.06 489.794 780.06 490.11Z" fill="#58595B"/>
<path fill-rule="evenodd" clip-rule="evenodd" d="M781.635 479.701C783.997 480.017 786.36 480.332 788.565 480.647C788.565 477.493 788.407 474.655 787.935 471.974C784.47 474.97 781.95 477.651 781.635 479.701Z" fill="#58595B"/>
<path fill-rule="evenodd" clip-rule="evenodd" d="M778.327 455.099L776.91 466.138C776.91 466.454 776.91 466.769 777.225 466.927C779.43 465.665 781.32 463.773 783.367 461.407C783.682 461.092 783.682 460.619 783.367 460.303C781.792 458.095 780.06 456.361 778.327 455.099Z" fill="#58595B"/>
<path fill-rule="evenodd" clip-rule="evenodd" d="M760.845 462.038L766.83 467.243C768.877 463.3 769.98 454.311 767.46 453.838C766.987 453.68 766.515 453.68 766.2 453.68C763.68 455.099 762.105 458.253 760.687 460.934C760.372 461.408 760.53 461.881 760.845 462.038Z" fill="#58595B"/>
<path fill-rule="evenodd" clip-rule="evenodd" d="M754.23 486.325C754.23 486.167 754.072 486.167 754.072 486.009C753.6 482.224 754.86 476.547 755.962 472.762C757.695 475.128 759.112 477.809 758.955 480.49C758.797 483.328 756.435 484.905 754.23 486.325Z" fill="#58595B"/>
<path fill-rule="evenodd" clip-rule="evenodd" d="M761.317 493.106C759.742 494.21 757.695 495.787 756.12 496.733C755.805 496.891 755.647 497.364 755.647 497.68C756.592 501.149 757.852 504.303 759.427 507.142C762.262 502.726 762.892 499.414 761.475 493.422C761.475 493.264 761.475 493.106 761.317 493.106Z" fill="#58595B"/>
<path fill-rule="evenodd" clip-rule="evenodd" d="M770.61 476.389C769.35 477.178 768.562 479.386 768.562 481.909C768.562 485.063 769.98 487.586 771.87 487.744C771.555 487.902 771.082 488.06 770.767 488.06C768.877 488.06 767.46 485.536 767.46 482.224C767.302 478.913 768.877 476.389 770.61 476.389Z" fill="#A7A9AC"/>
<path fill-rule="evenodd" clip-rule="evenodd" d="M772.342 485.852C773.602 485.852 774.547 484.117 774.547 481.909C774.547 479.701 773.602 477.967 772.342 477.967C771.082 477.967 770.137 479.701 770.137 481.909C769.98 484.117 771.082 485.852 772.342 485.852Z" fill="#A7A9AC"/>
<g clip-path="url(#clip0)">
<path fill-rule="evenodd" clip-rule="evenodd" d="M774.91 518.195C787.88 518.742 799.21 503.157 800.028 483.747C800.847 464.338 790.869 447.855 777.899 447.308C764.929 446.761 753.599 462.346 752.78 481.755C751.962 501.165 761.94 517.648 774.91 518.195Z" fill="#D1D2D3"/>
<path fill-rule="evenodd" clip-rule="evenodd" d="M763.079 501.634C776.049 502.181 787.379 486.596 788.198 467.186C788.411 462.123 788.144 457.462 786.932 453.184C784.241 450.957 781.498 449.996 778.255 449.859C766.212 449.352 755.879 463.288 755.132 481.009C754.83 488.183 756.38 495.434 758.946 500.614C760.3 501.517 761.69 501.575 763.079 501.634Z" fill="#A7A8AB"/>
<path fill-rule="evenodd" clip-rule="evenodd" d="M791.994 487.213C784.582 486.901 777.973 489.581 777.813 493.378C777.67 496.754 783.104 499.942 790.035 500.657C792.048 496.937 793.17 492.335 793.829 487.713C793.383 487.272 792.92 487.252 791.994 487.213Z" fill="#6D6E71"/>
<path fill-rule="evenodd" clip-rule="evenodd" d="M791.939 466.499C785.418 467.069 780.679 469.406 780.537 472.781C780.377 476.579 786.274 479.786 794.149 480.118L794.612 480.138C794.362 475.055 793.151 470.777 791.939 466.499Z" fill="#6D6E71"/>
<path fill-rule="evenodd" clip-rule="evenodd" d="M775.013 449.722C770.327 450.793 767.904 453.227 769.205 455.395C770.951 458.005 778.291 460.005 785.756 459.052C786.22 459.072 787.164 458.689 787.627 458.708C784.099 454.333 780.072 450.781 775.013 449.722Z" fill="#6D6E71"/>
<path fill-rule="evenodd" clip-rule="evenodd" d="M775.035 515.241C768.603 513.702 764.559 510.573 766.518 508.119C768.478 505.665 775.96 504.29 783.318 505.868C784.708 505.927 785.617 506.388 786.525 506.849C783.123 510.51 779.275 513.729 775.035 515.241Z" fill="#6D6E71"/>
<path fill-rule="evenodd" clip-rule="evenodd" d="M760.424 498.563C766.446 498.817 771.844 491.858 772.235 482.576C772.609 473.715 767.834 465.905 761.812 465.651C761.349 465.631 760.886 465.612 760.422 465.592C758.374 470.156 756.735 476.004 756.486 481.912C756.237 487.819 757.378 493.785 759.498 498.524C759.961 498.543 760.424 498.563 760.424 498.563Z" fill="#6D6E71"/>
</g>
<path fill-rule="evenodd" clip-rule="evenodd" d="M395.13 446.898C427.575 397.537 554.677 398.483 571.687 400.375C563.025 388.074 499.08 388.074 448.837 390.125C466.95 377.824 492.937 361.58 526.327 351.96C547.747 345.809 587.752 346.283 614.527 347.229C655.792 348.806 705.247 351.802 730.762 359.53C745.252 363.946 760.687 384.447 766.987 393.909C772.657 402.426 804 398.483 814.71 405.422C829.987 415.357 829.042 435.386 826.995 459.672C838.02 460.934 835.815 475.758 825.735 496.575C821.955 496.575 811.245 500.676 807.465 500.676C818.332 393.594 725.88 418.985 731.077 500.676C687.135 500.676 597.675 500.676 553.575 500.676C571.687 399.429 478.762 390.282 473.092 500.676H434.347C423.165 480.332 459.705 452.576 428.362 452.891C394.342 453.364 393.397 449.579 395.13 446.898Z" fill="#EC5F6B"/>
<path fill-rule="evenodd" clip-rule="evenodd" d="M586.335 401.795C586.65 395.171 600.982 375.458 620.039 361.422C623.189 359.057 629.804 356.849 639.569 356.376C666.502 354.957 688.237 356.218 715.169 364.577C723.832 367.257 747.299 402.11 735.959 402.426C696.742 402.899 625.552 401.795 586.335 401.795Z" fill="#E11E3E"/>
<path fill-rule="evenodd" clip-rule="evenodd" d="M451.042 474.655C436.552 485.694 422.692 495.629 419.227 500.834H308.505C307.875 498.31 307.087 495.472 306.457 492.475H307.875C307.245 489.479 306.93 486.482 306.3 483.801H304.567C304.095 480.805 303.622 477.809 303.15 474.812H451.042V474.655Z" fill="#EC5F6B"/>
<path fill-rule="evenodd" clip-rule="evenodd" d="M320.79 452.734C342.683 452.734 359.899 452.891 389.775 452.891C392.452 445.479 399.855 435.228 410.407 427.658C378.927 427.658 349.297 427.658 318.742 427.658C321.577 433.178 323.467 443.114 320.79 452.734Z" fill="#58595B"/>
<path fill-rule="evenodd" clip-rule="evenodd" d="M316.537 422.77C350.557 422.612 401.75 422.448 423.768 422.77C449.662 422.77 458.708 423.616 462.892 427.8L416.392 424.504C395.159 424.504 348.825 424.504 314.962 424.504C315.435 423.874 316.065 423.4 316.537 422.77Z" fill="#EC5F6B"/>
<path fill-rule="evenodd" clip-rule="evenodd" d="M435.45 481.594C432.615 486.009 433.087 491.371 432.142 495.945H307.087C306.772 494.841 306.457 493.737 306.142 492.633H307.717C307.087 489.636 306.772 486.64 306.142 483.959H304.567C304.41 483.328 304.252 482.855 304.252 482.224L435.45 481.594Z" fill="#58595B"/>
<path fill-rule="evenodd" clip-rule="evenodd" d="M308.347 495.629H445.215C448.05 495.629 450.412 496.891 450.412 498.31C450.412 499.729 448.05 500.991 445.215 500.991H308.347C305.512 500.991 303.15 499.729 303.15 498.31C303.15 496.733 305.512 495.629 308.347 495.629Z" fill="#EC5F6B"/>
<path fill-rule="evenodd" clip-rule="evenodd" d="M303.307 454.784H395.76C397.965 454.784 399.855 456.676 399.855 458.884V472.762C399.855 474.97 397.965 476.862 395.76 476.862H303.307C301.102 476.862 299.212 474.97 299.212 472.762V458.884C299.212 456.676 301.102 454.784 303.307 454.784Z" fill="#E2304D"/>
<path fill-rule="evenodd" clip-rule="evenodd" d="M399.54 474.655C398.91 475.916 397.492 476.862 395.917 476.862H303.307C301.732 476.862 300.315 475.916 299.685 474.655H399.54Z" fill="#E11E3E"/>
<path fill-rule="evenodd" clip-rule="evenodd" d="M460.492 388.548C470.887 378.139 503.017 362.053 533.729 356.376C566.332 352.118 588.382 354.483 613.739 357.48C598.462 368.361 587.279 381.766 571.844 392.648C535.147 384.92 490.259 385.551 460.492 388.548Z" fill="#EDFEFF"/>
<path fill-rule="evenodd" clip-rule="evenodd" d="M589.957 400.691C590.272 394.541 603.974 376.247 622.087 363.157C625.079 360.949 631.38 358.899 640.672 358.426C666.345 357.164 687.135 358.268 712.807 365.996C720.997 368.519 743.52 400.849 732.495 401.164C695.167 401.795 627.285 400.691 589.957 400.691Z" fill="#82ADB1"/>
<path fill-rule="evenodd" clip-rule="evenodd" d="M589.957 400.691C590.115 395.644 599.25 382.713 612.48 370.885C624.765 380.189 640.2 398.956 631.695 400.849C615.945 400.849 601.455 400.691 589.957 400.691Z" fill="#C0D8DA"/>
<path fill-rule="evenodd" clip-rule="evenodd" d="M643.349 358.268C667.762 357.164 688.079 358.426 712.807 365.996C718.477 367.731 730.92 383.659 734.542 393.437H673.274C667.289 393.437 659.572 388.548 656.422 382.397L643.349 358.268Z" fill="#C0D8DA"/>
<g style="mix-blend-mode:overlay">
<path fill-rule="evenodd" clip-rule="evenodd" d="M645.082 358.268C657.052 357.795 667.919 357.953 679.102 359.057L658.469 401.164C646.814 401.006 635.16 401.006 624.292 400.849L645.082 358.268Z" fill="#ABE1E1"/>
</g>
<g style="mix-blend-mode:overlay">
<path fill-rule="evenodd" clip-rule="evenodd" d="M687.135 360.161C694.695 361.265 702.254 362.999 710.287 365.365L692.647 401.322C684.3 401.322 675.637 401.322 666.974 401.164L687.135 360.161Z" fill="#ABE1E1"/>
</g>
<path fill-rule="evenodd" clip-rule="evenodd" d="M299.212 458.096C325.042 458.096 346.147 458.095 371.977 458.095C406.127 458.095 440.645 458.096 474.982 458.096C474.982 458.569 474.982 459.199 474.982 459.673H371.98H299.212V458.096Z" fill="#EC5F6B"/>
<path fill-rule="evenodd" clip-rule="evenodd" d="M380.01 474.812H469.785L467.422 481.12C432.142 476.074 410.25 477.651 380.01 476.389V474.812Z" fill="#E11E3E"/>
<path fill-rule="evenodd" clip-rule="evenodd" d="M599.407 384.605L604.289 400.691C599.407 400.691 594.682 400.691 589.799 400.691C590.114 397.221 592.634 391.229 599.407 384.605Z" fill="#576578"/>
<path fill-rule="evenodd" clip-rule="evenodd" d="M602.557 382.082C609.802 382.082 616.89 382.082 624.135 382.082C628.702 382.082 630.907 394.067 628.387 397.064C627.757 397.695 626.969 397.852 626.024 398.01C619.724 399.114 607.597 400.849 601.927 399.429C593.894 397.379 595.942 389.809 600.037 383.343C600.667 382.555 601.612 382.082 602.557 382.082Z" fill="#EC5F6B"/>
<path fill-rule="evenodd" clip-rule="evenodd" d="M602.557 382.082C609.802 382.082 616.89 382.082 624.135 382.082C627.915 382.082 629.962 389.809 629.332 394.383C620.827 395.329 610.275 395.96 604.605 394.856C599.407 393.91 597.36 391.544 597.36 388.863C597.99 386.971 598.935 385.236 600.195 383.343C600.667 382.555 601.612 382.082 602.557 382.082Z" fill="#E2304D"/>
<path fill-rule="evenodd" clip-rule="evenodd" d="M383.16 461.88L471.36 459.673V461.25L381.27 466.927L383.16 461.88Z" fill="#E2304D"/>
<path fill-rule="evenodd" clip-rule="evenodd" d="M416.865 423.085C436.395 423.085 457.917 421.015 463.642 427.974C493.567 416.146 535.62 413.307 573.735 411.1H818.017C812.032 408.734 811.087 404.161 800.062 403.845C727.612 403.372 628.072 402.899 555.622 402.426C495.615 404.318 446.317 412.204 416.865 423.085Z" fill="#E2304D"/>
<path fill-rule="evenodd" clip-rule="evenodd" d="M321.577 437.121C349.531 437.121 382.196 437.121 400.8 437.121C400.8 437.909 400.8 438.855 400.8 439.644C377.291 439.644 348.905 439.644 321.577 439.644C321.577 438.855 321.577 438.067 321.577 437.121Z" fill="#E2304D"/>
<path fill-rule="evenodd" clip-rule="evenodd" d="M399.225 483.802H420.172C421.59 483.802 422.692 484.905 422.692 486.325V490.11C422.692 491.529 421.59 492.633 420.172 492.633H399.225C397.807 492.633 396.705 491.529 396.705 490.11V486.325C396.862 484.905 397.965 483.802 399.225 483.802Z" fill="#414042"/>
<path fill-rule="evenodd" clip-rule="evenodd" d="M402.69 483.802H420.172C421.432 483.802 422.535 484.748 422.535 485.852V489.163C422.535 490.267 421.432 491.214 420.015 491.214H402.69C401.272 491.214 400.17 490.267 400.17 489.163V485.852C400.327 484.748 401.272 483.802 402.69 483.802Z" fill="#EEE6D4"/>
<path fill-rule="evenodd" clip-rule="evenodd" d="M402.69 483.802H420.172C421.432 483.802 422.535 484.748 422.535 485.852V486.482H400.17V485.852C400.327 484.748 401.272 483.802 402.69 483.802Z" fill="#D2C8AD"/>
<path fill-rule="evenodd" clip-rule="evenodd" d="M304.725 483.802H320.16C321.577 483.802 322.68 484.905 322.68 486.325V490.11C322.68 491.529 321.577 492.633 320.16 492.633H306.3L307.56 491.056C308.82 489.637 306.615 485.536 306.3 483.959L304.725 483.802Z" fill="#414042"/>
<path fill-rule="evenodd" clip-rule="evenodd" d="M306.3 483.802H320.317C321.577 483.802 322.522 484.748 322.522 485.852V489.163C322.522 490.267 321.577 491.214 320.317 491.214H307.402C307.087 488.848 306.772 486.325 306.3 483.802Z" fill="#EEE6D4"/>
<path fill-rule="evenodd" clip-rule="evenodd" d="M306.3 483.802H320.317C321.577 483.802 322.522 484.748 322.522 485.852V486.482H306.772C306.615 485.536 306.457 484.748 306.3 483.802Z" fill="#D2C8AD"/>
<path fill-rule="evenodd" clip-rule="evenodd" d="M321.262 441.694C349.427 441.064 378.857 441.694 397.02 441.694C397.02 442.483 397.02 443.429 397.02 444.217C372.804 444.217 348.175 444.217 321.262 444.217C321.262 443.429 321.262 442.483 321.262 441.694Z" fill="#E2304D"/>
<path fill-rule="evenodd" clip-rule="evenodd" d="M665.557 356.849L671.227 401.322L678.787 401.164L670.912 356.06L665.557 356.849Z" fill="#E11E3E"/>
<path fill-rule="evenodd" clip-rule="evenodd" d="M667.447 355.745L673.432 403.214L680.835 403.057L672.802 354.957L667.447 355.745Z" fill="#EC5F6B"/>
<path fill-rule="evenodd" clip-rule="evenodd" d="M463.485 431.286C464.272 444.375 446.947 449.579 436.867 450.368C425.685 451.156 415.605 451.314 403.792 450.368C401.745 450.21 398.437 447.845 399.382 445.795C412.297 421.35 462.855 420.246 463.485 431.286Z" fill="#E11E3E"/>
<path fill-rule="evenodd" clip-rule="evenodd" d="M315.12 424.504C318.742 430.655 321.577 437.121 321.42 445.637C321.42 446.899 320.79 448.002 319.687 448.791C318.585 449.58 317.167 450.053 315.592 449.895C311.182 449.58 307.087 449.895 302.835 450.841C303.15 448.002 303.78 445.321 304.567 442.956C306.772 435.386 310.237 429.393 315.12 424.504Z" fill="#E11E3E"/>
<path fill-rule="evenodd" clip-rule="evenodd" d="M304.567 442.956C306.615 435.544 309.45 430.497 314.175 425.45C317.482 431.601 319.372 437.121 320.16 445.637C320.632 450.052 317.325 451.787 316.38 451.629C311.812 451.314 307.245 450.052 302.835 451.472C303.15 448.475 303.622 445.479 304.567 442.956Z" fill="#EC5F6B"/>
<path fill-rule="evenodd" clip-rule="evenodd" d="M302.835 450.683C307.245 448.791 311.025 448.002 315.435 448.475C316.537 448.633 317.482 448.318 318.27 447.529C319.057 446.741 319.372 445.952 319.53 444.848C319.53 437.278 317.482 431.759 314.647 426.239C309.135 432.547 305.04 442.325 302.835 450.683Z" fill="#FFFCD5"/>
<path fill-rule="evenodd" clip-rule="evenodd" d="M303.307 447.845C307.717 446.11 311.97 446.425 316.695 447.056C317.797 447.214 318.27 447.056 319.057 446.268C319.845 445.479 319.372 444.217 319.372 443.113C319.53 435.386 317.167 430.97 314.49 426.239C309.292 431.759 305.67 437.121 303.307 447.845Z" fill="#EEE6D4"/>
<path fill-rule="evenodd" clip-rule="evenodd" d="M319.372 440.59C318.427 435.071 316.38 429.709 314.175 425.608C310.867 428.92 308.347 432.705 306.142 438.383C310.395 439.329 314.332 440.117 319.372 440.59Z" fill="#D2C8AD"/>
<path fill-rule="evenodd" clip-rule="evenodd" d="M318.742 435.701C319.372 438.855 319.53 442.325 319.215 445.794C318.585 446.425 317.797 446.898 317.01 447.056C316.222 446.898 315.592 446.898 314.805 446.741C312.442 445.637 310.71 442.325 310.71 438.225C310.71 433.493 312.915 429.708 315.907 429.393C317.01 431.443 317.955 433.493 318.742 435.701Z" fill="white"/>
<path fill-rule="evenodd" clip-rule="evenodd" d="M316.38 432.074C316.695 432.074 317.01 432.074 317.325 432.232C317.797 433.336 318.27 434.597 318.742 435.701C319.057 437.751 319.372 439.959 319.372 442.325C318.585 443.744 317.482 444.533 316.38 444.533C314.175 444.533 312.442 441.694 312.442 438.224C312.442 434.913 314.175 432.074 316.38 432.074Z" fill="#DAD9D4"/>
<path fill-rule="evenodd" clip-rule="evenodd" d="M322.875 458.075L375.777 458.08C377.769 458.069 379.473 459.655 379.536 461.799L379.457 472.82C379.469 474.814 377.737 476.569 375.744 476.58L322.843 476.575C320.85 476.586 319.146 475 319.083 472.856L319.163 461.835C319.248 459.641 320.832 457.937 322.875 458.075Z" fill="#EAEEF0"/>
<path fill-rule="evenodd" clip-rule="evenodd" d="M324.179 459.464L374.092 459.486C375.586 459.478 376.887 460.368 377.293 461.562C376.643 461.117 375.894 460.872 375.047 460.827L325.134 460.805C323.29 460.765 321.606 462.171 321.666 463.816L321.675 473.141C321.628 473.49 321.78 473.938 321.881 474.237C321.18 473.642 320.726 472.797 320.771 471.949L320.762 462.624C320.8 460.779 322.335 459.424 324.179 459.464Z" fill="#B2C7CF"/>
<path fill-rule="evenodd" clip-rule="evenodd" d="M611.534 359.057C597.359 369.623 586.649 382.24 572.002 392.49C535.147 384.921 490.259 385.551 460.492 388.39C495.142 368.046 569.639 353.853 611.534 359.057Z" fill="#ADE3E3"/>
<path fill-rule="evenodd" clip-rule="evenodd" d="M572.002 392.49C571.372 392.333 570.899 392.333 570.269 392.175L568.537 391.859C567.434 391.702 566.174 391.386 565.072 391.229H564.914L563.182 390.913H563.024L561.292 390.598C560.189 390.44 559.244 390.282 558.142 390.125H557.827H557.669H557.354C556.252 389.967 555.149 389.809 554.047 389.652L552.472 389.494L550.897 389.336H550.739L549.479 389.179L548.692 389.021L547.117 388.863H546.959C545.857 388.705 544.597 388.548 543.494 388.548H543.337L542.234 388.39H541.447L540.344 388.232H539.714L538.454 388.075H537.982L536.249 387.917C534.517 387.759 532.784 387.601 531.052 387.601H530.579H529.319H528.847H528.374H528.059H526.642H525.854H524.752H524.122H523.019H521.444H521.287H520.027H519.239H517.979H517.507H516.404H515.617H514.042H513.254H512.939H511.522H511.207H509.789H509.317H508.057H507.269H506.01H505.694H504.277H503.489H502.544H501.757H500.969C499.867 387.601 498.764 387.601 497.662 387.601H495.929C494.197 387.601 492.622 387.601 491.047 387.759H490.732C489.629 387.759 488.684 387.759 487.582 387.917H487.424C486.322 387.917 485.219 387.917 484.274 388.075C475.927 388.39 468.209 389.021 461.279 389.652C479.077 381.451 507.742 373.25 535.304 368.835C560.819 365.996 582.869 365.523 603.344 366.469C593.107 374.354 583.814 384.132 572.002 392.49Z" fill="#9AC7C7"/>
<path fill-rule="evenodd" clip-rule="evenodd" d="M724.619 497.206L557.669 496.733L557.197 491.687L725.092 491.056L724.619 497.206Z" fill="#E2304D"/>
<path fill-rule="evenodd" clip-rule="evenodd" d="M589.957 400.691C596.257 430.339 596.887 472.604 589.327 500.834C616.732 500.834 639.254 500.834 666.659 500.834C677.999 482.067 687.449 460.776 689.182 431.286C690.284 418.196 681.464 407.472 672.802 401.006L589.957 400.691Z" fill="#E11E3E"/>
<path fill-rule="evenodd" clip-rule="evenodd" d="M591.375 401.006C597.99 428.447 599.407 470.712 590.902 500.834C617.52 500.834 637.837 500.834 664.455 500.834C672.96 470.397 689.182 412.203 671.385 401.322L591.375 401.006Z" fill="#EC5F6B"/>
<path fill-rule="evenodd" clip-rule="evenodd" d="M593.422 411.099H680.677C678.472 408.103 676.109 405.58 673.432 403.372L591.689 402.583C592.162 404.949 592.792 407.945 593.422 411.099Z" fill="#6EB8C0"/>
<path fill-rule="evenodd" clip-rule="evenodd" d="M672.96 400.849C689.025 419.773 674.377 467.873 664.455 500.834H725.722C722.257 467.4 735.96 442.64 752.655 430.97C753.757 418.196 745.252 407.63 736.905 401.164L672.96 400.849Z" fill="#E11E3E"/>
<path fill-rule="evenodd" clip-rule="evenodd" d="M673.59 401.322C690.285 415.042 677.055 467.716 666.66 500.834H723.832C720.367 467.4 733.755 442.64 750.607 430.97C751.71 418.196 743.205 407.63 734.857 401.164H673.59V401.322Z" fill="#EC5F6B"/>
<path fill-rule="evenodd" clip-rule="evenodd" d="M554.397 429.987C583.166 429.987 606.673 429.987 635.442 429.987C673.478 429.987 711.923 429.987 750.167 429.987C750.167 430.461 745.897 434.514 745.897 434.987L635.444 431.564H554.397V429.987Z" fill="#E2304D"/>
<path fill-rule="evenodd" clip-rule="evenodd" d="M672.96 420.089L673.275 421.35C673.905 423.716 672.33 425.608 670.125 425.608H662.565C660.202 425.608 657.84 423.716 657.367 421.35L657.052 420.089H672.96Z" fill="#E11E3E"/>
<path fill-rule="evenodd" clip-rule="evenodd" d="M653.902 416.619H672.802C673.274 416.619 673.905 417.092 673.905 417.565L674.377 419.3C674.534 419.773 674.22 420.246 673.747 420.246H654.847C654.375 420.246 653.745 419.773 653.745 419.3L653.272 417.565C653.115 416.935 653.43 416.619 653.902 416.619Z" fill="#E2304D"/>
<path fill-rule="evenodd" clip-rule="evenodd" d="M741.157 420.089L741.472 421.35C742.102 423.716 740.527 425.608 738.322 425.608H730.762C728.4 425.608 726.037 423.716 725.565 421.35L725.25 420.089H741.157Z" fill="#E11E3E"/>
<path fill-rule="evenodd" clip-rule="evenodd" d="M722.1 416.619H741C741.472 416.619 742.102 417.092 742.102 417.565L742.575 419.3C742.732 419.773 742.417 420.246 741.945 420.246H723.045C722.572 420.246 721.942 419.773 721.942 419.3L721.47 417.565C721.312 416.935 721.627 416.619 722.1 416.619Z" fill="#E2304D"/>
<path fill-rule="evenodd" clip-rule="evenodd" d="M679.575 411.099H744.465C742.417 408.261 739.897 405.58 737.377 403.372C717.217 403.214 696.27 403.214 675.48 403.056C677.212 405.107 678.63 407.788 679.575 411.099Z" fill="#E2304D"/>
<path fill-rule="evenodd" clip-rule="evenodd" d="M593.422 411.099H678.157C677.527 407.314 675.794 405.107 673.432 403.056C645.397 402.899 617.519 402.741 591.689 402.583C592.319 405.264 592.949 408.103 593.422 411.099Z" fill="#E2304D"/>
<path fill-rule="evenodd" clip-rule="evenodd" d="M723.517 497.206L667.762 497.049C668.392 495.156 668.865 493.264 669.495 491.214L723.202 491.056C723.36 493.106 723.36 495.156 723.517 497.206Z" fill="#E2304D"/>
<path fill-rule="evenodd" clip-rule="evenodd" d="M665.4 497.049L591.847 496.891C592.32 495.156 592.634 493.421 593.107 491.529L667.132 491.214C666.502 493.264 665.872 495.156 665.4 497.049Z" fill="#E2304D"/>
<path fill-rule="evenodd" clip-rule="evenodd" d="M807.937 461.407H822.9C829.515 462.669 831.877 464.877 832.507 466.769L809.827 468.82L807.937 461.407Z" fill="#E2304D"/>
<path fill-rule="evenodd" clip-rule="evenodd" d="M463.485 430.97C464.115 443.429 447.577 448.476 437.97 449.106C427.26 449.895 417.652 450.053 406.312 449.106C404.265 448.949 401.115 446.583 402.217 444.691C414.502 421.35 462.855 420.404 463.485 430.97Z" fill="#58595B"/>
<path fill-rule="evenodd" clip-rule="evenodd" d="M464.141 430.695C464.885 443.091 448.214 448.1 438.577 448.94C427.883 449.802 418.164 450.079 406.73 449.194C404.685 449.097 401.398 446.839 402.486 444.912C414.627 421.521 463.432 420.06 464.141 430.695Z" fill="#FFFCD5"/>
<path fill-rule="evenodd" clip-rule="evenodd" d="M464.141 430.695C464.251 432.667 463.935 434.437 463.266 436.214C458.538 442.874 447.325 445.933 439.936 446.443C429.242 447.305 419.523 447.582 408.089 446.697C406.254 446.524 403.183 444.544 403.71 442.699C417.654 421.386 463.44 420.413 464.141 430.695Z" fill="#EEE6D4"/>
<path fill-rule="evenodd" clip-rule="evenodd" d="M464.141 430.695C464.155 431.4 464.169 432.105 464.116 432.952C455.18 437.091 442.266 439.693 427.751 439.79C420.565 439.873 413.717 439.242 407.566 438.245C424.631 421.379 463.528 421.328 464.141 430.695Z" fill="#D2C8AD"/>
<path fill-rule="evenodd" clip-rule="evenodd" d="M464.141 430.695C464.693 440.556 454.227 445.716 445.038 447.815C446.204 442.783 448.353 437.519 451.138 432.382C452.565 429.742 454.276 427.237 455.994 425.085C460.736 426.112 464.016 428.017 464.141 430.695Z" fill="#FBD55B"/>
<path fill-rule="evenodd" clip-rule="evenodd" d="M464.141 430.695C464.251 432.667 463.935 434.437 463.266 436.214C459.634 441.299 452.295 444.276 445.699 445.685C446.88 441.358 448.765 437.016 451.213 432.592C452.639 429.952 454.35 427.447 456.069 425.295C460.736 426.112 464.016 428.017 464.141 430.695Z" fill="#F58220"/>
<path fill-rule="evenodd" clip-rule="evenodd" d="M464.141 430.695C464.155 431.4 464.169 432.104 464.116 432.952C459.715 434.879 454.536 436.611 448.637 437.654C449.448 435.944 450.26 434.234 451.28 432.449C452.707 429.809 454.418 427.304 456.136 425.152C460.736 426.112 464.016 428.017 464.141 430.695Z" fill="#D7662C"/>
<path fill-rule="evenodd" clip-rule="evenodd" d="M433.653 428.451C436.965 428.452 439.658 432.696 439.765 437.983C439.73 443.203 437.14 447.56 433.828 447.56C430.516 447.56 427.823 443.315 427.716 438.028C427.751 432.808 430.341 428.451 433.653 428.451Z" fill="white"/>
<path fill-rule="evenodd" clip-rule="evenodd" d="M433.71 431.271C435.965 431.294 438.068 434.211 438.004 438.021C438.008 441.688 436.169 444.83 433.771 444.74C431.515 444.718 429.413 441.8 429.477 437.991C429.541 434.181 431.454 431.249 433.71 431.271Z" fill="#DAD9D4"/>
<path fill-rule="evenodd" clip-rule="evenodd" d="M210.195 368.02L208.48 359.62C216.4 354.754 220.239 350.963 223.798 342.136C230.409 334.572 230.096 323.896 229.395 313.776C228.712 303.929 226.513 289.976 221.855 280.722L229.243 284.092C242.447 322.34 240.679 318.236 237.155 333.94C233.565 349.788 238.798 342.384 210.195 368.02Z" fill="#8D533B"/>
<g style="mix-blend-mode:multiply">
<g style="mix-blend-mode:multiply" opacity="0.75">
<path fill-rule="evenodd" clip-rule="evenodd" d="M206.397 474.019C242.768 474.019 272.397 472.012 272.397 469.503C272.397 466.994 242.73 464.987 206.397 464.987C170.064 464.987 140.397 466.994 140.397 469.503C140.359 471.929 170.026 474.019 206.397 474.019Z" fill="#68667B" fill-opacity="0.5"/>
</g>
</g>
<path fill-rule="evenodd" clip-rule="evenodd" d="M217.419 470.067H187.841C185.167 470.067 183.246 467.493 184.006 464.929L189.117 447.706L190.875 418.177L195.054 392.49L201.984 403.393L206.079 397.522L213.481 402.554L217.419 470.067Z" fill="#AA7244"/>
<path fill-rule="evenodd" clip-rule="evenodd" d="M199.95 354.957C163.177 323.475 178.348 333.156 174.656 316.931C167.622 296.254 173.121 282.3 180.506 268.011L186.322 272.741C180.06 284.946 178.089 300.666 181.209 314.726C184.328 328.787 175.131 324.425 202.854 347.452L199.95 354.957Z" fill="#AA7244"/>
<path fill-rule="evenodd" clip-rule="evenodd" d="M224.494 467.067C224.494 468.724 223.151 470.067 221.494 470.067H208.914L212.694 438.215L206.079 397.522L212.694 402.554H219.309V422.747L224.494 454.385V467.067Z" fill="#8D533B"/>
<path fill-rule="evenodd" clip-rule="evenodd" d="M212.351 361.484C158.632 363.703 178.316 360.51 164.497 348.44C150.678 336.369 147.279 359.31 138.995 296.991L147.483 296.195C150.471 353.689 157.579 329.907 169.242 340.445C181.009 350.756 170.26 355.903 210.215 351.723L212.351 361.484Z" fill="#AA7244"/>
<path fill-rule="evenodd" clip-rule="evenodd" d="M218.82 402.702L207.486 407.484L203.2 410.257L198.165 401.653L194.374 398.952L200.95 238.397L214.781 238.453L218.82 402.702Z" fill="#AA7244"/>
<path fill-rule="evenodd" clip-rule="evenodd" d="M219.339 403.075L207.669 407.451L214.418 385.452L209.07 367.142L206.272 327.674L212.562 298.183L210.288 237.943L216.564 237.886L219.339 403.075Z" fill="#8D533B"/>
<path fill-rule="evenodd" clip-rule="evenodd" d="M230.923 347.741L236.157 329.878C265.27 327.676 302.958 306.484 307.468 292.171C311.977 277.858 311.4 261.413 305.942 248.152L308.992 246.081C317.011 250.685 321.645 280.036 312.942 297.322C302.815 317.433 294.694 325.689 230.923 347.741Z" fill="#8D533B"/>
<path fill-rule="evenodd" clip-rule="evenodd" d="M317.649 191.541C329.355 191.611 336.203 205.897 332.784 223.509C329.366 241.121 317.149 255.306 305.434 255.459C293.728 255.39 286.88 241.103 290.299 223.492C293.61 205.765 305.943 191.471 317.649 191.541Z" fill="#7CC076"/>
<path fill-rule="evenodd" clip-rule="evenodd" d="M329.983 233.225C324.727 246.09 314.913 255.452 305.434 255.459C293.951 255.397 287.202 241.449 290.159 224.267C295.415 211.402 305.229 202.04 314.708 202.033C326.192 202.095 332.941 216.043 329.983 233.225Z" fill="#A1E79B"/>
<path fill-rule="evenodd" clip-rule="evenodd" d="M343.931 217.426C352.16 221.167 352.505 233.333 344.517 244.654C336.635 256.091 323.592 262.219 315.247 258.586C307.018 254.845 306.673 242.679 314.661 231.358C322.65 220.037 335.693 213.908 343.931 217.426Z" fill="#BAFCB4"/>
<path fill-rule="evenodd" clip-rule="evenodd" d="M284.591 181.789C288.483 177.775 290.763 172.041 290.757 165.043C290.962 148.986 279.33 131.687 263.568 123.247C265.646 120.051 266.946 115.956 266.957 111.185C267.103 98.4663 258.757 84.7687 247.237 77.5728C250.726 59.3592 234.119 39.6377 207.65 39.6377C192.346 34.5511 188.751 71.4951 182.739 84.2705C166.799 70.576 144.47 79.0786 147.948 120.696C121.095 127.975 124.589 168.385 128.765 200.004C86.7268 187.549 77.9816 280.85 136.549 307.953C149.346 318.847 175.019 315.565 190.441 320.735C205.745 325.821 258.198 327.504 266.957 296.03C266.957 296.03 305.999 292.04 290.757 246.194C301.43 229.789 313.004 206.751 284.591 181.789Z" fill="#7CC076"/>
<path fill-rule="evenodd" clip-rule="evenodd" d="M143.27 303.38L143.388 303.463L143.506 303.547L143.624 303.63L143.742 303.713L143.86 303.796L143.978 303.879L144.096 303.962L144.331 304.129L144.449 304.212L144.685 304.378L144.803 304.462L145.274 304.794L145.628 305.044C145.864 305.21 146.217 305.46 146.398 305.704L146.752 305.953L147.459 306.452L147.577 306.536L148.167 306.951L148.284 307.035C161.365 311.019 178.511 304.859 189.796 303.38C207.856 308.314 224.824 303.035 233.001 287.941C233.817 286.535 234.514 285.046 235.039 283.551C252.029 268.73 259.669 249.644 255.035 240.196C258.19 238.226 260.795 235.285 262.747 231.767C270.439 217.613 264.709 196.203 250.119 181.596C250.032 180.719 249.945 179.841 249.74 178.881C248.831 172.411 246.83 165.988 243.973 159.776C247.865 155.762 250.145 150.027 250.139 143.029C250.344 126.973 238.712 109.674 222.949 101.234C225.083 97.9598 226.328 93.9428 226.339 89.172C226.484 76.4532 218.139 62.7555 206.618 55.5596C205.286 50.1905 206.197 44.0531 203.498 39.1187C180.144 47.4225 180.144 65.068 184.241 71.0086C160.423 65.5872 136.03 89.172 148.284 120.469C121.431 127.747 103.334 152.777 119.974 183.366C79.98 197.409 84.7575 276.199 143.27 303.38Z" fill="#A1E79B"/>
<path fill-rule="evenodd" clip-rule="evenodd" d="M162.848 230.04C155.411 227.3 155.532 213.468 163.197 199.167C170.853 184.731 183.238 175.236 190.676 177.976C198.114 180.716 197.992 194.548 190.327 208.85C182.662 223.151 170.398 232.741 162.848 230.04Z" fill="#BAFCB4"/>
<path fill-rule="evenodd" clip-rule="evenodd" d="M193.902 159.054C191.078 155.948 192.104 148.647 196.272 142.738C200.441 136.83 206.154 134.51 209.072 137.623C211.895 140.728 210.87 148.03 206.701 153.938C202.533 159.846 196.82 162.166 193.902 159.054Z" fill="#BAFCB4"/>
<path fill-rule="evenodd" clip-rule="evenodd" d="M149.334 191.407C141.137 190.731 133.001 178.953 131.134 164.961C129.267 150.969 134.301 140.156 142.499 140.831C150.607 141.394 158.832 153.285 160.699 167.277C162.567 181.269 157.532 192.083 149.334 191.407Z" fill="#BAFCB4"/>
<path fill-rule="evenodd" clip-rule="evenodd" d="M176.222 141.787C169.888 138.253 165.225 124.581 165.872 111.279C166.465 97.8425 172.186 89.8184 178.521 93.3522C184.856 96.8859 189.518 110.558 188.871 123.861C188.224 137.163 182.624 145.294 176.222 141.787Z" fill="#BAFCB4"/>
<path fill-rule="evenodd" clip-rule="evenodd" d="M223.973 238.342C217.676 235.913 216.335 226.035 220.925 216.218C225.515 206.401 234.274 200.403 240.571 202.832C246.867 205.261 248.209 215.139 243.619 224.956C239.077 234.686 230.27 240.771 223.973 238.342Z" fill="#BAFCB4"/>
<path fill-rule="evenodd" clip-rule="evenodd" d="M178.298 290.849C165.721 300.381 142.241 291.882 125.84 271.975C109.439 252.068 106.974 245.473 119.551 235.941C132.128 226.41 161.073 228.032 155.141 251.759C183.811 251.759 190.85 281.41 178.298 290.849Z" fill="#BAFCB4"/>
<path d="M456.196 422.056C456.196 422.056 448.837 421.751 448.393 421.399C447.949 421.046 445.988 413.955 445.988 413.955C445.988 413.955 445.688 421.43 445.342 421.881C444.995 422.332 438.013 424.323 438.013 424.323C438.013 424.323 445.262 424.54 445.693 424.792C446.137 425.144 448.221 432.424 448.221 432.424C448.221 432.424 448.521 424.949 448.868 424.498C449.116 424.059 456.196 422.056 456.196 422.056Z" fill="#F6F6F5"/>
<path d="M450.552 445.89C450.552 445.89 453.052 443.17 453.33 443.114C453.609 443.058 456.96 444.603 456.96 444.603C456.96 444.603 454.194 442.068 454.133 441.789C454.073 441.511 455.571 438.192 455.571 438.192C455.571 438.192 453.141 440.898 452.905 440.982C452.626 441.038 449.163 439.479 449.163 439.479C449.163 439.479 451.929 442.014 451.989 442.293C452.077 442.53 450.552 445.89 450.552 445.89Z" fill="#F6F6F5"/>
<g style="mix-blend-mode:soft-light" opacity="0.65">
<path fill-rule="evenodd" clip-rule="evenodd" d="M722.397 485.987L562.397 485.614V484.121L722.397 473.987V485.987Z" fill="white"/>
</g>
<rect x="454.892" y="525.38" width="15.3331" height="13.494" transform="rotate(19.2815 454.892 525.38)" fill="#231F20"/>
<g style="mix-blend-mode:multiply" opacity="0.5">
<path fill-rule="evenodd" clip-rule="evenodd" d="M418.033 559.139C369.42 559.126 329.821 555.924 329.822 551.934C329.823 547.945 369.476 544.765 418.037 544.779C466.598 544.792 506.249 547.994 506.248 551.984C506.298 555.84 466.645 559.153 418.033 559.139Z" fill="#68667B"/>
</g>
<path fill-rule="evenodd" clip-rule="evenodd" d="M456.168 536.906C453.273 536.268 450.803 538.546 449.731 541.31C448.263 545.095 445.739 545.761 445.937 549.724C446.044 551.872 448.059 553.313 450.209 553.394L458.842 553.72C458.847 553.72 458.845 553.72 458.85 553.72C459.02 553.726 489.178 554.761 490.018 551.871C490.651 549.695 489.909 548.317 488.823 547.197C488.115 546.468 487.124 546.109 486.119 545.964C483.213 545.545 479.681 544.68 476.303 543.562C475.918 543.434 475.541 543.248 475.199 543.031C467.526 538.175 472.412 543.32 468.712 540.343C468.032 539.795 467.227 539.41 466.371 539.237C463.215 538.598 459.623 537.669 456.168 536.906Z" fill="#C7C3C3"/>
<path fill-rule="evenodd" clip-rule="evenodd" d="M454.727 536.17C451.818 535.597 449.364 537.811 448.425 540.623C447.284 544.039 445.486 544.342 445.903 548.053C446.143 550.191 448.123 551.625 450.273 551.706L458.905 552.032C458.911 552.032 458.909 552.032 458.914 552.032C459.084 552.038 489.241 553.072 490.082 550.183C490.715 548.007 489.973 546.629 488.886 545.509C488.179 544.78 487.188 544.421 486.182 544.276C483.247 543.852 479.672 542.974 476.263 541.839C475.947 541.734 474.745 541.009 474.465 540.829V540.829C471.525 538.948 463.743 537.702 460.292 537.176C458.463 536.896 456.529 536.525 454.727 536.17Z" fill="#9A4413"/>
<path fill-rule="evenodd" clip-rule="evenodd" d="M450.186 536.737C449.671 536.736 449.242 537.132 449.179 537.643C448.361 544.186 446.345 543.042 446.38 547.43C446.386 548.168 447.201 548.584 447.834 548.204L454.893 543.966C455.048 543.873 455.226 543.824 455.407 543.824L478.674 543.824C479.455 543.824 479.792 543.075 479.144 542.64C476.732 541.019 471.928 539.077 469.41 537.573C468.807 537.212 467.947 537.443 467.694 538.098L467.5 538.6C467.327 539.046 466.863 539.308 466.393 539.225L452.432 536.752C452.374 536.742 452.316 536.737 452.258 536.737L450.186 536.737Z" fill="#792C13"/>
<path fill-rule="evenodd" clip-rule="evenodd" d="M368.391 524.777C369.974 522.271 368.961 518.989 366.701 517.071C362.596 513.585 361.384 509.873 356.684 508.086C354.673 507.321 352.547 508.534 351.596 510.464L347.779 518.214C347.777 518.219 347.778 518.217 347.775 518.222C347.701 518.374 334.46 545.49 336.756 547.435C338.486 548.901 340.046 548.785 341.511 548.249C342.466 547.9 343.198 547.142 343.74 546.283C345.307 543.801 347.537 540.928 349.935 538.3C350.209 538 350.529 537.732 350.871 537.513C358.668 532.514 356.473 536.165 361.439 534.123C362.246 533.791 362.917 533.196 363.405 532.472C365.075 529.989 366.742 527.389 368.391 524.777Z" fill="#AFABAB"/>
<path fill-rule="evenodd" clip-rule="evenodd" d="M369.907 525.524C371.49 523.018 370.477 519.736 368.217 517.817C364.111 514.331 362.899 510.619 358.2 508.832C356.189 508.068 354.062 509.281 353.112 511.211L349.295 518.961C349.292 518.965 349.293 518.964 349.291 518.968C349.216 519.121 335.976 546.236 338.272 548.182C340.001 549.647 341.562 549.531 343.027 548.996C343.981 548.647 344.713 547.889 345.256 547.03C346.823 544.548 349.053 541.675 351.451 539.046C351.724 538.747 352.045 538.478 352.386 538.259C360.184 533.26 357.989 536.912 362.954 534.87C363.762 534.538 364.433 533.943 364.92 533.219C366.59 530.736 368.257 528.135 369.907 525.524Z" fill="#9A4413"/>
<path fill-rule="evenodd" clip-rule="evenodd" d="M373.005 520.53C365.731 516.394 363.342 510.971 357.111 508.825L362.486 521.811L359.59 535.34C361.967 535.033 362.754 533.944 365.335 532.815L369.955 525.49L373.005 520.53Z" fill="#792C13"/>
<path fill-rule="evenodd" clip-rule="evenodd" d="M399.754 475.631C402.779 475.966 404.986 480.231 404.443 485.149C403.899 490.067 401.003 493.768 397.789 493.413C394.764 493.078 392.557 488.813 393.1 483.895C393.833 478.998 396.73 475.297 399.754 475.631Z" fill="white"/>
<path fill-rule="evenodd" clip-rule="evenodd" d="M399.461 478.28C401.73 478.53 403.118 481.556 402.741 484.961C402.365 488.366 400.35 491.015 398.081 490.764C395.813 490.514 394.425 487.488 394.802 484.083C395.178 480.678 397.382 478.05 399.461 478.28Z" fill="#D9D8D4"/>
<path fill-rule="evenodd" clip-rule="evenodd" d="M415.78 476.063C419.372 476.46 421.706 481.313 421.079 486.988C420.451 492.663 417.114 496.889 413.522 496.492C409.93 496.095 407.596 491.242 408.224 485.567C408.851 479.892 412.188 475.665 415.78 476.063Z" fill="white"/>
<path fill-rule="evenodd" clip-rule="evenodd" d="M470.445 491.33C471.811 488.958 470.455 485.943 467.773 485.394C455.492 482.881 426.316 476.756 420.824 474.204C414.621 471.112 407.87 470.208 392.189 462.264C390.72 461.521 389.871 459.934 390.049 458.298L395.102 411.83C395.417 408.936 398.62 407.336 401.122 408.824L421.56 420.967C421.82 421.122 422.098 421.247 422.387 421.339L423.384 421.658C424.721 422.084 425.642 423.244 426.314 424.475C429.607 430.515 438.166 421.173 438.187 429.675C438.195 432.745 440.946 435.503 444.016 435.559C462.994 435.906 482.031 459.405 490.713 464.106C495.699 466.868 508.669 474.281 504.353 484.204C496.72 501.757 478.792 527.976 472.985 536.29C471.904 537.836 469.897 538.379 468.167 537.627L452.764 530.928C450.575 529.976 449.702 527.331 450.893 525.263L470.445 491.33Z" fill="#2C2A3F"/>
<path fill-rule="evenodd" clip-rule="evenodd" d="M409.421 531.445C409.421 531.445 385.045 465.402 387.187 458.249C389.401 451.559 394.398 430.246 399.425 421.932L440.385 462.959C439.414 470.706 435.011 469.718 436.35 488.701C435.284 497.391 441.722 536.008 438.006 546.047C433.082 552.958 430.735 556.457 424.663 555.506C399.727 551.598 357.858 537.429 357.858 537.429L364.867 511.937L399.751 516.598L409.421 531.445Z" fill="#334866"/>
<path d="M403.519 514.466L365.505 511.991L363.737 516.057L394.148 519.417L413.066 536.213L403.519 514.466Z" fill="#2C2A3F"/>
<path fill-rule="evenodd" clip-rule="evenodd" d="M472.811 438.088C482.458 447.756 504.288 448.744 504.288 448.744L506.453 436.08C506.453 436.08 485.627 414.461 480.229 406.167C474.856 397.65 470.545 379.517 467.909 372.208C464.771 365.975 453.153 377.594 453.153 377.594C453.153 377.594 452.087 416.103 472.811 438.088Z" fill="#2C6F9A"/>
<path fill-rule="evenodd" clip-rule="evenodd" d="M402.631 357.903C402.631 357.903 406.991 374.904 406.084 383.809C405.183 392.472 395.717 424.99 395.717 424.99C394.95 428.345 441.772 430.698 447.835 461.099C446.707 451.641 457.296 392.595 457.308 392.112C457.32 391.63 464.768 369.715 464.768 369.715C464.768 369.715 467.158 355.939 446.385 349.42C409.958 343.438 402.194 357.163 402.631 357.903Z" fill="#3E7FA9"/>
<path fill-rule="evenodd" clip-rule="evenodd" d="M422.044 435.601C429.59 436.203 424.447 460.513 430.754 461.21C433.18 461.478 435.363 461.719 437.789 461.987L438.76 462.095C438.294 452.975 454.244 397.541 454.294 397.082C454.32 396.852 456.878 384.812 455.037 379.261C440.933 364.681 419.524 365.105 414.359 374.067C414.359 374.067 406.114 377.573 401.009 379.334C400.537 381.374 400.309 383.442 399.914 384.793C398.272 392.982 398.458 424.624 398.458 424.624C407.261 436.06 409.941 434.031 422.044 435.601Z" fill="#2C6F9A"/>
<path fill-rule="evenodd" clip-rule="evenodd" d="M455.911 361.802C450.547 375.412 449.535 371.52 445.905 371.803C442.275 372.086 433.42 368.022 431.303 350.008C431.303 350.008 438.34 345.297 445.506 348.901C449.238 350.72 447.544 355.283 455.911 361.802Z" fill="#2C2A3F"/>
<path fill-rule="evenodd" clip-rule="evenodd" d="M461.919 392.542C443.257 388.95 431.104 384.644 418.675 378.428C413.392 400.269 407.372 418.096 399.497 435.573C411.266 449.615 429.014 455.909 444.859 449.761C450.347 435.333 457.863 410.696 461.919 392.542Z" fill="#334866"/>
<path fill-rule="evenodd" clip-rule="evenodd" d="M467.254 365.609C467.176 377.202 463.824 388.997 459.307 400.947C457.379 399.274 455.64 397.623 453.712 395.95C459.643 383.293 462.27 371.124 461.622 359.158C463.52 361.117 465.387 363.363 467.254 365.609Z" fill="#334866"/>
<path fill-rule="evenodd" clip-rule="evenodd" d="M423.883 348.662C427.986 355.54 425.77 371.417 424.036 384.86C421.829 384.735 419.054 384.938 417.032 384.824C419.007 370.164 418.885 356.997 414.942 350.62C417.804 348.566 421.665 348.783 423.883 348.662Z" fill="#334866"/>
<path fill-rule="evenodd" clip-rule="evenodd" d="M448.616 400.133L443.917 411.485L427.53 403.929L430.424 395.059L448.616 400.133Z" fill="#E6E7E8"/>
<path fill-rule="evenodd" clip-rule="evenodd" d="M448.955 405.723C441.415 406.422 433.957 402.917 427.149 398.718C424.549 406.664 422.326 412.928 419.725 420.874C427.415 425.745 434.788 428.283 441.174 429.372C443.965 424.894 446.545 417.137 448.955 405.723Z" fill="#334866"/>
<path fill-rule="evenodd" clip-rule="evenodd" d="M427.338 398.738C424.738 406.684 422.515 412.949 419.914 420.895C427.604 425.766 434.977 428.304 441.363 429.393C431.191 417.546 427.345 412.525 427.338 398.738Z" fill="#2C2A3F"/>
<path fill-rule="evenodd" clip-rule="evenodd" d="M465.936 395.116C492.377 393.834 504.363 411.434 505.082 441.547C505.641 471.506 484.424 490.988 462.027 489.513C439.631 488.038 421.792 469.128 422.881 443.082C424.128 417.033 439.496 396.398 465.936 395.116Z" fill="#231F20"/>
<path fill-rule="evenodd" clip-rule="evenodd" d="M477.538 400.578C491.238 400.322 502.38 414.941 504.798 434.77C504.997 436.975 505.038 439.182 505.082 441.548C505.565 467.407 489.876 487.731 471.309 488.867C457.241 486.29 446.973 467.869 447.5 445.461C448.146 421.001 461.633 400.875 477.538 400.578Z" fill="#414042"/>
<path fill-rule="evenodd" clip-rule="evenodd" d="M477.798 406.094C490.711 405.853 503.294 421.706 500.901 445.411C498.508 469.115 486.725 479.273 475.411 480.746C464.099 482.376 452.277 465.089 452.851 445.204C453.428 425.476 464.886 406.335 477.798 406.094Z" fill="#E2E3E4"/>
<path fill-rule="evenodd" clip-rule="evenodd" d="M477.798 406.094C485.199 405.956 492.54 411.024 496.957 419.774C498.314 424.954 498.738 430.782 498.071 437.262C495.669 460.493 483.881 470.335 472.569 471.966C465.812 472.881 458.775 467.176 454.355 458.268C453.174 454.031 452.616 449.467 452.685 444.734C453.422 425.161 464.885 406.335 477.798 406.094Z" fill="#BCBEC0"/>
<path fill-rule="evenodd" clip-rule="evenodd" d="M473.293 460.122C472.903 464.546 473.006 470.065 472.456 474.334C475.605 474.275 478.574 472.958 481.21 470.7C480.981 466.919 478.067 462.715 474.702 459.623C474.381 459.313 474.066 459.319 473.754 459.483C473.596 459.486 473.287 459.807 473.293 460.122Z" fill="#A7A9AC"/>
<path fill-rule="evenodd" clip-rule="evenodd" d="M480.212 451.002C480.396 452.419 484.453 458.81 486.536 460.664C486.696 460.818 487.014 460.97 487.326 460.807C487.641 460.801 487.793 460.482 487.947 460.322C488.999 457.621 489.888 454.607 490.456 451.284C490.605 450.808 490.284 450.499 489.966 450.347C486.318 448.996 483.168 449.054 480.827 450.202C480.357 450.369 480.206 450.687 480.212 451.002Z" fill="#A7A9AC"/>
<path fill-rule="evenodd" clip-rule="evenodd" d="M481.592 440.566C484.908 440.978 488.378 441.228 491.542 441.958C491.62 437.698 491.235 433.919 490.383 430.465C485.572 434.341 481.86 438.038 481.592 440.566Z" fill="#A7A9AC"/>
<path fill-rule="evenodd" clip-rule="evenodd" d="M477.806 414.927L476.457 427.097C476.463 427.412 476.627 427.725 476.787 427.88C477.105 428.031 477.423 428.183 477.577 428.023C480.549 426.863 483.182 424.448 485.488 421.408C485.797 421.087 485.788 420.614 485.467 420.304C483.525 417.501 481.282 415.493 478.739 414.278C478.421 414.126 478.106 414.132 477.951 414.293C478.112 414.448 477.957 414.608 477.806 414.927Z" fill="#A7A9AC"/>
<path fill-rule="evenodd" clip-rule="evenodd" d="M460.476 423.295L467.68 429.469C470.506 428.943 472.918 414.702 469.757 414.131C464.543 413.282 462.114 418.217 460.141 422.197C460.15 422.67 460.158 423.143 460.476 423.295Z" fill="#A7A9AC"/>
<path fill-rule="evenodd" clip-rule="evenodd" d="M457.804 432.02C460.058 434.659 462.004 437.62 461.908 440.934C461.818 444.563 458.226 446.208 455.581 447.992C455.269 448.156 454.954 448.162 454.794 448.007C454.476 447.855 454.316 447.7 454.31 447.385C453.6 443.139 455.358 436.009 456.392 432.361C456.544 432.043 456.698 431.883 457.01 431.719C457.322 431.555 457.64 431.707 457.804 432.02Z" fill="#A7A9AC"/>
<path fill-rule="evenodd" clip-rule="evenodd" d="M461.96 469.009C465.642 463.735 466.522 460.249 464.824 453.656C463.534 452.102 459.514 456.121 456.557 458.069C456.245 458.232 456.096 458.708 456.102 459.024C457.118 462.79 458.597 466.075 460.542 469.036C460.706 469.348 461.024 469.5 461.339 469.494C461.496 469.491 461.651 469.33 461.96 469.009Z" fill="#A7A9AC"/>
<path fill-rule="evenodd" clip-rule="evenodd" d="M473.165 461.702C472.927 465.807 472.858 470.541 472.453 474.176C473.083 474.164 473.555 474.155 474.025 473.989C475.43 473.332 476.833 472.517 478.229 471.387C478.17 468.233 475.898 464.648 473.165 461.702Z" fill="#58595B"/>
<path fill-rule="evenodd" clip-rule="evenodd" d="M480.212 451.002C480.393 452.261 483.319 457.096 485.57 459.578C486.316 457.355 487.057 454.818 487.476 451.971C487.625 451.495 487.304 451.185 486.986 451.034C484.764 450.129 482.553 449.855 480.667 450.047C480.358 450.369 480.206 450.687 480.212 451.002Z" fill="#58595B"/>
<path fill-rule="evenodd" clip-rule="evenodd" d="M481.592 440.566C483.96 440.838 486.328 441.109 488.539 441.383C488.48 438.229 488.269 435.394 487.747 432.723C484.338 435.783 481.869 438.511 481.592 440.566Z" fill="#58595B"/>
<path fill-rule="evenodd" clip-rule="evenodd" d="M477.826 416.03L476.615 427.094C476.621 427.409 476.627 427.725 476.945 427.877C479.126 426.574 480.98 424.647 482.983 422.243C483.292 421.922 483.283 421.449 482.962 421.139C481.347 418.961 479.582 417.259 477.826 416.03Z" fill="#58595B"/>
<path fill-rule="evenodd" clip-rule="evenodd" d="M460.476 423.294L466.557 428.386C468.531 424.406 469.465 415.398 466.937 414.972C466.462 414.823 465.989 414.831 465.674 414.837C463.181 416.303 461.665 419.486 460.298 422.193C460.15 422.669 460.158 423.142 460.476 423.294Z" fill="#58595B"/>
<path fill-rule="evenodd" clip-rule="evenodd" d="M454.316 447.7C454.313 447.542 454.155 447.545 454.152 447.388C453.609 443.612 454.763 437.912 455.795 434.108C457.571 436.44 459.038 439.094 458.931 441.778C458.826 444.619 456.494 446.24 454.316 447.7Z" fill="#58595B"/>
<path fill-rule="evenodd" clip-rule="evenodd" d="M461.686 454.345C460.132 455.478 458.114 457.093 456.557 458.068C456.245 458.232 456.096 458.708 456.102 459.023C457.112 462.475 458.43 465.605 460.058 468.413C462.81 463.946 463.378 460.623 461.849 454.657C461.689 454.503 461.686 454.345 461.686 454.345Z" fill="#58595B"/>
<path fill-rule="evenodd" clip-rule="evenodd" d="M470.507 437.461C469.262 438.273 468.516 440.495 468.563 443.018C468.622 446.171 470.086 448.668 471.979 448.79C471.667 448.954 471.198 449.12 470.883 449.126C468.993 449.161 467.529 446.665 467.467 443.354C467.247 440.045 468.775 437.493 470.507 437.461Z" fill="#A7A9AC"/>
<path fill-rule="evenodd" clip-rule="evenodd" d="M472.416 446.889C473.676 446.866 474.588 445.113 474.547 442.906C474.506 440.698 473.529 438.982 472.269 439.005C471.009 439.029 470.097 440.781 470.138 442.988C470.022 445.199 471.156 446.913 472.416 446.889Z" fill="#A7A9AC"/>
<path fill-rule="evenodd" clip-rule="evenodd" d="M419.919 438.157L419.752 441.925C419.752 441.925 423.786 448.385 423.894 449.017C424.187 449.78 438.125 450.47 438.125 450.47C438.125 450.47 438.053 446.255 435.923 441.419C434.511 437.922 431.366 435.699 429.407 433.76C427.156 431.058 421.349 434.171 420.717 434.28C420.085 434.388 420.419 438.233 419.919 438.157Z" fill="#F0B186"/>
<path fill-rule="evenodd" clip-rule="evenodd" d="M435.685 442.21C434.757 441.094 433.38 441.043 432.265 441.972C431.149 442.9 431.098 444.278 432.026 445.394L440.823 454.371C441.751 455.487 442.547 456.113 443.617 455.407C444.733 454.478 443.851 453.14 443.1 452.292L435.685 442.21Z" fill="#F0B186"/>
<path fill-rule="evenodd" clip-rule="evenodd" d="M429.699 439.687C429.488 440.718 430.67 441.317 431.993 441.229C433.566 441.192 435.099 440.073 435.31 439.041L436.453 429.605C436.664 428.574 436.804 427.886 435.231 427.923C433.658 427.96 433.127 429.285 432.916 430.316L429.699 439.687Z" fill="#F0B186"/>
<path fill-rule="evenodd" clip-rule="evenodd" d="M434.44 446.328C433.693 445.084 432.127 444.746 430.883 445.495C429.64 446.243 429.302 447.81 430.049 449.054L437.73 459.631C438.478 460.874 439.092 461.827 440.335 461.078C441.578 460.33 440.909 458.874 440.162 457.63L434.44 446.328Z" fill="#F0B186"/>
<path fill-rule="evenodd" clip-rule="evenodd" d="M429.424 446.411C428.676 445.167 427.323 444.908 426.079 445.657C424.836 446.405 424.577 447.759 425.324 449.003L432.659 459.21C433.406 460.454 434.099 461.194 435.263 460.658C436.507 459.909 435.838 458.453 435.224 457.501L429.424 446.411Z" fill="#F0B186"/>
<path fill-rule="evenodd" clip-rule="evenodd" d="M426.378 445.622C425.96 444.569 424.8 443.86 423.865 444.086C422.812 444.505 422.608 445.708 422.908 446.955L427.671 457.838C428.283 459.009 428.701 460.062 429.443 459.719C430.495 459.299 430.195 458.053 429.584 456.882L426.378 445.622Z" fill="#F0B186"/>
<path fill-rule="evenodd" clip-rule="evenodd" d="M380.468 407.381C385.872 423.529 415.757 440.188 418.789 441.964L432.88 432.727C432.88 432.727 410.816 410.9 403.295 404.419C409.699 389.513 413.425 381.758 414.109 368.968C415.214 366.336 410.946 350.383 405.461 354.659C394.413 363.272 378.147 393.013 380.468 407.381Z" fill="#3E7FA9"/>
<path fill-rule="evenodd" clip-rule="evenodd" d="M432.342 432.158C431.747 430.631 429.669 430.429 428.79 431.813L424.791 438.115C424.573 438.458 424.257 438.726 423.884 438.885L419.181 440.881C418.336 441.24 417.844 442.128 417.987 443.035L418.074 443.584C418.273 444.839 419.575 445.593 420.762 445.14L425.465 443.348C425.828 443.21 426.142 442.97 426.37 442.656L432.281 434.537C432.683 433.985 432.775 433.268 432.528 432.633L432.342 432.158Z" fill="#2C2A3F"/>
<path fill-rule="evenodd" clip-rule="evenodd" d="M506.731 451.076C507.488 451.16 507.88 449.924 507.767 448.633C507.43 447.061 506.812 445.714 506.055 445.631L499.154 445.635C498.396 445.551 497.891 445.496 497.976 447.039C498.061 448.583 499.043 448.948 499.8 449.031L506.731 451.076Z" fill="#F0B186"/>
<path fill-rule="evenodd" clip-rule="evenodd" d="M506.195 446.669C506.953 446.753 507.345 445.517 507.232 444.226C507.147 442.682 506.277 441.308 505.519 441.224L498.618 441.228C497.861 441.144 497.356 441.089 497.441 442.632C497.526 444.176 498.508 444.541 499.265 444.624L506.195 446.669Z" fill="#F0B186"/>
<path fill-rule="evenodd" clip-rule="evenodd" d="M506.137 442.571C506.895 442.655 507.287 441.419 507.174 440.128C507.089 438.584 506.219 437.209 505.461 437.126L498.56 437.13C497.803 437.046 497.298 436.99 497.383 438.534C497.468 440.078 498.45 440.442 499.207 440.526L506.137 442.571Z" fill="#F0B186"/>
<path fill-rule="evenodd" clip-rule="evenodd" d="M506.36 438.248C507.117 438.332 507.481 437.349 507.34 436.31C507.228 435.019 506.329 433.897 505.572 433.813L498.699 433.565C497.941 433.481 497.436 433.425 497.549 434.717C497.662 436.008 498.644 436.372 499.401 436.456L506.36 438.248Z" fill="#F0B186"/>
<path d="M468.366 354.736C468.366 354.736 456.965 355.191 456.385 360.973C449.091 381.009 436.576 360.793 437.802 349.114C443.296 348.166 447.966 339.729 451.091 333.241C451.052 330.707 458.993 348.258 461.488 348.166" fill="#FFBE88"/>
<path d="M459.56 343.14C458.47 337.534 456.72 347.672 452.092 343.038L449.44 337.914C449.053 339.82 442.276 346.747 441.992 347.601C444.44 352.76 445.491 362.53 447.86 364.112C450.847 366.107 453.227 365.967 455.368 365.149C455.368 365.149 462.134 356.356 459.56 343.14Z" fill="#FDA470"/>
<path d="M474.689 352.065C477.895 350.3 479.118 347.953 479.118 347.953L484.596 334.992C484.766 334.776 480.116 332.444 480.116 332.444L459.312 318.091C459.312 318.091 446.356 325.344 447.112 339.443C444.893 344.513 444.725 348.153 447.512 354.519C448.295 356.309 449.998 360.544 450.469 360.918C450.972 361.492 454.789 364.117 456.577 364.786C459.784 365.987 462.68 363.082 464.065 362.778C466.575 360.372 469.102 358.679 471.661 356.831C473.038 355.836 473.821 353.656 474.689 352.065Z" fill="#FFBE88"/>
<path opacity="0.5" d="M456.885 357.261C455.948 356.29 456.687 355.865 457.657 356.802V356.802C458.467 357.585 459.269 357.785 460.081 358.447C459.718 358.804 458.55 358.832 458.002 358.327C457.681 358.032 457.273 357.664 456.885 357.261Z" fill="#E17C5C"/>
<g style="mix-blend-mode:multiply" opacity="0.3">
<path d="M456.317 323.099C458.932 325.175 465.377 326.938 468.448 327.41C472.122 327.974 476.28 330.595 478.767 333.464C480.726 335.723 483.842 339.466 483.917 342.302C483.677 340.845 481.015 337.011 478.155 336.478C475.562 332.001 469.39 330.434 468.218 329.646C467.339 329.059 465.831 329.185 464.81 329.078C463.5 328.943 459.996 331.754 458.898 332.31C457.521 333 456.944 335.526 453.599 338.112C448.053 344.532 448.917 348.74 449.973 356.731C449.973 356.731 441.868 346.886 447.372 337.825C448.798 335.478 449.837 327.307 452.35 326.136C455.019 324.889 453.821 321.124 456.317 323.099Z" fill="#FA8C6B"/>
</g>
<path d="M456.452 313.739C458.395 312.148 469.413 318.888 471.45 319.751C473.188 320.496 475.268 321.427 476.553 322.902C478.093 324.666 477.541 326.901 475.246 327.477C474.121 327.759 472.891 327.553 471.705 327.344L468.194 326.731C467.375 326.588 467.791 327.009 467.012 327.186C466.447 327.314 464.675 327.036 464.206 327.333C462.371 328.464 459.07 328.695 457.225 329.712C456.574 330.069 457.118 331.975 452.13 336.195C451.877 334.379 452.076 330.976 451.815 329.154C450.837 329.857 450.029 330.757 449.437 331.802C448.845 332.847 448.481 334.017 448.366 335.243C448.194 337.193 446.902 341.777 445.928 343.413C445.332 344.413 444.979 342.417 443.689 342.737C446.157 335.364 444.431 322.644 456.452 313.739Z" fill="#C66A15"/>
<path d="M452.481 331.562C452.91 329.799 451.705 327.44 449.733 327.276C446.832 327.077 445.047 330.568 445.07 333.215C445.13 334.841 445.845 337.338 447.413 337.531C449.588 337.68 451.707 334.981 452.481 331.562Z" fill="#FFA274"/>
<path d="M450.953 330.349C450.906 329.436 450.37 328.659 449.324 328.53C447.351 328.366 446.009 330.806 446.018 332.742C446.018 332.742 445.933 332.85 446.05 332.943C446.701 330.655 448.75 328.775 450.953 330.349Z" fill="#FB8761"/>
<path d="M449.847 328.593C449.847 328.593 452.442 329.425 449.845 332.975C449.205 332.818 448.611 333.574 448.69 334.689C448.351 335.121 447.946 335.15 447.946 335.15C447.946 335.15 447.108 333.784 448.244 332.581C448.753 331.933 449.766 331.86 449.766 331.86C449.766 331.86 450.992 329.326 449.847 328.593Z" fill="#E86850"/>
<path opacity="0.16" d="M455.474 329.087C455.294 327.373 454.462 325.731 453.147 324.492C454.284 324.197 455.349 323.719 456.301 323.078C455.751 323.019 455.205 322.891 454.676 322.697C456.299 322.348 457.696 321.441 458.625 320.13C458.976 321.511 458.204 322.798 457.461 323.915C458.476 323.882 459.434 323.562 460.222 322.993C460.151 324.299 459.006 325.116 458.057 325.804C458.914 326.151 460.073 325.747 460.821 325.305C460.89 325.249 460.981 325.223 461.075 325.234C461.289 325.287 461.25 325.601 461.144 325.776C460.502 326.833 459.513 327.629 458.321 328.046C457.833 328.213 455.397 328.317 455.474 329.087Z" fill="#F9C482"/>
<path fill-rule="evenodd" clip-rule="evenodd" d="M452.404 333.131L455.641 329.212L458.842 329.005C453.712 329.874 450.149 339.923 449.266 345.22C449.266 345.22 451.089 352.516 454.58 350.824C455.327 350.793 459.586 351.283 459.586 351.283L463.56 355.54L467.966 357.904L468.062 359.284C467.826 359.683 465.11 362.137 464.625 363.051L460.484 367.366C452.887 369.299 446.392 356.277 444.39 350.189L448.41 339.462C448.41 339.462 445.312 344.591 447.703 341.35C449.513 338.897 449.683 335.941 449.683 335.941L452.38 333.099L452.404 333.131Z" fill="#DF8835"/>
<path fill-rule="evenodd" clip-rule="evenodd" d="M465.94 358.405C461.194 356.319 457.764 352.983 457.764 352.983C457.764 352.983 454.802 354.305 454.167 357.83C454.334 359.958 457.229 361.432 457.229 361.432L458.654 360.716L458.647 362.73C458.647 362.73 460.254 363.949 460.953 363.576C462.979 360.191 466.108 358.584 465.94 358.405Z" fill="#FFBE88"/>
<path fill-rule="evenodd" clip-rule="evenodd" d="M463.775 358.942C464.392 358.341 464.286 359.132 462.929 358.212C462.161 358.006 461.248 357.671 460.33 357.013C458.928 356.008 458.258 356.233 457.413 355.137C456.568 354.041 456.553 355.185 456.977 355.862C457.698 356.403 456.759 356.71 459.726 358.067C462.692 359.424 463.157 359.544 463.775 358.942Z" fill="#DC9265"/>
<path fill-rule="evenodd" clip-rule="evenodd" d="M460.515 360.713C460.777 360.458 460.732 360.794 460.156 360.403C459.83 360.316 459.442 360.174 459.053 359.894C458.458 359.468 458.173 359.563 457.815 359.098C457.456 358.633 457.449 359.119 457.629 359.406C457.936 359.635 457.537 359.766 458.796 360.342C460.055 360.918 460.252 360.968 460.515 360.713Z" fill="#DC9265"/>
<path d="M461.093 336.463C460.09 336.711 456.259 338.52 460.647 342.148C465.036 345.777 466.62 342.778 467.444 340.725C467.602 339.73 462.621 336.131 461.093 336.463Z" fill="#FBAB77"/>
<path d="M459.73 340.799C458.769 341.663 460.291 342.253 461.449 343.481C462.626 344.73 463.267 345.852 464.287 344.937C465.307 344.022 465.535 343.586 464.358 342.337C463.199 341.11 461.183 340.708 459.73 340.799Z" fill="white"/>
<path d="M463.592 342.66C464.252 343.186 464.316 344.157 463.781 344.836C463.63 345.015 463.781 344.836 463.297 345.192C462.902 344.92 462.766 345.18 462.15 344.69C461.913 344.491 461.339 343.633 461.146 343.469C461.172 343.308 461.249 343.129 461.415 342.932C461.957 342.289 462.954 342.152 463.592 342.66Z" fill="#6D2132"/>
<path d="M462.235 341.963L462.653 343.391L461.422 342.585L462.235 341.963Z" fill="white"/>
<path d="M464.81 344.65C464.893 343.968 464.823 343.833 462.938 342.518C461.177 341.294 460.067 340.81 459.533 341.019C459.964 340.381 461.184 340.131 463.804 341.738C466.111 343.151 465.407 343.992 464.81 344.65Z" fill="#C66A15"/>
<path d="M477.251 348.785C477.23 349.718 475.359 352.933 472.138 350.781C468.186 348.155 471.022 346.176 472.572 344.77C473.363 344.309 477.281 347.365 477.251 348.785Z" fill="#FBAB77"/>
<path d="M474.231 351.807C473.751 352.48 473.008 352.029 471.776 351.08C470.395 350.024 469.376 349.422 469.892 348.71C470.386 347.978 472.2 348.153 473.465 349.025C474.714 349.955 474.761 351.036 474.231 351.807Z" fill="white"/>
<path d="M473.225 349.093C473.847 349.541 473.932 350.545 473.381 351.337C473.211 351.602 473.028 351.748 472.82 351.834C472.564 351.663 472.347 351.721 472.025 351.486C471.462 351.076 470.981 350.768 470.823 350.367C470.842 350.172 470.897 349.94 471.072 349.714C471.623 348.923 472.564 348.644 473.225 349.093Z" fill="#6D2132"/>
<path d="M471.863 348.689L472.09 350.206L471.112 349.211L471.863 348.689Z" fill="white"/>
<path d="M469.94 348.659C470.432 348.41 471.891 348.997 473.443 350.094C474.873 351.143 474.262 351.292 474.264 351.771C474.626 351.263 475.531 350.367 474.021 349.139C472.274 347.72 470.283 347.996 469.94 348.659Z" fill="#C66A15"/>
<path d="M460.807 336.229C460.807 336.229 463.674 338.503 467.134 342.556C468.533 343.305 470.281 341.874 470.045 341.534C468.385 339.107 465.255 337.119 462.488 335.043C461.546 334.917 460.807 336.229 460.807 336.229Z" fill="#C66A15"/>
<path d="M478.413 348.619C478.413 348.619 477.988 347.656 472.531 346.443C472.487 345.726 472.947 344.736 473.473 344.744C475.343 344.773 478.827 346.275 479.289 347.125C479.75 347.975 478.413 348.619 478.413 348.619Z" fill="#C66A15"/>
<path d="M472.721 344.705C472.645 345.004 469.405 349.427 467.616 356.014C466.918 356.626 465.971 357.07 464.025 355.667C463.046 354.961 461.72 353.865 461.671 352.489C461.651 352.374 461.679 352.237 461.748 352.106C461.933 351.811 462.908 354.758 465.067 354.838C464.855 354.707 466.071 356.284 467.68 352.934C469.418 346.535 470.987 347.208 472.721 344.678C472.721 344.678 472.726 344.687 472.721 344.705Z" fill="#DC9265"/>
<path fill-rule="evenodd" clip-rule="evenodd" d="M460.426 312.408C470.319 311.409 499.562 322.049 481.344 345.462C481.163 341.749 480.147 334.861 470.4 329.796C461.487 323.793 459.487 327.341 453.449 327.123C450.467 327.015 447.646 324.96 447.646 324.96C447.646 324.96 452.529 313.24 460.426 312.408Z" fill="#2C2A3F"/>
<path fill-rule="evenodd" clip-rule="evenodd" d="M450.25 320.202C458.02 323.489 474.18 328.862 486.72 327.547C483.576 316.611 467.413 311.628 460.6 312.343C455.957 312.826 452.45 316.856 450.25 320.202Z" fill="#334866"/>
<g style="mix-blend-mode:multiply">
<path fill-rule="evenodd" clip-rule="evenodd" d="M460.85 325.936C461.209 328.667 461.061 328.983 463.707 333.378C465.468 336.818 471.015 336.824 473.628 339.837C476.706 343.252 478.367 343.395 479.359 347.476C479.955 344.893 483.185 340.981 482.309 338.496C480.166 322.402 465.496 327.774 460.85 325.936Z" fill="#AE7670" fill-opacity="0.5"/>
</g>
<path fill-rule="evenodd" clip-rule="evenodd" d="M460.966 325.487C463.485 329.818 462.69 328.055 465.336 332.45C467.097 335.89 474.301 338.124 476.914 341.136C479.992 344.552 480.086 344.842 481.079 348.922C482.479 349.109 485.369 348.676 484.494 346.19C485.026 338.611 471.702 326.583 460.966 325.487Z" fill="#334866"/>
<path fill-rule="evenodd" clip-rule="evenodd" d="M520.203 466.154C524.768 466.154 528.382 473.005 528.382 481.569C528.382 489.943 524.768 496.985 520.203 496.985C515.638 496.985 512.025 490.134 512.025 481.569C512.025 473.005 515.829 466.154 520.203 466.154Z" fill="#24282C"/>
<path fill-rule="evenodd" clip-rule="evenodd" d="M523.437 466.154C528.001 466.154 531.615 473.005 531.615 481.569C531.615 489.943 528.001 496.985 523.437 496.985C518.872 496.985 515.258 490.134 515.258 481.569C515.068 473.005 518.872 466.154 523.437 466.154Z" fill="#69777C"/>
<defs>
<filter id="filter0_f" x="644.325" y="125.579" width="119.304" height="96.7333" filterUnits="userSpaceOnUse" color-interpolation-filters="sRGB">
<feFlood flood-opacity="0" result="BackgroundImageFix"/>
<feBlend mode="normal" in="SourceGraphic" in2="BackgroundImageFix" result="shape"/>
<feGaussianBlur stdDeviation="2.5" result="effect1_foregroundBlur"/>
</filter>
<linearGradient id="paint0_linear" x1="646.149" y1="197.844" x2="299.562" y2="380.238" gradientUnits="userSpaceOnUse">
<stop stop-color="#FFD9A1" stop-opacity="0.0416667"/>
<stop offset="0.119792" stop-color="#FFD9A1"/>
<stop offset="1" stop-color="#FFD9A1" stop-opacity="0"/>
</linearGradient>
<linearGradient id="paint1_linear" x1="610.896" y1="189.162" x2="146.02" y2="234.425" gradientUnits="userSpaceOnUse">
<stop stop-color="#FFD9A1" stop-opacity="0.0416667"/>
<stop offset="0.119792" stop-color="#FFD9A1"/>
<stop offset="1" stop-color="#FFD9A1" stop-opacity="0"/>
</linearGradient>
<linearGradient id="paint2_linear" x1="729.545" y1="212.331" x2="901.34" y2="381.843" gradientUnits="userSpaceOnUse">
<stop stop-color="#FFD9A1" stop-opacity="0.0416667"/>
<stop offset="0.119792" stop-color="#FFD9A1"/>
<stop offset="1" stop-color="#FFD9A1" stop-opacity="0"/>
</linearGradient>
<linearGradient id="paint3_linear" x1="655.31" y1="218.433" x2="515.588" y2="423.073" gradientUnits="userSpaceOnUse">
<stop stop-color="#FFD9A1" stop-opacity="0.0416667"/>
<stop offset="0.119792" stop-color="#FFD9A1"/>
<stop offset="1" stop-color="#FFD9A1" stop-opacity="0"/>
</linearGradient>
<clipPath id="clip0">
<rect width="47.29" height="70.9502" fill="white" transform="translate(754.275 446.312) rotate(2.41421)"/>
</clipPath>
</defs>
</svg>
